<svg xmlns="http://www.w3.org/2000/svg" viewBox="0 0 1585.25 1000">
<g fill="#000">
  <path d="M99 1v998H1V1h98m1-1H0v1000h100V0Z"/>
  <path d="M198.06 1v998h-98V1h98m1-1h-100v1000h100V0Z"/>
  <path d="M297.2 1v998h-98V1h98m1-1h-100v1000h100V0Z"/>
  <path d="M396.17 1v998h-98V1h98m1-1h-100v1000h100V0Z"/>
  <path d="M495.19 1v998h-98V1h98m1-1h-100v1000h100V0Z"/>
  <path d="M594.27 1v998h-98V1h98m1-1h-100v1000h100V0Z"/>
  <path d="M693.35 1v998h-98V1h98m1-1h-100v1000h100V0Z"/>
  <path d="M792.44 1v998h-98V1h98m1-1h-100v1000h100V0Z"/>
  <path d="M891.47 1v998h-98V1h98m1-1h-100v1000h100V0Z"/>
  <path d="M990.48 1v998h-98V1h98m1-1h-100v1000h100V0Z"/>
  <path d="M1089.48 1v998h-98V1h98m1-1h-100v1000h100V0Z"/>
  <path d="M1188.47 1v998h-98V1h98m1-1h-100v1000h100V0Z"/>
  <path d="M1287.45 1v998h-98V1h98m1-1h-100v1000h100V0Z"/>
  <path d="M1386.16 1v998h-98V1h98m1-1h-100v1000h100V0Z"/>
  <path d="M1485.2 1v998h-98V1h98m1-1h-100v1000h100V0Z"/>
  <path d="M1584.25 1v998h-98V1h98m1-1h-100v1000h100V0Z"/>
</g>
</svg>
