<?xml version="1.0" encoding="UTF-8"?>
<svg xmlns="http://www.w3.org/2000/svg" xmlns:xlink="http://www.w3.org/1999/xlink" width="1920pt" height="1080pt" viewBox="0 0 1920 1080" version="1.1">
<g id="surface1">
<rect x="0" y="0" width="1920" height="1080" style="fill:rgb(47.459412%,0%,85.9375%);fill-opacity:1;stroke:none;"/>
<path style=" stroke:none;fill-rule:nonzero;fill:rgb(42.358398%,0%,75.78125%);fill-opacity:1;" d="M 1640.148438 -443.488281 C 2183.320313 -443.488281 2623.640625 -3.171875 2623.640625 540 C 2623.640625 1083.167969 2183.320313 1523.492188 1640.148438 1523.492188 C 1096.980469 1523.492188 656.65625 1083.167969 656.65625 540 C 656.65625 -3.171875 1096.980469 -443.488281 1640.148438 -443.488281 M 1640.148438 1916.703125 C 2400.480469 1916.703125 3016.851563 1300.332031 3016.851563 540 C 3016.851563 -220.328125 2400.480469 -836.699219 1640.148438 -836.699219 C 879.816406 -836.699219 263.445313 -220.328125 263.445313 540 C 263.445313 1300.332031 879.816406 1916.703125 1640.148438 1916.703125 "/>
<path style=" stroke:none;fill-rule:nonzero;fill:rgb(42.358398%,0%,75.78125%);fill-opacity:1;" d="M 1640.148438 343.328125 C 1748.769531 343.328125 1836.820313 431.382813 1836.820313 540 C 1836.820313 648.621094 1748.769531 736.671875 1640.148438 736.671875 C 1531.53125 736.671875 1443.480469 648.621094 1443.480469 540 C 1443.480469 431.382813 1531.53125 343.328125 1640.148438 343.328125 M 1640.148438 1130.015625 C 1966.011719 1130.015625 2230.171875 865.859375 2230.171875 540 C 2230.171875 214.144531 1966.011719 -50.019531 1640.148438 -50.019531 C 1314.289063 -50.019531 1050.128906 214.144531 1050.128906 540 C 1050.128906 865.859375 1314.289063 1130.015625 1640.148438 1130.015625 "/>
<path style=" stroke:none;fill-rule:nonzero;fill:rgb(47.459412%,31.762695%,100%);fill-opacity:1;" d="M 0 -185.878906 C 400.890625 -185.878906 725.878906 139.109375 725.878906 540 C 725.878906 940.890625 400.890625 1265.878906 0 1265.878906 C -400.890625 1265.878906 -725.878906 940.890625 -725.878906 540 C -725.878906 139.109375 -400.890625 -185.878906 0 -185.878906 M 0 1556.09375 C 561.171875 1556.09375 1016.089844 1101.171875 1016.089844 540 C 1016.089844 -21.171875 561.171875 -476.089844 0 -476.089844 C -561.171875 -476.089844 -1016.089844 -21.171875 -1016.089844 540 C -1016.089844 1101.171875 -561.171875 1556.09375 0 1556.09375 "/>
<path style=" stroke:none;fill-rule:nonzero;fill:rgb(47.459412%,31.762695%,100%);fill-opacity:1;" d="M 0 394.84375 C 80.167969 394.84375 145.15625 459.832031 145.15625 540 C 145.15625 620.167969 80.167969 685.15625 0 685.15625 C -80.167969 685.15625 -145.15625 620.167969 -145.15625 540 C -145.15625 459.832031 -80.167969 394.84375 0 394.84375 M 0 975.46875 C 240.503906 975.46875 435.46875 780.503906 435.46875 540 C 435.46875 299.496094 240.503906 104.53125 0 104.53125 C -240.503906 104.53125 -435.46875 299.496094 -435.46875 540 C -435.46875 780.503906 -240.503906 975.46875 0 975.46875 "/>
<path style=" stroke:none;fill-rule:nonzero;fill:rgb(47.459412%,0%,85.9375%);fill-opacity:1;" d="M 1214.058594 273.753906 C 1361.101563 273.753906 1480.300781 392.957031 1480.300781 540 C 1480.300781 687.042969 1361.101563 806.246094 1214.058594 806.246094 C 1067.019531 806.246094 947.8125 687.042969 947.8125 540 C 947.8125 392.957031 1067.019531 273.753906 1214.058594 273.753906 M 1214.058594 912.691406 C 1419.890625 912.691406 1586.75 745.832031 1586.75 540 C 1586.75 334.167969 1419.890625 167.308594 1214.058594 167.308594 C 1008.230469 167.308594 841.363281 334.167969 841.363281 540 C 841.363281 745.832031 1008.230469 912.691406 1214.058594 912.691406 "/>
<path style=" stroke:none;fill-rule:nonzero;fill:rgb(47.459412%,0%,85.9375%);fill-opacity:1;" d="M 1214.058594 486.757813 C 1243.460938 486.757813 1267.300781 510.59375 1267.300781 540 C 1267.300781 569.40625 1243.460938 593.242188 1214.058594 593.242188 C 1184.648438 593.242188 1160.820313 569.40625 1160.820313 540 C 1160.820313 510.59375 1184.648438 486.757813 1214.058594 486.757813 M 1214.058594 699.726563 C 1302.269531 699.726563 1373.78125 628.214844 1373.78125 540 C 1373.78125 451.785156 1302.269531 380.273438 1214.058594 380.273438 C 1125.839844 380.273438 1054.328125 451.785156 1054.328125 540 C 1054.328125 628.214844 1125.839844 699.726563 1214.058594 699.726563 "/>
</g>
</svg>
