<?xml version="1.0" encoding="UTF-8"?>
<svg xmlns="http://www.w3.org/2000/svg" xmlns:xlink="http://www.w3.org/1999/xlink" width="1920pt" height="1080pt" viewBox="0 0 1920 1080" version="1.1">
<g id="surface1">
<rect x="0" y="0" width="1920" height="1080" style="fill:rgb(86.71875%,17.259216%,20.776367%);fill-opacity:1;stroke:none;"/>
<path style=" stroke:none;fill-rule:nonzero;fill:rgb(47.459412%,0%,85.9375%);fill-opacity:1;" d="M 109.421875 -58.390625 L 337.347656 -58.390625 C 490.804688 -58.390625 615.207031 66.011719 615.207031 219.46875 C 615.207031 372.925781 490.804688 497.324219 337.347656 497.324219 L 109.421875 497.324219 C -44.035156 497.324219 -168.4375 372.925781 -168.4375 219.46875 C -168.4375 66.011719 -44.035156 -58.390625 109.421875 -58.390625 "/>
<path style=" stroke:none;fill-rule:nonzero;fill:rgb(100%,18.821716%,23.143005%);fill-opacity:1;" d="M 916.101563 -154.941406 L 2105.398438 -154.941406 C 2190.96875 -154.941406 2260.339844 -85.570313 2260.339844 0 C 2260.339844 85.570313 2190.96875 154.9375 2105.398438 154.9375 L 916.101563 154.9375 C 830.53125 154.9375 761.164063 85.570313 761.164063 0 C 761.164063 -85.570313 830.53125 -154.941406 916.101563 -154.941406 "/>
<path style=" stroke:none;fill-rule:nonzero;fill:rgb(74.414063%,12.547302%,15.696716%);fill-opacity:1;" d="M -61.828125 -103.351563 L 1312.28125 -103.351563 C 1465.738281 -103.351563 1590.140625 21.050781 1590.140625 174.503906 C 1590.140625 327.960938 1465.738281 452.359375 1312.28125 452.359375 L -61.828125 452.359375 C -215.285156 452.359375 -339.683594 327.960938 -339.683594 174.503906 C -339.683594 21.050781 -215.285156 -103.351563 -61.828125 -103.351563 "/>
<path style=" stroke:none;fill-rule:nonzero;fill:rgb(100%,18.821716%,23.143005%);fill-opacity:1;" d="M -799.074219 196.410156 L 791.664063 196.410156 C 1099.398438 196.410156 1348.859375 445.878906 1348.859375 753.609375 C 1348.859375 1061.34375 1099.398438 1310.808594 791.664063 1310.808594 L -799.074219 1310.808594 C -1106.808594 1310.808594 -1356.269531 1061.34375 -1356.269531 753.609375 C -1356.269531 445.878906 -1106.808594 196.410156 -799.074219 196.410156 "/>
<path style=" stroke:none;fill-rule:nonzero;fill:rgb(74.414063%,12.547302%,15.696716%);fill-opacity:1;" d="M 1086.128906 599.171875 L 1863.628906 599.171875 C 2017.089844 599.171875 2141.488281 723.574219 2141.488281 877.03125 C 2141.488281 1030.488281 2017.089844 1154.886719 1863.628906 1154.886719 L 1086.128906 1154.886719 C 932.671875 1154.886719 808.273438 1030.488281 808.273438 877.03125 C 808.273438 723.574219 932.671875 599.171875 1086.128906 599.171875 "/>
<path style=" stroke:none;fill-rule:nonzero;fill:rgb(100%,0%,5.488586%);fill-opacity:1;" d="M -661.996094 803.066406 L 812.316406 803.066406 C 910.925781 803.066406 990.863281 883.003906 990.863281 981.609375 C 990.863281 1080.21875 910.925781 1160.15625 812.316406 1160.15625 L -661.996094 1160.15625 C -760.605469 1160.15625 -840.542969 1080.21875 -840.542969 981.609375 C -840.542969 883.003906 -760.605469 803.066406 -661.996094 803.066406 "/>
<path style=" stroke:none;fill-rule:nonzero;fill:rgb(100%,0%,5.488586%);fill-opacity:1;" d="M 1278.789063 289.6875 L 2705.789063 289.6875 C 2844.03125 289.6875 2956.101563 401.757813 2956.101563 540 C 2956.101563 678.242188 2844.03125 790.3125 2705.789063 790.3125 L 1278.789063 790.3125 C 1140.550781 790.3125 1028.480469 678.242188 1028.480469 540 C 1028.480469 401.757813 1140.550781 289.6875 1278.789063 289.6875 "/>
</g>
</svg>
