<?xml version="1.0" encoding="UTF-8"?>
<svg xmlns="http://www.w3.org/2000/svg" xmlns:xlink="http://www.w3.org/1999/xlink" width="1920pt" height="1080pt" viewBox="0 0 1920 1080" version="1.1">
<g id="surface1">
<rect x="0" y="0" width="1920" height="1080" style="fill:rgb(13.330078%,42.747498%,85.9375%);fill-opacity:1;stroke:none;"/>
<path style=" stroke:none;fill-rule:nonzero;fill:rgb(13.330078%,42.747498%,85.9375%);fill-opacity:1;" d="M 109.421875 -58.390625 L 337.347656 -58.390625 C 490.804688 -58.390625 615.207031 66.011719 615.207031 219.46875 C 615.207031 372.925781 490.804688 497.324219 337.347656 497.324219 L 109.421875 497.324219 C -44.035156 497.324219 -168.4375 372.925781 -168.4375 219.46875 C -168.4375 66.011719 -44.035156 -58.390625 109.421875 -58.390625 "/>
<path style=" stroke:none;fill-rule:nonzero;fill:rgb(0%,68.164063%,100%);fill-opacity:1;" d="M 516.28125 -103.351563 L 1403.71875 -103.351563 C 1557.171875 -103.351563 1681.578125 21.050781 1681.578125 174.503906 C 1681.578125 327.960938 1557.171875 452.363281 1403.71875 452.363281 L 516.28125 452.363281 C 362.824219 452.363281 238.425781 327.960938 238.425781 174.503906 C 238.425781 21.050781 362.824219 -103.351563 516.28125 -103.351563 "/>
<path style=" stroke:none;fill-rule:nonzero;fill:rgb(0%,58.396912%,100%);fill-opacity:1;" d="M -180.464844 155.632813 L 592.703125 155.632813 C 900.433594 155.632813 1149.898438 405.097656 1149.898438 712.828125 L 1149.898438 712.832031 C 1149.898438 1020.5625 900.433594 1270.03125 592.703125 1270.03125 L -180.464844 1270.03125 C -488.195313 1270.03125 -737.664063 1020.5625 -737.664063 712.832031 L -737.664063 712.828125 C -737.664063 405.097656 -488.195313 155.632813 -180.464844 155.632813 "/>
<path style=" stroke:none;fill-rule:nonzero;fill:rgb(0%,80.859375%,100%);fill-opacity:1;" d="M 800.332031 403.601563 L 2296.660156 403.601563 C 2371.988281 403.601563 2433.058594 464.667969 2433.058594 540 C 2433.058594 615.332031 2371.988281 676.398438 2296.660156 676.398438 L 800.332031 676.398438 C 725 676.398438 663.933594 615.332031 663.933594 540 C 663.933594 464.667969 725 403.601563 800.332031 403.601563 "/>
<path style=" stroke:none;fill-rule:nonzero;fill:rgb(13.330078%,42.747498%,85.9375%);fill-opacity:1;" d="M 1171.691406 631.875 L 2708.351563 631.875 C 2857.21875 631.875 2977.898438 752.554688 2977.898438 901.425781 C 2977.898438 1050.292969 2857.21875 1170.972656 2708.351563 1170.972656 L 1171.691406 1170.972656 C 1022.820313 1170.972656 902.140625 1050.292969 902.140625 901.425781 C 902.140625 752.554688 1022.820313 631.875 1171.691406 631.875 "/>
</g>
</svg>
