<?xml version="1.0" encoding="UTF-8"?>
<svg xmlns="http://www.w3.org/2000/svg" xmlns:xlink="http://www.w3.org/1999/xlink" width="1920pt" height="1080pt" viewBox="0 0 1920 1080" version="1.1">
<g id="surface1">
<rect x="0" y="0" width="1920" height="1080" style="fill:rgb(0%,0%,0%);fill-opacity:1;stroke:none;"/>
<path style=" stroke:none;fill-rule:nonzero;fill:rgb(14.892578%,14.892578%,14.892578%);fill-opacity:1;" d="M 42.582031 804.15625 C 42.582031 969.4375 176.570313 1103.421875 341.851563 1103.421875 L 341.851563 1017.945313 C 223.777344 1017.945313 128.058594 922.230469 128.058594 804.15625 C 128.058594 686.082031 223.777344 590.363281 341.851563 590.363281 L 341.851563 504.886719 C 176.570313 504.886719 42.582031 638.871094 42.582031 804.15625 "/>
<path style=" stroke:none;fill-rule:nonzero;fill:rgb(14.892578%,14.892578%,14.892578%);fill-opacity:1;" d="M 341.851563 846.90625 C 318.238281 846.90625 299.097656 827.769531 299.097656 804.15625 C 299.097656 780.542969 318.238281 761.402344 341.851563 761.402344 C 365.460938 761.402344 384.601563 780.542969 384.601563 804.15625 C 384.601563 827.769531 365.460938 846.90625 341.851563 846.90625 M 341.851563 675.898438 C 271.015625 675.898438 213.59375 733.320313 213.59375 804.15625 C 213.59375 874.988281 271.015625 932.414063 341.851563 932.414063 C 412.683594 932.414063 470.109375 874.988281 470.109375 804.15625 C 470.109375 733.320313 412.683594 675.898438 341.851563 675.898438 "/>
<path style=" stroke:none;fill-rule:nonzero;fill:rgb(14.892578%,14.892578%,14.892578%);fill-opacity:1;" d="M 641.117188 804.15625 C 641.117188 969.4375 507.132813 1103.421875 341.851563 1103.421875 L 341.851563 1017.945313 C 459.925781 1017.945313 555.640625 922.230469 555.640625 804.15625 C 555.640625 686.082031 459.925781 590.363281 341.851563 590.363281 L 341.851563 504.886719 C 507.132813 504.886719 641.117188 638.871094 641.117188 804.15625 "/>
<path style=" stroke:none;fill-rule:nonzero;fill:rgb(14.892578%,14.892578%,14.892578%);fill-opacity:1;" d="M 341.851563 590.363281 L 2428.808594 590.363281 L 2428.808594 504.886719 L 341.851563 504.886719 Z M 341.851563 590.363281 "/>
<path style=" stroke:none;fill-rule:nonzero;fill:rgb(14.892578%,14.892578%,14.892578%);fill-opacity:1;" d="M 341.851563 1103.394531 L 2428.808594 1103.394531 L 2428.808594 1017.917969 L 341.851563 1017.917969 Z M 341.851563 1103.394531 "/>
<path style=" stroke:none;fill-rule:nonzero;fill:rgb(14.892578%,14.892578%,14.892578%);fill-opacity:1;" d="M -382.984375 590.363281 L 341.851563 590.363281 L 341.851563 504.886719 L -382.984375 504.886719 Z M -382.984375 590.363281 "/>
<path style=" stroke:none;fill-rule:nonzero;fill:rgb(14.892578%,14.892578%,14.892578%);fill-opacity:1;" d="M -382.984375 1103.394531 L 341.851563 1103.394531 L 341.851563 1017.917969 L -382.984375 1017.917969 Z M -382.984375 1103.394531 "/>
<path style=" stroke:none;fill-rule:nonzero;fill:rgb(14.892578%,14.892578%,14.892578%);fill-opacity:1;" d="M 1243.621094 846.90625 C 1220.011719 846.90625 1200.871094 827.769531 1200.871094 804.15625 C 1200.871094 780.542969 1220.011719 761.402344 1243.621094 761.402344 C 1267.230469 761.402344 1286.371094 780.542969 1286.371094 804.15625 C 1286.371094 827.769531 1267.230469 846.90625 1243.621094 846.90625 M 1243.621094 675.898438 C 1172.789063 675.898438 1115.359375 733.320313 1115.359375 804.15625 C 1115.359375 874.988281 1172.789063 932.414063 1243.621094 932.414063 C 1314.460938 932.414063 1371.878906 874.988281 1371.878906 804.15625 C 1371.878906 733.320313 1314.460938 675.898438 1243.621094 675.898438 "/>
<path style=" stroke:none;fill-rule:nonzero;fill:rgb(14.892578%,14.892578%,14.892578%);fill-opacity:1;" d="M 1455.238281 592.539063 C 1572.109375 709.410156 1572.109375 898.898438 1455.238281 1015.769531 L 1394.789063 955.328125 C 1478.28125 871.835938 1478.289063 736.472656 1394.789063 652.980469 C 1311.300781 569.492188 1175.941406 569.492188 1092.449219 652.980469 L 1032.011719 592.539063 C 1148.878906 475.671875 1338.359375 475.671875 1455.238281 592.539063 "/>
<path style=" stroke:none;fill-rule:nonzero;fill:rgb(14.892578%,14.892578%,14.892578%);fill-opacity:1;" d="M 1032.011719 1015.769531 C 1148.878906 1132.640625 1338.359375 1132.640625 1455.238281 1015.769531 L 1394.789063 955.328125 C 1311.300781 1038.820313 1175.941406 1038.820313 1092.449219 955.328125 C 1008.960938 871.835938 1008.960938 736.472656 1092.449219 652.984375 L 1032.011719 592.539063 C 915.136719 709.414063 915.136719 898.898438 1032.011719 1015.769531 "/>
<path style=" stroke:none;fill-rule:nonzero;fill:rgb(14.892578%,14.892578%,14.892578%);fill-opacity:1;" d="M 1457.410156 1481.207031 L 1542.886719 1481.207031 L 1542.886719 -401.011719 L 1457.410156 -401.011719 Z M 1457.410156 1481.207031 "/>
<path style=" stroke:none;fill-rule:nonzero;fill:rgb(14.892578%,14.892578%,14.892578%);fill-opacity:1;" d="M 944.375 1481.207031 L 1029.851563 1481.207031 L 1029.851563 -401.011719 L 944.375 -401.011719 Z M 944.375 1481.207031 "/>
<path style=" stroke:none;fill-rule:nonzero;fill:rgb(14.892578%,14.892578%,14.892578%);fill-opacity:1;" d="M 1457.429688 291.085938 L 1542.90625 291.085938 L 1542.90625 -458.5625 L 1457.429688 -458.5625 Z M 1457.429688 291.085938 "/>
<path style=" stroke:none;fill-rule:nonzero;fill:rgb(14.892578%,14.892578%,14.892578%);fill-opacity:1;" d="M -183.511719 1631.738281 L 488.707031 959.523438 L 549.148438 1019.964844 L -123.070313 1692.179688 Z M -183.511719 1631.738281 "/>
<path style=" stroke:none;fill-rule:nonzero;fill:rgb(14.892578%,14.892578%,14.892578%);fill-opacity:1;" d="M -546.277344 1268.972656 L 125.9375 596.753906 L 186.378906 657.195313 L -485.835938 1329.410156 Z M -546.277344 1268.972656 "/>
<path style=" stroke:none;fill-rule:nonzero;fill:rgb(14.892578%,14.892578%,14.892578%);fill-opacity:1;" d="M 2282.871094 652.601563 L 1605.421875 1330.046875 L 1544.980469 1269.605469 L 2222.429688 592.160156 Z M 2282.871094 652.601563 "/>
<path style=" stroke:none;fill-rule:nonzero;fill:rgb(14.892578%,14.892578%,14.892578%);fill-opacity:1;" d="M 2645.640625 1015.367188 L 1968.191406 1692.816406 L 1907.75 1632.375 L 2585.199219 954.925781 Z M 2645.640625 1015.367188 "/>
<path style=" stroke:none;fill-rule:nonzero;fill:rgb(14.892578%,14.892578%,14.892578%);fill-opacity:1;" d="M 556.738281 56.75 C 573.433594 73.449219 573.433594 100.519531 556.738281 117.214844 C 540.039063 133.910156 512.972656 133.910156 496.277344 117.214844 C 479.578125 100.519531 479.578125 73.449219 496.273438 56.75 C 512.972656 40.058594 540.039063 40.058594 556.738281 56.75 M 435.8125 177.675781 C 485.902344 227.761719 567.109375 227.765625 617.199219 177.675781 C 667.285156 127.589844 667.285156 46.378906 617.199219 -3.710938 C 567.109375 -53.800781 485.902344 -53.800781 435.8125 -3.710938 C 385.726563 46.378906 385.726563 127.585938 435.8125 177.675781 "/>
<path style=" stroke:none;fill-rule:nonzero;fill:rgb(14.892578%,14.892578%,14.892578%);fill-opacity:1;" d="M 314.890625 -124.628906 C 431.761719 -241.5 621.25 -241.5 738.121094 -124.628906 L 677.679688 -64.191406 C 594.1875 -147.679688 458.824219 -147.679688 375.332031 -64.191406 C 291.84375 19.300781 291.84375 154.664063 375.332031 238.15625 L 314.890625 298.597656 C 198.019531 181.726563 198.019531 -7.761719 314.890625 -124.628906 "/>
<path style=" stroke:none;fill-rule:nonzero;fill:rgb(14.892578%,14.892578%,14.892578%);fill-opacity:1;" d="M 375.335938 238.15625 L 1092.5 955.324219 L 1032.058594 1015.765625 L 314.894531 298.597656 Z M 375.335938 238.15625 "/>
<path style=" stroke:none;fill-rule:nonzero;fill:rgb(14.892578%,14.892578%,14.892578%);fill-opacity:1;" d="M 738.101563 -124.609375 L 1455.269531 592.554688 L 1394.828125 652.996094 L 677.660156 -64.171875 Z M 738.101563 -124.609375 "/>
<path style=" stroke:none;fill-rule:nonzero;fill:rgb(14.892578%,14.892578%,14.892578%);fill-opacity:1;" d="M 738.121094 298.597656 C 854.992188 181.726563 854.992188 -7.761719 738.121094 -124.628906 L 677.679688 -64.191406 C 761.171875 19.300781 761.171875 154.664063 677.679688 238.15625 C 594.1875 321.648438 458.824219 321.648438 375.335938 238.15625 L 314.890625 298.597656 C 431.765625 415.46875 621.25 415.46875 738.121094 298.597656 "/>
<path style=" stroke:none;fill-rule:nonzero;fill:rgb(14.892578%,14.892578%,14.892578%);fill-opacity:1;" d="M -901.234375 386.253906 L 540.515625 386.253906 L 540.515625 300.773438 L -901.234375 300.773438 Z M -901.234375 386.253906 "/>
<path style=" stroke:none;fill-rule:nonzero;fill:rgb(14.892578%,14.892578%,14.892578%);fill-opacity:1;" d="M 1907.839844 442.257813 L 1394.78125 955.324219 L 1455.21875 1015.765625 L 1968.28125 502.699219 Z M 1907.839844 442.257813 "/>
<path style=" stroke:none;fill-rule:nonzero;fill:rgb(14.892578%,14.892578%,14.892578%);fill-opacity:1;" d="M 1545.070313 79.488281 L 1032.011719 592.554688 L 1092.449219 652.996094 L 1605.511719 139.929688 Z M 1545.070313 79.488281 "/>
<path style=" stroke:none;fill-rule:nonzero;fill:rgb(14.892578%,14.892578%,14.892578%);fill-opacity:1;" d="M 1799.421875 291.085938 C 1799.421875 314.695313 1780.28125 333.835938 1756.671875 333.835938 C 1733.058594 333.835938 1713.921875 314.695313 1713.921875 291.085938 C 1713.921875 267.472656 1733.058594 248.332031 1756.671875 248.332031 C 1780.28125 248.332031 1799.421875 267.472656 1799.421875 291.085938 M 1884.929688 291.085938 C 1884.929688 220.25 1827.5 162.824219 1756.671875 162.824219 C 1685.828125 162.824219 1628.410156 220.25 1628.410156 291.085938 C 1628.410156 361.921875 1685.828125 419.34375 1756.671875 419.34375 C 1827.5 419.34375 1884.929688 361.921875 1884.929688 291.085938 "/>
<path style=" stroke:none;fill-rule:nonzero;fill:rgb(14.892578%,14.892578%,14.892578%);fill-opacity:1;" d="M 2055.941406 291.085938 C 2055.941406 125.804688 1921.949219 -8.179688 1756.671875 -8.179688 L 1756.671875 77.289063 C 1874.738281 77.289063 1970.460938 173.011719 1970.460938 291.085938 C 1970.460938 409.15625 1874.738281 504.875 1756.671875 504.875 L 1756.671875 590.351563 C 1921.949219 590.351563 2055.941406 456.367188 2055.941406 291.085938 "/>
<path style=" stroke:none;fill-rule:nonzero;fill:rgb(14.892578%,14.892578%,14.892578%);fill-opacity:1;" d="M 1457.398438 291.085938 C 1457.398438 125.804688 1591.390625 -8.179688 1756.671875 -8.179688 L 1756.671875 77.289063 C 1638.589844 77.289063 1542.878906 173.011719 1542.878906 291.085938 C 1542.878906 409.15625 1638.589844 504.875 1756.671875 504.875 L 1756.671875 590.351563 C 1591.390625 590.351563 1457.398438 456.367188 1457.398438 291.085938 "/>
<path style=" stroke:none;fill-rule:nonzero;fill:rgb(14.892578%,14.892578%,14.892578%);fill-opacity:1;" d="M 2542.039063 -796.480469 L 1605.558594 139.996094 L 1545.121094 79.558594 L 2481.589844 -856.921875 Z M 2542.039063 -796.480469 "/>
<path style=" stroke:none;fill-rule:nonzero;fill:rgb(14.892578%,14.892578%,14.892578%);fill-opacity:1;" d="M 2904.800781 -433.710938 L 1968.328125 502.765625 L 1907.890625 442.324219 L 2844.359375 -494.148438 Z M 2904.800781 -433.710938 "/>
<path style=" stroke:none;fill-rule:nonzero;fill:rgb(14.892578%,14.892578%,14.892578%);fill-opacity:1;" d="M 1756.671875 590.351563 L 3198.421875 590.351563 L 3198.421875 504.875 L 1756.671875 504.875 Z M 1756.671875 590.351563 "/>
<path style=" stroke:none;fill-rule:nonzero;fill:rgb(14.892578%,14.892578%,14.892578%);fill-opacity:1;" d="M 1756.671875 77.320313 L 3198.421875 77.320313 L 3198.421875 -8.15625 L 1756.671875 -8.15625 Z M 1756.671875 77.320313 "/>
</g>
</svg>
