<?xml version="1.0" encoding="UTF-8"?>
<svg xmlns="http://www.w3.org/2000/svg" xmlns:xlink="http://www.w3.org/1999/xlink" width="1920pt" height="1080pt" viewBox="0 0 1920 1080" version="1.1">
<g id="surface1">
<rect x="0" y="0" width="1920" height="1080" style="fill:rgb(47.459412%,0%,85.9375%);fill-opacity:1;stroke:none;"/>
<path style=" stroke:none;fill-rule:nonzero;fill:rgb(13.330078%,42.747498%,85.9375%);fill-opacity:1;" d="M 1810.578125 1138.390625 L 1582.648438 1138.390625 C 1429.191406 1138.390625 1304.789063 1013.988281 1304.789063 860.53125 C 1304.789063 707.074219 1429.191406 582.671875 1582.648438 582.671875 L 1810.578125 582.671875 C 1964.03125 582.671875 2088.441406 707.074219 2088.441406 860.53125 C 2088.441406 1013.988281 1964.03125 1138.390625 1810.578125 1138.390625 "/>
<path style=" stroke:none;fill-rule:nonzero;fill:rgb(47.459412%,31.762695%,100%);fill-opacity:1;" d="M 1123.878906 1152.878906 L 85.589844 1152.878906 C -93.949219 1152.878906 -239.496094 1007.332031 -239.496094 827.789063 C -239.496094 648.246094 -93.953125 502.699219 85.589844 502.699219 L 1123.878906 502.699219 C 1303.421875 502.699219 1448.960938 648.246094 1448.960938 827.789063 C 1448.960938 1007.332031 1303.421875 1152.878906 1123.878906 1152.878906 "/>
<path style=" stroke:none;fill-rule:nonzero;fill:rgb(43.138123%,0%,77.34375%);fill-opacity:1;" d="M 2173.238281 1097.199219 L 1400.078125 1097.199219 C 1092.339844 1097.199219 842.878906 847.734375 842.878906 540 C 842.875 232.265625 1092.339844 -17.199219 1400.078125 -17.199219 L 2173.238281 -17.199219 C 2480.96875 -17.199219 2730.441406 232.265625 2730.441406 540 C 2730.441406 847.730469 2480.96875 1097.199219 2173.238281 1097.199219 "/>
<path style=" stroke:none;fill-rule:nonzero;fill:rgb(43.138123%,0%,77.34375%);fill-opacity:1;" d="M 493.332031 502.710938 L -1043.328125 502.710938 C -1192.199219 502.710938 -1312.878906 382.027344 -1312.878906 233.160156 C -1312.878906 84.292969 -1192.199219 -36.390625 -1043.328125 -36.390625 L 493.332031 -36.390625 C 642.199219 -36.390625 762.878906 84.292969 762.878906 233.160156 C 762.878906 382.027344 642.199219 502.710938 493.332031 502.710938 "/>
</g>
</svg>
