<?xml version="1.0" encoding="UTF-8"?>
<svg xmlns="http://www.w3.org/2000/svg" xmlns:xlink="http://www.w3.org/1999/xlink" width="1920pt" height="1080pt" viewBox="0 0 1920 1080" version="1.1">
<g id="surface1">
<rect x="0" y="0" width="1920" height="1080" style="fill:rgb(47.459412%,0%,85.9375%);fill-opacity:1;stroke:none;"/>
<path style=" stroke:none;fill-rule:nonzero;fill:rgb(47.459412%,31.762695%,100%);fill-opacity:1;" d="M 982.003906 367.277344 C 1020.101563 367.277344 1050.980469 398.160156 1050.980469 436.253906 C 1050.980469 474.34375 1020.101563 505.226563 982.003906 505.226563 C 943.910156 505.226563 913.03125 474.34375 913.03125 436.253906 C 913.03125 398.160156 943.910156 367.277344 982.003906 367.277344 M 982.003906 229.328125 C 867.726563 229.328125 775.082031 321.972656 775.082031 436.253906 C 775.082031 550.53125 867.726563 643.175781 982.003906 643.175781 C 1096.289063 643.175781 1188.929688 550.53125 1188.929688 436.253906 C 1188.929688 321.972656 1096.289063 229.328125 982.003906 229.328125 "/>
<path style=" stroke:none;fill-rule:nonzero;fill:rgb(47.459412%,31.762695%,100%);fill-opacity:1;" d="M 640.601563 94.847656 C 452.046875 283.398438 452.046875 589.105469 640.601563 777.65625 L 738.113281 680.144531 C 603.414063 545.445313 603.414063 327.058594 738.113281 192.359375 C 872.808594 57.660156 1091.199219 57.660156 1225.898438 192.359375 L 1323.410156 94.847656 C 1134.859375 -93.710938 829.152344 -93.710938 640.601563 94.847656 "/>
<path style=" stroke:none;fill-rule:nonzero;fill:rgb(47.459412%,31.762695%,100%);fill-opacity:1;" d="M 1326.921875 1605.652344 L 1464.824219 1605.652344 L 1464.824219 436.25 L 1326.921875 436.25 Z M 1326.921875 1605.652344 "/>
<path style=" stroke:none;fill-rule:nonzero;fill:rgb(47.459412%,31.762695%,100%);fill-opacity:1;" d="M 499.230469 1605.652344 L 637.132813 1605.652344 L 637.132813 436.25 L 499.230469 436.25 Z M 499.230469 1605.652344 "/>
<path style=" stroke:none;fill-rule:nonzero;fill:rgb(47.459412%,31.762695%,100%);fill-opacity:1;" d="M 1323.410156 777.65625 C 1134.859375 966.210938 829.152344 966.210938 640.597656 777.65625 L 738.113281 680.144531 C 872.808594 814.84375 1091.199219 814.84375 1225.898438 680.144531 C 1360.601563 545.445313 1360.601563 327.058594 1225.898438 192.359375 L 1323.410156 94.847656 C 1511.960938 283.398438 1511.960938 589.101563 1323.410156 777.65625 "/>
<path style=" stroke:none;fill-rule:nonzero;fill:rgb(47.459412%,31.762695%,100%);fill-opacity:1;" d="M 982.003906 919.070313 L 2443.523438 919.070313 L 2443.523438 781.167969 L 982.003906 781.167969 Z M 982.003906 919.070313 "/>
<path style=" stroke:none;fill-rule:nonzero;fill:rgb(47.459412%,31.762695%,100%);fill-opacity:1;" d="M 982.003906 91.382813 L 2443.523438 91.382813 L 2443.523438 -46.523438 L 982.003906 -46.523438 Z M 982.003906 91.382813 "/>
<path style=" stroke:none;fill-rule:nonzero;fill:rgb(47.459412%,31.762695%,100%);fill-opacity:1;" d="M -60.5 465.402344 C -33.5625 492.339844 -33.5625 536.011719 -60.5 562.945313 C -87.433594 589.882813 -131.105469 589.882813 -158.042969 562.945313 C -184.980469 536.011719 -184.980469 492.339844 -158.042969 465.402344 C -131.105469 438.46875 -87.433594 438.46875 -60.5 465.402344 M -255.589844 660.492188 C -174.78125 741.300781 -43.765625 741.300781 37.046875 660.492188 C 117.851563 579.683594 117.851563 448.667969 37.046875 367.859375 C -43.761719 287.050781 -174.78125 287.050781 -255.589844 367.859375 C -336.398438 448.667969 -336.394531 579.683594 -255.589844 660.492188 "/>
<path style=" stroke:none;fill-rule:nonzero;fill:rgb(47.459412%,31.762695%,100%);fill-opacity:1;" d="M -450.675781 172.769531 C -262.125 -15.78125 43.582031 -15.78125 232.132813 172.769531 L 134.621094 270.28125 C -0.078125 135.582031 -218.464844 135.582031 -353.164063 270.28125 C -487.863281 404.980469 -487.863281 623.367188 -353.164063 758.066406 L -450.675781 855.578125 C -639.230469 667.027344 -639.230469 361.324219 -450.675781 172.769531 "/>
<path style=" stroke:none;fill-rule:nonzero;fill:rgb(47.459412%,31.762695%,100%);fill-opacity:1;" d="M -353.164063 758.066406 L 731.347656 1842.578125 L 633.835938 1940.089844 L -450.675781 855.578125 Z M -353.164063 758.066406 "/>
<path style=" stroke:none;fill-rule:nonzero;fill:rgb(47.459412%,31.762695%,100%);fill-opacity:1;" d="M 232.101563 172.800781 L 1316.609375 1257.3125 L 1219.101563 1354.824219 L 134.589844 270.3125 Z M 232.101563 172.800781 "/>
<path style=" stroke:none;fill-rule:nonzero;fill:rgb(47.459412%,31.762695%,100%);fill-opacity:1;" d="M 232.132813 855.578125 C 420.6875 667.027344 420.6875 361.324219 232.132813 172.769531 L 134.621094 270.28125 C 269.320313 404.980469 269.320313 623.371094 134.621094 758.066406 C -0.078125 892.765625 -218.464844 892.765625 -353.164063 758.066406 L -450.675781 855.578125 C -262.121094 1044.132813 43.578125 1044.132813 232.132813 855.578125 "/>
<path style=" stroke:none;fill-rule:nonzero;fill:rgb(47.459412%,31.762695%,100%);fill-opacity:1;" d="M -346.367188 -404.398438 L 738.144531 680.105469 L 640.632813 777.621094 L -443.878906 -306.890625 Z M -346.367188 -404.398438 "/>
<path style=" stroke:none;fill-rule:nonzero;fill:rgb(47.459412%,31.762695%,100%);fill-opacity:1;" d="M 238.898438 -989.671875 L 1323.410156 94.84375 L 1225.898438 192.355469 L 141.386719 -892.160156 Z M 238.898438 -989.671875 "/>
<path style=" stroke:none;fill-rule:nonzero;fill:rgb(47.459412%,31.762695%,100%);fill-opacity:1;" d="M 234.605469 5032.328125 L 372.507813 5032.328125 L 372.507813 -515.898438 L 234.605469 -515.898438 Z M 234.605469 5032.328125 "/>
<path style=" stroke:none;fill-rule:nonzero;fill:rgb(47.459412%,31.762695%,100%);fill-opacity:1;" d="M 1656.21875 1926.167969 L 1794.121094 1926.167969 L 1794.121094 -399.859375 L 1656.21875 -399.859375 Z M 1656.21875 1926.167969 "/>
<path style=" stroke:none;fill-rule:nonzero;fill:rgb(47.459412%,31.762695%,100%);fill-opacity:1;" d="M 2139.039063 82.960938 C 2405.699219 82.960938 2621.859375 -133.210938 2621.859375 -399.859375 L 2483.960938 -399.859375 C 2483.960938 -209.371094 2329.539063 -54.941406 2139.039063 -54.941406 C 1948.550781 -54.941406 1794.128906 -209.371094 1794.128906 -399.859375 L 1656.21875 -399.859375 C 1656.21875 -133.210938 1872.390625 82.960938 2139.039063 82.960938 "/>
</g>
</svg>
