<?xml version="1.0" encoding="UTF-8"?>
<svg xmlns="http://www.w3.org/2000/svg" xmlns:xlink="http://www.w3.org/1999/xlink" width="1920pt" height="1080pt" viewBox="0 0 1920 1080" version="1.1">
<g id="surface1">
<rect x="0" y="0" width="1920" height="1080" style="fill:rgb(100%,70.896912%,0%);fill-opacity:1;stroke:none;"/>
<path style=" stroke:none;fill-rule:nonzero;fill:rgb(100%,55.271912%,0%);fill-opacity:1;" d="M 1810.578125 1138.390625 L 1582.648438 1138.390625 C 1429.191406 1138.390625 1304.789063 1013.988281 1304.789063 860.53125 C 1304.789063 707.074219 1429.191406 582.675781 1582.648438 582.675781 L 1810.578125 582.675781 C 1964.03125 582.675781 2088.441406 707.074219 2088.441406 860.53125 C 2088.441406 1013.988281 1964.03125 1138.390625 1810.578125 1138.390625 "/>
<path style=" stroke:none;fill-rule:nonzero;fill:rgb(100%,55.271912%,0%);fill-opacity:1;" d="M 425.585938 986.664063 L -192.464844 986.664063 C -278.035156 986.664063 -347.402344 917.296875 -347.402344 831.726563 C -347.402344 746.15625 -278.035156 676.785156 -192.464844 676.785156 L 425.585938 676.785156 C 511.152344 676.785156 580.523438 746.15625 580.523438 831.726563 C 580.523438 917.296875 511.152344 986.664063 425.585938 986.664063 "/>
<path style=" stroke:none;fill-rule:nonzero;fill:rgb(100%,19.213867%,23.143005%);fill-opacity:1;" d="M 1403.71875 1183.355469 L 516.28125 1183.355469 C 362.824219 1183.355469 238.425781 1058.953125 238.425781 905.496094 C 238.425781 752.039063 362.824219 627.636719 516.28125 627.636719 L 1403.71875 627.636719 C 1557.179688 627.636719 1681.578125 752.039063 1681.578125 905.496094 C 1681.578125 1058.953125 1557.179688 1183.355469 1403.71875 1183.355469 "/>
<path style=" stroke:none;fill-rule:nonzero;fill:rgb(100%,35.693359%,0%);fill-opacity:1;" d="M 2100.460938 924.367188 L 1327.300781 924.367188 C 1019.558594 924.367188 770.097656 674.902344 770.097656 367.171875 L 770.097656 367.167969 C 770.097656 59.441406 1019.558594 -190.03125 1327.300781 -190.03125 L 2100.460938 -190.03125 C 2408.199219 -190.03125 2657.660156 59.441406 2657.660156 367.167969 L 2657.660156 367.171875 C 2657.660156 674.902344 2408.199219 924.367188 2100.460938 924.367188 "/>
<path style=" stroke:none;fill-rule:nonzero;fill:rgb(100%,70.896912%,0%);fill-opacity:1;" d="M 811.128906 503.570313 L 33.628906 503.570313 C -119.828125 503.570313 -244.230469 379.167969 -244.230469 225.710938 C -244.230469 72.25 -119.828125 -52.148438 33.628906 -52.148438 L 811.128906 -52.148438 C 964.585938 -52.148438 1088.988281 72.25 1088.988281 225.710938 C 1088.988281 379.167969 964.585938 503.570313 811.128906 503.570313 "/>
<path style=" stroke:none;fill-rule:nonzero;fill:rgb(100%,55.271912%,0%);fill-opacity:1;" d="M 1523.148438 639.96875 L 396.847656 639.96875 C 321.515625 639.96875 260.449219 578.902344 260.449219 503.570313 C 260.449219 428.238281 321.515625 367.171875 396.847656 367.171875 L 1523.148438 367.171875 C 1598.480469 367.171875 1659.550781 428.238281 1659.550781 503.570313 C 1659.550781 578.902344 1598.480469 639.96875 1523.148438 639.96875 "/>
<path style=" stroke:none;fill-rule:nonzero;fill:rgb(100%,35.693359%,0%);fill-opacity:1;" d="M 473.785156 746.578125 L -218.894531 746.578125 C -286.003906 746.578125 -340.402344 692.179688 -340.402344 625.074219 C -340.402344 557.96875 -286.003906 503.570313 -218.894531 503.570313 L 473.785156 503.570313 C 540.890625 503.570313 595.289063 557.96875 595.289063 625.074219 C 595.289063 692.179688 540.890625 746.578125 473.785156 746.578125 "/>
</g>
</svg>
