<?xml version="1.0" encoding="UTF-8"?>
<svg xmlns="http://www.w3.org/2000/svg" xmlns:xlink="http://www.w3.org/1999/xlink" width="1920pt" height="1080pt" viewBox="0 0 1920 1080" version="1.1">
<g id="surface1">
<rect x="0" y="0" width="1920" height="1080" style="fill:rgb(100%,70.896912%,0%);fill-opacity:1;stroke:none;"/>
<path style=" stroke:none;fill-rule:nonzero;fill:rgb(100%,55.271912%,0%);fill-opacity:1;" d="M 369.699219 747.25 C 369.699219 897.984375 491.894531 1020.179688 642.628906 1020.179688 L 642.628906 942.226563 C 534.945313 942.226563 447.652344 854.933594 447.652344 747.25 C 447.652344 639.570313 534.945313 552.277344 642.628906 552.277344 L 642.628906 474.324219 C 491.894531 474.324219 369.699219 596.515625 369.699219 747.25 "/>
<path style=" stroke:none;fill-rule:nonzero;fill:rgb(100%,55.271912%,0%);fill-opacity:1;" d="M 642.628906 786.238281 C 621.09375 786.238281 603.636719 768.785156 603.636719 747.25 C 603.636719 725.71875 621.09375 708.261719 642.628906 708.261719 C 664.160156 708.261719 681.617188 725.71875 681.617188 747.25 C 681.617188 768.785156 664.160156 786.238281 642.628906 786.238281 M 642.628906 630.28125 C 578.027344 630.28125 525.65625 682.648438 525.65625 747.25 C 525.65625 811.851563 578.027344 864.21875 642.628906 864.21875 C 707.226563 864.21875 759.597656 811.851563 759.597656 747.25 C 759.597656 682.648438 707.226563 630.28125 642.628906 630.28125 "/>
<path style=" stroke:none;fill-rule:nonzero;fill:rgb(100%,55.271912%,0%);fill-opacity:1;" d="M 915.554688 747.25 C 915.554688 897.984375 793.359375 1020.179688 642.628906 1020.179688 L 642.628906 942.226563 C 750.308594 942.226563 837.601563 854.933594 837.601563 747.25 C 837.601563 639.570313 750.308594 552.277344 642.628906 552.277344 L 642.628906 474.324219 C 793.359375 474.324219 915.554688 596.515625 915.554688 747.25 "/>
<path style=" stroke:none;fill-rule:nonzero;fill:rgb(100%,55.271912%,0%);fill-opacity:1;" d="M 642.628906 552.277344 L 2545.90625 552.277344 L 2545.90625 474.324219 L 642.628906 474.324219 Z M 642.628906 552.277344 "/>
<path style=" stroke:none;fill-rule:nonzero;fill:rgb(100%,55.271912%,0%);fill-opacity:1;" d="M 642.628906 1020.152344 L 2545.90625 1020.152344 L 2545.90625 942.199219 L 642.628906 942.199219 Z M 642.628906 1020.152344 "/>
<path style=" stroke:none;fill-rule:nonzero;fill:rgb(100%,55.271912%,0%);fill-opacity:1;" d="M -57.398438 747.25 C -57.398438 725.71875 -39.941406 708.261719 -18.410156 708.261719 C 3.125 708.261719 20.582031 725.71875 20.582031 747.25 C 20.582031 768.785156 3.125 786.238281 -18.410156 786.238281 C -39.941406 786.238281 -57.398438 768.785156 -57.398438 747.25 M -135.378906 747.25 C -135.378906 811.851563 -83.007813 864.21875 -18.410156 864.21875 C 46.191406 864.21875 98.558594 811.851563 98.558594 747.25 C 98.558594 682.648438 46.191406 630.28125 -18.410156 630.28125 C -83.007813 630.28125 -135.378906 682.648438 -135.378906 747.25 "/>
<path style=" stroke:none;fill-rule:nonzero;fill:rgb(100%,55.271912%,0%);fill-opacity:1;" d="M -211.398438 940.238281 C -104.8125 1046.824219 67.996094 1046.824219 174.582031 940.238281 L 119.460938 885.117188 C 43.316406 961.261719 -80.132813 961.261719 -156.277344 885.117188 C -232.417969 808.976563 -232.417969 685.527344 -156.277344 609.382813 L -211.398438 554.261719 C -317.980469 660.847656 -317.980469 833.65625 -211.398438 940.238281 "/>
<path style=" stroke:none;fill-rule:nonzero;fill:rgb(100%,55.271912%,0%);fill-opacity:1;" d="M -18.40625 552.277344 L 642.628906 552.277344 L 642.628906 474.324219 L -18.40625 474.324219 Z M -18.40625 552.277344 "/>
<path style=" stroke:none;fill-rule:nonzero;fill:rgb(100%,55.271912%,0%);fill-opacity:1;" d="M -18.40625 1020.152344 L 642.628906 1020.152344 L 642.628906 942.199219 L -18.40625 942.199219 Z M -18.40625 1020.152344 "/>
<path style=" stroke:none;fill-rule:nonzero;fill:rgb(100%,55.271912%,0%);fill-opacity:1;" d="M 174.578125 554.261719 C 281.164063 660.847656 281.164063 833.65625 174.578125 940.238281 L 119.460938 885.117188 C 195.601563 808.976563 195.601563 685.523438 119.460938 609.382813 C 43.316406 533.242188 -80.132813 533.242188 -156.277344 609.382813 L -211.398438 554.261719 C -104.8125 447.675781 67.996094 447.675781 174.578125 554.261719 "/>
<path style=" stroke:none;fill-rule:nonzero;fill:rgb(100%,55.271912%,0%);fill-opacity:1;" d="M 1465.03125 786.238281 C 1443.5 786.238281 1426.039063 768.785156 1426.039063 747.25 C 1426.039063 725.71875 1443.5 708.261719 1465.03125 708.261719 C 1486.558594 708.261719 1504.019531 725.71875 1504.019531 747.25 C 1504.019531 768.785156 1486.558594 786.238281 1465.03125 786.238281 M 1465.03125 630.28125 C 1400.429688 630.28125 1348.058594 682.648438 1348.058594 747.25 C 1348.058594 811.851563 1400.429688 864.21875 1465.03125 864.21875 C 1529.628906 864.21875 1582 811.851563 1582 747.25 C 1582 682.648438 1529.628906 630.28125 1465.03125 630.28125 "/>
<path style=" stroke:none;fill-rule:nonzero;fill:rgb(100%,55.271912%,0%);fill-opacity:1;" d="M 1658.019531 554.261719 C 1764.601563 660.847656 1764.601563 833.65625 1658.019531 940.238281 L 1602.898438 885.117188 C 1679.039063 808.976563 1679.039063 685.523438 1602.898438 609.382813 C 1526.761719 533.242188 1403.300781 533.242188 1327.160156 609.382813 L 1272.039063 554.261719 C 1378.628906 447.675781 1551.429688 447.675781 1658.019531 554.261719 "/>
<path style=" stroke:none;fill-rule:nonzero;fill:rgb(100%,55.271912%,0%);fill-opacity:1;" d="M 1272.039063 940.238281 C 1378.628906 1046.824219 1551.429688 1046.824219 1658.019531 940.238281 L 1602.898438 885.117188 C 1526.75 961.261719 1403.300781 961.261719 1327.160156 885.117188 C 1251.019531 808.976563 1251.019531 685.527344 1327.160156 609.382813 L 1272.039063 554.261719 C 1165.460938 660.847656 1165.460938 833.65625 1272.039063 940.238281 "/>
<path style=" stroke:none;fill-rule:nonzero;fill:rgb(100%,55.271912%,0%);fill-opacity:1;" d="M 1660 1364.714844 L 1737.953125 1364.714844 L 1737.953125 -351.847656 L 1660 -351.847656 Z M 1660 1364.714844 "/>
<path style=" stroke:none;fill-rule:nonzero;fill:rgb(100%,55.271912%,0%);fill-opacity:1;" d="M 1192.121094 1364.714844 L 1270.074219 1364.714844 L 1270.074219 -351.847656 L 1192.121094 -351.847656 Z M 1192.121094 1364.714844 "/>
<path style=" stroke:none;fill-rule:nonzero;fill:rgb(100%,55.271912%,0%);fill-opacity:1;" d="M 1660.019531 279.339844 L 1737.972656 279.339844 L 1737.972656 -404.328125 L 1660.019531 -404.328125 Z M 1660.019531 279.339844 "/>
<path style=" stroke:none;fill-rule:nonzero;fill:rgb(100%,55.271912%,0%);fill-opacity:1;" d="M -18.410156 -39.929688 C -39.941406 -39.929688 -57.398438 -57.378906 -57.398438 -78.910156 C -57.398438 -100.449219 -39.941406 -117.898438 -18.410156 -117.898438 C 3.125 -117.898438 20.582031 -100.449219 20.582031 -78.910156 C 20.582031 -57.378906 3.125 -39.929688 -18.410156 -39.929688 M -18.410156 -195.878906 C -83.007813 -195.878906 -135.378906 -143.519531 -135.378906 -78.910156 C -135.378906 -14.308594 -83.007813 38.050781 -18.410156 38.050781 C 46.191406 38.050781 98.558594 -14.308594 98.558594 -78.910156 C 98.558594 -143.519531 46.191406 -195.878906 -18.410156 -195.878906 "/>
<path style=" stroke:none;fill-rule:nonzero;fill:rgb(100%,55.271912%,0%);fill-opacity:1;" d="M 174.578125 -271.898438 C 281.164063 -165.320313 281.164063 7.488281 174.578125 114.074219 L 119.460938 58.949219 C 195.601563 -17.191406 195.601563 -140.640625 119.460938 -216.78125 C 43.316406 -292.929688 -80.132813 -292.929688 -156.273438 -216.78125 L -211.398438 -271.898438 C -104.8125 -378.488281 67.996094 -378.488281 174.578125 -271.898438 "/>
<path style=" stroke:none;fill-rule:nonzero;fill:rgb(100%,55.271912%,0%);fill-opacity:1;" d="M -211.398438 114.074219 C -104.8125 220.660156 67.996094 220.660156 174.582031 114.074219 L 119.460938 58.949219 C 43.316406 135.09375 -80.132813 135.09375 -156.277344 58.949219 C -232.417969 -17.191406 -232.417969 -140.640625 -156.277344 -216.78125 L -211.398438 -271.898438 C -317.980469 -165.320313 -317.980469 7.488281 -211.398438 114.074219 "/>
<path style=" stroke:none;fill-rule:nonzero;fill:rgb(100%,55.271912%,0%);fill-opacity:1;" d="M 176.566406 747.25 L 254.519531 747.25 L 254.519531 -78.914063 L 176.566406 -78.914063 Z M 176.566406 747.25 "/>
<path style=" stroke:none;fill-rule:nonzero;fill:rgb(100%,55.271912%,0%);fill-opacity:1;" d="M 163.507813 1501.992188 L 776.558594 888.941406 L 831.679688 944.0625 L 218.628906 1557.113281 Z M 163.507813 1501.992188 "/>
<path style=" stroke:none;fill-rule:nonzero;fill:rgb(100%,55.271912%,0%);fill-opacity:1;" d="M -167.332031 1171.15625 L 445.71875 558.105469 L 500.839844 613.226563 L -112.210938 1226.277344 Z M -167.332031 1171.15625 "/>
<path style=" stroke:none;fill-rule:nonzero;fill:rgb(100%,55.271912%,0%);fill-opacity:1;" d="M -493.613281 1498.152344 L 119.4375 885.101563 L 174.558594 940.222656 L -438.492188 1553.273438 Z M -493.613281 1498.152344 "/>
<path style=" stroke:none;fill-rule:nonzero;fill:rgb(100%,55.271912%,0%);fill-opacity:1;" d="M 2412.808594 609.035156 L 1794.988281 1226.855469 L 1739.871094 1171.734375 L 2357.691406 553.914063 Z M 2412.808594 609.035156 "/>
<path style=" stroke:none;fill-rule:nonzero;fill:rgb(100%,55.271912%,0%);fill-opacity:1;" d="M 838.601563 65.628906 C 853.828125 80.859375 853.828125 105.546875 838.601563 120.769531 C 823.375 135.996094 798.6875 135.996094 783.460938 120.769531 C 768.234375 105.542969 768.234375 80.859375 783.460938 65.628906 C 798.6875 50.410156 823.375 50.410156 838.601563 65.628906 M 728.320313 175.910156 C 774 221.589844 848.0625 221.589844 893.742188 175.910156 C 939.421875 130.230469 939.421875 56.171875 893.742188 10.488281 C 848.0625 -35.191406 774 -35.191406 728.320313 10.488281 C 682.640625 56.171875 682.644531 130.230469 728.320313 175.910156 "/>
<path style=" stroke:none;fill-rule:nonzero;fill:rgb(100%,55.271912%,0%);fill-opacity:1;" d="M 618.042969 -99.789063 C 724.628906 -206.371094 897.4375 -206.371094 1004.019531 -99.789063 L 948.898438 -44.671875 C 872.757813 -120.808594 749.304688 -120.808594 673.164063 -44.671875 C 597.019531 31.480469 597.019531 154.925781 673.164063 231.070313 L 618.042969 286.191406 C 511.457031 179.605469 511.457031 6.800781 618.042969 -99.789063 "/>
<path style=" stroke:none;fill-rule:nonzero;fill:rgb(100%,55.271912%,0%);fill-opacity:1;" d="M 673.164063 231.070313 L 1327.210938 885.113281 L 1272.089844 940.234375 L 618.042969 286.191406 Z M 673.164063 231.070313 "/>
<path style=" stroke:none;fill-rule:nonzero;fill:rgb(100%,55.271912%,0%);fill-opacity:1;" d="M 1004 -99.769531 L 1658.050781 554.277344 L 1602.929688 609.394531 L 948.882813 -44.648438 Z M 1004 -99.769531 "/>
<path style=" stroke:none;fill-rule:nonzero;fill:rgb(100%,55.271912%,0%);fill-opacity:1;" d="M 1004.019531 286.191406 C 1110.609375 179.605469 1110.609375 6.800781 1004.019531 -99.789063 L 948.898438 -44.671875 C 1025.039063 31.480469 1025.039063 154.925781 948.898438 231.070313 C 872.757813 307.210938 749.304688 307.210938 673.164063 231.070313 L 618.042969 286.191406 C 724.628906 392.773438 897.433594 392.773438 1004.019531 286.191406 "/>
<path style=" stroke:none;fill-rule:nonzero;fill:rgb(100%,55.271912%,0%);fill-opacity:1;" d="M -491.046875 366.128906 L 823.816406 366.128906 L 823.816406 288.175781 L -491.046875 288.175781 Z M -491.046875 366.128906 "/>
<path style=" stroke:none;fill-rule:nonzero;fill:rgb(100%,55.271912%,0%);fill-opacity:1;" d="M 2070.789063 417.203125 L 1602.878906 885.113281 L 1658 940.234375 L 2125.910156 472.324219 Z M 2070.789063 417.203125 "/>
<path style=" stroke:none;fill-rule:nonzero;fill:rgb(100%,55.271912%,0%);fill-opacity:1;" d="M 1739.949219 86.367188 L 1272.039063 554.273438 L 1327.160156 609.398438 L 1795.070313 141.488281 Z M 1739.949219 86.367188 "/>
<path style=" stroke:none;fill-rule:nonzero;fill:rgb(100%,55.271912%,0%);fill-opacity:1;" d="M 1971.910156 279.335938 C 1971.910156 300.871094 1954.449219 318.328125 1932.921875 318.328125 C 1911.390625 318.328125 1893.929688 300.871094 1893.929688 279.335938 C 1893.929688 257.804688 1911.390625 240.347656 1932.921875 240.347656 C 1954.449219 240.347656 1971.910156 257.804688 1971.910156 279.335938 M 2049.890625 279.335938 C 2049.890625 214.738281 1997.519531 162.367188 1932.921875 162.367188 C 1868.320313 162.367188 1815.949219 214.738281 1815.949219 279.335938 C 1815.949219 343.9375 1868.320313 396.308594 1932.921875 396.308594 C 1997.519531 396.308594 2049.890625 343.9375 2049.890625 279.335938 "/>
<path style=" stroke:none;fill-rule:nonzero;fill:rgb(100%,55.271912%,0%);fill-opacity:1;" d="M 1659.988281 279.335938 C 1659.988281 128.605469 1782.191406 6.410156 1932.921875 6.410156 L 1932.921875 84.363281 C 1825.238281 84.363281 1737.941406 171.65625 1737.941406 279.335938 C 1737.941406 387.019531 1825.238281 474.3125 1932.921875 474.3125 L 1932.921875 552.265625 C 1782.191406 552.265625 1659.988281 430.074219 1659.988281 279.335938 "/>
<path style=" stroke:none;fill-rule:nonzero;fill:rgb(100%,55.271912%,0%);fill-opacity:1;" d="M 2649.160156 -712.5 L 1795.109375 141.550781 L 1739.988281 86.429688 L 2594.039063 -767.621094 Z M 2649.160156 -712.5 "/>
</g>
</svg>
