<?xml version="1.0" encoding="UTF-8"?>
<svg xmlns="http://www.w3.org/2000/svg" xmlns:xlink="http://www.w3.org/1999/xlink" width="1920pt" height="1080pt" viewBox="0 0 1920 1080" version="1.1">
<g id="surface1">
<rect x="0" y="0" width="1920" height="1080" style="fill:rgb(100%,35.693359%,0%);fill-opacity:1;stroke:none;"/>
<path style=" stroke:none;fill-rule:nonzero;fill:rgb(100%,55.271912%,0%);fill-opacity:1;" d="M 2419.28125 23.769531 C 1656.53125 23.769531 1038.191406 642.109375 1038.191406 1404.859375 L 1038.191406 1404.867188 C 1038.191406 1478.050781 1043.910156 1549.894531 1054.871094 1620 L 1475.109375 1620 C 1459.800781 1550.957031 1451.660156 1479.214844 1451.660156 1405.558594 L 1451.660156 1405.554688 C 1451.660156 861.039063 1893.070313 419.628906 2437.589844 419.628906 L 2801.808594 419.628906 L 2801.808594 23.769531 "/>
<path style=" stroke:none;fill-rule:nonzero;fill:rgb(100%,55.271912%,0%);fill-opacity:1;" d="M -878.539063 1454.914063 C 463.613281 1454.910156 1551.640625 366.878906 1551.640625 -975.269531 L 1551.640625 -975.28125 C 1551.640625 -1104.058594 1541.578125 -1230.46875 1522.289063 -1353.828125 L 782.824219 -1353.828125 C 809.773438 -1232.339844 824.101563 -1106.101563 824.101563 -976.5 L 824.101563 -976.488281 C 824.101563 -18.359375 47.378906 758.359375 -910.753906 758.363281 L -1551.628906 758.363281 L -1551.628906 1454.914063 "/>
<path style=" stroke:none;fill-rule:nonzero;fill:rgb(100%,70.896912%,0%);fill-opacity:1;" d="M 621.382813 -0.371094 C 621.382813 291.410156 384.84375 527.949219 93.058594 527.949219 L -1053.550781 527.949219 C -1345.328125 527.949219 -1581.871094 291.410156 -1581.871094 -0.371094 C -1581.871094 -292.160156 -1345.328125 -528.691406 -1053.550781 -528.691406 L 93.058594 -528.691406 C 384.84375 -528.691406 621.382813 -292.160156 621.382813 -0.371094 Z M 102.867188 -740.070313 L -1063.359375 -740.070313 C -1472.089844 -740.070313 -1803.429688 -408.730469 -1803.429688 0 C -1803.429688 408.730469 -1472.089844 740.070313 -1063.359375 740.070313 L 102.867188 740.070313 C 511.597656 740.070313 842.941406 408.730469 842.941406 0 C 842.941406 -408.730469 511.597656 -740.070313 102.867188 -740.070313 "/>
<path style=" stroke:none;fill-rule:nonzero;fill:rgb(100%,35.693359%,0%);fill-opacity:1;" d="M 181.65625 1145.421875 L 181.660156 2626.410156 L 453.867188 2626.410156 L 453.867188 1158.058594 C 453.867188 782.304688 758.472656 477.695313 1134.230469 477.691406 C 1509.980469 477.691406 1814.589844 782.300781 1814.589844 1158.054688 L 1814.589844 2626.410156 L 2087.761719 2626.410156 L 2087.761719 1145.421875 C 2087.761719 619.066406 1661.058594 192.375 1134.710938 192.375 L 1134.699219 192.375 C 608.351563 192.375 181.65625 619.070313 181.65625 1145.421875 "/>
</g>
</svg>
