<?xml version="1.0" encoding="UTF-8"?>
<svg xmlns="http://www.w3.org/2000/svg" xmlns:xlink="http://www.w3.org/1999/xlink" width="1920pt" height="1080pt" viewBox="0 0 1920 1080" version="1.1">
<g id="surface1">
<rect x="0" y="0" width="1920" height="1080" style="fill:rgb(100%,55.271912%,0%);fill-opacity:1;stroke:none;"/>
<path style=" stroke:none;fill-rule:nonzero;fill:rgb(100%,45.872498%,0%);fill-opacity:1;" d="M 438.402344 364.527344 L 775.839844 364.527344 C 1003.03125 364.527344 1187.199219 548.699219 1187.199219 775.886719 C 1187.199219 1003.074219 1003.03125 1187.246094 775.839844 1187.246094 L 438.402344 1187.246094 C 211.214844 1187.246094 27.046875 1003.074219 27.046875 775.886719 C 27.042969 548.699219 211.214844 364.527344 438.402344 364.527344 "/>
<path style=" stroke:none;fill-rule:nonzero;fill:rgb(100%,35.693359%,0%);fill-opacity:1;" d="M 796.125 -72.878906 L 1834.410156 -72.878906 C 2013.949219 -72.878906 2159.5 72.671875 2159.5 252.210938 C 2159.5 431.753906 2013.949219 577.300781 1834.410156 577.300781 L 796.125 577.300781 C 616.585938 577.300781 471.035156 431.753906 471.035156 252.210938 C 471.035156 72.671875 616.585938 -72.878906 796.125 -72.878906 "/>
<path style=" stroke:none;fill-rule:nonzero;fill:rgb(100%,70.896912%,0%);fill-opacity:1;" d="M -818.726563 -17.199219 L -45.5625 -17.199219 C 262.171875 -17.199219 511.636719 232.265625 511.636719 540 C 511.640625 847.734375 262.171875 1097.199219 -45.558594 1097.199219 L -818.726563 1097.199219 C -1126.460938 1097.199219 -1375.929688 847.734375 -1375.929688 540 C -1375.929688 232.269531 -1126.460938 -17.199219 -818.726563 -17.199219 "/>
<path style=" stroke:none;fill-rule:nonzero;fill:rgb(100%,55.271912%,0%);fill-opacity:1;" d="M 1150.050781 399.507813 L 2686.710938 399.507813 C 2835.578125 399.507813 2956.261719 520.1875 2956.261719 669.054688 C 2956.261719 817.921875 2835.578125 938.605469 2686.710938 938.605469 L 1150.050781 938.605469 C 1001.179688 938.605469 880.503906 817.925781 880.503906 669.054688 C 880.503906 520.1875 1001.179688 399.507813 1150.050781 399.507813 "/>
</g>
</svg>
