<?xml version="1.0" encoding="UTF-8"?>
<svg xmlns="http://www.w3.org/2000/svg" xmlns:xlink="http://www.w3.org/1999/xlink" width="1920pt" height="1080pt" viewBox="0 0 1920 1080" version="1.1">
<g id="surface1">
<rect x="0" y="0" width="1920" height="1080" style="fill:rgb(0%,55.664063%,54.101563%);fill-opacity:1;stroke:none;"/>
<path style=" stroke:none;fill-rule:nonzero;fill:rgb(0%,65.429688%,63.476563%);fill-opacity:1;" d="M 2086.929688 92.3125 C 1013.640625 92.3125 143.5625 962.390625 143.5625 2035.683594 L 143.5625 2035.691406 C 143.5625 2138.671875 151.601563 2239.761719 167.03125 2338.410156 L 758.367188 2338.410156 C 736.816406 2241.261719 725.359375 2140.308594 725.359375 2036.664063 L 725.359375 2036.65625 C 725.359375 1270.457031 1346.488281 649.332031 2112.691406 649.332031 L 2625.191406 649.332031 L 2625.191406 92.3125 "/>
<path style=" stroke:none;fill-rule:nonzero;fill:rgb(0%,65.429688%,63.476563%);fill-opacity:1;" d="M 399.382813 238.703125 C 399.382813 530.488281 162.84375 767.027344 -128.9375 767.027344 L -1275.550781 767.027344 C -1567.328125 767.027344 -1803.871094 530.488281 -1803.871094 238.703125 C -1803.871094 -53.078125 -1567.328125 -289.621094 -1275.550781 -289.621094 L -128.9375 -289.621094 C 162.84375 -289.621094 399.382813 -53.078125 399.382813 238.703125 Z M -119.128906 -501 L -1285.359375 -501 C -1694.089844 -501 -2025.429688 -169.660156 -2025.429688 239.074219 L -2025.429688 239.078125 C -2025.429688 647.808594 -1694.089844 979.148438 -1285.359375 979.148438 L -119.128906 979.148438 C 289.601563 979.148438 620.941406 647.808594 620.941406 239.078125 L 620.941406 239.074219 C 620.941406 -169.660156 289.601563 -501 -119.128906 -501 "/>
<path style=" stroke:none;fill-rule:nonzero;fill:rgb(0%,50.976563%,50.193787%);fill-opacity:1;" d="M 366.15625 -1885.550781 L -1688.148438 -1885.550781 L -1688.148438 -1507.960938 L 348.632813 -1507.960938 C 869.847656 -1507.960938 1292.378906 -1085.441406 1292.378906 -564.21875 C 1292.378906 -43 869.847656 379.523438 348.632813 379.523438 L -1688.148438 379.523438 L -1688.148438 758.4375 L 366.15625 758.4375 C 1096.269531 758.4375 1688.148438 166.5625 1688.148438 -563.550781 L 1688.148438 -563.558594 C 1688.148438 -1293.671875 1096.269531 -1885.550781 366.15625 -1885.550781 "/>
</g>
</svg>
