<?xml version="1.0" encoding="UTF-8"?>
<svg xmlns="http://www.w3.org/2000/svg" xmlns:xlink="http://www.w3.org/1999/xlink" width="1920pt" height="1080pt" viewBox="0 0 1920 1080" version="1.1">
<g id="surface1">
<rect x="0" y="0" width="1920" height="1080" style="fill:rgb(100%,70.896912%,0%);fill-opacity:1;stroke:none;"/>
<path style=" stroke:none;fill-rule:nonzero;fill:rgb(100%,55.271912%,0%);fill-opacity:1;" d="M 797.003906 1193.136719 C 436.285156 1193.136719 143.863281 900.71875 143.863281 540.003906 C 143.863281 179.28125 436.285156 -113.140625 797.003906 -113.140625 C 1157.71875 -113.140625 1450.140625 179.28125 1450.140625 540 C 1450.140625 900.71875 1157.71875 1193.136719 797.003906 1193.136719 M 797.003906 -374.269531 C 292.0625 -374.269531 -117.269531 35.058594 -117.269531 540.003906 C -117.269531 1044.9375 292.066406 1454.273438 797.003906 1454.273438 C 1301.941406 1454.269531 1711.28125 1044.9375 1711.269531 540 C 1711.269531 35.058594 1301.941406 -374.269531 797.003906 -374.269531 "/>
<path style=" stroke:none;fill-rule:nonzero;fill:rgb(100%,55.271912%,0%);fill-opacity:1;" d="M 797.003906 670.609375 C 724.867188 670.609375 666.394531 612.132813 666.394531 540.003906 C 666.394531 467.863281 724.867188 409.390625 797.003906 409.390625 C 869.136719 409.390625 927.613281 467.863281 927.613281 540.003906 C 927.613281 612.132813 869.136719 670.609375 797.003906 670.609375 M 797.003906 148.167969 C 580.601563 148.167969 405.171875 323.597656 405.171875 540.003906 C 405.171875 756.402344 580.601563 931.828125 797.003906 931.828125 C 1013.410156 931.828125 1188.828125 756.402344 1188.828125 540.003906 C 1188.828125 323.597656 1013.410156 148.167969 797.003906 148.167969 "/>
<path style=" stroke:none;fill-rule:nonzero;fill:rgb(100%,80.076599%,32.542419%);fill-opacity:1;" d="M 2014.699219 1333.980469 C 1576.199219 1333.980469 1220.71875 978.503906 1220.71875 540 C 1220.71875 101.496094 1576.199219 -253.980469 2014.699219 -253.980469 C 2453.210938 -253.980469 2808.679688 101.496094 2808.679688 540 C 2808.679688 978.503906 2453.210938 1333.980469 2014.699219 1333.980469 M 2014.699219 -571.429688 C 1400.878906 -571.429688 903.277344 -73.820313 903.277344 540 C 903.277344 1153.824219 1400.878906 1651.425781 2014.699219 1651.425781 C 2628.53125 1651.425781 3126.128906 1153.824219 3126.128906 540 C 3126.128906 -73.828125 2628.53125 -571.429688 2014.699219 -571.429688 "/>
<path style=" stroke:none;fill-rule:nonzero;fill:rgb(100%,80.076599%,32.542419%);fill-opacity:1;" d="M 2014.699219 698.773438 C 1927.011719 698.773438 1855.929688 627.6875 1855.929688 540 C 1855.929688 452.308594 1927.011719 381.226563 2014.699219 381.226563 C 2102.390625 381.226563 2173.480469 452.308594 2173.480469 540 C 2173.480469 627.6875 2102.390625 698.773438 2014.699219 698.773438 M 2014.699219 63.671875 C 1751.640625 63.671875 1538.378906 276.933594 1538.378906 540 C 1538.378906 803.066406 1751.640625 1016.324219 2014.699219 1016.324219 C 2277.769531 1016.324219 2491.03125 803.066406 2491.03125 540 C 2491.03125 276.933594 2277.769531 63.671875 2014.699219 63.671875 "/>
<path style=" stroke:none;fill-rule:nonzero;fill:rgb(100%,70.896912%,0%);fill-opacity:1;" d="M 32.425781 886.640625 C -159.015625 886.640625 -314.210938 731.445313 -314.210938 540 C -314.210938 348.558594 -159.015625 193.359375 32.425781 193.359375 C 223.871094 193.359375 379.066406 348.558594 379.066406 540 C 379.066406 731.445313 223.871094 886.640625 32.425781 886.640625 M 32.425781 54.769531 C -235.558594 54.769531 -452.804688 272.015625 -452.804688 540 C -452.804688 807.984375 -235.558594 1025.230469 32.425781 1025.230469 C 300.410156 1025.230469 517.65625 807.984375 517.65625 540 C 517.65625 272.015625 300.410156 54.769531 32.425781 54.769531 "/>
<path style=" stroke:none;fill-rule:nonzero;fill:rgb(100%,70.896912%,0%);fill-opacity:1;" d="M 32.425781 609.320313 C -5.855469 609.320313 -36.890625 578.285156 -36.890625 540 C -36.890625 501.71875 -5.855469 470.683594 32.425781 470.683594 C 70.710938 470.683594 101.746094 501.71875 101.746094 540 C 101.746094 578.285156 70.710938 609.320313 32.425781 609.320313 M 32.425781 332.042969 C -82.421875 332.042969 -175.527344 425.148438 -175.527344 540 C -175.527344 654.851563 -82.421875 747.957031 32.425781 747.957031 C 147.277344 747.957031 240.382813 654.851563 240.382813 540 C 240.382813 425.148438 147.277344 332.042969 32.425781 332.042969 "/>
</g>
</svg>
