<?xml version="1.0" encoding="UTF-8"?>
<svg xmlns="http://www.w3.org/2000/svg" xmlns:xlink="http://www.w3.org/1999/xlink" width="1920pt" height="1080pt" viewBox="0 0 1920 1080" version="1.1">
<g id="surface1">
<rect x="0" y="0" width="1920" height="1080" style="fill:rgb(20.384216%,28.24707%,36.863708%);fill-opacity:1;stroke:none;"/>
<path style=" stroke:none;fill-rule:nonzero;fill:rgb(23.925781%,33.714294%,43.530273%);fill-opacity:1;" d="M 549.859375 540 C 549.859375 80.269531 922.542969 -292.421875 1382.28125 -292.421875 C 1842.011719 -292.421875 2214.691406 80.269531 2214.691406 540 C 2214.691406 999.730469 1842.011719 1372.417969 1382.28125 1372.417969 C 922.542969 1372.417969 549.859375 999.730469 549.859375 540 M 217.046875 540 C 217.046875 1183.539063 738.738281 1705.230469 1382.28125 1705.230469 C 2025.820313 1705.230469 2547.511719 1183.539063 2547.511719 540 C 2547.511719 -103.539063 2025.820313 -625.230469 1382.28125 -625.230469 C 738.738281 -625.230469 217.046875 -103.539063 217.046875 540 "/>
<path style=" stroke:none;fill-rule:nonzero;fill:rgb(23.925781%,33.714294%,43.530273%);fill-opacity:1;" d="M 1215.820313 540 C 1215.820313 448.066406 1290.339844 373.539063 1382.28125 373.539063 C 1474.210938 373.539063 1548.738281 448.066406 1548.738281 540 C 1548.738281 631.933594 1474.210938 706.460938 1382.28125 706.460938 C 1290.339844 706.460938 1215.820313 631.933594 1215.820313 540 M 882.890625 540 C 882.890625 815.800781 1106.46875 1039.382813 1382.28125 1039.382813 C 1658.078125 1039.382813 1881.660156 815.800781 1881.660156 540 C 1881.660156 264.195313 1658.078125 40.609375 1382.28125 40.609375 C 1106.46875 40.609375 882.890625 264.195313 882.890625 540 "/>
<path style=" stroke:none;fill-rule:nonzero;fill:rgb(30.589294%,42.358398%,53.318787%);fill-opacity:1;" d="M -536.296875 540 C -536.296875 243.8125 -296.1875 3.699219 0 3.699219 C 296.1875 3.699219 536.296875 243.8125 536.296875 540 C 536.296875 836.1875 296.1875 1076.292969 0 1076.292969 C -296.1875 1076.292969 -536.296875 836.1875 -536.296875 540 M -750.714844 540 C -750.714844 954.605469 -414.605469 1290.714844 0 1290.714844 C 414.609375 1290.714844 750.714844 954.605469 750.714844 540 C 750.714844 125.390625 414.609375 -210.710938 0 -210.710938 C -414.605469 -210.710938 -750.714844 125.390625 -750.714844 540 "/>
<path style=" stroke:none;fill-rule:nonzero;fill:rgb(30.589294%,42.358398%,53.318787%);fill-opacity:1;" d="M -107.246094 540 C -107.246094 480.769531 -59.230469 432.753906 0 432.753906 C 59.230469 432.753906 107.246094 480.769531 107.246094 540 C 107.246094 599.230469 59.230469 647.246094 0 647.246094 C -59.230469 647.246094 -107.246094 599.230469 -107.246094 540 M -321.734375 540 C -321.734375 717.6875 -177.6875 861.734375 0 861.734375 C 177.6875 861.734375 321.734375 717.6875 321.734375 540 C 321.734375 362.3125 177.6875 218.265625 0 218.265625 C -177.6875 218.265625 -321.734375 362.3125 -321.734375 540 "/>
<path style=" stroke:none;fill-rule:nonzero;fill:rgb(20.384216%,28.24707%,36.863708%);fill-opacity:1;" d="M 1488.199219 540 C 1488.199219 373.835938 1622.898438 239.128906 1789.070313 239.128906 C 1955.238281 239.128906 2089.941406 373.835938 2089.941406 540 C 2089.941406 706.164063 1955.238281 840.871094 1789.070313 840.871094 C 1622.898438 840.871094 1488.199219 706.164063 1488.199219 540 M 1367.910156 540 C 1367.910156 772.601563 1556.46875 961.160156 1789.070313 961.160156 C 2021.671875 961.160156 2210.230469 772.601563 2210.230469 540 C 2210.230469 307.398438 2021.671875 118.835938 1789.070313 118.835938 C 1556.46875 118.835938 1367.910156 307.398438 1367.910156 540 "/>
<path style=" stroke:none;fill-rule:nonzero;fill:rgb(20.384216%,28.24707%,36.863708%);fill-opacity:1;" d="M 1728.910156 540 C 1728.910156 506.769531 1755.839844 479.835938 1789.070313 479.835938 C 1822.300781 479.835938 1849.238281 506.769531 1849.238281 540 C 1849.238281 573.230469 1822.300781 600.164063 1789.070313 600.164063 C 1755.839844 600.164063 1728.910156 573.230469 1728.910156 540 M 1608.570313 540 C 1608.570313 639.6875 1689.390625 720.496094 1789.070313 720.496094 C 1888.761719 720.496094 1969.570313 639.6875 1969.570313 540 C 1969.570313 440.3125 1888.761719 359.503906 1789.070313 359.503906 C 1689.390625 359.503906 1608.570313 440.3125 1608.570313 540 "/>
</g>
</svg>
