<?xml version="1.0" encoding="UTF-8"?>
<svg xmlns="http://www.w3.org/2000/svg" xmlns:xlink="http://www.w3.org/1999/xlink" width="1920pt" height="1080pt" viewBox="0 0 1920 1080" version="1.1">
<g id="surface1">
<rect x="0" y="0" width="1920" height="1080" style="fill:rgb(0%,68.164063%,100%);fill-opacity:1;stroke:none;"/>
<path style=" stroke:none;fill-rule:nonzero;fill:rgb(13.330078%,42.747498%,85.9375%);fill-opacity:1;" d="M -772.121094 2299.339844 C 686.933594 2299.339844 1869.730469 1116.539063 1869.730469 -342.511719 L 1869.730469 -342.53125 C 1869.730469 -482.511719 1858.800781 -619.941406 1837.820313 -754.050781 L 1033.949219 -754.050781 C 1063.25 -621.980469 1078.828125 -484.738281 1078.828125 -343.851563 L 1078.828125 -343.839844 C 1078.828125 697.746094 234.449219 1542.121094 -807.140625 1542.121094 L -1503.839844 1542.121094 L -1503.839844 2299.339844 "/>
<path style=" stroke:none;fill-rule:nonzero;fill:rgb(0%,80.859375%,100%);fill-opacity:1;" d="M 175.878906 369.257813 C 175.878906 263.140625 261.90625 177.113281 368.023438 177.113281 L 2740.878906 177.113281 C 2847 177.113281 2933.03125 263.140625 2933.03125 369.257813 C 2933.03125 475.375 2847 561.402344 2740.878906 561.402344 L 368.023438 561.402344 C 261.90625 561.402344 175.878906 475.375 175.878906 369.257813 Z M 364.457031 638.277344 L 2744.449219 638.277344 C 2893.101563 638.277344 3013.609375 517.773438 3013.609375 369.121094 C 3013.609375 220.472656 2893.101563 99.964844 2744.449219 99.964844 L 364.457031 99.964844 C 215.804688 99.964844 95.300781 220.472656 95.300781 369.121094 C 95.300781 517.773438 215.804688 638.277344 364.457031 638.277344 "/>
<path style=" stroke:none;fill-rule:nonzero;fill:rgb(0%,80.859375%,100%);fill-opacity:1;" d="M 1329.371094 1016.695313 C 1329.371094 952.542969 1381.378906 900.535156 1445.53125 900.535156 L 1859 900.535156 C 1923.148438 900.535156 1975.148438 952.542969 1975.148438 1016.695313 C 1975.148438 1080.84375 1923.148438 1132.851563 1859 1132.851563 L 1445.53125 1132.851563 C 1381.378906 1132.851563 1329.371094 1080.84375 1329.371094 1016.695313 Z M 1443.371094 1179.324219 L 1861.148438 1179.324219 C 1951.019531 1179.324219 2023.859375 1106.476563 2023.859375 1016.613281 L 2023.859375 1016.609375 C 2023.859375 926.746094 1951.019531 853.898438 1861.148438 853.898438 L 1443.371094 853.898438 C 1353.511719 853.898438 1280.660156 926.746094 1280.660156 1016.609375 L 1280.660156 1016.613281 C 1280.660156 1106.476563 1353.511719 1179.324219 1443.371094 1179.324219 "/>
<path style=" stroke:none;fill-rule:nonzero;fill:rgb(0%,58.396912%,100%);fill-opacity:1;" d="M 1192.441406 2408.28125 L 2952.550781 2408.28125 L 2952.550781 2084.769531 L 1207.460938 2084.769531 C 760.886719 2084.769531 398.867188 1722.757813 398.867188 1276.1875 L 398.867188 1276.179688 C 398.867188 829.609375 760.886719 467.59375 1207.460938 467.59375 L 2952.550781 467.59375 L 2952.550781 142.941406 L 1192.441406 142.941406 C 566.886719 142.941406 59.777344 650.058594 59.777344 1275.613281 L 59.777344 1275.617188 C 59.777344 1901.171875 566.886719 2408.28125 1192.441406 2408.28125 "/>
</g>
</svg>
