<?xml version="1.0" standalone="no"?>
<svg viewBox="0 0 200 200" xmlns="http://www.w3.org/2000/svg">
  <path fill="#00A7A3" d="M35.4,-55.4C43.4,-49.9,45.7,-35.9,50,-23.7C54.3,-11.4,60.6,-0.9,59.2,8.5C57.9,17.9,48.8,26.1,40.9,35.6C32.9,45,26.2,55.6,17.8,55.9C9.4,56.3,-0.6,46.3,-13.7,43.8C-26.9,41.3,-43.1,46.3,-55.4,42.3C-67.8,38.3,-76.3,25.3,-74.4,13C-72.5,0.8,-60.2,-10.5,-52.6,-22.8C-45.1,-35,-42.2,-48.2,-34.2,-53.6C-26.3,-59,-13.1,-56.8,0.3,-57.2C13.7,-57.6,27.4,-60.8,35.4,-55.4Z" transform="translate(100 100)" />
</svg>
