<?xml version="1.0" encoding="utf-8"?>
<!-- Generator: Adobe Illustrator 27.5.0, SVG Export Plug-In . SVG Version: 6.00 Build 0)  -->
<svg version="1.1" id="Layer_1" xmlns="http://www.w3.org/2000/svg" xmlns:xlink="http://www.w3.org/1999/xlink" x="0px" y="0px"
	 viewBox="0 0 1920 216" style="enable-background:new 0 0 1920 216;" xml:space="preserve">
<style type="text/css">
	.st0{clip-path:url(#SVGID_00000147916952352103037770000009935907093092820644_);fill:#7A00DB;}
	.st1{clip-path:url(#SVGID_00000147916952352103037770000009935907093092820644_);}
	.st2{fill:#6F00C6;}
	.st3{opacity:0.6;fill:#231F20;stroke:#FFFFFF;stroke-miterlimit:10;}
	.st4{fill:#FF313C;}
	.st5{fill:#00A5A1;}
	.st6{fill:#FFB300;}
</style>
<g>
	<defs>
		<rect id="SVGID_1_" x="-49.42" y="-439.31" width="1984.34" height="1116.19"/>
	</defs>
	<clipPath id="SVGID_00000038405637342460058070000002548056571231764135_">
		<use xlink:href="#SVGID_1_"  style="overflow:visible;"/>
	</clipPath>
	
		<rect x="-49.42" y="-439.31" style="clip-path:url(#SVGID_00000038405637342460058070000002548056571231764135_);fill:#7A00DB;" width="1984.34" height="1116.19"/>
	<g style="clip-path:url(#SVGID_00000038405637342460058070000002548056571231764135_);">
		<path class="st2" d="M497.9,97.9c0,98.01,79.46,177.47,177.47,177.47v-50.69c-70.02,0-126.78-56.76-126.78-126.78
			S605.35-28.88,675.37-28.88v-50.69C577.35-79.57,497.9-0.11,497.9,97.9z"/>
		<path class="st2" d="M675.37,21.84c-42.01,0-76.06,34.05-76.06,76.06c0,42.01,34.05,76.06,76.06,76.06
			c42.01,0,76.06-34.05,76.06-76.06C751.43,55.89,717.37,21.84,675.37,21.84z M675.37,123.25c-14,0-25.35-11.35-25.35-25.35
			s11.35-25.35,25.35-25.35c14,0,25.35,11.35,25.35,25.35S689.37,123.25,675.37,123.25z"/>
		<path class="st2" d="M852.84,97.9c0,98.01-79.46,177.47-177.47,177.47v-50.69c70.02,0,126.78-56.76,126.78-126.78
			S745.39-28.88,675.37-28.88v-50.69C773.38-79.57,852.84-0.11,852.84,97.9z"/>
		<rect x="675.37" y="-79.57" class="st2" width="1237.6" height="50.69"/>
		<rect x="675.37" y="224.67" class="st2" width="1237.6" height="50.69"/>
		<g>
			<path class="st2" d="M169.47,97.9c0,42.01,34.05,76.06,76.06,76.06s76.06-34.05,76.06-76.06c0-42.01-34.05-76.06-76.06-76.06
				S169.47,55.89,169.47,97.9z M220.18,97.9c0-14,11.35-25.35,25.35-25.35c14,0,25.35,11.35,25.35,25.35s-11.35,25.35-25.35,25.35
				C231.53,123.25,220.18,111.9,220.18,97.9z"/>
			<path class="st2" d="M120.04,223.39c69.31,69.31,181.67,69.31,250.98,0l-35.84-35.84c-49.51,49.51-129.79,49.51-179.3,0
				s-49.51-129.79,0-179.3l-35.84-35.84C50.73,41.72,50.73,154.08,120.04,223.39z"/>
			
				<rect x="245.53" y="-79.57" transform="matrix(-1 5.587652e-11 -5.587652e-11 -1 920.8975 -108.4519)" class="st2" width="429.84" height="50.69"/>
			
				<rect x="245.53" y="224.67" transform="matrix(-1 5.587652e-11 -5.587652e-11 -1 920.8975 500.0197)" class="st2" width="429.84" height="50.69"/>
			<path class="st2" d="M371.02-27.59c69.31,69.31,69.31,181.67,0,250.98l-35.84-35.84c49.51-49.51,49.51-129.79,0-179.3
				s-129.79-49.51-179.3,0l-35.84-35.84C189.35-96.9,301.71-96.9,371.02-27.59z"/>
		</g>
		<g>
			<path class="st2" d="M1210.13,21.84c-42.01,0-76.06,34.05-76.06,76.06c0,42.01,34.05,76.06,76.06,76.06s76.06-34.05,76.06-76.06
				C1286.19,55.89,1252.14,21.84,1210.13,21.84z M1210.13,123.25c-14,0-25.35-11.35-25.35-25.35s11.35-25.35,25.35-25.35
				s25.35,11.35,25.35,25.35S1224.14,123.25,1210.13,123.25z"/>
			<g>
				<path class="st2" d="M1335.62-27.59c69.31,69.31,69.31,181.67,0,250.98l-35.84-35.84c49.51-49.51,49.51-129.79,0-179.3
					s-129.79-49.51-179.3,0l-35.84-35.84C1153.95-96.9,1266.32-96.9,1335.62-27.59z"/>
				<path class="st2" d="M1084.64,223.39c69.31,69.31,181.67,69.31,250.98,0l-35.84-35.84c-49.51,49.51-129.79,49.51-179.3,0
					c-49.51-49.51-49.51-129.79,0-179.3l-35.84-35.84C1015.34,41.72,1015.34,154.08,1084.64,223.39z"/>
			</g>
			
				<rect x="804.16" y="-84.04" transform="matrix(2.151949e-11 1 -1 2.151949e-11 1303.5653 -1420.9467)" class="st2" width="1116.19" height="50.69"/>
			
				<rect x="499.93" y="-84.04" transform="matrix(2.152748e-11 1 -1 2.152748e-11 999.3295 -1116.7108)" class="st2" width="1116.19" height="50.69"/>
		</g>
		<g>
			<path class="st2" d="M1514.38-726.97c-42.01,0-76.06,34.05-76.06,76.06c0,42.01,34.05,76.06,76.06,76.06
				c42.01,0,76.06-34.05,76.06-76.06C1590.44-692.92,1556.38-726.97,1514.38-726.97z M1514.38-625.56c-14,0-25.35-11.35-25.35-25.35
				c0-14,11.35-25.35,25.35-25.35c14,0,25.35,11.35,25.35,25.35C1539.73-636.91,1528.38-625.56,1514.38-625.56z"/>
			<g>
				<path class="st2" d="M1639.87-776.4c69.31,69.31,69.31,181.67,0,250.98l-35.84-35.84c49.51-49.51,49.51-129.79,0-179.3
					c-49.51-49.51-129.79-49.51-179.3,0l-35.84-35.84C1458.19-845.71,1570.56-845.71,1639.87-776.4z"/>
				<path class="st2" d="M1388.89-525.42c69.31,69.31,181.68,69.31,250.98,0l-35.84-35.84c-49.51,49.51-129.79,49.51-179.3,0
					s-49.51-129.79,0-179.3l-35.84-35.84C1319.58-707.1,1319.58-594.73,1388.89-525.42z"/>
			</g>
			
				<rect x="1444.23" y="-453.98" transform="matrix(5.403481e-11 1 -1 5.403481e-11 1237.8688 -2095.1414)" class="st2" width="444.55" height="50.69"/>
			
				<rect x="1139.99" y="-453.98" transform="matrix(5.400639e-11 1 -1 5.400639e-11 933.6329 -1790.9054)" class="st2" width="444.55" height="50.69"/>
		</g>
		<g>
			<path class="st2" d="M245.53-515.37c-42.01,0-76.06,34.05-76.06,76.06c0,42.01,34.05,76.06,76.06,76.06s76.06-34.05,76.06-76.06
				C321.59-481.32,287.54-515.37,245.53-515.37z M245.53-413.96c-14,0-25.35-11.35-25.35-25.35s11.35-25.35,25.35-25.35
				s25.35,11.35,25.35,25.35S259.53-413.96,245.53-413.96z"/>
			<g>
				<path class="st2" d="M371.02-564.8c69.31,69.31,69.31,181.67,0,250.98l-35.84-35.84c49.51-49.51,49.51-129.79,0-179.3
					s-129.79-49.51-179.3,0l-35.84-35.84C189.35-634.11,301.71-634.11,371.02-564.8z"/>
				<path class="st2" d="M120.04-313.82c69.31,69.31,181.67,69.31,250.98,0l-35.84-35.84c-49.51,49.51-129.79,49.51-179.3,0
					s-49.51-129.79,0-179.3l-35.84-35.84C50.73-495.5,50.73-383.13,120.04-313.82z"/>
			</g>
			
				<rect x="129.05" y="-196.05" transform="matrix(4.473026e-11 1 -1 4.473026e-11 226.9496 -568.3624)" class="st2" width="537.21" height="50.69"/>
			
				<rect x="-175.19" y="-196.05" transform="matrix(4.470983e-11 1 -1 4.470983e-11 -77.2862 -264.1266)" class="st2" width="537.21" height="50.69"/>
		</g>
		<g>
			<path class="st2" d="M1286.19,499.41c0-42.01-34.05-76.06-76.06-76.06c-42.01,0-76.06,34.05-76.06,76.06
				c0,42.01,34.05,76.06,76.06,76.06C1252.14,575.46,1286.19,541.41,1286.19,499.41z M1184.78,499.41c0-14,11.35-25.35,25.35-25.35
				c14,0,25.35,11.35,25.35,25.35s-11.35,25.35-25.35,25.35C1196.13,524.76,1184.78,513.41,1184.78,499.41z"/>
			<path class="st2" d="M1210.13,676.88c-98.01,0-177.47-79.46-177.47-177.47h50.69c0,70.02,56.76,126.78,126.78,126.78
				c70.02,0,126.78-56.76,126.78-126.78h50.69C1387.6,597.42,1308.15,676.88,1210.13,676.88z"/>
			<path class="st2" d="M1210.13,321.93c-98.01,0-177.47,79.46-177.47,177.47h50.69c0-70.02,56.76-126.78,126.78-126.78
				c70.02,0,126.78,56.76,126.78,126.78h50.69C1387.6,401.39,1308.15,321.93,1210.13,321.93z"/>
		</g>
		<g>
			<path class="st2" d="M780.5,499.41c0-42.01-34.05-76.06-76.06-76.06c-42.01,0-76.06,34.05-76.06,76.06
				c0,42.01,34.05,76.06,76.06,76.06C746.45,575.46,780.5,541.41,780.5,499.41z M679.09,499.41c0-14,11.35-25.35,25.35-25.35
				c14,0,25.35,11.35,25.35,25.35s-11.35,25.35-25.35,25.35C690.44,524.76,679.09,513.41,679.09,499.41z"/>
			<path class="st2" d="M704.45,676.88c-98.01,0-177.47-79.46-177.47-177.47h50.69c0,70.02,56.76,126.78,126.78,126.78
				s126.78-56.76,126.78-126.78h50.69C881.92,597.42,802.46,676.88,704.45,676.88z"/>
			<path class="st2" d="M704.45,321.93c-98.01,0-177.47,79.46-177.47,177.47h50.69c0-70.02,56.76-126.78,126.78-126.78
				s126.78,56.76,126.78,126.78h50.69C881.92,401.39,802.46,321.93,704.45,321.93z"/>
		</g>
		<g>
			<path class="st2" d="M1568.17,553.19c29.7-29.7,29.7-77.86,0-107.56c-29.7-29.7-77.86-29.7-107.56,0s-29.7,77.86,0,107.56
				C1490.31,582.89,1538.46,582.89,1568.17,553.19z M1496.46,481.48c9.9-9.9,25.95-9.9,35.85,0c9.9,9.9,9.9,25.95,0,35.85
				s-25.95,9.9-35.85,0C1486.56,507.43,1486.56,491.38,1496.46,481.48z"/>
			<path class="st2" d="M1388.9,624.9c-69.31-69.31-69.31-181.67,0-250.98l35.84,35.84c-49.51,49.51-49.51,129.79,0,179.3
				c49.51,49.51,129.79,49.51,179.3,0l35.84,35.84C1570.57,694.2,1458.2,694.2,1388.9,624.9z"/>
			<path class="st2" d="M1639.88,373.91c-69.31-69.31-181.68-69.31-250.98,0l35.84,35.84c49.51-49.51,129.79-49.51,179.3,0
				s49.51,129.79,0,179.3l35.84,35.84C1709.18,555.59,1709.18,443.22,1639.88,373.91z"/>
		</g>
		<g>
			<path class="st2" d="M327.95,552.8c29.7-29.7,29.7-77.86,0-107.56c-29.7-29.7-77.86-29.7-107.56,0
				c-29.7,29.7-29.7,77.86,0,107.56C250.09,582.51,298.25,582.51,327.95,552.8z M256.24,481.1c9.9-9.9,25.95-9.9,35.85,0
				c9.9,9.9,9.9,25.95,0,35.85c-9.9,9.9-25.95,9.9-35.85,0C246.34,507.05,246.34,491,256.24,481.1z"/>
			<path class="st2" d="M148.68,624.51c-69.31-69.31-69.31-181.67,0-250.98l35.84,35.84c-49.51,49.51-49.51,129.79,0,179.3
				c49.51,49.51,129.79,49.51,179.3,0l35.84,35.84C330.36,693.82,217.99,693.82,148.68,624.51z"/>
			
				<rect x="299.18" y="381.93" transform="matrix(-0.7071 0.7071 -0.7071 -0.7071 1279.9167 284.3897)" class="st2" width="563.76" height="50.69"/>
			
				<rect x="84.05" y="166.8" transform="matrix(-0.7071 0.7071 -0.7071 -0.7071 760.5538 69.2625)" class="st2" width="563.76" height="50.69"/>
			<path class="st2" d="M399.66,373.53c-69.31-69.31-181.67-69.31-250.98,0l35.84,35.84c49.51-49.51,129.79-49.51,179.3,0
				s49.51,129.78,0,179.3l35.84,35.84C468.97,555.21,468.97,442.84,399.66,373.53z"/>
		</g>
		<g>
			<path class="st2" d="M-99.34,550.31c29.7-29.7,29.7-77.86,0-107.56c-29.7-29.7-77.86-29.7-107.56,0
				c-29.7,29.7-29.7,77.86,0,107.56C-177.2,580.01-129.04,580.01-99.34,550.31z M-171.05,478.6c9.9-9.9,25.95-9.9,35.85,0
				c9.9,9.9,9.9,25.95,0,35.85c-9.9,9.9-25.95,9.9-35.85,0C-180.95,504.55-180.95,488.5-171.05,478.6z"/>
			<path class="st2" d="M-278.61,622.01c-69.31-69.31-69.31-181.67,0-250.98l35.84,35.84c-49.51,49.51-49.51,129.79,0,179.3
				c49.51,49.51,129.79,49.51,179.3,0l35.84,35.84C-96.94,691.32-209.3,691.32-278.61,622.01z"/>
			
				<rect x="-128.11" y="379.43" transform="matrix(-0.7071 0.7071 -0.7071 -0.7071 548.7172 582.2656)" class="st2" width="563.76" height="50.69"/>
			
				<rect x="-343.24" y="164.3" transform="matrix(-0.7071 0.7071 -0.7071 -0.7071 29.3542 367.1384)" class="st2" width="563.76" height="50.69"/>
			<path class="st2" d="M-27.63,371.03c-69.31-69.31-181.67-69.31-250.98,0l35.84,35.84c49.51-49.51,129.79-49.51,179.3,0
				s49.51,129.78,0,179.3l35.84,35.84C41.68,552.71,41.68,440.34-27.63,371.03z"/>
		</g>
		<rect x="-104.46" y="321.93" class="st2" width="2039.37" height="50.69"/>
		<rect x="-104.46" y="626.19" class="st2" width="2039.37" height="50.69"/>
		<g>
			<path class="st2" d="M1862.29,43.89c-29.7,29.7-29.7,77.86,0,107.56c29.7,29.7,77.86,29.7,107.56,0s29.7-77.86,0-107.56
				C1940.15,14.19,1892,14.19,1862.29,43.89z M1934,115.6c-9.9,9.9-25.95,9.9-35.85,0s-9.9-25.95,0-35.85s25.95-9.9,35.85,0
				S1943.9,105.7,1934,115.6z"/>
			<path class="st2" d="M2041.57-27.82c69.31,69.31,69.31,181.67,0,250.98l-35.84-35.84c49.51-49.51,49.51-129.79,0-179.3
				c-49.51-49.51-129.79-49.51-179.3,0l-35.84-35.84C1859.89-97.12,1972.26-97.12,2041.57-27.82z"/>
			
				<rect x="1323.56" y="165.63" transform="matrix(0.7071 -0.7071 0.7071 0.7071 335.8269 1192.705)" class="st2" width="568.14" height="50.69"/>
			
				<rect x="1538.69" y="380.76" transform="matrix(0.7071 -0.7071 0.7071 0.7071 246.7183 1407.8322)" class="st2" width="568.14" height="50.69"/>
			<path class="st2" d="M1790.58,223.16c69.31,69.31,181.68,69.31,250.98,0l-35.84-35.84c-49.51,49.51-129.79,49.51-179.3,0
				s-49.51-129.79,0-179.3l-35.84-35.84C1721.28,41.49,1721.28,153.86,1790.58,223.16z"/>
		</g>
		<g>
			<path class="st2" d="M731.09-273.61c29.7,29.7,77.86,29.7,107.56,0c29.7-29.7,29.7-77.86,0-107.56
				c-29.7-29.7-77.86-29.7-107.56,0C701.39-351.47,701.39-303.32,731.09-273.61z M802.8-345.32c9.9,9.9,9.9,25.95,0,35.85
				s-25.95,9.9-35.85,0c-9.9-9.9-9.9-25.95,0-35.85S792.9-355.22,802.8-345.32z"/>
			<path class="st2" d="M659.38-452.89c69.31-69.31,181.67-69.31,250.98,0l-35.84,35.84c-49.51-49.51-129.79-49.51-179.3,0
				c-49.51,49.51-49.51,129.79,0,179.3l-35.84,35.84C590.07-271.21,590.07-383.58,659.38-452.89z"/>
			
				<rect x="589.22" y="-32.52" transform="matrix(-0.7071 -0.7071 0.7071 -0.7071 1524.3136 617.033)" class="st2" width="601.45" height="50.69"/>
			
				<rect x="804.35" y="-247.65" transform="matrix(-0.7071 -0.7071 0.7071 -0.7071 2043.6766 401.9058)" class="st2" width="601.45" height="50.69"/>
			<path class="st2" d="M910.36-201.9c69.31-69.31,69.31-181.67,0-250.98l-35.84,35.84c49.51,49.51,49.51,129.79,0,179.3
				c-49.51,49.51-129.79,49.51-179.3,0l-35.84,35.84C728.69-132.6,841.06-132.6,910.36-201.9z"/>
		</g>
		<g>
			<path class="st2" d="M-61.8-251.34c42.01,0,76.06-34.05,76.06-76.06c0-42.01-34.05-76.06-76.06-76.06s-76.06,34.05-76.06,76.06
				C-137.86-285.39-103.81-251.34-61.8-251.34z M-61.8-352.75c14,0,25.35,11.35,25.35,25.35c0,14-11.35,25.35-25.35,25.35
				s-25.35-11.35-25.35-25.35C-87.15-341.4-75.8-352.75-61.8-352.75z"/>
			<path class="st2" d="M-239.27-327.39c0-98.01,79.46-177.47,177.47-177.47v50.69c-70.02,0-126.78,56.76-126.78,126.78
				s56.76,126.78,126.78,126.78v50.69C-159.82-149.92-239.27-229.38-239.27-327.39z"/>
			
				<rect x="-61.8" y="-200.61" transform="matrix(-1 2.227346e-10 -2.227346e-10 -1 731.3796 -350.5368)" class="st2" width="854.98" height="50.69"/>
			
				<rect x="-61.8" y="-504.85" transform="matrix(-1 2.227079e-10 -2.227079e-10 -1 731.3796 -959.0084)" class="st2" width="854.98" height="50.69"/>
			<path class="st2" d="M115.67-327.39c0-98.01-79.46-177.47-177.47-177.47v50.69c70.02,0,126.78,56.76,126.78,126.78
				S8.22-200.61-61.8-200.61v50.69C36.21-149.92,115.67-229.38,115.67-327.39z"/>
		</g>
		
			<rect x="1254.68" y="27.99" transform="matrix(0.7071 -0.7071 0.7071 0.7071 392.7844 1054.9419)" class="st2" width="430.28" height="50.69"/>
		
			<rect x="1039.55" y="-187.13" transform="matrix(0.7071 -0.7071 0.7071 0.7071 481.8929 839.8147)" class="st2" width="430.28" height="50.69"/>
		<g>
			<path class="st2" d="M1590.44-206.36c0-42.01-34.05-76.06-76.06-76.06s-76.06,34.05-76.06,76.06c0,42.01,34.05,76.06,76.06,76.06
				S1590.44-164.35,1590.44-206.36z M1539.73-206.36c0,14-11.35,25.35-25.35,25.35s-25.35-11.35-25.35-25.35
				c0-14,11.35-25.35,25.35-25.35S1539.73-220.36,1539.73-206.36z"/>
			<path class="st2" d="M1691.85-206.36c0-98.01-79.46-177.47-177.47-177.47v50.69c70.02,0,126.78,56.76,126.78,126.78
				S1584.4-79.58,1514.38-79.58v50.69C1612.39-28.89,1691.85-108.34,1691.85-206.36z"/>
			<path class="st2" d="M1336.91-206.36c0-98.01,79.46-177.47,177.47-177.47v50.69c-70.02,0-126.78,56.76-126.78,126.78
				s56.76,126.78,126.78,126.78v50.69C1416.36-28.89,1336.91-108.34,1336.91-206.36z"/>
		</g>
		<g>
			<path class="st2" d="M2015.98-815.44c-29.7,29.7-29.7,77.86,0,107.56c29.7,29.7,77.86,29.7,107.56,0
				c29.7-29.7,29.7-77.86,0-107.56C2093.84-845.14,2045.68-845.14,2015.98-815.44z M2087.69-743.73c-9.9,9.9-25.95,9.9-35.85,0
				c-9.9-9.9-9.9-25.95,0-35.85c9.9-9.9,25.95-9.9,35.85,0C2097.59-769.68,2097.59-753.63,2087.69-743.73z"/>
			<path class="st2" d="M2195.25-887.14c69.31,69.31,69.31,181.67,0,250.98l-35.84-35.84c49.51-49.51,49.51-129.79,0-179.3
				c-49.51-49.51-129.78-49.51-179.3,0l-35.84-35.84C2013.58-956.45,2125.95-956.45,2195.25-887.14z"/>
			
				<rect x="1291.83" y="-616.9" transform="matrix(0.7071 -0.7071 0.7071 0.7071 911.674 1017.8748)" class="st2" width="785.38" height="50.69"/>
			
				<rect x="1506.96" y="-401.77" transform="matrix(0.7071 -0.7071 0.7071 0.7071 822.5654 1233.002)" class="st2" width="785.38" height="50.69"/>
			<path class="st2" d="M1944.27-636.16c69.31,69.31,181.67,69.31,250.98,0l-35.84-35.84c-49.51,49.51-129.79,49.51-179.3,0
				c-49.51-49.51-49.51-129.78,0-179.3l-35.84-35.84C1874.97-817.84,1874.96-705.47,1944.27-636.16z"/>
		</g>
		<g>
			<path class="st2" d="M2445.42-206.36c0-42.01-34.05-76.06-76.06-76.06s-76.06,34.05-76.06,76.06c0,42.01,34.05,76.06,76.06,76.06
				S2445.42-164.35,2445.42-206.36z M2394.71-206.36c0,14-11.35,25.35-25.35,25.35s-25.35-11.35-25.35-25.35
				c0-14,11.35-25.35,25.35-25.35S2394.71-220.36,2394.71-206.36z"/>
			<path class="st2" d="M2546.83-206.36c0-98.01-79.46-177.47-177.47-177.47v50.69c70.02,0,126.78,56.76,126.78,126.78
				s-56.76,126.78-126.78,126.78v50.69C2467.38-28.89,2546.83-108.34,2546.83-206.36z"/>
			<rect x="1514.38" y="-79.58" class="st2" width="854.98" height="50.69"/>
			<rect x="1514.38" y="-383.81" class="st2" width="854.98" height="50.69"/>
			<path class="st2" d="M2191.89-206.36c0-98.01,79.46-177.47,177.47-177.47v50.69c-70.02,0-126.78,56.76-126.78,126.78
				s56.76,126.78,126.78,126.78v50.69C2271.35-28.89,2191.89-108.34,2191.89-206.36z"/>
		</g>
	</g>
</g>
<rect x="-25.56" y="-34.09" class="st3" width="1979.39" height="305.19"/>
<g>
	<path d="M1318.81,38.7c-30.47,0-55.32,24.82-55.31,55.31c0,0,0,20.11,0,20.11c-3.97-1.3-8.71-1.44-12.97-1.34V71.37
		c0.18-29.12-35.36-43.81-55.41-23.04c-5.85-5.92-13.98-9.6-22.94-9.6h-45.95c-12.82,0-23.91,7.51-29.12,18.36
		c-19.84-23.56-59.23-24.78-80.46-2.38c-5.57-9.56-15.93-16.01-27.77-16.01h-45.52c-12.16,0-22.76,6.79-28.21,16.77
		c-10.03-10.44-24.12-16.95-39.71-16.95c-16.34,0.65-33.2-3.55-45.79,9.58c-5.85-5.91-13.97-9.58-22.93-9.58h-45.95
		c-8.81,0-16.8,3.55-22.63,9.29c-5.77-5.5-13.56-8.88-22.14-8.88h-45.52c-8.92,0-17,3.65-22.82,9.54
		c-11.74-13.24-34.33-13.58-46.45-0.66c-16.95-17.37-46.94-9.91-53.81,13.37c-2.66,2.55-0.9,78.24-1.37,83.47
		c-0.21,28.6,35.5,43.03,55.17,22.65c12,12.8,34.36,12.63,46.16-0.33c5.85,6.07,14.05,9.86,23.12,9.86h45.52
		c8.53,0,16.29-3.35,22.04-8.79c11.81,12.47,34.01,12.35,45.69-0.22c11.88,12.75,34.21,12.69,46.15-0.16
		c5.83,5.78,13.84,9.36,22.67,9.36h22.89c15.63,0,29.75-6.55,39.79-17.04c5.48,9.9,16.03,16.63,28.13,16.63h45.52
		c8.22,0,15.72-3.1,21.41-8.2c11.88,12.26,33.91,11.98,45.48-0.54c12.17,13.05,34.94,12.68,46.7-0.7
		c11.71,13.45,34.51,13.88,46.72,0.85c11.89,12.76,34.24,12.69,46.17-0.18c6.02,6.1,14.45,9.56,22.89,9.54c0,0,36.07,0,36.07,0
		c7.79,0,14.95-2.77,20.53-7.38c12.08,10.98,32.95,10.02,43.99-1.89c19.69,20.46,55.51,6.08,55.31-22.65c0,0,0-51.46,0-51.46
		C1374.13,63.51,1349.31,38.7,1318.81,38.7z"/>
	<g>
		<g>
			<g>
				<g>
					<path class="st4" d="M578.26,160.5c-8.75,0-15.87-7.12-15.87-15.87V70.44c0-8.75,7.12-15.87,15.87-15.87
						s15.87,7.12,15.87,15.87v74.19C594.12,153.38,587,160.5,578.26,160.5z M578.26,59.65c-5.95,0-10.79,4.84-10.79,10.79v74.19
						c0,5.95,4.84,10.79,10.79,10.79s10.79-4.84,10.79-10.79V70.44C589.04,64.49,584.2,59.65,578.26,59.65z"/>
				</g>
			</g>
			<g>
				<g>
					<path class="st5" d="M624.11,160.5c-8.75,0-15.87-7.12-15.87-15.87V70.44c0-8.75,7.12-15.87,15.87-15.87
						c8.75,0,15.87,7.12,15.87,15.87v74.19C639.97,153.38,632.86,160.5,624.11,160.5z M624.11,59.65c-5.95,0-10.79,4.84-10.79,10.79
						v74.19c0,5.95,4.84,10.79,10.79,10.79c5.95,0,10.79-4.84,10.79-10.79V70.44C634.9,64.49,630.06,59.65,624.11,59.65z"/>
				</g>
			</g>
			<g>
				<g>
					<path class="st6" d="M624.11,132.16c-4.24,0-8.22-1.65-11.22-4.65l-45.85-45.85c-6.19-6.19-6.19-16.25,0-22.44
						c3-3,6.98-4.65,11.22-4.65c4.24,0,8.22,1.65,11.22,4.65l45.85,45.85c6.19,6.19,6.19,16.25,0,22.44
						C632.33,130.51,628.35,132.16,624.11,132.16z M578.26,59.65c-2.88,0-5.59,1.12-7.63,3.16c-4.21,4.21-4.21,11.05,0,15.26
						l45.85,45.85c2.04,2.04,4.75,3.16,7.63,3.16s5.59-1.12,7.63-3.16c4.21-4.21,4.21-11.05,0-15.26l-45.85-45.85
						C583.85,60.77,581.14,59.65,578.26,59.65z"/>
				</g>
			</g>
			<g>
				<g>
					<path class="st4" d="M578.26,78.12c-4.23,0-7.68-3.44-7.68-7.68c0-4.23,3.44-7.68,7.68-7.68c4.23,0,7.67,3.44,7.67,7.68
						C585.93,74.67,582.49,78.12,578.26,78.12z M578.26,67.84c-1.43,0-2.6,1.17-2.6,2.6c0,1.43,1.17,2.6,2.6,2.6s2.6-1.17,2.6-2.6
						C580.85,69.01,579.69,67.84,578.26,67.84z"/>
				</g>
			</g>
			<g>
				<g>
					<path class="st5" d="M624.11,123.97c-4.23,0-7.68-3.44-7.68-7.68s3.44-7.68,7.68-7.68s7.68,3.44,7.68,7.68
						S628.34,123.97,624.11,123.97z M624.11,113.69c-1.43,0-2.6,1.17-2.6,2.6s1.17,2.6,2.6,2.6s2.6-1.17,2.6-2.6
						S625.54,113.69,624.11,113.69z"/>
				</g>
			</g>
		</g>
		<g>
			<g>
				<g>
					<path class="st6" d="M715.99,86.77h-45.52c-8.69,0-15.75-7.07-15.75-15.75s7.07-15.75,15.75-15.75h45.52
						c8.69,0,15.75,7.07,15.75,15.75S724.67,86.77,715.99,86.77z M670.47,60.31c-5.91,0-10.71,4.8-10.71,10.71
						c0,5.91,4.8,10.71,10.71,10.71h45.52c5.91,0,10.71-4.8,10.71-10.71c0-5.91-4.8-10.71-10.71-10.71H670.47z"/>
				</g>
			</g>
			<g>
				<g>
					<path class="st4" d="M715.99,160.43h-45.52c-8.69,0-15.75-7.07-15.75-15.75s7.07-15.75,15.75-15.75h45.52
						c8.69,0,15.75,7.07,15.75,15.75S724.67,160.43,715.99,160.43z M670.47,133.96c-5.91,0-10.71,4.8-10.71,10.71
						s4.8,10.71,10.71,10.71h45.52c5.91,0,10.71-4.8,10.71-10.71s-4.8-10.71-10.71-10.71H670.47z"/>
				</g>
			</g>
			<g>
				<g>
					<path class="st5" d="M670.47,160.43c-8.69,0-15.75-7.07-15.75-15.75V71.02c0-8.69,7.07-15.75,15.75-15.75
						s15.75,7.07,15.75,15.75v73.65C686.22,153.36,679.15,160.43,670.47,160.43z M670.47,60.31c-5.91,0-10.71,4.8-10.71,10.71v73.65
						c0,5.91,4.8,10.71,10.71,10.71c5.91,0,10.71-4.8,10.71-10.71V71.02C681.18,65.12,676.37,60.31,670.47,60.31z"/>
				</g>
			</g>
			<g>
				<g>
					<g>
						<path class="st4" d="M698.6,123.69h-28.13c-8.69,0-15.75-7.07-15.75-15.75s7.07-15.75,15.75-15.75h28.13
							c8.69,0,15.75,7.07,15.75,15.75S707.28,123.69,698.6,123.69z M670.47,97.23c-5.91,0-10.71,4.8-10.71,10.71
							s4.8,10.71,10.71,10.71h28.13c5.91,0,10.71-4.8,10.71-10.71s-4.8-10.71-10.71-10.71H670.47z"/>
					</g>
				</g>
				<g>
					<g>
						<path class="st6" d="M670.47,115.56c-4.2,0-7.62-3.42-7.62-7.62s3.42-7.62,7.62-7.62c4.2,0,7.62,3.42,7.62,7.62
							S674.67,115.56,670.47,115.56z M670.47,105.36c-1.42,0-2.58,1.16-2.58,2.58s1.16,2.58,2.58,2.58s2.58-1.16,2.58-2.58
							S671.89,105.36,670.47,105.36z"/>
					</g>
				</g>
			</g>
			<g>
				<g>
					<path class="st5" d="M670.47,78.64c-4.2,0-7.62-3.42-7.62-7.62c0-4.2,3.42-7.62,7.62-7.62c4.2,0,7.62,3.42,7.62,7.62
						C678.08,75.23,674.67,78.64,670.47,78.64z M670.47,68.44c-1.42,0-2.58,1.16-2.58,2.58c0,1.42,1.16,2.58,2.58,2.58
						s2.58-1.16,2.58-2.58C673.04,69.6,671.89,68.44,670.47,68.44z"/>
				</g>
			</g>
			<g>
				<g>
					<path class="st5" d="M670.47,152.29c-4.2,0-7.62-3.42-7.62-7.62c0-4.2,3.42-7.62,7.62-7.62c4.2,0,7.62,3.42,7.62,7.62
						C678.08,148.88,674.67,152.29,670.47,152.29z M670.47,142.1c-1.42,0-2.58,1.16-2.58,2.58c0,1.42,1.16,2.58,2.58,2.58
						s2.58-1.16,2.58-2.58C673.04,143.25,671.89,142.1,670.47,142.1z"/>
				</g>
			</g>
		</g>
		<g>
			<g>
				<g>
					<path class="st5" d="M760.76,132.62c-8.77,0-15.9-7.13-15.9-15.9s7.13-15.9,15.9-15.9c16.57,0,30.05-13.48,30.05-30.05
						c0-8.77,7.13-15.9,15.9-15.9s15.9,7.13,15.9,15.9C822.62,104.87,794.87,132.62,760.76,132.62z M806.71,59.95
						c-5.96,0-10.81,4.85-10.81,10.81c0,19.38-15.76,35.14-35.14,35.14c-5.96,0-10.81,4.85-10.81,10.81s4.85,10.81,10.81,10.81
						c31.3,0,56.77-25.47,56.77-56.77C817.53,64.8,812.68,59.95,806.71,59.95z"/>
				</g>
			</g>
			<g>
				<path class="st4" d="M775.72,115.54c-2.52-4.07-1.99-9.18,0.94-12.66V70.76c0-8.77-7.13-15.9-15.9-15.9
					c-8.77,0-15.9,7.13-15.9,15.9v74.36c0,8.77,7.13,15.9,15.9,15.9c8.77,0,15.9-7.13,15.9-15.9v-28.06L775.72,115.54z
					 M771.57,145.12c0,5.96-4.85,10.81-10.81,10.81c-5.96,0-10.81-4.85-10.81-10.81V70.76c0-5.96,4.85-10.81,10.81-10.81
					c5.96,0,10.81,4.85,10.81,10.81V145.12z"/>
			</g>
			<g>
				<g>
					<path class="st5" d="M806.71,86.67h-45.95c-8.77,0-15.9-7.13-15.9-15.9s7.13-15.9,15.9-15.9h45.95c8.77,0,15.9,7.13,15.9,15.9
						S815.48,86.67,806.71,86.67z M760.76,59.95c-5.96,0-10.81,4.85-10.81,10.81c0,5.96,4.85,10.81,10.81,10.81h45.95
						c5.96,0,10.81-4.85,10.81-10.81c0-5.96-4.85-10.81-10.81-10.81H760.76z"/>
				</g>
			</g>
			<g>
				<g>
					<path class="st5" d="M760.76,124.41c-4.24,0-7.69-3.45-7.69-7.69c0-4.24,3.45-7.69,7.69-7.69s7.69,3.45,7.69,7.69
						C768.45,120.96,765,124.41,760.76,124.41z M760.76,114.11c-1.44,0-2.6,1.17-2.6,2.6s1.17,2.6,2.6,2.6s2.6-1.17,2.6-2.6
						S762.2,114.11,760.76,114.11z"/>
				</g>
			</g>
			<g>
				<g>
					<path class="st6" d="M760.76,78.46c-4.24,0-7.69-3.45-7.69-7.69c0-4.24,3.45-7.69,7.69-7.69s7.69,3.45,7.69,7.69
						C768.45,75,765,78.46,760.76,78.46z M760.76,68.16c-1.44,0-2.6,1.17-2.6,2.6s1.17,2.6,2.6,2.6s2.6-1.17,2.6-2.6
						S762.2,68.16,760.76,68.16z"/>
				</g>
			</g>
			<g>
				<g>
					<path class="st4" d="M806.59,78.46c-4.24,0-7.69-3.45-7.69-7.69c0-4.24,3.45-7.69,7.69-7.69c4.24,0,7.69,3.45,7.69,7.69
						C814.28,75,810.83,78.46,806.59,78.46z M806.59,68.16c-1.44,0-2.6,1.17-2.6,2.6s1.17,2.6,2.6,2.6c1.44,0,2.6-1.17,2.6-2.6
						S808.02,68.16,806.59,68.16z"/>
				</g>
			</g>
			<g>
				<g>
					<path class="st5" d="M784.96,117.6c-4.24,0-7.69-3.45-7.69-7.69c0-4.24,3.45-7.69,7.69-7.69s7.69,3.45,7.69,7.69
						C792.65,114.15,789.2,117.6,784.96,117.6z M784.96,107.31c-1.44,0-2.6,1.17-2.6,2.6c0,1.44,1.17,2.6,2.6,2.6
						c1.44,0,2.6-1.17,2.6-2.6C787.56,108.48,786.39,107.31,784.96,107.31z"/>
				</g>
			</g>
			<g>
				<g>
					<path class="st6" d="M806.73,161.03c-5.56,0-10.62-2.82-13.54-7.54l-21.79-35.26c-4.61-7.46-2.29-17.28,5.17-21.89
						c3.61-2.23,7.88-2.92,12.01-1.95c4.13,0.98,7.64,3.5,9.87,7.12l21.79,35.26c2.23,3.61,2.93,7.88,1.95,12.01
						c-0.98,4.13-3.5,7.64-7.12,9.87C812.56,160.2,809.67,161.03,806.73,161.03z M784.9,99.04c-1.98,0-3.93,0.55-5.66,1.62
						c-5.07,3.14-6.65,9.81-3.51,14.88l21.79,35.26c1.99,3.21,5.43,5.13,9.21,5.13c2,0,3.96-0.56,5.67-1.62
						c2.46-1.52,4.18-3.9,4.84-6.71c0.66-2.81,0.19-5.71-1.33-8.17l-21.79-35.26c-1.52-2.46-3.9-4.18-6.71-4.84
						C786.57,99.14,785.73,99.04,784.9,99.04z"/>
				</g>
			</g>
		</g>
		<g>
			<path class="st6" d="M1234.15,145.06V71.33c0-7.53-5-14.42-12.36-16.03c-10.33-2.26-19.49,5.59-19.49,15.54v74.21h0c0,0,0,0,0,0
				c0,0,0,0.01,0,0.01h0v0.24c0-0.04,0.01-0.08,0.01-0.12c0.04,4.12,1.64,7.87,4.26,10.69c2.91,3.13,7.06,5.1,11.66,5.1
				c4.6,0,8.75-1.96,11.66-5.1c2.64-2.84,4.26-6.64,4.26-10.81h0C1234.15,145.07,1234.15,145.06,1234.15,145.06L1234.15,145.06z
				 M1229.06,145.06L1229.06,145.06c-0.01,7.48-7.64,13.22-15.53,9.82c-3.84-1.65-6.13-5.65-6.13-9.82v0c0,0,0-5.56,0-11.41V71.27
				c0-5.2,3.47-9.98,8.56-11.02c6.96-1.42,13.1,3.89,13.1,10.6V145.06z"/>
			<path class="st5" d="M1254.29,129.12h-20.14h-5.1h-10.83c-4.18,0-7.99,1.62-10.83,4.26c-3.13,2.91-5.1,7.06-5.1,11.66
				c0,8.78,7.14,15.93,15.93,15.93h36.07c8.78,0,15.93-7.14,15.93-15.93C1270.22,136.27,1263.08,129.12,1254.29,129.12z
				 M1254.29,155.88h-24.4h-11.66c-5.97,0-10.83-4.86-10.83-10.83s4.86-10.83,10.83-10.83h10.83h5.1h20.14
				c5.97,0,10.83,4.86,10.83,10.83S1260.27,155.88,1254.29,155.88z"/>
			<g>
				<path class="st4" d="M1218.23,137.35c-4.25,0-7.7,3.46-7.7,7.7c0,4.25,3.46,7.7,7.7,7.7s7.7-3.46,7.7-7.7
					C1225.93,140.8,1222.47,137.35,1218.23,137.35z M1218.23,147.66c-1.44,0-2.61-1.17-2.61-2.61s1.17-2.61,2.61-2.61
					s2.61,1.17,2.61,2.61S1219.66,147.66,1218.23,147.66z"/>
			</g>
		</g>
		<g>
			<g>
				<path class="st6" d="M1295.8,106.16h10.83v-5.1h-10.83c-4.18,0-7.99,1.62-10.83,4.26c-3.13,2.91-5.1,7.06-5.1,11.66
					c0,4.6,1.96,8.75,5.1,11.66c2.84,2.64,6.65,4.26,10.83,4.26h10.83v-5.1h-10.83c-5.97,0-10.83-4.86-10.83-10.83
					S1289.83,106.16,1295.8,106.16z"/>
				<path class="st6" d="M1341.83,106.16H1331h-5.1h-14.17v-5.1h14.17h5.1h10.83c4.18,0,7.99,1.62,10.83,4.26
					c3.13,2.91,5.1,7.06,5.1,11.66c0,4.6-1.96,8.75-5.1,11.66c-2.84,2.64-6.65,4.26-10.83,4.26H1331h-5.1h-14.17v-5.1h14.17h5.1
					h10.83c5.97,0,10.83-4.86,10.83-10.83S1347.8,106.16,1341.83,106.16z"/>
			</g>
			<g>
				<path class="st4" d="M1334.12,116.99c0,4.25,3.46,7.7,7.7,7.7s7.7-3.46,7.7-7.7s-3.46-7.7-7.7-7.7
					S1334.12,112.74,1334.12,116.99z M1339.22,116.99c0-1.44,1.17-2.61,2.61-2.61s2.61,1.17,2.61,2.61c0,1.44-1.17,2.61-2.61,2.61
					S1339.22,118.43,1339.22,116.99z"/>
			</g>
			<g>
				<path class="st6" d="M1288.1,116.99c0,4.25,3.46,7.7,7.7,7.7c4.25,0,7.7-3.46,7.7-7.7s-3.46-7.7-7.7-7.7
					C1291.55,109.29,1288.1,112.74,1288.1,116.99z M1293.19,116.99c0-1.44,1.17-2.61,2.61-2.61s2.61,1.17,2.61,2.61
					c0,1.44-1.17,2.61-2.61,2.61S1293.19,118.43,1293.19,116.99z"/>
			</g>
			<g>
				<path class="st5" d="M1311.09,70.96c0,4.25,3.46,7.7,7.7,7.7c4.25,0,7.7-3.46,7.7-7.7s-3.46-7.7-7.7-7.7
					C1314.54,63.26,1311.09,66.72,1311.09,70.96z M1316.18,70.96c0-1.44,1.17-2.61,2.61-2.61s2.61,1.17,2.61,2.61
					c0,1.44-1.17,2.61-2.61,2.61S1316.18,72.4,1316.18,70.96z"/>
			</g>
			<g>
				<path class="st4" d="M1341.83,161.36c-8.78,0-15.93-7.14-15.93-15.93v-12.52h5.1v12.52c0,5.97,4.86,10.83,10.83,10.83
					c5.97,0,10.83-4.86,10.83-10.83v-16.78c3.13-2.91,5.1-7.06,5.1-11.66v28.45C1357.75,154.22,1350.61,161.36,1341.83,161.36z"/>
				<path class="st4" d="M1331,93.98v7.09h-5.1v-7.09c0-3.91-3.18-7.09-7.09-7.09v-5.1C1325.53,81.79,1331,87.26,1331,93.98z"/>
				<path class="st4" d="M1357.75,93.98v23.01c0-4.6-1.96-8.75-5.1-11.66V93.98c0-18.66-15.18-33.84-33.84-33.84v-5.1
					C1340.28,55.04,1357.75,72.51,1357.75,93.98z"/>
			</g>
			<path class="st5" d="M1279.87,93.98v23.01v28.45c0,8.78,7.14,15.93,15.93,15.93c8.78,0,15.93-7.14,15.93-15.93v-12.52v-5.1
				v-21.66v-5.1v-7.09c0-3.91,3.18-7.09,7.09-7.09v0c4.17-0.01,7.97-1.62,10.81-4.26c3.13-2.91,5.1-7.06,5.1-11.66
				c0-4.6-1.96-8.75-5.1-11.66c-2.84-2.64-6.64-4.26-10.81-4.26v0c0,0-0.01,0-0.01,0c0,0-0.01,0-0.01,0v0
				C1297.33,55.05,1279.87,72.51,1279.87,93.98z M1284.97,93.98c0-18.66,15.18-33.83,33.83-33.84c5.97,0,10.82,4.86,10.82,10.83
				c0,5.97-4.86,10.83-10.83,10.83v0c-6.71,0.01-12.16,5.47-12.16,12.18v7.09v5.1v21.66v5.1v12.52c0,5.97-4.86,10.83-10.83,10.83
				c-5.97,0-10.83-4.86-10.83-10.83v-16.78v-11.66v-11.66V93.98z"/>
		</g>
		<g>
			<g>
				<g>
					<path class="st4" d="M1126.21,132.82c-8.77,0-15.9-7.13-15.9-15.9s7.13-15.9,15.9-15.9c16.57,0,30.05-13.48,30.05-30.05
						c0-8.77,7.13-15.9,15.9-15.9s15.9,7.13,15.9,15.9C1188.07,105.07,1160.32,132.82,1126.21,132.82z M1172.17,60.15
						c-5.96,0-10.81,4.85-10.81,10.81c0,19.38-15.76,35.14-35.14,35.14c-5.96,0-10.81,4.85-10.81,10.81s4.85,10.81,10.81,10.81
						c31.3,0,56.77-25.47,56.77-56.77C1182.98,65,1178.13,60.15,1172.17,60.15z"/>
				</g>
			</g>
			<g>
				<path class="st6" d="M1141.18,115.74c-2.52-4.07-1.99-9.18,0.94-12.66V70.97c0-8.77-7.13-15.9-15.9-15.9
					c-8.77,0-15.9,7.13-15.9,15.9v74.36c0,8.77,7.13,15.9,15.9,15.9c8.77,0,15.9-7.13,15.9-15.9v-28.06L1141.18,115.74z
					 M1137.03,145.32c0,5.96-4.85,10.81-10.81,10.81s-10.81-4.85-10.81-10.81V70.97c0-5.96,4.85-10.81,10.81-10.81
					s10.81,4.85,10.81,10.81V145.32z"/>
			</g>
			<g>
				<g>
					<path class="st4" d="M1172.17,86.87h-45.95c-8.77,0-15.9-7.13-15.9-15.9s7.13-15.9,15.9-15.9h45.95c8.77,0,15.9,7.13,15.9,15.9
						S1180.94,86.87,1172.17,86.87z M1126.21,60.15c-5.96,0-10.81,4.85-10.81,10.81s4.85,10.81,10.81,10.81h45.95
						c5.96,0,10.81-4.85,10.81-10.81s-4.85-10.81-10.81-10.81H1126.21z"/>
				</g>
			</g>
			<g>
				<g>
					<path class="st4" d="M1126.21,124.61c-4.24,0-7.69-3.45-7.69-7.69c0-4.24,3.45-7.69,7.69-7.69c4.24,0,7.69,3.45,7.69,7.69
						C1133.91,121.16,1130.46,124.61,1126.21,124.61z M1126.21,114.32c-1.44,0-2.6,1.17-2.6,2.6s1.17,2.6,2.6,2.6s2.6-1.17,2.6-2.6
						S1127.65,114.32,1126.21,114.32z"/>
				</g>
			</g>
			<g>
				<g>
					<path class="st5" d="M1126.21,78.66c-4.24,0-7.69-3.45-7.69-7.69c0-4.24,3.45-7.69,7.69-7.69c4.24,0,7.69,3.45,7.69,7.69
						C1133.91,75.21,1130.46,78.66,1126.21,78.66z M1126.21,68.36c-1.44,0-2.6,1.17-2.6,2.6s1.17,2.6,2.6,2.6s2.6-1.17,2.6-2.6
						S1127.65,68.36,1126.21,68.36z"/>
				</g>
			</g>
			<g>
				<g>
					<path class="st6" d="M1172.04,78.66c-4.24,0-7.69-3.45-7.69-7.69c0-4.24,3.45-7.69,7.69-7.69c4.24,0,7.69,3.45,7.69,7.69
						C1179.74,75.21,1176.28,78.66,1172.04,78.66z M1172.04,68.36c-1.44,0-2.6,1.17-2.6,2.6s1.17,2.6,2.6,2.6s2.6-1.17,2.6-2.6
						S1173.48,68.36,1172.04,68.36z"/>
				</g>
			</g>
			<g>
				<g>
					<path class="st6" d="M1150.41,117.81c-4.24,0-7.69-3.45-7.69-7.69c0-4.24,3.45-7.69,7.69-7.69c4.24,0,7.69,3.45,7.69,7.69
						C1158.1,114.36,1154.65,117.81,1150.41,117.81z M1150.41,107.51c-1.44,0-2.6,1.17-2.6,2.6c0,1.44,1.17,2.6,2.6,2.6
						s2.6-1.17,2.6-2.6C1153.01,108.68,1151.84,107.51,1150.41,107.51z"/>
				</g>
			</g>
			<g>
				<g>
					<path class="st5" d="M1172.18,161.23c-5.56,0-10.62-2.82-13.54-7.54l-21.79-35.26c-4.61-7.46-2.29-17.28,5.17-21.89
						c3.61-2.23,7.88-2.92,12.01-1.95c4.13,0.98,7.64,3.5,9.87,7.12l21.79,35.26c2.23,3.61,2.93,7.88,1.95,12.01
						c-0.98,4.13-3.5,7.64-7.12,9.87C1178.01,160.41,1175.13,161.23,1172.18,161.23z M1150.35,99.24c-1.98,0-3.93,0.55-5.66,1.62
						c-5.07,3.14-6.65,9.81-3.51,14.88l21.79,35.26c1.99,3.21,5.43,5.13,9.21,5.13c2,0,3.96-0.56,5.67-1.62
						c2.46-1.52,4.18-3.9,4.84-6.71c0.66-2.81,0.19-5.71-1.33-8.17l-21.79-35.26c-1.52-2.46-3.9-4.18-6.71-4.84
						C1152.03,99.34,1151.19,99.24,1150.35,99.24z"/>
				</g>
			</g>
		</g>
		<g>
			<g>
				<g>
					<path class="st6" d="M852.54,160.61c-8.73,0-15.84-7.11-15.84-15.84V70.7c0-8.73,7.11-15.84,15.84-15.84
						s15.84,7.11,15.84,15.84v74.07C868.38,153.51,861.27,160.61,852.54,160.61z M852.54,59.93c-5.94,0-10.77,4.83-10.77,10.77
						v74.07c0,5.94,4.83,10.77,10.77,10.77s10.77-4.83,10.77-10.77V70.7C863.31,64.76,858.48,59.93,852.54,59.93z"/>
				</g>
			</g>
			<g>
				<g>
					<path class="st5" d="M852.54,78.36c-4.23,0-7.66-3.44-7.66-7.66c0-4.23,3.44-7.66,7.66-7.66s7.66,3.44,7.66,7.66
						C860.2,74.93,856.76,78.36,852.54,78.36z M852.54,68.11c-1.43,0-2.59,1.16-2.59,2.59s1.16,2.59,2.59,2.59s2.59-1.16,2.59-2.59
						S853.97,68.11,852.54,68.11z"/>
				</g>
			</g>
			<g>
				<g>
					<path class="st4" d="M852.54,152.44c-4.23,0-7.66-3.44-7.66-7.66s3.44-7.66,7.66-7.66s7.66,3.44,7.66,7.66
						S856.76,152.44,852.54,152.44z M852.54,142.18c-1.43,0-2.59,1.16-2.59,2.59c0,1.43,1.16,2.59,2.59,2.59s2.59-1.16,2.59-2.59
						C855.13,143.34,853.97,142.18,852.54,142.18z"/>
				</g>
			</g>
			<g>
				<g>
					<path class="st6" d="M898.32,114.56c-4.23,0-7.66-3.44-7.66-7.66s3.44-7.66,7.66-7.66s7.66,3.44,7.66,7.66
						S902.54,114.56,898.32,114.56z M898.32,104.3c-1.43,0-2.59,1.16-2.59,2.59c0,1.43,1.16,2.59,2.59,2.59s2.59-1.16,2.59-2.59
						C900.91,105.47,899.75,104.3,898.32,104.3z"/>
				</g>
			</g>
			<path class="st4" d="M875.43,54.86h-22.89c-8.73,0-15.84,7.11-15.84,15.84s7.11,15.84,15.84,15.84h22.89
				c3.89,0,7.05,3.16,7.05,7.05v13.31l0,0c0,8.73,7.11,15.84,15.84,15.84c8.73,0,15.84-7.11,15.84-15.84l0,0V93.59
				C914.16,72.24,896.78,54.86,875.43,54.86z M909.09,93.59v13.31c0,5.94-4.83,10.77-10.77,10.77c-5.94,0-10.77-4.83-10.77-10.77
				V93.59c0-6.68-5.44-12.12-12.12-12.12h-22.89c-5.94,0-10.77-4.83-10.77-10.77s4.83-10.77,10.77-10.77h22.89
				C893.99,59.93,909.09,75.03,909.09,93.59L909.09,93.59z"/>
			<path class="st5" d="M898.32,91.06c-8.73,0-15.84,7.11-15.84,15.84v14.99c0,3.89-3.16,7.05-7.05,7.05h-22.89
				c-8.73,0-15.84,7.11-15.84,15.84c0,8.73,7.11,15.84,15.84,15.84h22.89c21.36,0,38.73-17.37,38.73-38.73V106.9
				C914.16,98.16,907.05,91.06,898.32,91.06z M909.09,121.88c0,18.56-15.1,33.66-33.66,33.66h-22.89c-5.94,0-10.77-4.83-10.77-10.77
				c0-5.94,4.83-10.77,10.77-10.77h22.89c6.68,0,12.12-5.44,12.12-12.12V106.9c0-5.94,4.83-10.77,10.77-10.77
				c5.94,0,10.77,4.83,10.77,10.77V121.88z"/>
		</g>
		<g>
			<path class="st4" d="M1078.77,105.93h-10.83v-5.1h10.83c4.18,0,7.99,1.62,10.83,4.26c3.13,2.91,5.1,7.06,5.1,11.66
				c0,4.6-1.96,8.75-5.1,11.66c-2.84,2.64-6.65,4.26-10.83,4.26h-10.83v-5.1h10.83c5.97,0,10.83-4.86,10.83-10.83
				C1089.6,110.79,1084.74,105.93,1078.77,105.93z"/>
			<path class="st4" d="M1032.74,105.93h10.83h5.1h14.17v-5.1h-14.17h-5.1h-10.83c-4.18,0-7.99,1.62-10.83,4.26
				c-3.13,2.91-5.1,7.06-5.1,11.66c0,4.6,1.96,8.75,5.1,11.66c2.84,2.64,6.65,4.26,10.83,4.26h10.83h5.1h14.17v-5.1h-14.17h-5.1
				h-10.83c-5.97,0-10.83-4.86-10.83-10.83C1021.91,110.79,1026.77,105.93,1032.74,105.93z"/>
			<g>
				<path class="st5" d="M1032.74,109.06c-4.25,0-7.7,3.46-7.7,7.7c0,4.25,3.46,7.7,7.7,7.7s7.7-3.46,7.7-7.7
					C1040.44,112.51,1036.99,109.06,1032.74,109.06z M1032.74,119.37c-1.44,0-2.61-1.17-2.61-2.61c0-1.44,1.17-2.61,2.61-2.61
					s2.61,1.17,2.61,2.61C1035.35,118.2,1034.18,119.37,1032.74,119.37z"/>
			</g>
			<g>
				<path class="st6" d="M1078.77,109.06c-4.25,0-7.7,3.46-7.7,7.7c0,4.25,3.46,7.7,7.7,7.7c4.25,0,7.7-3.46,7.7-7.7
					C1086.47,112.51,1083.01,109.06,1078.77,109.06z M1078.77,119.37c-1.44,0-2.61-1.17-2.61-2.61c0-1.44,1.17-2.61,2.61-2.61
					s2.61,1.17,2.61,2.61C1081.37,118.2,1080.2,119.37,1078.77,119.37z"/>
			</g>
			<g>
				<path class="st6" d="M1055.77,63.03c-4.25,0-7.7,3.46-7.7,7.7c0,4.25,3.46,7.7,7.7,7.7c4.25,0,7.7-3.46,7.7-7.7
					C1063.48,66.49,1060.02,63.03,1055.77,63.03z M1055.77,73.34c-1.44,0-2.61-1.17-2.61-2.61c0-1.44,1.17-2.61,2.61-2.61
					s2.61,1.17,2.61,2.61C1058.38,72.17,1057.21,73.34,1055.77,73.34z"/>
			</g>
			<g>
				<path class="st5" d="M1032.74,161.13c8.78,0,15.93-7.14,15.93-15.93v-12.52h-5.1v12.52c0,5.97-4.86,10.83-10.83,10.83
					c-5.97,0-10.83-4.86-10.83-10.83v-16.78c-3.13-2.91-5.1-7.06-5.1-11.66v28.45C1016.81,153.99,1023.96,161.13,1032.74,161.13z"/>
				<path class="st5" d="M1043.57,93.75v7.09h5.1v-7.09c0-3.91,3.18-7.09,7.09-7.09v-5.1C1049.04,81.56,1043.57,87.03,1043.57,93.75
					z"/>
				<path class="st5" d="M1016.81,93.75v23.01c0-4.6,1.96-8.75,5.1-11.66V93.75c0-18.66,15.18-33.84,33.84-33.84v-5.1
					C1034.28,54.81,1016.81,72.28,1016.81,93.75z"/>
			</g>
			<path class="st6" d="M1055.77,54.81L1055.77,54.81C1055.77,54.81,1055.77,54.81,1055.77,54.81c-0.01,0-0.02,0-0.02,0v0
				c-4.17,0.01-7.97,1.62-10.81,4.26c-3.13,2.91-5.1,7.06-5.1,11.66c0,4.6,1.96,8.75,5.1,11.66c2.84,2.64,6.64,4.26,10.81,4.26v0
				c3.91,0,7.09,3.18,7.09,7.09v7.09v5.1v21.66v5.1v12.52c0,8.78,7.14,15.93,15.93,15.93c8.78,0,15.93-7.14,15.93-15.93v-28.45
				V93.75C1094.69,72.28,1077.24,54.82,1055.77,54.81z M1089.6,105.1v11.66v11.66v16.78c0,5.97-4.86,10.83-10.83,10.83
				c-5.97,0-10.83-4.86-10.83-10.83v-12.52v-5.1v-21.66v-5.1v-7.09c0-6.71-5.45-12.17-12.16-12.18v0c-5.97,0-10.83-4.86-10.83-10.83
				c0-5.97,4.85-10.82,10.82-10.83c18.65,0.01,33.83,15.19,33.83,33.84V105.1z"/>
		</g>
		<g>
			<g>
				<g>
					<path class="st4" d="M988.86,86.55h-45.52c-8.69,0-15.75-7.07-15.75-15.75s7.07-15.75,15.75-15.75h45.52
						c8.69,0,15.75,7.07,15.75,15.75S997.55,86.55,988.86,86.55z M943.35,60.09c-5.91,0-10.71,4.8-10.71,10.71
						c0,5.91,4.8,10.71,10.71,10.71h45.52c5.91,0,10.71-4.8,10.71-10.71c0-5.91-4.8-10.71-10.71-10.71H943.35z"/>
				</g>
			</g>
			<g>
				<g>
					<path class="st5" d="M988.86,160.2h-45.52c-8.69,0-15.75-7.07-15.75-15.75c0-8.69,7.07-15.75,15.75-15.75h45.52
						c8.69,0,15.75,7.07,15.75,15.75C1004.62,153.13,997.55,160.2,988.86,160.2z M943.35,133.74c-5.91,0-10.71,4.8-10.71,10.71
						s4.8,10.71,10.71,10.71h45.52c5.91,0,10.71-4.8,10.71-10.71s-4.8-10.71-10.71-10.71H943.35z"/>
				</g>
			</g>
			<g>
				<g>
					<path class="st6" d="M943.35,160.2c-8.69,0-15.75-7.07-15.75-15.75V70.8c0-8.69,7.07-15.75,15.75-15.75s15.75,7.07,15.75,15.75
						v73.65C959.1,153.13,952.03,160.2,943.35,160.2z M943.35,60.09c-5.91,0-10.71,4.8-10.71,10.71v73.65
						c0,5.91,4.8,10.71,10.71,10.71c5.91,0,10.71-4.8,10.71-10.71V70.8C954.06,64.89,949.25,60.09,943.35,60.09z"/>
				</g>
			</g>
			<g>
				<g>
					<g>
						<path class="st5" d="M971.48,123.47h-28.13c-8.69,0-15.75-7.07-15.75-15.75s7.07-15.75,15.75-15.75h28.13
							c8.69,0,15.75,7.07,15.75,15.75S980.16,123.47,971.48,123.47z M943.35,97c-5.91,0-10.71,4.8-10.71,10.71
							c0,5.91,4.8,10.71,10.71,10.71h28.13c5.91,0,10.71-4.8,10.71-10.71c0-5.91-4.8-10.71-10.71-10.71H943.35z"/>
					</g>
				</g>
				<g>
					<g>
						<path class="st4" d="M943.35,115.34c-4.2,0-7.62-3.42-7.62-7.62c0-4.2,3.42-7.62,7.62-7.62s7.62,3.42,7.62,7.62
							C950.96,111.92,947.55,115.34,943.35,115.34z M943.35,105.14c-1.42,0-2.58,1.16-2.58,2.58c0,1.42,1.16,2.58,2.58,2.58
							s2.58-1.16,2.58-2.58C945.92,106.29,944.77,105.14,943.35,105.14z"/>
					</g>
				</g>
			</g>
			<g>
				<g>
					<path class="st6" d="M943.35,78.42c-4.2,0-7.62-3.42-7.62-7.62c0-4.2,3.42-7.62,7.62-7.62s7.62,3.42,7.62,7.62
						C950.96,75,947.55,78.42,943.35,78.42z M943.35,68.22c-1.42,0-2.58,1.16-2.58,2.58c0,1.42,1.16,2.58,2.58,2.58
						s2.58-1.16,2.58-2.58C945.92,69.38,944.77,68.22,943.35,68.22z"/>
				</g>
			</g>
			<g>
				<g>
					<path class="st6" d="M943.35,152.07c-4.2,0-7.62-3.42-7.62-7.62s3.42-7.62,7.62-7.62s7.62,3.42,7.62,7.62
						S947.55,152.07,943.35,152.07z M943.35,141.87c-1.42,0-2.58,1.16-2.58,2.58s1.16,2.58,2.58,2.58s2.58-1.16,2.58-2.58
						S944.77,141.87,943.35,141.87z"/>
				</g>
			</g>
		</g>
	</g>
</g>
</svg>
