<svg viewBox="0 0 1512 81" fill="none" xmlns="http://www.w3.org/2000/svg">
  <g clip-path="url(#a)" fill="#fff">
    <path d="M97.98.081v80.836H0V.081h97.98Zm1-.081H-1v80.998h99.98V0Z"/>
    <path d="M97.98.081v80.836H77.644V.081H97.98Zm1-.081H76.644v80.998H98.98V0Z"/>
    <path d="M197.01.081v80.836H99.03V.081h97.98Zm1-.081H98.03v80.998h99.98V0Z"/>
    <path d="M197.01.081v80.836h-20.336V.081h20.336Zm1-.081h-22.336v80.998h22.336V0Z"/>
    <path d="M295.89.081v80.836h-97.98V.081h97.98Zm1-.081h-99.98v80.998h99.98V0Z"/>
    <path d="M295.89.081v80.836h-20.336V.081h20.336Zm1-.081h-22.336v80.998h22.336V0Z"/>
    <path d="M394.92.081v80.836h-97.98V.081h97.98Zm1-.081h-99.98v80.998h99.98V0Z"/>
    <path d="M394.92.081v80.836h-20.336V.081h20.336Zm1-.081h-22.336v80.998h22.336V0Z"/>
    <path d="M493.8.081v80.836h-97.98V.081h97.98Zm1-.081h-99.98v80.998h99.98V0Z"/>
    <path d="M493.8.081v80.836h-20.336V.081H493.8Zm1-.081h-22.336v80.998H494.8V0Z"/>
    <path d="M592.83.081v80.836h-97.98V.081h97.98Zm1-.081h-99.98v80.998h99.98V0Z"/>
    <path d="M592.83.081v80.836h-20.336V.081h20.336Zm1-.081h-22.336v80.998h22.336V0Z"/>
    <path d="M691.87.081v80.836h-97.98V.081h97.98Zm1-.081h-99.98v80.998h99.98V0Z"/>
    <path d="M691.87.081v80.836h-20.336V.081h20.336Zm1-.081h-22.336v80.998h22.336V0Z"/>
    <path d="M790.9.081v80.836h-97.98V.081h97.98Zm1-.081h-99.98v80.998h99.98V0Z"/>
    <path d="M790.9.081v80.836h-20.336V.081H790.9Zm1-.081h-22.336v80.998H791.9V0Z"/>
    <path d="M889.78.081v80.836H791.8V.081h97.98Zm1-.081H790.8v80.998h99.98V0Z"/>
    <path d="M889.78.081v80.836h-20.336V.081h20.336Zm1-.081h-22.336v80.998h22.336V0Z"/>
    <path d="M988.51.081v80.836h-97.98V.081h97.98Zm1-.081h-99.98v80.998h99.98V0Z"/>
    <path d="M988.51.081v80.836h-20.336V.081h20.336Zm1-.081h-22.336v80.998h22.336V0Z"/>
    <path d="M1087.6.081v80.836h-97.98V.081h97.98Zm1-.081h-99.98v80.998h99.98V0Z"/>
    <path d="M1087.6.081v80.836h-20.34V.081h20.34Zm1-.081h-22.34v80.998h22.34V0Z"/>
    <path d="M1186.59.081v80.836h-97.98V.081h97.98Zm1-.081h-99.98v80.998h99.98V0Z"/>
    <path d="M1186.59.081v80.836h-20.34V.081h20.34Zm1-.081h-22.34v80.998h22.34V0Z"/>
    <path d="M1285.43.081v80.836h-97.98V.081h97.98Zm1-.081h-99.98v80.998h99.98V0Z"/>
    <path d="M1285.43.081v80.836h-20.34V.081h20.34Zm1-.081h-22.34v80.998h22.34V0Z"/>
    <path d="M1384.41.082V80.92h-97.98V.082h97.98Zm1-.08h-99.98V81h99.98V0Z"/>
    <path d="M1384.41.082V80.92h-20.34V.082h20.34Zm1-.08h-22.34V81h22.34V0Z"/>
    <path d="M1483.35.081v80.836h-97.98V.081h97.98Zm1-.081h-99.98v80.998h99.98V0Z"/>
    <path d="M1483.35.081v80.836h-20.34V.081h20.34Zm1-.081h-22.34v80.998h22.34V0Z"/>
    <path d="M1582.31.081v80.836h-97.98V.081h97.98Zm1-.081h-99.98v80.998h99.98V0Z"/>
  </g>
  <path stroke="#fff" d="M-.5.5h1781v80H-.5z"/>
  <defs>
    <clipPath id="a">
      <path fill="#fff" d="M-1 0h1782v81H-1z"/>
    </clipPath>
  </defs>
</svg>