<?xml version="1.0" encoding="UTF-8"?>
<svg xmlns="http://www.w3.org/2000/svg" xmlns:xlink="http://www.w3.org/1999/xlink" width="1920pt" height="1080pt" viewBox="0 0 1920 1080" version="1.1">
<g id="surface1">
<rect x="0" y="0" width="1920" height="1080" style="fill:rgb(100%,19.213867%,23.143005%);fill-opacity:1;stroke:none;"/>
<path style=" stroke:none;fill-rule:nonzero;fill:rgb(88.671875%,10.205078%,13.330078%);fill-opacity:1;" d="M -619.488281 1287.230469 C 1133.308594 1287.230469 2554.230469 -133.699219 2554.230469 -1886.488281 L 2554.230469 -1886.511719 C 2554.230469 -2054.679688 2541.101563 -2219.78125 2515.898438 -2380.878906 L 1550.191406 -2380.878906 C 1585.390625 -2222.21875 1604.101563 -2057.351563 1604.101563 -1888.101563 L 1604.101563 -1888.078125 C 1604.101563 -636.800781 589.726563 377.5625 -661.558594 377.5625 L -1498.519531 377.5625 L -1498.519531 1287.230469 "/>
<path style=" stroke:none;fill-rule:nonzero;fill:rgb(100%,33.714294%,37.255859%);fill-opacity:1;" d="M 1622.699219 853.691406 C 1622.699219 653.878906 1784.679688 491.898438 1984.488281 491.898438 L 2769.679688 491.898438 C 2969.5 491.898438 3131.480469 653.878906 3131.480469 853.691406 C 3131.480469 1053.503906 2969.5 1215.484375 2769.679688 1215.484375 L 1984.488281 1215.484375 C 1784.679688 1215.484375 1622.699219 1053.503906 1622.699219 853.691406 Z M 1977.769531 1360.234375 L 2776.398438 1360.234375 C 3056.300781 1360.234375 3283.199219 1133.335938 3283.199219 853.4375 C 3283.199219 573.539063 3056.300781 346.636719 2776.398438 346.636719 L 1977.769531 346.636719 C 1697.871094 346.636719 1470.96875 573.539063 1470.96875 853.4375 C 1470.96875 1133.335938 1697.871094 1360.234375 1977.769531 1360.234375 "/>
<path style=" stroke:none;fill-rule:nonzero;fill:rgb(100%,19.213867%,23.143005%);fill-opacity:1;" d="M 1592.230469 930.238281 L 3646.53125 930.238281 L 3646.53125 552.652344 L 1609.75 552.652344 C 1088.53125 552.652344 666.003906 130.125 666.003906 -391.089844 C 666.003906 -912.308594 1088.53125 -1334.828125 1609.75 -1334.828125 L 3646.53125 -1334.828125 L 3646.53125 -1713.75 L 1592.230469 -1713.75 C 862.109375 -1713.75 270.234375 -1121.871094 270.234375 -391.761719 L 270.234375 -391.75 C 270.234375 338.363281 862.109375 930.238281 1592.230469 930.238281 "/>
</g>
</svg>
