<?xml version="1.0" encoding="UTF-8"?>
<svg xmlns="http://www.w3.org/2000/svg" xmlns:xlink="http://www.w3.org/1999/xlink" width="1920pt" height="1080pt" viewBox="0 0 1920 1080" version="1.1">
<g id="surface1">
<rect x="0" y="0" width="1920" height="1080" style="fill:rgb(0%,65.429688%,63.476563%);fill-opacity:1;stroke:none;"/>
<path style=" stroke:none;fill-rule:nonzero;fill:rgb(0%,56.834412%,55.271912%);fill-opacity:1;" d="M -8.066406 -167.25 C -450.730469 -167.25 -809.585938 191.605469 -809.585938 634.269531 L -580.652344 634.269531 C -580.652344 318.039063 -324.296875 61.679688 -8.066406 61.679688 C 308.167969 61.679688 564.523438 318.039063 564.523438 634.269531 L 793.453125 634.269531 C 793.453125 191.605469 434.605469 -167.25 -8.066406 -167.25 "/>
<path style=" stroke:none;fill-rule:nonzero;fill:rgb(0%,56.834412%,55.271912%);fill-opacity:1;" d="M -122.566406 634.269531 C -122.566406 571.03125 -71.304688 519.769531 -8.066406 519.769531 C 55.171875 519.769531 106.4375 571.03125 106.4375 634.269531 C 106.4375 697.507813 55.171875 748.773438 -8.066406 748.773438 C -71.304688 748.773438 -122.566406 697.507813 -122.566406 634.269531 M 335.441406 634.269531 C 335.441406 444.558594 181.652344 290.761719 -8.066406 290.761719 C -197.777344 290.761719 -351.574219 444.558594 -351.574219 634.269531 C -351.574219 823.984375 -197.777344 977.777344 -8.066406 977.777344 C 181.652344 977.777344 335.441406 823.984375 335.441406 634.269531 "/>
<path style=" stroke:none;fill-rule:nonzero;fill:rgb(0%,56.834412%,55.271912%);fill-opacity:1;" d="M -8.066406 1435.789063 C -450.730469 1435.789063 -809.585938 1076.9375 -809.585938 634.269531 L -580.652344 634.269531 C -580.652344 950.503906 -324.296875 1206.863281 -8.066406 1206.863281 C 308.167969 1206.863281 564.523438 950.503906 564.523438 634.269531 L 793.453125 634.269531 C 793.453125 1076.9375 434.605469 1435.789063 -8.066406 1435.789063 "/>
<path style=" stroke:none;fill-rule:nonzero;fill:rgb(0%,56.834412%,55.271912%);fill-opacity:1;" d="M 564.523438 6223.710938 L 793.453125 6223.710938 L 793.453125 634.269531 L 564.523438 634.269531 Z M 564.523438 6223.710938 "/>
<path style=" stroke:none;fill-rule:nonzero;fill:rgb(0%,56.834412%,55.271912%);fill-opacity:1;" d="M 564.523438 634.273438 L 793.453125 634.273438 L 793.453125 -1307.019531 L 564.523438 -1307.019531 Z M 564.523438 634.273438 "/>
<path style=" stroke:none;fill-rule:nonzero;fill:rgb(0%,56.834412%,55.271912%);fill-opacity:1;" d="M -1252.960938 -1744.371094 L 547.410156 56 L 385.53125 217.878906 L -1414.839844 -1582.488281 Z M -1252.960938 -1744.371094 "/>
<path style=" stroke:none;fill-rule:nonzero;fill:rgb(0%,56.834412%,55.271912%);fill-opacity:1;" d="M 1993.679688 1209.796875 C 1948.960938 1254.511719 1876.460938 1254.511719 1831.75 1209.796875 C 1787.03125 1165.078125 1787.03125 1092.582031 1831.75 1047.863281 C 1876.460938 1003.148438 1948.960938 1003.148438 1993.679688 1047.863281 C 2038.390625 1092.582031 2038.390625 1165.078125 1993.679688 1209.796875 M 1669.820313 885.933594 C 1535.671875 1020.082031 1535.660156 1237.574219 1669.820313 1371.726563 C 1803.960938 1505.875 2021.460938 1505.875 2155.609375 1371.726563 C 2289.761719 1237.578125 2289.761719 1020.082031 2155.609375 885.933594 C 2021.460938 751.78125 1803.960938 751.785156 1669.820313 885.933594 "/>
<path style=" stroke:none;fill-rule:nonzero;fill:rgb(0%,56.834412%,55.271912%);fill-opacity:1;" d="M 2479.46875 562.070313 C 2792.480469 875.085938 2792.480469 1382.578125 2479.46875 1695.589844 L 2317.589844 1533.710938 C 2541.199219 1310.101563 2541.199219 947.558594 2317.589844 723.949219 C 2093.980469 500.339844 1731.441406 500.339844 1507.828125 723.949219 L 1345.949219 562.070313 C 1658.960938 249.058594 2166.460938 249.058594 2479.46875 562.070313 "/>
<path style=" stroke:none;fill-rule:nonzero;fill:rgb(0%,56.834412%,55.271912%);fill-opacity:1;" d="M 1507.828125 723.949219 L -412.933594 2644.710938 L -574.808594 2482.828125 L 1345.949219 562.070313 Z M 1507.828125 723.949219 "/>
<path style=" stroke:none;fill-rule:nonzero;fill:rgb(0%,56.834412%,55.271912%);fill-opacity:1;" d="M 1345.949219 1695.589844 C 1658.960938 2008.601563 2166.460938 2008.601563 2479.46875 1695.589844 L 2317.589844 1533.710938 C 2093.980469 1757.320313 1731.441406 1757.320313 1507.828125 1533.710938 C 1284.21875 1310.101563 1284.21875 947.558594 1507.828125 723.949219 L 1345.949219 562.070313 C 1032.941406 875.082031 1032.941406 1382.574219 1345.949219 1695.589844 "/>
<path style=" stroke:none;fill-rule:nonzero;fill:rgb(0%,56.834412%,55.271912%);fill-opacity:1;" d="M 1111.191406 1166.359375 L 1340.117188 1166.359375 L 1340.117188 -2695.03125 L 1111.191406 -2695.03125 Z M 1111.191406 1166.359375 "/>
</g>
</svg>
