<?xml version="1.0" encoding="UTF-8"?>
<svg xmlns="http://www.w3.org/2000/svg" xmlns:xlink="http://www.w3.org/1999/xlink" width="1920pt" height="1080pt" viewBox="0 0 1920 1080" version="1.1">
<g id="surface1">
<rect x="0" y="0" width="1920" height="1080" style="fill:rgb(0%,65.429688%,63.476563%);fill-opacity:1;stroke:none;"/>
<path style=" stroke:none;fill-rule:nonzero;fill:rgb(0%,77.34375%,65.039063%);fill-opacity:1;" d="M 408.824219 -333.671875 C 710.699219 -333.671875 955.417969 -88.960938 955.417969 212.917969 C 955.417969 514.792969 710.699219 759.511719 408.824219 759.511719 C 106.949219 759.511719 -137.765625 514.792969 -137.765625 212.917969 C -137.765625 -88.960938 106.949219 -333.671875 408.824219 -333.671875 M 408.824219 978.046875 C 831.394531 978.046875 1173.949219 635.488281 1173.949219 212.917969 C 1173.949219 -209.648438 831.394531 -552.210938 408.824219 -552.210938 C -13.742188 -552.210938 -356.304688 -209.648438 -356.304688 212.917969 C -356.304688 635.488281 -13.742188 978.046875 408.824219 978.046875 "/>
<path style=" stroke:none;fill-rule:nonzero;fill:rgb(0%,77.34375%,65.039063%);fill-opacity:1;" d="M 408.824219 103.613281 C 469.191406 103.613281 518.128906 152.554688 518.128906 212.917969 C 518.128906 273.285156 469.191406 322.222656 408.824219 322.222656 C 348.460938 322.222656 299.519531 273.285156 299.519531 212.917969 C 299.519531 152.554688 348.460938 103.613281 408.824219 103.613281 M 408.824219 540.832031 C 589.925781 540.828125 736.738281 394.019531 736.738281 212.917969 C 736.738281 31.820313 589.925781 -114.988281 408.824219 -114.988281 C 227.726563 -114.988281 80.914063 31.820313 80.914063 212.917969 C 80.914063 394.019531 227.726563 540.832031 408.824219 540.832031 "/>
<path style=" stroke:none;fill-rule:nonzero;fill:rgb(0%,55.664063%,54.101563%);fill-opacity:1;" d="M 948.765625 386.171875 C 1331.960938 386.171875 1642.601563 696.808594 1642.601563 1080 C 1642.601563 1463.191406 1331.960938 1773.828125 948.769531 1773.828125 C 565.574219 1773.828125 254.9375 1463.191406 254.9375 1080 C 254.9375 696.808594 565.574219 386.171875 948.765625 386.171875 M 948.769531 2051.230469 C 1485.160156 2051.230469 1920 1616.398438 1920 1080 C 1920 543.601563 1485.160156 108.765625 948.765625 108.765625 C 412.371094 108.765625 -22.464844 543.605469 -22.464844 1080 C -22.464844 1616.398438 412.371094 2051.230469 948.769531 2051.230469 "/>
<path style=" stroke:none;fill-rule:nonzero;fill:rgb(0%,55.664063%,54.101563%);fill-opacity:1;" d="M 948.769531 941.253906 C 1025.398438 941.253906 1087.511719 1003.371094 1087.511719 1080 C 1087.511719 1156.628906 1025.398438 1218.746094 948.769531 1218.746094 C 872.140625 1218.746094 810.019531 1156.628906 810.019531 1080 C 810.019531 1003.371094 872.140625 941.253906 948.769531 941.253906 M 948.769531 1496.242188 C 1178.648438 1496.242188 1365.011719 1309.886719 1365.011719 1080 C 1365.011719 850.117188 1178.648438 663.757813 948.769531 663.757813 C 718.882813 663.757813 532.523438 850.117188 532.523438 1080 C 532.523438 1309.886719 718.882813 1496.242188 948.769531 1496.242188 "/>
<path style=" stroke:none;fill-rule:nonzero;fill:rgb(0%,77.34375%,65.039063%);fill-opacity:1;" d="M 1738.261719 -160.039063 C 1977.851563 -160.039063 2172.070313 34.179688 2172.070313 273.769531 C 2172.070313 513.355469 1977.851563 707.578125 1738.261719 707.578125 C 1498.679688 707.578125 1304.449219 513.355469 1304.449219 273.769531 C 1304.449219 34.179688 1498.679688 -160.039063 1738.261719 -160.039063 M 1738.261719 881.019531 C 2073.640625 881.019531 2345.511719 609.144531 2345.511719 273.769531 C 2345.511719 -61.609375 2073.640625 -333.480469 1738.261719 -333.480469 C 1402.890625 -333.480469 1131.011719 -61.609375 1131.011719 273.769531 C 1131.011719 609.144531 1402.890625 881.019531 1738.261719 881.019531 "/>
<path style=" stroke:none;fill-rule:nonzero;fill:rgb(0%,77.34375%,65.039063%);fill-opacity:1;" d="M 1738.261719 187.019531 C 1786.171875 187.019531 1825.011719 225.859375 1825.011719 273.769531 C 1825.011719 321.679688 1786.171875 360.519531 1738.261719 360.519531 C 1690.351563 360.519531 1651.511719 321.679688 1651.511719 273.769531 C 1651.511719 225.859375 1690.351563 187.019531 1738.261719 187.019531 M 1738.261719 534.019531 C 1881.988281 534.019531 1998.511719 417.5 1998.511719 273.769531 C 1998.511719 130.035156 1881.988281 13.519531 1738.261719 13.519531 C 1594.53125 13.519531 1478.011719 130.035156 1478.011719 273.769531 C 1478.011719 417.503906 1594.53125 534.019531 1738.261719 534.019531 "/>
</g>
</svg>
