<?xml version="1.0" encoding="UTF-8"?>
<svg xmlns="http://www.w3.org/2000/svg" xmlns:xlink="http://www.w3.org/1999/xlink" width="1920pt" height="1080pt" viewBox="0 0 1920 1080" version="1.1">
<g id="surface1">
<rect x="0" y="0" width="1920" height="1080" style="fill:rgb(100%,19.213867%,23.143005%);fill-opacity:1;stroke:none;"/>
<path style=" stroke:none;fill-rule:nonzero;fill:rgb(100%,35.693359%,0%);fill-opacity:1;" d="M 1612.78125 544.410156 C 1612.78125 423.574219 1514.828125 325.617188 1393.988281 325.617188 L 1393.988281 388.109375 C 1480.308594 388.109375 1550.289063 458.085938 1550.289063 544.410156 C 1550.289063 630.730469 1480.308594 700.710938 1393.988281 700.710938 L 1393.988281 763.199219 C 1514.828125 763.199219 1612.78125 665.246094 1612.78125 544.410156 "/>
<path style=" stroke:none;fill-rule:nonzero;fill:rgb(100%,35.693359%,0%);fill-opacity:1;" d="M 1393.988281 513.152344 C 1411.25 513.152344 1425.25 527.144531 1425.25 544.410156 C 1425.25 561.671875 1411.25 575.664063 1393.988281 575.664063 C 1376.730469 575.664063 1362.730469 561.671875 1362.730469 544.410156 C 1362.730469 527.144531 1376.730469 513.152344 1393.988281 513.152344 M 1393.988281 638.175781 C 1445.78125 638.175781 1487.761719 596.195313 1487.761719 544.410156 C 1487.761719 492.621094 1445.78125 450.640625 1393.988281 450.640625 C 1342.199219 450.640625 1300.21875 492.621094 1300.21875 544.410156 C 1300.21875 596.195313 1342.199219 638.175781 1393.988281 638.175781 "/>
<path style=" stroke:none;fill-rule:nonzero;fill:rgb(100%,35.693359%,0%);fill-opacity:1;" d="M 1175.199219 544.410156 C 1175.199219 423.574219 1273.148438 325.617188 1393.988281 325.617188 L 1393.988281 388.109375 C 1307.671875 388.109375 1237.691406 458.085938 1237.691406 544.410156 C 1237.691406 630.730469 1307.671875 700.710938 1393.988281 700.710938 L 1393.988281 763.199219 C 1273.148438 763.199219 1175.199219 665.246094 1175.199219 544.410156 "/>
<path style=" stroke:none;fill-rule:nonzero;fill:rgb(100%,35.693359%,0%);fill-opacity:1;" d="M -131.769531 763.199219 L 1393.992188 763.199219 L 1393.992188 700.710938 L -131.769531 700.710938 Z M -131.769531 763.199219 "/>
<path style=" stroke:none;fill-rule:nonzero;fill:rgb(100%,35.693359%,0%);fill-opacity:1;" d="M -131.769531 388.128906 L 1393.992188 388.128906 L 1393.992188 325.636719 L -131.769531 325.636719 Z M -131.769531 388.128906 "/>
<path style=" stroke:none;fill-rule:nonzero;fill:rgb(100%,35.693359%,0%);fill-opacity:1;" d="M 1955.171875 544.410156 C 1955.171875 561.671875 1941.171875 575.664063 1923.910156 575.664063 C 1906.648438 575.664063 1892.648438 561.671875 1892.648438 544.410156 C 1892.648438 527.148438 1906.648438 513.152344 1923.910156 513.152344 C 1941.171875 513.152344 1955.171875 527.148438 1955.171875 544.410156 M 2017.679688 544.410156 C 2017.679688 492.621094 1975.699219 450.640625 1923.910156 450.640625 C 1872.121094 450.640625 1830.140625 492.621094 1830.140625 544.410156 C 1830.140625 596.195313 1872.121094 638.175781 1923.910156 638.175781 C 1975.699219 638.175781 2017.679688 596.195313 2017.679688 544.410156 "/>
<path style=" stroke:none;fill-rule:nonzero;fill:rgb(100%,35.693359%,0%);fill-opacity:1;" d="M 2078.621094 389.699219 C 1993.179688 304.257813 1854.640625 304.253906 1769.199219 389.699219 L 1813.390625 433.886719 C 1874.429688 372.847656 1973.390625 372.847656 2034.429688 433.886719 C 2095.46875 494.925781 2095.46875 593.890625 2034.429688 654.929688 L 2078.621094 699.117188 C 2164.058594 613.675781 2164.058594 475.144531 2078.621094 389.699219 "/>
<path style=" stroke:none;fill-rule:nonzero;fill:rgb(100%,35.693359%,0%);fill-opacity:1;" d="M 1393.988281 763.199219 L 1923.910156 763.199219 L 1923.910156 700.710938 L 1393.988281 700.710938 Z M 1393.988281 763.199219 "/>
<path style=" stroke:none;fill-rule:nonzero;fill:rgb(100%,35.693359%,0%);fill-opacity:1;" d="M 1393.988281 388.128906 L 1923.910156 388.128906 L 1923.910156 325.636719 L 1393.988281 325.636719 Z M 1393.988281 388.128906 "/>
<path style=" stroke:none;fill-rule:nonzero;fill:rgb(100%,35.693359%,0%);fill-opacity:1;" d="M 1769.199219 699.117188 C 1683.761719 613.675781 1683.761719 475.144531 1769.199219 389.699219 L 1813.390625 433.886719 C 1752.351563 494.925781 1752.351563 593.890625 1813.390625 654.929688 C 1874.429688 715.96875 1973.390625 715.96875 2034.429688 654.929688 L 2078.621094 699.117188 C 1993.179688 784.5625 1854.640625 784.5625 1769.199219 699.117188 "/>
<path style=" stroke:none;fill-rule:nonzero;fill:rgb(100%,35.693359%,0%);fill-opacity:1;" d="M 734.714844 513.152344 C 751.976563 513.152344 765.96875 527.144531 765.96875 544.410156 C 765.96875 561.671875 751.976563 575.664063 734.714844 575.664063 C 717.453125 575.664063 703.457031 561.671875 703.457031 544.410156 C 703.457031 527.144531 717.453125 513.152344 734.714844 513.152344 M 734.714844 638.175781 C 786.5 638.175781 828.480469 596.195313 828.480469 544.410156 C 828.480469 492.621094 786.5 450.640625 734.714844 450.640625 C 682.929688 450.640625 640.945313 492.621094 640.945313 544.410156 C 640.945313 596.195313 682.929688 638.175781 734.714844 638.175781 "/>
<path style=" stroke:none;fill-rule:nonzero;fill:rgb(100%,35.693359%,0%);fill-opacity:1;" d="M 580.003906 699.117188 C 494.5625 613.675781 494.558594 475.144531 580.003906 389.699219 L 624.191406 433.886719 C 563.152344 494.925781 563.152344 593.890625 624.191406 654.929688 C 685.230469 715.96875 784.195313 715.96875 845.234375 654.929688 L 889.421875 699.117188 C 803.980469 784.5625 665.449219 784.5625 580.003906 699.117188 "/>
<path style=" stroke:none;fill-rule:nonzero;fill:rgb(100%,35.693359%,0%);fill-opacity:1;" d="M 889.421875 389.699219 C 803.980469 304.257813 665.449219 304.253906 580.003906 389.699219 L 624.191406 433.886719 C 685.230469 372.847656 784.195313 372.847656 845.234375 433.886719 C 906.273438 494.925781 906.273438 593.890625 845.234375 654.929688 L 889.421875 699.117188 C 974.867188 613.675781 974.867188 475.144531 889.421875 389.699219 "/>
<path style=" stroke:none;fill-rule:nonzero;fill:rgb(100%,35.693359%,0%);fill-opacity:1;" d="M 515.925781 1425.496094 L 578.417969 1425.496094 L 578.417969 49.417969 L 515.925781 49.417969 Z M 515.925781 1425.496094 "/>
<path style=" stroke:none;fill-rule:nonzero;fill:rgb(100%,35.693359%,0%);fill-opacity:1;" d="M 891 1425.496094 L 953.488281 1425.496094 L 953.488281 49.417969 L 891 49.417969 Z M 891 1425.496094 "/>
<path style=" stroke:none;fill-rule:nonzero;fill:rgb(100%,35.693359%,0%);fill-opacity:1;" d="M 140.839844 1467.570313 L 203.328125 1467.570313 L 203.328125 919.511719 L 140.839844 919.511719 Z M 140.839844 1467.570313 "/>
<path style=" stroke:none;fill-rule:nonzero;fill:rgb(100%,35.693359%,0%);fill-opacity:1;" d="M 515.910156 1467.570313 L 578.402344 1467.570313 L 578.402344 919.511719 L 515.910156 919.511719 Z M 515.910156 1467.570313 "/>
<path style=" stroke:none;fill-rule:nonzero;fill:rgb(100%,35.693359%,0%);fill-opacity:1;" d="M 1769.199219 1361.414063 C 1683.761719 1275.96875 1683.761719 1137.4375 1769.199219 1051.992188 L 1813.390625 1096.183594 C 1752.351563 1157.222656 1752.351563 1256.1875 1813.390625 1317.226563 C 1874.429688 1378.265625 1973.390625 1378.265625 2034.429688 1317.226563 L 2078.621094 1361.414063 C 1993.179688 1446.855469 1854.640625 1446.855469 1769.199219 1361.414063 "/>
<path style=" stroke:none;fill-rule:nonzero;fill:rgb(100%,35.693359%,0%);fill-opacity:1;" d="M 2078.621094 1051.996094 C 1993.171875 966.550781 1854.640625 966.550781 1769.199219 1051.996094 L 1813.390625 1096.183594 C 1874.429688 1035.144531 1973.390625 1035.144531 2034.429688 1096.183594 C 2095.46875 1157.222656 2095.46875 1256.1875 2034.429688 1317.226563 L 2078.621094 1361.414063 C 2164.058594 1275.96875 2164.058594 1137.4375 2078.621094 1051.996094 "/>
<path style=" stroke:none;fill-rule:nonzero;fill:rgb(100%,35.693359%,0%);fill-opacity:1;" d="M 1705.121094 1206.703125 L 1767.609375 1206.703125 L 1767.609375 544.410156 L 1705.121094 544.410156 Z M 1705.121094 1206.703125 "/>
<path style=" stroke:none;fill-rule:nonzero;fill:rgb(100%,35.693359%,0%);fill-opacity:1;" d="M 765.96875 49.421875 C 765.96875 66.679688 751.976563 80.675781 734.714844 80.675781 C 717.449219 80.675781 703.457031 66.679688 703.457031 49.421875 C 703.457031 32.160156 717.449219 18.160156 734.714844 18.160156 C 751.976563 18.160156 765.96875 32.160156 765.96875 49.421875 M 640.945313 49.421875 C 640.945313 101.207031 682.925781 143.1875 734.714844 143.1875 C 786.5 143.1875 828.480469 101.207031 828.480469 49.421875 C 828.480469 -2.371094 786.5 -44.351563 734.714844 -44.351563 C 682.925781 -44.351563 640.945313 -2.371094 640.945313 49.421875 "/>
<path style=" stroke:none;fill-rule:nonzero;fill:rgb(100%,35.693359%,0%);fill-opacity:1;" d="M 734.714844 -169.371094 C 855.550781 -169.371094 953.507813 -71.421875 953.507813 49.421875 L 891.015625 49.421875 C 891.015625 -36.898438 821.035156 -106.878906 734.714844 -106.878906 C 648.390625 -106.878906 578.414063 -36.898438 578.414063 49.421875 L 515.921875 49.421875 C 515.921875 -71.421875 613.878906 -169.371094 734.714844 -169.371094 "/>
<path style=" stroke:none;fill-rule:nonzero;fill:rgb(100%,35.693359%,0%);fill-opacity:1;" d="M 734.714844 268.210938 C 855.550781 268.210938 953.507813 170.257813 953.507813 49.421875 L 891.015625 49.421875 C 891.015625 135.742188 821.035156 205.722656 734.714844 205.722656 C 648.390625 205.722656 578.414063 135.742188 578.414063 49.421875 L 515.921875 49.421875 C 515.921875 170.257813 613.878906 268.210938 734.714844 268.210938 "/>
<path style=" stroke:none;fill-rule:nonzero;fill:rgb(100%,35.693359%,0%);fill-opacity:1;" d="M 1389.398438 49.421875 C 1389.398438 66.679688 1375.398438 80.675781 1358.140625 80.675781 C 1340.878906 80.675781 1326.890625 66.679688 1326.890625 49.421875 C 1326.890625 32.160156 1340.878906 18.160156 1358.140625 18.160156 C 1375.398438 18.160156 1389.398438 32.160156 1389.398438 49.421875 M 1264.371094 49.421875 C 1264.371094 101.207031 1306.351563 143.1875 1358.140625 143.1875 C 1409.929688 143.1875 1451.910156 101.207031 1451.910156 49.421875 C 1451.910156 -2.371094 1409.929688 -44.351563 1358.140625 -44.351563 C 1306.351563 -44.351563 1264.371094 -2.371094 1264.371094 49.421875 "/>
<path style=" stroke:none;fill-rule:nonzero;fill:rgb(100%,35.693359%,0%);fill-opacity:1;" d="M 1358.140625 -169.371094 C 1478.980469 -169.371094 1576.929688 -71.421875 1576.929688 49.421875 L 1514.441406 49.421875 C 1514.441406 -36.898438 1444.460938 -106.878906 1358.140625 -106.878906 C 1271.820313 -106.878906 1201.839844 -36.898438 1201.839844 49.421875 L 1139.351563 49.421875 C 1139.351563 -71.421875 1237.308594 -169.371094 1358.140625 -169.371094 "/>
<path style=" stroke:none;fill-rule:nonzero;fill:rgb(100%,35.693359%,0%);fill-opacity:1;" d="M 1358.140625 268.210938 C 1478.980469 268.210938 1576.929688 170.257813 1576.929688 49.421875 L 1514.441406 49.421875 C 1514.441406 135.742188 1444.460938 205.722656 1358.140625 205.722656 C 1271.820313 205.722656 1201.839844 135.742188 1201.839844 49.421875 L 1139.351563 49.421875 C 1139.351563 170.257813 1237.308594 268.210938 1358.140625 268.210938 "/>
<path style=" stroke:none;fill-rule:nonzero;fill:rgb(100%,35.693359%,0%);fill-opacity:1;" d="M 381.722656 71.519531 C 369.515625 83.726563 349.726563 83.726563 337.519531 71.519531 C 325.3125 59.308594 325.3125 39.519531 337.519531 27.320313 C 349.726563 15.109375 369.515625 15.109375 381.722656 27.320313 C 393.929688 39.519531 393.929688 59.308594 381.722656 71.519531 M 293.316406 -16.878906 C 256.699219 19.738281 256.699219 79.101563 293.316406 115.722656 C 329.9375 152.34375 389.304688 152.34375 425.925781 115.722656 C 462.542969 79.109375 462.542969 19.738281 425.925781 -16.878906 C 389.304688 -53.5 329.9375 -53.5 293.316406 -16.878906 "/>
<path style=" stroke:none;fill-rule:nonzero;fill:rgb(100%,35.693359%,0%);fill-opacity:1;" d="M 514.328125 -105.289063 C 599.773438 -19.851563 599.773438 118.6875 514.328125 204.128906 L 470.140625 159.941406 C 531.179688 98.902344 531.179688 -0.0585938 470.140625 -61.101563 C 409.101563 -122.140625 310.140625 -122.140625 249.101563 -61.101563 L 204.910156 -105.289063 C 290.355469 -190.730469 428.886719 -190.730469 514.328125 -105.289063 "/>
<path style=" stroke:none;fill-rule:nonzero;fill:rgb(100%,35.693359%,0%);fill-opacity:1;" d="M 204.910156 204.128906 C 290.355469 289.570313 428.886719 289.574219 514.328125 204.128906 L 470.140625 159.941406 C 409.101563 220.980469 310.140625 220.980469 249.101563 159.941406 C 188.0625 98.902344 188.0625 -0.0585938 249.101563 -61.101563 L 204.910156 -105.289063 C 119.46875 -19.851563 119.46875 118.683594 204.910156 204.128906 "/>
<path style=" stroke:none;fill-rule:nonzero;fill:rgb(100%,35.693359%,0%);fill-opacity:1;" d="M 1910.699219 71.988281 C 1898.488281 84.199219 1878.699219 84.199219 1866.5 71.988281 C 1854.289063 59.789063 1854.289063 40 1866.5 27.789063 C 1878.699219 15.589844 1898.488281 15.578125 1910.699219 27.789063 C 1922.910156 40 1922.910156 59.789063 1910.699219 71.988281 M 1822.289063 -16.410156 C 1785.679688 20.210938 1785.679688 79.578125 1822.289063 116.195313 C 1858.910156 152.8125 1918.28125 152.816406 1954.898438 116.195313 C 1991.519531 79.578125 1991.519531 20.210938 1954.898438 -16.410156 C 1918.28125 -53.03125 1858.910156 -53.03125 1822.289063 -16.410156 "/>
<path style=" stroke:none;fill-rule:nonzero;fill:rgb(100%,35.693359%,0%);fill-opacity:1;" d="M 2043.308594 -104.820313 C 2128.75 -19.371094 2128.75 119.15625 2043.308594 204.601563 L 1999.121094 160.414063 C 2060.160156 99.375 2060.160156 0.410156 1999.121094 -60.628906 C 1938.078125 -121.671875 1839.121094 -121.671875 1778.078125 -60.628906 L 1733.890625 -104.820313 C 1819.328125 -190.261719 1957.859375 -190.261719 2043.308594 -104.820313 "/>
<path style=" stroke:none;fill-rule:nonzero;fill:rgb(100%,35.693359%,0%);fill-opacity:1;" d="M 1778.078125 -60.628906 L 1286.628906 430.820313 L 1242.441406 386.632813 L 1733.890625 -104.820313 Z M 1778.078125 -60.628906 "/>
<path style=" stroke:none;fill-rule:nonzero;fill:rgb(100%,35.693359%,0%);fill-opacity:1;" d="M 2043.289063 204.585938 L 1551.839844 696.035156 L 1507.648438 651.851563 L 1999.109375 160.398438 Z M 2043.289063 204.585938 "/>
<path style=" stroke:none;fill-rule:nonzero;fill:rgb(100%,35.693359%,0%);fill-opacity:1;" d="M 1733.890625 204.601563 C 1819.328125 290.042969 1957.859375 290.046875 2043.308594 204.601563 L 1999.121094 160.414063 C 1938.078125 221.453125 1839.121094 221.453125 1778.078125 160.414063 C 1717.039063 99.375 1717.039063 0.410156 1778.078125 -60.628906 L 1733.890625 -104.820313 C 1648.441406 -19.371094 1648.441406 119.15625 1733.890625 204.601563 "/>
<path style=" stroke:none;fill-rule:nonzero;fill:rgb(100%,35.693359%,0%);fill-opacity:1;" d="M 2304.859375 -57.550781 L 1813.410156 433.902344 L 1769.21875 389.714844 L 2260.671875 -101.738281 Z M 2304.859375 -57.550781 "/>
<path style=" stroke:none;fill-rule:nonzero;fill:rgb(100%,35.693359%,0%);fill-opacity:1;" d="M -158.828125 268.210938 L 2355.382813 268.210938 L 2355.382813 205.722656 L -158.828125 205.722656 Z M -158.828125 268.210938 "/>
<path style=" stroke:none;fill-rule:nonzero;fill:rgb(100%,35.693359%,0%);fill-opacity:1;" d="M -290.304688 699.398438 C -375.746094 613.953125 -375.746094 475.421875 -290.304688 389.976563 L -246.113281 434.167969 C -307.152344 495.207031 -307.152344 594.171875 -246.113281 655.210938 C -185.074219 716.246094 -86.113281 716.246094 -25.074219 655.210938 L 19.117188 699.398438 C -66.328125 784.839844 -204.859375 784.839844 -290.304688 699.398438 "/>
<path style=" stroke:none;fill-rule:nonzero;fill:rgb(100%,35.693359%,0%);fill-opacity:1;" d="M -25.074219 655.210938 L 470.203125 159.933594 L 514.390625 204.121094 L 19.113281 699.398438 Z M -25.074219 655.210938 "/>
<path style=" stroke:none;fill-rule:nonzero;fill:rgb(100%,35.693359%,0%);fill-opacity:1;" d="M -290.289063 389.992188 L 204.988281 -105.28125 L 249.175781 -61.089844 L -246.101563 434.179688 Z M -290.289063 389.992188 "/>
<path style=" stroke:none;fill-rule:nonzero;fill:rgb(100%,35.693359%,0%);fill-opacity:1;" d="M 19.113281 389.980469 C -66.328125 304.535156 -204.859375 304.535156 -290.304688 389.980469 L -246.113281 434.167969 C -185.074219 373.128906 -86.113281 373.128906 -25.074219 434.167969 C 35.964844 495.207031 35.964844 594.171875 -25.074219 655.210938 L 19.113281 699.398438 C 104.558594 613.953125 104.558594 475.421875 19.113281 389.980469 "/>
<path style=" stroke:none;fill-rule:nonzero;fill:rgb(100%,35.693359%,0%);fill-opacity:1;" d="M 1236.890625 1090.828125 C 1224.679688 1078.621094 1224.679688 1058.832031 1236.890625 1046.625 C 1249.101563 1034.417969 1268.890625 1034.417969 1281.089844 1046.625 C 1293.300781 1058.832031 1293.300781 1078.621094 1281.089844 1090.828125 C 1268.890625 1103.035156 1249.101563 1103.035156 1236.890625 1090.828125 M 1325.289063 1002.421875 C 1288.679688 965.804688 1229.308594 965.804688 1192.691406 1002.421875 C 1156.070313 1039.042969 1156.070313 1098.410156 1192.691406 1135.03125 C 1229.308594 1171.648438 1288.679688 1171.648438 1325.289063 1135.03125 C 1361.910156 1098.410156 1361.910156 1039.042969 1325.289063 1002.421875 "/>
<path style=" stroke:none;fill-rule:nonzero;fill:rgb(100%,35.693359%,0%);fill-opacity:1;" d="M 1413.699219 1223.4375 C 1328.261719 1308.878906 1189.71875 1308.878906 1104.28125 1223.4375 L 1148.46875 1179.246094 C 1209.511719 1240.285156 1308.46875 1240.285156 1369.511719 1179.246094 C 1430.550781 1118.210938 1430.550781 1019.246094 1369.511719 958.207031 L 1413.699219 914.015625 C 1499.140625 999.460938 1499.140625 1137.992188 1413.699219 1223.4375 "/>
<path style=" stroke:none;fill-rule:nonzero;fill:rgb(100%,35.693359%,0%);fill-opacity:1;" d="M 1369.511719 958.203125 L 845.195313 433.890625 L 889.386719 389.703125 L 1413.699219 914.019531 Z M 1369.511719 958.203125 "/>
<path style=" stroke:none;fill-rule:nonzero;fill:rgb(100%,35.693359%,0%);fill-opacity:1;" d="M 1104.300781 1223.421875 L 579.980469 699.105469 L 624.171875 654.921875 L 1148.480469 1179.234375 Z M 1104.300781 1223.421875 "/>
<path style=" stroke:none;fill-rule:nonzero;fill:rgb(100%,35.693359%,0%);fill-opacity:1;" d="M 1104.28125 914.019531 C 1018.839844 999.460938 1018.839844 1137.992188 1104.28125 1223.4375 L 1148.46875 1179.246094 C 1087.429688 1118.207031 1087.429688 1019.246094 1148.46875 958.207031 C 1209.511719 897.167969 1308.46875 897.167969 1369.511719 958.207031 L 1413.699219 914.019531 C 1328.261719 828.574219 1189.730469 828.574219 1104.28125 914.019531 "/>
<path style=" stroke:none;fill-rule:nonzero;fill:rgb(100%,35.693359%,0%);fill-opacity:1;" d="M 1248.75 912.425781 L 2302.800781 912.425781 L 2302.800781 849.933594 L 1248.75 849.933594 Z M 1248.75 912.425781 "/>
<path style=" stroke:none;fill-rule:nonzero;fill:rgb(100%,35.693359%,0%);fill-opacity:1;" d="M 249.109375 808.988281 L 624.207031 433.890625 L 580.019531 389.703125 L 204.921875 764.800781 Z M 249.109375 808.988281 "/>
<path style=" stroke:none;fill-rule:nonzero;fill:rgb(100%,35.693359%,0%);fill-opacity:1;" d="M 514.324219 1074.207031 L 889.421875 699.109375 L 845.234375 654.921875 L 470.136719 1030.019531 Z M 514.324219 1074.207031 "/>
<path style=" stroke:none;fill-rule:nonzero;fill:rgb(100%,35.693359%,0%);fill-opacity:1;" d="M 328.375 919.511719 C 328.375 902.25 342.367188 888.253906 359.628906 888.253906 C 376.890625 888.253906 390.886719 902.25 390.886719 919.511719 C 390.886719 936.773438 376.890625 950.765625 359.628906 950.765625 C 342.367188 950.765625 328.375 936.773438 328.375 919.511719 M 265.863281 919.511719 C 265.863281 971.296875 307.84375 1013.277344 359.628906 1013.277344 C 411.414063 1013.277344 453.398438 971.296875 453.398438 919.511719 C 453.398438 867.722656 411.414063 825.742188 359.628906 825.742188 C 307.84375 825.742188 265.863281 867.722656 265.863281 919.511719 "/>
<path style=" stroke:none;fill-rule:nonzero;fill:rgb(100%,35.693359%,0%);fill-opacity:1;" d="M 140.839844 919.511719 C 140.839844 1040.347656 238.792969 1138.304688 359.628906 1138.304688 L 359.628906 1075.8125 C 273.308594 1075.8125 203.328125 1005.835938 203.328125 919.511719 C 203.328125 833.1875 273.308594 763.210938 359.628906 763.210938 L 359.628906 700.71875 C 238.792969 700.71875 140.839844 798.675781 140.839844 919.511719 "/>
<path style=" stroke:none;fill-rule:nonzero;fill:rgb(100%,35.693359%,0%);fill-opacity:1;" d="M 578.421875 919.511719 C 578.421875 1040.347656 480.464844 1138.304688 359.628906 1138.304688 L 359.628906 1075.8125 C 445.953125 1075.8125 515.929688 1005.835938 515.929688 919.511719 C 515.929688 833.1875 445.953125 763.210938 359.628906 763.210938 L 359.628906 700.71875 C 480.464844 700.71875 578.421875 798.675781 578.421875 919.511719 "/>
<path style=" stroke:none;fill-rule:nonzero;fill:rgb(100%,35.693359%,0%);fill-opacity:1;" d="M -214.546875 1714.617188 L 470.101563 1029.96875 L 514.289063 1074.15625 L -170.355469 1758.804688 Z M -214.546875 1714.617188 "/>
<path style=" stroke:none;fill-rule:nonzero;fill:rgb(100%,35.693359%,0%);fill-opacity:1;" d="M -479.761719 1449.402344 L 204.886719 764.753906 L 249.074219 808.941406 L -435.574219 1493.589844 Z M -479.761719 1449.402344 "/>
<path style=" stroke:none;fill-rule:nonzero;fill:rgb(100%,35.693359%,0%);fill-opacity:1;" d="M -694.421875 763.210938 L 359.628906 763.210938 L 359.628906 700.71875 L -694.421875 700.71875 Z M -694.421875 763.210938 "/>
<path style=" stroke:none;fill-rule:nonzero;fill:rgb(100%,35.693359%,0%);fill-opacity:1;" d="M -694.421875 1138.28125 L 359.628906 1138.28125 L 359.628906 1075.789063 L -694.421875 1075.789063 Z M -694.421875 1138.28125 "/>
</g>
</svg>
