<?xml version="1.0" encoding="UTF-8"?>
<svg xmlns="http://www.w3.org/2000/svg" xmlns:xlink="http://www.w3.org/1999/xlink" width="1920pt" height="1080pt" viewBox="0 0 1920 1080" version="1.1">
<g id="surface1">
<rect x="0" y="0" width="1920" height="1080" style="fill:rgb(0%,68.164063%,100%);fill-opacity:1;stroke:none;"/>
<path style=" stroke:none;fill-rule:nonzero;fill:rgb(0%,80.859375%,100%);fill-opacity:1;" d="M 1920 -243.570313 C 2352.75 -243.570313 2703.570313 107.246094 2703.570313 540 C 2703.570313 972.753906 2352.75 1323.570313 1920 1323.570313 C 1487.25 1323.570313 1136.429688 972.753906 1136.429688 540 C 1136.429688 107.246094 1487.25 -243.570313 1920 -243.570313 M 1920 1636.855469 C 2525.78125 1636.855469 3016.851563 1145.777344 3016.851563 540 C 3016.851563 -65.769531 2525.78125 -556.851563 1920 -556.851563 C 1314.230469 -556.851563 823.144531 -65.769531 823.144531 540 C 823.144531 1145.777344 1314.230469 1636.855469 1920 1636.855469 "/>
<path style=" stroke:none;fill-rule:nonzero;fill:rgb(0%,80.859375%,100%);fill-opacity:1;" d="M 1920 383.308594 C 2006.539063 383.308594 2076.691406 453.460938 2076.691406 540 C 2076.691406 626.539063 2006.539063 696.691406 1920 696.691406 C 1833.460938 696.691406 1763.308594 626.539063 1763.308594 540 C 1763.308594 453.460938 1833.460938 383.308594 1920 383.308594 M 1920 1010.082031 C 2179.621094 1010.082031 2390.078125 799.617188 2390.078125 540 C 2390.078125 280.382813 2179.621094 69.921875 1920 69.921875 C 1660.378906 69.921875 1449.921875 280.382813 1449.921875 540 C 1449.921875 799.617188 1660.378906 1010.082031 1920 1010.082031 "/>
<path style=" stroke:none;fill-rule:nonzero;fill:rgb(0%,58.396912%,100%);fill-opacity:1;" d="M 615.144531 29.601563 C 897.03125 29.601563 1125.539063 258.113281 1125.539063 540 C 1125.539063 821.886719 897.03125 1050.402344 615.144531 1050.402344 C 333.257813 1050.402344 104.746094 821.886719 104.746094 540 C 104.746094 258.113281 333.257813 29.601563 615.144531 29.601563 M 615.144531 1254.464844 C 1009.730469 1254.464844 1329.609375 934.589844 1329.609375 540 C 1329.609375 145.414063 1009.730469 -174.460938 615.144531 -174.460938 C 220.554688 -174.460938 -99.320313 145.414063 -99.320313 540 C -99.320313 934.589844 220.554688 1254.464844 615.144531 1254.464844 "/>
<path style=" stroke:none;fill-rule:nonzero;fill:rgb(0%,58.396912%,100%);fill-opacity:1;" d="M 615.144531 437.933594 C 671.515625 437.933594 717.210938 483.632813 717.210938 540 C 717.210938 596.371094 671.515625 642.066406 615.144531 642.066406 C 558.773438 642.066406 513.078125 596.371094 513.078125 540 C 513.078125 483.632813 558.773438 437.933594 615.144531 437.933594 M 615.144531 846.199219 C 784.253906 846.199219 921.34375 709.109375 921.34375 540 C 921.34375 370.890625 784.253906 233.800781 615.144531 233.800781 C 446.035156 233.800781 308.945313 370.890625 308.945313 540 C 308.945313 709.109375 446.035156 846.199219 615.144531 846.199219 "/>
<path style=" stroke:none;fill-rule:nonzero;fill:rgb(13.330078%,42.747498%,85.9375%);fill-opacity:1;" d="M 1380 295.203125 C 1515.199219 295.203125 1624.800781 404.800781 1624.800781 540 C 1624.800781 675.199219 1515.199219 784.800781 1380 784.800781 C 1244.800781 784.800781 1135.199219 675.199219 1135.199219 540 C 1135.199219 404.800781 1244.800781 295.203125 1380 295.203125 M 1380 882.671875 C 1569.25 882.671875 1722.671875 729.253906 1722.671875 540 C 1722.671875 350.746094 1569.25 197.328125 1380 197.328125 C 1190.75 197.328125 1037.328125 350.746094 1037.328125 540 C 1037.328125 729.253906 1190.75 882.671875 1380 882.671875 "/>
<path style=" stroke:none;fill-rule:nonzero;fill:rgb(13.330078%,42.747498%,85.9375%);fill-opacity:1;" d="M 1380 491.046875 C 1407.039063 491.046875 1428.949219 512.964844 1428.949219 540 C 1428.949219 567.035156 1407.039063 588.953125 1380 588.953125 C 1352.960938 588.953125 1331.050781 567.035156 1331.050781 540 C 1331.050781 512.964844 1352.960938 491.046875 1380 491.046875 M 1380 686.859375 C 1461.109375 686.859375 1526.859375 621.109375 1526.859375 540 C 1526.859375 458.890625 1461.109375 393.140625 1380 393.140625 C 1298.890625 393.140625 1233.140625 458.890625 1233.140625 540 C 1233.140625 621.109375 1298.890625 686.859375 1380 686.859375 "/>
</g>
</svg>
