<?xml version="1.0" encoding="UTF-8"?>
<svg xmlns="http://www.w3.org/2000/svg" xmlns:xlink="http://www.w3.org/1999/xlink" width="1920pt" height="1080pt" viewBox="0 0 1920 1080" version="1.1">
<g id="surface1">
<rect x="0" y="0" width="1920" height="1080" style="fill:rgb(100%,19.213867%,23.143005%);fill-opacity:1;stroke:none;"/>
<path style=" stroke:none;fill-rule:nonzero;fill:rgb(88.671875%,10.205078%,13.330078%);fill-opacity:1;" d="M 960 1086.59375 C 658.125 1086.59375 413.40625 841.875 413.40625 540 C 413.40625 238.125 658.125 -6.589844 960 -6.589844 C 1261.871094 -6.589844 1506.589844 238.125 1506.589844 540 C 1506.589844 841.875 1261.878906 1086.59375 960 1086.59375 M 960 -225.128906 C 537.429688 -225.128906 194.871094 117.429688 194.871094 540 C 194.871094 962.566406 537.433594 1305.128906 960 1305.128906 C 1382.570313 1305.128906 1725.128906 962.566406 1725.128906 540 C 1725.128906 117.429688 1382.570313 -225.128906 960 -225.128906 "/>
<path style=" stroke:none;fill-rule:nonzero;fill:rgb(88.671875%,10.205078%,13.330078%);fill-opacity:1;" d="M 960 649.304688 C 899.632813 649.304688 850.695313 600.367188 850.695313 540 C 850.695313 479.632813 899.632813 430.695313 960 430.695313 C 1020.371094 430.695313 1069.300781 479.632813 1069.300781 540 C 1069.300781 600.367188 1020.371094 649.304688 960 649.304688 M 960 212.085938 C 778.898438 212.089844 632.089844 358.898438 632.089844 540 C 632.089844 721.101563 778.898438 867.910156 960 867.910156 C 1141.101563 867.910156 1287.910156 721.101563 1287.910156 540 C 1287.910156 358.898438 1141.101563 212.085938 960 212.085938 "/>
<path style=" stroke:none;fill-rule:nonzero;fill:rgb(100%,35.693359%,0%);fill-opacity:1;" d="M 1920 682.195313 C 1543.230469 682.195313 1237.800781 376.765625 1237.800781 0 C 1237.800781 -376.769531 1543.230469 -682.199219 1920 -682.199219 C 2296.769531 -682.199219 2602.199219 -376.769531 2602.199219 0 C 2602.199219 376.765625 2296.769531 682.195313 1920 682.195313 M 1920 -954.949219 C 1392.601563 -954.949219 965.050781 -527.398438 965.050781 0 C 965.050781 527.402344 1392.601563 954.949219 1920 954.949219 C 2447.398438 954.949219 2874.949219 527.402344 2874.949219 0 C 2874.949219 -527.398438 2447.398438 -954.949219 1920 -954.949219 "/>
<path style=" stroke:none;fill-rule:nonzero;fill:rgb(100%,35.693359%,0%);fill-opacity:1;" d="M 1920 136.421875 C 1844.660156 136.421875 1783.578125 75.339844 1783.578125 0 C 1783.578125 -75.339844 1844.660156 -136.421875 1920 -136.421875 C 1995.339844 -136.421875 2056.421875 -75.339844 2056.421875 0 C 2056.421875 75.339844 1995.339844 136.421875 1920 136.421875 M 1920 -409.261719 C 1693.96875 -409.261719 1510.738281 -226.03125 1510.738281 0 C 1510.738281 226.027344 1693.96875 409.261719 1920 409.261719 C 2146.03125 409.261719 2329.261719 226.027344 2329.261719 0 C 2329.261719 -226.03125 2146.03125 -409.261719 1920 -409.261719 "/>
<path style=" stroke:none;fill-rule:nonzero;fill:rgb(100%,35.693359%,0%);fill-opacity:1;" d="M 376.042969 1174.359375 C 158.425781 1174.359375 -17.992188 997.945313 -17.992188 780.324219 C -17.992188 562.703125 158.425781 386.289063 376.042969 386.289063 C 593.664063 386.289063 770.078125 562.703125 770.078125 780.324219 C 770.078125 997.945313 593.664063 1174.359375 376.042969 1174.359375 M 376.042969 228.746094 C 71.417969 228.746094 -175.53125 475.695313 -175.53125 780.324219 C -175.53125 1084.949219 71.417969 1331.902344 376.042969 1331.902344 C 680.671875 1331.898438 927.621094 1084.949219 927.621094 780.324219 C 927.621094 475.695313 680.671875 228.746094 376.042969 228.746094 "/>
<path style=" stroke:none;fill-rule:nonzero;fill:rgb(100%,35.693359%,0%);fill-opacity:1;" d="M 376.042969 859.121094 C 332.527344 859.121094 297.246094 823.84375 297.246094 780.324219 C 297.246094 736.804688 332.527344 701.527344 376.042969 701.527344 C 419.5625 701.527344 454.839844 736.804688 454.839844 780.324219 C 454.839844 823.84375 419.5625 859.121094 376.042969 859.121094 M 376.042969 543.933594 C 245.488281 543.933594 139.652344 649.769531 139.652344 780.324219 C 139.652344 910.878906 245.488281 1016.714844 376.042969 1016.714844 C 506.597656 1016.714844 612.433594 910.878906 612.433594 780.324219 C 612.433594 649.769531 506.597656 543.933594 376.042969 543.933594 "/>
</g>
</svg>
