<?xml version="1.0" encoding="UTF-8"?>
<svg xmlns="http://www.w3.org/2000/svg" xmlns:xlink="http://www.w3.org/1999/xlink" width="1920pt" height="1080pt" viewBox="0 0 1920 1080" version="1.1">
<g id="surface1">
<rect x="0" y="0" width="1920" height="1080" style="fill:rgb(0%,58.396912%,100%);fill-opacity:1;stroke:none;"/>
<path style=" stroke:none;fill-rule:nonzero;fill:rgb(13.330078%,42.747498%,85.9375%);fill-opacity:1;" d="M -499.28125 1056.226563 C 263.472656 1056.226563 881.804688 437.890625 881.804688 -324.859375 L 881.804688 -324.871094 C 881.804688 -398.050781 876.09375 -469.898438 865.128906 -540 L 444.886719 -540 C 460.203125 -470.960938 468.34375 -399.210938 468.34375 -325.558594 L 468.34375 -325.550781 C 468.34375 218.960938 26.925781 660.371094 -517.589844 660.371094 L -881.804688 660.371094 L -881.804688 1056.226563 "/>
<path style=" stroke:none;fill-rule:nonzero;fill:rgb(13.330078%,42.747498%,85.9375%);fill-opacity:1;" d="M 2798.539063 -374.910156 C 1456.390625 -374.910156 368.363281 713.121094 368.363281 2055.269531 L 368.363281 2055.28125 C 368.363281 2184.058594 378.417969 2310.46875 397.714844 2433.828125 L 1137.179688 2433.828125 C 1110.230469 2312.339844 1095.898438 2186.101563 1095.898438 2056.5 L 1095.898438 2056.488281 C 1095.898438 1098.359375 1872.621094 321.640625 2830.75 321.636719 L 3471.628906 321.636719 L 3471.628906 -374.910156 "/>
<path style=" stroke:none;fill-rule:nonzero;fill:rgb(0%,58.396912%,100%);fill-opacity:1;" d="M 1520.621094 841.296875 C 1520.621094 549.511719 1757.148438 312.972656 2048.941406 312.972656 L 3195.550781 312.972656 C 3487.328125 312.972656 3723.871094 549.511719 3723.871094 841.296875 C 3723.871094 1133.082031 3487.328125 1369.617188 3195.550781 1369.617188 L 2048.941406 1369.617188 C 1757.148438 1369.617188 1520.621094 1133.082031 1520.621094 841.296875 Z M 2039.128906 1580.996094 L 3205.359375 1580.996094 C 3614.089844 1580.996094 3945.429688 1249.65625 3945.429688 840.925781 L 3945.429688 840.921875 C 3945.429688 432.191406 3614.089844 100.851563 3205.359375 100.851563 L 2039.128906 100.851563 C 1630.398438 100.851563 1299.058594 432.191406 1299.058594 840.921875 L 1299.058594 840.925781 C 1299.058594 1249.65625 1630.398438 1580.996094 2039.128906 1580.996094 "/>
<path style=" stroke:none;fill-rule:nonzero;fill:rgb(0%,80.859375%,100%);fill-opacity:1;" d="M 993.660156 2114.78125 L 2392.101563 2114.78125 L 2392.101563 1857.746094 L 1005.589844 1857.746094 C 650.78125 1857.746094 363.148438 1570.113281 363.148438 1215.304688 L 363.148438 1215.300781 C 363.148438 860.492188 650.78125 572.863281 1005.589844 572.863281 L 2392.101563 572.863281 L 2392.101563 314.921875 L 993.660156 314.921875 C 496.644531 314.921875 93.734375 717.835938 93.734375 1214.851563 L 93.734375 1214.855469 C 93.734375 1711.871094 496.644531 2114.78125 993.660156 2114.78125 "/>
</g>
</svg>
