<?xml version="1.0" encoding="UTF-8"?>
<svg xmlns="http://www.w3.org/2000/svg" xmlns:xlink="http://www.w3.org/1999/xlink" width="1920pt" height="1080pt" viewBox="0 0 1920 1080" version="1.1">
<g id="surface1">
<rect x="0" y="0" width="1920" height="1080" style="fill:rgb(47.459412%,0%,85.9375%);fill-opacity:1;stroke:none;"/>
<path style=" stroke:none;fill-rule:nonzero;fill:rgb(43.138123%,0%,77.34375%);fill-opacity:1;" d="M 529.570313 519.796875 C 529.570313 614.632813 606.449219 691.511719 701.285156 691.511719 L 701.285156 642.46875 C 633.535156 642.46875 578.613281 587.546875 578.613281 519.796875 C 578.613281 452.046875 633.535156 397.125 701.285156 397.125 L 701.285156 348.078125 C 606.449219 348.078125 529.570313 424.960938 529.570313 519.796875 "/>
<path style=" stroke:none;fill-rule:nonzero;fill:rgb(43.138123%,0%,77.34375%);fill-opacity:1;" d="M 701.285156 544.328125 C 687.738281 544.328125 676.753906 533.34375 676.753906 519.796875 C 676.753906 506.246094 687.738281 495.265625 701.285156 495.265625 C 714.835938 495.265625 725.816406 506.246094 725.816406 519.796875 C 725.816406 533.34375 714.835938 544.328125 701.285156 544.328125 M 701.285156 446.203125 C 660.640625 446.203125 627.691406 479.148438 627.691406 519.796875 C 627.691406 560.4375 660.640625 593.386719 701.285156 593.386719 C 741.929688 593.386719 774.878906 560.4375 774.878906 519.796875 C 774.878906 479.148438 741.929688 446.203125 701.285156 446.203125 "/>
<path style=" stroke:none;fill-rule:nonzero;fill:rgb(43.138123%,0%,77.34375%);fill-opacity:1;" d="M 873.003906 519.796875 C 873.003906 614.632813 796.121094 691.511719 701.285156 691.511719 L 701.285156 642.46875 C 769.035156 642.46875 823.957031 587.546875 823.957031 519.796875 C 823.957031 452.046875 769.035156 397.125 701.285156 397.125 L 701.285156 348.078125 C 796.121094 348.078125 873.003906 424.960938 873.003906 519.796875 "/>
<path style=" stroke:none;fill-rule:nonzero;fill:rgb(43.138123%,0%,77.34375%);fill-opacity:1;" d="M 701.285156 397.125 L 1898.765625 397.125 L 1898.765625 348.078125 L 701.285156 348.078125 Z M 701.285156 397.125 "/>
<path style=" stroke:none;fill-rule:nonzero;fill:rgb(43.138123%,0%,77.34375%);fill-opacity:1;" d="M 701.285156 691.496094 L 1898.765625 691.496094 L 1898.765625 642.449219 L 701.285156 642.449219 Z M 701.285156 691.496094 "/>
<path style=" stroke:none;fill-rule:nonzero;fill:rgb(43.138123%,0%,77.34375%);fill-opacity:1;" d="M 260.855469 519.796875 C 260.855469 506.246094 271.835938 495.265625 285.386719 495.265625 C 298.933594 495.265625 309.914063 506.246094 309.914063 519.796875 C 309.914063 533.34375 298.933594 544.328125 285.386719 544.328125 C 271.835938 544.328125 260.855469 533.34375 260.855469 519.796875 M 211.792969 519.796875 C 211.792969 560.441406 244.742188 593.390625 285.386719 593.390625 C 326.027344 593.390625 358.976563 560.441406 358.976563 519.796875 C 358.976563 479.152344 326.027344 446.203125 285.386719 446.203125 C 244.742188 446.203125 211.792969 479.152344 211.792969 519.796875 "/>
<path style=" stroke:none;fill-rule:nonzero;fill:rgb(43.138123%,0%,77.34375%);fill-opacity:1;" d="M 163.964844 641.21875 C 231.023438 708.277344 339.746094 708.277344 406.808594 641.21875 L 372.128906 606.535156 C 324.21875 654.445313 246.550781 654.445313 198.644531 606.539063 C 150.738281 558.632813 150.738281 480.960938 198.644531 433.054688 L 163.964844 398.375 C 96.902344 465.433594 96.902344 574.15625 163.964844 641.21875 "/>
<path style=" stroke:none;fill-rule:nonzero;fill:rgb(43.138123%,0%,77.34375%);fill-opacity:1;" d="M 285.386719 397.125 L 701.285156 397.125 L 701.285156 348.078125 L 285.386719 348.078125 Z M 285.386719 397.125 "/>
<path style=" stroke:none;fill-rule:nonzero;fill:rgb(43.138123%,0%,77.34375%);fill-opacity:1;" d="M 285.386719 691.496094 L 701.285156 691.496094 L 701.285156 642.449219 L 285.386719 642.449219 Z M 285.386719 691.496094 "/>
<path style=" stroke:none;fill-rule:nonzero;fill:rgb(43.138123%,0%,77.34375%);fill-opacity:1;" d="M 406.808594 398.375 C 473.867188 465.433594 473.867188 574.160156 406.808594 641.21875 L 372.125 606.539063 C 420.03125 558.632813 420.03125 480.960938 372.128906 433.054688 C 324.21875 385.148438 246.550781 385.148438 198.644531 433.054688 L 163.964844 398.375 C 231.023438 331.3125 339.746094 331.3125 406.808594 398.375 "/>
<path style=" stroke:none;fill-rule:nonzero;fill:rgb(43.138123%,0%,77.34375%);fill-opacity:1;" d="M 1218.710938 544.328125 C 1205.171875 544.328125 1194.179688 533.34375 1194.179688 519.796875 C 1194.179688 506.246094 1205.171875 495.265625 1218.710938 495.265625 C 1232.261719 495.265625 1243.238281 506.246094 1243.238281 519.796875 C 1243.238281 533.34375 1232.261719 544.328125 1218.710938 544.328125 M 1218.710938 446.203125 C 1178.070313 446.203125 1145.121094 479.148438 1145.121094 519.796875 C 1145.121094 560.4375 1178.070313 593.386719 1218.710938 593.386719 C 1259.359375 593.386719 1292.308594 560.4375 1292.308594 519.796875 C 1292.308594 479.148438 1259.359375 446.203125 1218.710938 446.203125 "/>
<path style=" stroke:none;fill-rule:nonzero;fill:rgb(43.138123%,0%,77.34375%);fill-opacity:1;" d="M 1340.140625 398.375 C 1407.191406 465.433594 1407.199219 574.160156 1340.140625 641.21875 L 1305.449219 606.539063 C 1353.359375 558.632813 1353.359375 480.960938 1305.460938 433.054688 C 1257.550781 385.148438 1179.878906 385.148438 1131.96875 433.054688 L 1097.289063 398.375 C 1164.351563 331.3125 1273.078125 331.3125 1340.140625 398.375 "/>
<path style=" stroke:none;fill-rule:nonzero;fill:rgb(43.138123%,0%,77.34375%);fill-opacity:1;" d="M 1097.289063 641.21875 C 1164.351563 708.277344 1273.078125 708.277344 1340.140625 641.21875 L 1305.460938 606.535156 C 1257.550781 654.445313 1179.878906 654.445313 1131.96875 606.539063 C 1084.070313 558.632813 1084.070313 480.960938 1131.96875 433.054688 L 1097.289063 398.375 C 1030.230469 465.433594 1030.230469 574.15625 1097.289063 641.21875 "/>
<path style=" stroke:none;fill-rule:nonzero;fill:rgb(43.138123%,0%,77.34375%);fill-opacity:1;" d="M 1341.378906 908.28125 L 1390.425781 908.28125 L 1390.425781 -171.71875 L 1341.378906 -171.71875 Z M 1341.378906 908.28125 "/>
<path style=" stroke:none;fill-rule:nonzero;fill:rgb(43.138123%,0%,77.34375%);fill-opacity:1;" d="M 1047.011719 908.28125 L 1096.054688 908.28125 L 1096.054688 -171.71875 L 1047.011719 -171.71875 Z M 1047.011719 908.28125 "/>
<path style=" stroke:none;fill-rule:nonzero;fill:rgb(43.138123%,0%,77.34375%);fill-opacity:1;" d="M 1635.769531 225.402344 L 1684.816406 225.402344 L 1684.816406 -204.738281 L 1635.769531 -204.738281 Z M 1635.769531 225.402344 "/>
<path style=" stroke:none;fill-rule:nonzero;fill:rgb(43.138123%,0%,77.34375%);fill-opacity:1;" d="M 1341.390625 225.402344 L 1390.4375 225.402344 L 1390.4375 -204.738281 L 1341.390625 -204.738281 Z M 1341.390625 225.402344 "/>
<path style=" stroke:none;fill-rule:nonzero;fill:rgb(43.138123%,0%,77.34375%);fill-opacity:1;" d="M 285.386719 24.53125 C 271.835938 24.53125 260.855469 13.550781 260.855469 0 C 260.855469 -13.550781 271.835938 -24.53125 285.386719 -24.53125 C 298.933594 -24.53125 309.914063 -13.550781 309.914063 0 C 309.914063 13.550781 298.933594 24.53125 285.386719 24.53125 M 285.386719 -73.589844 C 244.742188 -73.589844 211.792969 -40.648438 211.792969 0 C 211.792969 40.640625 244.742188 73.589844 285.386719 73.589844 C 326.027344 73.589844 358.976563 40.640625 358.976563 0 C 358.976563 -40.648438 326.027344 -73.589844 285.386719 -73.589844 "/>
<path style=" stroke:none;fill-rule:nonzero;fill:rgb(43.138123%,0%,77.34375%);fill-opacity:1;" d="M 406.808594 -121.421875 C 473.867188 -54.359375 473.867188 54.359375 406.808594 121.421875 L 372.125 86.742188 C 420.03125 38.839844 420.03125 -38.839844 372.128906 -86.738281 C 324.222656 -134.648438 246.550781 -134.648438 198.644531 -86.738281 L 163.964844 -121.421875 C 231.023438 -188.480469 339.746094 -188.480469 406.808594 -121.421875 "/>
<path style=" stroke:none;fill-rule:nonzero;fill:rgb(43.138123%,0%,77.34375%);fill-opacity:1;" d="M 163.964844 121.421875 C 231.023438 188.480469 339.746094 188.480469 406.808594 121.421875 L 372.128906 86.742188 C 324.21875 134.648438 246.550781 134.648438 198.644531 86.742188 C 150.738281 38.839844 150.738281 -38.828125 198.644531 -86.738281 L 163.964844 -121.421875 C 96.902344 -54.359375 96.902344 54.359375 163.964844 121.421875 "/>
<path style=" stroke:none;fill-rule:nonzero;fill:rgb(43.138123%,0%,77.34375%);fill-opacity:1;" d="M 408.054688 519.796875 L 457.101563 519.796875 L 457.101563 0 L 408.054688 0 Z M 408.054688 519.796875 "/>
<path style=" stroke:none;fill-rule:nonzero;fill:rgb(43.138123%,0%,77.34375%);fill-opacity:1;" d="M 113.683594 519.796875 L 162.730469 519.796875 L 162.730469 0 L 113.683594 0 Z M 113.683594 519.796875 "/>
<path style=" stroke:none;fill-rule:nonzero;fill:rgb(43.138123%,0%,77.34375%);fill-opacity:1;" d="M 1194.179688 908.28125 C 1194.179688 894.734375 1205.160156 883.753906 1218.710938 883.753906 C 1232.261719 883.753906 1243.238281 894.734375 1243.238281 908.28125 C 1243.238281 921.832031 1232.261719 932.8125 1218.710938 932.8125 C 1205.160156 932.8125 1194.179688 921.832031 1194.179688 908.28125 M 1292.308594 908.28125 C 1292.308594 867.640625 1259.359375 834.691406 1218.710938 834.691406 C 1178.070313 834.691406 1145.121094 867.640625 1145.121094 908.28125 C 1145.121094 948.925781 1178.070313 981.875 1218.710938 981.875 C 1259.359375 981.875 1292.308594 948.925781 1292.308594 908.28125 "/>
<path style=" stroke:none;fill-rule:nonzero;fill:rgb(43.138123%,0%,77.34375%);fill-opacity:1;" d="M 1218.710938 1080 C 1123.878906 1080 1047 1003.121094 1047 908.28125 L 1096.039063 908.28125 C 1096.039063 976.03125 1150.960938 1030.953125 1218.710938 1030.953125 C 1286.460938 1030.953125 1341.378906 976.03125 1341.378906 908.28125 L 1390.429688 908.28125 C 1390.429688 1003.121094 1313.550781 1080 1218.710938 1080 "/>
<path style=" stroke:none;fill-rule:nonzero;fill:rgb(43.138123%,0%,77.34375%);fill-opacity:1;" d="M 1218.710938 736.566406 C 1123.878906 736.566406 1047 813.445313 1047 908.28125 L 1096.039063 908.28125 C 1096.039063 840.535156 1150.960938 785.609375 1218.710938 785.609375 C 1286.460938 785.609375 1341.378906 840.535156 1341.378906 908.28125 L 1390.429688 908.28125 C 1390.429688 813.445313 1313.550781 736.566406 1218.710938 736.566406 "/>
<path style=" stroke:none;fill-rule:nonzero;fill:rgb(43.138123%,0%,77.34375%);fill-opacity:1;" d="M 704.890625 908.28125 C 704.890625 894.734375 715.871094 883.753906 729.421875 883.753906 C 742.96875 883.753906 753.953125 894.734375 753.953125 908.28125 C 753.953125 921.832031 742.96875 932.8125 729.421875 932.8125 C 715.871094 932.8125 704.890625 921.832031 704.890625 908.28125 M 803.015625 908.28125 C 803.015625 867.640625 770.066406 834.691406 729.421875 834.691406 C 688.777344 834.691406 655.828125 867.640625 655.828125 908.28125 C 655.828125 948.925781 688.777344 981.875 729.421875 981.875 C 770.066406 981.875 803.015625 948.925781 803.015625 908.28125 "/>
<path style=" stroke:none;fill-rule:nonzero;fill:rgb(43.138123%,0%,77.34375%);fill-opacity:1;" d="M 729.421875 1080 C 634.585938 1080 557.703125 1003.121094 557.703125 908.28125 L 606.75 908.28125 C 606.75 976.03125 661.671875 1030.953125 729.421875 1030.953125 C 797.171875 1030.953125 852.09375 976.03125 852.09375 908.28125 L 901.140625 908.28125 C 901.140625 1003.121094 824.257813 1080 729.421875 1080 "/>
<path style=" stroke:none;fill-rule:nonzero;fill:rgb(43.138123%,0%,77.34375%);fill-opacity:1;" d="M 729.421875 736.566406 C 634.585938 736.566406 557.703125 813.445313 557.703125 908.28125 L 606.75 908.28125 C 606.75 840.535156 661.671875 785.609375 729.421875 785.609375 C 797.171875 785.609375 852.09375 840.535156 852.09375 908.28125 L 901.140625 908.28125 C 901.140625 813.445313 824.257813 736.566406 729.421875 736.566406 "/>
<path style=" stroke:none;fill-rule:nonzero;fill:rgb(43.138123%,0%,77.34375%);fill-opacity:1;" d="M 1495.761719 890.9375 C 1505.339844 881.355469 1520.871094 881.355469 1530.449219 890.9375 C 1540.03125 900.519531 1540.03125 916.050781 1530.449219 925.628906 C 1520.871094 935.207031 1505.339844 935.210938 1495.761719 925.628906 C 1486.179688 916.050781 1486.179688 900.519531 1495.761719 890.9375 M 1565.140625 960.320313 C 1593.878906 931.582031 1593.878906 884.984375 1565.140625 856.246094 C 1536.398438 827.503906 1489.800781 827.503906 1461.058594 856.246094 C 1432.320313 884.984375 1432.320313 931.582031 1461.058594 960.320313 C 1489.800781 989.0625 1536.398438 989.058594 1565.140625 960.320313 "/>
<path style=" stroke:none;fill-rule:nonzero;fill:rgb(43.138123%,0%,77.34375%);fill-opacity:1;" d="M 1391.679688 1029.707031 C 1324.621094 962.644531 1324.621094 853.921875 1391.679688 786.859375 L 1426.359375 821.539063 C 1378.449219 869.449219 1378.449219 947.117188 1426.359375 995.023438 C 1474.269531 1042.929688 1551.941406 1042.929688 1599.839844 995.023438 L 1634.519531 1029.707031 C 1567.460938 1096.765625 1458.738281 1096.765625 1391.679688 1029.707031 "/>
<path style=" stroke:none;fill-rule:nonzero;fill:rgb(43.138123%,0%,77.34375%);fill-opacity:1;" d="M 1634.519531 786.859375 C 1567.460938 719.800781 1458.738281 719.800781 1391.679688 786.859375 L 1426.359375 821.542969 C 1474.269531 773.636719 1551.941406 773.636719 1599.839844 821.539063 C 1647.75 869.445313 1647.75 947.117188 1599.839844 995.023438 L 1634.519531 1029.707031 C 1701.578125 962.644531 1701.578125 853.921875 1634.519531 786.859375 "/>
<path style=" stroke:none;fill-rule:nonzero;fill:rgb(43.138123%,0%,77.34375%);fill-opacity:1;" d="M 295.753906 890.566406 C 305.332031 880.988281 320.863281 880.988281 330.445313 890.566406 C 340.023438 900.148438 340.023438 915.679688 330.445313 925.257813 C 320.863281 934.839844 305.332031 934.839844 295.753906 925.257813 C 286.171875 915.679688 286.171875 900.148438 295.753906 890.566406 M 365.136719 959.949219 C 393.878906 931.210938 393.878906 884.613281 365.136719 855.875 C 336.394531 827.136719 289.800781 827.136719 261.0625 855.875 C 232.320313 884.613281 232.320313 931.210938 261.0625 959.949219 C 289.800781 988.691406 336.394531 988.691406 365.136719 959.949219 "/>
<path style=" stroke:none;fill-rule:nonzero;fill:rgb(43.138123%,0%,77.34375%);fill-opacity:1;" d="M 191.675781 1029.335938 C 124.617188 962.277344 124.617188 853.550781 191.675781 786.492188 L 226.355469 821.171875 C 178.449219 869.078125 178.449219 946.75 226.355469 994.65625 C 274.261719 1042.558594 351.933594 1042.558594 399.839844 994.652344 L 434.519531 1029.335938 C 367.460938 1096.394531 258.734375 1096.394531 191.675781 1029.335938 "/>
<path style=" stroke:none;fill-rule:nonzero;fill:rgb(43.138123%,0%,77.34375%);fill-opacity:1;" d="M 399.839844 994.65625 L 785.550781 608.941406 L 820.230469 643.625 L 434.519531 1029.335938 Z M 399.839844 994.65625 "/>
<path style=" stroke:none;fill-rule:nonzero;fill:rgb(43.138123%,0%,77.34375%);fill-opacity:1;" d="M 191.6875 786.503906 L 577.398438 400.789063 L 612.078125 435.472656 L 226.367188 821.183594 Z M 191.6875 786.503906 "/>
<path style=" stroke:none;fill-rule:nonzero;fill:rgb(43.138123%,0%,77.34375%);fill-opacity:1;" d="M 434.519531 786.492188 C 367.460938 719.433594 258.734375 719.429688 191.675781 786.492188 L 226.355469 821.171875 C 274.261719 773.265625 351.933594 773.265625 399.839844 821.171875 C 447.746094 869.078125 447.746094 946.746094 399.839844 994.65625 L 434.519531 1029.335938 C 501.578125 962.277344 501.578125 853.550781 434.519531 786.492188 "/>
<path style=" stroke:none;fill-rule:nonzero;fill:rgb(43.138123%,0%,77.34375%);fill-opacity:1;" d="M -221.761719 1026.917969 C -288.820313 959.859375 -288.820313 851.132813 -221.761719 784.074219 L -187.082031 818.753906 C -234.988281 866.660156 -234.988281 944.328125 -187.082031 992.238281 C -139.175781 1040.144531 -61.503906 1040.144531 -13.597656 992.234375 L 21.082031 1026.917969 C -45.976563 1093.976563 -154.703125 1093.976563 -221.761719 1026.917969 "/>
<path style=" stroke:none;fill-rule:nonzero;fill:rgb(43.138123%,0%,77.34375%);fill-opacity:1;" d="M -13.597656 992.238281 L 372.113281 606.527344 L 406.792969 641.207031 L 21.082031 1026.917969 Z M -13.597656 992.238281 "/>
<path style=" stroke:none;fill-rule:nonzero;fill:rgb(43.138123%,0%,77.34375%);fill-opacity:1;" d="M -221.75 784.085938 L 163.960938 398.371094 L 198.640625 433.054688 L -187.070313 818.765625 Z M -221.75 784.085938 "/>
<path style=" stroke:none;fill-rule:nonzero;fill:rgb(43.138123%,0%,77.34375%);fill-opacity:1;" d="M 21.082031 784.074219 C -45.976563 717.015625 -154.703125 717.011719 -221.761719 784.074219 L -187.082031 818.753906 C -139.175781 770.847656 -61.503906 770.847656 -13.597656 818.753906 C 34.308594 866.660156 34.308594 944.328125 -13.597656 992.238281 L 21.082031 1026.917969 C 88.144531 959.859375 88.144531 851.132813 21.082031 784.074219 "/>
<path style=" stroke:none;fill-rule:nonzero;fill:rgb(43.138123%,0%,77.34375%);fill-opacity:1;" d="M -53.253906 785.613281 L 1919.996094 785.613281 L 1919.996094 736.566406 L -53.253906 736.566406 Z M -53.253906 785.613281 "/>
<path style=" stroke:none;fill-rule:nonzero;fill:rgb(43.138123%,0%,77.34375%);fill-opacity:1;" d="M -53.253906 1080 L 1919.996094 1080 L 1919.996094 1030.953125 L -53.253906 1030.953125 Z M -53.253906 1080 "/>
<path style=" stroke:none;fill-rule:nonzero;fill:rgb(43.138123%,0%,77.34375%);fill-opacity:1;" d="M 1919.109375 536.921875 C 1909.53125 546.503906 1894 546.503906 1884.421875 536.921875 C 1874.839844 527.34375 1874.839844 511.8125 1884.421875 502.230469 C 1894 492.652344 1909.53125 492.648438 1919.109375 502.230469 C 1928.691406 511.8125 1928.691406 527.34375 1919.109375 536.921875 M 1849.730469 467.539063 C 1820.988281 496.277344 1820.988281 542.875 1849.730469 571.613281 C 1878.46875 600.355469 1925.070313 600.355469 1953.800781 571.613281 C 1982.539063 542.875 1982.539063 496.277344 1953.800781 467.539063 C 1925.058594 438.796875 1878.46875 438.800781 1849.730469 467.539063 "/>
<path style=" stroke:none;fill-rule:nonzero;fill:rgb(43.138123%,0%,77.34375%);fill-opacity:1;" d="M 2023.191406 398.15625 C 2090.25 465.214844 2090.25 573.941406 2023.191406 641 L 1988.511719 606.320313 C 2036.410156 558.414063 2036.410156 480.742188 1988.511719 432.835938 C 1940.601563 384.929688 1862.929688 384.929688 1815.019531 432.835938 L 1780.339844 398.15625 C 1847.398438 331.09375 1956.128906 331.09375 2023.191406 398.15625 "/>
<path style=" stroke:none;fill-rule:nonzero;fill:rgb(43.138123%,0%,77.34375%);fill-opacity:1;" d="M 1815.019531 432.835938 L 1426.308594 821.546875 L 1391.628906 786.867188 L 1780.339844 398.152344 Z M 1815.019531 432.835938 "/>
<path style=" stroke:none;fill-rule:nonzero;fill:rgb(43.138123%,0%,77.34375%);fill-opacity:1;" d="M 2023.179688 640.988281 L 1634.460938 1029.699219 L 1599.78125 995.019531 L 1988.5 606.308594 Z M 2023.179688 640.988281 "/>
<path style=" stroke:none;fill-rule:nonzero;fill:rgb(43.138123%,0%,77.34375%);fill-opacity:1;" d="M 1780.339844 641 C 1847.398438 708.058594 1956.128906 708.058594 2023.191406 641 L 1988.511719 606.316406 C 1940.601563 654.226563 1862.929688 654.226563 1815.019531 606.320313 C 1767.121094 558.414063 1767.121094 480.742188 1815.03125 432.835938 L 1780.339844 398.15625 C 1713.28125 465.214844 1713.28125 573.9375 1780.339844 641 "/>
<path style=" stroke:none;fill-rule:nonzero;fill:rgb(43.138123%,0%,77.34375%);fill-opacity:1;" d="M 824.585938 90.945313 C 834.164063 100.523438 834.164063 116.054688 824.585938 125.636719 C 815.007813 135.214844 799.472656 135.214844 789.894531 125.636719 C 780.316406 116.054688 780.3125 100.523438 789.894531 90.945313 C 799.472656 81.363281 815.007813 81.363281 824.585938 90.945313 M 755.203125 160.328125 C 783.941406 189.066406 830.539063 189.066406 859.277344 160.328125 C 888.019531 131.589844 888.019531 84.992188 859.277344 56.25 C 830.539063 27.511719 783.941406 27.511719 755.203125 56.25 C 726.460938 84.992188 726.464844 131.589844 755.203125 160.328125 "/>
<path style=" stroke:none;fill-rule:nonzero;fill:rgb(43.138123%,0%,77.34375%);fill-opacity:1;" d="M 685.816406 -13.128906 C 752.878906 -80.191406 861.605469 -80.191406 928.664063 -13.128906 L 893.980469 21.550781 C 846.074219 -26.359375 768.402344 -26.359375 720.496094 21.550781 C 672.59375 69.449219 672.59375 147.125 720.496094 195.03125 L 685.816406 229.710938 C 618.757813 162.652344 618.757813 53.929688 685.816406 -13.128906 "/>
<path style=" stroke:none;fill-rule:nonzero;fill:rgb(43.138123%,0%,77.34375%);fill-opacity:1;" d="M 720.5 195.03125 L 1132 606.535156 L 1097.320313 641.214844 L 685.816406 229.710938 Z M 720.5 195.03125 "/>
<path style=" stroke:none;fill-rule:nonzero;fill:rgb(43.138123%,0%,77.34375%);fill-opacity:1;" d="M 928.652344 -13.121094 L 1340.148438 398.382813 L 1305.46875 433.0625 L 893.96875 21.558594 Z M 928.652344 -13.121094 "/>
<path style=" stroke:none;fill-rule:nonzero;fill:rgb(43.138123%,0%,77.34375%);fill-opacity:1;" d="M 928.664063 229.710938 C 995.722656 162.652344 995.722656 53.929688 928.664063 -13.128906 L 893.980469 21.550781 C 941.886719 69.460938 941.886719 147.125 893.980469 195.03125 C 846.078125 242.9375 768.40625 242.9375 720.496094 195.03125 L 685.816406 229.710938 C 752.878906 296.773438 861.601563 296.773438 928.664063 229.710938 "/>
<path style=" stroke:none;fill-rule:nonzero;fill:rgb(43.138123%,0%,77.34375%);fill-opacity:1;" d="M -11.980469 83.757813 C 1.566406 83.757813 12.546875 94.742188 12.546875 108.289063 C 12.546875 121.839844 1.566406 132.820313 -11.980469 132.820313 C -25.53125 132.820313 -36.511719 121.839844 -36.511719 108.289063 C -36.511719 94.742188 -25.53125 83.757813 -11.980469 83.757813 M -11.980469 181.882813 C 28.660156 181.882813 61.609375 148.933594 61.609375 108.289063 C 61.609375 67.648438 28.660156 34.699219 -11.980469 34.699219 C -52.625 34.699219 -85.574219 67.648438 -85.574219 108.289063 C -85.574219 148.933594 -52.625 181.882813 -11.980469 181.882813 "/>
<path style=" stroke:none;fill-rule:nonzero;fill:rgb(43.138123%,0%,77.34375%);fill-opacity:1;" d="M -11.980469 280.007813 L 815.28125 280.007813 L 815.28125 230.960938 L -11.980469 230.960938 Z M -11.980469 280.007813 "/>
<path style=" stroke:none;fill-rule:nonzero;fill:rgb(43.138123%,0%,77.34375%);fill-opacity:1;" d="M 159.734375 108.289063 C 159.734375 13.449219 82.855469 -63.429688 -11.980469 -63.429688 L -11.980469 -14.378906 C 55.769531 -14.378906 110.6875 40.539063 110.6875 108.289063 C 110.6875 176.039063 55.769531 230.960938 -11.980469 230.960938 L -11.980469 280.007813 C 82.855469 280.007813 159.734375 203.128906 159.734375 108.289063 "/>
<path style=" stroke:none;fill-rule:nonzero;fill:rgb(43.138123%,0%,77.34375%);fill-opacity:1;" d="M 1599.839844 312.140625 L 1305.441406 606.535156 L 1340.121094 641.214844 L 1634.519531 346.824219 Z M 1599.839844 312.140625 "/>
<path style=" stroke:none;fill-rule:nonzero;fill:rgb(43.138123%,0%,77.34375%);fill-opacity:1;" d="M 1391.679688 103.988281 L 1097.289063 398.382813 L 1131.96875 433.0625 L 1426.359375 138.671875 Z M 1391.679688 103.988281 "/>
<path style=" stroke:none;fill-rule:nonzero;fill:rgb(43.138123%,0%,77.34375%);fill-opacity:1;" d="M 1537.628906 225.398438 C 1537.628906 238.949219 1526.640625 249.933594 1513.089844 249.933594 C 1499.550781 249.933594 1488.558594 238.949219 1488.558594 225.398438 C 1488.558594 211.851563 1499.550781 200.871094 1513.089844 200.871094 C 1526.640625 200.871094 1537.628906 211.851563 1537.628906 225.398438 M 1586.691406 225.398438 C 1586.691406 184.757813 1553.738281 151.808594 1513.089844 151.808594 C 1472.449219 151.808594 1439.5 184.757813 1439.5 225.398438 C 1439.5 266.046875 1472.449219 298.992188 1513.089844 298.992188 C 1553.738281 298.992188 1586.691406 266.046875 1586.691406 225.398438 "/>
<path style=" stroke:none;fill-rule:nonzero;fill:rgb(43.138123%,0%,77.34375%);fill-opacity:1;" d="M 1684.808594 225.398438 C 1684.808594 130.5625 1607.929688 53.679688 1513.089844 53.679688 L 1513.089844 102.730469 C 1580.839844 102.730469 1635.769531 157.652344 1635.769531 225.398438 C 1635.769531 293.148438 1580.839844 348.070313 1513.089844 348.070313 L 1513.089844 397.117188 C 1607.929688 397.117188 1684.808594 320.238281 1684.808594 225.398438 "/>
<path style=" stroke:none;fill-rule:nonzero;fill:rgb(43.138123%,0%,77.34375%);fill-opacity:1;" d="M 1341.378906 225.398438 C 1341.378906 130.5625 1418.261719 53.679688 1513.089844 53.679688 L 1513.089844 102.730469 C 1445.339844 102.730469 1390.421875 157.652344 1390.421875 225.398438 C 1390.421875 293.148438 1445.339844 348.070313 1513.089844 348.070313 L 1513.089844 397.117188 C 1418.261719 397.117188 1341.378906 320.238281 1341.378906 225.398438 "/>
<path style=" stroke:none;fill-rule:nonzero;fill:rgb(43.138123%,0%,77.34375%);fill-opacity:1;" d="M 1963.730469 -398.628906 L 1426.390625 138.707031 L 1391.710938 104.027344 L 1929.050781 -433.308594 Z M 1963.730469 -398.628906 "/>
<path style=" stroke:none;fill-rule:nonzero;fill:rgb(43.138123%,0%,77.34375%);fill-opacity:1;" d="M 2171.878906 -190.480469 L 1634.539063 346.859375 L 1599.859375 312.179688 L 2137.199219 -225.160156 Z M 2171.878906 -190.480469 "/>
<path style=" stroke:none;fill-rule:nonzero;fill:rgb(43.138123%,0%,77.34375%);fill-opacity:1;" d="M 1513.089844 397.117188 L 2340.351563 397.117188 L 2340.351563 348.070313 L 1513.089844 348.070313 Z M 1513.089844 397.117188 "/>
<path style=" stroke:none;fill-rule:nonzero;fill:rgb(43.138123%,0%,77.34375%);fill-opacity:1;" d="M 1513.089844 102.746094 L 2340.351563 102.746094 L 2340.351563 53.699219 L 1513.089844 53.699219 Z M 1513.089844 102.746094 "/>
</g>
</svg>
