<?xml version="1.0" encoding="UTF-8"?>
<svg xmlns="http://www.w3.org/2000/svg" xmlns:xlink="http://www.w3.org/1999/xlink" width="1920pt" height="1080pt" viewBox="0 0 1920 1080" version="1.1">
<g id="surface1">
<rect x="0" y="0" width="1920" height="1080" style="fill:rgb(0%,65.429688%,63.476563%);fill-opacity:1;stroke:none;"/>
<path style=" stroke:none;fill-rule:nonzero;fill:rgb(0%,55.664063%,54.101563%);fill-opacity:1;" d="M 2212.03125 -136.238281 C 925.5 -136.238281 -117.4375 906.699219 -117.4375 2193.230469 L -117.4375 2193.238281 C -117.4375 2316.679688 -107.800781 2437.859375 -89.304688 2556.109375 L 619.511719 2556.109375 C 593.679688 2439.648438 579.949219 2318.640625 579.949219 2194.410156 L 579.949219 2194.398438 C 579.949219 1275.972656 1324.480469 531.441406 2242.910156 531.441406 L 2857.238281 531.441406 L 2857.238281 -136.238281 "/>
<path style=" stroke:none;fill-rule:nonzero;fill:rgb(0%,94.139099%,65.039063%);fill-opacity:1;" d="M 1750.78125 946.039063 C 1750.78125 1054.589844 1662.78125 1142.585938 1554.230469 1142.585938 L -872.984375 1142.585938 C -981.53125 1142.585938 -1069.53125 1054.589844 -1069.53125 946.039063 C -1069.53125 837.492188 -981.53125 749.492188 -872.984375 749.492188 L 1554.230469 749.492188 C 1662.78125 749.492188 1750.78125 837.492188 1750.78125 946.039063 Z M 1557.878906 670.855469 L -876.632813 670.855469 C -1028.691406 670.855469 -1151.949219 794.121094 -1151.949219 946.179688 C -1151.949219 1098.234375 -1028.691406 1221.5 -876.632813 1221.5 L 1557.878906 1221.5 C 1709.941406 1221.5 1833.199219 1098.234375 1833.199219 946.179688 C 1833.199219 794.121094 1709.941406 670.855469 1557.878906 670.855469 "/>
<path style=" stroke:none;fill-rule:nonzero;fill:rgb(0%,85.9375%,72.068787%);fill-opacity:1;" d="M 843.414063 63.269531 C 843.414063 155.394531 768.734375 230.074219 676.613281 230.074219 L 82.871094 230.074219 C -9.253906 230.074219 -83.933594 155.394531 -83.933594 63.269531 C -83.933594 -28.851563 -9.253906 -103.53125 82.871094 -103.53125 L 676.613281 -103.53125 C 768.734375 -103.53125 843.414063 -28.851563 843.414063 63.269531 Z M 679.710938 -170.269531 L 79.773438 -170.269531 C -49.273438 -170.269531 -153.882813 -65.660156 -153.882813 63.390625 C -153.882813 192.433594 -49.273438 297.046875 79.773438 297.046875 L 679.710938 297.046875 C 808.753906 297.046875 913.367188 192.433594 913.367188 63.390625 C 913.367188 -65.660156 808.753906 -170.269531 679.710938 -170.269531 "/>
<path style=" stroke:none;fill-rule:nonzero;fill:rgb(0%,77.34375%,65.039063%);fill-opacity:1;" d="M 327.773438 149.761719 L -1726.53125 149.761719 L -1726.53125 527.347656 L 310.25 527.347656 C 831.464844 527.347656 1253.988281 949.875 1253.988281 1471.089844 L 1253.988281 1471.09375 C 1253.988281 1992.308594 831.464844 2414.828125 310.25 2414.828125 L -1726.53125 2414.828125 L -1726.53125 2793.75 L 327.773438 2793.75 C 1057.890625 2793.75 1649.769531 2201.871094 1649.769531 1471.757813 L 1649.769531 1471.75 C 1649.769531 741.636719 1057.890625 149.761719 327.773438 149.761719 "/>
</g>
</svg>
