<?xml version="1.0" encoding="UTF-8"?>
<svg xmlns="http://www.w3.org/2000/svg" xmlns:xlink="http://www.w3.org/1999/xlink" width="1920pt" height="1080pt" viewBox="0 0 1920 1080" version="1.1">
<g id="surface1">
<path style=" stroke:none;fill-rule:nonzero;fill:rgb(0%,65.429688%,63.476563%);fill-opacity:1;" d="M 960 0 L 0 0 L 0 1080 L 1920 1080 L 1920 0 "/>
<path style=" stroke:none;fill-rule:nonzero;fill:rgb(0%,55.664063%,54.101563%);fill-opacity:1;" d="M 105.394531 888.371094 L -373.871094 888.371094 C -696.546875 888.371094 -958.128906 626.789063 -958.128906 304.113281 C -958.128906 -18.558594 -696.550781 -280.140625 -373.871094 -280.140625 L 105.390625 -280.140625 C 428.066406 -280.140625 689.648438 -18.558594 689.648438 304.113281 C 689.648438 626.789063 428.070313 888.371094 105.394531 888.371094 "/>
<path style=" stroke:none;fill-rule:nonzero;fill:rgb(0%,55.664063%,54.101563%);fill-opacity:1;" d="M 2065.898438 1097.199219 L 1292.730469 1097.199219 C 985 1097.199219 735.53125 847.734375 735.53125 540 C 735.53125 232.269531 985 -17.199219 1292.730469 -17.199219 L 2065.898438 -17.199219 C 2373.628906 -17.199219 2623.101563 232.265625 2623.101563 539.996094 L 2623.101563 540 C 2623.101563 847.730469 2373.628906 1097.199219 2065.898438 1097.199219 "/>
<path style=" stroke:none;fill-rule:nonzero;fill:rgb(0%,65.429688%,63.476563%);fill-opacity:1;" d="M 788.351563 835.761719 L -748.308594 835.761719 C -897.175781 835.761719 -1017.859375 715.082031 -1017.859375 566.214844 C -1017.859375 417.347656 -897.175781 296.664063 -748.308594 296.664063 L 788.351563 296.664063 C 937.21875 296.664063 1057.898438 417.34375 1057.898438 566.210938 C 1057.898438 715.078125 937.21875 835.761719 788.351563 835.761719 "/>
<path style=" stroke:none;fill-rule:nonzero;fill:rgb(0%,77.34375%,65.039063%);fill-opacity:1;" d="M 1123.878906 1152.878906 L 85.589844 1152.878906 C -93.949219 1152.878906 -239.496094 1007.332031 -239.496094 827.789063 C -239.496094 648.246094 -93.949219 502.699219 85.589844 502.699219 L 1123.871094 502.699219 C 1303.421875 502.699219 1448.960938 648.246094 1448.960938 827.789063 C 1448.960938 1007.332031 1303.421875 1152.878906 1123.878906 1152.878906 "/>
</g>
</svg>
