<?xml version="1.0" encoding="utf-8"?>
<!-- Generator: Adobe Illustrator 27.5.0, SVG Export Plug-In . SVG Version: 6.00 Build 0)  -->
<svg version="1.1" id="Layer_1" xmlns="http://www.w3.org/2000/svg" xmlns:xlink="http://www.w3.org/1999/xlink" x="0px" y="0px"
	 viewBox="0 0 1001.58 168.63" style="enable-background:new 0 0 1001.58 168.63;" xml:space="preserve">
<style type="text/css">
	.st0{fill:#FF313C;}
	.st1{fill:#00A5A1;}
	.st2{fill:#FFB300;}
</style>
<g>
	<path d="M934.69,0.51c-36.84,0-66.9,30.01-66.89,66.89c0,0,0,24.32,0,24.32c-4.8-1.57-10.53-1.74-15.69-1.63V40.02
		c0.22-35.21-42.75-52.97-67.01-27.86c-7.08-7.16-16.9-11.61-27.75-11.61h-55.57c-15.5,0-28.92,9.08-35.21,22.21
		c-23.99-28.49-71.62-29.96-97.29-2.87C562.54,8.31,550.02,0.52,535.7,0.52h-55.05c-14.7,0-27.52,8.21-34.12,20.28
		C434.4,8.18,417.37,0.3,398.52,0.3c-19.77,0.79-40.15-4.3-55.37,11.59C336.07,4.74,326.26,0.3,315.43,0.3h-55.57
		c-10.65,0-20.32,4.29-27.37,11.24c-6.97-6.65-16.4-10.74-26.78-10.74h-55.05c-10.78,0-20.55,4.42-27.6,11.54
		C108.88-3.68,81.55-4.08,66.9,11.54c-20.5-21-56.77-11.99-65.07,16.17c-3.22,3.08-1.09,94.61-1.66,100.94
		c-0.25,34.59,42.93,52.04,66.71,27.39c14.51,15.48,41.55,15.27,55.82-0.4c7.07,7.34,16.99,11.92,27.96,11.92h55.05
		c10.31,0,19.69-4.05,26.66-10.63c14.28,15.08,41.13,14.93,55.25-0.27c14.37,15.42,41.37,15.35,55.8-0.19
		c7.05,6.99,16.74,11.31,27.42,11.31h27.68c18.9,0,35.98-7.92,48.11-20.61c6.63,11.98,19.39,20.11,34.02,20.11h55.05
		c9.94,0,19.01-3.75,25.89-9.91c14.37,14.82,41.01,14.48,55-0.65c14.72,15.78,42.25,15.34,56.47-0.85
		c14.16,16.26,41.73,16.79,56.5,1.03c14.38,15.43,41.4,15.34,55.83-0.21c7.28,7.38,17.47,11.56,27.68,11.54c0,0,43.61,0,43.61,0
		c9.42,0,18.07-3.35,24.83-8.93c14.61,13.28,39.85,12.12,53.19-2.28c23.81,24.74,67.12,7.35,66.89-27.38c0,0,0-62.23,0-62.23
		C1001.58,30.52,971.58,0.51,934.69,0.51z"/>
	<g>
		<g>
			<g>
				<g>
					<path class="st0" d="M39.16,147.8c-10.58,0-19.19-8.61-19.19-19.19V38.9c0-10.58,8.61-19.19,19.19-19.19
						s19.19,8.61,19.19,19.19v89.71C58.35,139.19,49.74,147.8,39.16,147.8z M39.16,25.85c-7.19,0-13.05,5.85-13.05,13.05v89.71
						c0,7.19,5.85,13.05,13.05,13.05s13.05-5.85,13.05-13.05V38.9C52.21,31.7,46.35,25.85,39.16,25.85z"/>
				</g>
			</g>
			<g>
				<g>
					<path class="st1" d="M94.61,147.8c-10.58,0-19.19-8.61-19.19-19.19V38.9c0-10.58,8.61-19.19,19.19-19.19
						s19.19,8.61,19.19,19.19v89.71C113.79,139.19,105.19,147.8,94.61,147.8z M94.61,25.85c-7.19,0-13.05,5.85-13.05,13.05v89.71
						c0,7.19,5.85,13.05,13.05,13.05s13.05-5.85,13.05-13.05V38.9C107.65,31.7,101.8,25.85,94.61,25.85z"/>
				</g>
			</g>
			<g>
				<g>
					<path class="st2" d="M94.61,113.53c-5.12,0-9.94-2-13.57-5.62L25.59,52.46c-7.48-7.48-7.48-19.65,0-27.13
						c3.62-3.62,8.44-5.62,13.57-5.62c5.12,0,9.94,2,13.57,5.62l55.45,55.45c7.48,7.48,7.48,19.65,0,27.13
						C104.55,111.53,99.73,113.53,94.61,113.53z M39.16,25.85c-3.49,0-6.76,1.36-9.23,3.82c-5.09,5.09-5.09,13.36,0,18.45
						l55.45,55.45c2.46,2.46,5.74,3.82,9.23,3.82s6.76-1.36,9.23-3.82c5.09-5.09,5.09-13.36,0-18.45L48.38,29.67
						C45.92,27.21,42.64,25.85,39.16,25.85z"/>
				</g>
			</g>
			<g>
				<g>
					<path class="st0" d="M39.16,48.18c-5.12,0-9.28-4.16-9.28-9.28s4.16-9.28,9.28-9.28c5.12,0,9.28,4.16,9.28,9.28
						S44.28,48.18,39.16,48.18z M39.16,35.76c-1.73,0-3.14,1.41-3.14,3.14c0,1.73,1.41,3.14,3.14,3.14c1.73,0,3.14-1.41,3.14-3.14
						C42.3,37.17,40.89,35.76,39.16,35.76z"/>
				</g>
			</g>
			<g>
				<g>
					<path class="st1" d="M94.61,103.62c-5.12,0-9.28-4.16-9.28-9.28c0-5.12,4.16-9.28,9.28-9.28s9.28,4.16,9.28,9.28
						C103.89,99.46,99.72,103.62,94.61,103.62z M94.61,91.2c-1.73,0-3.14,1.41-3.14,3.14c0,1.73,1.41,3.14,3.14,3.14
						c1.73,0,3.14-1.41,3.14-3.14C97.75,92.61,96.34,91.2,94.61,91.2z"/>
				</g>
			</g>
		</g>
		<g>
			<g>
				<g>
					<path class="st2" d="M205.71,58.65h-55.05c-10.5,0-19.05-8.54-19.05-19.05s8.54-19.05,19.05-19.05h55.05
						c10.5,0,19.05,8.54,19.05,19.05S216.22,58.65,205.71,58.65z M150.67,26.65c-7.14,0-12.95,5.81-12.95,12.95
						s5.81,12.95,12.95,12.95h55.05c7.14,0,12.95-5.81,12.95-12.95s-5.81-12.95-12.95-12.95H150.67z"/>
				</g>
			</g>
			<g>
				<g>
					<path class="st0" d="M205.71,147.71h-55.05c-10.5,0-19.05-8.54-19.05-19.05s8.54-19.05,19.05-19.05h55.05
						c10.5,0,19.05,8.54,19.05,19.05S216.22,147.71,205.71,147.71z M150.67,115.71c-7.14,0-12.95,5.81-12.95,12.95
						c0,7.14,5.81,12.95,12.95,12.95h55.05c7.14,0,12.95-5.81,12.95-12.95c0-7.14-5.81-12.95-12.95-12.95H150.67z"/>
				</g>
			</g>
			<g>
				<g>
					<path class="st1" d="M150.67,147.71c-10.5,0-19.05-8.54-19.05-19.05V39.6c0-10.5,8.54-19.05,19.05-19.05
						s19.05,8.54,19.05,19.05v89.06C169.71,139.17,161.17,147.71,150.67,147.71z M150.67,26.65c-7.14,0-12.95,5.81-12.95,12.95
						v89.06c0,7.14,5.81,12.95,12.95,12.95s12.95-5.81,12.95-12.95V39.6C163.62,32.46,157.81,26.65,150.67,26.65z"/>
				</g>
			</g>
			<g>
				<g>
					<g>
						<path class="st0" d="M184.69,103.3h-34.02c-10.5,0-19.05-8.54-19.05-19.05s8.54-19.05,19.05-19.05h34.02
							c10.5,0,19.05,8.54,19.05,19.05S195.19,103.3,184.69,103.3z M150.67,71.3c-7.14,0-12.95,5.81-12.95,12.95
							s5.81,12.95,12.95,12.95h34.02c7.14,0,12.95-5.81,12.95-12.95s-5.81-12.95-12.95-12.95H150.67z"/>
					</g>
				</g>
				<g>
					<g>
						<path class="st2" d="M150.67,93.46c-5.08,0-9.21-4.13-9.21-9.21s4.13-9.21,9.21-9.21s9.21,4.13,9.21,9.21
							S155.75,93.46,150.67,93.46z M150.67,81.13c-1.72,0-3.12,1.4-3.12,3.12c0,1.72,1.4,3.12,3.12,3.12s3.12-1.4,3.12-3.12
							C153.79,82.53,152.39,81.13,150.67,81.13z"/>
					</g>
				</g>
			</g>
			<g>
				<g>
					<path class="st1" d="M150.67,48.82c-5.08,0-9.21-4.13-9.21-9.21s4.13-9.21,9.21-9.21s9.21,4.13,9.21,9.21
						S155.75,48.82,150.67,48.82z M150.67,36.48c-1.72,0-3.12,1.4-3.12,3.12c0,1.72,1.4,3.12,3.12,3.12s3.12-1.4,3.12-3.12
						C153.79,37.88,152.39,36.48,150.67,36.48z"/>
				</g>
			</g>
			<g>
				<g>
					<path class="st1" d="M150.67,137.88c-5.08,0-9.21-4.13-9.21-9.21s4.13-9.21,9.21-9.21s9.21,4.13,9.21,9.21
						S155.75,137.88,150.67,137.88z M150.67,125.55c-1.72,0-3.12,1.4-3.12,3.12s1.4,3.12,3.12,3.12s3.12-1.4,3.12-3.12
						S152.39,125.55,150.67,125.55z"/>
				</g>
			</g>
		</g>
		<g>
			<g>
				<g>
					<path class="st1" d="M259.86,114.09c-10.6,0-19.23-8.63-19.23-19.23s8.63-19.23,19.23-19.23c20.04,0,36.34-16.3,36.34-36.34
						c0-10.6,8.63-19.23,19.23-19.23c10.6,0,19.23,8.63,19.23,19.23C334.66,80.53,301.1,114.09,259.86,114.09z M315.43,26.21
						c-7.21,0-13.08,5.87-13.08,13.08c0,23.43-19.06,42.49-42.49,42.49c-7.21,0-13.08,5.87-13.08,13.08
						c0,7.21,5.87,13.08,13.08,13.08c37.85,0,68.65-30.8,68.65-68.65C328.5,32.08,322.64,26.21,315.43,26.21z"/>
				</g>
			</g>
			<g>
				<path class="st0" d="M277.95,93.44c-3.04-4.93-2.41-11.1,1.14-15.3V39.29c0-10.6-8.63-19.23-19.23-19.23
					c-10.6,0-19.23,8.63-19.23,19.23v89.92c0,10.6,8.63,19.23,19.23,19.23c10.6,0,19.23-8.63,19.23-19.23V95.28L277.95,93.44z
					 M272.93,129.21c0,7.21-5.87,13.08-13.08,13.08c-7.21,0-13.08-5.87-13.08-13.08V39.29c0-7.21,5.87-13.08,13.08-13.08
					c7.21,0,13.08,5.87,13.08,13.08V129.21z"/>
			</g>
			<g>
				<g>
					<path class="st1" d="M315.43,58.52h-55.57c-10.6,0-19.23-8.63-19.23-19.23s8.63-19.23,19.23-19.23h55.57
						c10.6,0,19.23,8.63,19.23,19.23S326.03,58.52,315.43,58.52z M259.86,26.21c-7.21,0-13.08,5.87-13.08,13.08
						s5.87,13.08,13.08,13.08h55.57c7.21,0,13.08-5.87,13.08-13.08s-5.87-13.08-13.08-13.08H259.86z"/>
				</g>
			</g>
			<g>
				<g>
					<path class="st1" d="M259.86,104.16c-5.13,0-9.3-4.17-9.3-9.3c0-5.13,4.17-9.3,9.3-9.3c5.13,0,9.3,4.17,9.3,9.3
						C269.16,99.99,264.99,104.16,259.86,104.16z M259.86,91.71c-1.74,0-3.15,1.41-3.15,3.15c0,1.74,1.41,3.15,3.15,3.15
						S263,96.6,263,94.86C263,93.12,261.59,91.71,259.86,91.71z"/>
				</g>
			</g>
			<g>
				<g>
					<path class="st2" d="M259.86,48.59c-5.13,0-9.3-4.17-9.3-9.3c0-5.13,4.17-9.3,9.3-9.3c5.13,0,9.3,4.17,9.3,9.3
						C269.16,44.42,264.99,48.59,259.86,48.59z M259.86,36.14c-1.74,0-3.15,1.41-3.15,3.15c0,1.74,1.41,3.15,3.15,3.15
						s3.15-1.41,3.15-3.15C263,37.55,261.59,36.14,259.86,36.14z"/>
				</g>
			</g>
			<g>
				<g>
					<path class="st0" d="M315.28,48.59c-5.13,0-9.3-4.17-9.3-9.3c0-5.13,4.17-9.3,9.3-9.3s9.3,4.17,9.3,9.3
						C324.58,44.42,320.41,48.59,315.28,48.59z M315.28,36.14c-1.74,0-3.15,1.41-3.15,3.15c0,1.74,1.41,3.15,3.15,3.15
						s3.15-1.41,3.15-3.15C318.42,37.55,317.01,36.14,315.28,36.14z"/>
				</g>
			</g>
			<g>
				<g>
					<path class="st1" d="M289.12,95.93c-5.13,0-9.3-4.17-9.3-9.3c0-5.13,4.17-9.3,9.3-9.3c5.13,0,9.3,4.17,9.3,9.3
						C298.42,91.76,294.24,95.93,289.12,95.93z M289.12,83.48c-1.74,0-3.15,1.41-3.15,3.15s1.41,3.15,3.15,3.15
						c1.74,0,3.15-1.41,3.15-3.15S290.85,83.48,289.12,83.48z"/>
				</g>
			</g>
			<g>
				<g>
					<path class="st2" d="M315.44,148.44c-6.72,0-12.84-3.41-16.37-9.12l-26.36-42.64c-5.57-9.02-2.77-20.89,6.25-26.47
						c4.37-2.7,9.53-3.54,14.53-2.36c5,1.18,9.24,4.24,11.94,8.61l26.36,42.64c2.7,4.37,3.54,9.53,2.36,14.53
						c-1.18,5-4.24,9.24-8.61,11.94C322.5,147.45,319.01,148.44,315.44,148.44z M289.05,73.48c-2.4,0-4.76,0.67-6.85,1.96
						c-6.13,3.79-8.04,11.87-4.25,18l26.36,42.64c2.4,3.88,6.57,6.2,11.14,6.2c2.42,0,4.79-0.68,6.86-1.96
						c2.97-1.84,5.05-4.72,5.85-8.12c0.8-3.4,0.23-6.91-1.6-9.88L300.2,79.69c-1.84-2.97-4.72-5.05-8.12-5.85
						C291.07,73.6,290.06,73.48,289.05,73.48z"/>
				</g>
			</g>
		</g>
		<g>
			<path class="st2" d="M832.31,129.13V39.98c0-9.1-6.05-17.44-14.94-19.38c-12.49-2.73-23.57,6.76-23.57,18.79v89.75h0c0,0,0,0,0,0
				c0,0,0,0.01,0,0.01h0v0.29c0-0.05,0.01-0.09,0.01-0.14c0.05,4.98,1.99,9.52,5.15,12.92c3.52,3.79,8.54,6.16,14.1,6.16
				c5.57,0,10.58-2.38,14.1-6.16c3.19-3.43,5.15-8.03,5.15-13.07h0C832.31,129.14,832.32,129.13,832.31,129.13L832.31,129.13z
				 M826.15,129.13L826.15,129.13c-0.01,9.05-9.24,15.98-18.78,11.88c-4.64-1.99-7.41-6.83-7.41-11.88v0c0,0,0-6.73,0-13.8V39.9
				c0-6.29,4.2-12.07,10.36-13.33c8.41-1.72,15.84,4.7,15.84,12.82V129.13z"/>
			<path class="st1" d="M856.67,109.86h-24.36h-6.16h-13.1c-5.05,0-9.66,1.96-13.1,5.16c-3.79,3.52-6.16,8.54-6.16,14.1
				c0,10.62,8.64,19.26,19.26,19.26h43.61c10.62,0,19.26-8.64,19.26-19.26C875.93,118.5,867.29,109.86,856.67,109.86z
				 M856.67,142.22h-29.51h-14.1c-7.22,0-13.1-5.87-13.1-13.1c0-7.22,5.87-13.1,13.1-13.1h13.1h6.16h24.36
				c7.22,0,13.1,5.87,13.1,13.1C869.77,136.34,863.89,142.22,856.67,142.22z"/>
			<g>
				<path class="st0" d="M813.06,119.8c-5.14,0-9.32,4.18-9.32,9.32c0,5.14,4.18,9.32,9.32,9.32s9.32-4.18,9.32-9.32
					C822.37,123.98,818.19,119.8,813.06,119.8z M813.06,132.27c-1.74,0-3.15-1.41-3.15-3.15c0-1.74,1.41-3.15,3.15-3.15
					s3.15,1.41,3.15,3.15C816.21,130.86,814.79,132.27,813.06,132.27z"/>
			</g>
		</g>
		<g>
			<g>
				<path class="st2" d="M906.86,82.09h13.1v-6.16h-13.1c-5.05,0-9.66,1.96-13.1,5.16c-3.79,3.52-6.16,8.54-6.16,14.1
					c0,5.57,2.38,10.58,6.16,14.1c3.44,3.2,8.04,5.16,13.1,5.16h13.1v-6.16h-13.1c-7.22,0-13.1-5.87-13.1-13.1
					C893.77,87.97,899.64,82.09,906.86,82.09z"/>
				<path class="st2" d="M962.52,82.09h-13.1h-6.16h-17.14v-6.16h17.14h6.16h13.1c5.05,0,9.66,1.96,13.1,5.16
					c3.79,3.52,6.16,8.54,6.16,14.1c0,5.57-2.38,10.58-6.16,14.1c-3.44,3.2-8.04,5.16-13.1,5.16h-13.1h-6.16h-17.14v-6.16h17.14
					h6.16h13.1c7.22,0,13.1-5.87,13.1-13.1C975.62,87.97,969.74,82.09,962.52,82.09z"/>
			</g>
			<g>
				<path class="st0" d="M953.2,95.19c0,5.14,4.18,9.32,9.32,9.32s9.32-4.18,9.32-9.32c0-5.14-4.18-9.32-9.32-9.32
					S953.2,90.05,953.2,95.19z M959.37,95.19c0-1.74,1.41-3.15,3.15-3.15s3.15,1.41,3.15,3.15s-1.41,3.15-3.15,3.15
					S959.37,96.93,959.37,95.19z"/>
			</g>
			<g>
				<path class="st2" d="M897.55,95.19c0,5.14,4.18,9.32,9.32,9.32c5.14,0,9.32-4.18,9.32-9.32c0-5.14-4.18-9.32-9.32-9.32
					C901.73,85.87,897.55,90.05,897.55,95.19z M903.71,95.19c0-1.74,1.41-3.15,3.15-3.15s3.15,1.41,3.15,3.15s-1.41,3.15-3.15,3.15
					S903.71,96.93,903.71,95.19z"/>
			</g>
			<g>
				<path class="st1" d="M925.35,39.53c0,5.14,4.18,9.32,9.32,9.32c5.14,0,9.32-4.18,9.32-9.32s-4.18-9.32-9.32-9.32
					C929.53,30.22,925.35,34.39,925.35,39.53z M931.51,39.53c0-1.74,1.41-3.15,3.15-3.15c1.74,0,3.15,1.41,3.15,3.15
					s-1.41,3.15-3.15,3.15C932.93,42.68,931.51,41.27,931.51,39.53z"/>
			</g>
			<g>
				<path class="st0" d="M962.52,148.85c-10.62,0-19.26-8.64-19.26-19.26v-15.14h6.16v15.14c0,7.22,5.87,13.1,13.1,13.1
					c7.22,0,13.1-5.87,13.1-13.1v-20.29c3.79-3.52,6.16-8.54,6.16-14.1v34.4C981.78,140.21,973.14,148.85,962.52,148.85z"/>
				<path class="st0" d="M949.42,67.36v8.57h-6.16v-8.57c0-4.73-3.84-8.57-8.57-8.57v-6.16C942.82,52.63,949.42,59.24,949.42,67.36z
					"/>
				<path class="st0" d="M981.78,67.36v27.83c0-5.57-2.38-10.58-6.16-14.1V67.36c0-22.57-18.36-40.93-40.93-40.93v-6.16
					C960.66,20.27,981.78,41.4,981.78,67.36z"/>
			</g>
			<path class="st1" d="M887.6,67.36v27.83v34.4c0,10.62,8.64,19.26,19.26,19.26c10.62,0,19.26-8.64,19.26-19.26v-15.14v-6.16V82.09
				v-6.16v-8.57c0-4.73,3.84-8.57,8.57-8.57v0c5.04-0.01,9.64-1.96,13.07-5.15c3.79-3.52,6.16-8.54,6.16-14.1
				c0-5.57-2.38-10.58-6.16-14.1c-3.43-3.19-8.03-5.15-13.07-5.15v0c0,0-0.01,0-0.01,0c0,0-0.01,0-0.01,0v0
				C908.71,20.29,887.6,41.4,887.6,67.36z M893.77,67.36c0-22.56,18.35-40.92,40.91-40.92c7.22,0.01,13.09,5.88,13.09,13.1
				c0,7.22-5.87,13.1-13.1,13.1v0c-8.11,0.01-14.71,6.62-14.71,14.73v8.57v6.16v26.19v6.16v15.14c0,7.22-5.87,13.1-13.1,13.1
				c-7.22,0-13.1-5.87-13.1-13.1v-20.29v-14.1v-14.1V67.36z"/>
		</g>
		<g>
			<g>
				<g>
					<path class="st0" d="M701.79,114.33c-10.6,0-19.23-8.63-19.23-19.23s8.63-19.23,19.23-19.23c20.04,0,36.34-16.3,36.34-36.34
						c0-10.6,8.63-19.23,19.23-19.23s19.23,8.63,19.23,19.23C776.59,80.78,743.03,114.33,701.79,114.33z M757.36,26.46
						c-7.21,0-13.08,5.87-13.08,13.08c0,23.43-19.06,42.49-42.49,42.49c-7.21,0-13.08,5.87-13.08,13.08s5.87,13.08,13.08,13.08
						c37.85,0,68.65-30.8,68.65-68.65C770.43,32.32,764.57,26.46,757.36,26.46z"/>
				</g>
			</g>
			<g>
				<path class="st2" d="M719.88,93.68c-3.04-4.93-2.41-11.1,1.14-15.3V39.53c0-10.6-8.63-19.23-19.23-19.23
					s-19.23,8.63-19.23,19.23v89.92c0,10.6,8.63,19.23,19.23,19.23s19.23-8.63,19.23-19.23V95.52L719.88,93.68z M714.86,129.45
					c0,7.21-5.87,13.08-13.08,13.08s-13.08-5.87-13.08-13.08V39.53c0-7.21,5.87-13.08,13.08-13.08s13.08,5.87,13.08,13.08V129.45z"
					/>
			</g>
			<g>
				<g>
					<path class="st0" d="M757.36,58.76h-55.57c-10.6,0-19.23-8.63-19.23-19.23s8.63-19.23,19.23-19.23h55.57
						c10.6,0,19.23,8.63,19.23,19.23S767.96,58.76,757.36,58.76z M701.79,26.46c-7.21,0-13.08,5.87-13.08,13.08
						s5.87,13.08,13.08,13.08h55.57c7.21,0,13.08-5.87,13.08-13.08s-5.87-13.08-13.08-13.08H701.79z"/>
				</g>
			</g>
			<g>
				<g>
					<path class="st0" d="M701.79,104.41c-5.13,0-9.3-4.17-9.3-9.3s4.17-9.3,9.3-9.3c5.13,0,9.3,4.17,9.3,9.3
						S706.92,104.41,701.79,104.41z M701.79,91.95c-1.74,0-3.15,1.41-3.15,3.15s1.41,3.15,3.15,3.15s3.15-1.41,3.15-3.15
						S703.52,91.95,701.79,91.95z"/>
				</g>
			</g>
			<g>
				<g>
					<path class="st1" d="M701.79,48.83c-5.13,0-9.3-4.17-9.3-9.3c0-5.13,4.17-9.3,9.3-9.3c5.13,0,9.3,4.17,9.3,9.3
						C711.09,44.66,706.92,48.83,701.79,48.83z M701.79,36.38c-1.74,0-3.15,1.41-3.15,3.15s1.41,3.15,3.15,3.15s3.15-1.41,3.15-3.15
						S703.52,36.38,701.79,36.38z"/>
				</g>
			</g>
			<g>
				<g>
					<path class="st2" d="M757.21,48.83c-5.13,0-9.3-4.17-9.3-9.3c0-5.13,4.17-9.3,9.3-9.3c5.13,0,9.3,4.17,9.3,9.3
						C766.51,44.66,762.34,48.83,757.21,48.83z M757.21,36.38c-1.74,0-3.15,1.41-3.15,3.15s1.41,3.15,3.15,3.15s3.15-1.41,3.15-3.15
						S758.94,36.38,757.21,36.38z"/>
				</g>
			</g>
			<g>
				<g>
					<path class="st2" d="M731.05,96.18c-5.13,0-9.3-4.17-9.3-9.3c0-5.13,4.17-9.3,9.3-9.3c5.13,0,9.3,4.17,9.3,9.3
						C740.35,92,736.18,96.18,731.05,96.18z M731.05,83.73c-1.74,0-3.15,1.41-3.15,3.15c0,1.74,1.41,3.15,3.15,3.15
						s3.15-1.41,3.15-3.15C734.2,85.14,732.78,83.73,731.05,83.73z"/>
				</g>
			</g>
			<g>
				<g>
					<path class="st1" d="M757.38,148.68c-6.72,0-12.84-3.41-16.37-9.12l-26.36-42.64c-5.57-9.02-2.77-20.89,6.25-26.47
						c4.37-2.7,9.53-3.54,14.53-2.36c5,1.18,9.24,4.24,11.94,8.61l26.36,42.64c2.7,4.37,3.54,9.53,2.36,14.53s-4.24,9.24-8.61,11.94
						C764.43,147.69,760.94,148.68,757.38,148.68z M730.98,73.73c-2.4,0-4.76,0.67-6.85,1.96c-6.13,3.79-8.04,11.87-4.25,18
						l26.36,42.64c2.4,3.88,6.57,6.2,11.14,6.2c2.42,0,4.79-0.68,6.86-1.96c2.97-1.84,5.05-4.72,5.85-8.12
						c0.8-3.4,0.23-6.91-1.6-9.88l-26.36-42.64c-1.84-2.97-4.72-5.05-8.12-5.85C733,73.84,731.99,73.73,730.98,73.73z"/>
				</g>
			</g>
		</g>
		<g>
			<g>
				<g>
					<path class="st2" d="M370.84,147.94c-10.56,0-19.16-8.59-19.16-19.16V39.21c0-10.56,8.59-19.16,19.16-19.16
						S390,28.65,390,39.21v89.57C390,139.35,381.4,147.94,370.84,147.94z M370.84,26.19c-7.18,0-13.03,5.84-13.03,13.03v89.57
						c0,7.18,5.84,13.03,13.03,13.03s13.03-5.84,13.03-13.03V39.21C383.87,32.03,378.02,26.19,370.84,26.19z"/>
				</g>
			</g>
			<g>
				<g>
					<path class="st1" d="M370.84,48.48c-5.11,0-9.27-4.16-9.27-9.27c0-5.11,4.16-9.27,9.27-9.27c5.11,0,9.27,4.16,9.27,9.27
						C380.11,44.32,375.95,48.48,370.84,48.48z M370.84,36.08c-1.73,0-3.14,1.41-3.14,3.14c0,1.73,1.41,3.14,3.14,3.14
						s3.14-1.41,3.14-3.14C373.98,37.49,372.57,36.08,370.84,36.08z"/>
				</g>
			</g>
			<g>
				<g>
					<path class="st0" d="M370.84,138.05c-5.11,0-9.27-4.16-9.27-9.27c0-5.11,4.16-9.27,9.27-9.27c5.11,0,9.27,4.16,9.27,9.27
						C380.11,133.89,375.95,138.05,370.84,138.05z M370.84,125.65c-1.73,0-3.14,1.41-3.14,3.14c0,1.73,1.41,3.14,3.14,3.14
						s3.14-1.41,3.14-3.14C373.98,127.06,372.57,125.65,370.84,125.65z"/>
				</g>
			</g>
			<g>
				<g>
					<path class="st2" d="M426.2,92.25c-5.11,0-9.27-4.16-9.27-9.27s4.16-9.27,9.27-9.27c5.11,0,9.27,4.16,9.27,9.27
						S431.31,92.25,426.2,92.25z M426.2,79.85c-1.73,0-3.14,1.41-3.14,3.14s1.41,3.14,3.14,3.14c1.73,0,3.14-1.41,3.14-3.14
						S427.93,79.85,426.2,79.85z"/>
				</g>
			</g>
			<path class="st0" d="M398.52,20.06h-27.68c-10.56,0-19.16,8.59-19.16,19.16s8.59,19.16,19.16,19.16h27.68
				c4.7,0,8.52,3.82,8.52,8.52v16.09l0,0c0,10.56,8.59,19.16,19.16,19.16c10.56,0,19.16-8.59,19.16-19.16l0,0V66.89
				C445.36,41.07,424.35,20.06,398.52,20.06z M439.23,66.89v16.09c0,7.18-5.84,13.03-13.03,13.03c-7.18,0-13.03-5.84-13.03-13.03
				V66.89c0-8.08-6.57-14.65-14.65-14.65h-27.68c-7.18,0-13.03-5.84-13.03-13.03s5.84-13.03,13.03-13.03h27.68
				C420.97,26.19,439.23,44.45,439.23,66.89L439.23,66.89z"/>
			<path class="st1" d="M426.2,63.83c-10.56,0-19.16,8.59-19.16,19.16v18.12c0,4.7-3.82,8.52-8.52,8.52h-27.68
				c-10.56,0-19.16,8.59-19.16,19.16s8.59,19.16,19.16,19.16h27.68c25.83,0,46.84-21.01,46.84-46.84V82.98
				C445.36,72.42,436.76,63.83,426.2,63.83z M439.23,101.11c0,22.44-18.26,40.71-40.71,40.71h-27.68c-7.18,0-13.03-5.84-13.03-13.03
				c0-7.18,5.84-13.03,13.03-13.03h27.68c8.08,0,14.65-6.57,14.65-14.65V82.98c0-7.18,5.84-13.03,13.03-13.03
				c7.18,0,13.03,5.84,13.03,13.03V101.11z"/>
		</g>
		<g>
			<path class="st0" d="M644.41,81.81h-13.1v-6.16h13.1c5.05,0,9.66,1.96,13.1,5.16c3.79,3.52,6.16,8.54,6.16,14.1
				c0,5.57-2.38,10.58-6.16,14.1c-3.44,3.2-8.04,5.16-13.1,5.16h-13.1v-6.16h13.1c7.22,0,13.1-5.87,13.1-13.1
				C657.51,87.69,651.63,81.81,644.41,81.81z"/>
			<path class="st0" d="M588.75,81.81h13.1h6.16h17.14v-6.16h-17.14h-6.16h-13.1c-5.05,0-9.66,1.96-13.1,5.16
				c-3.79,3.52-6.16,8.54-6.16,14.1c0,5.57,2.38,10.58,6.16,14.1c3.44,3.2,8.04,5.16,13.1,5.16h13.1h6.16h17.14v-6.16h-17.14h-6.16
				h-13.1c-7.22,0-13.1-5.87-13.1-13.1C575.66,87.69,581.53,81.81,588.75,81.81z"/>
			<g>
				<path class="st1" d="M588.75,85.59c-5.14,0-9.32,4.18-9.32,9.32c0,5.14,4.18,9.32,9.32,9.32c5.14,0,9.32-4.18,9.32-9.32
					C598.07,89.77,593.89,85.59,588.75,85.59z M588.75,98.06c-1.74,0-3.15-1.41-3.15-3.15s1.41-3.15,3.15-3.15s3.15,1.41,3.15,3.15
					S590.49,98.06,588.75,98.06z"/>
			</g>
			<g>
				<path class="st2" d="M644.41,85.59c-5.14,0-9.32,4.18-9.32,9.32c0,5.14,4.18,9.32,9.32,9.32c5.14,0,9.32-4.18,9.32-9.32
					C653.73,89.77,649.55,85.59,644.41,85.59z M644.41,98.06c-1.74,0-3.15-1.41-3.15-3.15s1.41-3.15,3.15-3.15s3.15,1.41,3.15,3.15
					S646.15,98.06,644.41,98.06z"/>
			</g>
			<g>
				<path class="st2" d="M616.61,29.94c-5.14,0-9.32,4.18-9.32,9.32s4.18,9.32,9.32,9.32c5.14,0,9.32-4.18,9.32-9.32
					S621.74,29.94,616.61,29.94z M616.61,42.41c-1.74,0-3.15-1.41-3.15-3.15s1.41-3.15,3.15-3.15s3.15,1.41,3.15,3.15
					S618.35,42.41,616.61,42.41z"/>
			</g>
			<g>
				<path class="st1" d="M588.75,148.57c10.62,0,19.26-8.64,19.26-19.26v-15.14h-6.16v15.14c0,7.22-5.87,13.1-13.1,13.1
					s-13.1-5.87-13.1-13.1v-20.29c-3.79-3.52-6.16-8.54-6.16-14.1v34.4C569.49,139.93,578.13,148.57,588.75,148.57z"/>
				<path class="st1" d="M601.85,67.08v8.57h6.16v-8.57c0-4.73,3.84-8.57,8.57-8.57v-6.16C608.46,52.35,601.85,58.96,601.85,67.08z"
					/>
				<path class="st1" d="M569.49,67.08v27.83c0-5.57,2.38-10.58,6.16-14.1V67.08c0-22.57,18.36-40.93,40.93-40.93v-6.16
					C590.62,19.99,569.49,41.12,569.49,67.08z"/>
			</g>
			<path class="st2" d="M616.61,20L616.61,20c0,0-0.01,0-0.01,0c0,0-0.01,0-0.01,0v0c-5.04,0.01-9.64,1.96-13.07,5.15
				c-3.79,3.52-6.16,8.54-6.16,14.1c0,5.57,2.38,10.58,6.16,14.1c3.43,3.19,8.03,5.15,13.07,5.15v0c4.73,0,8.57,3.84,8.57,8.57v8.57
				v6.16v26.19v6.16v15.14c0,10.62,8.64,19.26,19.26,19.26c10.62,0,19.26-8.64,19.26-19.26v-34.4V67.08
				C663.67,41.13,642.56,20.01,616.61,20z M657.51,80.81v14.1v14.1v20.29c0,7.22-5.87,13.1-13.1,13.1s-13.1-5.87-13.1-13.1v-15.14
				v-6.16V81.81v-6.16v-8.57c0-8.12-6.6-14.72-14.71-14.73v0c-7.22,0-13.1-5.87-13.1-13.1c0-7.22,5.87-13.09,13.09-13.1
				c22.56,0.01,40.91,18.36,40.91,40.92V80.81z"/>
		</g>
		<g>
			<g>
				<g>
					<path class="st0" d="M535.7,58.38h-55.05c-10.5,0-19.05-8.54-19.05-19.05s8.54-19.05,19.05-19.05h55.05
						c10.5,0,19.05,8.54,19.05,19.05S546.2,58.38,535.7,58.38z M480.65,26.38c-7.14,0-12.95,5.81-12.95,12.95
						s5.81,12.95,12.95,12.95h55.05c7.14,0,12.95-5.81,12.95-12.95s-5.81-12.95-12.95-12.95H480.65z"/>
				</g>
			</g>
			<g>
				<g>
					<path class="st1" d="M535.7,147.44h-55.05c-10.5,0-19.05-8.54-19.05-19.05s8.54-19.05,19.05-19.05h55.05
						c10.5,0,19.05,8.54,19.05,19.05S546.2,147.44,535.7,147.44z M480.65,115.44c-7.14,0-12.95,5.81-12.95,12.95
						c0,7.14,5.81,12.95,12.95,12.95h55.05c7.14,0,12.95-5.81,12.95-12.95c0-7.14-5.81-12.95-12.95-12.95H480.65z"/>
				</g>
			</g>
			<g>
				<g>
					<path class="st2" d="M480.65,147.44c-10.5,0-19.05-8.54-19.05-19.05V39.33c0-10.5,8.54-19.05,19.05-19.05
						s19.05,8.54,19.05,19.05v89.06C499.7,138.9,491.15,147.44,480.65,147.44z M480.65,26.38c-7.14,0-12.95,5.81-12.95,12.95v89.06
						c0,7.14,5.81,12.95,12.95,12.95s12.95-5.81,12.95-12.95V39.33C493.6,32.19,487.79,26.38,480.65,26.38z"/>
				</g>
			</g>
			<g>
				<g>
					<g>
						<path class="st1" d="M514.67,103.02h-34.02c-10.5,0-19.05-8.54-19.05-19.05s8.54-19.05,19.05-19.05h34.02
							c10.5,0,19.05,8.54,19.05,19.05S525.17,103.02,514.67,103.02z M480.65,71.02c-7.14,0-12.95,5.81-12.95,12.95
							s5.81,12.95,12.95,12.95h34.02c7.14,0,12.95-5.81,12.95-12.95s-5.81-12.95-12.95-12.95H480.65z"/>
					</g>
				</g>
				<g>
					<g>
						<path class="st0" d="M480.65,93.19c-5.08,0-9.21-4.13-9.21-9.21s4.13-9.21,9.21-9.21c5.08,0,9.21,4.13,9.21,9.21
							S485.73,93.19,480.65,93.19z M480.65,80.85c-1.72,0-3.12,1.4-3.12,3.12c0,1.72,1.4,3.12,3.12,3.12c1.72,0,3.12-1.4,3.12-3.12
							C483.77,82.25,482.37,80.85,480.65,80.85z"/>
					</g>
				</g>
			</g>
			<g>
				<g>
					<path class="st2" d="M480.65,48.54c-5.08,0-9.21-4.13-9.21-9.21s4.13-9.21,9.21-9.21c5.08,0,9.21,4.13,9.21,9.21
						S485.73,48.54,480.65,48.54z M480.65,36.21c-1.72,0-3.12,1.4-3.12,3.12c0,1.72,1.4,3.12,3.12,3.12c1.72,0,3.12-1.4,3.12-3.12
						C483.77,37.61,482.37,36.21,480.65,36.21z"/>
				</g>
			</g>
			<g>
				<g>
					<path class="st2" d="M480.65,137.61c-5.08,0-9.21-4.13-9.21-9.21s4.13-9.21,9.21-9.21c5.08,0,9.21,4.13,9.21,9.21
						S485.73,137.61,480.65,137.61z M480.65,125.28c-1.72,0-3.12,1.4-3.12,3.12s1.4,3.12,3.12,3.12c1.72,0,3.12-1.4,3.12-3.12
						S482.37,125.28,480.65,125.28z"/>
				</g>
			</g>
		</g>
	</g>
</g>
</svg>
