<?xml version="1.0" encoding="utf-8"?>
<!-- Generator: Adobe Illustrator 28.2.0, SVG Export Plug-In . SVG Version: 6.00 Build 0)  -->
<svg version="1.1" id="Layer_1" xmlns="http://www.w3.org/2000/svg" xmlns:xlink="http://www.w3.org/1999/xlink" x="0px" y="0px"
	 viewBox="0 0 1014 181" style="enable-background:new 0 0 1014 181;" xml:space="preserve">
<style type="text/css">
	.st0{fill:#48A19F;}
	.st1{fill:#EA4746;}
	.st2{fill:#F3B43F;}
</style>
<g>
	<path d="M940.9,6.7c-36.8,0-66.9,30-66.9,66.9c0,0,0,24.3,0,24.3c-4.8-1.6-10.5-1.7-15.7-1.6V46.2c0.2-35.2-42.8-53-67-27.9
		c-7.1-7.2-16.9-11.6-27.7-11.6H708c-15.5,0-28.9,9.1-35.2,22.2c-24-28.5-71.6-30-97.3-2.9c-6.7-11.6-19.3-19.4-33.6-19.4h-55
		c-14.7,0-27.5,8.2-34.1,20.3c-12.1-12.6-29.2-20.5-48-20.5c-19.8,0.8-40.2-4.3-55.4,11.6c-7.1-7.2-16.9-11.6-27.7-11.6h-55.6
		c-10.7,0-20.3,4.3-27.4,11.2c-7-6.6-16.4-10.7-26.8-10.7h-55c-10.8,0-20.6,4.4-27.6,11.5c-14.2-16-41.5-16.4-56.2-0.8
		C52.6-3.3,16.3,5.7,8,33.9C4.8,37,7,128.5,6.4,134.8c-0.3,34.6,42.9,52,66.7,27.4c14.5,15.5,41.6,15.3,55.8-0.4
		c7.1,7.3,17,11.9,28,11.9h55c10.3,0,19.7-4,26.7-10.6c14.3,15.1,41.1,14.9,55.2-0.3c14.4,15.4,41.4,15.3,55.8-0.2
		c7,7,16.7,11.3,27.4,11.3h27.7c18.9,0,36-7.9,48.1-20.6c6.6,12,19.4,20.1,34,20.1h55c9.9,0,19-3.8,25.9-9.9
		c14.4,14.8,41,14.5,55-0.6c14.7,15.8,42.3,15.3,56.5-0.8c14.2,16.3,41.7,16.8,56.5,1c14.4,15.4,41.4,15.3,55.8-0.2
		c7.3,7.4,17.5,11.6,27.7,11.5c0,0,43.6,0,43.6,0c9.4,0,18.1-3.4,24.8-8.9c14.6,13.3,39.8,12.1,53.2-2.3
		c23.8,24.7,67.1,7.3,66.9-27.4c0,0,0-62.2,0-62.2C1007.8,36.7,977.8,6.7,940.9,6.7z"/>
	<g>
		<g>
			<path class="st0" d="M45.4,154c-10.6,0-19.2-8.6-19.2-19.2V45.1c0-10.6,8.6-19.2,19.2-19.2s19.2,8.6,19.2,19.2v89.7
				C64.6,145.4,55.9,154,45.4,154z M45.4,32c-7.2,0-13,5.9-13,13v89.7c0,7.2,5.9,13,13,13s13-5.9,13-13V45.1
				C58.4,37.9,52.6,32,45.4,32z"/>
		</g>
	</g>
	<g>
		<g>
			<path class="st1" d="M100.8,154c-10.6,0-19.2-8.6-19.2-19.2V45.1c0-10.6,8.6-19.2,19.2-19.2S120,34.5,120,45.1v89.7
				C120,145.4,111.4,154,100.8,154z M100.8,32c-7.2,0-13,5.9-13,13v89.7c0,7.2,5.9,13,13,13s13-5.9,13-13V45.1
				C113.9,37.9,108,32,100.8,32z"/>
		</g>
	</g>
	<g>
		<g>
			<path class="st2" d="M100.8,119.7c-5.1,0-9.9-2-13.6-5.6L31.8,58.6c-7.5-7.5-7.5-19.7,0-27.1c3.6-3.6,8.4-5.6,13.6-5.6
				c5.1,0,9.9,2,13.6,5.6L114.4,87c7.5,7.5,7.5,19.7,0,27.1C110.8,117.7,105.9,119.7,100.8,119.7z M45.4,32c-3.5,0-6.8,1.4-9.2,3.8
				c-5.1,5.1-5.1,13.4,0,18.5l55.4,55.4c2.5,2.5,5.7,3.8,9.2,3.8s6.8-1.4,9.2-3.8c5.1-5.1,5.1-13.4,0-18.5L54.6,35.9
				C52.1,33.4,48.9,32,45.4,32z"/>
		</g>
	</g>
	<g>
		<g>
			<path class="st0" d="M45.4,54.4c-5.1,0-9.3-4.2-9.3-9.3s4.2-9.3,9.3-9.3c5.1,0,9.3,4.2,9.3,9.3S50.5,54.4,45.4,54.4z M45.4,41.9
				c-1.7,0-3.1,1.4-3.1,3.1s1.4,3.1,3.1,3.1s3.1-1.4,3.1-3.1S47.1,41.9,45.4,41.9z"/>
		</g>
	</g>
	<g>
		<g>
			<path class="st1" d="M100.8,109.8c-5.1,0-9.3-4.2-9.3-9.3s4.2-9.3,9.3-9.3s9.3,4.2,9.3,9.3S105.9,109.8,100.8,109.8z M100.8,97.4
				c-1.7,0-3.1,1.4-3.1,3.1c0,1.7,1.4,3.1,3.1,3.1s3.1-1.4,3.1-3.1C104,98.8,102.5,97.4,100.8,97.4z"/>
		</g>
	</g>
	<g>
		<g>
			<path class="st2" d="M211.9,64.8h-55c-10.5,0-19-8.5-19-19s8.5-19,19-19h55c10.5,0,19,8.5,19,19S222.4,64.8,211.9,64.8z
				 M156.9,32.8c-7.1,0-13,5.8-13,13s5.8,13,13,13h55c7.1,0,13-5.8,13-13s-5.8-13-13-13H156.9z"/>
		</g>
	</g>
	<g>
		<g>
			<path class="st0" d="M211.9,153.9h-55c-10.5,0-19-8.5-19-19s8.5-19,19-19h55c10.5,0,19,8.5,19,19S222.4,153.9,211.9,153.9z
				 M156.9,121.9c-7.1,0-13,5.8-13,13s5.8,13,13,13h55c7.1,0,13-5.8,13-13s-5.8-13-13-13H156.9z"/>
		</g>
	</g>
	<g>
		<g>
			<path class="st1" d="M156.9,153.9c-10.5,0-19-8.5-19-19V45.8c0-10.5,8.5-19,19-19c10.5,0,19,8.5,19,19v89.1
				C175.9,145.4,167.4,153.9,156.9,153.9z M156.9,32.8c-7.1,0-13,5.8-13,13v89.1c0,7.1,5.8,13,13,13s13-5.8,13-13V45.8
				C169.8,38.6,164,32.8,156.9,32.8z"/>
		</g>
	</g>
	<g>
		<g>
			<g>
				<path class="st0" d="M190.9,109.5h-34c-10.5,0-19-8.5-19-19s8.5-19,19-19h34c10.5,0,19,8.5,19,19S201.4,109.5,190.9,109.5z
					 M156.9,77.5c-7.1,0-13,5.8-13,13s5.8,13,13,13h34c7.1,0,13-5.8,13-13s-5.8-13-13-13H156.9z"/>
			</g>
		</g>
		<g>
			<g>
				<path class="st2" d="M156.9,99.6c-5.1,0-9.2-4.1-9.2-9.2s4.1-9.2,9.2-9.2s9.2,4.1,9.2,9.2S162,99.6,156.9,99.6z M156.9,87.3
					c-1.7,0-3.1,1.4-3.1,3.1s1.4,3.1,3.1,3.1c1.7,0,3.1-1.4,3.1-3.1S158.6,87.3,156.9,87.3z"/>
			</g>
		</g>
	</g>
	<g>
		<g>
			<path class="st1" d="M156.9,55c-5.1,0-9.2-4.1-9.2-9.2s4.1-9.2,9.2-9.2s9.2,4.1,9.2,9.2S162,55,156.9,55z M156.9,42.7
				c-1.7,0-3.1,1.4-3.1,3.1c0,1.7,1.4,3.1,3.1,3.1c1.7,0,3.1-1.4,3.1-3.1C160,44.1,158.6,42.7,156.9,42.7z"/>
		</g>
	</g>
	<g>
		<g>
			<path class="st1" d="M156.9,144.1c-5.1,0-9.2-4.1-9.2-9.2s4.1-9.2,9.2-9.2s9.2,4.1,9.2,9.2S162,144.1,156.9,144.1z M156.9,131.7
				c-1.7,0-3.1,1.4-3.1,3.1c0,1.7,1.4,3.1,3.1,3.1c1.7,0,3.1-1.4,3.1-3.1C160,133.1,158.6,131.7,156.9,131.7z"/>
		</g>
	</g>
	<g>
		<g>
			<g>
				<path class="st1" d="M266.1,120.3c-10.6,0-19.2-8.6-19.2-19.2s8.6-19.2,19.2-19.2c20,0,36.3-16.3,36.3-36.3
					c0-10.6,8.6-19.2,19.2-19.2s19.2,8.6,19.2,19.2C340.9,86.7,307.3,120.3,266.1,120.3z M321.6,32.4c-7.2,0-13.1,5.9-13.1,13.1
					c0,23.4-19.1,42.5-42.5,42.5c-7.2,0-13.1,5.9-13.1,13.1c0,7.2,5.9,13.1,13.1,13.1c37.9,0,68.6-30.8,68.6-68.6
					C334.7,38.3,328.8,32.4,321.6,32.4z"/>
			</g>
		</g>
		<g>
			<path class="st0" d="M284.2,99.6c-3-4.9-2.4-11.1,1.1-15.3V45.5c0-10.6-8.6-19.2-19.2-19.2c-10.6,0-19.2,8.6-19.2,19.2v89.9
				c0,10.6,8.6,19.2,19.2,19.2c10.6,0,19.2-8.6,19.2-19.2v-33.9L284.2,99.6z M279.1,135.4c0,7.2-5.9,13.1-13.1,13.1
				c-7.2,0-13.1-5.9-13.1-13.1V45.5c0-7.2,5.9-13.1,13.1-13.1c7.2,0,13.1,5.9,13.1,13.1V135.4z"/>
		</g>
		<g>
			<g>
				<path class="st1" d="M321.6,64.7h-55.6c-10.6,0-19.2-8.6-19.2-19.2s8.6-19.2,19.2-19.2h55.6c10.6,0,19.2,8.6,19.2,19.2
					S332.2,64.7,321.6,64.7z M266.1,32.4c-7.2,0-13.1,5.9-13.1,13.1s5.9,13.1,13.1,13.1h55.6c7.2,0,13.1-5.9,13.1-13.1
					s-5.9-13.1-13.1-13.1H266.1z"/>
			</g>
		</g>
		<g>
			<g>
				<path class="st1" d="M266.1,110.3c-5.1,0-9.3-4.2-9.3-9.3s4.2-9.3,9.3-9.3c5.1,0,9.3,4.2,9.3,9.3S271.2,110.3,266.1,110.3z
					 M266.1,97.9c-1.7,0-3.1,1.4-3.1,3.1s1.4,3.1,3.1,3.1c1.7,0,3.1-1.4,3.1-3.1S267.8,97.9,266.1,97.9z"/>
			</g>
		</g>
		<g>
			<g>
				<path class="st2" d="M266.1,54.8c-5.1,0-9.3-4.2-9.3-9.3c0-5.1,4.2-9.3,9.3-9.3c5.1,0,9.3,4.2,9.3,9.3
					C275.4,50.6,271.2,54.8,266.1,54.8z M266.1,42.3c-1.7,0-3.1,1.4-3.1,3.1c0,1.7,1.4,3.1,3.1,3.1c1.7,0,3.1-1.4,3.1-3.1
					C269.2,43.7,267.8,42.3,266.1,42.3z"/>
			</g>
		</g>
		<g>
			<g>
				<path class="st0" d="M321.5,54.8c-5.1,0-9.3-4.2-9.3-9.3c0-5.1,4.2-9.3,9.3-9.3c5.1,0,9.3,4.2,9.3,9.3
					C330.8,50.6,326.6,54.8,321.5,54.8z M321.5,42.3c-1.7,0-3.1,1.4-3.1,3.1c0,1.7,1.4,3.1,3.1,3.1c1.7,0,3.1-1.4,3.1-3.1
					C324.6,43.7,323.2,42.3,321.5,42.3z"/>
			</g>
		</g>
		<g>
			<g>
				<path class="st1" d="M295.3,102.1c-5.1,0-9.3-4.2-9.3-9.3c0-5.1,4.2-9.3,9.3-9.3c5.1,0,9.3,4.2,9.3,9.3
					C304.6,97.9,300.5,102.1,295.3,102.1z M295.3,89.7c-1.7,0-3.1,1.4-3.1,3.1s1.4,3.1,3.1,3.1c1.7,0,3.1-1.4,3.1-3.1
					S297.1,89.7,295.3,89.7z"/>
			</g>
		</g>
		<g>
			<g>
				<path class="st2" d="M321.7,154.6c-6.7,0-12.8-3.4-16.4-9.1l-26.4-42.6c-5.6-9-2.8-20.9,6.2-26.5c4.4-2.7,9.5-3.5,14.5-2.4
					c5,1.2,9.2,4.2,11.9,8.6l26.4,42.6c2.7,4.4,3.5,9.5,2.4,14.5c-1.2,5-4.2,9.2-8.6,11.9C328.7,153.6,325.2,154.6,321.7,154.6z
					 M295.3,79.7c-2.4,0-4.8,0.7-6.8,2c-6.1,3.8-8,11.9-4.2,18l26.4,42.6c2.4,3.9,6.6,6.2,11.1,6.2c2.4,0,4.8-0.7,6.9-2
					c3-1.8,5-4.7,5.9-8.1c0.8-3.4,0.2-6.9-1.6-9.9l-26.4-42.6c-1.8-3-4.7-5-8.1-5.9C297.3,79.8,296.3,79.7,295.3,79.7z"/>
			</g>
		</g>
	</g>
	<g>
		<path class="st2" d="M838.5,135.3V46.2c0-9.1-6-17.4-14.9-19.4C811.1,24,800,33.5,800,45.6v89.7h0c0,0,0,0,0,0c0,0,0,0,0,0h0v0.3
			c0,0,0-0.1,0-0.1c0,5,2,9.5,5.1,12.9c3.5,3.8,8.5,6.2,14.1,6.2c5.6,0,10.6-2.4,14.1-6.2C836.6,145,838.5,140.4,838.5,135.3
			L838.5,135.3C838.5,135.3,838.5,135.3,838.5,135.3L838.5,135.3z M832.4,135.3L832.4,135.3c0,9-9.2,16-18.8,11.9
			c-4.6-2-7.4-6.8-7.4-11.9v0c0,0,0-6.7,0-13.8V46.1c0-6.3,4.2-12.1,10.4-13.3c8.4-1.7,15.8,4.7,15.8,12.8V135.3z"/>
		<path class="st1" d="M862.9,116h-24.4h-6.2h-13.1c-5.1,0-9.7,2-13.1,5.2c-3.8,3.5-6.2,8.5-6.2,14.1c0,10.6,8.6,19.3,19.3,19.3
			h43.6c10.6,0,19.3-8.6,19.3-19.3S873.5,116,862.9,116z M862.9,148.4h-29.5h-14.1c-7.2,0-13.1-5.9-13.1-13.1s5.9-13.1,13.1-13.1
			h13.1h6.2h24.4c7.2,0,13.1,5.9,13.1,13.1S870.1,148.4,862.9,148.4z"/>
		<g>
			<path class="st0" d="M819.3,126c-5.1,0-9.3,4.2-9.3,9.3c0,5.1,4.2,9.3,9.3,9.3s9.3-4.2,9.3-9.3C828.6,130.2,824.4,126,819.3,126z
				 M819.3,138.5c-1.7,0-3.2-1.4-3.2-3.2c0-1.7,1.4-3.2,3.2-3.2s3.2,1.4,3.2,3.2C822.4,137,821,138.5,819.3,138.5z"/>
		</g>
	</g>
	<g>
		<g>
			<path class="st2" d="M913.1,88.3h13.1v-6.2h-13.1c-5.1,0-9.7,2-13.1,5.2c-3.8,3.5-6.2,8.5-6.2,14.1c0,5.6,2.4,10.6,6.2,14.1
				c3.4,3.2,8,5.2,13.1,5.2h13.1v-6.2h-13.1c-7.2,0-13.1-5.9-13.1-13.1C900,94.1,905.9,88.3,913.1,88.3z"/>
			<path class="st2" d="M968.7,88.3h-13.1h-6.2h-17.1v-6.2h17.1h6.2h13.1c5.1,0,9.7,2,13.1,5.2c3.8,3.5,6.2,8.5,6.2,14.1
				c0,5.6-2.4,10.6-6.2,14.1c-3.4,3.2-8,5.2-13.1,5.2h-13.1h-6.2h-17.1v-6.2h17.1h6.2h13.1c7.2,0,13.1-5.9,13.1-13.1
				C981.8,94.1,976,88.3,968.7,88.3z"/>
		</g>
		<g>
			<path class="st0" d="M959.4,101.4c0,5.1,4.2,9.3,9.3,9.3c5.1,0,9.3-4.2,9.3-9.3s-4.2-9.3-9.3-9.3
				C963.6,92.1,959.4,96.2,959.4,101.4z M965.6,101.4c0-1.7,1.4-3.2,3.2-3.2s3.2,1.4,3.2,3.2s-1.4,3.2-3.2,3.2
				S965.6,103.1,965.6,101.4z"/>
		</g>
		<g>
			<path class="st2" d="M903.8,101.4c0,5.1,4.2,9.3,9.3,9.3c5.1,0,9.3-4.2,9.3-9.3s-4.2-9.3-9.3-9.3
				C907.9,92.1,903.8,96.2,903.8,101.4z M909.9,101.4c0-1.7,1.4-3.2,3.2-3.2c1.7,0,3.2,1.4,3.2,3.2s-1.4,3.2-3.2,3.2
				C911.3,104.5,909.9,103.1,909.9,101.4z"/>
		</g>
		<g>
			<path class="st1" d="M931.6,45.7c0,5.1,4.2,9.3,9.3,9.3c5.1,0,9.3-4.2,9.3-9.3s-4.2-9.3-9.3-9.3
				C935.7,36.4,931.6,40.6,931.6,45.7z M937.7,45.7c0-1.7,1.4-3.2,3.2-3.2s3.2,1.4,3.2,3.2s-1.4,3.2-3.2,3.2S937.7,47.5,937.7,45.7z
				"/>
		</g>
		<g>
			<path class="st0" d="M968.7,155c-10.6,0-19.3-8.6-19.3-19.3v-15.1h6.2v15.1c0,7.2,5.9,13.1,13.1,13.1c7.2,0,13.1-5.9,13.1-13.1
				v-20.3c3.8-3.5,6.2-8.5,6.2-14.1v34.4C988,146.4,979.3,155,968.7,155z"/>
			<path class="st0" d="M955.6,73.5v8.6h-6.2v-8.6c0-4.7-3.8-8.6-8.6-8.6v-6.2C949,58.8,955.6,65.4,955.6,73.5z"/>
			<path class="st0" d="M988,73.5v27.8c0-5.6-2.4-10.6-6.2-14.1V73.5c0-22.6-18.4-40.9-40.9-40.9v-6.2C966.9,26.5,988,47.6,988,73.5
				z"/>
		</g>
		<path class="st1" d="M893.8,73.5v27.8v34.4c0,10.6,8.6,19.3,19.3,19.3c10.6,0,19.3-8.6,19.3-19.3v-15.1v-6.2V88.3v-6.2v-8.6
			c0-4.7,3.8-8.6,8.6-8.6v0c5,0,9.6-2,13.1-5.2c3.8-3.5,6.2-8.5,6.2-14.1c0-5.6-2.4-10.6-6.2-14.1c-3.4-3.2-8-5.1-13.1-5.2v0
			c0,0,0,0,0,0c0,0,0,0,0,0v0C914.9,26.5,893.8,47.6,893.8,73.5z M900,73.5c0-22.6,18.4-40.9,40.9-40.9c7.2,0,13.1,5.9,13.1,13.1
			c0,7.2-5.9,13.1-13.1,13.1v0c-8.1,0-14.7,6.6-14.7,14.7v8.6v6.2v26.2v6.2v15.1c0,7.2-5.9,13.1-13.1,13.1
			c-7.2,0-13.1-5.9-13.1-13.1v-20.3v-14.1V87.3V73.5z"/>
	</g>
	<g>
		<g>
			<g>
				<path class="st0" d="M708,120.5c-10.6,0-19.2-8.6-19.2-19.2s8.6-19.2,19.2-19.2c20,0,36.3-16.3,36.3-36.3
					c0-10.6,8.6-19.2,19.2-19.2s19.2,8.6,19.2,19.2C782.8,87,749.2,120.5,708,120.5z M763.6,32.6c-7.2,0-13.1,5.9-13.1,13.1
					c0,23.4-19.1,42.5-42.5,42.5c-7.2,0-13.1,5.9-13.1,13.1c0,7.2,5.9,13.1,13.1,13.1c37.9,0,68.6-30.8,68.6-68.6
					C776.6,38.5,770.8,32.6,763.6,32.6z"/>
			</g>
		</g>
		<g>
			<path class="st2" d="M726.1,99.9c-3-4.9-2.4-11.1,1.1-15.3V45.7c0-10.6-8.6-19.2-19.2-19.2s-19.2,8.6-19.2,19.2v89.9
				c0,10.6,8.6,19.2,19.2,19.2s19.2-8.6,19.2-19.2v-33.9L726.1,99.9z M721.1,135.6c0,7.2-5.9,13.1-13.1,13.1
				c-7.2,0-13.1-5.9-13.1-13.1V45.7c0-7.2,5.9-13.1,13.1-13.1c7.2,0,13.1,5.9,13.1,13.1V135.6z"/>
		</g>
		<g>
			<g>
				<path class="st0" d="M763.6,64.9H708c-10.6,0-19.2-8.6-19.2-19.2s8.6-19.2,19.2-19.2h55.6c10.6,0,19.2,8.6,19.2,19.2
					S774.2,64.9,763.6,64.9z M708,32.6c-7.2,0-13.1,5.9-13.1,13.1s5.9,13.1,13.1,13.1h55.6c7.2,0,13.1-5.9,13.1-13.1
					s-5.9-13.1-13.1-13.1H708z"/>
			</g>
		</g>
		<g>
			<g>
				<path class="st0" d="M708,110.6c-5.1,0-9.3-4.2-9.3-9.3c0-5.1,4.2-9.3,9.3-9.3c5.1,0,9.3,4.2,9.3,9.3
					C717.3,106.4,713.1,110.6,708,110.6z M708,98.1c-1.7,0-3.1,1.4-3.1,3.1s1.4,3.1,3.1,3.1s3.1-1.4,3.1-3.1S709.7,98.1,708,98.1z"
					/>
			</g>
		</g>
		<g>
			<g>
				<path class="st1" d="M708,55c-5.1,0-9.3-4.2-9.3-9.3c0-5.1,4.2-9.3,9.3-9.3c5.1,0,9.3,4.2,9.3,9.3C717.3,50.8,713.1,55,708,55z
					 M708,42.6c-1.7,0-3.1,1.4-3.1,3.1c0,1.7,1.4,3.1,3.1,3.1s3.1-1.4,3.1-3.1C711.1,44,709.7,42.6,708,42.6z"/>
			</g>
		</g>
		<g>
			<g>
				<path class="st2" d="M763.4,55c-5.1,0-9.3-4.2-9.3-9.3c0-5.1,4.2-9.3,9.3-9.3c5.1,0,9.3,4.2,9.3,9.3
					C772.7,50.8,768.5,55,763.4,55z M763.4,42.6c-1.7,0-3.1,1.4-3.1,3.1c0,1.7,1.4,3.1,3.1,3.1s3.1-1.4,3.1-3.1
					C766.6,44,765.2,42.6,763.4,42.6z"/>
			</g>
		</g>
		<g>
			<g>
				<path class="st2" d="M737.3,102.4c-5.1,0-9.3-4.2-9.3-9.3c0-5.1,4.2-9.3,9.3-9.3c5.1,0,9.3,4.2,9.3,9.3
					C746.6,98.2,742.4,102.4,737.3,102.4z M737.3,89.9c-1.7,0-3.1,1.4-3.1,3.1c0,1.7,1.4,3.1,3.1,3.1c1.7,0,3.1-1.4,3.1-3.1
					C740.4,91.3,739,89.9,737.3,89.9z"/>
			</g>
		</g>
		<g>
			<g>
				<path class="st1" d="M763.6,154.9c-6.7,0-12.8-3.4-16.4-9.1l-26.4-42.6c-5.6-9-2.8-20.9,6.2-26.5c4.4-2.7,9.5-3.5,14.5-2.4
					c5,1.2,9.2,4.2,11.9,8.6l26.4,42.6c2.7,4.4,3.5,9.5,2.4,14.5c-1.2,5-4.2,9.2-8.6,11.9C770.6,153.9,767.1,154.9,763.6,154.9z
					 M737.2,79.9c-2.4,0-4.8,0.7-6.9,2c-6.1,3.8-8,11.9-4.2,18l26.4,42.6c2.4,3.9,6.6,6.2,11.1,6.2c2.4,0,4.8-0.7,6.9-2
					c3-1.8,5-4.7,5.9-8.1c0.8-3.4,0.2-6.9-1.6-9.9l-26.4-42.6c-1.8-3-4.7-5-8.1-5.9C739.2,80,738.2,79.9,737.2,79.9z"/>
			</g>
		</g>
	</g>
	<g>
		<g>
			<g>
				<path class="st2" d="M377.1,154.1c-10.6,0-19.2-8.6-19.2-19.2V45.4c0-10.6,8.6-19.2,19.2-19.2s19.2,8.6,19.2,19.2V135
					C396.2,145.5,387.6,154.1,377.1,154.1z M377.1,32.4c-7.2,0-13,5.8-13,13V135c0,7.2,5.8,13,13,13s13-5.8,13-13V45.4
					C390.1,38.2,384.2,32.4,377.1,32.4z"/>
			</g>
		</g>
		<g>
			<g>
				<path class="st1" d="M377.1,54.7c-5.1,0-9.3-4.2-9.3-9.3c0-5.1,4.2-9.3,9.3-9.3s9.3,4.2,9.3,9.3
					C386.3,50.5,382.2,54.7,377.1,54.7z M377.1,42.3c-1.7,0-3.1,1.4-3.1,3.1c0,1.7,1.4,3.1,3.1,3.1s3.1-1.4,3.1-3.1
					C380.2,43.7,378.8,42.3,377.1,42.3z"/>
			</g>
		</g>
		<g>
			<g>
				<path class="st0" d="M377.1,144.2c-5.1,0-9.3-4.2-9.3-9.3s4.2-9.3,9.3-9.3s9.3,4.2,9.3,9.3S382.2,144.2,377.1,144.2z
					 M377.1,131.8c-1.7,0-3.1,1.4-3.1,3.1s1.4,3.1,3.1,3.1s3.1-1.4,3.1-3.1S378.8,131.8,377.1,131.8z"/>
			</g>
		</g>
		<g>
			<g>
				<path class="st2" d="M432.4,98.4c-5.1,0-9.3-4.2-9.3-9.3c0-5.1,4.2-9.3,9.3-9.3s9.3,4.2,9.3,9.3
					C441.7,94.3,437.5,98.4,432.4,98.4z M432.4,86c-1.7,0-3.1,1.4-3.1,3.1c0,1.7,1.4,3.1,3.1,3.1s3.1-1.4,3.1-3.1
					C435.5,87.4,434.1,86,432.4,86z"/>
			</g>
		</g>
		<path class="st0" d="M404.7,26.2h-27.7c-10.6,0-19.2,8.6-19.2,19.2s8.6,19.2,19.2,19.2h27.7c4.7,0,8.5,3.8,8.5,8.5v16.1l0,0
			c0,10.6,8.6,19.2,19.2,19.2s19.2-8.6,19.2-19.2l0,0V73.1C451.6,47.3,430.6,26.2,404.7,26.2z M445.4,73.1v16.1c0,7.2-5.8,13-13,13
			s-13-5.8-13-13V73.1c0-8.1-6.6-14.7-14.7-14.7h-27.7c-7.2,0-13-5.8-13-13s5.8-13,13-13h27.7C427.2,32.4,445.4,50.6,445.4,73.1
			L445.4,73.1z"/>
		<path class="st1" d="M432.4,70c-10.6,0-19.2,8.6-19.2,19.2v18.1c0,4.7-3.8,8.5-8.5,8.5h-27.7c-10.6,0-19.2,8.6-19.2,19.2
			s8.6,19.2,19.2,19.2h27.7c25.8,0,46.8-21,46.8-46.8V89.2C451.6,78.6,443,70,432.4,70z M445.4,107.3c0,22.4-18.3,40.7-40.7,40.7
			h-27.7c-7.2,0-13-5.8-13-13s5.8-13,13-13h27.7c8.1,0,14.7-6.6,14.7-14.7V89.2c0-7.2,5.8-13,13-13s13,5.8,13,13V107.3z"/>
	</g>
	<g>
		<path class="st0" d="M650.6,88h-13.1v-6.2h13.1c5.1,0,9.7,2,13.1,5.2c3.8,3.5,6.2,8.5,6.2,14.1c0,5.6-2.4,10.6-6.2,14.1
			c-3.4,3.2-8,5.2-13.1,5.2h-13.1v-6.2h13.1c7.2,0,13.1-5.9,13.1-13.1C663.7,93.9,657.8,88,650.6,88z"/>
		<path class="st0" d="M595,88h13.1h6.2h17.1v-6.2h-17.1h-6.2H595c-5.1,0-9.7,2-13.1,5.2c-3.8,3.5-6.2,8.5-6.2,14.1
			c0,5.6,2.4,10.6,6.2,14.1c3.4,3.2,8,5.2,13.1,5.2h13.1h6.2h17.1v-6.2h-17.1h-6.2H595c-7.2,0-13.1-5.9-13.1-13.1
			C581.9,93.9,587.7,88,595,88z"/>
		<g>
			<path class="st1" d="M595,91.8c-5.1,0-9.3,4.2-9.3,9.3c0,5.1,4.2,9.3,9.3,9.3c5.1,0,9.3-4.2,9.3-9.3
				C604.3,96,600.1,91.8,595,91.8z M595,104.2c-1.7,0-3.2-1.4-3.2-3.2s1.4-3.2,3.2-3.2c1.7,0,3.2,1.4,3.2,3.2S596.7,104.2,595,104.2
				z"/>
		</g>
		<g>
			<path class="st2" d="M650.6,91.8c-5.1,0-9.3,4.2-9.3,9.3c0,5.1,4.2,9.3,9.3,9.3c5.1,0,9.3-4.2,9.3-9.3
				C659.9,96,655.8,91.8,650.6,91.8z M650.6,104.2c-1.7,0-3.2-1.4-3.2-3.2s1.4-3.2,3.2-3.2s3.2,1.4,3.2,3.2S652.4,104.2,650.6,104.2
				z"/>
		</g>
		<g>
			<path class="st2" d="M622.8,36.1c-5.1,0-9.3,4.2-9.3,9.3s4.2,9.3,9.3,9.3c5.1,0,9.3-4.2,9.3-9.3S628,36.1,622.8,36.1z
				 M622.8,48.6c-1.7,0-3.2-1.4-3.2-3.2s1.4-3.2,3.2-3.2s3.2,1.4,3.2,3.2S624.6,48.6,622.8,48.6z"/>
		</g>
		<g>
			<path class="st1" d="M595,154.8c10.6,0,19.3-8.6,19.3-19.3v-15.1h-6.2v15.1c0,7.2-5.9,13.1-13.1,13.1s-13.1-5.9-13.1-13.1v-20.3
				c-3.8-3.5-6.2-8.5-6.2-14.1v34.4C575.7,146.1,584.3,154.8,595,154.8z"/>
			<path class="st1" d="M608.1,73.3v8.6h6.2v-8.6c0-4.7,3.8-8.6,8.6-8.6v-6.2C614.7,58.5,608.1,65.1,608.1,73.3z"/>
			<path class="st1" d="M575.7,73.3v27.8c0-5.6,2.4-10.6,6.2-14.1V73.3c0-22.6,18.4-40.9,40.9-40.9v-6.2
				C596.8,26.2,575.7,47.3,575.7,73.3z"/>
		</g>
		<path class="st2" d="M622.8,26.2L622.8,26.2C622.8,26.2,622.8,26.2,622.8,26.2C622.8,26.2,622.8,26.2,622.8,26.2L622.8,26.2
			c-5.1,0-9.7,2-13.1,5.2c-3.8,3.5-6.2,8.5-6.2,14.1c0,5.6,2.4,10.6,6.2,14.1c3.4,3.2,8,5.1,13.1,5.2v0c4.7,0,8.6,3.8,8.6,8.6v8.6
			V88v26.2v6.2v15.1c0,10.6,8.6,19.3,19.3,19.3c10.6,0,19.3-8.6,19.3-19.3v-34.4V73.3C669.9,47.3,648.8,26.2,622.8,26.2z M663.7,87
			v14.1v14.1v20.3c0,7.2-5.9,13.1-13.1,13.1s-13.1-5.9-13.1-13.1v-15.1v-6.2V88v-6.2v-8.6c0-8.1-6.6-14.7-14.7-14.7v0
			c-7.2,0-13.1-5.9-13.1-13.1c0-7.2,5.9-13.1,13.1-13.1c22.6,0,40.9,18.4,40.9,40.9V87z"/>
	</g>
	<g>
		<g>
			<g>
				<path class="st0" d="M541.9,64.6h-55c-10.5,0-19-8.5-19-19s8.5-19,19-19h55c10.5,0,19,8.5,19,19S552.4,64.6,541.9,64.6z
					 M486.9,32.6c-7.1,0-13,5.8-13,13s5.8,13,13,13h55c7.1,0,13-5.8,13-13s-5.8-13-13-13H486.9z"/>
			</g>
		</g>
		<g>
			<g>
				<path class="st1" d="M541.9,153.6h-55c-10.5,0-19-8.5-19-19s8.5-19,19-19h55c10.5,0,19,8.5,19,19S552.4,153.6,541.9,153.6z
					 M486.9,121.6c-7.1,0-13,5.8-13,13s5.8,13,13,13h55c7.1,0,13-5.8,13-13s-5.8-13-13-13H486.9z"/>
			</g>
		</g>
		<g>
			<g>
				<path class="st2" d="M486.9,153.6c-10.5,0-19-8.5-19-19V45.5c0-10.5,8.5-19,19-19c10.5,0,19,8.5,19,19v89.1
					C505.9,145.1,497.4,153.6,486.9,153.6z M486.9,32.6c-7.1,0-13,5.8-13,13v89.1c0,7.1,5.8,13,13,13s13-5.8,13-13V45.5
					C499.8,38.4,494,32.6,486.9,32.6z"/>
			</g>
		</g>
		<g>
			<g>
				<g>
					<path class="st1" d="M520.9,109.2h-34c-10.5,0-19-8.5-19-19s8.5-19,19-19h34c10.5,0,19,8.5,19,19S531.4,109.2,520.9,109.2z
						 M486.9,77.2c-7.1,0-13,5.8-13,13s5.8,13,13,13h34c7.1,0,13-5.8,13-13s-5.8-13-13-13H486.9z"/>
				</g>
			</g>
			<g>
				<g>
					<path class="st0" d="M486.9,99.4c-5.1,0-9.2-4.1-9.2-9.2s4.1-9.2,9.2-9.2c5.1,0,9.2,4.1,9.2,9.2S491.9,99.4,486.9,99.4z
						 M486.9,87c-1.7,0-3.1,1.4-3.1,3.1s1.4,3.1,3.1,3.1c1.7,0,3.1-1.4,3.1-3.1S488.6,87,486.9,87z"/>
				</g>
			</g>
		</g>
		<g>
			<g>
				<path class="st2" d="M486.9,54.7c-5.1,0-9.2-4.1-9.2-9.2s4.1-9.2,9.2-9.2c5.1,0,9.2,4.1,9.2,9.2S491.9,54.7,486.9,54.7z
					 M486.9,42.4c-1.7,0-3.1,1.4-3.1,3.1c0,1.7,1.4,3.1,3.1,3.1c1.7,0,3.1-1.4,3.1-3.1C490,43.8,488.6,42.4,486.9,42.4z"/>
			</g>
		</g>
		<g>
			<g>
				<path class="st2" d="M486.9,143.8c-5.1,0-9.2-4.1-9.2-9.2c0-5.1,4.1-9.2,9.2-9.2c5.1,0,9.2,4.1,9.2,9.2
					C496.1,139.7,491.9,143.8,486.9,143.8z M486.9,131.5c-1.7,0-3.1,1.4-3.1,3.1c0,1.7,1.4,3.1,3.1,3.1c1.7,0,3.1-1.4,3.1-3.1
					C490,132.9,488.6,131.5,486.9,131.5z"/>
			</g>
		</g>
	</g>
</g>
</svg>
