<?xml version="1.0" standalone="no"?>
<svg viewBox="0 0 200 200" xmlns="http://www.w3.org/2000/svg">
  <path fill="#226EDB" d="M19.2,-28.3C27.5,-24.6,38.6,-23.6,45.2,-18C51.8,-12.4,53.9,-2.2,57.1,11.5C60.2,25.2,64.4,42.3,57,47.7C49.6,53,30.7,46.6,15.3,50.4C-0.2,54.3,-12.2,68.4,-25.5,71.5C-38.8,74.6,-53.3,66.7,-64.6,55.1C-75.8,43.6,-83.8,28.4,-85.7,12.6C-87.6,-3.3,-83.5,-19.7,-71,-26.4C-58.6,-33.1,-38,-30,-24.8,-31.5C-11.6,-32.9,-5.8,-38.9,-0.2,-38.7C5.5,-38.4,10.9,-32,19.2,-28.3Z" transform="translate(100 100)" />
</svg>
