<?xml version="1.0" standalone="no"?>
<svg viewBox="0 0 200 200" xmlns="http://www.w3.org/2000/svg">
  <path fill="#7A00DB" d="M41.7,-61.6C52.9,-57.7,60.1,-44.2,65.4,-30.5C70.6,-16.8,74,-2.8,66,5.1C58.1,13.1,38.8,15,29.3,24.8C19.9,34.6,20.2,52.3,15.4,54.9C10.5,57.4,0.5,44.9,-13,42C-26.6,39.1,-43.6,45.9,-57.2,42.6C-70.8,39.4,-80.9,26.3,-82.8,12C-84.7,-2.2,-78.3,-17.5,-72,-33.6C-65.8,-49.8,-59.8,-66.7,-47.8,-70.2C-35.8,-73.8,-17.9,-63.9,-1.3,-61.8C15.3,-59.8,30.5,-65.5,41.7,-61.6Z" transform="translate(100 100)" />
</svg>
