<?xml version="1.0" standalone="no"?>
<svg viewBox="0 0 200 200" xmlns="http://www.w3.org/2000/svg">
  <path fill="#FF5A00" d="M35,-55.9C41.5,-50.2,40.3,-34,41.7,-21.8C43.1,-9.5,47.1,-1.1,49.2,9.4C51.4,19.9,51.6,32.4,45.2,38.2C38.7,44,25.5,43,13.3,47.6C1.1,52.3,-10.2,62.6,-20.4,62.7C-30.7,62.8,-40,52.8,-49.2,42.5C-58.4,32.2,-67.5,21.6,-74,7.7C-80.5,-6.1,-84.5,-23.3,-77.9,-34.8C-71.4,-46.2,-54.3,-52.1,-39.6,-54C-24.8,-56,-12.4,-54.1,0.9,-55.6C14.2,-57,28.4,-61.7,35,-55.9Z" transform="translate(100 100)" />
</svg>
