<?xml version="1.0" encoding="utf-8"?>
<!-- Generator: Adobe Illustrator 28.0.0, SVG Export Plug-In . SVG Version: 6.00 Build 0)  -->
<svg version="1.1" id="Layer_1" xmlns="http://www.w3.org/2000/svg" xmlns:xlink="http://www.w3.org/1999/xlink" x="0px" y="0px"
	 viewBox="0 0 450 220" style="enable-background:new 0 0 450 220;" xml:space="preserve">
<g>
	<path d="M111.2,125.2c-0.3,0-0.5,0-0.7,0c-0.8,0-1.6,0-2.5,0c-1.3,0-2.8-1-2.8-2.8c0-0.2,0-0.4,0-0.6c0-4.5,0-8.9,0-13.4
		c0-0.3,0-0.5,0-0.8c-0.2,0-0.3-0.1-0.5-0.1c-0.5,0-1,0-1.6,0c-0.8,0-1.4-0.6-1.4-1.4c0-0.4,0-0.8,0-1.2c0-0.8,0.6-1.4,1.5-1.4
		c0.5,0,1,0,1.5,0c0.1,0,0.3,0,0.4,0c0-0.2,0.1-0.3,0.1-0.5c0-0.7,0-1.4,0-2.1c0-0.4,0.1-0.7,0.2-1.1c0.3-1.1,1.3-1.8,2.5-1.8
		c0.7,0,1.4,0,2.1,0c0.2,0,0.4,0,0.7,0c0-0.1,0-0.3,0-0.4c-0.1-4.2,1.4-7.9,4-11.1c1-1.3,2.1-2.4,3.4-3.5c2.2-1.9,4.7-3.1,7.4-3.8
		c2-0.5,4-0.8,6.1-0.8c2.7-0.1,5.5,0.2,8.2,0.6c3.7,0.6,7.3,1.5,10.9,2.6c1.7,0.5,3.4,1,5.2,1.5c2.3,0.6,4.5,0.7,6.8,0.2
		c1.6-0.3,2.9-1.1,3.9-2.4c0.4-0.4,0.6-0.9,1-1.4c0.1-0.1,0.2-0.3,0.3-0.4c0.1,0.2,0.2,0.3,0.3,0.4c0.8,1.4,1.4,2.9,1.6,4.5
		c0.1,0.9,0.1,1.8,0,2.6c-0.3,1.7-1.2,3-2.5,4c-0.9,0.7-1.8,1.2-2.9,1.5c-0.3,0.1-0.5,0.2-0.8,0.3c0.2,0.1,0.3,0.2,0.4,0.3
		c0.8,0.4,1.4,1,2,1.6c0.8,0.9,1.4,1.9,1.7,3.1c0,0.2,0.1,0.3,0.2,0.5c0.2,0,0.5,0,0.7,0c1.3,0,2.5,0,3.8,0c0.5,0,1,0.1,1.4,0.4
		c0.9,0.5,1.4,1.4,1.4,2.4c0,0.7,0,1.3,0,2c0,0.2,0,0.4,0,0.7c0.2,0,0.3,0.1,0.4,0.1c0.5,0,0.9,0,1.4,0c1,0,1.5,0.5,1.5,1.5
		c0,0.4,0,0.7,0,1.1c0,1-0.5,1.5-1.5,1.5c-0.4,0-0.8,0-1.2,0c-0.2,0-0.3,0-0.5,0c0,0.1-0.1,0.3-0.1,0.4c0,0.2,0,0.4,0,0.6
		c0,4.5,0,9,0,13.5c0,0.3,0,0.6-0.1,0.9c-0.3,1.3-1.3,2.2-2.7,2.2c-1.4,0-2.8,0-4.2,0c-0.2,0-0.5,0-0.8,0c0,0.2-0.1,0.3-0.1,0.5
		c0,1,0,2,0,3.1c0,5.6-3.9,10.8-9.8,12.1c-1,0.2-1.9,0.3-2.9,0.3c-8.8,0-17.5,0-26.3,0c-1.5,0-3,0-4.4,0c-1.4,0-2.8-0.2-4.2-0.7
		c-4.5-1.6-7.5-5.5-8.1-9.7c-0.1-0.7-0.1-1.4-0.2-2.2c0-0.9,0-1.7,0-2.6C111.2,125.7,111.2,125.5,111.2,125.2z M159.8,102.1
		c-2.9,0-5.8,0-8.7,0c-0.2,0-0.4,0-0.6,0c-0.8,0.1-1.5,0.7-1.5,1.6c0,0.2,0,0.4,0,0.5c0,4.9,0,9.7,0,14.6c0,0.2,0,0.4,0,0.5
		c0.1,0.8,0.7,1.5,1.5,1.6c0.2,0,0.4,0,0.5,0c5.8,0,11.6,0,17.5,0c0.2,0,0.3,0,0.5,0c1-0.1,1.6-0.8,1.6-1.6c0-0.2,0-0.4,0-0.6
		c0-4.8,0-9.6,0-14.5c0-0.2,0-0.4,0-0.6c0-0.8-0.8-1.5-1.6-1.6c-0.2,0-0.4,0-0.6,0C165.5,102.1,162.6,102.1,159.8,102.1z
		 M120.3,120.9c2.9,0,5.7,0,8.6,0c0.2,0,0.4,0,0.6,0c1-0.1,1.7-0.9,1.6-1.7c0-0.2,0-0.3,0-0.5c0-4.8,0-9.7,0-14.5c0-0.2,0-0.4,0-0.5
		c0-1-0.9-1.6-1.6-1.6c-0.2,0-0.3,0-0.5,0c-5.8,0-11.6,0-17.4,0c-0.2,0-0.3,0-0.5,0c-0.9,0-1.6,0.8-1.6,1.6c0,0.2,0,0.4,0,0.5
		c0,4.8,0,9.7,0,14.5c0,0.2,0,0.4,0,0.6c0.1,0.7,0.5,1.2,1.2,1.4c0.3,0.1,0.6,0.1,0.9,0.1C114.5,120.9,117.4,120.9,120.3,120.9z"/>
	<path d="M246.3,86.4c-0.6,0.9-1.1,1.7-1.6,2.5c-0.5,0.7-1.1,0.9-1.9,0.5c-0.5-0.2-0.9-0.5-1.3-0.7c-1.5-1-3.2-1.6-5-2
		c-1.3-0.3-2.5-0.3-3.8-0.3c-1.6,0-3.2,0.3-4.7,0.8c-3.6,1.3-6,3.9-7.2,7.5c-0.4,1.3-0.7,2.6-0.8,4c-0.1,2.1,0,4.2,0.5,6.3
		c0.3,1.1,0.7,2.2,1.3,3.3c1.7,3,4.3,4.9,7.6,5.8c1.4,0.4,2.9,0.5,4.3,0.4c1.8-0.1,3.6-0.3,5.4-0.9c0.8-0.3,1.6-0.6,2.4-1.1
		c0-0.1,0.1-0.3,0.1-0.5c0-2.2,0-4.4,0-6.5c0-0.2,0-0.3,0-0.5c-0.3,0-0.5,0-0.7,0c-1.4,0-2.8,0-4.2,0c-0.2,0-0.4,0-0.6,0
		c-0.6-0.1-0.9-0.5-1-1c0-0.3,0-2.7,0-3.1c0.2-0.2,0.4-0.1,0.6-0.1c2.1,0,4.1,0,6.2,0c1.3,0,2.6,0,3.9,0c0.2,0,0.4,0,0.7,0
		c0,0.1,0.1,0.2,0.1,0.2c0,4.6,0,9.2,0,13.8c-0.1,0.2-0.3,0.3-0.5,0.5c-2.2,1.5-4.6,2.5-7.2,3c-2.6,0.5-5.2,0.7-7.9,0.5
		c-3.9-0.3-7.4-1.6-10.3-4.1c-2.5-2.1-4.1-4.8-5.1-7.8c-0.6-1.8-0.9-3.8-1-5.7c-0.1-2.2,0.1-4.4,0.7-6.6c0.9-3.2,2.4-6,4.9-8.3
		c2.3-2.1,4.9-3.3,7.9-4c2.5-0.6,5-0.7,7.6-0.5c2.3,0.2,4.6,0.8,6.7,1.8c1.3,0.7,2.5,1.5,3.7,2.5C246,86.2,246.1,86.2,246.3,86.4z"
		/>
	<path d="M201.7,82.1c1.5,0,3,0,4.5,0c0,0.1,0.1,0.3,0.1,0.4c0,0.2,0,0.5,0,0.7c0,7,0,14,0,20.9c0,0.3,0,0.5,0,0.8
		c0.2,0,0.4,0,0.6,0c1.4,0,2.7,0,4.1,0c0.2,0,0.4,0,0.7,0c0,0.2,0.1,0.3,0.1,0.4c0,0.7,0,1.5,0,2.2c0,0.1,0,0.3,0,0.4
		c-0.1,0.5-0.4,0.8-0.9,0.9c-0.2,0-0.4,0-0.6,0c-1.1,0-2.1,0-3.2,0c-0.2,0-0.4,0-0.6,0c-0.2,0.3-0.1,0.5-0.1,0.8c0,2.6,0,5.1,0,7.7
		c0,0.3,0,0.5,0,0.8c-0.1,0-0.2,0.1-0.3,0.1c-1.3,0-2.6,0-3.9,0c-0.1,0-0.1,0-0.2-0.1c-0.1-0.8,0-1.5,0-2.3c0-0.8,0-1.5,0-2.3
		c0-0.8,0-1.5,0-2.3c0-0.8,0-1.5,0-2.3c-0.2,0-0.3-0.1-0.4-0.1c-0.2,0-0.4,0-0.6,0c-4.7,0-9.5,0-14.2,0c-0.2,0-0.5,0-0.7,0
		c-0.7-0.1-1.2-0.5-1.4-1.1c-0.2-0.7-0.3-1.5-0.4-2.2c0-0.2,0-0.3,0.1-0.4c0.1-0.1,0.2-0.3,0.3-0.4c5.6-7.4,11.1-14.7,16.7-22.1
		C201.4,82.5,201.5,82.3,201.7,82.1z M201.8,88.7c0,0-0.1,0-0.1,0c-0.2,0.2-0.3,0.4-0.5,0.6c-2.3,3.2-4.7,6.4-7,9.5
		c-1.4,1.8-2.7,3.7-4.1,5.5c-0.1,0.2-0.3,0.3-0.2,0.6c0.2,0,0.4,0,0.7,0c2.8,0,5.6,0,8.4,0c0.8,0,1.6,0,2.5,0c0.1,0,0.3,0,0.5-0.1
		C201.8,99.5,201.8,94.1,201.8,88.7z"/>
	<path d="M305.7,81.2c0.5-0.1,4.2-0.1,4.9,0c0,0.1,0.1,0.3,0.1,0.4c0,0.5,0,1.1,0,1.6c0,6.2,0,12.4,0,18.6c0,0.3,0,0.5,0,0.8
		c0.4,0.2,0.9,0.1,1.3,0.1c0.3,0,0.6-0.2,0.8-0.4c0.2-0.2,0.3-0.3,0.5-0.5c2.5-2.7,5-5.3,7.5-8c0.3-0.3,0.5-0.5,0.8-0.8
		c0.3-0.3,0.7-0.4,1.1-0.4c1.5,0,3,0,4.6,0c0,0,0,0,0.1,0c0,0.2-0.2,0.3-0.3,0.4c-1.5,1.6-3,3.2-4.5,4.8c-1.5,1.6-2.9,3.1-4.4,4.7
		c-0.5,0.5-1,1.1-1.5,1.6c0.7,0.5,1.1,1.2,1.5,1.8c3.1,3.9,6.3,7.9,9.4,11.8c0.1,0.2,0.3,0.4,0.4,0.5c-0.1,0.2-0.2,0.2-0.2,0.2
		c-1.4,0-2.8,0-4.2,0c-0.8,0-1.4-0.4-1.9-1c-1-1.2-2-2.4-3-3.7c-1.8-2.2-3.6-4.5-5.4-6.7c-0.1-0.1-0.2-0.3-0.3-0.4
		c-0.2-0.1-0.4-0.3-0.6-0.3c-0.3-0.1-1.3-0.1-1.8,0c-0.1,1,0,2,0,3c0,1,0,2,0,3c0,1,0,2,0,2.9c0,1,0,2,0,3c-0.4,0.1-0.8,0.1-1.2,0.1
		c-0.4,0-0.8,0-1.2,0s-0.8,0-1.2,0c-0.4,0-0.8,0.1-1.2-0.1c0-0.1-0.1-0.1-0.1-0.2c0-12.3,0-24.5,0-36.8
		C305.6,81.3,305.7,81.2,305.7,81.2z"/>
	<path d="M282.2,105.8c0.1,2.1,0.5,4,1.6,5.8c1.1,1.7,2.6,2.6,4.5,3c1.6,0.3,3.2,0.2,4.7-0.3c1.1-0.4,2.1-0.9,3.1-1.5
		c0.3-0.2,0.5-0.3,0.8-0.4c0.6-0.2,1.2-0.2,1.6,0.4c0.4,0.6,0.9,1.1,1.3,1.7c-0.1,0.1-0.2,0.3-0.3,0.4c-0.9,1.1-2.1,1.8-3.4,2.4
		c-1.5,0.7-3.1,1.1-4.7,1.3c-1.3,0.1-2.5,0.2-3.8,0c-3.9-0.5-6.9-2.4-8.8-5.9c-0.9-1.7-1.4-3.5-1.6-5.4c-0.1-1-0.2-1.9-0.1-2.9
		c0.1-2.1,0.5-4.1,1.5-6c1.7-3.3,4.4-5.3,8-6c2-0.4,4-0.4,6,0.2c3.5,1,5.8,3.3,6.9,6.8c0.5,1.6,0.7,3.2,0.6,4.9c0,0.1,0,0.1,0,0.2
		c-0.1,1-0.6,1.2-1.3,1.2c-0.2,0-0.4,0-0.6,0c-5,0-10.1,0-15.1,0C282.9,105.8,282.6,105.7,282.2,105.8z M295.7,102.4
		c0-0.1,0-0.2,0-0.3c-0.1-1.1-0.3-2.2-0.8-3.2c-0.8-1.5-2.1-2.5-3.7-2.8c-1.3-0.3-2.5-0.2-3.8,0.1c-1.5,0.4-2.6,1.2-3.5,2.5
		c-0.7,1-1.1,2.2-1.4,3.5c0,0.1,0,0.2,0,0.3C283.2,102.5,295.1,102.5,295.7,102.4z"/>
	<path d="M255.9,105.9c0.1,1.8,0.4,3.5,1.2,5.1c1.2,2.3,3.1,3.5,5.6,3.7c2.1,0.2,4.1-0.2,6-1.2c0.5-0.2,1-0.5,1.4-0.8
		c0.3-0.2,0.6-0.4,1-0.4c0.4,0,0.8,0.1,1.1,0.4c0.5,0.6,0.9,1.2,1.4,1.9c-0.2,0.2-0.3,0.4-0.5,0.6c-1.1,1.1-2.4,1.9-3.9,2.5
		c-2.2,0.9-4.5,1.2-6.9,1.1c-1.5-0.1-2.9-0.4-4.2-1c-2.4-1-4.2-2.7-5.5-5c-0.9-1.7-1.4-3.5-1.6-5.4c-0.1-1-0.2-1.9-0.1-2.9
		c0.1-2.4,0.6-4.6,1.8-6.6c1.7-3,4.3-4.7,7.7-5.4c2-0.4,4-0.4,6,0.2c3.5,1,5.8,3.3,6.9,6.8c0.5,1.6,0.7,3.2,0.6,4.9c0,0,0,0.1,0,0.1
		c-0.1,0.9-0.4,1.2-1.4,1.3c-0.2,0-0.4,0-0.6,0c-5.1,0-10.1,0-15.2,0C256.5,105.8,256.2,105.7,255.9,105.9z M269.3,102.4
		c0-0.1,0-0.3,0-0.4c-0.1-0.9-0.2-1.8-0.6-2.6c-0.8-1.8-2.2-2.9-4.1-3.3c-1.2-0.2-2.4-0.2-3.6,0.1c-1.5,0.4-2.7,1.2-3.5,2.5
		c-0.7,1-1.1,2.2-1.3,3.4c0,0.1,0,0.2,0,0.3c0.5,0.1,12.1,0.1,12.9,0.1C269.2,102.5,269.3,102.4,269.3,102.4z"/>
	<path d="M329.6,115.6c0.5-0.8,0.8-1.5,1.3-2.1c0.4-0.6,1.1-0.7,1.8-0.5c0.3,0.1,0.5,0.3,0.8,0.4c0.8,0.5,1.6,1,2.5,1.3
		c0.6,0.2,1.3,0.4,1.9,0.4c0.8,0,1.6,0,2.4-0.1c0.6-0.2,1.3-0.4,1.8-0.8c1.2-0.9,1.6-2.1,1.4-3.5c-0.1-0.5-0.3-0.9-0.6-1.2
		c-0.3-0.4-0.8-0.7-1.2-0.9c-0.7-0.4-1.4-0.6-2.1-0.8c-1.5-0.5-3-0.9-4.5-1.5c-0.8-0.3-1.6-0.7-2.3-1.2c-1.2-0.9-2-2-2.4-3.4
		c-0.7-3,0.4-5.7,2.7-7.5c1.3-0.9,2.7-1.5,4.2-1.7c1.8-0.3,3.7-0.2,5.5,0.2c1.7,0.4,3.3,1.2,4.6,2.4c0.1,0.1,0.2,0.2,0.3,0.2
		c-0.1,0.2-0.1,0.3-0.2,0.4c-0.3,0.5-0.6,1-0.9,1.5c-0.4,0.6-1,0.8-1.7,0.6c-0.2-0.1-0.5-0.2-0.7-0.3c-0.8-0.4-1.5-0.8-2.4-1
		c-1.4-0.4-2.8-0.5-4.2-0.1c-0.6,0.2-1.2,0.5-1.7,0.9c-0.7,0.7-1.1,1.5-1,2.5c0,0.5,0.2,0.9,0.6,1.3c0.4,0.4,0.8,0.7,1.3,0.9
		c0.7,0.4,1.5,0.7,2.3,0.9c1.5,0.5,3,0.9,4.4,1.5c0.9,0.4,1.7,0.8,2.4,1.4c1.4,1.2,2.2,2.6,2.2,4.5c0,1.1-0.1,2.3-0.6,3.3
		c-0.6,1.4-1.5,2.6-2.8,3.5c-1.2,0.8-2.5,1.3-3.9,1.6c-2.1,0.4-4.3,0.3-6.4-0.2c-1.8-0.5-3.3-1.3-4.7-2.5
		C329.9,115.8,329.7,115.7,329.6,115.6z"/>
	<path d="M280.8,138.2c-0.7,0.1-1.9,0.1-2.4,0c-0.1-0.2-0.1-0.4-0.1-0.7c0-1.9,0-3.7,0-5.6c0-0.2,0-0.5,0-0.7c0-0.3-0.1-0.5-0.2-0.8
		c-0.2-0.4-0.5-0.7-1-0.9c-1-0.3-2.3,0.2-2.4,1.7c0,0.2,0,0.4,0,0.6c0,1.8,0,3.6,0,5.5c0,0.2,0,0.5,0,0.8c-0.3,0.1-0.6,0.1-0.8,0.1
		c-0.3,0-0.5,0-0.8,0c-0.3,0-0.5,0-0.8,0c-0.2-0.2-0.1-0.4-0.1-0.6c0-2,0-3.9,0-5.9c0-0.3,0-0.6-0.1-0.9c-0.2-0.9-0.8-1.3-1.7-1.3
		c-0.7,0-1.3,0.4-1.7,0.9c-0.1,0.1-0.1,0.2-0.1,0.3c0,0.2,0,0.4,0,0.5c0,2.1,0,4.1,0,6.2c0,0.2,0,0.4,0,0.7
		c-0.5,0.1-1.7,0.2-2.5,0.1c0-0.1,0-0.2,0-0.4c0-3.2,0-6.4,0-9.6c0-0.1,0-0.3,0-0.4c0.3-0.1,0.6,0,0.8,0c0.3,0,0.5,0,0.8,0
		c0.2,0,0.4,0.2,0.5,0.4c0.1,0.2,0.1,0.4,0.2,0.7c0.1-0.1,0.2-0.1,0.3-0.2c0.2-0.2,0.4-0.4,0.7-0.5c0.7-0.5,1.5-0.6,2.3-0.5
		c0.7,0.1,1.3,0.5,1.7,1.1c0.1,0.2,0.3,0.4,0.4,0.7c0.1-0.1,0.2-0.2,0.2-0.3c0.6-0.9,1.5-1.4,2.5-1.5c0.4-0.1,0.9-0.1,1.4,0
		c1.5,0.2,2.5,1.2,2.8,2.6c0.1,0.4,0.1,0.8,0.1,1.2c0,2.1,0,4.2,0,6.3C280.8,137.9,280.8,138.1,280.8,138.2z"/>
	<path d="M206.7,138.3c0.1-0.6,5.5-14.2,5.8-14.8c0.1,0,0.2,0,0.3,0c0.8,0,1.6,0,2.4,0c0.1,0.2,0.2,0.3,0.2,0.4
		c1.8,4.6,3.7,9.2,5.5,13.9c0.1,0.1,0.1,0.3,0.1,0.5c-0.1,0-0.3,0-0.4,0c-0.5,0-1,0-1.6,0c-0.6,0-0.9-0.2-1.1-0.8
		c-0.3-0.7-0.5-1.4-0.8-2.2c-0.1-0.2-0.2-0.4-0.2-0.6c-0.5-0.1-1.1-0.1-1.6-0.1c-0.5,0-1,0-1.5,0c-0.5,0-1,0-1.6,0c-0.5,0-1,0-1.5,0
		c-0.1,0.2-0.2,0.4-0.3,0.6c-0.2,0.7-0.5,1.3-0.7,2c-0.1,0.2-0.1,0.3-0.2,0.5c-0.2,0.3-0.4,0.5-0.8,0.5
		C208.2,138.3,207.5,138.3,206.7,138.3z M216.2,132.7c0-0.1,0-0.2-0.1-0.3c-0.7-2-1.5-4-2.2-6.1c-0.2,0.6-0.4,1.1-0.6,1.6
		c-0.5,1.5-1.1,2.9-1.6,4.4c0,0.1-0.1,0.3-0.1,0.5C213.2,132.7,214.7,132.7,216.2,132.7z"/>
	<path d="M249.7,123.1c0.7-0.1,1.9-0.1,2.4,0c0,0,0,0,0,0.1c0,0,0,0,0,0.1c0,4.8,0,9.7,0,14.5c0,0.1,0,0.3,0,0.4c0,0,0,0-0.1,0.1
		c-0.1,0-0.3,0-0.4,0c-0.4,0-0.8,0-1.2,0c-0.3,0-0.4-0.2-0.5-0.5c-0.1-0.3-0.1-0.5-0.2-0.8c-0.2-0.1-0.3,0.1-0.4,0.2
		c-0.6,0.5-1.2,1-2,1.1c-1.9,0.4-3.4-0.3-4.2-1.9c-0.3-0.6-0.5-1.3-0.6-2c-0.1-1.2-0.1-2.3,0.2-3.4c0.2-0.7,0.5-1.3,1-1.9
		c1.1-1.4,2.6-1.8,4.3-1.4c0.4,0.1,0.7,0.3,1.1,0.5c0.2,0.1,0.3,0.2,0.5,0.3c0.1-0.2,0.1-0.4,0.1-0.5c0-1.4,0-2.7,0-4.1
		C249.7,123.6,249.7,123.4,249.7,123.1z M249.6,132.9c0-0.7,0-1.4,0-2c0-0.3-0.1-0.5-0.3-0.7c-0.5-0.5-1.2-0.6-1.9-0.6
		c-0.8,0-1.4,0.4-1.8,1.1c-0.2,0.3-0.3,0.7-0.4,1c-0.2,0.7-0.2,1.4-0.1,2.2c0,0.5,0.1,1,0.3,1.5c0.3,0.7,0.8,1,1.5,1.1
		c1,0.1,1.9-0.3,2.5-1.1c0.1-0.2,0.1-0.3,0.1-0.5C249.6,134.2,249.6,133.5,249.6,132.9z"/>
	<path d="M256.9,133.4c-0.1,1.8,1,3.1,2.7,3.1c0.7,0,1.3-0.2,2-0.5c0.3-0.1,0.5-0.3,0.8-0.4c0.3-0.1,0.5-0.1,0.7,0.2
		c0.2,0.3,0.5,0.6,0.7,0.9c-0.2,0.4-0.5,0.6-0.9,0.8c-0.6,0.4-1.3,0.7-2,0.8c-0.9,0.2-1.9,0.2-2.8,0c-1.6-0.4-2.8-1.3-3.4-2.9
		c-0.6-1.5-0.7-3.1-0.1-4.7c0.7-1.8,2.4-3,4.3-3.1c0.5,0,1,0,1.5,0.1c1.8,0.4,2.9,1.5,3.3,3.3c0.1,0.5,0.1,0.9,0.1,1.4
		c0,0.1,0,0.3,0,0.4c-0.1,0.3-0.2,0.5-0.5,0.5c-0.2,0-0.4,0-0.5,0c-1.7,0-3.5,0-5.2,0C257.3,133.4,257.1,133.4,256.9,133.4z
		 M256.8,131.8c0.6,0,1.1,0,1.6,0c0.5,0,1,0,1.6,0c0.5,0,1,0.1,1.5-0.1c0.1-0.5-0.1-0.9-0.3-1.3c-0.2-0.4-0.6-0.7-1.1-0.9
		c-1.4-0.5-2.8,0.2-3.2,1.6C256.9,131.4,256.9,131.6,256.8,131.8z"/>
	<path d="M240.7,138.3c-0.5,0.1-1,0.1-1.4,0c-0.3,0-0.5-0.2-0.6-0.4c-0.1-0.2-0.2-0.5-0.3-0.7c-0.1,0.1-0.3,0.1-0.4,0.2
		c-0.2,0.2-0.5,0.4-0.7,0.5c-1.1,0.7-2.4,0.8-3.6,0.5c-1-0.3-1.6-0.9-1.8-1.9c-0.2-1,0-1.9,0.8-2.7c0.3-0.3,0.7-0.5,1-0.7
		c0.8-0.4,1.6-0.6,2.5-0.7c0.5-0.1,1-0.1,1.6-0.1c0.1,0,0.2,0,0.4,0c0.1-0.6,0-1.1-0.1-1.6c-0.2-0.5-0.6-0.9-1.1-1
		c-0.6-0.1-1.1,0-1.7,0.2c-0.3,0.1-0.5,0.2-0.7,0.4c-0.2,0.1-0.3,0.2-0.5,0.3c-0.5,0.2-0.9,0.1-1.2-0.4c-0.2-0.2-0.3-0.5-0.5-0.8
		c0.1-0.1,0.2-0.2,0.3-0.3c1.4-1.1,3-1.5,4.8-1.3c1.5,0.2,2.7,1.3,3,2.8c0.1,0.4,0.1,0.8,0.1,1.1c0,2.1,0,4.2,0,6.3
		C240.7,138,240.7,138.1,240.7,138.3z M238.2,134c-0.1,0-0.1-0.1-0.2-0.1c-0.8,0-1.7,0.1-2.5,0.3c-0.3,0.1-0.5,0.2-0.7,0.4
		c-0.4,0.3-0.5,0.8-0.4,1.3c0.1,0.5,0.4,0.7,0.9,0.8c1.1,0.2,2-0.2,2.8-0.9c0.1-0.1,0.1-0.2,0.1-0.3
		C238.2,134.9,238.3,134.4,238.2,134z"/>
	<path d="M281.7,127.8c0.8-0.1,1.5,0,2.3,0c0.3,0,0.5,0.2,0.6,0.4c0.1,0.2,0.2,0.3,0.2,0.5c0.7,1.6,1.3,3.2,2,4.9
		c0.1,0.3,0.3,0.7,0.4,1.1c0.1-0.2,0.1-0.3,0.2-0.4c0.7-1.9,1.5-3.8,2.2-5.7c0-0.1,0.1-0.3,0.2-0.4c0.1-0.3,0.4-0.5,0.7-0.5
		c0.6,0,1.3,0,1.9,0c0.1,0.3-0.1,0.5-0.2,0.7c-1,2.4-2,4.7-3,7.1c-0.8,1.8-1.5,3.5-2.3,5.3c-0.1,0.2-0.1,0.3-0.2,0.5
		c-0.1,0.2-0.3,0.4-0.6,0.4c-0.6,0-1.3,0-2,0c0.1-0.2,0.1-0.3,0.1-0.5c0.5-1,1-2.1,1.4-3.1c0.1-0.2,0.2-0.4,0.3-0.6
		C284.5,134.3,283.1,131.1,281.7,127.8z"/>
	<path d="M230.8,136.7c-0.5,0.7-1.2,1.1-1.9,1.4c-1,0.4-2.1,0.5-3.2,0.3c-1.3-0.2-2.3-1-3-2.1c-0.4-0.7-0.7-1.5-0.7-2.2
		c-0.1-0.9-0.1-1.8,0.2-2.7c0.5-2,2-3.3,4.1-3.6c0.9-0.1,1.8-0.1,2.6,0.2c0.7,0.2,1.3,0.6,1.9,1.2c-0.2,0.4-0.5,0.8-0.8,1.1
		c-0.1,0.2-0.4,0.2-0.6,0.1c-0.2-0.1-0.4-0.2-0.6-0.3c-0.5-0.3-1.1-0.4-1.7-0.4c-1,0.1-1.7,0.5-2.1,1.5c-0.1,0.4-0.2,0.7-0.3,1.1
		c-0.1,0.9-0.1,1.9,0.2,2.8c0.3,0.8,0.9,1.4,1.8,1.6c0.8,0.1,1.5,0,2.2-0.4c0.2-0.1,0.4-0.3,0.6-0.4c0.3-0.2,0.5-0.1,0.7,0.1
		C230.3,136.1,230.5,136.4,230.8,136.7z"/>
</g>
</svg>
