<svg width="450" height="220" viewBox="0 0 450 220" fill="none" xmlns="http://www.w3.org/2000/svg">
<mask id="mask0_1493_17" style="mask-type:luminance" maskUnits="userSpaceOnUse" x="75" y="65" width="300" height="90">
<path d="M374.066 65H75V154.72H374.066V65Z" fill="white"/>
</mask>
<g mask="url(#mask0_1493_17)">
<path d="M164.084 110.906L163.374 106.271H163.224C162.85 106.645 162.327 107.131 161.654 107.766C160.981 108.364 160.196 109 159.262 109.598C158.327 110.196 157.243 110.757 156.009 111.206C154.776 111.654 153.43 111.878 151.934 111.878C150.589 111.878 149.28 111.617 147.934 111.093C146.589 110.57 145.393 109.785 144.346 108.776C143.262 107.766 142.402 106.495 141.766 105.037C141.093 103.542 140.757 101.86 140.757 99.9906C140.757 97.0747 141.542 94.7569 143.075 93.0372C144.607 91.3176 146.514 90.0466 148.794 89.1494C151.075 88.2896 153.505 87.6915 156.121 87.4298C158.738 87.1681 161.131 87.0186 163.299 87.0186V86.3083C163.299 83.7662 162.813 81.8223 161.804 80.5513C160.832 79.2803 159.075 78.6447 156.57 78.6447C155.299 78.6447 154.028 78.7943 152.794 79.0933C151.561 79.3924 150.402 79.6915 149.392 80.0279C148.234 80.4018 147.075 80.8129 145.953 81.2989L143.785 75.5045C145.28 74.7569 146.888 74.084 148.57 73.5232C149.953 72.9999 151.523 72.5139 153.318 72.1027C155.112 71.6915 156.869 71.4672 158.626 71.4672C163.037 71.4672 166.439 72.6634 168.794 75.0933C171.149 77.5232 172.346 80.9251 172.346 85.2616V110.906H164.084ZM163.262 92.9251C161.991 92.9251 160.57 92.9999 159 93.1495C157.43 93.2989 155.935 93.5981 154.514 94.084C153.093 94.5326 151.935 95.2055 151 96.0654C150.065 96.925 149.617 98.0841 149.617 99.542C149.617 101.149 150.14 102.383 151.224 103.205C152.271 104.065 153.467 104.477 154.738 104.477C155.86 104.477 156.944 104.252 157.991 103.841C159.037 103.43 159.934 102.944 160.757 102.42C161.729 101.822 162.551 101.149 163.299 100.327L163.262 92.9251Z" fill="#0072CE"/>
<path d="M203.747 110.907V87.0942C203.747 85.0007 203.299 83.3559 202.402 82.0849C201.504 80.8512 200.046 80.2157 197.99 80.2157C196.869 80.2157 195.71 80.4026 194.551 80.8138C193.392 81.225 192.308 81.6363 191.374 82.0475C190.252 82.6456 189.168 83.2437 188.084 83.8792V110.87H178.514V72.3652H187.299L187.934 77.4867H188.084C189.467 76.3652 190.925 75.3559 192.495 74.4587C193.841 73.711 195.299 73.0381 196.906 72.3652C198.514 71.6923 200.121 71.3932 201.766 71.3932C203.486 71.3932 205.019 71.6923 206.364 72.3278C207.71 72.926 208.869 73.7484 209.841 74.7577C211.112 76.1409 212.009 77.6736 212.57 79.3559C213.093 81.0381 213.355 83.1316 213.355 85.711V110.87L203.747 110.907Z" fill="#0072CE"/>
<path d="M245.131 100.178C245.131 102.347 244.682 104.216 243.748 105.674C242.814 107.169 241.617 108.365 240.159 109.263C238.701 110.16 237.056 110.833 235.3 111.206C233.505 111.618 231.748 111.804 229.991 111.804C228.271 111.804 226.701 111.655 225.243 111.356C223.785 111.057 222.477 110.721 221.355 110.346C220.01 109.935 218.814 109.449 217.767 108.926L220.159 103.019C220.944 103.393 221.804 103.73 222.701 103.992C223.449 104.253 224.309 104.477 225.243 104.627C226.178 104.777 227.187 104.851 228.197 104.851C229.056 104.851 229.916 104.777 230.739 104.664C231.599 104.515 232.346 104.29 233.057 103.917C233.729 103.543 234.29 103.057 234.739 102.496C235.15 101.898 235.374 101.15 235.374 100.178C235.374 99.1691 234.963 98.3092 234.14 97.599C233.318 96.8885 232.271 96.2156 231.038 95.6176C229.804 95.0196 228.421 94.384 226.963 93.7484C225.505 93.113 224.122 92.3279 222.888 91.3934C221.655 90.4588 220.608 89.3373 219.785 88.0289C218.963 86.7205 218.552 85.0756 218.552 83.1317C218.552 81.0008 219.038 79.2064 219.972 77.7485C220.944 76.2905 222.14 75.0943 223.598 74.1597C225.056 73.2251 226.664 72.5522 228.421 72.141C230.178 71.7298 231.86 71.5055 233.468 71.5055C234.851 71.5055 236.197 71.6176 237.542 71.8793C238.888 72.1036 240.084 72.3653 241.131 72.627C242.365 72.9634 243.486 73.3373 244.57 73.7485L242.514 79.5803C241.767 79.2438 240.982 78.9821 240.197 78.7952C239.449 78.5709 238.626 78.384 237.767 78.2345C236.87 78.0849 236.01 78.0102 235.075 78.0102C234.215 78.0102 233.355 78.0849 232.533 78.2345C231.673 78.384 230.926 78.6831 230.253 79.0569C229.58 79.4681 229.056 79.9541 228.608 80.5896C228.197 81.1878 227.972 81.9354 227.972 82.7952C227.972 83.8046 228.384 84.6644 229.243 85.3747C230.103 86.0849 231.15 86.7952 232.421 87.4681C233.692 88.141 235.075 88.8139 236.533 89.4494C237.991 90.1223 239.374 90.9448 240.645 91.8793C241.916 92.8513 243 93.9727 243.823 95.3185C244.72 96.627 245.131 98.2719 245.131 100.178Z" fill="#0072CE"/>
<path d="M297.692 110.908H288.496L279.225 84.1419H279.075L269.804 110.908H260.608L247.337 72.4036H257.318L265.692 101.488H265.842L274.627 72.4036H284.458L293.804 101.488H293.954L301.692 72.4036H310.701L297.692 110.908Z" fill="#0072CE"/>
<path d="M344.905 89.7859C344.905 90.0476 344.905 90.2719 344.867 90.4214C344.83 90.5709 344.83 90.7205 344.83 90.8326C344.793 90.9821 344.755 91.1317 344.755 91.2438L343.409 92.3653L320.606 92.8513C320.606 94.0848 320.793 95.3933 321.166 96.7764C321.54 98.1598 322.138 99.4307 322.998 100.627C323.858 101.786 324.979 102.758 326.4 103.505C327.821 104.253 329.578 104.627 331.708 104.627C332.83 104.627 333.914 104.515 334.998 104.253C336.045 104.029 337.054 103.767 337.951 103.505C338.961 103.169 339.933 102.795 340.905 102.309L343.634 107.356C342.25 108.253 340.718 109.038 339.073 109.674C337.69 110.272 336.045 110.795 334.176 111.244C332.269 111.692 330.25 111.917 328.082 111.917C325.466 111.917 323.073 111.431 320.942 110.496C318.811 109.561 316.905 108.178 315.335 106.459C313.764 104.739 312.568 102.683 311.708 100.253C310.849 97.8606 310.438 95.2063 310.438 92.3279C310.438 89.8232 310.886 87.3186 311.821 84.8139C312.755 82.3092 314.026 80.0663 315.709 78.1223C317.353 76.141 319.335 74.5709 321.652 73.3373C323.97 72.1036 326.549 71.5055 329.353 71.5055C332.493 71.5055 335.073 72.2158 337.092 73.6737C339.11 75.0943 340.68 76.8139 341.839 78.8326C342.998 80.8139 343.783 82.87 344.232 84.8887C344.68 86.87 344.905 88.5148 344.905 89.7859ZM336.12 86.6083C336.12 85.9728 336.008 85.1877 335.783 84.2532C335.559 83.3186 335.185 82.4588 334.662 81.599C334.138 80.7765 333.428 80.0663 332.531 79.4307C331.671 78.8326 330.55 78.4962 329.204 78.4962C327.821 78.4962 326.624 78.8326 325.578 79.5429C324.531 80.2532 323.671 81.0756 323.036 82.0102C322.363 82.9821 321.839 83.9541 321.465 85.0008C321.092 86.0476 320.867 86.9074 320.755 87.5803L336.12 86.6083Z" fill="#0072CE"/>
<path d="M371.338 80.6261H370.85C370.702 80.6261 370.514 80.6261 370.289 80.5886C370.065 80.5513 369.804 80.5513 369.504 80.5513C368.346 80.5513 367.225 80.7382 366.14 81.1494C365.058 81.5606 364.085 82.0466 363.188 82.6447C362.29 83.2429 361.469 83.841 360.757 84.5139C360.047 85.1868 359.45 85.8223 359.038 86.3831V110.906H349.468V72.4017H358.329L358.962 78.869H359.114C359.972 77.4859 360.981 76.2522 362.142 75.2055C363.151 74.3083 364.346 73.4485 365.731 72.6634C367.113 71.8784 368.719 71.4672 370.514 71.4672C370.926 71.4672 371.338 71.4672 371.747 71.5045C372.16 71.5419 372.496 71.5793 372.757 71.6167C373.093 71.6541 373.393 71.7288 373.73 71.7662L371.338 80.6261Z" fill="#0072CE"/>
<path d="M115.711 96.6996V106.793H85.4304V76.5501H95.5238V66.4566H85.4304C79.8603 66.4566 75.3369 70.98 75.3369 76.5501V106.793C75.3369 112.363 79.8603 116.887 85.4304 116.887H115.673C121.244 116.887 125.767 112.363 125.767 106.793V96.6996H115.711Z" fill="#0072CE"/>
<path d="M100.57 76.5501H115.71V91.6902H125.804V76.5501C125.804 70.98 121.281 66.4566 115.71 66.4566H100.57V76.5501Z" fill="#FA6400"/>
<path d="M165.879 146.157L165.73 144.662H165.692C165.58 144.774 165.393 144.961 165.169 145.148C164.945 145.335 164.683 145.522 164.384 145.746C164.085 145.933 163.748 146.12 163.337 146.232C162.926 146.381 162.477 146.456 161.991 146.456C161.543 146.456 161.132 146.381 160.683 146.195C160.234 146.008 159.86 145.783 159.524 145.447C159.188 145.11 158.889 144.699 158.664 144.213C158.44 143.727 158.365 143.167 158.365 142.568C158.365 141.596 158.627 140.849 159.113 140.288C159.599 139.727 160.234 139.316 160.945 139.054C161.692 138.755 162.477 138.568 163.337 138.494C164.197 138.419 164.982 138.381 165.692 138.381V138.157C165.692 137.335 165.543 136.699 165.206 136.288C164.907 135.877 164.346 135.653 163.524 135.653C163.113 135.653 162.702 135.69 162.29 135.802C161.879 135.877 161.543 135.989 161.206 136.101C160.833 136.213 160.459 136.363 160.085 136.512L159.375 134.643C159.86 134.419 160.384 134.195 160.945 134.008C161.393 133.821 161.917 133.671 162.477 133.522C163.076 133.372 163.636 133.297 164.234 133.297C165.692 133.297 166.776 133.708 167.561 134.493C168.347 135.278 168.72 136.363 168.72 137.821V146.195L165.879 146.157ZM165.692 140.288C165.281 140.288 164.795 140.325 164.272 140.363C163.786 140.4 163.3 140.512 162.814 140.662C162.365 140.811 161.991 141.036 161.655 141.297C161.356 141.559 161.206 141.933 161.206 142.419C161.206 142.942 161.393 143.353 161.73 143.615C162.066 143.877 162.477 144.026 162.889 144.026C163.263 144.026 163.599 143.952 163.935 143.802C164.272 143.652 164.571 143.503 164.833 143.316C165.131 143.129 165.431 142.905 165.655 142.643L165.692 140.288Z" fill="#FA6400"/>
<path d="M171.299 146.158V126.981H174.439V146.158H171.299Z" fill="#FA6400"/>
<path d="M180.569 129.112C180.569 129.598 180.382 130.046 180.046 130.383C179.709 130.719 179.298 130.906 178.812 130.906C178.326 130.906 177.878 130.719 177.579 130.383C177.242 130.046 177.093 129.598 177.093 129.112C177.093 128.626 177.242 128.177 177.579 127.841C177.915 127.504 178.326 127.318 178.812 127.318C179.298 127.318 179.747 127.504 180.046 127.841C180.382 128.177 180.569 128.588 180.569 129.112ZM177.242 146.159V133.598H180.382V146.159H177.242Z" fill="#FA6400"/>
<path d="M192.606 144.924C192.158 145.223 191.672 145.485 191.148 145.709C190.7 145.896 190.176 146.083 189.578 146.233C188.98 146.382 188.382 146.457 187.709 146.457C186.961 146.457 186.289 146.308 185.616 146.008C184.98 145.709 184.419 145.298 183.933 144.775C183.447 144.251 183.036 143.578 182.774 142.831C182.513 142.083 182.363 141.261 182.363 140.326C182.363 139.392 182.513 138.457 182.849 137.597C183.148 136.737 183.597 135.99 184.158 135.354C184.718 134.681 185.391 134.158 186.176 133.784C186.961 133.41 187.859 133.223 188.793 133.223C189.242 133.223 189.69 133.261 190.064 133.335C190.475 133.41 190.812 133.485 191.148 133.56C191.522 133.672 191.858 133.784 192.232 133.896L191.41 135.99L190.887 135.878C190.737 135.84 190.55 135.803 190.326 135.765C190.102 135.728 189.877 135.728 189.615 135.728C189.055 135.728 188.494 135.84 188.008 136.064C187.522 136.289 187.111 136.588 186.774 136.962C186.438 137.336 186.139 137.821 185.952 138.345C185.765 138.868 185.653 139.429 185.653 140.064C185.653 141.186 185.952 142.083 186.55 142.756C187.148 143.429 187.971 143.765 188.943 143.765C189.279 143.765 189.615 143.728 189.952 143.691C190.288 143.653 190.587 143.578 190.849 143.504C191.148 143.429 191.447 143.354 191.672 143.205L192.606 144.924Z" fill="#FA6400"/>
<path d="M197.431 129.112C197.431 129.598 197.244 130.046 196.907 130.383C196.571 130.719 196.16 130.906 195.674 130.906C195.188 130.906 194.739 130.719 194.44 130.383C194.104 130.046 193.954 129.598 193.954 129.112C193.954 128.626 194.104 128.177 194.44 127.841C194.776 127.504 195.188 127.318 195.674 127.318C196.16 127.318 196.608 127.504 196.907 127.841C197.281 128.177 197.431 128.588 197.431 129.112ZM194.104 146.159V133.598H197.244V146.159H194.104Z" fill="#FA6400"/>
<path d="M206.664 146.157L206.515 144.662H206.477C206.365 144.774 206.178 144.961 205.954 145.148C205.73 145.335 205.468 145.522 205.169 145.746C204.87 145.933 204.534 146.12 204.122 146.232C203.711 146.381 203.262 146.456 202.776 146.456C202.328 146.456 201.917 146.381 201.468 146.195C201.019 146.008 200.646 145.783 200.309 145.447C199.973 145.11 199.674 144.699 199.449 144.213C199.225 143.727 199.15 143.167 199.15 142.568C199.15 141.596 199.412 140.849 199.898 140.288C200.384 139.727 201.019 139.316 201.767 139.054C202.515 138.755 203.3 138.568 204.16 138.494C205.019 138.419 205.804 138.381 206.515 138.381V138.157C206.515 137.335 206.365 136.699 206.029 136.288C205.73 135.877 205.132 135.653 204.347 135.653C203.935 135.653 203.524 135.69 203.113 135.802C202.702 135.877 202.365 135.989 202.029 136.101C201.655 136.213 201.281 136.363 200.907 136.512L200.197 134.643C200.683 134.419 201.206 134.195 201.767 134.008C202.216 133.821 202.739 133.671 203.3 133.522C203.898 133.372 204.459 133.297 205.057 133.297C206.515 133.297 207.599 133.708 208.384 134.493C209.169 135.278 209.543 136.363 209.543 137.821V146.195L206.664 146.157ZM206.477 140.288C206.066 140.288 205.58 140.325 205.057 140.363C204.571 140.4 204.085 140.512 203.599 140.662C203.15 140.811 202.776 141.036 202.44 141.297C202.141 141.559 201.991 141.933 201.991 142.419C201.991 142.942 202.178 143.353 202.515 143.615C202.851 143.877 203.262 144.026 203.674 144.026C204.047 144.026 204.384 143.952 204.72 143.802C205.057 143.652 205.356 143.503 205.617 143.316C205.917 143.129 206.216 142.905 206.44 142.643L206.477 140.288Z" fill="#FA6400"/>
<path d="M225.952 141.187C225.952 141.972 225.803 142.683 225.504 143.355C225.242 143.991 224.794 144.552 224.27 145.038C223.747 145.486 223.074 145.86 222.289 146.122C221.504 146.346 220.607 146.496 219.597 146.496C218.962 146.496 218.326 146.458 217.728 146.346C217.167 146.271 216.644 146.159 216.195 146.01C215.672 145.86 215.149 145.711 214.7 145.524L215.523 143.057C215.822 143.206 216.195 143.318 216.569 143.393C216.906 143.468 217.28 143.542 217.691 143.617C218.102 143.655 218.551 143.692 219.036 143.692C219.523 143.692 219.934 143.655 220.382 143.58C220.831 143.505 221.205 143.355 221.541 143.169C221.878 142.982 222.139 142.72 222.326 142.421C222.551 142.122 222.625 141.748 222.625 141.3C222.625 140.888 222.513 140.514 222.326 140.215C222.102 139.916 221.84 139.617 221.504 139.393C221.167 139.169 220.794 138.907 220.345 138.72C219.896 138.496 219.485 138.271 218.999 138.047C218.513 137.823 218.065 137.524 217.579 137.225C217.13 136.926 216.719 136.589 216.345 136.178C215.971 135.767 215.672 135.281 215.448 134.758C215.223 134.234 215.111 133.636 215.111 132.963C215.111 132.178 215.261 131.505 215.56 130.907C215.859 130.309 216.27 129.785 216.793 129.374C217.317 128.963 217.915 128.627 218.625 128.44C219.336 128.215 220.046 128.103 220.831 128.103C221.466 128.103 222.065 128.141 222.625 128.215C223.186 128.29 223.672 128.402 224.121 128.514C224.607 128.627 225.055 128.776 225.504 128.926L224.682 131.281C224.42 131.206 224.121 131.131 223.784 131.057C223.522 131.019 223.186 130.944 222.812 130.907C222.439 130.87 222.064 130.832 221.653 130.832C221.242 130.832 220.794 130.87 220.42 130.944C220.046 131.019 219.709 131.169 219.41 131.318C219.149 131.505 218.924 131.692 218.738 131.954C218.551 132.215 218.476 132.515 218.476 132.888C218.476 133.412 218.663 133.898 219.036 134.271C219.41 134.645 219.896 134.982 220.457 135.318C221.018 135.617 221.616 135.954 222.289 136.253C222.962 136.552 223.56 136.926 224.121 137.374C224.682 137.823 225.13 138.346 225.504 138.944C225.765 139.617 225.952 140.327 225.952 141.187Z" fill="#FA6400"/>
<path d="M252.308 135.877H250.701V135.914C250.701 135.914 250.775 136.101 250.962 136.4C251.149 136.699 251.224 137.148 251.224 137.746C251.224 138.456 251.074 139.092 250.775 139.652C250.476 140.213 250.102 140.662 249.617 141.073C249.131 141.447 248.57 141.709 247.972 141.895C247.374 142.082 246.776 142.194 246.14 142.194H245.579C245.43 142.194 245.28 142.157 245.131 142.157C244.981 142.157 244.831 142.12 244.682 142.12C244.271 142.269 243.934 142.419 243.598 142.606C243.336 142.755 243.112 142.905 242.85 143.092C242.626 143.279 242.551 143.465 242.551 143.652C242.551 143.877 242.663 144.101 242.85 144.213C243.037 144.325 243.299 144.437 243.635 144.512C243.972 144.55 244.383 144.587 244.831 144.624C245.318 144.624 245.803 144.662 246.364 144.662C247.149 144.662 247.934 144.774 248.645 144.886C249.392 145.035 250.065 145.26 250.626 145.559C251.187 145.858 251.635 146.307 251.972 146.793C252.308 147.316 252.495 147.989 252.495 148.811C252.495 149.521 252.308 150.157 251.972 150.718C251.635 151.279 251.187 151.727 250.551 152.138C249.953 152.512 249.243 152.811 248.458 152.998C247.635 153.222 246.738 153.297 245.803 153.297C244.906 153.297 244.084 153.222 243.299 153.073C242.551 152.924 241.878 152.699 241.28 152.437C240.719 152.138 240.271 151.764 239.934 151.279C239.598 150.793 239.448 150.232 239.448 149.596C239.448 149.11 239.56 148.662 239.785 148.288C240.009 147.914 240.271 147.578 240.532 147.316C240.794 147.054 241.093 146.83 241.355 146.643C241.617 146.493 241.766 146.381 241.841 146.344V146.307C241.617 146.269 241.392 146.195 241.093 146.082C240.832 145.97 240.57 145.858 240.345 145.671C240.121 145.484 239.897 145.297 239.71 145.035C239.56 144.774 239.486 144.437 239.486 144.064C239.486 143.69 239.56 143.391 239.747 143.092C239.934 142.83 240.159 142.568 240.42 142.344C240.682 142.12 240.981 141.933 241.317 141.783C241.654 141.634 241.953 141.484 242.215 141.409C242.177 141.372 242.028 141.297 241.766 141.11C241.542 140.961 241.28 140.737 241.018 140.437C240.757 140.138 240.532 139.764 240.308 139.316C240.084 138.83 240.009 138.307 240.009 137.634C240.009 136.961 240.159 136.4 240.42 135.877C240.682 135.353 241.093 134.867 241.579 134.493C242.065 134.12 242.701 133.821 243.373 133.596C244.046 133.372 244.831 133.297 245.654 133.297C246.177 133.297 246.626 133.335 247.037 133.41C247.448 133.484 247.785 133.559 248.046 133.634C248.346 133.746 248.645 133.858 248.869 133.97L252.271 133.596L252.308 135.877ZM248.196 137.783C248.196 137.036 247.972 136.438 247.448 135.989C246.962 135.503 246.402 135.278 245.691 135.278C244.981 135.278 244.383 135.503 243.897 135.914C243.411 136.325 243.149 136.886 243.149 137.596C243.149 138.344 243.373 138.942 243.86 139.428C244.346 139.877 244.944 140.101 245.691 140.101C246.364 140.101 246.962 139.877 247.448 139.466C247.972 139.017 248.196 138.494 248.196 137.783ZM249.392 148.811C249.392 148.325 249.205 147.914 248.869 147.653C248.532 147.391 248.084 147.204 247.598 147.092C247.112 146.98 246.589 146.905 246.028 146.867C245.504 146.867 245.018 146.83 244.607 146.755C244.607 146.755 244.495 146.83 244.271 146.942C244.084 147.054 243.86 147.241 243.635 147.428C243.411 147.653 243.187 147.877 243 148.176C242.813 148.475 242.701 148.811 242.701 149.148C242.701 149.484 242.775 149.821 242.962 150.045C243.149 150.307 243.411 150.531 243.71 150.681C244.009 150.867 244.346 150.979 244.682 151.054C245.056 151.129 245.467 151.166 245.841 151.166C246.215 151.166 246.626 151.129 247.037 151.017C247.448 150.942 247.822 150.793 248.159 150.606C248.495 150.419 248.794 150.157 248.981 149.858C249.28 149.596 249.392 149.223 249.392 148.811Z" fill="#FA6400"/>
<path d="M262.438 146.157L262.326 144.475H262.289C261.803 144.849 261.317 145.186 260.831 145.447C260.382 145.671 259.896 145.933 259.373 146.12C258.85 146.344 258.326 146.419 257.803 146.419C257.242 146.419 256.756 146.307 256.307 146.12C255.859 145.933 255.485 145.671 255.186 145.335C254.775 144.886 254.476 144.4 254.289 143.84C254.139 143.279 254.064 142.606 254.064 141.746V133.522H257.205V141.298C257.205 141.97 257.354 142.531 257.653 142.943C257.952 143.354 258.438 143.541 259.074 143.541C259.448 143.541 259.821 143.466 260.195 143.354C260.569 143.241 260.943 143.092 261.242 142.943C261.616 142.756 261.952 142.569 262.326 142.344V133.522H265.466V146.083L262.438 146.157Z" fill="#FA6400"/>
<path d="M274.701 136.364C274.701 136.364 274.439 136.251 274.14 136.251C273.766 136.251 273.392 136.326 273.056 136.476C272.719 136.588 272.383 136.738 272.084 136.962C271.785 137.186 271.523 137.373 271.261 137.597C271.037 137.821 270.85 138.009 270.701 138.196V146.195H267.561V133.635H270.439L270.663 135.728H270.701C270.962 135.28 271.299 134.868 271.71 134.532C272.047 134.233 272.42 133.971 272.869 133.71C273.317 133.448 273.841 133.336 274.439 133.336C274.589 133.336 275.075 133.373 275.187 133.373C275.299 133.373 275.411 133.41 275.486 133.41L274.701 136.364Z" fill="#FA6400"/>
<path d="M287.934 139.914C287.934 140.886 287.785 141.746 287.486 142.531C287.186 143.316 286.775 144.026 286.214 144.624C285.691 145.185 285.018 145.634 284.233 145.97C283.448 146.269 282.588 146.456 281.616 146.456C280.607 146.456 279.672 146.269 278.887 145.933C278.102 145.596 277.429 145.11 276.906 144.512C276.383 143.914 275.972 143.204 275.71 142.419C275.448 141.596 275.336 140.737 275.336 139.802C275.336 138.867 275.486 137.97 275.785 137.185C276.084 136.4 276.495 135.69 277.018 135.129C277.579 134.531 278.252 134.082 279.037 133.783C279.822 133.447 280.682 133.297 281.654 133.297C282.663 133.297 283.598 133.484 284.383 133.821C285.168 134.157 285.841 134.643 286.364 135.241C286.887 135.839 287.299 136.55 287.56 137.335C287.785 138.157 287.934 139.017 287.934 139.914ZM284.607 139.914C284.607 138.568 284.308 137.521 283.747 136.774C283.186 136.026 282.476 135.615 281.616 135.615C280.682 135.615 279.934 135.989 279.411 136.699C278.887 137.409 278.588 138.456 278.588 139.802C278.588 141.148 278.887 142.194 279.448 142.942C280.009 143.69 280.757 144.064 281.616 144.064C282.551 144.064 283.299 143.69 283.822 142.98C284.345 142.307 284.607 141.26 284.607 139.914Z" fill="#FA6400"/>
<path d="M297.728 142.643C297.728 143.353 297.578 143.952 297.242 144.437C296.943 144.923 296.569 145.297 296.083 145.596C295.597 145.895 295.073 146.082 294.475 146.232C293.915 146.381 293.317 146.456 292.756 146.456C292.195 146.456 291.672 146.419 291.186 146.307C290.7 146.232 290.288 146.12 289.952 146.008C289.503 145.858 289.129 145.708 288.793 145.522L289.578 143.578C289.84 143.69 290.101 143.802 290.401 143.877C290.625 143.952 290.924 144.026 291.223 144.101C291.522 144.138 291.859 144.176 292.195 144.176C292.457 144.176 292.756 144.176 293.017 144.138C293.279 144.101 293.541 143.989 293.765 143.877C293.989 143.765 294.176 143.615 294.326 143.391C294.475 143.167 294.55 142.942 294.55 142.643C294.55 142.307 294.4 142.045 294.139 141.821C293.877 141.596 293.541 141.372 293.13 141.185C292.718 140.961 292.27 140.774 291.784 140.55C291.298 140.325 290.887 140.101 290.438 139.802C290.027 139.503 289.69 139.129 289.429 138.718C289.167 138.269 289.055 137.746 289.055 137.11C289.055 136.4 289.204 135.839 289.541 135.353C289.84 134.867 290.251 134.493 290.7 134.195C291.186 133.895 291.709 133.671 292.307 133.522C292.868 133.372 293.429 133.297 293.952 133.297C294.4 133.297 294.849 133.335 295.298 133.41C295.746 133.484 296.12 133.559 296.457 133.634C296.868 133.746 297.242 133.858 297.578 134.008L296.905 135.951C296.643 135.839 296.419 135.765 296.158 135.69C295.896 135.615 295.634 135.578 295.335 135.503C295.073 135.465 294.774 135.428 294.475 135.428C294.214 135.428 293.915 135.465 293.653 135.503C293.391 135.54 293.13 135.653 292.905 135.802C292.681 135.914 292.531 136.101 292.382 136.288C292.232 136.475 292.157 136.699 292.157 136.998C292.157 137.335 292.307 137.634 292.569 137.858C292.83 138.082 293.204 138.307 293.615 138.531C294.027 138.755 294.475 138.942 294.961 139.166C295.447 139.391 295.896 139.652 296.307 139.951C296.718 140.251 297.055 140.624 297.354 141.073C297.615 141.522 297.728 142.045 297.728 142.643Z" fill="#FA6400"/>
<path d="M154.738 145.821C155.411 145.634 156.009 145.41 156.607 145.185V139.615V136.475H149.991V139.167L153.43 139.391V143.316C153.243 143.354 153.056 143.391 152.832 143.428C152.645 143.466 152.421 143.503 152.121 143.503C151.86 143.503 151.561 143.541 151.224 143.541C150.402 143.541 149.654 143.391 148.944 143.055C148.271 142.755 147.673 142.307 147.187 141.784C146.701 141.223 146.327 140.55 146.028 139.802C145.767 139.055 145.617 138.195 145.617 137.26C145.617 136.288 145.767 135.428 146.103 134.643C146.439 133.858 146.888 133.185 147.449 132.625C148.01 132.064 148.682 131.653 149.467 131.354C150.253 131.055 151.075 130.868 151.972 130.868C152.458 130.868 152.869 130.905 153.243 130.943C153.654 130.98 153.991 131.017 154.29 131.055C154.626 131.13 154.925 131.167 155.224 131.242L156.084 128.774C155.673 128.625 155.224 128.513 154.738 128.4C154.327 128.326 153.804 128.214 153.243 128.139C152.682 128.064 152.009 128.027 151.299 128.027C150.065 128.027 148.907 128.251 147.785 128.662C146.701 129.073 145.729 129.672 144.907 130.494C144.084 131.279 143.411 132.251 142.925 133.372C142.439 134.494 142.178 135.765 142.178 137.186C142.178 138.606 142.402 139.877 142.813 140.999C143.262 142.12 143.86 143.092 144.607 143.877C145.355 144.662 146.252 145.298 147.299 145.709C148.346 146.12 149.467 146.344 150.626 146.344C151.374 146.344 152.084 146.27 152.794 146.12C153.542 146.12 154.178 146.008 154.738 145.821Z" fill="#FA6400"/>
<path d="M237.878 136.587C237.766 136.288 237.617 135.989 237.43 135.69C237.056 135.017 236.57 134.456 235.897 134.008C235.224 133.522 234.402 133.297 233.355 133.297C232.42 133.297 231.598 133.484 230.813 133.895C230.065 134.307 229.43 134.83 228.869 135.465C228.308 136.101 227.897 136.849 227.598 137.671C227.299 138.494 227.149 139.316 227.149 140.138C227.149 141.073 227.299 141.933 227.561 142.718C227.822 143.503 228.234 144.176 228.72 144.737C229.243 145.297 229.841 145.708 230.551 146.045C231.262 146.344 232.047 146.531 232.906 146.531C233.617 146.531 234.29 146.456 234.888 146.307C235.523 146.157 236.047 146.008 236.495 145.821C237.019 145.596 237.542 145.372 237.991 145.073L237.093 143.428C236.794 143.578 236.458 143.727 236.121 143.802C235.822 143.877 235.486 143.989 235.149 144.064C234.813 144.138 234.439 144.176 234.065 144.176C233.355 144.176 232.794 144.064 232.308 143.802C231.86 143.578 231.486 143.241 231.224 142.867C230.962 142.494 230.738 142.082 230.626 141.634C230.514 141.185 230.439 140.587 230.439 140.176H237.467H238.065C238.29 140.176 238.477 139.989 238.477 139.764C238.477 138.979 238.364 137.559 237.878 136.587ZM230.663 138.157C231 136.587 232.084 135.653 233.168 135.578C234.327 135.465 235.486 136.325 235.561 138.157H230.663Z" fill="#FA6400"/>
</g>
</svg>
