<svg width="450" height="220" viewBox="0 0 450 220" fill="none" xmlns="http://www.w3.org/2000/svg">
<g clip-path="url(#clip0_1404_31)">
<g clip-path="url(#clip1_1404_31)">
<mask id="mask0_1404_31" style="mask-type:luminance" maskUnits="userSpaceOnUse" x="181" y="66" width="88" height="88">
<path d="M269 66H181V154H269V66Z" fill="white"/>
</mask>
<g mask="url(#mask0_1404_31)">
<path d="M225 154C249.301 154 269 134.301 269 110C269 85.6995 249.301 66 225 66C200.699 66 181 85.6995 181 110C181 134.301 200.699 154 225 154Z" fill="white"/>
<path d="M225 151.14C247.721 151.14 266.14 132.721 266.14 110C266.14 87.279 247.721 68.86 225 68.86C202.279 68.86 183.86 87.279 183.86 110C183.86 132.721 202.279 151.14 225 151.14Z" fill="#0066FF"/>
<path d="M218.26 130.057C214.957 130.057 212.642 129.627 211.314 128.768C210.002 127.938 209.345 126.475 209.345 124.378V117.952C209.345 116.776 208.901 115.878 208.011 115.26C207.121 114.626 205.831 114.309 204.142 114.309V109.444C205.846 109.444 207.136 109.15 208.011 108.562C208.901 107.974 209.345 107.114 209.345 105.983V99.3307C209.345 97.249 210.002 95.7933 211.314 94.9637C212.642 94.1039 214.957 93.674 218.26 93.674C218.26 95.4677 218.26 96.4733 218.26 98.2672C216.948 98.2973 216.028 98.5461 215.5 99.0139C214.987 99.4664 214.731 100.175 214.731 101.141V107.227C214.64 109.776 213.049 111.285 209.956 111.753V111.979C213.139 112.446 214.731 113.887 214.731 116.3V122.568C214.731 123.548 214.987 124.265 215.5 124.717C216.028 125.17 216.948 125.411 218.26 125.441V130.057Z" fill="#F7D417"/>
<path d="M231.74 130.057V125.441C233.053 125.411 233.965 125.177 234.478 124.74C235.006 124.287 235.27 123.563 235.27 122.568V116.255C235.27 115.094 235.67 114.151 236.469 113.427C237.284 112.703 238.468 112.22 240.021 111.979V111.753C236.944 111.27 235.36 109.761 235.27 107.227V101.141C235.27 100.16 235.006 99.4437 234.478 98.9912C233.965 98.5387 233.053 98.2973 231.74 98.2672C231.74 96.4733 231.74 95.4677 231.74 93.674C233.52 93.7042 234.946 93.8098 236.017 93.9908C237.103 94.1567 238 94.4583 238.709 94.8959C239.433 95.3333 239.931 95.8989 240.203 96.5928C240.489 97.2866 240.64 98.1992 240.655 99.3307V106.028C240.655 108.306 242.39 109.444 245.859 109.444V114.309C244.124 114.309 242.82 114.596 241.945 115.169C241.085 115.742 240.655 116.67 240.655 117.952V124.378C240.655 125.901 240.376 127.048 239.818 127.817C239.26 128.586 238.332 129.152 237.035 129.514C235.753 129.876 233.988 130.057 231.74 130.057Z" fill="#F7D417"/>
<path d="M218.26 93.674C218.26 95.4677 218.26 96.4733 218.26 98.2672C220.489 98.2672 225.185 98.9912 225.185 98.9912C225.185 98.9912 229.174 98.2672 231.74 98.2672C231.74 96.4733 231.74 95.4677 231.74 93.674C227.217 93.674 225.185 94.6805 225.185 94.6805C225.185 94.6805 222.326 93.8076 218.26 93.674Z" fill="#F7D417"/>
<path d="M218.26 125.441V130.057C222.709 129.916 225.185 128.768 225.185 128.768C225.185 128.768 227.163 129.942 231.74 130.057V125.441C230.045 125.411 225.185 123.729 225.185 123.729C225.185 123.729 219.683 125.464 218.26 125.441Z" fill="#F7D417"/>
<path d="M218.26 130.057C214.957 130.057 212.642 129.627 211.314 128.768C210.002 127.938 209.345 126.475 209.345 124.378V117.952C209.345 116.776 208.901 115.878 208.011 115.26C207.121 114.626 205.831 114.309 204.142 114.309V109.444C205.846 109.444 207.136 109.15 208.011 108.562C208.901 107.974 209.345 107.114 209.345 105.983V99.3307C209.345 97.249 210.002 95.7933 211.314 94.9637C212.642 94.1039 214.957 93.674 218.26 93.674M218.26 130.057V125.441M218.26 130.057C222.71 129.916 225.186 128.768 225.186 128.768C225.186 128.768 227.163 129.942 231.741 130.057M218.26 93.674C218.26 95.4677 218.26 96.4733 218.26 98.2672M218.26 93.674C222.327 93.8076 225.186 94.6805 225.186 94.6805C225.186 94.6805 227.218 93.674 231.741 93.674M218.26 125.441C216.948 125.411 216.028 125.17 215.5 124.717C214.987 124.265 214.731 123.548 214.731 122.568V116.3C214.731 113.887 213.139 112.446 209.956 111.979V111.753C213.049 111.285 214.64 109.776 214.731 107.227V101.141C214.731 100.175 214.987 99.4664 215.5 99.0139C216.028 98.5461 216.948 98.2973 218.26 98.2672M218.26 125.441C219.684 125.464 225.186 123.729 225.186 123.729C225.186 123.729 230.045 125.411 231.741 125.441M231.741 130.057V125.441M231.741 130.057C233.988 130.057 235.753 129.876 237.035 129.514C238.332 129.152 239.26 128.586 239.818 127.817C240.376 127.048 240.655 125.901 240.655 124.378V117.952C240.655 116.67 241.085 115.742 241.945 115.169C242.82 114.596 244.125 114.309 245.859 114.309V109.444C242.39 109.444 240.655 108.306 240.655 106.028V99.3307C240.64 98.1992 240.489 97.2866 240.203 96.5928C239.931 95.8989 239.434 95.3333 238.71 94.8959C238 94.4583 237.103 94.1567 236.017 93.9908C234.946 93.8098 233.521 93.7042 231.741 93.674M218.26 98.2672C220.49 98.2672 225.186 98.9912 225.186 98.9912C225.186 98.9912 229.174 98.2672 231.741 98.2672M231.741 93.674C231.741 95.4677 231.741 96.4733 231.741 98.2672M231.741 98.2672C233.053 98.2973 233.965 98.5387 234.478 98.9912C235.006 99.4437 235.27 100.16 235.27 101.141V107.227C235.361 109.761 236.945 111.27 240.022 111.753V111.979C238.468 112.22 237.284 112.703 236.47 113.427C235.67 114.151 235.27 115.094 235.27 116.255V122.568C235.27 123.563 235.006 124.287 234.478 124.74C233.965 125.177 233.053 125.411 231.741 125.441" stroke="#F7D417" stroke-width="2.31386"/>
<path d="M221.621 90.305L216.726 82.9953H224.427L227.56 90.305H221.621Z" fill="#F7D417"/>
</g>
</g>
</g>
<defs>
<clipPath id="clip0_1404_31">
<rect width="450" height="220" fill="white"/>
</clipPath>
<clipPath id="clip1_1404_31">
<rect width="88" height="88" fill="white" transform="translate(181 66)"/>
</clipPath>
</defs>
</svg>
