<svg width="450" height="220" viewBox="0 0 450 220" fill="none" xmlns="http://www.w3.org/2000/svg">
<path d="M134.418 111.873C134.418 114.757 133.315 116.992 131.118 118.58C128.921 120.167 125.563 120.961 121.043 120.961H107V90.2032H120.869C122.756 90.2032 124.469 90.3871 125.989 90.7452C127.508 91.1033 128.795 91.6259 129.86 92.3034C130.925 92.9905 131.737 93.8132 132.299 94.781C132.86 95.7488 133.141 96.8424 133.141 98.0328C133.141 101.178 131.408 103.395 127.953 104.701C130.141 105.224 131.767 106.114 132.831 107.363C133.896 108.63 134.418 110.121 134.418 111.873ZM114.53 102.562H120.491C122.263 102.562 123.559 102.291 124.372 101.769C125.195 101.236 125.611 100.307 125.611 98.9813C125.611 97.8006 125.214 96.9102 124.411 96.3295C123.608 95.7488 122.195 95.4584 120.182 95.4584H114.53V102.562ZM114.53 115.715H120.559C122.572 115.715 124.092 115.405 125.098 114.766C126.105 114.137 126.618 113.141 126.618 111.757C126.618 111.06 126.511 110.46 126.308 109.966C126.105 109.472 125.747 109.066 125.253 108.756C124.75 108.437 124.092 108.214 123.288 108.069C122.475 107.924 121.469 107.856 120.259 107.856H114.549V115.715H114.53Z" fill="#0075BF"/>
<path d="M175.038 119.528C175.038 123.138 173.983 125.78 171.873 127.474C169.763 129.148 166.579 130 162.33 130C160.346 130 158.633 129.826 157.172 129.487C155.71 129.148 154.51 128.664 153.552 128.045C152.594 127.426 151.888 126.69 151.423 125.829C150.968 124.967 150.736 124.029 150.736 123.003H157.82C157.878 124.009 158.285 124.754 159.02 125.238C159.756 125.722 160.917 125.964 162.505 125.964C163.569 125.964 164.44 125.819 165.118 125.529C165.795 125.238 166.318 124.832 166.705 124.28C167.092 123.738 167.353 123.07 167.489 122.286C167.624 121.512 167.692 120.622 167.692 119.635V118.105C166.569 119.131 165.389 119.906 164.15 120.438C162.911 120.961 161.575 121.232 160.133 121.232C156.823 121.232 154.268 120.254 152.468 118.309C150.668 116.363 149.768 113.586 149.768 109.985C149.768 108.321 150 106.763 150.465 105.311C150.939 103.869 151.636 102.62 152.565 101.575C153.494 100.53 154.627 99.7072 155.981 99.1072C157.336 98.5071 158.885 98.2071 160.637 98.2071C162.088 98.2071 163.395 98.3813 164.537 98.72C165.679 99.0685 166.773 99.6104 167.818 100.365V98.72H175.038V119.528ZM167.576 104.604C166.076 103.424 164.392 102.824 162.514 102.824C160.975 102.824 159.746 103.395 158.827 104.527C157.907 105.669 157.453 107.479 157.453 109.976C157.453 112.095 157.849 113.712 158.643 114.844C159.437 115.976 160.617 116.538 162.205 116.538C164.16 116.538 165.95 115.55 167.576 113.576V104.604Z" fill="#0075BF"/>
<path d="M189.148 90.2032H201.111C207.334 90.2032 212.028 91.4421 215.183 93.9197C218.338 96.3973 219.915 100.22 219.915 105.408C219.915 110.595 218.338 114.476 215.183 117.06C212.028 119.654 207.343 120.951 201.111 120.951H189.148V90.2032ZM196.746 115.444H201.053C205.408 115.444 208.302 114.583 209.734 112.86C210.499 111.97 211.089 110.905 211.495 109.666C211.902 108.437 212.105 107.014 212.105 105.408C212.105 103.83 211.902 102.456 211.495 101.285C211.089 100.123 210.508 99.1072 209.734 98.2458C208.234 96.5231 205.34 95.6714 201.053 95.6714H196.746V115.444Z" fill="#0075BF"/>
<path d="M231.423 95.1101H223.922V90H231.423V95.1101ZM231.423 120.961H223.922V98.7104H231.423V120.961Z" fill="#0075BF"/>
<path d="M145.8 95.2456H138.309V90.1355H145.8V95.2456ZM145.8 121.096H138.309V98.8459H145.8V121.096Z" fill="#0075BF"/>
<path d="M243.56 101.459C244.518 100.491 245.631 99.7266 246.899 99.1556C248.166 98.5846 249.676 98.3039 251.428 98.3039C253.305 98.3039 254.893 98.6136 256.19 99.233C257.486 99.8524 258.541 100.685 259.325 101.74C260.119 102.785 260.69 103.995 261.038 105.359C261.387 106.714 261.571 108.156 261.571 109.656C261.571 111.36 261.338 112.928 260.864 114.37C260.39 115.812 259.703 117.051 258.774 118.105C257.845 119.151 256.712 119.973 255.357 120.554C254.002 121.135 252.454 121.435 250.702 121.435C249.221 121.435 247.924 121.27 246.802 120.932C245.679 120.593 244.682 120.06 243.801 119.306V129.477H236.311V98.7007H243.55V101.459H243.56ZM243.811 115.067C244.537 115.638 245.311 116.073 246.134 116.373C246.957 116.663 247.866 116.818 248.873 116.818C250.489 116.818 251.738 116.228 252.618 115.028C253.489 113.837 253.925 112.037 253.925 109.666C253.925 105.108 252.347 102.824 249.183 102.824C248.166 102.824 247.199 103.085 246.308 103.608C245.408 104.13 244.576 104.866 243.811 105.814V115.067Z" fill="#0075BF"/>
<path d="M273.262 101.459C274.22 100.491 275.333 99.7266 276.601 99.1556C277.878 98.5846 279.378 98.3039 281.13 98.3039C282.998 98.3039 284.585 98.6136 285.892 99.233C287.189 99.8524 288.244 100.685 289.037 101.74C289.831 102.785 290.392 103.995 290.75 105.359C291.108 106.714 291.282 108.156 291.282 109.656C291.282 111.36 291.041 112.928 290.576 114.37C290.111 115.812 289.405 117.051 288.485 118.105C287.556 119.151 286.414 119.973 285.059 120.554C283.704 121.135 282.156 121.435 280.404 121.435C278.923 121.435 277.627 121.27 276.504 120.932C275.381 120.593 274.375 120.06 273.504 119.306V129.477H266.013V98.7007H273.262V101.459ZM273.504 115.067C274.239 115.638 275.013 116.073 275.836 116.373C276.659 116.663 277.568 116.818 278.565 116.818C280.191 116.818 281.44 116.228 282.311 115.028C283.182 113.837 283.627 112.037 283.627 109.666C283.627 105.108 282.04 102.824 278.875 102.824C277.859 102.824 276.901 103.085 276.001 103.608C275.11 104.13 274.278 104.866 273.504 105.814V115.067Z" fill="#0075BF"/>
<path d="M308.296 121.444C306.129 121.444 304.203 121.173 302.519 120.641C300.835 120.119 299.412 119.354 298.25 118.357C297.099 117.36 296.218 116.15 295.628 114.728C295.037 113.305 294.737 111.679 294.737 109.879C294.737 108.05 295.037 106.414 295.637 104.962C296.237 103.52 297.108 102.301 298.241 101.294C299.373 100.288 300.767 99.5233 302.393 99.0007C304.028 98.4684 305.887 98.1974 307.967 98.1974C309.98 98.1974 311.8 98.449 313.416 98.9523C315.032 99.4556 316.397 100.191 317.52 101.159C318.652 102.127 319.514 103.317 320.114 104.75C320.723 106.172 321.023 107.808 321.023 109.656V111.215H302.412C302.431 112.328 302.596 113.276 302.896 114.07C303.206 114.854 303.612 115.512 304.135 116.015C304.657 116.528 305.267 116.905 305.954 117.138C306.651 117.37 307.435 117.486 308.287 117.486C309.68 117.486 310.822 117.234 311.713 116.731C312.613 116.228 313.213 115.415 313.523 114.283H320.52C320.268 115.444 319.794 116.47 319.088 117.36C318.381 118.251 317.5 118.996 316.436 119.596C315.381 120.196 314.152 120.66 312.777 120.97C311.423 121.28 309.922 121.444 308.296 121.444ZM313.61 107.45C313.436 105.553 312.884 104.149 311.935 103.24C310.987 102.33 309.671 101.885 307.987 101.885C306.448 101.885 305.17 102.378 304.164 103.366C303.157 104.353 302.596 105.717 302.49 107.459H313.61V107.45Z" fill="#0075BF"/>
<path d="M342.093 103.927C341.667 103.82 341.222 103.743 340.728 103.714C340.244 103.675 339.673 103.656 339.025 103.656C337.863 103.656 336.77 103.869 335.734 104.295C334.708 104.711 333.77 105.388 332.937 106.298V120.961H325.446V98.7103H332.695V102.291C333.76 100.888 334.912 99.862 336.16 99.1942C337.409 98.5264 338.725 98.1974 340.089 98.1974C340.418 98.1974 340.757 98.1974 341.086 98.2167C341.425 98.2264 341.754 98.2748 342.093 98.3716V103.927Z" fill="#0075BF"/>
</svg>
