<svg width="450" height="220" viewBox="0 0 450 220" fill="none" xmlns="http://www.w3.org/2000/svg">
<g clip-path="url(#clip0_1425_2)">
<path d="M90.4807 105.633L102.385 93.7869L114.296 105.639L121.223 98.746L102.385 80L83.5537 98.7397L90.4807 105.633Z" fill="#F3BA2F"/>
<path d="M85.589 110.499L78.6621 103.606L71.7349 110.499L78.6618 117.392L85.589 110.499Z" fill="#F3BA2F"/>
<path d="M90.4811 115.367L102.386 127.213L114.296 115.362L121.227 122.251L121.224 122.254L102.386 141L83.5536 122.261L83.5439 122.251L90.4811 115.367Z" fill="#F3BA2F"/>
<path d="M126.11 117.395L133.037 110.502L126.11 103.609L119.183 110.503L126.11 117.395Z" fill="#F3BA2F"/>
<path d="M109.412 110.496H109.415L102.386 103.502L97.1914 108.671H97.1909L96.5944 109.265L95.3632 110.49L95.3535 110.5L95.3632 110.51L102.386 117.498L109.415 110.504L109.419 110.5L109.412 110.496Z" fill="#F3BA2F"/>
<path d="M143.836 94.7809H158.902C162.641 94.7809 165.468 95.7358 167.385 97.6456C168.868 99.1247 169.609 100.958 169.609 103.145V103.237C169.609 104.161 169.494 104.978 169.263 105.686C169.033 106.395 168.725 107.034 168.34 107.604C167.956 108.174 167.51 108.675 167.002 109.105C166.494 109.537 165.949 109.907 165.364 110.215C167.244 110.924 168.724 111.886 169.802 113.103C170.881 114.32 171.42 116.007 171.42 118.163V118.255C171.42 119.734 171.135 121.028 170.563 122.137C169.991 123.246 169.172 124.171 168.105 124.91C167.039 125.65 165.756 126.204 164.257 126.574C162.758 126.943 161.097 127.128 159.274 127.128H143.836V94.7809ZM157.396 107.858C158.975 107.858 160.229 107.589 161.157 107.05C162.086 106.511 162.55 105.64 162.55 104.439V104.346C162.55 103.269 162.147 102.445 161.342 101.874C160.537 101.304 159.376 101.019 157.86 101.019H150.801V107.858H157.396ZM159.3 120.89C160.879 120.89 162.116 120.606 163.015 120.035C163.912 119.465 164.362 118.579 164.362 117.378V117.286C164.362 116.208 163.943 115.353 163.108 114.721C162.272 114.09 160.925 113.774 159.067 113.774H150.801V120.891L159.3 120.89Z" fill="#F3BA2F"/>
<path d="M180.393 94.7809H187.545V127.129H180.393V94.7809Z" fill="#F3BA2F"/>
<path d="M198.377 94.7809H204.97L220.203 114.698V94.7809H227.261V127.129H221.178L205.435 106.565V127.129H198.377V94.7809Z" fill="#F3BA2F"/>
<path d="M248.913 94.55H255.507L269.44 127.129H261.963L258.99 119.874H245.244L242.273 127.129H234.98L248.913 94.55ZM256.436 113.588L252.117 103.099L247.799 113.588H256.436Z" fill="#F3BA2F"/>
<path d="M277.16 94.7809H283.755L298.986 114.698V94.7809H306.045V127.129H299.962L284.219 106.565V127.129H277.16V94.7809Z" fill="#F3BA2F"/>
<path d="M331.783 127.683C329.398 127.683 327.185 127.251 325.142 126.389C323.098 125.527 321.334 124.348 319.848 122.854C318.362 121.36 317.2 119.596 316.365 117.563C315.529 115.529 315.111 113.357 315.111 111.047V110.955C315.111 108.644 315.529 106.48 316.365 104.462C317.201 102.444 318.362 100.673 319.848 99.1478C321.333 97.6229 323.114 96.4209 325.188 95.5431C327.261 94.6652 329.554 94.2263 332.062 94.2263C333.577 94.2263 334.963 94.3501 336.217 94.5959C337.471 94.843 338.608 95.1812 339.631 95.6124C340.653 96.0441 341.596 96.5678 342.464 97.1835C343.329 97.8002 344.135 98.4776 344.878 99.2172L340.328 104.439C339.057 103.299 337.765 102.405 336.45 101.759C335.133 101.112 333.655 100.788 332.015 100.788C330.652 100.788 329.39 101.05 328.23 101.574C327.069 102.098 326.07 102.821 325.234 103.746C324.399 104.67 323.749 105.741 323.284 106.957C322.82 108.175 322.588 109.476 322.588 110.862V110.954C322.588 112.34 322.82 113.65 323.284 114.882C323.749 116.115 324.39 117.192 325.212 118.116C326.031 119.04 327.022 119.773 328.183 120.312C329.345 120.852 330.622 121.12 332.015 121.12C333.873 121.12 335.442 120.782 336.727 120.104C338.012 119.427 339.29 118.502 340.559 117.331L345.11 121.906C344.274 122.8 343.406 123.601 342.51 124.309C341.612 125.018 340.629 125.626 339.56 126.135C338.493 126.643 337.323 127.029 336.055 127.29C334.784 127.551 333.361 127.683 331.783 127.683Z" fill="#F3BA2F"/>
<path d="M353.526 94.7809H378V101.112H360.586V107.674H375.91V114.005H360.586V120.798H378.233V127.129H353.526V94.7809Z" fill="#F3BA2F"/>
</g>
<defs>
<clipPath id="clip0_1425_2">
<rect width="306" height="61" fill="white" transform="translate(72 80)"/>
</clipPath>
</defs>
</svg>
