<svg width="450" height="220" viewBox="0 0 450 220" fill="none" xmlns="http://www.w3.org/2000/svg">
<g clip-path="url(#clip0_1493_224)">
<path d="M82.3077 86.3846C82.3077 84.8462 81.1538 83.6923 79.6154 83.6923H75V66H94.6154C100.769 66 103.462 68.6923 103.462 74.8462V89.4615C103.462 92.5385 103.077 94.8462 103.077 94.8462H103.462C103.462 94.8462 109.231 88.6923 120.385 88.6923C137.308 88.6923 148.462 102.154 148.462 121.385C148.462 141.385 135.769 154.077 119.231 154.077C107.692 154.077 101.923 147.538 101.923 147.538C101.923 147.538 101.923 149.077 101.923 151V152.538H82.3077V86.3846ZM115 137.154C121.538 137.154 127.308 131.769 127.308 122.154C127.308 112.923 122.308 106.769 115 106.769C108.846 106.769 102.692 111.385 102.692 122.154C102.692 129.462 106.923 137.154 115 137.154Z" fill="black"/>
<path d="M159.231 110.615C159.231 109.077 158.077 107.923 156.538 107.923H151.923V90.2308H171.538C177.692 90.2308 180.384 92.9231 180.384 99.0769V132.538C180.384 134.077 181.538 135.231 183.077 135.231H187.692V152.923H168.077C161.923 152.923 159.231 150.231 159.231 144.077C159.231 144.077 159.231 110.615 159.231 110.615ZM160.769 66H178.461V82.9231H160.769V66Z" fill="black"/>
<path d="M197.692 110.615C197.692 109.077 196.539 107.923 195 107.923H190.385V90.2308H209.231C215 90.2308 218.077 92.9231 218.077 97.1539V97.9231C218.077 98.6923 218.077 99.4616 218.077 99.4616H218.462C221.539 94.4616 227.308 88.6923 238.462 88.6923C251.154 88.6923 261.154 94.4616 261.154 112.154V132.538C261.154 134.077 262.308 135.231 263.846 135.231H268.462V152.923H248.846C242.692 152.923 240 150.231 240 144.077V116.385C240 110.615 237.692 107.923 233.077 107.923C226.539 107.923 222.308 111.385 220.769 116.769C220 119.077 219.616 122.154 219.616 125.231V152.923H198.462V110.615H197.692Z" fill="black"/>
<path d="M299.615 88.6923C312.307 88.6923 316.154 92.9231 316.154 92.9231H316.538C316.538 92.9231 316.538 91.7692 316.538 90.2308V86.3846C316.538 84.8462 315.384 83.6923 313.846 83.6923H309.231V66H328.846C335 66 337.692 68.6923 337.692 74.8462V132.538C337.692 134.077 338.846 135.231 340.384 135.231H345V152.923H326.154C320 152.923 318.077 149.846 318.077 146.769C318.077 146.385 318.077 145.615 318.077 145.615H317.307C317.307 145.615 311.923 154.077 299.23 154.077C282.307 154.077 271.154 140.615 271.154 121.385C270.769 101.769 282.692 88.6923 299.615 88.6923ZM316.538 121.769C316.538 114.077 312.692 106.769 304.23 106.769C297.692 106.769 291.923 112.154 291.923 121.769C291.923 131 296.923 137.154 304.23 137.154C310.769 137.154 316.538 132.538 316.538 121.769Z" fill="black"/>
</g>
<defs>
<clipPath id="clip0_1493_224">
<rect width="300" height="88.4615" fill="white" transform="translate(75 66)"/>
</clipPath>
</defs>
</svg>
