<?xml version="1.0" encoding="utf-8"?>
<!-- Generator: Adobe Illustrator 28.0.0, SVG Export Plug-In . SVG Version: 6.00 Build 0)  -->
<svg version="1.1" id="Layer_1" xmlns="http://www.w3.org/2000/svg" xmlns:xlink="http://www.w3.org/1999/xlink" x="0px" y="0px"
	 viewBox="0 0 450 220" style="enable-background:new 0 0 450 220;" xml:space="preserve">
<style type="text/css">
	.st0{fill:#DDDC25;}
	.st1{fill:#6F6F6E;}
	.st2{opacity:0.3;clip-path:url(#SVGID_00000155833982923516338480000016353091629023320249_);}
	.st3{fill:#1D1D1B;}
	.st4{fill:#676767;}
</style>
<g>
	<g>
		<path class="st0" d="M210.3,88.9C183.9,80,163.1,68.7,150,52.2v0c0,0,0,0,0,0c0,0,0,0,0,0v0c-13.1,16.5-34,27.8-60.3,36.7
			c3.4,54.6,23.3,83.1,59.5,84.6c0.3,0,1.4,0,1.7,0C187,172,206.9,143.5,210.3,88.9z"/>
		<g>
			<polygon class="st1" points="201.1,67.3 213.5,60.6 203.7,77.5 161.2,53 165,46.5 			"/>
			<polygon class="st1" points="98.8,67.3 86.4,60.6 96.2,77.5 138.7,53 134.9,46.5 			"/>
		</g>
		<g>
			<defs>
				<path id="SVGID_1_" d="M210.3,88.9C183.9,80,163.1,68.7,150,52.2v0c0,0,0,0,0,0c0,0,0,0,0,0v0c-13.1,16.5-34,27.8-60.3,36.7
					c3.4,54.6,23.3,83.1,59.5,84.6c0.3,0,1.4,0,1.7,0C187,172,206.9,143.5,210.3,88.9z"/>
			</defs>
			<clipPath id="SVGID_00000183970503981237766070000009670354107621906870_">
				<use xlink:href="#SVGID_1_"  style="overflow:visible;"/>
			</clipPath>
			<g style="opacity:0.3;clip-path:url(#SVGID_00000183970503981237766070000009670354107621906870_);">
				<g>
					<path class="st3" d="M125.5,127.4h11.6c0,0.3,0,0.7,0,1.2c0,0.5,0,1,0,1.3c0,7.4-1.6,12.9-4.7,16.5s-7.9,5.4-14.3,5.4
						c-3.1,0-5.7-0.4-7.9-1.2c-2.2-0.8-4.1-2-5.7-3.7c-2.2-2.2-3.7-5.3-4.6-9.2c-0.9-3.9-1.3-10.7-1.3-20.3c0-6.6,0.3-11.8,0.8-15.7
						c0.5-3.9,1.3-6.8,2.5-8.7c1.7-2.9,3.9-5.1,6.4-6.4c2.6-1.3,5.8-2,9.8-2c6.5,0,11.2,1.7,14.2,5.1s4.4,8.8,4.5,16.3h-11.6v-1.5
						c0-3.5-0.6-6.1-1.7-7.8c-1.1-1.7-2.8-2.6-5.1-2.6c-2.9,0-4.8,1.2-5.8,3.5s-1.6,8.9-1.6,19.6c0,11.5,0.5,18.6,1.5,21.1
						c1,2.5,2.9,3.7,5.8,3.7c2.7,0,4.5-1,5.6-2.9c1.1-2,1.6-5.6,1.6-10.8V127.4z"/>
					<path class="st3" d="M143.6,167.7V44.5h11.9v112.2h53.6v10.9H143.6z"/>
					<path class="st3" d="M161,150.3l14.4-64.1h16l14.6,64.1h-12.9l-3.2-16.1h-13.7l-3.1,16.1H161z M178.1,124.5h10.2l-5.1-26.9
						L178.1,124.5z"/>
				</g>
			</g>
		</g>
	</g>
	<g>
		<g>
			<path class="st1" d="M222.5,103.1V77.9h4.7v25.3H222.5z"/>
			<path class="st1" d="M231.5,103.1V77.9h4.8l6.6,17.7l-0.1-17.7h4.4v25.3h-4.8l-6.6-17.7l0.1,17.7H231.5z"/>
			<path class="st1" d="M251.1,94.3h4.7v1.6c0,1.6,0.2,2.6,0.6,3.2c0.4,0.6,1.1,0.8,2,0.8c1,0,1.8-0.3,2.3-0.8
				c0.5-0.5,0.8-1.2,0.8-2.2c0-0.8-0.2-1.4-0.5-1.9c-0.4-0.5-1.1-1.2-2.3-2.1l-2.4-1.7c-2.1-1.4-3.4-2.6-4-3.6
				c-0.6-0.9-0.8-2.1-0.8-3.5c0-2.1,0.6-3.8,1.9-5c1.3-1.2,3-1.8,5.2-1.8c2.3,0,4.1,0.6,5.4,1.9c1.2,1.3,1.9,3.1,1.9,5.5
				c0,0.2,0,0.4,0,0.6c0,0.1,0,0.2,0,0.3h-4.5v-0.7c0-1.4-0.2-2.3-0.7-2.9c-0.4-0.6-1.2-0.9-2.2-0.9c-0.8,0-1.3,0.2-1.8,0.7
				c-0.4,0.4-0.6,1.1-0.6,1.8c0,1.1,1,2.2,2.9,3.5c0,0,0,0,0,0l2.6,1.8c1.8,1.2,3.1,2.4,3.8,3.5c0.7,1.1,1,2.5,1,4.2
				c0,2.3-0.7,4.1-2,5.3c-1.3,1.2-3.2,1.9-5.6,1.9c-2.5,0-4.4-0.7-5.7-2c-1.2-1.3-1.9-3.3-1.9-6C251,95.5,251.1,95,251.1,94.3
				L251.1,94.3z"/>
			<path class="st1" d="M273.6,103.1V82h-5.4v-4.2h15.5V82h-5.4v21.1H273.6z"/>
			<path class="st1" d="M286.2,103.1V77.9h4.7v25.3H286.2z"/>
			<path class="st1" d="M298.8,103.1V82h-5.4v-4.2h15.5V82h-5.4v21.1H298.8z"/>
			<path class="st1" d="M311.4,77.9h4.7v17c0,1.9,0.2,3.3,0.7,4c0.5,0.7,1.3,1,2.5,1c1.2,0,2-0.4,2.5-1.1c0.5-0.7,0.7-2,0.7-4v-17
				h4.6v17.4c0,1.7-0.1,2.9-0.3,3.7c-0.2,0.8-0.5,1.5-1,2.1c-0.7,0.9-1.6,1.6-2.7,2c-1.1,0.4-2.4,0.7-4,0.7c-2.9,0-4.9-0.6-6.1-1.9
				c-1.2-1.3-1.8-3.4-1.8-6.6V77.9z"/>
			<path class="st1" d="M335.1,103.1V82h-5.4v-4.2h15.5V82h-5.4v21.1H335.1z"/>
			<path class="st1" d="M347.2,90.5c0-2.7,0.1-4.8,0.4-6.4c0.3-1.6,0.6-2.8,1.2-3.6c0.7-1.1,1.6-2,2.6-2.5c1-0.5,2.4-0.7,4-0.7
				s3,0.2,4,0.7c1,0.5,1.9,1.3,2.6,2.5c0.5,0.8,0.9,2,1.2,3.6c0.2,1.6,0.4,3.7,0.4,6.4c0,2.7-0.1,4.8-0.4,6.4
				c-0.3,1.6-0.6,2.8-1.2,3.7c-0.7,1.1-1.6,2-2.6,2.5c-1,0.5-2.4,0.7-4,0.7s-3-0.2-4-0.7c-1-0.5-1.9-1.3-2.6-2.5
				c-0.5-0.8-0.9-2-1.2-3.6C347.3,95.3,347.2,93.2,347.2,90.5z M352,90.5c0,4.2,0.2,6.8,0.7,7.9c0.5,1.1,1.4,1.6,2.7,1.6
				c1.3,0,2.2-0.5,2.6-1.6c0.5-1.1,0.7-3.7,0.7-7.9c0-4.2-0.2-6.8-0.7-7.9c-0.5-1.1-1.4-1.6-2.7-1.6c-1.3,0-2.2,0.5-2.7,1.6
				C352.2,83.7,352,86.3,352,90.5z"/>
		</g>
		<g>
			<path class="st3" d="M222.5,140.5v-30.9h5.8v25.6h10.4v5.3H222.5z"/>
			<path class="st3" d="M242.6,140.5v-30.9h5.8v30.9H242.6z"/>
			<path class="st3" d="M253.6,140.5v-30.9h5.9l8,21.6l-0.2-21.6h5.4v30.9h-5.9l-8.1-21.6l0.2,21.6H253.6z"/>
			<path class="st3" d="M278.1,109.6h5.8v20.8c0,2.4,0.3,4,0.9,4.8s1.6,1.3,3.1,1.3c1.5,0,2.5-0.4,3.1-1.3c0.6-0.9,0.9-2.5,0.9-4.9
				v-20.7h5.7v21.3c0,2.1-0.1,3.6-0.4,4.5c-0.2,1-0.6,1.8-1.2,2.5c-0.8,1.1-1.9,1.9-3.3,2.4c-1.4,0.5-3,0.8-4.9,0.8
				c-3.5,0-6-0.8-7.5-2.3c-1.5-1.5-2.2-4.2-2.2-8V109.6z"/>
			<path class="st3" d="M300.4,140.5l7.6-15.8l-7.2-15.1h6.5l4.1,9.7l4.2-9.7h6.4l-7.4,15.1l7.6,15.8h-6.5l-4.5-10.3l-4.6,10.3
				H300.4z"/>
		</g>
		<g>
			<path class="st4" d="M231.6,154c0-3-0.6-4.2-2.4-4.2c-2.1,0-2.6,2.1-2.6,7.8c0,6.1,0.9,7.2,2.6,7.2c1.5,0,2.6-0.8,2.6-5.1h4.1
				c0,4.4-1.1,8.2-6.5,8.2c-6.1,0-6.9-4.4-6.9-10.5s0.8-10.5,6.9-10.5c5.9,0,6.3,4.3,6.3,7.2H231.6z"/>
			<path class="st4" d="M238.2,147.2h4.1v7.8h4.8v-7.8h4.1v20.3h-4.1v-9h-4.8v9h-4.1V147.2z"/>
			<path class="st4" d="M254.2,167.4v-20.3h4.1v20.3H254.2z"/>
			<path class="st4" d="M261.4,167.4v-20.3h4.1v16.9h7.2v3.4H261.4z"/>
			<path class="st4" d="M285.9,147.2v3.4h-7.2v4.8h6.8v3.4h-6.8v5.5h7.5v3.4h-11.6v-20.3H285.9z"/>
		</g>
	</g>
</g>
</svg>
