<svg width="450" height="220" viewBox="0 0 450 220" fill="none" xmlns="http://www.w3.org/2000/svg">
<path d="M190.143 73.7617C189.402 74.1259 187.904 74.5745 185.682 74.5745C179.53 74.5745 176 70.3177 176 64.8868C176 58.4213 180.498 55 186.091 55C188.259 55 189.404 55.4174 190.142 55.8118L189.459 59.6784C188.637 59.3124 187.765 58.9791 186.26 58.9791C183.596 58.9791 180.771 60.5725 180.771 64.8154C180.771 68.6109 183.024 70.6184 186.282 70.6184C187.572 70.6184 188.448 70.3637 189.459 69.897L190.143 73.7617Z" fill="#0056A2"/>
<path d="M200.358 59.7949C198.701 59.7949 197.097 60.5507 196.281 61.7649H196.231V55.0677L192.062 56.5196V73.9922H196.231V65.8305C196.231 64.652 196.992 63.3844 198.453 63.3844C200.015 63.3844 200.617 64.6218 200.617 66.4218V73.9925H204.79V65.8429C204.79 61.6826 203.016 59.7949 200.358 59.7949Z" fill="#0056A2"/>
<path d="M211.078 68.4802C211.231 70.25 212.691 71.1904 214.945 71.2107C216.304 71.2212 217.884 70.8238 218.936 70.2001L219.565 73.4641C217.981 74.2645 216.172 74.5745 214.33 74.5745C209.368 74.5745 206.708 71.5721 206.708 66.9723C206.708 62.5229 209.568 59.6518 213.853 59.6518C218.27 59.6518 220.25 62.9234 220.25 67.0226C220.25 67.4545 220.197 68.1581 220.15 68.4802H211.078ZM216.086 65.4957C216.086 64.4678 215.588 62.6705 213.658 62.6705C211.966 62.6705 211.168 64.136 211.05 65.4957H216.086Z" fill="#0056A2"/>
<path d="M225.15 73.9923L220.544 60.2356H225.143L227.646 69.9666H227.73L230.232 60.2356H234.833L230.228 73.9923H225.15Z" fill="#0056A2"/>
<path d="M236.016 64.7597C236.016 62.7359 235.952 61.4155 235.867 60.2353H239.794L239.913 62.7924H240.019C240.706 60.7686 242.025 59.9997 243.381 59.9222C244.026 59.8844 244.375 59.9304 244.775 60.0081V64.0305C244.393 63.9551 243.634 63.8665 243.101 63.9158C241.497 64.0643 240.526 65.2383 240.254 66.5897C240.199 66.8698 240.171 67.1808 240.171 67.5446V73.9919H236.017V64.7597H236.016Z" fill="#0056A2"/>
<path d="M259.424 67.113C259.424 71.6217 256.724 74.5742 252.348 74.5742C247.972 74.5742 245.27 71.6217 245.27 67.113C245.27 62.6037 247.972 59.6515 252.348 59.6515C256.724 59.6515 259.424 62.604 259.424 67.113ZM255.102 67.113C255.102 64.8744 254.337 62.9258 252.348 62.9258C250.357 62.9258 249.596 64.8741 249.596 67.113C249.596 69.3537 250.357 71.2993 252.348 71.2993C254.338 71.2993 255.102 69.3537 255.102 67.113Z" fill="#0056A2"/>
<path d="M261.278 64.6215C261.278 62.9046 261.216 61.4388 261.127 60.2356H265.055L265.145 62.1602H265.229C265.773 61.2652 267.212 59.7949 269.458 59.7949C272.206 59.7949 274 61.6826 274 65.7322V73.9925H269.835V66.3644C269.835 64.5943 269.231 63.3841 267.724 63.3841C266.568 63.3841 265.851 64.2016 265.584 64.9854C265.486 65.2724 265.445 65.6623 265.445 66.0561V73.9922H261.278V64.6215Z" fill="#0056A2"/>
<path d="M176.149 110.46V77.6507L225.08 94.0564L176.149 110.46Z" fill="url(#paint0_linear_1387_20)"/>
<path d="M176.161 110.463L225.08 126.867L273.996 110.463V77.6546L225.08 94.0564L176.161 110.463Z" fill="url(#paint1_linear_1387_20)"/>
<path d="M176.152 148.598L176.147 115.778L225.075 132.182L176.152 148.598Z" fill="url(#paint2_linear_1387_20)"/>
<path d="M273.998 115.778L225.066 132.177L176.157 148.592L225.075 165L273.998 148.587V115.778Z" fill="url(#paint3_linear_1387_20)"/>
<defs>
<linearGradient id="paint0_linear_1387_20" x1="225.08" y1="94.0555" x2="194.727" y2="48.7885" gradientUnits="userSpaceOnUse">
<stop stop-color="#06549B"/>
<stop offset="0.55" stop-color="#2FA1D3"/>
<stop offset="0.9" stop-color="#2FA1D3"/>
</linearGradient>
<linearGradient id="paint1_linear_1387_20" x1="176.161" y1="107.182" x2="209.824" y2="16.8351" gradientUnits="userSpaceOnUse">
<stop stop-color="#1371B1"/>
<stop offset="0.05" stop-color="#2FA1D3"/>
<stop offset="0.45" stop-color="#2FA1D3"/>
<stop offset="0.6" stop-color="#06569C"/>
</linearGradient>
<linearGradient id="paint2_linear_1387_20" x1="225.075" y1="132.188" x2="188.109" y2="99.1226" gradientUnits="userSpaceOnUse">
<stop stop-color="#9D1A36"/>
<stop offset="0.4" stop-color="#9D1A36"/>
<stop offset="0.6" stop-color="#E6192F"/>
</linearGradient>
<linearGradient id="paint3_linear_1387_20" x1="176.157" y1="145.311" x2="209.831" y2="54.9486" gradientUnits="userSpaceOnUse">
<stop stop-color="#A21C38"/>
<stop offset="0.13" stop-color="#E6192F"/>
<stop offset="0.45" stop-color="#E6192F"/>
<stop offset="0.6" stop-color="#A71C37"/>
</linearGradient>
</defs>
</svg>
