<svg width="450" height="220" viewBox="0 0 450 220" fill="none" xmlns="http://www.w3.org/2000/svg">
<path d="M220.006 118.978C221.952 118.978 223.092 117.854 223.092 115.935V98.6102C223.092 96.6905 221.952 95.5667 220.006 95.5667H217.396V118.978H220.006ZM212.364 90.8844H220.244C225.038 90.8844 228.123 93.9749 228.123 98.7038V115.841C228.123 120.57 225.038 123.66 220.244 123.66H212.364V90.8844Z" fill="#435256"/>
<path d="M242.363 111.627L240.322 97.9079L238.281 111.627H242.363ZM243.028 116.403H237.616L236.525 123.66H231.493L236.999 90.8844H243.74L249.246 123.66H244.119L243.028 116.403Z" fill="#435256"/>
<path d="M249.531 90.8845H265.575V95.5669H260.069V123.66H255.038V95.5669H249.531V90.8845Z" fill="#435256"/>
<path d="M276.729 111.627L274.688 97.9079L272.647 111.627H276.729ZM277.394 116.403H271.983L270.891 123.66H265.859L271.365 90.8844H278.106L283.612 123.66H278.486L277.394 116.403Z" fill="#435256"/>
<path d="M293.564 111.273H296.824L295.194 100.315L293.564 111.273ZM297.646 111.981H292.742L295.194 95.5009L297.646 111.981ZM299.296 123.306H303.699L298.312 91.2386H292.171L286.784 123.306H291.092L292.183 116.049H298.205L299.296 123.306ZM304.537 124.015H298.686L297.595 116.757H292.793L291.702 124.015H285.946L291.571 90.5301H298.911L304.537 124.015Z" fill="#435256"/>
<path d="M313.396 105.092H315.653C317.414 105.092 318.384 104.137 318.384 102.403V98.6102C318.384 96.876 317.414 95.921 315.653 95.921H313.396V105.092ZM315.653 105.801H312.688V95.2125H315.653C317.807 95.2125 319.092 96.4827 319.092 98.6102V102.403C319.092 104.531 317.807 105.801 315.653 105.801ZM319.579 123.306H324.058L319.888 108.842L320.122 108.701C322.246 107.426 323.415 105.156 323.415 102.309V98.7038C323.415 94.1689 320.461 91.2387 315.89 91.2387H308.364V123.306H312.688V109.775H315.924L319.579 123.306ZM325 124.015H319.036L315.381 110.483H313.396V124.015H307.656V90.5301H315.89C320.892 90.5301 324.124 93.7384 324.124 98.7038V102.309C324.124 105.31 322.917 107.733 320.719 109.164L325 124.015Z" fill="#435256"/>
<path d="M197.331 67.2209C194.363 69.6714 189.941 69.2924 187.455 66.3627C184.965 63.4348 185.352 59.0732 188.317 56.6196C191.288 54.1619 195.711 54.5454 198.2 57.4706C200.691 60.3985 200.3 64.761 197.331 67.2209Z" fill="#435256"/>
<path d="M165.046 123.903C163.023 125.576 160 125.317 158.305 123.32C156.609 121.322 156.873 118.343 158.898 116.672C160.921 114.996 163.94 115.257 165.638 117.251C167.334 119.249 167.071 122.228 165.046 123.903Z" fill="#435256"/>
<path d="M132.079 66.57C130.252 68.0799 127.535 67.8461 126.008 66.0455C124.476 64.2503 124.719 61.5656 126.541 60.0576C128.365 58.545 131.082 58.7824 132.611 60.5811C134.143 62.3763 133.904 65.061 132.079 66.57Z" fill="#53AAE5"/>
<path d="M167.468 89.8918C163.962 92.7933 158.733 92.3418 155.793 88.8814C152.852 85.4254 153.312 80.2669 156.814 77.3677C160.321 74.4657 165.551 74.9159 168.493 78.375C171.439 81.8332 170.973 86.9953 167.468 89.8918Z" fill="#53AAE5"/>
<path d="M191.119 98.9424C191.164 98.9876 191.209 99.0382 191.254 99.0884C191.635 99.5314 191.816 100.1 191.762 100.684C191.708 101.267 191.431 101.79 190.976 102.169C190.053 102.93 188.645 102.817 187.854 101.899C187.071 100.975 187.192 99.5954 188.13 98.8183C189.003 98.0932 190.316 98.1509 191.119 98.9424ZM186.945 97.4168C185.224 98.8403 184.997 101.379 186.436 103.072C186.518 103.162 186.598 103.248 186.682 103.331C188.182 104.812 190.539 104.911 192.164 103.566C192.993 102.881 193.509 101.909 193.603 100.846C193.699 99.7768 193.366 98.7363 192.669 97.9136C191.209 96.1824 188.661 95.9952 186.945 97.4168Z" fill="#435256"/>
<path d="M160.073 160.214C160.12 160.26 160.162 160.31 160.206 160.359C160.587 160.808 160.768 161.371 160.717 161.95C160.665 162.536 160.388 163.061 159.933 163.436C159.01 164.2 157.597 164.088 156.807 163.17C156.024 162.245 156.15 160.864 157.084 160.089C157.955 159.37 159.27 159.422 160.073 160.214ZM155.895 158.692C154.173 160.114 153.955 162.648 155.392 164.341C155.471 164.433 155.551 164.519 155.635 164.602C157.136 166.082 159.492 166.182 161.12 164.839C161.951 164.147 162.461 163.183 162.557 162.115C162.651 161.047 162.322 160.007 161.623 159.186C160.161 157.453 157.611 157.27 155.895 158.692Z" fill="#53AAE5"/>
<path d="M139.338 105.079C139.023 104.717 138.874 104.252 138.918 103.772C138.959 103.297 139.186 102.864 139.561 102.551C140.276 101.96 141.354 102.009 142.015 102.661C142.053 102.699 142.09 102.735 142.127 102.778C142.439 103.145 142.588 103.61 142.544 104.09C142.501 104.566 142.271 105 141.899 105.308C141.141 105.938 139.988 105.849 139.338 105.079ZM143.547 101.601C142.22 100.04 139.923 99.8738 138.373 101.155C137.621 101.776 137.16 102.647 137.074 103.612C136.988 104.578 137.284 105.521 137.917 106.256C137.989 106.341 138.061 106.419 138.138 106.495C139.493 107.832 141.621 107.923 143.089 106.707C143.84 106.084 144.304 105.209 144.388 104.248C144.475 103.285 144.175 102.344 143.547 101.601Z" fill="#435256"/>
<path d="M145.786 159.626C142.895 162.478 138.198 162.474 135.301 159.617C132.408 156.763 132.404 152.129 135.295 149.277C138.195 146.417 142.893 146.42 145.786 149.274C148.683 152.131 148.686 156.766 145.786 159.626Z" fill="#435256"/>
<path d="M135.497 65.3411L134.355 66.7793L153.751 77.7054L154.896 76.264L135.497 65.3411Z" fill="#435256"/>
<path d="M183.953 61.8076L136.131 61.8591L136.095 63.6785L183.91 63.6337L183.953 61.8076Z" fill="#435256"/>
<path d="M170.151 77.2146L171.256 78.6819L186.101 67.7966L184.997 66.3365L170.151 77.2146Z" fill="#435256"/>
<path d="M184.857 102.607L166.087 115.494L167.141 116.991L185.915 104.101L184.857 102.607Z" fill="#333A3D"/>
<path d="M147.011 101.972L156.667 92.1037L155.337 90.8397L145.679 100.706L147.011 101.972Z" fill="#435256"/>
<path d="M147.128 106.608L145.95 108.013L156.828 116.822L158 115.416L147.128 106.608Z" fill="#435256"/>
<path d="M190.532 95.1895L190.779 70.2289L188.928 70.2137L188.681 95.1734C189.295 95.0771 189.916 95.0802 190.532 95.1895Z" fill="#435256"/>
<path d="M185.376 97.0421L170.976 88.8007L170.051 90.3728L184.446 98.6241C184.656 98.049 184.971 97.5155 185.376 97.0421Z" fill="#435256"/>
<path d="M128.353 71.7887L136.601 98.612C136.666 98.5923 136.719 98.5574 136.783 98.5332C137.309 98.3419 137.851 98.2367 138.399 98.1744L130.128 71.2704L128.353 71.7887Z" fill="#435256"/>
<path d="M139.237 109.974L136.876 144.196C136.945 144.2 137.007 144.184 137.075 144.183C137.635 144.178 138.181 144.26 138.719 144.385L141.086 110.079L139.237 109.974Z" fill="#435256"/>
<path d="M180.008 132.832L188.43 105.765C187.84 105.641 187.27 105.417 186.739 105.097L177.923 133.313L167.383 123.67L166.119 125.008L176.295 134.313L149.459 149.582C149.593 150.184 149.657 150.787 149.638 151.399L178.487 135.883L178.881 135.742" fill="#435256"/>
</svg>
