<?xml version="1.0" encoding="utf-8"?>
<!-- Generator: Adobe Illustrator 28.0.0, SVG Export Plug-In . SVG Version: 6.00 Build 0)  -->
<svg version="1.1" id="Layer_1" xmlns="http://www.w3.org/2000/svg" xmlns:xlink="http://www.w3.org/1999/xlink" x="0px" y="0px"
	 viewBox="0 0 450 220" style="enable-background:new 0 0 450 220;" xml:space="preserve">
<style type="text/css">
	.st0{fill:#343434;}
	.st1{fill:#D43116;}
</style>
<g>
	<path class="st0" d="M179.6,145.7c0-1.9,1.4-3.2,3.3-3.2c1,0,1.8,0.3,2.4,1l-0.6,0.6c-0.5-0.5-1.1-0.7-1.8-0.7
		c-1.4,0-2.5,1-2.5,2.4c0,1.4,1.1,2.4,2.5,2.4c0.7,0,1.3-0.2,1.8-0.8l0.6,0.6c-0.6,0.7-1.4,1-2.4,1
		C181.1,148.9,179.6,147.6,179.6,145.7"/>
	<rect x="186.7" y="142.5" class="st0" width="0.9" height="6.3"/>
	<polygon class="st0" points="194.1,148.1 194.1,148.9 189.5,148.9 189.5,142.5 193.9,142.5 193.9,143.3 190.4,143.3 190.4,145.3 
		193.6,145.3 193.6,146 190.4,146 190.4,148.1 	"/>
	<polygon class="st0" points="201,142.5 201,148.9 200.2,148.9 196.4,144.1 196.4,148.9 195.5,148.9 195.5,142.5 196.3,142.5 
		200.1,147.2 200.1,142.5 	"/>
	<path class="st0" d="M202.4,145.7c0-1.9,1.4-3.2,3.3-3.2c1,0,1.8,0.3,2.4,1l-0.6,0.6c-0.5-0.5-1.1-0.7-1.8-0.7
		c-1.4,0-2.5,1-2.5,2.4c0,1.4,1.1,2.4,2.5,2.4c0.7,0,1.3-0.2,1.8-0.8l0.6,0.6c-0.6,0.7-1.4,1-2.4,1
		C203.8,148.9,202.4,147.6,202.4,145.7"/>
	<rect x="209.4" y="142.5" class="st0" width="0.9" height="6.3"/>
	<path class="st0" d="M216.2,147.3h-3.4l-0.7,1.6h-0.9l2.9-6.3h0.9l2.9,6.3h-0.9L216.2,147.3L216.2,147.3z M215.9,146.6l-1.4-3.1
		l-1.4,3.1H215.9z"/>
	<path class="st0" d="M218.2,148.1l0.3-0.7c0.5,0.4,1.3,0.7,2.1,0.7c1.1,0,1.6-0.4,1.6-1c0-1.5-3.8-0.6-3.8-2.9c0-1,0.8-1.8,2.4-1.8
		c0.7,0,1.5,0.2,2,0.6l-0.3,0.7c-0.5-0.4-1.2-0.5-1.7-0.5c-1.1,0-1.5,0.5-1.5,1c0,1.5,3.8,0.6,3.8,2.9c0,1-0.8,1.8-2.4,1.8
		C219.7,148.9,218.7,148.6,218.2,148.1"/>
	<path class="st0" d="M226.8,142.5h2.7c2,0,3.4,1.3,3.4,3.2s-1.4,3.2-3.4,3.2h-2.7V142.5L226.8,142.5z M229.4,148.1
		c1.6,0,2.6-1,2.6-2.4c0-1.4-1-2.4-2.6-2.4h-1.7v4.7H229.4z"/>
	<polygon class="st0" points="238.9,148.1 238.9,148.9 234.3,148.9 234.3,142.5 238.8,142.5 238.8,143.3 235.2,143.3 235.2,145.3 
		238.4,145.3 238.4,146 235.2,146 235.2,148.1 	"/>
	<polygon class="st0" points="242.8,142.5 243.7,142.5 243.7,148.1 247.1,148.1 247.1,148.9 242.8,148.9 	"/>
	<path class="st0" d="M252.2,147.3h-3.4l-0.7,1.6h-0.9l2.9-6.3h0.9l2.9,6.3h-0.9L252.2,147.3L252.2,147.3z M251.9,146.6l-1.4-3.1
		l-1.4,3.1H251.9z"/>
	<path class="st0" d="M256.7,145.7c0-1.9,1.4-3.2,3.3-3.2c1,0,1.8,0.3,2.4,1l-0.6,0.6c-0.5-0.5-1.1-0.7-1.8-0.7
		c-1.4,0-2.5,1-2.5,2.4c0,1.4,1.1,2.4,2.5,2.4c0.7,0,1.3-0.2,1.8-0.8l0.6,0.6c-0.6,0.7-1.4,1-2.4,1
		C258.1,148.9,256.7,147.6,256.7,145.7"/>
	<path class="st0" d="M263.1,145.7c0-1.9,1.4-3.2,3.4-3.2c1.9,0,3.3,1.4,3.3,3.2s-1.4,3.2-3.3,3.2S263.1,147.5,263.1,145.7
		 M268.9,145.7c0-1.4-1-2.4-2.4-2.4c-1.4,0-2.5,1-2.5,2.4s1,2.4,2.5,2.4C267.9,148.1,268.9,147.1,268.9,145.7"/>
	<polygon class="st0" points="277,148.9 277,144.2 274.7,148.1 274.3,148.1 272,144.3 272,148.9 271.2,148.9 271.2,142.5 
		271.9,142.5 274.5,147 277.1,142.5 277.9,142.5 277.9,148.9 	"/>
	<path class="st0" d="M284.9,144.7c0,1.4-1,2.2-2.6,2.2h-1.6v1.9h-0.9v-6.3h2.5C283.9,142.5,284.9,143.4,284.9,144.7 M284,144.7
		c0-0.9-0.6-1.4-1.8-1.4h-1.5v2.8h1.5C283.4,146.2,284,145.6,284,144.7"/>
	<path class="st0" d="M286.2,146.1v-3.6h0.9v3.6c0,1.4,0.6,2,1.8,2c1.1,0,1.8-0.6,1.8-2v-3.6h0.9v3.6c0,1.8-1,2.8-2.7,2.8
		C287.2,148.9,286.2,148,286.2,146.1"/>
	<polygon class="st0" points="294.5,143.3 292.4,143.3 292.4,142.5 297.6,142.5 297.6,143.3 295.4,143.3 295.4,148.9 294.5,148.9 	
		"/>
	<path class="st0" d="M302.3,147.3h-3.4l-0.7,1.6h-0.9l2.9-6.3h0.9l2.9,6.3H303L302.3,147.3L302.3,147.3z M302,146.6l-1.4-3.1
		l-1.4,3.1H302L302,146.6z"/>
	<path class="st0" d="M304.2,145.7c0-1.9,1.4-3.2,3.3-3.2c1,0,1.8,0.3,2.4,1l-0.6,0.6c-0.5-0.5-1.1-0.7-1.8-0.7
		c-1.4,0-2.5,1-2.5,2.4c0,1.4,1.1,2.4,2.5,2.4c0.7,0,1.3-0.2,1.8-0.8l0.6,0.6c-0.6,0.7-1.4,1-2.4,1
		C305.7,148.9,304.2,147.6,304.2,145.7"/>
	<rect x="311.3" y="142.5" class="st0" width="0.9" height="6.3"/>
	<path class="st0" d="M313.6,145.7c0-1.9,1.4-3.2,3.4-3.2c1.9,0,3.3,1.4,3.3,3.2s-1.4,3.2-3.3,3.2S313.6,147.5,313.6,145.7
		 M319.4,145.7c0-1.4-1-2.4-2.4-2.4c-1.4,0-2.5,1-2.5,2.4s1,2.4,2.5,2.4C318.4,148.1,319.4,147.1,319.4,145.7 M317.5,140.8h1.1
		l-1.5,1.2h-0.8L317.5,140.8L317.5,140.8z"/>
	<polygon class="st0" points="327.1,142.5 327.1,148.9 326.4,148.9 322.6,144.1 322.6,148.9 321.7,148.9 321.7,142.5 322.4,142.5 
		326.2,147.2 326.2,142.5 	"/>
	<path class="st0" d="M180.1,155.8v-3.6h0.9v3.6c0,1.4,0.6,2,1.8,2s1.8-0.6,1.8-2v-3.6h0.9v3.6c0,1.8-1,2.8-2.7,2.8
		S180.1,157.6,180.1,155.8"/>
	<polygon class="st0" points="192.7,152.2 192.7,158.5 192,158.5 188.2,153.8 188.2,158.5 187.3,158.5 187.3,152.2 188,152.2 
		191.8,156.9 191.8,152.2 	"/>
	<rect x="194.6" y="152.2" class="st0" width="0.9" height="6.3"/>
	<polygon class="st0" points="202.9,152.2 200.1,158.5 199.2,158.5 196.4,152.2 197.4,152.2 199.7,157.4 202,152.2 	"/>
	<polygon class="st0" points="208.2,157.7 208.2,158.5 203.7,158.5 203.7,152.2 208.1,152.2 208.1,153 204.6,153 204.6,154.9 
		207.7,154.9 207.7,155.7 204.6,155.7 204.6,157.7 	"/>
	<path class="st0" d="M213.9,158.5l-1.4-1.9c-0.1,0-0.3,0-0.4,0h-1.6v1.9h-0.9v-6.3h2.5c1.6,0,2.6,0.8,2.6,2.2c0,1-0.5,1.7-1.4,2
		l1.5,2.1H213.9L213.9,158.5z M213.9,154.4c0-0.9-0.6-1.4-1.8-1.4h-1.5v2.8h1.5C213.3,155.8,213.9,155.3,213.9,154.4"/>
	<path class="st0" d="M215.7,157.8l0.3-0.7c0.5,0.4,1.3,0.7,2.1,0.7c1.1,0,1.6-0.4,1.6-1c0-1.5-3.8-0.6-3.8-2.9c0-1,0.8-1.8,2.4-1.8
		c0.7,0,1.5,0.2,2,0.6l-0.3,0.7c-0.5-0.4-1.2-0.5-1.7-0.5c-1.1,0-1.5,0.5-1.5,1c0,1.5,3.8,0.6,3.8,2.9c0,1-0.8,1.8-2.4,1.8
		C217.1,158.6,216.2,158.3,215.7,157.8"/>
	<rect x="221.9" y="152.2" class="st0" width="0.9" height="6.3"/>
	<path class="st0" d="M224.7,152.2h2.7c2,0,3.4,1.3,3.4,3.2c0,1.9-1.4,3.2-3.4,3.2h-2.7V152.2L224.7,152.2z M227.3,157.7
		c1.6,0,2.6-1,2.6-2.4c0-1.4-1-2.4-2.6-2.4h-1.7v4.7H227.3z"/>
	<path class="st0" d="M236.1,156.9h-3.4l-0.7,1.6h-0.9l2.9-6.3h0.9l2.9,6.3h-0.9L236.1,156.9L236.1,156.9z M235.8,156.2l-1.4-3.1
		l-1.4,3.1H235.8z"/>
	<path class="st0" d="M238.7,152.2h2.7c2,0,3.4,1.3,3.4,3.2c0,1.9-1.4,3.2-3.4,3.2h-2.7V152.2L238.7,152.2z M241.3,157.7
		c1.6,0,2.6-1,2.6-2.4c0-1.4-1-2.4-2.6-2.4h-1.7v4.7H241.3z"/>
	<path class="st0" d="M248.5,152.2h2.7c2,0,3.4,1.3,3.4,3.2c0,1.9-1.4,3.2-3.4,3.2h-2.7V152.2L248.5,152.2z M251.1,157.7
		c1.6,0,2.6-1,2.6-2.4c0-1.4-1-2.4-2.6-2.4h-1.7v4.7H251.1z"/>
	<polygon class="st0" points="260.6,157.7 260.6,158.5 256,158.5 256,152.2 260.5,152.2 260.5,153 256.9,153 256.9,154.9 
		260.1,154.9 260.1,155.7 256.9,155.7 256.9,157.7 	"/>
	<path class="st0" d="M264,155.3c0-1.9,1.4-3.2,3.3-3.2c1,0,1.8,0.3,2.4,1l-0.6,0.6c-0.5-0.5-1.1-0.7-1.8-0.7c-1.4,0-2.5,1-2.5,2.4
		s1.1,2.4,2.5,2.4c0.7,0,1.3-0.2,1.8-0.8l0.6,0.6c-0.6,0.7-1.4,1-2.4,1C265.4,158.6,264,157.2,264,155.3"/>
	<polygon class="st0" points="276.4,152.2 276.4,158.5 275.5,158.5 275.5,155.7 271.9,155.7 271.9,158.5 271,158.5 271,152.2 
		271.9,152.2 271.9,154.9 275.5,154.9 275.5,152.2 	"/>
	<rect x="278.3" y="152.2" class="st0" width="0.9" height="6.3"/>
	<polygon class="st0" points="281.1,152.2 282,152.2 282,157.7 285.5,157.7 285.5,158.5 281.1,158.5 	"/>
	<polygon class="st0" points="291.1,157.7 291.1,158.5 286.5,158.5 286.5,152.2 291,152.2 291,153 287.4,153 287.4,154.9 
		290.6,154.9 290.6,155.7 287.4,155.7 287.4,157.7 	"/>
	<path class="st0" d="M243.5,124c-1.8,1.6-4.1,2.5-6.7,2.5c-5.6,0-10.1-4.5-10.1-10.1s4.5-10.1,10.1-10.1c2.6,0,4.9,1,6.7,2.5
		c0.9-2.6,2.3-4.9,4.1-7c-3-2.2-6.7-3.5-10.8-3.5c-10,0-18.1,8.1-18.1,18.1s8.1,18.1,18.1,18.1c4,0,7.7-1.3,10.8-3.5
		C245.8,129,244.4,126.6,243.5,124"/>
	<path class="st0" d="M207.9,84.4v17c-2.9-1.9-6.4-3.1-10.1-3.1c-10,0-18.2,8.1-18.2,18.2s8.1,18.2,18.2,18.2
		c3.8,0,7.2-1.1,10.1-3.1v3.1h8V84.4H207.9z M205.1,123.5c-1.8,1.9-4.4,3.1-7.3,3.1c-5.6,0-10.1-4.5-10.1-10.1s4.5-10.1,10.1-10.1
		c2.9,0,5.4,1.2,7.3,3.1c1.8,1.8,2.9,4.3,2.9,7.1S206.9,121.6,205.1,123.5"/>
	<path class="st1" d="M271.3,109c-1.8-1.6-4.2-2.6-6.8-2.6c-5.6,0-10.1,4.5-10.1,10.1c0,5.6,4.5,10.1,10.1,10.1
		c2.8,0,5.4-1.2,7.3-3.1l5.7,5.6c-3.3,3.4-7.9,5.5-13,5.5c-10,0-18.1-8.1-18.1-18.1s8.1-18.1,18.1-18.1c4.8,0,9.1,1.9,12.4,4.9
		L271.3,109L271.3,109z"/>
	<path class="st0" d="M146.9,98.1V84.1l1,0.6l2.8,8.7c0,0.1,0.1,0.1,0.1,0.1c0,0,0.1,0,0.1,0c0,0,0,0,0.1,0l0.3-0.1
		c0.1,0,0.2-0.2,0.1-0.3l-2.5-7.8l2.9,1.9l5.7,7.9c0,0.1,0.1,0.1,0.2,0.1c0,0,0.1,0,0.1,0l0.3-0.2c0.1,0,0.1-0.1,0.1-0.1
		c0-0.1,0-0.1,0-0.2l-5.8-8l-0.9-3.3l6.7,4.9c0,0,0.1,0,0.1,0c0,0,0,0,0,0c0.1,0,0.1,0,0.1-0.1l0.2-0.3c0.1-0.1,0.1-0.2-0.1-0.3
		l-7.5-5.4l-0.3-1.1l13.9,4.5c0,0,0,0,0.1,0c0,0,0.1,0,0.1,0c0.1,0,0.1-0.1,0.1-0.1l0.1-0.3c0-0.1,0-0.3-0.1-0.3l-13.8-4.5l0.9-0.7
		h9.2c0.1,0,0.2-0.1,0.2-0.2v-0.3c0-0.1,0-0.1-0.1-0.2c0,0-0.1-0.1-0.2-0.1H153l2.7-2.2l9.3-3c0.1,0,0.2-0.2,0.1-0.3l-0.1-0.3
		c0-0.1-0.1-0.1-0.1-0.1c-0.1,0-0.1,0-0.2,0l-9.6,3.1l-3.3-0.2l6.8-4.9c0.1-0.1,0.1-0.2,0.1-0.3l-0.2-0.3c0-0.1-0.1-0.1-0.2-0.1
		c-0.1,0-0.1,0-0.2,0l-7.5,5.5l-1.1-0.1l8.6-11.9c0,0,0.1-0.1,0-0.2c0-0.1,0-0.1-0.1-0.1l-0.3-0.2c-0.1-0.1-0.2-0.1-0.3,0.1
		l-8.6,11.8l-0.4-1l2.9-8.8c0-0.1,0-0.1,0-0.2c0-0.1-0.1-0.1-0.1-0.1l-0.3-0.1c-0.1,0-0.3,0-0.3,0.1l-2.6,7.9l-1.2-3.1v-10
		c0-0.1-0.1-0.2-0.2-0.2h-0.3c-0.1,0-0.2,0.1-0.2,0.2v10l-1.2,3.1l-2.6-7.9c0-0.1-0.1-0.1-0.1-0.1c-0.1,0-0.1,0-0.2,0l-0.3,0.1
		c-0.1,0-0.2,0.2-0.1,0.3l2.9,8.8l-0.4,1l-8.6-11.8c-0.1-0.1-0.2-0.1-0.3-0.1l-0.3,0.2c-0.1,0-0.1,0.1-0.1,0.1c0,0.1,0,0.1,0,0.2
		l8.6,11.9l-1.1,0.1l-7.5-5.5c-0.1,0-0.1-0.1-0.2,0c-0.1,0-0.1,0-0.1,0.1l-0.2,0.3c-0.1,0.1-0.1,0.2,0.1,0.3l6.8,4.9l-3.3,0.2
		l-9.6-3.1c-0.1,0-0.1,0-0.2,0c-0.1,0-0.1,0.1-0.1,0.1l-0.1,0.3c0,0.1,0,0.3,0.1,0.3l9.3,3l2.7,2.2h-8.2c-0.1,0-0.2,0.1-0.2,0.2v0.3
		c0,0.1,0.1,0.2,0.2,0.2h9.2l0.9,0.7l-13.8,4.5c-0.1,0-0.2,0.2-0.1,0.3l0.1,0.3c0,0.1,0.1,0.1,0.1,0.1c0,0,0.1,0,0.1,0
		c0,0,0,0,0.1,0l13.9-4.5l-0.3,1.1l-7.5,5.4c-0.1,0.1-0.1,0.2-0.1,0.3l0.2,0.3c0,0.1,0.1,0.1,0.1,0.1c0,0,0,0,0,0c0,0,0.1,0,0.1,0
		l6.7-4.9l-0.9,3.3l-5.8,8c0,0.1-0.1,0.1,0,0.2c0,0.1,0,0.1,0.1,0.1l0.3,0.2c0,0,0.1,0,0.1,0c0.1,0,0.1,0,0.2-0.1l5.7-7.9l2.9-1.9
		l-2.5,7.8c0,0.1,0,0.1,0,0.2c0,0.1,0.1,0.1,0.1,0.1l0.3,0.1c0,0,0,0,0.1,0c0.1,0,0.2-0.1,0.2-0.2l2.8-8.7l1-0.6v14.1h-23.2v57
		c0,2.2,1.3,3.5,3.5,3.5H143c0.7,0,2.8,0.2,2.8,1.1v0.6h1.2v-0.6c0-0.9,2.1-1.1,2.8-1.1h16.7c2.2,0,3.5-1.3,3.5-3.5v-57L146.9,98.1
		L146.9,98.1z M168.8,127h-15.7c-0.5-1.8-1.7-3.3-3.3-4.1c0,0,0,0,0,0c-0.1-0.1-0.3-0.3-0.4-0.5c-0.3-0.5-0.8-1.1-1.6-1
		c-0.4,0.1-0.7,0.2-0.9,0.3V99.4h22L168.8,127L168.8,127z M146.5,135.5c-3.6,0-6.5-2.9-6.5-6.5s2.9-6.5,6.5-6.5c0.1,0,0.2,0,0.2,0
		c0,0.1,0.1,0.1,0.2,0.2c-0.1,0.1-0.3,0.1-0.3,0.2c0,0,0,0.1,0,0.1c0,0-0.1,0-0.1,0c-3.3,0-5.9,2.7-5.9,5.9c0,3.3,2.7,5.9,5.9,5.9
		s5.9-2.7,5.9-5.9c0-2.3-1.3-4.3-3.3-5.3l0,0c0,0,0,0,0-0.1c-0.3-0.2-1.6-0.4-1.6-0.4c-0.1,0-0.2-0.1-0.3-0.1c0.1,0,0.2-0.1,0.3-0.1
		c0.1,0,0.2-0.1,0.2-0.2c0-0.1,0-0.2-0.1-0.2c-0.2-0.2-0.5-0.5-0.5-0.5c0,0,0,0,0,0c0,0,0.2-0.2,0.8-0.3c0.5-0.1,0.8,0.3,1.1,0.8
		c0.2,0.3,0.3,0.5,0.5,0.6l0,0c2.1,1.1,3.5,3.3,3.5,5.8C153,132.6,150.1,135.5,146.5,135.5 M144.8,84.3
		C144.8,84.3,144.8,84.3,144.8,84.3l-0.4,0.3l0,0l-2.9,1.9l4.8-6.7v3.5l-0.1,0.1l0,0L144.8,84.3L144.8,84.3z M142.1,82.8l0.1-0.4
		l0,0l0.4-1.6l3.4-1.1l-4.8,6.7C141.2,86.3,142.1,82.8,142.1,82.8z M141.1,79.2l-0.4-0.3l0,0l-2.6-2.1l7.8,2.5l-3.4,1.1l-0.1-0.1
		l0,0L141.1,79.2L141.1,79.2 M143.9,76.1L146,79l-7.8-2.5L143.9,76.1L143.9,76.1z M145,73.9l0-0.1l0,0l1.3-3.2v8.2l-2.1-2.9l0.1-0.2
		l0,0L145,73.9L145,73.9z M148.7,75.9l-2.1,2.9v-8.2L148.7,75.9z M154.7,76.4l-7.8,2.5l2.1-2.9L154.7,76.4z M152,79.1l-0.2,0.2l0,0
		l-1.4,1.2l-3.4-1.1l7.8-2.5L152,79.1L152,79.1z M150.8,82.8l0.9,3.5l-4.8-6.6l3.4,1.1l0,0l0,0.1l0,0l0.4,1.6l0,0L150.8,82.8
		L150.8,82.8z M148.6,84.6l-0.4-0.3c0,0,0,0,0,0l-1.4-0.9l0,0l-0.1-0.1v-3.5l4.8,6.7L148.6,84.6L148.6,84.6 M149.5,129
		c-0.4,0.6-1,1-1.6,1.3c0.3-0.3,0.5-0.8,0.5-1.3c0-0.5-0.2-0.9-0.5-1.3C148.5,128,149.1,128.5,149.5,129 M146.2,127.5
		c0.1,0,0.2,0,0.3,0c0.1,0,0.2,0,0.3,0c0.7,0.1,1.3,0.8,1.3,1.5c0,0.9-0.7,1.6-1.6,1.6s-1.6-0.7-1.6-1.6
		C144.9,128.3,145.4,127.6,146.2,127.5 M144.5,129c0,0.5,0.2,0.9,0.5,1.3c-0.6-0.3-1.2-0.7-1.6-1.3c0.4-0.6,1-1,1.6-1.3
		C144.7,128.1,144.5,128.5,144.5,129 M143.2,129.4c0.8,1,2,1.6,3.3,1.6c1.3,0,2.5-0.6,3.3-1.6l1.2,2.2h-9.1L143.2,129.4L143.2,129.4
		z M146.5,127c-0.8,0-1.6,0.2-2.3,0.7l2.3-3.9l2.3,3.9C148.1,127.3,147.3,127,146.5,127 M142.9,129L142.9,129L142.9,129l-1.4,2.4
		c-0.3-0.7-0.5-1.5-0.5-2.4c0-2.9,2.2-5.2,5.1-5.5C146,123.5,142.9,129,142.9,129z M151,132.1c-1,1.5-2.7,2.4-4.5,2.4
		c-1.9,0-3.6-1-4.5-2.4H151z M151.4,131.4l-1.3-2.3l0,0l0,0l-3.1-5.5c0,0,0,0,0,0c0.2,0.1,0.4,0.1,0.5,0.2c0.3,0,1.1,0.2,1.4,0.3
		c1.9,0.9,3.2,2.8,3.2,5C151.9,129.8,151.7,130.6,151.4,131.4 M146.1,99.4V122c-3,0.2-5.5,2.2-6.3,5h-15.6V99.4H146.1L146.1,99.4z
		 M143,157.3h-16.7c-1.5,0-2.2-0.7-2.2-2.2v-27.3h15.5c-0.1,0.4-0.1,0.8-0.1,1.2c0,3.7,2.9,6.8,6.6,7v22.1
		C145.3,157.5,144.1,157.3,143,157.3 M166.6,157.3h-16.7c-1.1,0-2.2,0.2-3,0.7V136c3.7-0.2,6.6-3.2,6.6-7c0-0.4,0-0.8-0.1-1.2h15.5
		v27.3C168.8,156.6,168.1,157.3,166.6,157.3"/>
	<path class="st0" d="M150.3,104.9c0.2,0,0.3,0,0.5-0.1l1.7,2.4c-0.1,0.6-0.1,1.4,0.1,2.3c0.3,1.8,1.5,2.8,3.6,2.8l0.5,0.7
		c-0.6,0.7-1.3,2.1-0.3,3.1c0.3,0.3,0.8,0.5,1.5,0.5c0.4,0,0.9-0.1,1.3-0.1l0,0c-0.3,0.3-1.1,1.3-0.5,2.3c0.4,0.7,0.9,0.9,1.4,1
		c0.3,0.1,0.5,0.1,0.7,0.3c0.5,0.4,0.5,0.7,0.5,1.3c0,0.1,0,0.1,0,0.2c0,0.5,0.3,0.8,0.6,1c0.1,0.1,0.2,0.1,0.2,0.2
		c0.1,0.1,0.2,0.3,0.2,0.5c0.1,0.3,0.2,0.6,0.5,0.6c0,0,0,0,0,0c0.1,0,0.2,0,0.2-0.1c0.2-0.2,0.3-0.9,0.4-1.5l1.9,2.6
		c0,0,0,0,0.1,0.1l0.8,0.6c0,0,0.1,0,0.1,0c0,0,0.1,0,0.1,0c0.1-0.1,0.1-0.1,0.1-0.2l-0.2-1c0,0,0-0.1,0-0.1l-3.5-5.4
		c-0.1-0.3-0.2-0.6-0.5-0.8l-1-1.6c0.6-0.7,0.8-1.3,0.4-1.8c-0.4-0.5-1.1-0.7-2-0.6l-0.5-0.7c0.4-0.5,1-1.7,0.2-2.7
		c-0.4-0.6-1.1-0.6-1.6-0.6c-0.2,0-0.4,0-0.6,0c0,0,0,0-0.1,0l-1.7-2.6c0-0.1,0.1-0.2,0.1-0.2c0.2,0.3,0.7,0.6,1,0.6
		c0.1,0,0.1,0,0.2,0c0.3-0.1,0.9-1.4,0.7-2.5c-0.2-0.9-1.1-1.6-2-1.6c-0.5,0-1.1,0.2-1.5,0.6c0,0-0.1,0.1-0.3,0.3l-0.8-1.3
		c0.4-0.6,0.5-1.3,0.2-1.7c-0.2-0.3-0.6-0.5-1.1-0.5s-1.1,0.2-1.6,0.5c-1,0.7-1.5,1.8-1,2.5C149.4,104.8,149.8,104.9,150.3,104.9
		 M157.3,112.4c0.1,0,0.1,0,0.2,0c0,0,0.1,0,0.1,0c0.1,0,0.1,0,0.2,0c0,0,0,0,0,0c0,0,0,0,0,0l1.3,2.1c-0.1,0-0.3,0.1-0.4,0.1
		c0,0,0,0-0.1,0c-0.2,0-0.3,0-0.4,0l-1.5-2.1c0.1,0,0.2,0,0.3,0C157.2,112.4,157.2,112.4,157.3,112.4 M162.8,123.5
		c0-0.1,0-0.1-0.1-0.2c-0.1-0.2-0.1-0.5-0.3-0.7c-0.1-0.1-0.2-0.2-0.3-0.3c-0.2-0.2-0.4-0.4-0.4-0.7c0-0.1,0-0.1,0-0.2
		c0-0.6-0.1-1.1-0.6-1.6c-0.3-0.2-0.6-0.3-0.8-0.4c-0.4-0.1-0.8-0.2-1.1-0.8c-0.4-0.6,0.1-1.4,0.4-1.7c0,0.1,0.1,0.1,0.1,0.2
		c0,0.1,0.1,0.1,0.1,0.2c0,0,0,0,0,0.1c0.1,0.1,0.1,0.2,0.2,0.3c0.1,0.2,0.2,0.3,0.2,0.4c0,0.1,0,0.2,0,0.3c0.1,0.1,0.3,0.1,0.3,0.1
		c0,0,0.1,0,0.1,0c0,0,0,0,0,0c0,0,0.1,0,0.1,0c0,0,0,0,0,0c0.1,0,0.3,0,0.5,0c0.2,0,0.4,0,0.5,0.1c0.3,0.2,0.4,0.4,0.5,0.7
		c0,0,0,0.1,0,0.1c0,0.1,0,0.2,0,0.3c0,0,0,0,0,0c-0.2,1,0.2,1.3,0.5,1.6c0.1,0.1,0.1,0.1,0.2,0.2c0,0.1,0.1,0.1,0.1,0.2
		C163,122.3,162.9,123.2,162.8,123.5 M166,125l-0.3-0.2l-2.2-3.1c0,0,0-0.1,0-0.1c0,0,0,0,0,0c0-0.1,0-0.1,0-0.2
		c-0.1-0.2-0.2-0.4-0.4-0.5c0,0-0.1-0.1-0.1-0.1c0,0-0.1-0.1-0.1-0.1c0,0,0,0,0-0.1c0,0-0.1-0.1-0.1-0.2c0,0,0-0.1,0-0.1
		c0-0.1,0-0.1,0-0.2c0-0.1,0-0.1,0-0.2c0-0.1,0-0.1,0-0.2l3.2,4.9L166,125L166,125z M161.4,118C161.4,118,161.4,118,161.4,118
		c-0.1,0-0.1,0-0.2,0c-0.1,0-0.2,0-0.3,0c0,0,0,0,0,0l-0.4-0.5c-0.1-0.1-0.2-0.3-0.4-0.5c0,0-0.1-0.1-0.1-0.1l-0.2-0.3
		c0,0,0.1,0,0.1,0c0.1,0,0.2,0,0.2,0c0.1,0,0.2,0,0.2,0c0.1,0,0.1,0,0.2,0c0,0,0,0,0,0l1,1.5C161.5,118,161.4,118,161.4,118
		 M160.2,114.7c0.5,0,0.8,0.1,1,0.4c0.1,0.2,0.3,0.5-0.2,1.1c-0.1-0.1-0.2-0.1-0.3-0.1c0,0,0,0,0,0c0,0-0.1,0-0.1,0c0,0,0,0-0.1,0
		c0,0,0,0,0,0c-0.1,0-0.3,0-0.4,0c-0.1,0-0.1,0-0.2,0c-0.2,0-0.3,0-0.5,0.1l-0.1,0c-0.4,0.1-0.9,0.2-1.4,0.2c-0.5,0-0.9-0.1-1.2-0.4
		c-0.8-0.8-0.1-1.9,0.2-2.4c0.1,0.2,0.3,0.4,0.5,0.7c-0.1,0.2,0,0.3,0,0.4c0.1,0.2,0.3,0.2,0.6,0.3c0,0,0,0,0,0c0,0,0,0,0.1,0
		c0,0,0,0,0,0c0.2,0,0.3,0,0.5,0c0.2,0,0.5-0.1,0.7-0.1c0,0,0,0,0,0C159.7,114.7,159.9,114.7,160.2,114.7 M156.3,110.2
		c-0.1,0-0.2,0-0.2,0c-0.1,0-0.1,0-0.2,0c0,0-0.1,0-0.1,0c-0.1,0-0.1-0.1-0.2-0.1c0,0,0,0-0.1,0c-0.1-0.1-0.1-0.1-0.2-0.2
		c-0.1-0.1-0.2-0.3-0.2-0.4c-0.1-0.3-0.1-0.6-0.1-0.8c0,0,0,0,0,0c0-0.1,0-0.2,0.1-0.3c0,0,0,0,0-0.1l1.3,2.1
		C156.4,110.2,156.4,110.2,156.3,110.2 M154.1,105C154.1,105,154.1,105,154.1,105c0.4-0.3,0.8-0.5,1.2-0.5c0.8,0,1.5,0.5,1.6,1.2
		c0.2,0.8-0.3,1.8-0.4,2c-0.2,0-0.5-0.3-0.8-0.6c-0.1-0.1-0.2-0.1-0.3-0.1c-0.2,0.1-0.4,0.4-0.5,0.7l0,0c0,0-0.1,0.1-0.1,0.2
		c0,0,0,0.1,0,0.1c-0.1,0.2-0.2,0.6-0.1,1c0,0,0,0,0,0c0,0.1,0,0.2,0,0.3c0,0,0,0.1,0,0.1c0,0.1,0,0.2,0.1,0.3c0,0,0,0.1,0,0.1
		c0,0.1,0.1,0.2,0.2,0.4c0,0,0,0,0,0c0.4,0.6,1,0.7,1.6,0.7c0.1,0,0.3,0,0.4,0c0,0,0,0,0,0c0.1,0,0.1,0,0.2,0c0.2,0,0.4,0,0.6,0
		c0.6,0,1,0.1,1.3,0.5c0.6,0.7,0.3,1.5,0,1.9c-0.2-0.5-0.6-1.2-1.1-1.2c0,0,0,0,0,0h0c0,0,0,0,0,0c0,0,0,0,0,0c0,0-0.1,0-0.2,0
		c-0.1,0-0.1,0-0.2,0c-0.1,0-0.2,0-0.2,0c0,0-0.1,0-0.1,0c-0.1,0-0.1,0-0.2,0c-0.1,0-0.1,0-0.2,0c-0.1,0-0.1,0-0.2,0
		c-0.1,0-0.2,0-0.3,0c-1.9,0-2.9-0.8-3.1-2.4c-0.1-0.9-0.1-1.7-0.1-2.3c0-0.2,0.1-0.4,0.1-0.6c0,0,0-0.1,0-0.1
		c0-0.2,0.1-0.3,0.1-0.5c0,0,0,0,0,0c0-0.1,0.1-0.2,0.1-0.3c0-0.1,0.1-0.2,0.1-0.3c0,0,0-0.1,0.1-0.1
		C153.9,105.1,154.1,105,154.1,105 M150.5,102.3c0.4-0.3,0.9-0.5,1.3-0.5c0.3,0,0.6,0.1,0.8,0.3c0.2,0.3,0.1,0.8-0.3,1.3
		c-0.1,0.1-0.1,0.2,0,0.3l1,1.5c-0.1,0.2-0.3,0.6-0.4,0.9c0,0,0,0,0,0c0,0.1-0.1,0.2-0.1,0.3c0,0,0,0,0,0.1l-1.6-2.2
		c0-0.1-0.1-0.1-0.2-0.1c0,0,0,0-0.1,0c-0.2,0.1-0.4,0.1-0.5,0.1c-0.3,0-0.6-0.1-0.7-0.3C149.3,103.7,149.7,102.8,150.5,102.3"/>
	<path class="st0" d="M156.3,106.4c0.3,0,0.5-0.2,0.5-0.5c0-0.3-0.2-0.5-0.5-0.5s-0.5,0.2-0.5,0.5
		C155.8,106.2,156,106.4,156.3,106.4"/>
	<path class="st0" d="M147.8,121.9c-0.2,0-0.3,0.1-0.3,0.3c0,0.2,0.1,0.3,0.3,0.3s0.3-0.1,0.3-0.3S147.9,121.9,147.8,121.9"/>
	<path class="st0" d="M142.7,144.7c0-2.7-2.2-4.9-4.9-4.9s-4.9,2.2-4.9,4.9c0,2.1,1.4,3.9,3.3,4.6h-3.7l-1.4-3.7
		c0.1-0.2,0.2-0.3,0.2-0.5c0-0.6-0.5-1.1-1.1-1.1s-1.1,0.5-1.1,1.1c0,0.2,0.1,0.4,0.1,0.5l-1.4,3.7h-0.3c-0.1,0-0.2,0.1-0.2,0.2v2
		c0,0.1,0.1,0.2,0.2,0.2h12.4v3.8c0,0.1,0.1,0.2,0.2,0.2h1.8c0.1,0,0.2-0.1,0.2-0.2v-4c0,0,0,0,0,0v-2c0-0.1-0.1-0.2-0.2-0.2h-2.5
		C141.3,148.6,142.7,146.8,142.7,144.7 M130.8,146l0.6,1.7l-0.9-1.5C130.6,146.1,130.7,146,130.8,146 M130.1,144.4
		c0.4,0,0.6,0.3,0.6,0.6s-0.3,0.7-0.6,0.7c-0.4,0-0.7-0.3-0.7-0.7S129.8,144.4,130.1,144.4 M129.5,145.9c0.1,0.1,0.2,0.1,0.3,0.2
		l-0.9,1.5L129.5,145.9z M130.1,146.2l1.8,3h-3.7L130.1,146.2L130.1,146.2z M141.7,151.5C141.7,151.5,141.7,151.5,141.7,151.5v3.9
		h-1.4v-3.8c0-0.1-0.1-0.2-0.2-0.2h-12.4v-1.5h14V151.5L141.7,151.5z M141.7,146.6c0-0.1,0-0.2,0-0.2c0-0.1-0.1-0.2-0.1-0.3
		c0-0.1-0.1-0.1-0.1-0.2c0-0.2-0.1-0.3-0.2-0.5c-0.1-0.1-0.1-0.2-0.1-0.3c0-0.1-0.1-0.2-0.1-0.3c0-0.1-0.1-0.1-0.1-0.2
		c0-0.1,0-0.1-0.1-0.2c0-0.1,0.1-0.2,0.1-0.3c0,0,0.2-0.1,0.3-0.1c0.1,0,0.3-0.1,0.4-0.1c0.1,0,0.3-0.2,0.3-0.2c0,0,0.1-0.1,0.1-0.2
		c0-0.1,0-0.2-0.1-0.3c0,0,0-0.1,0-0.2v0c0.2,0.5,0.4,1.1,0.4,1.7c0,0.8-0.2,1.5-0.5,2.1C141.7,146.7,141.7,146.7,141.7,146.6
		 M139.6,142.7C139.6,142.7,139.6,142.7,139.6,142.7C139.6,142.7,139.6,142.7,139.6,142.7c0.1-0.1,0.1-0.1,0.2-0.1
		c0.1,0,0.3,0,0.3-0.1c0,0,0,0,0.1-0.1c0.1-0.1,0.1-0.2,0.2-0.2c0.1-0.1,0.2-0.2,0.2-0.4c0-0.1,0-0.2,0-0.3c0,0,0,0,0-0.1
		c0-0.1-0.1-0.2-0.1-0.2c0,0,0,0,0-0.1c-0.1-0.1-0.1-0.1-0.1-0.1c0,0,0,0,0,0c0,0,0.1-0.1,0.1-0.1c0.6,0.4,1.1,1,1.5,1.7
		c0,0,0,0,0,0c0,0-0.1,0-0.2,0c-0.1,0-0.1,0-0.2,0.1c0,0,0,0,0,0c-0.1,0-0.1,0-0.3-0.1c-0.1,0-0.1,0-0.2,0c-0.1-0.1-0.2-0.1-0.3-0.2
		c-0.1,0-0.2,0-0.3,0l0,0c-0.1,0-0.2,0.2-0.3,0.3c0,0,0,0,0,0c0,0.1,0,0.2,0,0.3c-0.1,0-0.2,0.1-0.3,0.1c-0.1,0-0.2,0-0.2-0.1
		c0-0.1,0.1-0.2,0.1-0.2C139.7,142.9,139.6,142.8,139.6,142.7 M138.3,140.3c0.3,0,0.5,0.1,0.8,0.2c0,0.1-0.1,0.2-0.1,0.2
		c0,0,0,0.1,0,0.2c0,0.1,0,0.3,0,0.4c0,0,0,0,0,0c0-0.1-0.1-0.3-0.3-0.4c-0.1-0.1-0.2-0.1-0.2-0.2
		C138.4,140.6,138.3,140.4,138.3,140.3L138.3,140.3L138.3,140.3z M136,141c0,0.3,0.3,0.5,0.5,0.4c0.1,0,0.2-0.2,0.4-0.3
		c0.1-0.1,0.2-0.2,0.3-0.2c0.1,0,0.2,0,0.3-0.1c0,0,0,0,0,0c0,0.1,0,0.2,0,0.3c0,0.1,0,0.2,0,0.4c0,0.1,0,0.1-0.1,0.2
		c0,0.1-0.1,0.1-0.1,0.1c0,0,0,0,0,0c-0.1-0.1-0.2-0.2-0.4-0.2c-0.1,0-0.1,0-0.2,0c-0.2,0.1-0.5,0.3-0.6,0.5c0,0.1-0.1,0.1-0.1,0.1
		c0,0,0,0,0-0.1c0-0.2-0.1-0.4-0.3-0.4c0,0-0.1,0-0.1,0c-0.1,0-0.1,0-0.2,0c-0.1,0-0.2,0-0.2,0.1c-0.1,0.1-0.3,0.4-0.3,0.7
		c0,0.3,0.5,0.9,0.7,1c0.2,0.1,1,0.8,1.1,0.8c0.1,0.1,0.7,0.3,0.8,0.3c0.4,0.1,0.7,0.3,0.7,0.4c0,0.2-0.2,0.7-0.3,0.8
		c-0.2,0.1-0.4,0.3-0.6,0.6c0,0-0.1,0.1-0.1,0.1c-0.1,0.1-0.2,0.2-0.3,0.6c-0.1,0.4-0.3,1-0.3,1.2c0,0-0.1,0-0.1,0
		c0-0.2,0-0.5-0.1-0.7c0-0.2,0-0.3,0-0.4c0,0,0-0.2,0-0.4c0-0.4,0-0.6,0-0.6c0,0,0,0,0-0.1c-0.1-0.2-0.1-0.5-0.4-0.6
		c-0.3-0.1-0.5-0.2-0.5-0.3c0-0.1,0-0.2,0-0.3c0-0.1,0-0.5,0-0.5c0,0,0.1-0.1,0.2-0.1c0.2-0.1,0.4-0.2,0.4-0.3
		c0-0.2-0.1-0.2-0.2-0.3c0,0-0.1-0.1-0.1-0.1c0-0.1-0.2-0.2-0.5-0.4c-0.1-0.1-0.2-0.1-0.2-0.2c0,0,0,0,0-0.1
		c-0.1-0.3-0.3-0.6-0.5-0.6c-0.2,0-0.4-0.1-0.5-0.2c0.5-0.8,1.1-1.4,2-1.8C136,140.8,136,140.9,136,141 M136.6,148.5v0.2V148.5
		L136.6,148.5z M137.8,149.1c-2.4,0-4.4-2-4.4-4.4c0-0.7,0.2-1.4,0.5-2c0.2,0.1,0.5,0.2,0.6,0.2c0,0,0.1,0.1,0.3,0.4
		c0,0.1,0.1,0.1,0.1,0.1c0.1,0.1,0.1,0.1,0.3,0.2c0.1,0.1,0.3,0.2,0.4,0.3c0,0.1,0.2,0.2,0.3,0.2c0,0-0.1,0.1-0.1,0.1
		c-0.1,0-0.2,0.1-0.2,0.1c-0.2,0.1-0.2,0.4-0.1,0.8c0,0.1,0,0.2,0,0.3c0,0.1,0,0.3,0.7,0.6c0.1,0,0.2,0.3,0.2,0.4c0,0,0,0.1,0,0.1
		c0,0.1,0,0.4,0,0.5c0,0.2,0,0.4,0,0.4c0,0,0,0.2,0,0.4c0,0.5,0.1,0.7,0.1,0.8c0,0.1,0.1,0.1,0.2,0.1c0.1,0,0.3-0.1,0.4-0.1
		c0,0,0.1,0,0.1-0.1c0,0,0.3-0.7,0.4-1.3c0.1-0.4,0.1-0.4,0.2-0.5c0,0,0.1-0.1,0.1-0.1c0.2-0.2,0.4-0.4,0.5-0.5
		c0.2-0.2,0.5-0.7,0.4-1.1c0-0.3-0.5-0.5-0.9-0.6c-0.2-0.1-0.6-0.2-0.7-0.3c-0.1-0.1-1-0.8-1.2-0.9c-0.1,0-0.5-0.6-0.5-0.8
		c0-0.1,0.1-0.3,0.2-0.4c0,0,0.1,0,0.1,0c0,0,0.1,0,0.1,0c0,0,0.1,0.1,0.1,0.1c0,0.2,0,0.4,0.2,0.5c0,0,0,0,0.1,0
		c0.2,0,0.4-0.2,0.5-0.4c0.1-0.1,0.3-0.3,0.4-0.4c0,0,0,0,0,0c0,0,0.1,0,0.2,0.1c0,0,0.1,0,0.1,0.1c0.1,0.1,0.4,0,0.5-0.1
		c0.1-0.1,0.2-0.3,0.1-0.4c0-0.2,0-0.2,0-0.4c0-0.1,0-0.2,0-0.3c0-0.3-0.2-0.3-0.2-0.3c-0.1,0-0.1,0-0.2,0.1c0,0-0.1,0-0.1,0
		c0,0,0,0,0,0c-0.2,0-0.3,0.1-0.5,0.3c-0.1,0.1-0.2,0.2-0.2,0.2c-0.1,0-0.1-0.1-0.1-0.2c0-0.1,0-0.3,0-0.4c0.5-0.2,1-0.3,1.5-0.3
		c0.1,0,0.1,0,0.2,0v0c0,0,0,0,0,0.1c0,0,0,0.3,0.1,0.5c0.1,0.2,0.2,0.2,0.3,0.3c0.1,0,0.1,0.1,0.1,0.2c0,0.2,0.2,0.3,0.4,0.3
		c0,0,0,0,0,0c0.2,0,0.2-0.3,0.3-0.7c0-0.1,0-0.1,0-0.1c0,0,0-0.1,0.1-0.2c0.2,0.1,0.4,0.2,0.7,0.3c-0.1,0.1-0.2,0.2-0.2,0.3
		c0,0.1,0,0.2,0.1,0.3c0,0,0,0.1,0.1,0.1c0,0,0.1,0.1,0.1,0.1c0,0,0,0.1,0,0.1c0,0.1,0,0.1,0,0.2c0,0.1-0.1,0.1-0.1,0.2l0,0
		c0,0-0.1,0.2-0.2,0.2c0,0-0.1,0-0.1,0c-0.1,0-0.2,0-0.3,0c0,0-0.1,0-0.1,0c0,0-0.1,0.1-0.2,0.2c-0.1,0.1,0,0.2,0,0.3c0,0,0,0,0,0.1
		c0,0.1-0.2,0.4-0.1,0.5c0,0.1,0.1,0.1,0.4,0.2c0,0,0,0,0.1,0c0.1,0,0.6-0.1,0.6-0.3c0,0,0-0.2,0-0.3c0,0,0-0.1,0-0.1h0
		c0.1,0,0.1,0,0.1,0c0,0,0.1,0,0.2,0.1c0,0,0.1,0.1,0.1,0c0,0,0,0,0.1,0c0.2,0.1,0.3,0.1,0.4,0.1c0.1,0,0.1,0,0.2-0.1l0,0
		c0,0.1,0,0.2,0,0.2c0,0.1,0,0.1,0.1,0.2c0,0-0.1,0.1-0.1,0.1c0,0-0.2,0-0.4,0.1c0,0,0,0,0,0c-0.2,0.1-0.3,0.2-0.4,0.2
		c0,0-0.3,0.5-0.1,0.7c0,0,0,0.1,0,0.1c0,0.1,0.1,0.2,0.2,0.3c0,0,0.1,0.1,0.1,0.2c0,0.1,0.1,0.3,0.2,0.4c0.1,0.1,0.2,0.2,0.2,0.3
		c0,0.1,0.1,0.2,0.1,0.3c0,0.1,0.1,0.2,0.1,0.2c0,0.1,0,0.1,0,0.2c0,0.1,0,0.2,0,0.3c0,0,0,0.2,0,0.4
		C140.6,148.4,139.3,149.1,137.8,149.1"/>
	<path class="st0" d="M128.5,134.3l0.1,0.1l0,0l3.5,10.1l0.2-0.1l-2.6-7.5l2.6,6.3l0.2-0.1l-2.6-6.5l2.8,5.7l0.2-0.1l-2.8-5.9l3,5.3
		l0.2-0.1l-3.1-5.4l3.3,5l0.2-0.1l-3.3-5.1l3.6,4.7l0.2-0.1l-3.6-4.8l3.9,4.5l0.2-0.2l-3.9-4.5l4.3,4.3l0.2-0.2l-4.3-4.3l4.8,4.1
		l0.1-0.2l-4.8-4.1l5.4,4l0.1-0.2l-5.4-4l6.3,4l0.1-0.2l-8.1-5.2l0-0.1l1.2-1l-1.5-0.1l-0.5-1.4l-0.5,1.4l-1.5,0.1l1.2,1l-0.4,1.5
		L128.5,134.3L128.5,134.3z M128.3,133.1l0.2-0.6l0.2,0.6l0.6,0l-0.5,0.4l0.2,0.6l-0.5-0.3l-0.5,0.3l0.2-0.6l-0.5-0.4L128.3,133.1
		L128.3,133.1z"/>
	<path class="st0" d="M166.7,149.4c-0.1-0.2-0.1-0.3,0-0.8l0-0.3c0,0,0,0,0,0c0,0,0,0,0,0c0-0.1-0.1-0.2-0.2-0.3l-0.7-0.1l0.2-0.3
		c0-0.1,0.1-0.1,0.1-0.2c0-0.1-0.1-0.1-0.1-0.2c0,0-0.1-0.1-0.2-0.2c0-0.2,0-0.2,0-0.7l0-0.3c0,0,0,0,0,0c0,0,0,0,0,0
		c0-0.1-0.1-0.2-0.2-0.3l-1-0.1c0-2.1,0-6.3,0-7.2c0-0.1,0-0.1-0.1-0.2c-0.1,0-0.1-0.1-0.2,0c-0.3,0.1-0.6,0.2-0.9,0.2
		c0-0.5,0-0.8,0-0.8c0-0.1,0-0.2-0.1-0.2c-0.1,0-0.2,0-0.2,0c0,0-0.7,0.3-1.4,0.3c-0.3,0-0.5,0-0.7-0.1c-0.5-0.2-1-0.4-1.5-0.4
		c0,0-0.1,0-0.1,0c0.3-0.2,0.5-0.6,0.6-0.9c0-0.1,0-0.1-0.1-0.2c0,0-0.1,0-0.2,0c0,0-0.2,0.1-0.4,0.2c0.2-0.3,0.3-0.6,0.4-0.9
		c0-0.1,0-0.1-0.1-0.2c0,0-0.1,0-0.2,0c0,0-0.2,0.1-0.4,0.2c0.1-0.2,0.2-0.5,0.3-0.7c0-0.1,0-0.1,0-0.2c0,0-0.1-0.1-0.2,0
		c0,0-0.3,0.1-0.6,0.2c-0.3-0.3-0.3-0.7-0.4-1c0-0.3-0.1-0.5-0.3-0.5c-0.2,0-0.3,0.3-0.3,0.5c0,0.3-0.1,0.7-0.4,1
		c-0.3-0.1-0.6-0.2-0.6-0.2c-0.1,0-0.1,0-0.2,0c0,0-0.1,0.1-0.1,0.2c0.1,0.2,0.2,0.5,0.3,0.7c-0.2-0.1-0.4-0.2-0.4-0.2
		c-0.1,0-0.1,0-0.2,0c0,0-0.1,0.1-0.1,0.2c0.1,0.3,0.2,0.6,0.4,0.9c-0.2-0.1-0.4-0.1-0.4-0.1c-0.1,0-0.1,0-0.2,0
		c0,0-0.1,0.1-0.1,0.2c0.1,0.5,0.5,0.9,0.9,1.2c-0.4,0.1-0.9,0.2-1.4,0.5c-0.8,0.5-1.6,0.6-2.2,0.6c-0.4,0-0.7-0.1-0.7-0.1
		c-0.1,0-0.1,0-0.2,0c-0.1,0-0.1,0.1-0.1,0.2l0,0.6c-0.5-0.1-0.8-0.1-0.8-0.1c-0.1,0-0.1,0-0.2,0.1s-0.1,0.1-0.1,0.2
		c0,0,0.1,3.9,0.1,6.4l-1.3,1.2c0,0,0,0,0,0c0,0,0,0,0,0c-0.2,0.2-0.3,0.4-0.2,0.8c0,0.2,0,0.4,0.1,0.5l-1.1,1c0,0,0,0,0,0
		c-0.2,0.2-0.3,0.4-0.3,0.9c0,0.9,0.6,1.2,0.9,1.3l13.4,3.8c0,0,0,0,0,0c0,0,0,0,0,0c0,0,0.1,0,0.1,0c0.1,0,0.1,0,0.2-0.1l4.1-5.3
		c0-0.1,0.1-0.1,0-0.2c0-0.1-0.1-0.1-0.1-0.2C166.9,149.7,166.8,149.6,166.7,149.4 M150.2,147.9c0-0.2,0-0.3,0.1-0.4
		c0.1-0.1,0.2-0.1,0.2-0.1l1.9,0.4v1.2l-1.8-0.4C150.6,148.6,150.2,148.5,150.2,147.9 M157.7,146.8
		C157.7,146.8,157.7,146.8,157.7,146.8C157.7,146.8,157.7,146.8,157.7,146.8C157.6,146.8,157.6,146.8,157.7,146.8
		C157.7,146.8,157.7,146.8,157.7,146.8 M157.8,147.3c0.1,0,0.1,0,0.2,0c0.5-0.3,1.4-0.4,2.5-0.4c1.8,0,3.7,0.4,3.7,0.4c0,0,0,0,0,0
		l-2,2.2l-10-2.1c0.9-0.3,1.9-0.5,2.8-0.5C156.7,146.8,157.7,147.3,157.8,147.3 M152.9,147.9l0.7,0.1v1.3l-0.7-0.2V147.9z
		 M154,148.1l4.5,0.9v1.4l-4.5-1.1V148.1z M159,149.2l3,0.6l0,0.4v1.2l-3.1-0.7V149.2L159,149.2z M162.5,149.8l2.8-3
		c0,0.2,0,0.3,0.1,0.5c0,0.2,0.1,0.3,0.2,0.3l-3,3.5l0-0.9L162.5,149.8L162.5,149.8z M165.1,146.3l-0.6,0.6c0-0.1,0-0.3,0-0.7
		L165.1,146.3L165.1,146.3z M163.1,146.5c0.1,0,0.1,0,0.2,0c0.1,0,0.1-0.1,0.1-0.2c0-1.5,0-5.2,0-7.2c0.2-0.1,0.5-0.1,0.7-0.2
		c0,1.4,0,5.3,0,7.1l0,0l0,0c0,0.3,0,0.6,0,0.7c-0.6-0.1-2.1-0.3-3.5-0.3c-1,0-1.8,0.1-2.4,0.3c0.2-0.2,0.8-0.7,2.2-0.7
		C161.1,146.1,162,146.2,163.1,146.5 M160.7,138.2c0.3,0.1,0.6,0.2,0.9,0.2c0.5,0,1-0.1,1.3-0.2c0,1.3,0,5.8,0,7.9
		c-1-0.2-1.8-0.4-2.6-0.4c-1.1,0-1.8,0.3-2.2,0.5l0.1-8c0.4-0.2,0.8-0.4,1.2-0.4S160.2,137.9,160.7,138.2 M156.3,136.7
		c0.2,0.1,0.4,0.1,0.6,0.1c0.1,0,0.1,0,0.2-0.1c0-0.1,0-0.1-0.1-0.2c-0.2-0.1-0.4-0.5-0.5-0.8c0.2,0.1,0.4,0.1,0.6,0.1
		c0.1,0,0.1,0,0.2-0.1c0-0.1,0-0.1-0.1-0.2c-0.1-0.1-0.3-0.3-0.4-0.6c0.1,0.1,0.3,0.1,0.4,0.1c0,0,0.1,0,0.1,0
		c0.4-0.4,0.4-0.9,0.5-1.2c0,0,0,0,0,0l0,0c0.1,0.3,0.1,0.8,0.5,1.2c0,0,0.1,0.1,0.1,0c0.2,0,0.3-0.1,0.5-0.1
		c-0.1,0.2-0.2,0.5-0.4,0.6c-0.1,0-0.1,0.1-0.1,0.2c0,0.1,0.1,0.1,0.2,0.1c0.2,0,0.4-0.1,0.6-0.1c-0.1,0.3-0.3,0.6-0.5,0.8
		c-0.1,0-0.1,0.1-0.1,0.2c0,0.1,0.1,0.1,0.2,0.1c0.2,0,0.4-0.1,0.6-0.1c-0.3,0.6-0.9,0.9-1.6,0.9
		C157.2,137.6,156.6,137.3,156.3,136.7 M153.2,139.2c0.6,0,1.5-0.1,2.4-0.6c0.5-0.3,1-0.4,1.4-0.4c0.3,0,0.6,0.1,0.7,0.1
		c0,0.8-0.1,4.8-0.2,7.9c-0.4-0.3-1.1-0.4-2-0.4c-1.1,0-2.4,0.2-2.9,0.4l-0.1-7C152.8,139.2,153,139.2,153.2,139.2 M152.2,139.9
		l0.1,6.5c0,0.1,0,0.1,0.1,0.2c0.1,0,0.1,0.1,0.2,0c0,0,1.6-0.4,3.1-0.4c1,0,1.7,0.2,2,0.6c-0.5-0.1-1.4-0.4-2.6-0.4
		c-1.1,0-2.2,0.2-3.3,0.6c0-1.9-0.1-6-0.1-7.1C151.8,139.9,152,139.9,152.2,139.9 M151.3,147.1l-0.5-0.1l0.5-0.5
		C151.3,146.8,151.3,146.9,151.3,147.1 M148.8,150.3c0-0.5,0.2-0.6,0.4-0.6l1.3,0.3v1.5l-1.2-0.3C149.3,151.2,148.8,151,148.8,150.3
		 M158.3,151.9v1.8l-7.5-2.1v-1.5L158.3,151.9L158.3,151.9z M162.5,154.9l-3.9-1.1V152l3.9,0.9V154.9z M162.6,152.5l-13.1-3.2
		l0.6-0.5c0.1,0.1,0.3,0.2,0.4,0.2l11.7,2.8c0,0,0,0,0.1,0c0.1,0,0.1,0,0.1-0.1c0,0,0,0,0,0c0,0,0.1,0,0.1,0l3-3.4l0.6,0.1
		L162.6,152.5L162.6,152.5z M163,154.5l0-1.7l3.3-3.8c0,0.2,0,0.3,0.1,0.6c0,0.2,0.1,0.3,0.2,0.4L163,154.5L163,154.5z"/>
	<path class="st0" d="M128.9,114.1c1.8,0,3.3-1.4,3.4-3.3c0,0,0-0.1,0-0.1l-2.6-5.9h4.9l-0.6,12.5h-2c-0.1,0-0.2,0.1-0.2,0.2v1
		c0,0.1,0.1,0.2,0.2,0.2h2l-0.1,2.8h-0.8c-0.1,0-0.1,0-0.2,0.1c0,0-0.1,0.1-0.1,0.2c0,1.3,1,2.2,2.3,2.2s2.3-1,2.3-2.2
		c0-0.1,0-0.1-0.1-0.2c0,0-0.1-0.1-0.2-0.1h-0.9l-0.1-2.8h2.1c0.1,0,0.2-0.1,0.2-0.2v-1c0-0.1-0.1-0.2-0.2-0.2h-2.1l-0.6-12.5h5
		l-2.6,5.9c0,0,0,0.1,0,0.1c0.1,1.8,1.5,3.3,3.4,3.3c1.8,0,3.3-1.4,3.4-3.3c0,0,0-0.1,0-0.1l-3.1-7.1c0-0.1-0.1-0.1-0.2-0.1h-5.8
		l-0.1-1.6c0-0.1-0.1-0.2-0.2-0.2c-0.1,0-0.2,0.1-0.2,0.2l-0.1,1.6h-5.7c-0.1,0-0.2,0.1-0.2,0.1l-3.1,7.1c0,0,0,0.1,0,0.1
		C125.6,112.7,127,114.1,128.9,114.1 M135.6,121.7h-1.5l1.4-1.2L135.6,121.7L135.6,121.7z M135.5,119.9l-1.4,1.2l0-0.7l1.3-1.1
		L135.5,119.9L135.5,119.9z M135.1,118.9l-0.9,0.8l0-0.8H135.1L135.1,118.9z M134.9,123.7c-0.9,0-1.7-0.7-1.8-1.5h3.6
		C136.6,123,135.9,123.7,134.9,123.7 M137.8,118.4h-2.1l0,0H134l0,0h-2v-0.6h5.7V118.4z M135.4,117.4h-1.1l0.5-10.9
		C134.9,106.5,135.4,117.4,135.4,117.4z M129,104h5.8c0,0,0.1,0,0.1,0c0,0,0.1,0,0.1,0h5.9l3,6.9c-0.1,1.6-1.3,2.8-2.9,2.8
		s-2.8-1.2-2.9-2.8l2.7-6.2c0-0.1,0-0.2,0-0.2c0-0.1-0.1-0.1-0.2-0.1H135c-0.1,0-0.1,0-0.1,0c0,0-0.1,0-0.1,0h-5.5
		c-0.1,0-0.1,0-0.2,0.1c0,0.1-0.1,0.1,0,0.2l2.7,6.2c-0.1,1.6-1.3,2.8-2.9,2.8s-2.8-1.2-2.9-2.8L129,104L129,104z"/>
	<path class="st0" d="M131.2,111c0.1,0,0.2-0.1,0.2-0.2c0,0,0-0.1,0-0.1l-2.3-5.3c0-0.1-0.1-0.1-0.2-0.1s-0.2,0.1-0.2,0.1l-2.3,5.3
		c0,0.1,0,0.2,0,0.2c0,0.1,0.1,0.1,0.2,0.1L131.2,111L131.2,111z M126.9,110.6l1.9-4.5l1.9,4.5H126.9L126.9,110.6z"/>
	<path class="st0" d="M138.5,110.7c0,0.1,0,0.2,0,0.2c0,0.1,0.1,0.1,0.2,0.1h4.6c0.1,0,0.2-0.1,0.2-0.2c0,0,0-0.1,0-0.1l-2.3-5.3
		c0-0.1-0.1-0.1-0.2-0.1c-0.1,0-0.2,0.1-0.2,0.1L138.5,110.7L138.5,110.7z M141,106.1l1.9,4.5H139L141,106.1L141,106.1z"/>
	<path class="st0" d="M146.5,129.8c0.5,0,0.8-0.4,0.8-0.8s-0.4-0.8-0.8-0.8s-0.8,0.4-0.8,0.8S146,129.8,146.5,129.8"/>
</g>
</svg>
