<?xml version="1.0" encoding="utf-8"?>
<!-- Generator: Adobe Illustrator 28.0.0, SVG Export Plug-In . SVG Version: 6.00 Build 0)  -->
<svg version="1.1" id="Layer_1" xmlns="http://www.w3.org/2000/svg" xmlns:xlink="http://www.w3.org/1999/xlink" x="0px" y="0px"
	 viewBox="0 0 450 220" style="enable-background:new 0 0 450 220;" xml:space="preserve">
<style type="text/css">
	.st0{fill:#1D1D1B;}
	.st1{fill-rule:evenodd;clip-rule:evenodd;fill:#1D1D1B;}
	.st2{fill:#B96341;}
	.st3{fill:#85422C;}
</style>
<path class="st0" d="M156.6,160.8l-7.5,4.5l7.5,4.5l-1.2,1.8l-8.4-5.2v-2.1l8.5-5.2L156.6,160.8z"/>
<path class="st0" d="M162.2,166.4c0,3,0.9,4.2,2.4,4.2c1.1,0,1.9-0.7,2.5-1.7v-5.5c-0.6-0.8-1.3-1.3-2.3-1.3
	C163.1,162.2,162.2,163.5,162.2,166.4 M169.5,156v16.2h-2.2l-0.2-1.4c-0.8,1.1-1.9,1.7-3.2,1.7c-3,0-4.4-2.4-4.4-6.1
	c0-3.5,1.7-6.1,4.6-6.1c1.2,0,2.2,0.4,2.9,1.3v-5.9L169.5,156L169.5,156z"/>
<path class="st0" d="M175.4,165.6h5.4c0-2.2-0.9-3.4-2.6-3.4C176.7,162.2,175.6,163.2,175.4,165.6 M178.6,170.6c1.1,0,2.1-0.4,3-1
	l1,1.5c-1.1,0.9-2.6,1.4-4.2,1.4c-3.6,0-5.6-2.5-5.6-6.1c0-3.5,2-6.1,5.3-6.1c3.1,0,5,2.2,5,5.8c0,0.4,0,0.8-0.1,1.1h-7.7
	C175.6,169.6,176.9,170.6,178.6,170.6"/>
<path class="st0" d="M192.6,172.2h-2.8l-4.1-11.6h2.6l2.9,9.5l3-9.5h2.5C196.7,160.7,192.6,172.2,192.6,172.2z"/>
<path class="st0" d="M206.4,169.1c0-0.9-0.4-1.4-2.8-2c-2.3-0.6-3.8-1.4-3.8-3.4c0-2,1.8-3.3,4.6-3.3c1.9,0,3.3,0.6,4.4,1.3l-1,1.6
	c-0.9-0.6-1.9-1-3.3-1c-1.6,0-2.2,0.5-2.2,1.3c0,0.9,0.6,1.2,2.9,1.8c2.3,0.6,3.7,1.4,3.7,3.6c0,2.5-2.5,3.6-5.1,3.6
	c-2.1,0-3.7-0.7-4.8-1.6l1.3-1.5c0.9,0.7,2.1,1.2,3.5,1.2C205.4,170.6,206.4,170.1,206.4,169.1"/>
<path class="st0" d="M221.2,169.5l1.1,1.6c-1,0.9-2.5,1.4-4.1,1.4c-3.6,0-5.6-2.4-5.6-6c0-3.5,2.1-6.2,5.7-6.2c1.6,0,2.9,0.5,4,1.4
	l-1.1,1.5c-0.9-0.6-1.8-1-2.8-1c-1.8,0-3.1,1.3-3.1,4.2c0,2.9,1.3,4,3.1,4C219.5,170.5,220.4,170.1,221.2,169.5"/>
<path class="st0" d="M228.4,162.1c0.9-1.1,2.2-1.7,3.6-1.7c2.2,0,3.2,1.3,3.2,3.4v8.4h-2.5v-8.1c0-1.4-0.5-1.9-1.7-1.9
	c-1.1,0-2.1,0.8-2.7,1.7v8.3h-2.5V156l2.5-0.3L228.4,162.1L228.4,162.1z"/>
<path class="st0" d="M245.3,156.5c0,0.9-0.7,1.5-1.6,1.5c-1,0-1.6-0.7-1.6-1.5c0-0.9,0.6-1.6,1.6-1.6
	C244.6,155,245.3,155.7,245.3,156.5 M245.4,170.4h3.2v1.8h-9v-1.8h3.4v-8h-3.3v-1.8h5.8L245.4,170.4L245.4,170.4z"/>
<path class="st0" d="M257.3,169.1c0,1.1,0.7,1.5,1.8,1.5c0.7,0,1.2-0.2,1.8-0.4l0.6,1.7c-0.7,0.4-1.7,0.7-3,0.7
	c-2.3,0-3.7-1.4-3.7-3.7v-11h-3.5V156h5.9V169.1L257.3,169.1z"/>
<path class="st0" d="M267.4,165.6h5.4c0-2.2-0.9-3.4-2.6-3.4C268.6,162.2,267.5,163.2,267.4,165.6 M270.5,170.6c1.1,0,2.1-0.4,3-1
	l1.1,1.5c-1.1,0.9-2.6,1.4-4.2,1.4c-3.6,0-5.6-2.5-5.6-6.1c0-3.5,2-6.1,5.3-6.1c3.1,0,5,2.2,5,5.8c0,0.4,0,0.8-0.1,1.1h-7.7
	C267.5,169.6,268.9,170.6,270.5,170.6"/>
<path class="st1" d="M288.7,155.3l-9.3,19.3l-1.9-0.9l9.3-19.3L288.7,155.3z"/>
<path class="st0" d="M301,164.3v2.1l-8.4,5.2l-1.2-1.8l7.5-4.5l-7.5-4.5l1.1-1.8L301,164.3L301,164.3z"/>
<path class="st2" d="M266.8,62.2l1.6-6.8c-0.5-3.1-4.4-4.3-6.6-2c0,0-16.1,13-20.7,22c-0.1,0.1-0.6-0.2-0.6-0.2
	c-5.4-1.9-11-2.8-16.6-2.8c-5.6,0-11.2,0.9-16.6,2.8c0,0-0.5,0.4-0.6,0.2c-4.8-9.4-20.7-22-20.7-22c-2.2-2.3-6-1.1-6.6,2l1.2,5.5
	c-1,6.2-1.7,12.1,1.8,17.4c2.6,3.9,6.3,7,10.5,8.9l10.1,4.5l-0.5,1.5c-1.3,3.6-1.2,7.6,0.2,11.2l-0.2,8.2c-0.2,9.3,2,20.8,10.3,24.8
	c0.7,0.3,0.9,0.8,0.9,0.8l0.5,0c0.6,1.1,1.3,2.2,2.1,3.1c4.1,4.5,11.3,4.5,15.4,0c0.8-0.9,1.5-1.9,2.1-3l0.6,0c0,0,0.3-0.4,0.9-0.8
	c9.8-6.2,10.6-15.4,10.3-24.8l-0.2-8.2c1.4-3.6,1.4-7.5,0.2-11.2l-0.5-1.5l0-0.2l9.8-4.4c4.3-1.9,7.9-5,10.5-8.9
	C268.9,73,267.8,68.5,266.8,62.2"/>
<path class="st3" d="M266.9,53.9c-0.6-0.9-1.9-1.2-2.9-0.7c-3.6,1.8-15.4,8.4-23.3,22.9c0,0-0.8-0.2-1.8-0.5
	c-4.3-1.3-8.8-2.2-13.2-2.5l0-0.2L224,73l-1.6-0.1l0,0.2c-4.5,0.3-8.9,1.1-13.2,2.5c-1,0.3-1.8,0.6-1.8,0.5
	C199.5,61.6,187.7,55,184,53.3c-1-0.5-2.3-0.3-2.9,0.7c-0.3,0.4-0.4,0.9-0.4,1.5c0.1,1,1.1,4.4,3.2,6.6c6.3,6.6,13,12.3,17.1,20.9
	c1.1,2.4,2.1,4.2,2,4.8c-0.3,2.8-1.3,11.2-1.3,11.2l0.7-0.5c2.9-2.1,6.9-2.5,9.9-0.5c2.2,1.4,3.7,3.7,4,6.5c0,0,0,0.8,0.1,2
	c0.4,6.7-0.5,13.5-2.4,19.9c-1.1,3.8-2.2,7.8-2.2,9.3c0,9.1,24.1,9.1,24.1,0c0-1.5-1-5.4-2.2-9.3c-1.9-6.5-2.7-13.2-2.4-19.9
	c0.1-1.2,0.1-2,0.1-2c0.3-2.8,1.8-5.1,4-6.5c3-1.9,7-1.6,9.9,0.5l0.7,0.5c0,0-1-8.4-1.3-11.2c-0.1-0.6,0.9-2.4,2-4.8
	c4.1-8.6,10.9-14.3,17.1-20.9c2.1-2.2,3.1-5.6,3.2-6.6C267.3,54.8,267.1,54.3,266.9,53.9"/>
<path class="st0" d="M214.6,104.6c0,1.9-1.5,3.4-3.4,3.4c-1.9,0-3.4-1.5-3.4-3.4c0-1.9,1.5-3.4,3.4-3.4
	C213.1,101.2,214.6,102.7,214.6,104.6"/>
<path class="st0" d="M240.3,104.6c0,1.9-1.5,3.4-3.4,3.4c-1.9,0-3.4-1.5-3.4-3.4c0-1.9,1.5-3.4,3.4-3.4
	C238.8,101.2,240.3,102.7,240.3,104.6"/>
<path class="st0" d="M265.8,66.3c0.6,4.1,0.8,8.5-1.6,12.1c-2.4,3.6-5.8,6.5-9.8,8.3l-8.1,3.6l-0.2-4.1l4.7-7.1
	c0.5-0.7,0.3-1.8-0.4-2.2c-0.7-0.5-1.8-0.3-2.2,0.4l-5,7.6c-0.2,0.3-0.3,0.6-0.3,1l0.4,6.9c0,0.2,0,0.3,0.1,0.5l0.5,1.5
	c1.1,3.3,1.1,6.8-0.2,10c-0.1,0.2-0.1,0.4-0.1,0.6l0.1,8c0.1,4.1-0.4,7.9-1.3,11.4c-1.9,7-5.5,11.2-8.7,13.5c0-0.2,0-0.5,0-0.7
	c0-4.2-3.4-7.6-7.6-7.6h-4c-4.2,0-7.6,3.4-7.6,7.6c0,0.2,0,0.5,0,0.7c-3.2-2.3-6.9-6.5-8.7-13.5c-0.9-3.5-1.4-7.4-1.3-11.4l0.1-8
	c0-0.2,0-0.4-0.1-0.6c-1.2-3.2-1.3-6.8-0.2-10l0.5-1.5c0.1-0.1,0.1-0.3,0.1-0.5l0.4-6.9c0-0.3-0.1-0.7-0.3-1l-5-7.6
	c-0.5-0.7-1.5-0.9-2.2-0.4c-0.7,0.5-0.9,1.5-0.4,2.2l4.7,7.1l-0.2,4.1l-8.1-3.6c-4-1.8-7.4-4.7-9.8-8.3c-2.4-3.6-2.2-7.9-1.6-12.1
	c0.5-3.4,0.1-6.9-1-10c0.2-0.7,0.7-1.2,1.4-1.4c0.8-0.2,1.7,0,2.2,0.6c0.1,0.1,0.2,0.2,0.4,0.3c7.8,4.6,14.2,11.1,18.7,18.9l1.4,2.4
	c0.4,0.7,1.2,1,1.9,0.7l0.6-0.2c5.1-1.8,10.4-2.7,15.8-2.7c0.1,0,0.2,0,0.2,0c0,0,0.1,0,0.1,0c0,0,0,0,0.1,0c5.5,0,10.8,0.9,16,2.7
	l0.6,0.2c0.8,0.3,1.6-0.1,2-0.8l0.3-0.6c3.8-7.2,9.4-13.5,16.2-18.2l3.6-2.5c0.1-0.1,0.2-0.1,0.3-0.2c0.6-0.6,1.4-0.9,2.2-0.6
	c0.7,0.2,1.2,0.7,1.4,1.4C265.6,59.4,265.3,62.9,265.8,66.3 M270.1,56.2c-0.3-2.1-1.8-3.7-3.8-4.3c-1.9-0.6-4-0.1-5.4,1.3l-3.5,2.4
	c-7,4.8-12.8,11.3-16.9,18.8c-1.9-0.6-3.9-1.2-5.9-1.6c0.7-0.7,1.1-1.7,1.1-3.1v-5c0-2.4,0.6-3.4,2.1-3.4h0.4v-3.5h-0.4
	c-1.5,0-2.1-1-2.1-3.4v-5c0-3.8-2.8-5.9-6.5-5.9h-1.3v3.5h0.7c2.2,0,3.1,1,3.1,3.8v4.9c0,3,1.7,3.7,3.5,3.9
	c-1.8,0.2-3.5,0.9-3.5,3.9v4.9c0,2.4-0.7,3.5-2.2,3.7c-1.8-0.2-3.6-0.3-5.4-0.3c-1.8,0-3.6,0.1-5.4,0.3c-1.5-0.3-2.2-1.4-2.2-3.7
	v-4.9c0-3-1.7-3.7-3.5-3.9c1.8-0.2,3.5-0.8,3.5-3.9v-4.9c0-2.8,0.9-3.8,3.1-3.8h0.7v-3.5h-1.3c-3.8,0-6.5,2.1-6.5,5.9v5
	c0,2.4-0.6,3.4-2.1,3.4h-0.4v3.5h0.4c1.5,0,2.1,1,2.1,3.4v5c0,1.4,0.4,2.4,1.1,3.1c-2,0.4-4,1-5.9,1.6l-0.7-1.3
	c-4.7-8.3-11.5-15.2-19.7-20c-1.4-1.4-3.5-1.9-5.4-1.3c-2,0.6-3.4,2.3-3.8,4.3c0,0.3,0,0.6,0.1,0.8l0.1,0.4c1,2.6,1.3,5.6,0.9,8.5
	c-0.6,4.5-0.9,9.8,2.2,14.3c2.8,4.2,6.7,7.4,11.2,9.5l8.9,3.9l0,0.1c-1.4,3.9-1.3,8.1,0.1,12l-0.1,7.7c-0.1,4.4,0.4,8.5,1.4,12.3
	c3,11.2,10.4,16.4,14.7,17.9c1.3,1,2.9,1.6,4.7,1.6h4c1.8,0,3.4-0.6,4.7-1.6c4.4-1.5,11.7-6.6,14.7-17.9c1-3.8,1.5-8,1.4-12.3
	l-0.1-7.7c1.4-3.9,1.4-8.1,0.1-12l0-0.1l8.9-3.9c4.6-2,8.4-5.3,11.2-9.5c3-4.5,2.8-9.8,2.2-14.3c-0.4-2.9-0.1-5.9,0.9-8.5L270,57
	C270.1,56.7,270.1,56.4,270.1,56.2"/>
</svg>
