<svg width="450" height="220" viewBox="0 0 450 220" fill="none" xmlns="http://www.w3.org/2000/svg">
<path d="M162.616 64.8421H173.354C181.782 64.8421 186.15 69.7034 186.15 78.2926C186.15 86.8816 181.455 91.9348 172.834 91.9348H162.616V64.8421ZM171.814 86.3629C176.817 86.3629 179.512 84.7872 179.512 78.1773C179.512 71.5672 177.01 70.4912 172.084 70.4912H169.582V86.3629H171.814Z" fill="#2F2E2B"/>
<path d="M192.407 60C194.909 60 196.699 60.5573 196.699 63.5739C196.699 66.5906 194.909 67.1287 192.407 67.1287C189.906 67.1287 188.001 66.533 188.001 63.5739C188.001 60.6149 189.868 60 192.407 60ZM189.06 70.3375H195.718V91.9348H189.06V70.3375Z" fill="#2F2E2B"/>
<path d="M197.794 84.2489H204.202C204.202 86.2856 205.145 87.6504 208.455 87.6504C211.072 87.6504 212.015 86.7087 212.015 85.6137C212.015 82.2698 198.14 84.6333 198.14 77.0051C198.14 73.1621 200.988 70.0687 208.109 70.0687C215.228 70.0687 217.73 72.7396 217.73 77.8505H211.707C211.707 75.9291 210.822 74.7188 208.109 74.7188C205.395 74.7188 204.798 75.449 204.798 76.6403C204.798 79.9449 218.596 77.4085 218.596 85.5364C218.596 88.8417 215.748 92.4541 208.667 92.4541C201.104 92.3388 197.794 90.0133 197.794 84.2489Z" fill="#2F2E2B"/>
<path d="M219.942 81.1558C219.942 75.5643 222.155 69.9725 231.065 69.9725C239.378 69.9725 241.456 75.6023 241.456 81.2711C241.495 81.9107 241.495 82.5523 241.456 83.1925H226.62C226.62 86.0747 228.005 87.6694 230.892 87.6694C233.316 87.6694 234.336 86.6511 234.586 85.4212H241.514C241.129 89.418 237.781 92.3382 231.2 92.3382C222.117 92.3382 219.942 86.824 219.942 81.1558ZM234.586 78.7727C234.659 78.2451 234.611 77.7081 234.445 77.2014C234.28 76.6954 234.001 76.2331 233.63 75.8499C233.26 75.4668 232.807 75.1729 232.306 74.9905C231.804 74.8075 231.269 74.741 230.738 74.7955C230.192 74.7144 229.634 74.76 229.109 74.9297C228.583 75.0994 228.105 75.3882 227.709 75.7733C227.314 76.1584 227.014 76.6295 226.832 77.1501C226.649 77.6701 226.59 78.2261 226.658 78.7727H234.586Z" fill="#2F2E2B"/>
<path d="M244.09 70.3381H247.111L248.689 73.316C249.748 71.5293 252.211 69.973 256.386 69.973C263.526 69.973 264.873 74.2001 264.873 80.0412V91.9354H258.137V79.7916C258.137 76.8708 257.598 75.4686 254.539 75.4686C251.479 75.4686 250.69 76.9481 250.69 79.7916V91.9354H244.09V70.3381ZM249.613 61.6146C252.538 61.6146 254.655 63.536 256.868 63.536C258.022 63.536 258.388 62.7866 258.388 61.8452H263.314C263.314 62.191 263.314 62.902 263.314 63.536C263.314 66.7256 262.294 68.6664 258.176 68.6664C255.463 68.6664 252.538 66.7449 250.96 66.7449C250.747 66.7493 250.536 66.7975 250.343 66.8863C250.149 66.9751 249.975 67.1027 249.833 67.2612C249.69 67.4198 249.582 67.6058 249.514 67.8078C249.446 68.0098 249.421 68.2236 249.439 68.4358H244.571C244.474 67.9942 244.429 67.5428 244.436 67.0908C244.436 64.2085 245.591 61.6146 249.613 61.6146Z" fill="#2F2E2B"/>
<path d="M267.069 81.1172C267.069 75.468 269.359 69.9725 277.922 69.9725C286.485 69.9725 288.775 75.468 288.775 81.1172C288.775 86.7663 286.447 92.3382 277.884 92.3382C269.321 92.3382 267.069 86.7087 267.069 81.1172ZM277.884 86.8816C281.309 86.8816 282.425 84.672 282.425 81.1172C282.425 77.5624 281.444 75.468 277.922 75.468C274.401 75.468 273.477 77.6777 273.477 81.1172C273.477 84.5567 274.574 86.7853 277.884 86.7853V86.8816Z" fill="#2F2E2B"/>
<path d="M161 120.469C161 114.877 163.213 109.286 172.122 109.286C180.435 109.286 182.514 114.935 182.514 120.603C182.553 121.243 182.553 121.885 182.514 122.524H167.658C167.658 125.407 169.063 127.021 171.949 127.021C174.374 127.021 175.394 126.003 175.644 124.773H182.552C182.167 128.75 178.819 131.671 172.238 131.671C163.174 131.652 161 126.156 161 120.469ZM162.924 103.175L179.935 100.351V105.231L163.001 108.018L162.924 103.175ZM175.567 118.125C175.636 117.597 175.585 117.062 175.418 116.557C175.251 116.053 174.972 115.592 174.602 115.21C174.233 114.828 173.781 114.534 173.282 114.35C172.783 114.165 172.248 114.096 171.718 114.147C171.172 114.066 170.615 114.111 170.089 114.281C169.564 114.451 169.085 114.74 168.69 115.125C168.295 115.51 167.994 115.981 167.812 116.502C167.63 117.022 167.57 117.578 167.639 118.125H175.567Z" fill="#2F2E2B"/>
<path d="M186.171 124.293V114.993H182.784V111.361L186.171 109.67V104.175H192.579V109.67H198.352V114.993H192.752V123.64C192.752 125.292 193.291 126.637 198.256 126.137V131.46C188.5 132.094 186.171 130.172 186.171 124.293Z" fill="#2F2E2B"/>
<path d="M203.702 99.3325C206.203 99.3325 207.973 99.8898 207.973 102.887C207.973 105.885 206.203 106.462 203.702 106.462C201.2 106.462 199.275 105.866 199.275 102.887C199.275 99.9094 201.104 99.3325 203.702 99.3325ZM200.353 109.67H207.011V131.287H200.353V109.67Z" fill="#2F2E2B"/>
<path d="M209.224 120.469C209.224 114.704 211.552 109.286 220.25 109.286C227.196 109.286 230.506 112.898 230.506 118.605H223.848C223.598 115.819 222.578 114.762 220.115 114.762C216.728 114.762 215.785 116.799 215.785 120.392C215.785 123.985 216.632 126.156 220.115 126.156C222.675 126.156 223.598 124.927 223.848 122.313H230.506C230.506 128.078 227.331 131.575 220.365 131.575C211.513 131.652 209.224 126.156 209.224 120.469Z" fill="#2F2E2B"/>
<path d="M231.891 120.431C231.891 114.8 234.181 109.286 242.763 109.286C251.345 109.286 253.616 114.8 253.616 120.431C253.616 126.06 251.288 131.652 242.706 131.652C234.123 131.652 231.891 126.022 231.891 120.431ZM242.706 126.195C246.15 126.195 247.247 123.985 247.247 120.431C247.247 116.876 246.285 114.801 242.763 114.801C239.241 114.801 238.298 117.01 238.298 120.431C238.298 123.851 239.338 126.118 242.647 126.118L242.706 126.195Z" fill="#2F2E2B"/>
<path d="M254.983 128.136C254.983 125.388 256.907 124.715 259.351 124.715C261.795 124.715 263.643 125.388 263.643 128.136C263.643 130.883 261.892 131.652 259.351 131.652C256.811 131.652 254.983 130.864 254.983 128.136Z" fill="#2F2E2B"/>
<path d="M161.116 154.133C161.116 151.385 162.232 148.83 166.235 148.83C169.391 148.83 170.872 150.501 170.872 153.076H168.679C168.525 151.5 167.89 150.578 166.177 150.578C163.945 150.578 163.329 152.115 163.329 154.113C163.329 156.112 163.926 157.592 166.216 157.592C167.928 157.592 168.525 156.727 168.679 155.247H170.872C170.872 157.783 169.448 159.436 166.273 159.436C162.194 159.436 161.116 156.88 161.116 154.133Z" fill="#2F2E2B"/>
<path d="M172.452 154.133C172.452 151.404 173.53 148.83 177.59 148.83C181.65 148.83 182.728 151.404 182.728 154.133C182.728 156.861 181.612 159.436 177.571 159.436C173.53 159.436 172.452 156.88 172.452 154.133ZM177.571 157.688C179.995 157.688 180.515 156.131 180.515 154.133C180.515 152.134 180.034 150.578 177.59 150.578C175.146 150.578 174.665 152.192 174.665 154.133C174.665 156.073 175.185 157.688 177.571 157.688Z" fill="#2F2E2B"/>
<path d="M184.824 148.964H185.998L186.479 150.309C186.812 149.785 187.287 149.368 187.85 149.106C188.413 148.844 189.038 148.747 189.654 148.829C190.237 148.754 190.83 148.868 191.343 149.155C191.856 149.443 192.263 149.888 192.502 150.424C192.816 149.868 193.29 149.418 193.864 149.134C194.436 148.849 195.081 148.744 195.715 148.829C198.544 148.829 199.122 150.751 199.122 153.229V159.301H196.947V153.095C196.947 151.654 196.678 150.635 195.023 150.635C193.368 150.635 193.099 151.635 193.099 153.095V159.301H190.886V153.095C190.886 151.654 190.617 150.635 188.961 150.635C187.307 150.635 187.037 151.635 187.037 153.095V159.301H184.824V148.964Z" fill="#2F2E2B"/>
<path d="M201.316 154.633V148.965H203.434V154.729C203.434 156.65 203.78 157.554 205.993 157.554C208.206 157.554 208.648 156.497 208.648 154.614V148.849H210.822V159.187H209.63L209.187 157.688C208.802 158.438 207.724 159.321 205.339 159.321C201.99 159.436 201.316 157.573 201.316 154.633Z" fill="#2F2E2B"/>
<path d="M213.32 148.964H214.571L215.052 150.424C215.399 149.714 216.477 148.83 218.901 148.83C222.288 148.83 222.961 150.751 222.961 153.73V159.301H220.671V153.537C220.671 151.616 220.344 150.597 218.151 150.597C215.957 150.597 215.476 151.673 215.476 153.537V159.301H213.32V148.964Z" fill="#2F2E2B"/>
<path d="M226.214 144.775C227.138 144.775 227.735 145.044 227.735 146.082C227.735 147.12 227.138 147.369 226.214 147.369C225.291 147.369 224.617 147.12 224.617 146.082C224.617 145.044 225.233 144.775 226.214 144.775ZM225.118 148.964H227.254V159.301H225.118V148.964Z" fill="#2F2E2B"/>
<path d="M229.312 154.133C229.312 151.308 230.293 148.83 233.719 148.83C234.376 148.751 235.043 148.839 235.658 149.084C236.273 149.329 236.817 149.724 237.24 150.232V145.044H239.356V159.302H238.183L237.663 157.823C237.298 158.533 236.143 159.436 233.699 159.436C230.332 159.436 229.312 156.958 229.312 154.133ZM234.353 157.669C236.759 157.669 237.259 156.247 237.259 154.133C237.259 152.02 236.836 150.636 234.373 150.636C231.909 150.636 231.525 152.058 231.525 154.133C231.525 156.208 232.006 157.669 234.353 157.669Z" fill="#2F2E2B"/>
<path d="M241.513 156.266C241.513 154.345 242.879 153.537 245.823 153.23L249.075 152.903C249.075 151.212 248.478 150.54 246.401 150.54C244.322 150.54 243.938 151.308 243.938 152.596H241.763C241.763 150.463 242.648 148.753 246.285 148.753C250.518 148.753 251.115 150.559 251.115 153.345V159.225H249.941L249.499 157.669C249.01 158.258 248.385 158.721 247.678 159.016C246.971 159.31 246.202 159.428 245.439 159.359C243.225 159.436 241.513 158.456 241.513 156.266ZM246.073 157.745C246.472 157.807 246.879 157.776 247.263 157.655C247.648 157.534 247.999 157.326 248.289 157.047C248.58 156.768 248.802 156.426 248.938 156.047C249.074 155.668 249.121 155.263 249.075 154.863V154.536L246.15 154.863C244.342 155.055 243.745 155.44 243.745 156.246C243.745 157.054 244.476 157.745 245.997 157.745H246.073Z" fill="#2F2E2B"/>
<path d="M253.059 154.133C253.059 151.308 254.04 148.83 257.465 148.83C258.123 148.751 258.789 148.839 259.405 149.084C260.02 149.329 260.564 149.724 260.987 150.232V145.044H263.104V159.302H261.929L261.449 157.823C261.083 158.533 259.928 159.436 257.485 159.436C253.983 159.436 253.059 156.958 253.059 154.133ZM258.1 157.669C260.487 157.669 261.006 156.247 261.006 154.133C261.006 152.02 260.583 150.636 258.119 150.636C255.656 150.636 255.271 152.058 255.271 154.133C255.271 156.208 255.656 157.669 258.004 157.669H258.1Z" fill="#2F2E2B"/>
</svg>
