<svg width="450" height="220" viewBox="0 0 450 220" fill="none" xmlns="http://www.w3.org/2000/svg">
<path d="M167.906 52H175.773C178.129 52 180.052 53.9139 180.052 56.2786V59.4347H163.637V56.2786C163.637 53.9231 165.551 52 167.915 52H167.906Z" fill="#FFD206"/>
<path d="M270.031 52H277.898C280.254 52 282.177 53.9139 282.177 56.2786V59.4347H265.762V56.2786C265.762 53.9231 267.676 52 270.04 52H270.031Z" fill="#FFD206"/>
<path d="M258.254 124.267C254.417 124.267 251.297 121.166 251.279 117.32C251.261 113.465 254.371 110.327 258.226 110.318L281.202 110.208C281.202 110.208 281.266 110.208 281.303 110.208C284.431 110.235 285.158 108.726 285.407 108.229C286.069 106.886 286.088 104.567 284.579 102.616L281.505 98.8808C279.748 96.746 278.828 94.0409 278.92 91.2713C279.076 86.9834 281.395 84.1954 282.932 82.3552C283.162 82.0791 283.401 81.7939 283.631 81.4994L284.542 80.3401C286.161 78.2882 286.364 75.8682 285.72 74.5432C284.984 73.025 282.876 72.7122 281.248 72.7122H246.743V116.989C246.743 119.887 244.958 122.482 242.243 123.513C239.538 124.543 236.474 123.789 234.551 121.626L191.056 72.7122H164.041C163.995 72.7122 163.949 72.749 163.949 72.8042V110.226C163.949 110.272 163.986 110.318 164.041 110.318H183.585C189.566 110.318 194.884 106.518 196.826 100.877C198.077 97.2337 202.043 95.2922 205.686 96.5436C209.33 97.795 211.272 101.761 210.02 105.404C206.147 116.695 195.528 124.276 183.585 124.276H164.041C156.303 124.276 150 117.983 150 110.235V72.8042C150 65.0659 156.303 58.7629 164.041 58.7629H194.194C196.191 58.7629 198.086 59.6187 199.411 61.1001L232.775 98.6323V65.7376C232.775 61.8822 235.894 58.7629 239.75 58.7629H281.229C289.06 58.7629 295.271 62.2963 298.252 68.4611C301.353 74.8561 300.267 82.9164 295.482 88.9801L294.571 90.1395C294.259 90.5351 293.936 90.9216 293.624 91.2989C293.578 91.3633 293.522 91.4277 293.467 91.4921L295.39 93.82C295.39 93.82 295.455 93.9028 295.482 93.9396C300.147 99.8653 301.104 107.889 297.911 114.385C294.903 120.513 288.729 124.157 281.367 124.157H281.211L258.281 124.258H258.244L258.254 124.267Z" fill="#53B5A5"/>
<path d="M268.393 78.4998H259.854C258.05 78.4998 256.588 79.9623 256.588 81.7663V83.1925C256.588 84.9965 258.05 86.459 259.854 86.459H268.393C270.197 86.459 271.66 84.9965 271.66 83.1925V81.7663C271.66 79.9623 270.197 78.4998 268.393 78.4998Z" fill="#FFD206"/>
<path d="M256.588 99.8285V101.255C256.588 103.059 258.05 104.521 259.854 104.521H268.393C270.197 104.521 271.66 103.059 271.66 101.255V99.8285C271.66 98.0245 270.197 96.5621 268.393 96.5621H259.854C258.05 96.5621 256.588 98.0245 256.588 99.8285Z" fill="#FFD206"/>
<path d="M173.297 87.7288C171.239 87.7288 169.57 89.3972 169.57 91.4553C169.57 93.5135 171.239 95.1819 173.297 95.1819H186.804C188.863 95.1819 190.531 93.5135 190.531 91.4553C190.531 89.3972 188.863 87.7288 186.804 87.7288H173.297Z" fill="#FFD206"/>
<path d="M176.324 98.2183C176.324 100.276 177.993 101.945 180.051 101.945C182.109 101.945 183.777 100.276 183.777 98.2183V84.7108C183.777 82.6527 182.109 80.9842 180.051 80.9842C177.993 80.9842 176.324 82.6527 176.324 84.7108V98.2183Z" fill="#FFD206"/>
<path d="M173.288 153.546C173.288 155.874 172.93 157.907 172.203 159.628C171.476 161.349 170.445 162.784 169.111 163.943C167.777 165.094 166.176 165.949 164.299 166.511C162.422 167.063 160.342 167.348 158.069 167.348C156.984 167.348 155.751 167.302 154.38 167.21C153.009 167.118 151.702 166.934 150.46 166.649V140.508C151.702 140.222 153.027 140.038 154.426 139.965C155.824 139.891 157.067 139.845 158.152 139.845C160.407 139.845 162.468 140.112 164.326 140.636C166.194 141.17 167.786 141.998 169.12 143.121C170.454 144.243 171.485 145.67 172.212 147.39C172.939 149.111 173.298 151.163 173.298 153.546H173.288ZM155.346 162.977C155.631 163.005 156.008 163.023 156.468 163.032C156.938 163.042 157.573 163.051 158.373 163.051C161.658 163.051 164.115 162.214 165.734 160.548C167.354 158.873 168.163 156.546 168.163 153.537C168.163 150.528 167.372 148.136 165.799 146.507C164.216 144.878 161.768 144.059 158.456 144.059C157.002 144.059 155.972 144.096 155.346 144.179V162.977Z" fill="#FFD206" stroke="#FFD206" stroke-width="1.51" stroke-linecap="round" stroke-linejoin="round"/>
<path d="M184.873 167.017C182.932 162.821 181.055 158.432 179.261 153.85C177.457 149.267 175.783 144.685 174.228 140.103H179.629C180.254 141.915 180.889 143.765 181.533 145.66C182.177 147.556 182.831 149.405 183.484 151.236C184.128 153.058 184.781 154.825 185.435 156.536C186.088 158.248 186.723 159.812 187.339 161.238C187.938 159.812 188.563 158.257 189.207 156.555C189.851 154.862 190.514 153.095 191.176 151.255C191.839 149.415 192.492 147.556 193.145 145.66C193.799 143.774 194.415 141.915 195.013 140.103H200.258C198.675 144.685 196.982 149.267 195.188 153.85C193.394 158.432 191.526 162.821 189.575 167.017H184.883H184.873Z" fill="#FFD206" stroke="#FFD206" stroke-width="1.51" stroke-linecap="round" stroke-linejoin="round"/>
<path d="M212.79 167.33C211.364 167.33 209.928 167.284 208.474 167.191C207.021 167.099 205.76 166.915 204.665 166.63V140.489C205.236 140.388 205.843 140.287 206.487 140.195C207.131 140.103 207.793 140.029 208.465 139.983C209.137 139.937 209.809 139.891 210.462 139.864C211.124 139.836 211.75 139.827 212.348 139.827C213.977 139.827 215.495 139.946 216.894 140.195C218.292 140.443 219.498 140.848 220.528 141.419C221.549 141.989 222.35 142.744 222.92 143.673C223.491 144.602 223.776 145.762 223.776 147.133C223.776 148.402 223.473 149.488 222.865 150.399C222.258 151.31 221.411 152.028 220.326 152.571C221.954 153.113 223.16 153.914 223.942 154.981C224.724 156.049 225.11 157.392 225.11 159.021C225.11 161.79 224.098 163.87 222.083 165.25C220.068 166.639 216.967 167.33 212.799 167.33H212.79ZM209.496 151.062H212.955C214.823 151.062 216.286 150.795 217.344 150.261C218.403 149.727 218.936 148.78 218.936 147.409C218.936 146.111 218.384 145.191 217.289 144.648C216.185 144.105 214.759 143.829 213.001 143.829C212.247 143.829 211.584 143.839 211.005 143.866C210.425 143.894 209.919 143.931 209.505 143.986V151.052L209.496 151.062ZM209.496 154.899V163.097C210.039 163.152 210.618 163.189 211.244 163.217C211.87 163.244 212.431 163.253 212.955 163.253C213.968 163.253 214.906 163.189 215.771 163.06C216.636 162.931 217.39 162.701 218.025 162.379C218.66 162.057 219.166 161.625 219.544 161.082C219.921 160.539 220.105 159.84 220.105 158.984C220.105 157.456 219.544 156.398 218.43 155.8C217.317 155.202 215.78 154.908 213.811 154.908H209.496V154.899Z" fill="#FFD206" stroke="#FFD206" stroke-width="1.51" stroke-linecap="round" stroke-linejoin="round"/>
<path d="M236.722 146.203C238.277 146.203 239.584 146.396 240.642 146.783C241.7 147.169 242.547 147.712 243.182 148.412C243.816 149.111 244.267 149.957 244.543 150.951C244.819 151.945 244.948 153.04 244.948 154.236V166.547C244.221 166.704 243.126 166.888 241.663 167.109C240.2 167.33 238.553 167.44 236.713 167.44C235.498 167.44 234.385 167.32 233.373 167.09C232.361 166.86 231.505 166.483 230.787 165.968C230.079 165.452 229.518 164.781 229.113 163.953C228.708 163.125 228.515 162.103 228.515 160.889C228.515 159.674 228.745 158.735 229.196 157.935C229.646 157.134 230.263 156.481 231.045 155.975C231.818 155.469 232.72 155.11 233.741 154.889C234.762 154.668 235.83 154.558 236.943 154.558C237.458 154.558 238.001 154.595 238.572 154.659C239.142 154.724 239.749 154.834 240.394 154.991V154.218C240.394 153.675 240.329 153.159 240.2 152.663C240.072 152.175 239.841 151.733 239.519 151.365C239.197 150.988 238.765 150.703 238.24 150.491C237.707 150.289 237.044 150.178 236.244 150.178C235.158 150.178 234.155 150.252 233.253 150.408C232.342 150.565 231.606 150.749 231.036 150.951L230.456 147.142C231.054 146.93 231.919 146.728 233.06 146.516C234.201 146.304 235.416 146.203 236.713 146.203H236.722ZM237.109 163.723C238.563 163.723 239.657 163.649 240.412 163.493V158.285C240.154 158.211 239.777 158.128 239.289 158.055C238.793 157.981 238.25 157.935 237.661 157.935C237.146 157.935 236.621 157.972 236.087 158.055C235.554 158.128 235.075 158.275 234.652 158.478C234.229 158.68 233.879 158.975 233.621 159.352C233.364 159.729 233.235 160.198 233.235 160.769C233.235 161.882 233.585 162.655 234.284 163.078C234.983 163.502 235.931 163.723 237.118 163.723H237.109Z" fill="#FFD206" stroke="#FFD206" stroke-width="1.51" stroke-linecap="round" stroke-linejoin="round"/>
<path d="M250.7 167.017V137.655L255.402 136.882V146.939C255.917 146.755 256.525 146.599 257.206 146.47C257.896 146.341 258.567 146.277 259.248 146.277C260.877 146.277 262.229 146.507 263.306 146.958C264.383 147.409 265.238 148.044 265.892 148.862C266.536 149.681 266.996 150.657 267.272 151.798C267.548 152.939 267.677 154.208 267.677 155.607V167.026H262.975V156.343C262.975 155.257 262.901 154.328 262.763 153.564C262.625 152.801 262.386 152.175 262.064 151.696C261.742 151.218 261.309 150.868 260.766 150.647C260.224 150.427 259.552 150.316 258.751 150.316C258.126 150.316 257.491 150.381 256.847 150.509C256.203 150.638 255.724 150.758 255.411 150.859V167.017H250.709H250.7Z" fill="#FFD206" stroke="#FFD206" stroke-width="1.51" stroke-linecap="round" stroke-linejoin="round"/>
<path d="M281.266 138.401L274.935 144.538L272.607 142.44L278.321 135.64L281.275 138.401H281.266ZM278.045 167.017H273.344V146.7H278.045V167.017Z" fill="#FFD206" stroke="#FFD206" stroke-width="1.51" stroke-linecap="round" stroke-linejoin="round"/>
<path d="M290.781 146.203C292.336 146.203 293.642 146.396 294.701 146.783C295.759 147.169 296.605 147.712 297.24 148.412C297.875 149.111 298.326 149.957 298.602 150.951C298.878 151.945 299.007 153.04 299.007 154.236V166.547C298.28 166.704 297.185 166.888 295.722 167.109C294.259 167.33 292.612 167.44 290.772 167.44C289.557 167.44 288.444 167.32 287.432 167.09C286.419 166.86 285.564 166.483 284.846 165.968C284.137 165.452 283.576 164.781 283.171 163.953C282.766 163.125 282.573 162.103 282.573 160.889C282.573 159.674 282.803 158.735 283.254 157.935C283.705 157.134 284.321 156.481 285.104 155.975C285.877 155.469 286.778 155.11 287.8 154.889C288.821 154.668 289.888 154.558 291.002 154.558C291.517 154.558 292.06 154.595 292.63 154.659C293.201 154.724 293.808 154.834 294.452 154.991V154.218C294.452 153.675 294.388 153.159 294.259 152.663C294.13 152.175 293.9 151.733 293.578 151.365C293.256 150.988 292.824 150.703 292.299 150.491C291.765 150.289 291.103 150.178 290.302 150.178C289.217 150.178 288.214 150.252 287.312 150.408C286.401 150.565 285.665 150.749 285.094 150.951L284.515 147.142C285.113 146.93 285.978 146.728 287.119 146.516C288.26 146.304 289.474 146.203 290.772 146.203H290.781ZM291.167 163.723C292.621 163.723 293.716 163.649 294.471 163.493V158.285C294.213 158.211 293.836 158.128 293.348 158.055C292.851 157.981 292.308 157.935 291.719 157.935C291.204 157.935 290.68 157.972 290.146 158.055C289.612 158.128 289.134 158.275 288.711 158.478C288.287 158.68 287.938 158.975 287.68 159.352C287.422 159.729 287.294 160.198 287.294 160.769C287.294 161.882 287.643 162.655 288.342 163.078C289.042 163.502 289.99 163.723 291.176 163.723H291.167Z" fill="#FFD206" stroke="#FFD206" stroke-width="1.51" stroke-linecap="round" stroke-linejoin="round"/>
</svg>
