<svg width="450" height="220" viewBox="0 0 450 220" fill="none" xmlns="http://www.w3.org/2000/svg">
<path d="M279.377 76.5468C277.985 76.5468 276.792 76.9941 275.848 77.8391C274.903 78.7338 274.406 79.8273 274.406 81.1693C274.406 82.5113 274.903 83.6546 275.848 84.5989C276.792 85.5433 277.985 85.9907 279.327 85.9907C280.719 85.9907 281.912 85.5433 282.856 84.5989C283.8 83.7043 284.298 82.561 284.298 81.1693C284.298 79.8273 283.85 78.6841 282.906 77.8391C282.011 76.9941 280.818 76.5468 279.377 76.5468Z" fill="#3D50FC"/>
<path d="M122.956 76H84.4843C84.4843 76 65 86.3883 65 110.694C65 134.105 84.4843 142.654 84.4843 142.654H114.407C104.167 136.491 93.4809 125.655 93.4809 112.334C93.4809 95.1861 106.802 83.0581 122.956 76Z" fill="#3D50FC"/>
<path d="M124.746 142.704H134.836V98.069C117.986 101.3 110.978 110.943 110.978 121.48C111.027 129.632 116.544 137.435 124.746 142.704Z" fill="#3D50FC"/>
<path d="M195.724 98.566C194.83 96.379 193.637 94.6891 192.295 93.4961C190.356 91.8559 187.821 91.0109 184.541 91.0109C181.26 91.0109 178.328 91.8062 175.793 93.3967C173.258 94.9873 171.319 97.1743 169.928 100.057C168.586 102.94 167.89 106.071 167.89 109.601C167.89 113.13 168.536 116.211 169.828 118.895C171.12 121.629 172.96 123.717 175.296 125.208C177.682 126.699 180.465 127.445 183.746 127.445C187.026 127.445 189.76 126.55 191.897 124.761C193.438 123.518 194.681 121.778 195.724 119.591V123.965C195.724 127.942 194.78 131.073 192.842 133.359C190.903 135.646 187.97 136.789 183.944 136.789C181.409 136.789 179.123 136.342 176.986 135.497C174.848 134.652 173.009 133.409 171.369 131.819V139.374C172.96 140.765 174.848 141.809 177.085 142.505C179.272 143.201 181.708 143.499 184.392 143.499C188.269 143.499 191.649 142.754 194.531 141.263C197.414 139.771 199.651 137.634 201.242 134.851C202.832 132.067 203.627 128.687 203.627 124.81V92.1044H195.724V98.566ZM190.953 119.144C189.412 120.138 187.622 120.585 185.634 120.585C182.702 120.585 180.316 119.591 178.576 117.553C176.837 115.565 175.942 112.881 175.942 109.501C175.942 107.165 176.339 105.127 177.184 103.387C178.029 101.648 179.173 100.256 180.664 99.2619C182.155 98.2678 183.895 97.7708 185.883 97.7708C187.772 97.7708 189.462 98.2181 190.953 99.1625C192.444 100.107 193.637 101.399 194.432 103.139C195.277 104.879 195.675 106.817 195.675 109.054C195.675 111.34 195.277 113.328 194.432 115.068C193.637 116.808 192.494 118.15 190.953 119.144Z" fill="#3D50FC"/>
<path d="M239.464 98.6654C238.421 96.4784 237.128 94.7388 235.637 93.5458C233.5 91.8559 230.865 91.0109 227.784 91.0109C224.652 91.0109 221.769 91.8559 219.185 93.4961C216.6 95.1861 214.612 97.4725 213.171 100.455C211.729 103.437 211.033 106.767 211.033 110.495C211.033 114.173 211.729 117.454 213.071 120.337C214.413 123.22 216.302 125.456 218.737 127.097C221.173 128.737 223.956 129.532 227.088 129.532C229.325 129.532 231.313 129.085 233.102 128.19C234.892 127.295 236.383 126.103 237.526 124.611C238.271 123.667 238.868 122.623 239.415 121.48V128.488H247.318V92.1044H239.415V98.6654H239.464ZM234.693 120.933C233.152 121.977 231.313 122.524 229.175 122.524C227.187 122.524 225.448 122.027 223.956 121.033C222.465 120.039 221.272 118.647 220.477 116.808C219.632 114.969 219.235 112.831 219.235 110.396C219.235 107.911 219.632 105.773 220.477 103.884C221.322 101.996 222.515 100.554 224.056 99.5104C225.646 98.4666 227.436 97.9696 229.474 97.9696C231.512 97.9696 233.301 98.4666 234.842 99.5104C236.383 100.554 237.576 101.996 238.421 103.785C239.266 105.624 239.663 107.712 239.663 110.048C239.663 112.483 239.216 114.621 238.371 116.46C237.426 118.398 236.234 119.889 234.693 120.933Z" fill="#3D50FC"/>
<path d="M265.261 76.1989H257.358V128.538H265.261V76.1989Z" fill="#3D50FC"/>
<path d="M283.354 92.1043H275.451V128.488H283.354V92.1043Z" fill="#3D50FC"/>
<path d="M301.446 76.1989H293.543V128.538H301.446V76.1989Z" fill="#3D50FC"/>
<path d="M335.742 92.8997C333.307 91.6571 330.474 91.0109 327.243 91.0109C323.465 91.0109 320.185 91.8062 317.451 93.4464C314.717 95.0867 312.63 97.3234 311.188 100.206C309.747 103.089 309.051 106.37 309.051 110.048C309.051 114.024 309.896 117.454 311.536 120.386C313.176 123.319 315.512 125.605 318.495 127.196C321.477 128.787 325.006 129.582 328.982 129.582C331.617 129.582 334.052 129.234 336.339 128.538C338.625 127.842 340.464 126.948 341.955 125.804V118.846C340.514 119.989 338.725 120.933 336.637 121.629C334.549 122.325 332.462 122.673 330.324 122.673C326.199 122.673 323.018 121.579 320.731 119.442C318.743 117.553 317.6 115.018 317.252 111.837H343.297V107.066C343.297 103.735 342.651 100.852 341.359 98.4169C340.017 95.9814 338.178 94.1423 335.742 92.8997ZM318.395 103.238C319.141 101.499 320.234 100.157 321.676 99.1625C323.117 98.1684 324.956 97.6713 327.193 97.6713C328.982 97.6713 330.523 98.0193 331.865 98.7152C333.158 99.411 334.201 100.455 334.897 101.797C335.593 103.139 335.941 104.68 335.991 106.519H317.501C317.65 105.376 317.948 104.232 318.395 103.238Z" fill="#3D50FC"/>
<path d="M382.664 100.405C381.123 97.4725 378.986 95.1364 376.252 93.4961C373.468 91.8559 370.287 91.0109 366.659 91.0109C363.03 91.0109 359.849 91.8559 357.116 93.4961C354.382 95.1364 352.244 97.4228 350.753 100.405C349.262 103.338 348.517 106.668 348.517 110.346C348.517 114.024 349.262 117.354 350.753 120.287C352.244 123.22 354.382 125.506 357.165 127.146C359.949 128.787 363.08 129.632 366.709 129.632C370.337 129.632 373.518 128.787 376.302 127.146C379.085 125.506 381.222 123.22 382.714 120.287C384.254 117.354 385 114.074 385 110.346C384.95 106.668 384.205 103.338 382.664 100.405ZM375.606 116.659C374.81 118.498 373.618 119.939 372.077 120.983C370.536 122.027 368.697 122.524 366.609 122.524C364.522 122.524 362.732 122.027 361.241 120.983C359.75 119.939 358.557 118.498 357.762 116.659C356.917 114.82 356.519 112.732 356.519 110.346C356.519 107.911 356.917 105.773 357.762 103.934C358.607 102.045 359.75 100.604 361.241 99.6098C362.732 98.6157 364.522 98.069 366.609 98.069C368.697 98.069 370.486 98.566 372.077 99.6098C373.618 100.604 374.81 102.045 375.606 103.934C376.401 105.823 376.799 107.96 376.799 110.346C376.799 112.732 376.401 114.82 375.606 116.659Z" fill="#3D50FC"/>
</svg>
