<svg width="450" height="220" viewBox="0 0 450 220" fill="none" xmlns="http://www.w3.org/2000/svg">
<path fill-rule="evenodd" clip-rule="evenodd" d="M65.2185 101.422C70.765 95.2618 80.8456 99.2615 80.8456 107.612V129.772C80.8456 134.83 76.8193 138.933 71.8494 138.933H51.8945C44.0634 138.933 39.9754 129.455 45.2635 123.583L65.2185 101.422ZM72.8905 107.612C72.8905 106.641 71.7224 106.183 71.0827 106.894L51.1277 129.055C50.5126 129.738 50.9912 130.834 51.8945 130.834H71.8494C72.4231 130.834 72.8905 130.361 72.8905 129.772V107.612Z" fill="#00C4F5"/>
<path fill-rule="evenodd" clip-rule="evenodd" d="M61.8663 94.0453C55.8064 94.0453 50.8428 99.0924 50.8428 105.383C50.8428 111.673 55.8064 116.72 61.8663 116.72C67.9262 116.72 72.8898 111.673 72.8898 105.383C72.8898 99.0924 67.9262 94.0453 61.8663 94.0453ZM42.8877 105.383C42.8877 94.6776 51.3565 85.9471 61.8663 85.9471C72.3762 85.9471 80.8449 94.6776 80.8449 105.383C80.8449 116.088 72.3762 124.819 61.8663 124.819C51.3565 124.819 42.8877 116.088 42.8877 105.383Z" fill="#FF7777"/>
<path fill-rule="evenodd" clip-rule="evenodd" d="M54.2613 113.59L48.8848 119.561C50.8542 121.453 53.2191 122.922 55.8413 123.82L62.2396 116.714C62.1158 116.718 61.9915 116.72 61.8667 116.72C58.9261 116.72 56.2437 115.532 54.2613 113.59ZM72.7651 107.099C72.8475 106.54 72.8902 105.967 72.8902 105.383C72.8902 102.792 72.0479 100.411 70.6337 98.5079C75.3656 97.8827 80.2996 101.223 80.8032 106.687C80.4159 112.663 77.3868 117.914 72.8902 121.207V107.612C72.8902 107.419 72.8441 107.246 72.7651 107.099Z" fill="#005267"/>
<path d="M131.208 122.318C131.208 127.757 129.848 131.876 127.127 134.675C124.446 137.512 120.346 138.931 114.827 138.931C112.3 138.931 109.813 138.636 107.365 138.044C104.916 137.492 102.662 136.389 100.603 134.734L105.441 127.402C106.801 128.545 108.22 129.452 109.697 130.122C111.213 130.792 112.864 131.127 114.652 131.127C117.334 131.127 119.296 130.457 120.54 129.117C121.823 127.816 122.464 126.141 122.464 124.092V121.313H122.347C121.337 122.693 120.074 123.678 118.558 124.269C117.081 124.821 115.682 125.097 114.361 125.097C112.262 125.097 110.358 124.742 108.647 124.033C106.937 123.284 105.46 122.259 104.217 120.958C103.012 119.618 102.079 118.042 101.418 116.229C100.758 114.416 100.428 112.425 100.428 110.258C100.428 108.366 100.719 106.513 101.302 104.7C101.924 102.887 102.779 101.291 103.867 99.9115C104.994 98.532 106.354 97.4284 107.948 96.6007C109.541 95.7337 111.349 95.3001 113.369 95.3001C114.613 95.3001 115.74 95.438 116.751 95.714C117.8 95.9898 118.733 96.3446 119.549 96.7781C120.365 97.2116 121.065 97.7043 121.648 98.2561C122.231 98.7685 122.697 99.2809 123.047 99.7933H123.163V96.0095H131.208V122.318ZM109.172 110.198C109.172 111.144 109.347 112.051 109.697 112.918C110.047 113.746 110.532 114.495 111.154 115.165C111.815 115.795 112.553 116.308 113.369 116.702C114.225 117.096 115.158 117.293 116.168 117.293C117.139 117.293 118.053 117.096 118.907 116.702C119.763 116.308 120.501 115.795 121.123 115.165C121.784 114.495 122.289 113.746 122.638 112.918C122.988 112.051 123.163 111.144 123.163 110.198C123.163 109.253 122.988 108.366 122.638 107.538C122.289 106.671 121.784 105.922 121.123 105.291C120.501 104.621 119.763 104.089 118.907 103.695C118.053 103.301 117.139 103.104 116.168 103.104C115.158 103.104 114.225 103.301 113.369 103.695C112.553 104.089 111.815 104.621 111.154 105.291C110.532 105.922 110.047 106.671 109.697 107.538C109.347 108.366 109.172 109.253 109.172 110.198Z" fill="#2B353B"/>
<path d="M163.847 119.776C162.448 121.589 160.68 122.988 158.542 123.974C156.405 124.959 154.189 125.452 151.896 125.452C149.72 125.452 147.66 125.097 145.717 124.387C143.813 123.678 142.141 122.673 140.704 121.372C139.304 120.032 138.196 118.436 137.38 116.583C136.564 114.731 136.156 112.662 136.156 110.376C136.156 108.09 136.564 106.021 137.38 104.168C138.196 102.316 139.304 100.739 140.704 99.4385C142.141 98.0985 143.813 97.0737 145.717 96.3642C147.66 95.6548 149.72 95.3001 151.896 95.3001C153.917 95.3001 155.744 95.6548 157.376 96.3642C159.047 97.0737 160.447 98.0985 161.574 99.4385C162.739 100.739 163.633 102.316 164.255 104.168C164.877 106.021 165.188 108.09 165.188 110.376V113.154H144.9C145.25 114.849 146.008 116.209 147.174 117.234C148.34 118.219 149.778 118.712 151.489 118.712C152.926 118.712 154.131 118.396 155.103 117.766C156.113 117.096 156.988 116.248 157.726 115.224L163.847 119.776ZM156.443 107.124C156.482 105.626 155.996 104.346 154.986 103.281C153.976 102.217 152.673 101.685 151.08 101.685C150.109 101.685 149.253 101.843 148.515 102.158C147.777 102.473 147.136 102.887 146.591 103.4C146.086 103.873 145.678 104.444 145.367 105.114C145.095 105.745 144.939 106.415 144.9 107.124H156.443Z" fill="#2B353B"/>
<path d="M188.637 103.104H180.942V112.681C180.942 113.47 180.981 114.199 181.058 114.869C181.136 115.5 181.311 116.051 181.582 116.524C181.854 116.997 182.263 117.372 182.807 117.648C183.39 117.884 184.148 118.002 185.081 118.002C185.547 118.002 186.149 117.963 186.888 117.884C187.665 117.766 188.248 117.529 188.637 117.175V124.565C187.665 124.919 186.655 125.156 185.605 125.274C184.556 125.392 183.526 125.452 182.515 125.452C181.039 125.452 179.678 125.294 178.434 124.979C177.191 124.663 176.103 124.171 175.17 123.501C174.238 122.791 173.499 121.885 172.955 120.781C172.449 119.677 172.197 118.337 172.197 116.761V103.104H166.601V96.0095H172.197V87.4962H180.942V96.0095H188.637V103.104Z" fill="#2B353B"/>
<path d="M190.865 110.376C190.865 108.09 191.273 106.021 192.09 104.168C192.905 102.316 194.013 100.739 195.413 99.4385C196.85 98.0985 198.522 97.0737 200.426 96.3642C202.369 95.6548 204.429 95.3001 206.606 95.3001C208.782 95.3001 210.822 95.6548 212.727 96.3642C214.67 97.0737 216.341 98.0985 217.74 99.4385C219.178 100.739 220.305 102.316 221.122 104.168C221.937 106.021 222.345 108.09 222.345 110.376C222.345 112.662 221.937 114.731 221.122 116.583C220.305 118.436 219.178 120.032 217.74 121.372C216.341 122.673 214.67 123.678 212.727 124.387C210.822 125.097 208.782 125.452 206.606 125.452C204.429 125.452 202.369 125.097 200.426 124.387C198.522 123.678 196.85 122.673 195.413 121.372C194.013 120.032 192.905 118.436 192.09 116.583C191.273 114.731 190.865 112.662 190.865 110.376ZM199.61 110.376C199.61 112.544 200.212 114.297 201.417 115.638C202.661 116.978 204.39 117.648 206.606 117.648C208.821 117.648 210.531 116.978 211.735 115.638C212.979 114.297 213.601 112.544 213.601 110.376C213.601 108.208 212.979 106.454 211.735 105.114C210.531 103.774 208.821 103.104 206.606 103.104C204.39 103.104 202.661 103.774 201.417 105.114C200.212 106.454 199.61 108.208 199.61 110.376Z" fill="#2B353B"/>
<path d="M226.33 96.0095H234.724V99.9115H234.841C235.113 99.3597 235.502 98.8079 236.007 98.2561C236.513 97.7043 237.115 97.2116 237.815 96.7781C238.514 96.3446 239.311 95.9898 240.205 95.714C241.099 95.438 242.07 95.3001 243.119 95.3001C245.335 95.3001 247.123 95.6548 248.483 96.3642C249.843 97.0343 250.892 97.9802 251.631 99.2021C252.408 100.424 252.933 101.862 253.205 103.518C253.477 105.173 253.613 106.967 253.613 108.898V124.742H244.869V110.671C244.869 109.844 244.83 108.996 244.752 108.129C244.713 107.223 244.538 106.395 244.227 105.646C243.955 104.897 243.508 104.286 242.886 103.813C242.303 103.34 241.449 103.104 240.321 103.104C239.194 103.104 238.281 103.321 237.581 103.754C236.882 104.148 236.338 104.7 235.949 105.41C235.599 106.08 235.366 106.848 235.249 107.715C235.133 108.582 235.074 109.489 235.074 110.435V124.742H226.33V96.0095Z" fill="#2B353B"/>
<path d="M259.456 80.047H268.201V99.0838H268.317C269.328 97.7043 270.61 96.7387 272.165 96.1869C273.758 95.5957 275.468 95.3001 277.295 95.3001C279.316 95.3001 281.123 95.7336 282.716 96.6007C284.31 97.4284 285.651 98.5517 286.739 99.9706C287.866 101.39 288.721 103.025 289.304 104.878C289.926 106.691 290.237 108.602 290.237 110.612C290.237 112.78 289.906 114.77 289.246 116.583C288.585 118.396 287.633 119.973 286.389 121.313C285.185 122.614 283.727 123.639 282.017 124.387C280.307 125.097 278.403 125.452 276.304 125.452C275.294 125.452 274.341 125.314 273.447 125.038C272.553 124.762 271.718 124.407 270.941 123.974C270.202 123.54 269.541 123.067 268.958 122.555C268.414 122.003 267.968 121.471 267.618 120.958H267.501V124.742H259.456V80.047ZM267.501 110.376C267.501 112.544 268.104 114.297 269.308 115.638C270.552 116.978 272.281 117.648 274.497 117.648C276.712 117.648 278.422 116.978 279.627 115.638C280.87 114.297 281.492 112.544 281.492 110.376C281.492 108.208 280.87 106.454 279.627 105.114C278.422 103.774 276.712 103.104 274.497 103.104C272.281 103.104 270.552 103.774 269.308 105.114C268.104 106.454 267.501 108.208 267.501 110.376Z" fill="#2B353B"/>
<path d="M293.145 110.376C293.145 108.09 293.553 106.021 294.368 104.168C295.185 102.316 296.292 100.739 297.691 99.4385C299.129 98.0985 300.801 97.0737 302.705 96.3642C304.648 95.6548 306.708 95.3001 308.884 95.3001C311.061 95.3001 313.101 95.6548 315.006 96.3642C316.949 97.0737 318.62 98.0985 320.019 99.4385C321.457 100.739 322.584 102.316 323.4 104.168C324.217 106.021 324.625 108.09 324.625 110.376C324.625 112.662 324.217 114.731 323.4 116.583C322.584 118.436 321.457 120.032 320.019 121.372C318.62 122.673 316.949 123.678 315.006 124.387C313.101 125.097 311.061 125.452 308.884 125.452C306.708 125.452 304.648 125.097 302.705 124.387C300.801 123.678 299.129 122.673 297.691 121.372C296.292 120.032 295.185 118.436 294.368 116.583C293.553 114.731 293.145 112.662 293.145 110.376ZM301.889 110.376C301.889 112.544 302.491 114.297 303.696 115.638C304.94 116.978 306.669 117.648 308.884 117.648C311.1 117.648 312.81 116.978 314.015 115.638C315.259 114.297 315.88 112.544 315.88 110.376C315.88 108.208 315.259 106.454 314.015 105.114C312.81 103.774 311.1 103.104 308.884 103.104C306.669 103.104 304.94 103.774 303.696 105.114C302.491 106.454 301.889 108.208 301.889 110.376Z" fill="#2B353B"/>
<path d="M346.391 121.136H346.274C345.302 122.673 344 123.776 342.368 124.447C340.775 125.117 339.084 125.452 337.296 125.452C335.975 125.452 334.692 125.254 333.449 124.86C332.244 124.506 331.175 123.954 330.242 123.205C329.309 122.456 328.571 121.53 328.027 120.426C327.483 119.323 327.211 118.042 327.211 116.583C327.211 114.928 327.502 113.529 328.086 112.386C328.707 111.243 329.523 110.297 330.534 109.548C331.583 108.799 332.768 108.228 334.09 107.834C335.412 107.4 336.771 107.085 338.171 106.888C339.608 106.691 341.027 106.572 342.427 106.533C343.864 106.494 345.186 106.474 346.391 106.474C346.391 104.897 345.827 103.656 344.7 102.749C343.612 101.803 342.31 101.33 340.794 101.33C339.356 101.33 338.035 101.646 336.83 102.276C335.664 102.868 334.615 103.695 333.682 104.759L329.018 99.9115C330.65 98.3743 332.555 97.2313 334.731 96.4825C336.907 95.6942 339.162 95.3001 341.494 95.3001C344.059 95.3001 346.158 95.6351 347.79 96.3051C349.461 96.9358 350.782 97.8817 351.754 99.1429C352.765 100.404 353.464 101.961 353.852 103.813C354.241 105.627 354.435 107.735 354.435 110.139V124.742H346.391V121.136ZM344.234 112.149C343.573 112.149 342.738 112.189 341.727 112.268C340.755 112.307 339.803 112.465 338.87 112.741C337.976 113.017 337.199 113.43 336.538 113.982C335.916 114.534 335.606 115.303 335.606 116.288C335.606 117.352 336.052 118.14 336.946 118.653C337.84 119.165 338.773 119.421 339.744 119.421C340.6 119.421 341.416 119.303 342.193 119.067C343.009 118.83 343.728 118.495 344.35 118.061C344.972 117.628 345.458 117.076 345.808 116.406C346.197 115.736 346.391 114.948 346.391 114.041V112.149H344.234Z" fill="#2B353B"/>
<path d="M358.756 96.0095H367.501V100.621H367.617C368.55 98.8473 369.657 97.5269 370.94 96.6599C372.223 95.7533 373.835 95.3001 375.779 95.3001C376.284 95.3001 376.789 95.3198 377.294 95.3592C377.8 95.3986 378.266 95.4775 378.694 95.5957V103.695C378.072 103.498 377.45 103.36 376.828 103.281C376.245 103.163 375.624 103.104 374.963 103.104C373.291 103.104 371.97 103.34 370.998 103.813C370.027 104.286 369.269 104.956 368.725 105.824C368.22 106.651 367.889 107.656 367.734 108.839C367.578 110.021 367.501 111.322 367.501 112.741V124.742H358.756V96.0095Z" fill="#2B353B"/>
<path d="M410.036 124.742H401.992V120.958H401.875C401.525 121.471 401.059 122.003 400.476 122.555C399.932 123.067 399.271 123.54 398.494 123.974C397.756 124.407 396.92 124.762 395.987 125.038C395.093 125.314 394.161 125.452 393.189 125.452C391.09 125.452 389.186 125.097 387.476 124.387C385.766 123.639 384.288 122.614 383.045 121.313C381.84 119.973 380.907 118.396 380.247 116.583C379.586 114.77 379.256 112.78 379.256 110.612C379.256 108.602 379.547 106.691 380.13 104.878C380.752 103.025 381.607 101.39 382.695 99.9706C383.823 98.5517 385.183 97.4284 386.776 96.6007C388.369 95.7336 390.177 95.3001 392.198 95.3001C394.024 95.3001 395.715 95.5957 397.27 96.1869C398.863 96.7387 400.165 97.7043 401.176 99.0838H401.292V80.047H410.036V124.742ZM401.992 110.376C401.992 108.208 401.37 106.454 400.126 105.114C398.921 103.774 397.211 103.104 394.996 103.104C392.781 103.104 391.051 103.774 389.808 105.114C388.603 106.454 388 108.208 388 110.376C388 112.544 388.603 114.297 389.808 115.638C391.051 116.978 392.781 117.648 394.996 117.648C397.211 117.648 398.921 116.978 400.126 115.638C401.37 114.297 401.992 112.544 401.992 110.376Z" fill="#2B353B"/>
</svg>
