<?xml version="1.0" encoding="utf-8"?>
<!-- Generator: Adobe Illustrator 28.2.0, SVG Export Plug-In . SVG Version: 6.00 Build 0)  -->
<svg version="1.1" id="Layer_1" xmlns="http://www.w3.org/2000/svg" xmlns:xlink="http://www.w3.org/1999/xlink" x="0px" y="0px"
	 viewBox="0 0 450 220" style="enable-background:new 0 0 450 220;" xml:space="preserve">
<style type="text/css">
	.st0{fill:#0F0D0E;}
</style>
<g>
	<path class="st0" d="M138.9,104.5h-23.5c-0.6,0-1.1,0.5-1.1,1.1v11.5c0,0.6,0.5,1.1,1.1,1.1h9.2v14.3c0,0-2.1,0.7-7.8,0.7
		c-6.7,0-16.1-2.5-16.1-23.1c0-20.7,9.8-23.4,19-23.4c8,0,11.4,1.4,13.6,2.1c0.7,0.2,1.3-0.5,1.3-1.1l2.6-11.1
		c0-0.3-0.1-0.6-0.4-0.9c-0.9-0.6-6.3-3.7-19.9-3.7c-15.7,0-31.8,6.7-31.8,38.8c0,32.2,18.5,36.9,34,36.9c12.9,0,20.7-5.5,20.7-5.5
		c0.3-0.2,0.4-0.6,0.4-0.8v-35.9C140,105,139.5,104.5,138.9,104.5z"/>
	<path class="st0" d="M260.2,76c0-0.6-0.5-1.1-1.1-1.1h-13.3c-0.6,0-1.1,0.5-1.1,1.1c0,0,0,25.6,0,25.6h-20.7V76
		c0-0.6-0.5-1.1-1.1-1.1h-13.3c-0.6,0-1.1,0.5-1.1,1.1v69.4c0,0.6,0.5,1.1,1.1,1.1H223c0.6,0,1.1-0.5,1.1-1.1v-29.7h20.7
		c0,0,0,29.7,0,29.7c0,0.6,0.5,1.1,1.1,1.1h13.3c0.6,0,1.1-0.5,1.1-1.1V76z"/>
	<g>
		<g>
			<path class="st0" d="M163.9,85.1c0-4.8-3.8-8.6-8.6-8.6c-4.7,0-8.5,3.9-8.5,8.6c0,4.8,3.8,8.6,8.5,8.6
				C160.1,93.7,163.9,89.8,163.9,85.1z"/>
			<path class="st0" d="M162.9,130.7c0-1.8,0-32,0-32c0-0.6-0.5-1.1-1.1-1.1h-13.2c-0.6,0-1.1,0.6-1.1,1.2c0,0,0,38.5,0,45.9
				c0,1.3,0.8,1.7,1.9,1.7c0,0,5.6,0,11.9,0c1.3,0,1.6-0.6,1.6-1.8C162.9,142.2,162.9,132.6,162.9,130.7z"/>
		</g>
	</g>
	<path class="st0" d="M310.6,97.7h-13.2c-0.6,0-1.1,0.5-1.1,1.1v34c0,0-3.3,2.4-8.1,2.4c-4.7,0-6-2.2-6-6.8c0-4.7,0-29.7,0-29.7
		c0-0.6-0.5-1.1-1.1-1.1h-13.4c-0.6,0-1.1,0.5-1.1,1.1c0,0,0,18.1,0,31.9c0,13.8,7.7,17.2,18.3,17.2c8.7,0,15.7-4.8,15.7-4.8
		s0.3,2.5,0.5,2.8c0.2,0.3,0.5,0.6,1,0.6l8.5,0c0.6,0,1.1-0.5,1.1-1.1l0-46.6C311.7,98.2,311.2,97.7,310.6,97.7z"/>
	<path class="st0" d="M346.6,96.1c-7.5,0-12.6,3.3-12.6,3.3V76c0-0.6-0.5-1.1-1.1-1.1h-13.3c-0.6,0-1.1,0.5-1.1,1.1v69.4
		c0,0.6,0.5,1.1,1.1,1.1c0,0,9.2,0,9.2,0c0.4,0,0.7-0.2,1-0.6c0.2-0.4,0.6-3.2,0.6-3.2s5.4,5.2,15.7,5.2c12.1,0,19-6.1,19-27.5
		C365.1,98.9,354,96.1,346.6,96.1z M341.4,135.2c-4.6-0.1-7.7-2.2-7.7-2.2v-22c0,0,3.1-1.9,6.8-2.2c4.7-0.4,9.3,1,9.3,12.3
		C349.8,133.1,347.8,135.4,341.4,135.2z"/>
	<path class="st0" d="M201,97.6h-9.9c0,0,0-13.1,0-13.1c0-0.5-0.3-0.7-0.8-0.7h-13.6c-0.5,0-0.8,0.2-0.8,0.7V98c0,0-6.8,1.6-7.3,1.8
		c-0.5,0.1-0.8,0.6-0.8,1.1v8.5c0,0.6,0.5,1.1,1.1,1.1h6.9c0,0,0,8.9,0,20.5c0,15.2,10.7,16.7,17.9,16.7c3.3,0,7.2-1.1,7.9-1.3
		c0.4-0.1,0.6-0.6,0.6-1l0-9.4c0-0.6-0.5-1.1-1.1-1.1c-0.6,0-2.1,0.2-3.6,0.2c-4.9,0-6.5-2.3-6.5-5.2c0-2.9,0-19.5,0-19.5h9.9
		c0.6,0,1.1-0.5,1.1-1.1V98.7C202.1,98.1,201.6,97.6,201,97.6z"/>
</g>
</svg>
