<svg width="450" height="220" viewBox="0 0 450 220" fill="none" xmlns="http://www.w3.org/2000/svg">
<path d="M209.036 111.914C209.036 122.406 200.828 130.138 190.755 130.138C180.682 130.138 172.475 122.406 172.475 111.914C172.475 101.348 180.682 93.691 190.755 93.691C200.828 93.691 209.036 101.348 209.036 111.914ZM201.034 111.914C201.034 105.358 196.277 100.872 190.755 100.872C185.234 100.872 180.477 105.358 180.477 111.914C180.477 118.405 185.234 122.957 190.755 122.957C196.277 122.957 201.034 118.397 201.034 111.914Z" fill="#EA4335"/>
<path d="M248.474 111.914C248.474 122.406 240.266 130.138 230.193 130.138C220.12 130.138 211.912 122.406 211.912 111.914C211.912 101.357 220.12 93.691 230.193 93.691C240.266 93.691 248.474 101.348 248.474 111.914ZM240.471 111.914C240.471 105.358 235.714 100.872 230.193 100.872C224.672 100.872 219.915 105.358 219.915 111.914C219.915 118.405 224.672 122.957 230.193 122.957C235.714 122.957 240.471 118.397 240.471 111.914Z" fill="#FBBC05"/>
<path d="M286.268 94.792V127.508C286.268 140.966 278.331 146.463 268.948 146.463C260.116 146.463 254.8 140.556 252.795 135.725L259.763 132.824C261.003 135.79 264.043 139.29 268.94 139.29C274.946 139.29 278.668 135.585 278.668 128.609V125.988H278.389C276.597 128.199 273.147 130.129 268.792 130.129C259.681 130.129 251.333 122.193 251.333 111.98C251.333 101.694 259.681 93.691 268.792 93.691C273.138 93.691 276.589 95.6218 278.389 97.7662H278.668V94.8002H286.268V94.792ZM279.235 111.98C279.235 105.563 274.954 100.872 269.507 100.872C263.986 100.872 259.36 105.563 259.36 111.98C259.36 118.331 263.986 122.957 269.507 122.957C274.954 122.957 279.235 118.331 279.235 111.98Z" fill="#4285F4"/>
<path d="M298.796 75.6157V129.02H290.991V75.6157H298.796Z" fill="#34A853"/>
<path d="M329.213 117.912L335.424 122.053C333.419 125.019 328.588 130.129 320.241 130.129C309.889 130.129 302.157 122.127 302.157 111.906C302.157 101.069 309.954 93.6829 319.345 93.6829C328.802 93.6829 333.428 101.209 334.939 105.276L335.769 107.346L311.409 117.436C313.274 121.092 316.174 122.957 320.241 122.957C324.316 122.957 327.142 120.952 329.213 117.912ZM310.094 111.356L326.378 104.594C325.483 102.318 322.788 100.732 319.616 100.732C315.549 100.732 309.889 104.323 310.094 111.356Z" fill="#EA4335"/>
<path d="M142.929 107.174V99.4424H168.982C169.237 100.79 169.369 102.384 169.369 104.109C169.369 109.91 167.783 117.082 162.672 122.193C157.702 127.369 151.351 130.129 142.937 130.129C127.343 130.129 114.23 117.427 114.23 101.833C114.23 86.2391 127.343 73.537 142.937 73.537C151.564 73.537 157.71 76.9221 162.327 81.3341L156.872 86.7896C153.561 83.6839 149.075 81.2684 142.929 81.2684C131.542 81.2684 122.636 90.4457 122.636 101.833C122.636 113.221 131.542 122.398 142.929 122.398C150.316 122.398 154.522 119.432 157.217 116.737C159.402 114.552 160.84 111.43 161.407 107.165L142.929 107.174Z" fill="#4285F4"/>
</svg>
