<svg width="450" height="220" viewBox="0 0 450 220" fill="none" xmlns="http://www.w3.org/2000/svg">
<g clip-path="url(#clip0_1439_2)">
<path d="M285.738 130.018C278.573 130.018 272.579 127.598 267.758 122.757C262.981 117.918 260.593 111.878 260.593 104.639C260.593 97.4005 262.981 91.3839 267.758 86.5897C272.534 81.704 278.527 79.2612 285.738 79.2612C293.038 79.2612 298.964 81.9076 303.515 87.2004L299.054 91.5432C295.583 87.3361 291.144 85.2325 285.738 85.2325C280.374 85.2325 275.891 87.042 272.287 90.6611C268.727 94.2358 266.947 98.8952 266.947 104.639C266.947 110.384 268.727 115.045 272.287 118.622C275.892 122.242 280.375 124.052 285.738 124.051C291.37 124.051 296.259 121.676 300.406 116.926L304.935 121.336C302.642 124.092 299.752 126.285 296.485 127.748C293.107 129.271 289.441 130.045 285.738 130.018ZM315.221 80.3469V128.932H309.003V80.3469H315.221ZM319.716 112.307C319.716 107.196 321.315 102.967 324.515 99.6181C327.759 96.2705 331.838 94.5967 336.749 94.5967C341.661 94.5967 345.717 96.2705 348.916 99.6181C352.161 102.963 353.783 107.193 353.783 112.307C353.783 117.464 352.161 121.694 348.916 124.996C345.718 128.345 341.662 130.019 336.749 130.018C331.837 130.017 327.758 128.342 324.515 124.992C321.315 121.648 319.716 117.42 319.716 112.307ZM325.934 112.307C325.934 115.882 326.971 118.777 329.044 120.993C331.117 123.209 333.685 124.316 336.749 124.316C339.815 124.316 342.383 123.209 344.455 120.993C346.527 118.777 347.564 115.882 347.564 112.307C347.564 108.779 346.528 105.906 344.455 103.69C342.34 101.429 339.771 100.298 336.749 100.297C333.727 100.296 331.159 101.427 329.044 103.69C326.972 105.907 325.935 108.78 325.934 112.307ZM387.291 128.932H381.342V124.318H381.066C380.12 125.946 378.667 127.304 376.706 128.389C374.84 129.45 372.734 130.011 370.589 130.018C366.534 130.018 363.413 128.853 361.227 126.523C359.041 124.192 357.948 120.879 357.949 116.582V95.6824H364.168V116.178C364.303 121.606 367.029 124.321 372.347 124.321C374.824 124.321 376.897 123.314 378.565 121.3C380.234 119.287 381.067 116.878 381.066 114.074V95.6824H387.285L387.291 128.932ZM407.493 130.018C403.171 130.018 399.453 128.299 396.34 124.861C393.275 121.377 391.743 117.193 391.744 112.307C391.744 107.422 393.277 103.237 396.34 99.7538C399.449 96.3167 403.167 94.5977 407.493 94.5967C409.926 94.5967 412.146 95.117 414.152 96.1574C416.157 97.1979 417.701 98.5776 418.781 100.297H419.057L418.781 95.6824V80.3469H425V128.932H419.052V124.318H418.776C417.698 126.038 416.156 127.417 414.149 128.454C412.142 129.492 409.924 130.013 407.493 130.018ZM408.507 124.318C411.571 124.318 414.072 123.21 416.01 120.994C418.038 118.779 419.052 115.883 419.052 112.309C419.052 108.826 418.038 105.954 416.01 103.691C414.028 101.43 411.527 100.299 408.507 100.298C405.533 100.298 403.032 101.429 401.004 103.691C398.976 105.953 397.962 108.825 397.962 112.309C397.962 115.837 398.976 118.71 401.004 120.926C403.032 123.188 405.533 124.319 408.507 124.318Z" fill="#5F6368"/>
<path d="M52.9206 107.624V100.11H77.9718C78.2505 101.629 78.3863 103.172 78.3774 104.717C78.3774 110.35 76.8406 117.327 71.8938 122.29C67.085 127.322 60.9381 130.005 52.7881 130.005C37.6912 130.005 25 117.662 25 102.503C25 87.343 37.6912 75 52.7895 75C61.1422 75 67.0864 78.2876 71.5614 82.5805L66.2835 87.8789C63.0735 84.8613 58.735 82.5127 52.7895 82.5127C41.7675 82.5127 33.1499 91.4337 33.1499 102.503C33.1499 113.572 41.7675 122.5 52.7895 122.5C59.9379 122.5 64.0129 119.615 66.6174 116.999C68.7404 114.868 70.1391 111.81 70.6813 107.631L52.9206 107.624Z" fill="#4285F4"/>
<path d="M116.547 112.296C116.547 122.499 108.596 130.005 98.8459 130.005C89.0958 130.005 81.1445 122.499 81.1445 112.296C81.1445 102.033 89.0944 94.5869 98.8487 94.5869C108.603 94.5869 116.547 102.033 116.547 112.296ZM108.799 112.296C108.799 105.926 104.19 101.564 98.8459 101.564C93.5019 101.564 88.8917 105.923 88.8917 112.296C88.8917 118.601 93.5005 123.028 98.8459 123.028C104.191 123.028 108.799 118.601 108.799 112.296Z" fill="#EA4335"/>
<path d="M155.166 112.296C155.166 122.499 147.222 130.005 137.465 130.005C127.707 130.005 119.762 122.499 119.762 112.296C119.762 102.033 127.71 94.5869 137.465 94.5869C147.219 94.5869 155.166 102.033 155.166 112.296ZM147.417 112.296C147.417 105.926 142.809 101.564 137.465 101.564C132.12 101.564 127.51 105.923 127.51 112.296C127.51 118.601 132.119 123.028 137.465 123.028C142.81 123.028 147.417 118.601 147.417 112.296Z" fill="#FBBC04"/>
<path d="M192.181 95.6602V127.456C192.181 140.537 184.499 145.903 175.414 145.903C166.861 145.903 161.718 140.134 159.782 135.439L166.533 132.621C167.734 135.506 170.671 138.926 175.418 138.926C181.23 138.926 184.837 135.304 184.837 128.529V125.981H184.569C182.833 128.127 179.493 130.005 175.284 130.005C166.465 130.005 158.383 122.29 158.383 112.364C158.383 102.368 166.465 94.5869 175.284 94.5869C179.493 94.5869 182.833 96.4647 184.569 98.5447H184.837V95.6602H192.181ZM185.367 112.364C185.367 106.125 181.228 101.562 175.948 101.562C170.604 101.562 166.127 106.124 166.127 112.364C166.127 118.535 170.604 123.027 175.948 123.027C181.226 123.028 185.367 118.535 185.367 112.364Z" fill="#4285F4"/>
<path d="M205.307 77.0523V128.932H197.559V77.0523H205.307Z" fill="#34A853"/>
<path d="M235.231 118.132L241.243 122.157C239.311 125.041 234.629 130.005 226.546 130.005C216.525 130.005 209.043 122.224 209.043 112.296C209.043 101.771 216.593 94.5869 225.677 94.5869C234.829 94.5869 239.304 101.899 240.775 105.857L241.576 107.869L217.987 117.662C219.792 121.217 222.598 123.028 226.54 123.028C230.483 123.028 233.227 121.084 235.231 118.132ZM216.725 111.762L232.491 105.189C231.622 102.973 229.018 101.433 225.944 101.433C222.003 101.429 216.525 104.912 216.725 111.76V111.762Z" fill="#EA4335"/>
</g>
<defs>
<clipPath id="clip0_1439_2">
<rect width="450" height="220" fill="white"/>
</clipPath>
</defs>
</svg>
