<svg width="450" height="220" viewBox="0 0 450 220" fill="none" xmlns="http://www.w3.org/2000/svg">
<path d="M206.708 112.194C206.708 124.216 197.303 133.074 185.761 133.074C174.219 133.074 164.814 124.216 164.814 112.194C164.814 100.087 174.219 91.3127 185.761 91.3127C197.303 91.3127 206.708 100.087 206.708 112.194ZM197.538 112.194C197.538 104.681 192.088 99.5407 185.761 99.5407C179.435 99.5407 173.984 104.681 173.984 112.194C173.984 119.631 179.435 124.846 185.761 124.846C192.088 124.846 197.538 119.621 197.538 112.194Z" fill="#EA4335"/>
<path d="M251.896 112.194C251.896 124.216 242.492 133.074 230.95 133.074C219.408 133.074 210.003 124.216 210.003 112.194C210.003 100.096 219.408 91.3127 230.95 91.3127C242.492 91.3127 251.896 100.087 251.896 112.194ZM242.727 112.194C242.727 104.681 237.276 99.5407 230.95 99.5407C224.623 99.5407 219.172 104.681 219.172 112.194C219.172 119.631 224.623 124.846 230.95 124.846C237.276 124.846 242.727 119.621 242.727 112.194Z" fill="#FBBC05"/>
<path d="M295.202 92.5742V130.062C295.202 145.482 286.108 151.78 275.357 151.78C265.237 151.78 259.146 145.012 256.849 139.476L264.832 136.153C266.253 139.551 269.737 143.562 275.348 143.562C282.229 143.562 286.494 139.316 286.494 131.323V128.32H286.174C284.122 130.853 280.168 133.065 275.178 133.065C264.738 133.065 255.173 123.971 255.173 112.269C255.173 100.482 264.738 91.3127 275.178 91.3127C280.158 91.3127 284.112 93.525 286.174 95.9822H286.494V92.5836H295.202V92.5742ZM287.144 112.269C287.144 104.916 282.239 99.5407 275.997 99.5407C269.671 99.5407 264.371 104.916 264.371 112.269C264.371 119.546 269.671 124.846 275.997 124.846C282.239 124.846 287.144 119.546 287.144 112.269Z" fill="#4285F4"/>
<path d="M309.559 70.6013V131.794H300.615V70.6013H309.559Z" fill="#34A853"/>
<path d="M344.41 119.066L351.528 123.811C349.23 127.209 343.695 133.065 334.13 133.065C322.268 133.065 313.409 123.895 313.409 112.184C313.409 99.7667 322.343 91.3033 333.104 91.3033C343.94 91.3033 349.24 99.9267 350.972 104.587L351.923 106.959L324.01 118.52C326.147 122.709 329.47 124.846 334.13 124.846C338.799 124.846 342.038 122.549 344.41 119.066ZM322.503 111.553L341.162 103.805C340.136 101.198 337.048 99.3807 333.414 99.3807C328.754 99.3807 322.268 103.495 322.503 111.553Z" fill="#EA4335"/>
<path d="M130.961 106.761V97.9026H160.814C161.106 99.4466 161.256 101.273 161.256 103.25C161.256 109.896 159.439 118.115 153.584 123.971C147.888 129.902 140.611 133.065 130.971 133.065C113.102 133.065 98.0771 118.51 98.0771 100.642C98.0771 82.7739 113.102 68.2195 130.971 68.2195C140.856 68.2195 147.897 72.0982 153.188 77.1536L146.937 83.4047C143.143 79.8461 138.003 77.0783 130.961 77.0783C117.913 77.0783 107.708 87.594 107.708 100.642C107.708 113.69 117.913 124.206 130.961 124.206C139.425 124.206 144.245 120.808 147.333 117.72C149.837 115.215 151.484 111.638 152.134 106.752L130.961 106.761Z" fill="#4285F4"/>
</svg>
