<?xml version="1.0" encoding="utf-8"?>
<!-- Generator: Adobe Illustrator 28.0.0, SVG Export Plug-In . SVG Version: 6.00 Build 0)  -->
<svg version="1.1" id="Layer_1" xmlns="http://www.w3.org/2000/svg" xmlns:xlink="http://www.w3.org/1999/xlink" x="0px" y="0px"
	 viewBox="0 0 450 220" style="enable-background:new 0 0 450 220;" xml:space="preserve">
<g transform="translate(0.000000,500.000000) scale(0.100000,-0.100000)">
	<path d="M2220.6,4414.6c-77.8-6.2-131.5-20.5-198.1-53.1c-52.9-25.7-89.6-51.5-129.7-91.1c-37.1-36.5-48.1-49.6-73-86.9
		c-13.9-20.7-37.1-63.7-46.5-86.7c-33.2-79.9-45.4-172.2-35.1-263.7c4.6-39.8,19.1-94.8,35.1-133.4c15.1-36.9,42.5-84.2,67.4-116.8
		c28.4-37.1,76.8-83.4,113.3-108.5c28.8-19.7,32.6-21.8,66.4-38.8c39.2-19.5,65.6-29.3,109.5-40.5c36.7-9.1,59.1-11.4,118.7-11.4
		c62.5,0,81.5,1.7,118.3,10.6c55,13.3,85.1,25.1,143.2,56.4c32.4,17.4,74.3,50.2,108.5,85.3c82,83.4,134.7,197.3,144.6,311.8
		c8.9,104.2-9.3,199.8-55,288.2c-7.3,13.9-14.7,28-17,31.1c-2.3,3.3-7.7,11.6-12.2,18.5c-21.4,33-47.3,63.3-78.6,92.5
		c-65.8,61.4-144,102.9-233.4,123.9c-31.7,7.7-35.1,8.1-79.5,11.8C2248.6,4417.1,2250.7,4417.1,2220.6,4414.6z M2317.1,4397.4
		c3.9-0.6,11.2-1.7,16-2.3c21.8-3.1,75.9-18.7,103.9-29.9c13.9-5.6,52.1-24.3,65.8-32.4c15.4-8.9,48.3-31.5,60.2-41.3
		c16.4-13.3,62.5-58.9,76.6-75.9c36.1-43.6,68.3-100.4,86.7-153.5c5.6-16.6,11.6-36.5,13.1-43.6c0.4-1.7,1.7-7.3,3.1-12.4
		c7.1-25.9,9.3-52.3,9.3-107.9c0-55.6-2.9-88.2-9.5-109.1c-1-3.5-2.3-8.3-2.7-10.4c-3.3-16.8-16.8-56.2-27-78.6
		c-29.9-66.6-60-109.3-112.7-160.8c-30.7-30.1-39.6-37.6-68.1-57.3c-23-16-32.2-21.2-62.2-35.9c-31.5-15.4-40.5-19.1-53.9-23
		c-6.8-2.1-14.7-4.8-17.6-5.8c-9.8-4.4-55.6-14.9-74.1-17c-10-1.2-38.8-2.9-63.9-3.5c-53.5-1.5-83.6,1.7-128,12.9
		c-38,9.5-59.5,17.2-91.5,32.6c-60.6,28.8-94.8,53.3-143.8,102.1c-46.1,46.1-71.8,81.5-97.9,134.9c-22.8,46.7-39.6,100-46.9,148.6
		c-3.3,23.9-3.1,124.1,0.6,146.3c11.4,68.9,39.8,141.1,78.4,199.4c17,25.7,17.4,26.3,36.1,48.3c14.9,17.6,60,61,75.7,73.2
		c30.5,23.2,54.2,38,88.6,55c41.7,20.7,74.3,31.5,135.3,45.2c2.3,0.6,14.5,1.7,27,2.3c12.7,0.8,23.2,1.7,23.7,2.1
		C2218.3,4400.5,2308.2,4398.6,2317.1,4397.4z"/>
	<path d="M2248.2,4355.9c-3.3-1.7-6.2-2.3-6.8-1c-2.3,3.5-13.3,2.1-15.6-2.1c-1-2.3-2.1-16.4-2.1-31.3c0-28.4,1.7-35.3,8.3-35.3
		c10,0,10.4,1.2,10.4,25.7c0,12.7,0.8,24.1,1.7,25.3c2.3,3.5,7.3,4.6,11.4,2.5c3.1-1.5,3.5-5,3.5-25.1c0-24.7,1.2-28.4,9.3-28.4
		c8.1,0,9.3,3.9,9.3,27c0,23.9-2.3,34.9-7.9,40C2264.2,4358.2,2254.6,4359.4,2248.2,4355.9z"/>
	<path d="M2172.5,4350.3c-3.5-1-9.1-5-12-8.5c-5.4-6.2-5.6-7.7-4.6-20.3c1.7-17.6,4.4-26.6,10.6-34.2c4.6-5.8,6-6.2,18.7-6.2
		c12.7,0,14.1,0.6,20.3,6.8l6.8,6.6l-4.8,4.6c-4.6,4.6-4.8,4.8-11,1.2c-8.5-5-15.8-4.8-18.5,0.4c-3.3,6-1.5,7.5,10.4,9.1
		c5.8,0.8,12.9,2.3,16,3.5c5,1.9,5.2,2.5,3.7,11.4c-1.9,13.5-4.8,18.9-12.4,23.7C2188.5,4352.8,2183.1,4353.4,2172.5,4350.3z"/>
	<path d="M2305.9,4348.6c-8.3-5.4-9.5-8.3-12.4-26.8c-2.9-19.1-1.5-28,5.8-35.5c4.8-4.8,7.3-5.4,19.1-5.4c12,0,13.9,0.6,17.6,5.2
		c8.7,11.4,13.5,43.8,7.9,54.4c-2.7,5-17.4,12-25.7,12C2314.8,4352.6,2309.2,4350.7,2305.9,4348.6z M2327.5,4332.8
		c2.7-3.3,1.7-17-2.3-29.5c-1.9-5.8-3.3-6.8-8.3-6.8c-3.5,0-6.6,1.2-7.3,3.1c-2.1,5,2.7,32.6,5.8,34.4
		C2319.6,4336.8,2324.6,4336.4,2327.5,4332.8z"/>
	<path d="M2118.5,4336c-2.7-1-4.8-2.7-4.8-3.7c0-1,3.3-11.2,7.3-22.6c7.7-22,7.7-26.6,0.4-28.8c-5.8-1.9-8.1,1.9-15.1,23.7
		c-3.1,10-6.6,19.3-7.7,20.7c-2.5,3.3-7.9,3.1-12.7-0.2c-3.7-2.7-3.5-3.5,1.9-21.4c6.2-20.5,12.4-33.8,17.4-37.6
		c4.8-3.7,17.2-3.3,23,0.8c2.9,2.1,7.9,3.7,11.2,3.9c11.8,0.6,12.2,3.9,4.4,27.8C2129.3,4341.6,2130.2,4340.5,2118.5,4336z"/>
	<path d="M2376,4333.9c-5-2.1-11.2-13.9-11.2-21.4c0-5.2,7.7-14.3,19.9-23.4c3.3-2.5,5-5.2,4.1-6.6c-2.5-4.1-11-2.7-17.8,3.1
		c-5.4,4.4-7.5,5.2-12,3.5c-7.1-2.5-7.7-5.2-2.3-12c5.6-7.3,20.3-13.7,30.9-13.7c6.2,0,9.1,1.2,13.1,6.2c11,12.9,8.5,26.6-6.2,35.5
		c-4.4,2.7-8.5,5.8-9.3,6.8c-5.6,8.1,4.8,10.2,13.7,3.1c4.8-3.7,6.6-4.1,10.8-2.1C2427.3,4321,2394.7,4341.6,2376,4333.9z"/>
	<path d="M2032.8,4320.8c-10.2-3.9-24.9-13.5-24.9-16.4c0-4.4,34.6-70.3,38-72.6c3.3-2.1,29.7,12.2,35.9,19.5
		c4.8,5.8,5.4,8.1,4.4,17c-0.6,8.3-2.3,11.4-7.5,16.2c-3.5,3.1-7.7,5.8-9.1,5.8c-1.9,0-2.5,2.1-1.9,6c0.8,6.4-3.1,15.8-9.5,21.6
		C2052.8,4322.9,2041.8,4324.1,2032.8,4320.8z"/>
	<path d="M2469.6,4275.6c-33.8-29.3-35.1-30.5-31.7-34.4c5.8-7.1,9.8-7.3,18.1-0.8c5.6,4.6,8.5,5.6,10.2,3.9c1-1,4.4-3.3,7.1-4.6
		c5-2.5,5.6-6.2,3.1-16.2c-1.2-4.4-0.4-6.6,3.1-10c9.5-8.7,10.2-7.5,29.9,60l5.8,19.3l-5.2,3.9c-2.7,2.1-6.4,3.9-8.1,3.9
		S2485.6,4289.5,2469.6,4275.6z"/>
	<path d="M2228.9,4270.4c-13.1-3.1-25.5-10.2-44-24.9c-7.9-6.4-15.1-9.8-27.8-13.3c-63.3-17-121.8-53.3-166.4-103.1
		c-17.2-19.5-22.4-26.6-38.4-53.5c-12-20.3-33.6-67.8-33.6-74.1c0-1.7-2.7-13.7-6-26.8c-5-19.1-6.4-29.3-7.1-53.7
		c-2.5-77.4,6.2-120.5,37.3-183.6l9.1-18.5l-3.5-14.7c-2.1-7.9-4.4-15.4-5.2-16.6c-3.9-5.8-6.4-25.9-5.4-42.5
		c1-15.1,2.5-20.7,9.3-35.7c10-21.4,21.4-34.4,39.6-45.2c25.3-15.1,14.5-14.5,265.8-14.5c246.1,0,234.2-0.6,258.7,12.4
		c18.1,9.5,32.2,25.1,42.5,47.1c8.7,18.3,8.7,18.3,8.9,43.2c0,18.9-0.8,26.8-3.3,32.2c-1.9,3.9-5,13.3-6.8,20.7l-3.5,13.5l10.6,21.4
		c13.7,27.8,17.8,38.6,24.9,63.7c11.2,41.1,11.4,42.9,11.2,95.4v49.8l-8.1,31.1c-7.9,30.5-13.7,46.9-28.6,77.8
		c-7.1,14.5-11,21-31.1,50.4c-10.4,15.4-50.4,55.2-66.2,66.4c-39.4,27.4-78.2,46.7-113.7,56.2c-7.7,2.1-16.8,7.3-28,15.8
		c-24.1,18.1-38.2,23.2-65.4,24.1C2242.8,4271.2,2231.2,4271,2228.9,4270.4z M2273.5,4254.8c3.9-0.8,13.5-5.2,21.2-9.1
		c15.8-8.5,29.7-22.6,46.5-47.5c6.2-9.3,17.6-26.1,25.7-37.6c7.9-11.4,19.7-28.6,26.6-38.4c6.6-9.8,16.4-23.9,21.8-31.5
		c5.4-7.7,9.8-14.9,9.8-16.2c0-2.1-8.3-1-14.5,2.1c-6.4,3.3-35.3,12.4-52.1,16.4c-79,19.1-171.6,15.1-249.6-10.4
		c-13.5-4.4-25.9-8.1-27.6-8.1c-1.9,0,0.6,5,6.6,13.1c5.2,7.1,17.4,24.5,27,38.8c9.8,14.3,26.1,38.6,36.5,53.9
		c30.9,45.6,60,71.6,86.5,77C2246.1,4259,2261.9,4257.9,2273.5,4254.8z M2152.1,4215.6c0.6-1.2-1.5-6-4.8-11
		c-5.2-7.3-12.9-18.9-29.3-43.6c-1.7-2.5-7.3-11-12.4-19.1c-5.2-7.9-10.8-15.8-12-17.6c-1.5-1.7-7.5-9.8-13.5-17.8
		c-6-8.3-17.8-23.9-26.1-34.6c-9.1-11.8-18.1-26.6-22.6-36.9c-6.6-15.4-7.3-18.5-6.4-30.9c1.2-17.2,9.1-32.8,22.2-43.4
		c22-17.8,22.2-18.1,18.9-22c-1.7-2.1-6.4-5.8-10.6-8.5c-6.8-4.1-23.9-20.7-37.1-35.5c-14.7-16.8-27.6-44.8-40.5-87.8
		c-4.1-14.3-8.9-29.3-10.4-33.2c-1.7-3.9-4.4-12.2-6.2-18.1c-3.7-11.8-7.3-13.9-11-6.2c-8.7,17.6-15.6,35.1-22.4,57.5l-8.1,25.9
		l-0.6,58.1c-0.8,62.7-0.2,69.1,10.4,103.7c8.1,26.6,25.7,64.9,36.3,79c2.7,3.5,4.8,7.1,4.8,7.9c0,7.3,56.6,69.1,74.3,81.3
		c4.1,2.9,12.9,8.9,19.1,13.5c13.3,9.5,41.9,24.5,65.4,34.2C2147.4,4218.1,2150.3,4218.7,2152.1,4215.6z M2378.5,4208.4
		c18.9-8.5,45.2-22.2,48.1-25.3c1.5-1.5,3.5-2.7,4.6-2.7c4.8,0,38.4-28,59.3-49.2c39.8-40.7,65.1-83.6,83-141.7l8.1-25.9v-65.4
		v-65.4l-8.1-25.9c-4.4-14.3-10.6-31.7-13.9-38.8c-3.3-7.1-6-13.7-6-14.7c0-1-2.1-3.7-4.8-6.2l-4.8-4.4l-7.5,23.2
		c-4.1,12.9-12,36.9-17.2,53.7c-11.8,37.8-21.8,58.7-34.9,73.2c-1.9,2.3-6.8,8.1-11,12.9c-4.1,5-14.5,14.1-22.8,20.5
		c-8.5,6.2-15.4,12.7-15.4,14.1c0,1.7,6,8.1,13.7,14.7c17.4,15.4,25.9,31.3,27.4,51.5c1.2,17.4-2.3,27.6-17.6,50.2
		c-6,9.1-16.2,24.1-22.4,33.2c-6,9.1-13.5,19.5-16.4,23c-2.9,3.7-5.4,7.5-5.4,8.7c0,1-1.5,3.1-3.1,4.6c-1.7,1.5-9.3,12-17,23.7
		c-7.7,11.4-20.3,30.1-28,41.1c-7.9,11.2-14.1,21.4-14.1,22.6C2352.4,4217.3,2364.2,4214.8,2378.5,4208.4z M2393.4,4065
		c16.4-5.6,34.6-13.3,49-20.5c11.4-5.8,16-15.4,16-34c0.2-21.8-8.3-34-41.7-60.2c-7.5-5.8-15.8-12.4-18.7-14.9
		c-2.9-2.3-13.5-10.8-23.9-18.7c-10.2-8.1-21.4-16.8-24.9-19.5c-3.3-2.9-9.5-7.7-13.5-11c-3.9-3.3-17.8-13.9-30.5-23.9l-23.4-18.1
		h-29h-29.3l-13.9,10.8c-7.7,6-23.4,18.5-35.3,27.6c-11.8,9.1-24.5,18.9-28.2,21.8c-3.9,2.9-12.4,9.5-19.1,14.7
		c-6.8,5.2-16.8,12.9-22.6,17.2c-31.7,24.3-49.6,39.6-55.8,48.8c-7.5,10.8-9.1,23.4-4.6,37.1c4.6,13.9,10.4,20.7,20.7,25.3
		c4.8,1.9,12.7,5.6,17.8,7.9c14.3,6.4,36.9,13.3,39.4,11.8c1.2-0.8,2.1-13.3,2.1-31.7c0.2-42.5,2.1-54.2,12-75.1
		c17.8-37.1,54.8-64.1,93.6-68.7c28.6-3.5,47.7-1,70.7,9.1c17,7.5,21.8,11,36.3,25.3c9.1,9.1,18.3,19.9,20.1,23.9
		c16.2,33.8,16.2,34,16.2,54.2c0,23.4,2.3,66.2,3.5,66.2C2377.3,4070.4,2384.7,4067.9,2393.4,4065z M2093.6,3922.7
		c3.7-2.5,13.1-9.8,21-16.2c7.7-6.2,16.8-13.3,19.9-15.6c3.1-2.3,17.2-13.1,31.3-23.9l25.5-19.7l-47.5-1
		c-53.3-1.2-59.8-2.7-72.8-16.8c-13.1-14.1-13.3-16.4-13.3-130.9c0-97.5,0.2-103.9,4.1-113.9c2.1-6,6-13.1,8.7-15.8l4.8-5.2
		l-29.3,0.8c-28.2,0.6-29.5,0.8-42.7,7.5c-23.2,12-38.2,28.6-46.5,51.9c-8.5,23.9-7.3,36.3,8.5,89c7.5,24.9,14.3,47.1,15.4,49.4
		s6.6,20.1,12.7,39.4c15.6,50,24.9,67.6,49.6,92.9c17.2,17.6,36.5,32.4,42.3,32.6C2086.4,3927.2,2090.1,3925.2,2093.6,3922.7z
		 M2431,3919.8c13.3-8.9,40-35.7,47.5-47.5c13.7-21.4,18.1-33.6,48.3-130.7c4.6-14.7,9.3-29.3,10.4-32.2c1-2.9,4.1-13.3,7.1-23.4
		c14.1-49.4-1.7-89.2-44.6-113.3c-13.5-7.5-13.5-7.5-42.9-8.1c-16.4-0.4-29.7-0.2-29.7,0.4c0,0.6,3.1,5.4,6.8,10.8l6.6,9.5v113.3
		c0,103.9-0.2,114.1-3.5,119.7c-6.6,11.4-12.9,17.4-23.4,22.2c-9.5,4.4-13.7,4.8-53.3,5.4c-23.9,0.4-43.2,1.5-43.2,2.3
		c0,1.5,11.6,11,36.1,29.3c3.9,2.9,16.2,12.7,27.4,21.8c19.7,16,35.9,27.8,38.2,28C2419.4,3927.2,2425,3923.9,2431,3919.8z
		 M2405.5,3827c3.5-1.5,9.5-6.2,13.5-10.6l7.1-8.1l0.6-103.3c0.4-69.5-0.2-106.2-1.7-111.8c-2.3-8.7-7.3-14.5-17.6-21
		c-6-3.7-13.1-3.9-157.3-3.9c-165.2,0-156-0.6-168.5,12.4l-6.2,6.4l-1.9,57.1c-1,32.4-1,80.5,0,111.6l1.9,55l6.2,6.6
		c11.8,12.7,5,12,168.1,12C2358.8,3829.5,2400.7,3828.7,2405.5,3827z"/>
	<path d="M1957.9,4249.6c-4.4-4.6-4.8-6.8-4.4-19.1l0.4-13.9l-16,17.2c-8.9,9.3-17.2,17-18.5,17s-4.4-2.3-6.8-5l-4.8-5l15.4-17
		c8.3-9.3,21.4-24.1,29-32.8c16.8-19.1,18.7-20.3,25.5-15.8c6.4,4.4,6.6,7.1,0,13.3c-5,4.6-7.5,16.6-3.5,16.6c1,0,7.3-1.9,14.1-4.1
		c11.8-4.1,12.2-4.1,17.4-0.4c7.7,5.8,6.4,8.9-5.2,13.5c-31.3,12-28.8,10.2-30.5,23.7C1967.7,4257.3,1966.2,4258.6,1957.9,4249.6z"
		/>
	<path d="M2537.4,4251.5c-1.5-0.6-3.5-2.9-4.8-5.2c-1.9-3.3-1.2-5.2,2.9-9.8l5.2-5.4l-11.6-13.1c-6.4-7.1-12.9-12.9-14.1-12.9
		s-4.4,2.3-7.1,5.2c-6.2,6.6-11.8,6.6-14.9,0c-2.3-5-1.7-6,7.9-14.7c31.3-29,35.1-31.1,40.3-21.6c2.1,3.9,1.5,5.4-4.6,11l-7.1,6.6
		l16.2,18.7c8.9,10.2,16,19.9,15.8,21.6C2560.7,4236.2,2540.5,4252.5,2537.4,4251.5z"/>
	<path d="M2583.1,4200.7c-3.3-3.3-3.1-7.9,0.8-12.2c2.9-3.1,2.3-4.1-8.9-12.7c-17.4-13.3-17-13.1-22.6-7.7c-4.8,4.6-5,4.6-9.1,0.8
		c-2.3-2.1-4.1-4.8-4.1-6c0-5,27.6-38.6,31.5-38.6c0.8,0,3.5,1.9,5.8,4.1l4.4,4.4l-5.4,6.8c-2.9,3.7-5.2,7.5-5.2,8.3
		c0,2.1,14.1,14.1,20.3,17.4c4.1,2.3,6,2.5,10,0.2c2.7-1.5,5.4-4.1,6-6.2c0.6-1.9,2.7-4.1,4.6-4.8c3.9-1.7,11,4.1,11,9.1
		c0,3.9-8.9,14.5-12.4,14.5c-1,0-2.1,1.5-2.1,3.3c0,4.8-14.3,21.6-18.5,21.6C2587.2,4203.2,2584.5,4202.1,2583.1,4200.7z"/>
	<path d="M1903.2,4195.1c-7.3-4.4-12.7-11.6-14.7-19.9c-3.9-15.6,23.7-42.5,43.6-42.5c12.7,0,27.6,16.8,25.7,29.5
		c-1.2,8.7-16.2,6.6-16.2-2.5c0-5.6-7.3-11-12.9-9.3c-5,1.7-20.1,14.1-23,19.1c-2.3,3.7,3.1,12.2,8.7,14.1c4.1,1.2,6.8,7.9,5,12.7
		C1917.9,4200.1,1910.6,4199.6,1903.2,4195.1z"/>
	<path d="M1860.8,4137.6c-2.3-3.1-3.7-6.2-3.3-7.3c0.6-0.8-0.6-2.7-2.7-3.7c-5.6-2.9-11.2-15.6-9.8-21.6
		c1.9-7.5,12.7-16.8,28.6-25.1c20.3-10.8,28.2-9.8,36.7,3.9c2.5,4.1,4.1,9.1,3.5,11.2c-0.6,2.7,1,5.4,5,8.3c3.5,2.7,6,6.4,6,9.1
		c0,5.4-6.6,10.2-11.4,8.5c-1.7-0.8-11.8,3.7-23.7,10.4c-11.2,6.4-21.6,11.6-22.6,11.6C1866,4143,1863.1,4140.5,1860.8,4137.6z"/>
	<path d="M2610.7,4131.6c-18.9-9.8-25.9-17.8-25.9-29.3c0-14.1,16.6-33.6,24.5-28.6c5.8,3.7,5.4,10.2-1.5,17
		c-7.1,6.8-8.1,13.1-3.3,17c4.1,3.3,7.3,0.8,13.1-11c2.5-5.2,6-10.4,7.7-11.8c7.5-6.2,30.1,12.2,30.1,24.5c0,6.8-5,17.4-10.8,22.8
		C2635.6,4140.3,2627.1,4140.3,2610.7,4131.6z"/>
	<path d="M1811.1,4080.8c-2.5-7.3-0.2-9.3,17.4-15.8c5.8-1.9,10.8-3.9,11.2-4.4c0.4-0.2-0.8-4.8-2.9-10c-2.7-7.5-4.4-9.3-7.1-8.3
		c-1.9,0.8-8.5,3.3-14.7,5.4l-11.4,4.1l-3.5-4.6c-7.5-9.1-5.6-11,20.1-20.3c10.4-3.7,25.9-9.5,34.6-12.9c8.9-3.3,17.4-6,19.3-6
		c3.3,0,8.1,9.5,6.4,13.5c-0.4,1.2-7.5,5-15.6,8.1c-8.1,3.1-14.7,6.2-14.7,6.6c0,2.1,6.8,17.4,7.7,17.4c0.6,0,7.5-2.3,15.1-5
		c11.2-4.1,14.7-4.6,17.2-2.7c4.1,3.3,5.8,11.2,2.7,13.5c-3.9,3.1-70.7,27.4-75.3,27.4C1814.8,4087,1812.7,4084.9,1811.1,4080.8z"/>
	<path d="M2649.9,4072.3c-8.3-4.1-11.8-13.5-10.4-27c1.2-10.4,0.8-12.4-2.1-13.7c-5-1.9-9.1,4.8-9.1,14.9c0,12.9-9.8,20.5-14.5,11.6
		c-8.1-15.4,6.6-45.9,22.2-45.9c6,0,19.1,8.9,21,14.3c1,2.9,1.5,10.6,0.8,17c-0.6,7.7,0,12.2,1.5,13.3c3.9,2.3,8.5-3.1,8.5-10.6
		c0-8.1,4.6-13.3,11.6-13.3c4.6,0,5,0.8,5,9.3c0,10.8-3.7,20.7-10.2,27.6C2669.2,4074.9,2657.8,4076,2649.9,4072.3z"/>
	<path d="M2150.9,3516.6c-3.7-3.1-4.8-5.8-4.8-14.3c0-12.4,4.8-19.1,13.3-19.1c8.7,0,12.4,5.8,12.4,19.3c0,9.5-0.8,12-4.6,14.7
		C2161.3,3521.6,2156.7,3521.4,2150.9,3516.6z"/>
	<path d="M2253.8,3517.7c-3.5-1.5-7.7-4.4-9.3-6.4c-2.7-3.1-2.5-3.9,1.7-7.5c4.6-3.5,5.2-3.5,12-0.2c8.7,4.1,13.9,1.9,14.9-6.8
		c1-9.1-3.3-16.6-17.6-30.1c-10.8-10.4-13.3-13.7-12.7-18.3l0.6-5.6h22.8h22.8v6.2c0,6-0.4,6.2-11,7.3l-11.2,1l5.6,5.2
		c20.3,18.7,23.4,43.8,6.8,53.9C2271.4,3521.2,2262.7,3521.6,2253.8,3517.7z"/>
	<path d="M2304,3517.3c-2.7-2.7-1.5-10.8,1.9-12c1.9-0.6,8.7-1.2,15.4-1.2h12l-9.3-26.3c-12-33.8-12-34.9-2.7-34.9h7.3l10,28
		c5.6,15.4,10.2,32.2,10.4,37.3l0.4,9.3l-22,0.6C2315.2,3518.3,2304.8,3517.9,2304,3517.3z"/>
	<path d="M2186.2,3504.6c-2.9-3.3-6.6-7.9-8.3-10.2c-1.7-2.5-8.3-11.6-14.7-20.3c-6.6-8.7-12-16.6-12-17.6c0-2.9,5.2-6.2,7.3-4.8
		c5.6,3.9,38.6,50.6,38,53.5C2195.3,3511,2191.8,3510.6,2186.2,3504.6z"/>
	<path d="M2177.9,3471.4c-2.9-7.5-1.2-25.5,2.5-27.8c1.7-1,5.8-1.9,9.5-1.9c8.7,0,13.1,6.2,13.1,19.1c0,12-3.7,16.2-14.7,16.2
		C2181.2,3477,2179.7,3476.2,2177.9,3471.4z"/>
</g>
</svg>
