<svg width="450" height="220" viewBox="0 0 450 220" fill="none" xmlns="http://www.w3.org/2000/svg">
<path d="M132.872 109.176H135.15L136.807 109.59L137.947 110.211L138.775 111.04L139.5 112.49L139.707 113.836H140.018L141.054 113.111L143.332 111.765L145.715 110.626L148.511 109.693L150.583 109.279L151.618 109.176H153.586L155.14 109.486L156.383 110.108L157.211 110.833L157.936 112.076L158.143 112.697L158.247 113.629L157.936 115.701L157.315 117.772L157.004 118.601L156.176 119.844L155.036 121.604L154.311 123.054L154.001 124.09V125.54L154.415 126.472L154.933 127.094L155.761 127.508L156.176 127.612H158.351L160.526 126.99L162.183 126.265L163.529 125.54L165.083 124.504L166.222 123.572L166.74 123.365L166.222 124.919L165.911 126.472L165.704 127.922L165.497 128.337L163.219 129.683L160.422 131.03L158.247 131.755L155.451 132.376L153.69 132.48L151.722 132.169L150.479 131.651L149.547 131.03L148.822 130.097L148.408 129.165L148.304 128.647V127.404L146.647 128.544L144.782 129.58L143.229 130.408L140.64 131.444L138.154 132.169L136.289 132.48H134.839L133.493 132.272L132.147 131.755L131.007 131.03L130.386 130.305L129.764 129.062L129.557 128.44L129.039 128.647L127.693 129.476L125.414 130.615H125V126.99L125.414 126.679L127.071 125.851L128.729 124.815L130.386 123.572L131.007 122.847L132.043 121.19L132.975 119.636L133.493 118.497L133.907 117.047V116.115L133.389 115.079L132.664 114.458L131.939 114.147L131.422 114.044H129.454L127.589 114.458L125.932 115.079L125 115.494V111.765L126.554 110.936L128.625 110.108L131.214 109.383L132.872 109.176Z" fill="#3F7DB1"/>
<path d="M163.426 84.318H166.119L168.294 84.6287L169.848 85.043L170.676 85.3537V84.8359L175.026 84.7323L177.616 84.8359L179.273 85.1466L180.309 85.5609L181.241 86.2859L181.862 87.0109L182.484 88.3574L182.691 89.2895V90.4288L182.38 91.6717L181.759 92.811L180.826 93.536L180.205 93.9503V94.1575L181.655 94.6753L183.001 95.7111L183.83 97.1611L184.244 98.6111V99.6468L183.83 101.304L183.209 102.236L182.173 103.272L180.723 103.997L179.066 104.411L177.305 104.618H171.919L170.676 104.515V103.479L168.294 104.204L166.119 104.618H163.633L161.873 104.308L160.319 103.79L158.765 102.961L157.833 102.236L156.797 101.304L155.969 100.372L155.14 99.0254L154.519 97.5754L154.105 95.7111L154.001 93.9503L154.208 92.2931L154.726 90.636L155.451 89.1859L156.487 87.8395L157.419 86.9073L158.972 85.768L160.733 84.9394L162.701 84.4216L163.426 84.318Z" fill="#052E59"/>
<path d="M210.966 108.968H213.762L215.73 109.279L217.284 109.797L218.941 110.626L220.08 111.454L221.116 112.386L222.255 113.836L223.291 115.804L223.912 117.669L224.223 119.636V121.915L223.912 123.883L223.291 125.747L222.255 127.612L221.116 128.958L220.287 129.787L218.837 130.822L217.18 131.651L215.627 132.169L213.866 132.48L212.312 132.583L210.137 132.376L208.169 131.858L206.926 131.34L205.787 130.719L204.751 129.89L203.716 128.958L202.576 127.508L201.541 125.747L200.919 123.779L200.608 121.604V119.844L200.919 117.669L201.644 115.494L202.576 113.836L203.508 112.697L204.337 111.765L205.891 110.626L207.444 109.797L209.101 109.279L210.966 108.968Z" fill="#042E59"/>
<path d="M169.018 109.176H171.193L172.643 109.486L173.886 110.108L174.715 110.833L175.543 112.283L175.75 113.008V114.044L175.647 114.458L176.165 114.251L177.718 113.215L179.272 112.386L179.997 112.179H180.515L180.411 112.593L179.479 113.733L178.754 114.872L177.822 116.633L176.268 117.876L175.44 118.601L174.508 119.533L173.265 121.19L172.125 122.537L171.608 123.676L171.504 124.09V125.747L172.022 126.783L172.747 127.301L173.783 127.612L175.233 127.715L176.993 127.404L178.236 126.99L178.65 127.197L179.686 128.647L180.618 129.787V129.994L179.272 130.512L177.822 131.133L175.336 131.962L173.368 132.376L172.333 132.48H170.883L169.225 132.169L167.982 131.651L167.154 131.03L166.325 130.097L165.911 129.165L165.6 128.233L165.911 125.954L166.325 124.194L166.636 123.469L166.118 123.779L164.668 124.919L162.804 126.058L160.836 126.99L158.868 127.612L158.35 127.715H156.175L155.139 127.301L154.414 126.679L154 125.851L153.896 125.54V124.09L154.414 122.537L155.243 121.086L156.072 119.844L157.004 118.497L157.832 115.701L158.143 113.526L158.247 113.215L159.697 112.386L162.079 111.143L164.047 110.315L166.325 109.59L168.086 109.279L169.018 109.176Z" fill="#3F7DB1"/>
<path d="M256.02 109.176L256.538 109.279L257.056 109.693L257.781 110.522L259.231 112.283L260.474 113.733L261.82 115.286L262.752 116.426L263.788 117.565L264.72 118.704L266.067 120.258L267.931 122.433L268.138 122.537L268.034 120.361V117.461L268.138 109.279H273.524V132.065H270.106L269.07 131.962L266.377 128.854L265.445 127.715L264.306 126.369L263.063 124.919L262.131 123.779L261.199 122.744L260.267 121.604L258.92 120.051L257.988 118.911L257.47 118.29L257.263 118.186V128.751L257.159 132.065H251.67V109.279L256.02 109.176Z" fill="#042E59"/>
<path d="M232.405 109.176L232.716 109.279L232.82 122.951L233.13 124.504L233.648 125.747L234.58 126.783L235.823 127.404L236.652 127.612H238.205L239.759 127.094L240.691 126.472L241.416 125.437L241.831 124.401L242.038 122.744L242.141 109.279H247.631L247.734 109.59V123.365L247.423 125.333L247.009 126.783L246.181 128.44L245.352 129.476L244.523 130.305L242.97 131.34L241.105 132.065L239.759 132.376L238.827 132.48H236.03L234.063 132.169L232.509 131.651L231.162 130.926L230.127 130.097L229.195 129.165L228.262 127.715L227.641 126.162L227.33 124.815L227.02 122.226V109.797L227.123 109.279L232.405 109.176Z" fill="#042D58"/>
<path d="M287.61 108.865H290.095L292.167 109.176L294.135 109.693L296.206 110.522L296.621 110.833V116.219L296.103 116.011L294.653 115.183L293.513 114.665L291.856 114.147L289.992 113.836H288.127L286.16 114.354L285.02 114.976L283.985 115.908L283.26 116.944L282.742 118.083L282.431 119.533V121.915L282.845 123.572L283.57 125.022L284.71 126.265L285.849 126.99L287.092 127.404L288.335 127.612H289.37L290.82 127.404L292.995 126.783L294.963 125.851L296.621 124.815L296.828 124.919V130.097L296.517 130.408L294.549 131.34L292.374 132.065L290.924 132.376L290.095 132.48H286.988L285.227 132.169L283.467 131.651L281.395 130.512L279.945 129.269L279.013 128.233L277.977 126.576L277.252 124.815L276.838 123.365L276.631 121.708V119.429L277.045 117.151L277.563 115.701L278.599 113.733L279.738 112.386L280.877 111.351L281.913 110.626L283.881 109.693L285.642 109.176L287.61 108.865Z" fill="#042E59"/>
<path d="M189.526 108.865H191.701L193.876 109.176L195.637 109.59L197.19 110.211L198.226 110.729L198.329 110.833V116.219L197.501 115.804L195.533 114.769L193.669 114.147L191.908 113.836H190.044L188.283 114.251L186.626 115.079L185.797 115.804L184.969 116.944L184.451 118.186L184.14 119.74V121.708L184.451 123.158L184.969 124.504L185.797 125.644L186.833 126.576L188.386 127.301L189.94 127.612H191.079L192.633 127.404L194.497 126.887L196.879 125.747L198.019 125.022L198.537 124.712V129.994L198.019 130.512L196.258 131.34L194.394 131.962L192.529 132.376L191.597 132.48H188.904L187.351 132.272L185.486 131.755L183.829 130.926L182.793 130.201L181.758 129.372L181.033 128.544L180.101 127.301L179.168 125.437L178.443 122.64L178.34 120.258L178.547 118.083L179.168 115.908L179.997 114.251L180.722 113.215L181.861 111.972L183.311 110.833L184.761 110.004L186.522 109.383L188.594 108.968L189.526 108.865Z" fill="#042E59"/>
<path d="M262.752 79.1393H265.652L264.927 82.3501L263.167 90.1181L260.784 100.475L260.163 103.065L259.852 103.997L259.334 104.308L257.988 104.515H254.466L252.913 104.204L251.566 103.686L250.531 103.065L249.806 102.443L248.873 101.2L248.356 99.8539L248.148 98.6111L248.252 96.7467L248.666 94.986L249.288 93.4324L250.116 91.9824L251.463 90.4288L252.499 89.4966L254.052 88.4609L255.709 87.7359L257.366 87.3216L258.091 87.218H260.577L261.095 85.3537L262.442 79.45L262.752 79.1393Z" fill="#3F7DB1"/>
<path d="M151.618 109.176H153.586L155.14 109.486L156.383 110.108L157.211 110.833L157.936 112.076L158.143 112.697L158.247 113.629L157.936 115.701L157.315 117.772L157.004 118.601L156.176 119.844L155.036 121.604L154.311 123.054L154.001 124.09V125.54L154.415 126.472L154.933 127.094L155.761 127.508L156.176 127.612H158.351L160.526 126.99L162.183 126.265L163.529 125.54L165.083 124.504L166.222 123.572L166.74 123.365L166.222 124.919L165.911 126.472L165.704 127.922L165.497 128.337L163.219 129.683L160.422 131.03L158.247 131.755L155.451 132.376L153.69 132.48L151.722 132.169L150.479 131.651L149.547 131.03L148.822 130.097L148.408 129.165L148.304 128.647V126.99L148.511 125.644L148.925 124.09L149.858 122.433L150.583 121.294L151.204 120.051L151.722 119.222L152.343 117.565V116.011L152.033 115.286L151.515 114.665L150.893 114.251L149.133 113.94L146.854 114.251L145.093 114.872L142.711 116.115L140.847 117.461L139.397 118.704L138.672 119.429L137.532 120.879L137.222 121.086L137.429 120.569L137.636 120.361L137.947 119.533L138.568 118.29L139.5 115.494L139.707 114.044L141.054 113.111L143.333 111.765L145.715 110.626L148.511 109.693L150.583 109.279L151.618 109.176Z" fill="#042E59"/>
<path d="M163.736 87.0109H166.325L168.397 87.5287L169.951 88.1502L170.572 88.4609L170.676 88.668V98.9218L170.572 100.268L169.536 100.786L167.879 101.408L166.533 101.718L165.083 101.822L164.979 102.029L164.461 101.925L162.597 101.615L161.25 101.097L160.215 100.475L159.179 99.5432L158.35 98.7146L157.522 97.0575L157.211 96.0217L157.107 95.2967V93.6396L157.418 92.086L158.247 90.4288L159.075 89.393L160.215 88.3573L161.457 87.6323L163.218 87.1144L163.736 87.0109Z" fill="#FEFEFD"/>
<path d="M315.264 109.176L315.471 109.279V127.612H324.792L324.896 127.715V132.065H309.981V109.279L315.264 109.176Z" fill="#042E59"/>
<path d="M200.194 78.5179H201.644L203.716 78.9322L205.476 79.5536L205.787 79.7608L205.373 81.6251L205.166 83.0751L204.544 82.868L202.991 82.2465L201.333 81.8322H200.401L198.848 82.2465L197.812 82.868L197.087 83.593L196.569 84.6287V86.1823L196.983 87.1145L197.708 88.2538L199.262 89.9109L201.126 91.7753L202.162 93.1217L203.094 94.7789L203.509 96.0218L203.612 96.6432V97.5754L203.405 98.8182L202.784 100.475L201.955 101.718L200.816 102.858L199.676 103.583L198.433 104.1L196.88 104.515H194.808L193.048 104.1L190.873 103.168L189.94 102.547L190.148 101.408L190.769 99.0254H191.08L192.53 99.9576L194.083 100.683L195.223 100.993L196.569 101.097L197.708 100.89L198.537 100.475L199.262 99.854L199.78 99.0254L200.091 97.8861L199.987 96.8504L199.366 95.711L198.433 94.5717L197.294 93.3289L194.912 90.9467L193.876 89.4967L193.255 88.0466L192.944 86.493V85.3537L193.255 83.9037L193.98 82.2465L194.808 81.2108L195.637 80.3822L197.087 79.45L198.744 78.8286L200.194 78.5179Z" fill="#3F7DB1"/>
<path d="M165.393 113.94H167.465L168.5 114.251L169.122 114.665L169.847 115.494L170.054 116.219L169.95 117.565L169.536 118.808L168.5 120.776L167.154 122.744L166.532 123.469L165.082 124.608L163.529 125.644L161.354 126.783L158.868 127.612L158.35 127.715H156.175L155.139 127.301L154.414 126.679L154 125.851L153.896 125.54V124.09L154.414 122.537L155.243 121.086L156.072 119.844L157.211 118.186L158.247 117.358L160.007 116.115L161.872 115.079L163.943 114.251L165.393 113.94Z" fill="#FEFEFD"/>
<path d="M148.822 113.836L150.479 114.044L151.204 114.354L151.826 114.872L152.24 115.39L152.447 116.011V117.565L151.929 118.808L150.686 120.465L148.822 122.537L147.268 124.09L145.715 125.229L144.161 126.162L142.815 126.783L140.847 127.404L139.293 127.715H137.74L136.497 127.301L135.772 126.679L135.357 125.747L135.254 125.333V124.504L135.565 123.469L136.082 122.64L137.533 120.776L138.361 119.74L139.293 118.704L140.433 117.669L142.4 116.219L144.058 115.286L145.611 114.561L146.854 114.147L148.822 113.836Z" fill="#FEFEFD"/>
<path d="M277.149 87.0109L279.013 87.1144L280.049 87.4252L281.085 88.0466L281.81 88.7716L282.535 90.2216L282.742 90.9466V95.4003L282.638 95.5039L281.188 95.6074H272.902L272.695 96.1253L272.592 96.7468V97.8861L272.799 99.0254L273.524 100.475L274.249 101.097L274.974 101.408H276.838L278.599 100.89L280.256 99.9575L281.395 99.1289H281.603L281.499 100.268L280.981 102.34L280.153 102.961L278.392 103.79L276.631 104.308L275.906 104.411H274.663L273.006 103.997L271.763 103.272L270.727 102.236L270.002 101.097L269.485 99.854L269.174 98.4039V96.6432L269.485 94.7789L270.106 92.7074L271.038 90.9466L272.177 89.4966L272.902 88.7716L273.938 88.0466L275.181 87.4252L276.32 87.1144L277.149 87.0109Z" fill="#3F7DB1"/>
<path d="M212.105 113.733L213.348 113.836L214.591 114.147L215.73 114.769L216.973 115.908L217.905 117.358L218.423 119.015L218.526 119.74V121.708L218.112 123.469L217.283 125.126L216.144 126.369L215.005 127.094L213.866 127.508L212.208 127.715L210.551 127.404L209.515 126.99L208.687 126.369L208.065 125.851L207.133 124.504L206.615 123.365L206.305 122.122V119.326L206.823 117.565L207.444 116.426L208.169 115.494L208.998 114.769L210.24 114.147L211.38 113.836L212.105 113.733Z" fill="#FEFEFD"/>
<path d="M300.039 109.279H305.632L305.736 109.383V130.304L305.632 132.065H300.039V109.279Z" fill="#052E5A"/>
<path d="M229.92 87.4252H232.716L232.613 88.3573L231.059 95.4003L230.23 99.2325V100.475L230.541 101.097L231.163 101.408H232.095L233.441 100.89L234.477 100.268L235.927 99.0254L236.548 98.0932L237.066 96.436L238.723 89.8074L239.241 87.6323L239.345 87.4252H242.452L242.245 88.5645L241.002 93.8467L239.448 100.683L238.723 103.79L238.516 103.997H235.513L235.409 103.79L235.927 102.029V101.822L235.409 102.029L234.063 103.065L232.405 103.997L231.059 104.411L230.023 104.515L228.987 104.204L228.055 103.583L227.434 102.858L227.02 101.925L226.916 101.511V99.5432L227.33 97.1611L229.609 87.5287L229.92 87.4252Z" fill="#3F7DB1"/>
<path d="M299.831 87.4252H301.696L302.731 87.8395L303.353 88.3573L303.974 89.3931L304.285 90.4288V91.8788L303.664 95.0896L302.317 100.993L301.592 104.1L301.385 104.411H298.381L298.588 103.272L300.556 94.3646L300.971 92.3967V91.0502L300.453 90.5324L299.831 90.2216H299.003L297.863 90.6359L296.828 91.2574L295.378 92.5003L294.653 93.3288L294.135 94.986L292.167 103.168L291.753 104.411H288.749L288.956 103.065L290.924 94.5717L292.167 89.1859L292.478 87.943L292.581 87.8395L295.481 87.7359L295.585 88.2538L295.171 90.0145L296.724 88.8752L298.278 87.943L299.831 87.4252Z" fill="#3F7DB1"/>
<path d="M151.308 82.4537L152.965 82.5572L155.554 82.9715L155.865 83.2823L155.244 85.9752L154.726 89.2895L154.622 89.4967L154.104 89.6002L153.69 89.3931V85.8716L153.276 84.8359L152.447 84.1108L151.722 83.8001L150.686 83.6966L149.444 84.0073L148.511 84.5251L147.476 85.4573L146.751 86.493L146.336 87.8395V88.8752L146.751 90.0145L147.579 91.1538L149.754 93.3289L150.686 94.4682L151.619 95.7111L152.344 97.2647L152.551 97.9897V99.4397L152.033 101.408L151.308 102.65L150.272 103.893L149.029 104.826L147.89 105.551L145.922 106.276L143.954 106.69L142.297 106.793L140.536 106.483L139.293 105.965L138.361 105.343L137.636 104.618L137.015 103.686L136.704 102.65L136.808 101.718L137.326 100.993L137.843 100.683L138.465 100.579L139.086 100.89L139.604 101.511L140.122 103.272L140.64 104.308L141.365 104.929L142.401 105.343H144.369L146.129 104.826L147.372 103.997L147.994 103.479L148.822 102.34L149.236 101.511L149.444 100.89L149.547 99.4397L149.236 98.404L148.511 97.0575L147.165 95.5039L144.99 93.3289L144.265 92.2931L143.644 90.9467L143.436 90.1181V88.9788L143.747 87.7359L144.576 86.0787L145.301 85.1466L146.129 84.318L147.165 83.593L148.408 82.9715L150.065 82.5572L151.308 82.4537Z" fill="#062F5B"/>
<path d="M216.041 84.0073H219.251L218.941 85.1466L218.319 87.3216L221.323 87.4252L221.012 88.4609L220.598 89.6002L220.494 89.8074L217.491 90.0145L216.662 92.6038L215.212 97.8861L215.005 98.9218V100.372L215.523 100.993L216.041 101.2H216.973L218.216 100.89L219.251 100.372V103.272L217.801 103.893L216.144 104.411L215.212 104.515L213.969 104.204L212.933 103.583L212.208 102.858L211.691 101.822L211.483 100.993V99.854L212.001 97.4718L213.451 92.2931L214.176 89.8074H211.587L211.483 89.6002L212.001 88.1502L212.312 87.4252L214.798 87.3216L215.212 86.3894L216.041 84.0073Z" fill="#3F7DB1"/>
<path d="M316.507 84.0073H319.718L319.407 85.2501L318.786 87.4252H321.686L321.79 87.6323L321.168 89.3931L320.961 89.8074L318.061 89.9109L317.232 92.5003L315.886 97.3682L315.472 99.3361V100.061L315.782 100.786L316.404 101.2H317.543L318.89 100.786L319.615 100.475H319.925V101.408L319.718 102.858L319.511 103.272L317.75 104.1L316.611 104.411H315.264L314.125 103.997L313.193 103.375L312.572 102.65L312.157 101.718L312.054 101.304V99.5433L312.675 96.9539L314.332 91.0502L314.643 89.8074H312.157L312.261 88.9788L312.779 87.5288L312.882 87.4252H315.472L315.782 86.2859L316.507 84.0073Z" fill="#3F7DB1"/>
<path d="M258.195 90.0145H259.956L259.749 91.2574L257.47 101.2L256.952 101.718L255.295 101.822L253.638 101.408L252.706 100.786L251.981 99.9575L251.567 98.9218L251.359 97.6789L251.463 96.1253L251.981 94.4681L252.602 93.3288L253.534 92.1895L254.467 91.3609L256.02 90.5324L257.574 90.1181L258.195 90.0145Z" fill="#FEFEFD"/>
<path d="M141.054 83.2822L141.883 83.3858L142.504 84.0072L142.401 84.9394L140.847 90.4288L139.708 94.5717L139.293 96.6432V97.6789L139.604 97.7825L140.329 97.3682L141.468 96.436L142.711 95.5039L143.126 95.711L143.333 96.0217L143.229 96.5396L142.711 97.0575L141.676 97.9896L139.708 99.4397L138.465 100.061L138.051 100.165H137.222L136.601 99.854L136.186 99.3361L136.083 99.0254V97.7825L136.497 95.5039L137.636 91.0502L138.879 86.7001L138.983 85.768L138.361 85.8716L137.222 86.5966L136.083 87.7359L135.461 87.8395L134.943 87.3216L135.047 86.9073L136.393 85.6644L137.636 84.6287L139.086 83.8001L140.226 83.3858L141.054 83.2822Z" fill="#052F5B"/>
<path d="M173.576 95.8146H176.994L178.548 96.0218L179.791 96.436L180.723 97.2646L181.137 98.3004V99.129L180.93 99.9575L180.516 100.786L179.687 101.408L178.755 101.718L177.408 101.925H173.576L173.473 101.822V96.0218L173.576 95.8146Z" fill="#FEFEFD"/>
<path d="M173.576 87.4252H176.373L177.926 87.6323L178.755 88.1502L179.376 88.8752L179.583 89.6002V90.3252L179.169 91.6717L178.341 92.6038L177.201 93.0181L175.648 93.2253H173.576L173.473 93.1217V87.5287L173.576 87.4252Z" fill="#FEFEFD"/>
<path d="M146.026 136.83L146.647 136.933L147.579 138.072L148.615 139.212L149.34 140.04L149.754 140.455L149.858 136.933L149.961 136.83L150.686 136.933V141.698L151.101 141.594L151.411 140.973L152.033 139.212L152.861 137.347L153.172 136.83L153.69 136.933L154.104 137.555L155.244 140.248L155.865 141.801V142.008L155.14 141.905L154.311 140.351L154.001 140.248L153.69 140.351H152.861L152.551 140.144L151.826 141.698L151.515 141.905H150.065L149.547 141.387L148.201 139.937L147.268 138.798L146.854 138.28L146.647 138.176L146.751 138.59V141.905L146.129 142.008L145.818 141.905L145.922 136.933L146.026 136.83Z" fill="#156AC3"/>
<path d="M168.19 136.83H168.708L170.262 138.487L171.194 139.626L171.816 140.351L172.023 140.455V136.933L172.126 136.83H172.748L172.851 136.933V141.801L173.369 141.594L174.612 138.487L175.441 136.83L175.958 136.933L176.787 138.487L177.616 140.558L178.237 141.801L178.134 142.008L177.409 141.801L176.683 140.455L176.476 140.248L176.062 140.351H175.026L174.716 140.144L174.508 140.765L173.991 141.801L173.473 142.008H172.644L172.023 141.698L170.78 140.248L169.744 139.108L169.019 138.28L168.916 142.008L168.294 141.905L168.087 141.698V136.933L168.19 136.83Z" fill="#407EB1"/>
<path d="M130.489 123.469L130.697 123.572L130.282 124.09L129.868 125.954L129.557 128.337L128.211 129.165L125.829 130.408L125.414 130.615H125V126.99L125.414 126.679L127.071 125.851L128.729 124.815L130.386 123.572L130.489 123.469Z" fill="#052F5A"/>
<path d="M276.735 89.7038H278.082L279.014 90.0145L279.532 90.5324L279.946 91.2574L280.05 91.7752V92.9145L279.532 93.1217H274.767L273.421 93.0181L274.042 91.7752L275.078 90.5324L276.01 89.9109L276.735 89.7038Z" fill="#FEFEFD"/>
<path d="M317.854 136.726H319.304L319.925 136.933L320.961 136.83L321.582 137.244L322.307 138.176L322.722 138.59L323.861 137.14L324.275 136.83L324.793 136.726L325 136.83L324.897 137.244L323.757 138.487L323.136 139.315L323.032 140.04V141.905H322.411L322.307 141.801L322.204 139.419L321.893 138.798L321.065 137.762L320.236 137.244V137.451V137.865L319.614 137.658L318.889 137.451L317.957 137.555L317.129 138.072L316.714 138.694L316.611 139.626L316.922 140.455L317.647 141.076L317.854 141.18H319.097L319.511 140.869L319.614 140.144L318.682 140.04L318.475 139.937L318.579 139.419L318.682 139.315H319.925L320.236 139.626L320.34 139.833V141.18L319.925 141.698L318.993 142.008H317.957L317.129 141.698L316.3 140.973L315.886 140.351L315.679 139.523L315.782 138.59L316.3 137.658L317.025 137.037L317.854 136.726Z" fill="#1059BC"/>
<path d="M294.653 136.83H296.518L297.036 137.14L297.45 137.865L297.346 138.694L297.243 139.212L297.761 139.937V140.973L297.346 141.594L296.518 141.905H294.861L294.55 141.698L294.446 141.283V138.28L294.55 136.933L294.653 136.83Z" fill="#0B56DE"/>
<path d="M252.603 136.83L253.121 136.933L253.224 140.144L253.535 140.869L254.053 141.18H255.088L255.71 140.765L256.021 139.937V136.83L257.16 136.933L257.574 136.83H261.717L261.821 137.347L261.717 137.451H260.06L259.956 141.905H259.128V137.762L259.024 137.555L257.056 137.347L256.849 137.244V139.833L256.642 140.869L256.021 141.594L255.399 141.905L254.985 142.008H254.156L253.328 141.698L252.706 140.973L252.396 140.144L252.292 137.037L252.603 136.83Z" fill="#1369C4"/>
<path d="M179.998 112.179H180.515L180.412 112.593L179.48 113.733L178.755 114.872L177.823 116.633L176.269 117.876L175.44 118.601L174.508 119.533L174.094 120.154H173.887L174.094 119.636L174.508 119.015L174.819 117.772L175.544 115.494L175.751 114.561L177.201 113.526L179.065 112.49L179.998 112.179Z" fill="#06315E"/>
<path d="M204.337 136.83H209.412L209.93 137.347L210.551 138.28L210.966 138.487L211.691 137.658L212.209 136.933L212.416 136.83H213.141L213.037 137.244L212.105 138.28L211.276 139.419V141.905H210.448L210.344 139.315L209.205 137.658V137.451H206.823V141.905L206.408 142.008L205.994 141.905L205.891 137.555L204.337 137.451L204.233 137.037L204.337 136.83Z" fill="#1369C4"/>
<path d="M221.22 137.451H222.152L222.98 137.865L223.395 138.383L223.602 139.005L223.498 140.04L223.084 140.662L222.566 141.076L222.048 141.283H221.22L220.391 140.869L219.977 140.351L219.77 139.937V138.798L220.08 138.176L220.702 137.658L221.22 137.451Z" fill="#FEFEFD"/>
<path d="M238.309 137.451H239.345L240.174 137.865L240.588 138.383L240.795 138.901V139.626L240.484 140.351L240.07 140.869L239.552 141.18L238.516 141.283L237.688 140.973L237.066 140.144L236.963 139.833V138.798L237.274 138.176L237.895 137.658L238.309 137.451Z" fill="#FEFEFD"/>
<path d="M312.261 137.347L313.296 137.555L314.021 138.072L314.332 138.694V139.833L314.021 140.455L313.296 141.076L312.779 141.283H312.054L311.225 140.869L310.604 140.04L310.5 138.901L310.811 138.28L311.639 137.555L312.261 137.347Z" fill="#FEFEFD"/>
<path d="M302.421 137.451H303.56L304.492 138.072L304.906 138.798V139.833L304.492 140.558L303.664 141.18L303.353 141.283H302.628L301.799 140.869L301.178 140.04L301.074 139.626V138.901L301.489 138.072L302.421 137.451Z" fill="#FEFEFD"/>
<path d="M274.352 137.451H275.285L276.113 137.969L276.631 138.59L276.735 138.901V139.833L276.424 140.455L275.699 141.076L275.077 141.283H274.352L273.524 140.869L273.006 140.04L272.902 139.626V138.798L273.524 137.865L274.352 137.451Z" fill="#FEFEFD"/>
<path d="M189.526 137.451H190.665L191.598 138.072L192.012 138.798V139.73L191.701 140.351L191.183 140.869L190.355 141.283L189.423 141.18L188.801 140.765L188.387 140.248L188.18 139.626V138.798L188.698 137.969L189.215 137.555L189.526 137.451Z" fill="#FEFEFD"/>
<path d="M164.254 137.451H165.082L165.911 137.969L166.429 138.59L166.532 138.901V139.937L166.118 140.558L165.497 141.076L164.875 141.283L163.943 141.18L163.322 140.765L162.907 140.248L162.7 139.523V138.798L163.114 138.176L163.736 137.658L164.254 137.451Z" fill="#FEFEFD"/>
<path d="M225.673 136.83H227.33L227.848 137.14L228.159 137.658V138.798L227.641 139.315L227.745 139.833L228.987 141.594L229.091 142.008L228.366 141.905L227.848 141.387L227.02 140.144L225.984 139.523V142.008L225.259 141.905L225.155 141.387V137.14L225.673 136.83Z" fill="#1469C3"/>
<path d="M142.297 136.83H143.954L144.472 137.347L144.679 137.762V138.694L144.162 139.212V139.73L145.197 141.283L145.508 141.801V142.008L144.783 141.905L144.369 141.387L143.54 140.248V140.04L143.022 139.833L142.504 139.523V141.905L142.401 142.008H141.779L141.676 141.801V137.14L141.779 136.933L142.297 136.83Z" fill="#1468C3"/>
<path d="M164.461 136.622L165.394 136.726L166.222 137.14L167.051 138.072L167.258 138.59L167.361 139.626L167.051 140.558L166.326 141.49L165.497 141.905L164.254 142.008L163.322 141.698L162.39 140.869L161.976 140.04V138.59L162.493 137.658L163.218 137.037L163.943 136.726L164.461 136.622ZM164.254 137.451L163.426 137.865L162.804 138.59L162.701 138.798V139.523L163.011 140.455L163.736 141.076L164.254 141.283L165.29 141.18L165.911 140.765L166.429 140.144L166.533 139.937V138.901L166.222 138.28L165.497 137.658L165.083 137.451H164.254Z" fill="#0F65E0"/>
<path d="M274.146 136.726H275.596L276.424 137.14L277.149 137.969L277.46 138.694V140.04L277.046 140.869L276.321 141.594L275.181 142.008H274.353L273.317 141.594L272.592 140.869L272.178 140.04V138.694L272.696 137.658L273.524 136.933L274.146 136.726ZM274.353 137.451L273.524 137.865L272.903 138.798V139.626L273.317 140.662L274.042 141.18L274.353 141.283H275.078L276.01 140.869L276.631 140.144L276.735 139.833V138.901L276.424 138.28L275.699 137.658L275.285 137.451H274.353Z" fill="#1166DE"/>
<path d="M311.742 136.726H313.192L314.021 137.14L314.85 137.969L315.057 138.59V140.04L314.746 140.765L314.228 141.387L313.296 141.905L312.882 142.008H311.949L311.017 141.594L310.499 141.18L309.878 140.144L309.774 139.833V138.694L310.189 137.762L311.121 136.933L311.742 136.726ZM312.26 137.347L311.535 137.658L310.707 138.383L310.499 138.901L310.603 140.04L311.328 140.973L312.053 141.283H312.778L313.607 140.869L314.228 140.144L314.332 139.833V138.694L313.917 137.969L313.089 137.451L312.26 137.347Z" fill="#0E58DC"/>
<path d="M302.939 136.622L303.871 136.726L304.803 137.347L305.425 138.072L305.632 138.901L305.528 140.248L305.218 140.869L304.285 141.698L303.457 142.008H302.525L301.696 141.698L300.868 140.973L300.453 140.144L300.246 139.315L300.453 138.383L300.971 137.555L301.696 136.933L302.939 136.622ZM302.421 137.451L301.489 138.072L301.075 138.901V139.626L301.385 140.351L301.903 140.973L302.628 141.283H303.353L304.182 140.869L304.803 140.144L304.907 139.833V138.798L304.493 138.072L303.56 137.451H302.421Z" fill="#0D58DC"/>
<path d="M190.044 136.622L191.184 136.83L192.116 137.555L192.53 138.072L192.737 139.005V139.833L192.427 140.765L191.702 141.49L190.873 141.905L190.459 142.008H189.527L188.698 141.594L187.973 140.973L187.559 140.144L187.455 139.833V138.694L187.869 137.762L188.802 136.933L190.044 136.622ZM189.527 137.451L188.802 137.865L188.387 138.383L188.18 138.798V139.626L188.491 140.455L189.216 141.076L189.734 141.283L190.666 141.18L191.494 140.662L191.909 140.04L192.012 139.73V138.798L191.391 137.865L190.666 137.451H189.527Z" fill="#1066DF"/>
<path d="M221.116 136.726H222.463L223.499 137.347L224.12 138.176L224.327 139.005L224.224 140.248L223.602 141.18L222.981 141.698L222.152 142.008H221.22L220.184 141.594L219.666 141.18L219.045 140.144L218.941 139.833V138.901L219.356 137.865L220.081 137.14L220.702 136.83L221.116 136.726ZM221.22 137.451L220.391 137.865L219.874 138.487L219.77 138.798V139.937L220.288 140.765L220.909 141.18L221.22 141.283H222.049L222.877 140.869L223.395 140.248L223.602 139.626L223.499 138.59L223.084 137.969L222.463 137.555L222.152 137.451H221.22Z" fill="#1166DF"/>
<path d="M238.205 136.726H239.552L240.587 137.244L241.209 137.969L241.52 138.694V139.833L241.209 140.662L240.484 141.49L239.759 141.905L239.241 142.008H238.412L237.48 141.698L236.755 140.973L236.237 140.144L236.134 139.315L236.445 138.072L237.273 137.14L238.205 136.726ZM238.309 137.451L237.48 137.969L237.066 138.487L236.962 138.798V139.833L237.377 140.662L237.895 141.076L238.516 141.283L239.552 141.18L240.38 140.558L240.691 140.04L240.795 139.626V138.901L240.38 138.072L239.655 137.555L239.345 137.451H238.309Z" fill="#1165DE"/>
<path d="M242.556 136.83L243.074 136.933L244.213 138.176L244.627 138.798L245.042 138.59L245.352 138.487L245.559 138.072L246.492 137.037L246.699 136.83L247.217 136.933L247.32 141.905L247.009 142.008L246.492 141.801V138.28L246.077 138.487L245.145 139.626L244.938 139.833L244.524 139.73L243.695 138.694L243.177 138.176L243.074 141.905H242.349V136.933L242.556 136.83Z" fill="#0763C8"/>
<path d="M278.392 136.83L279.013 136.933L280.36 138.383L281.292 139.523L282.017 140.351H282.12L282.224 136.83H282.949V141.905L282.327 141.801L281.085 140.351L279.945 139.108L279.22 138.28L279.117 138.176V142.008L278.392 141.905L278.288 141.801V136.933L278.392 136.83Z" fill="#0D5BC0"/>
<path d="M131.421 136.726L131.836 136.83L131.939 137.037V141.905L131.318 141.801L130.489 140.973L129.764 140.144L128.832 139.005L128.21 138.28L128.003 138.176V141.905H127.278V136.933L127.693 136.83L128.521 137.555L129.661 138.798L130.593 139.937L131.214 140.558V136.933L131.421 136.726Z" fill="#1066C4"/>
<path d="M248.666 136.83H250.738L251.359 137.347L251.566 137.865L251.463 139.005L250.738 139.626L250.22 139.73H249.08L249.184 140.662V141.905H248.355V137.037L248.666 136.83Z" fill="#3D7CB2"/>
<path d="M263.374 136.83L263.892 136.933L264.203 137.347L266.067 141.698V141.905H265.446L264.41 140.248L263.167 140.351L262.856 140.248V140.04H262.649L262.546 140.558L262.028 141.801L261.51 142.008L261.096 141.905L262.235 139.108L263.167 137.037L263.374 136.83Z" fill="#1167C4"/>
<path d="M285.642 136.83L286.16 136.933L286.988 138.487L287.61 140.144L288.438 141.905H287.61L286.885 140.558L286.678 140.248L286.16 140.351H285.228L285.021 140.144L284.192 141.801L283.26 142.008L283.363 141.698L283.674 141.387L284.71 138.694L285.538 136.933L285.642 136.83Z" fill="#0F66C4"/>
<path d="M142.09 78H142.815L143.436 78.3107L143.85 79.1393L143.747 80.175L143.229 81.0036L142.711 81.4179L142.504 81.5215H141.365L140.847 81.2108L140.536 80.5893V79.8643L140.847 78.9322L141.365 78.3107L142.09 78Z" fill="#06305B"/>
<path d="M139.5 136.726L140.743 136.83V137.451L138.464 137.555L138.361 139.005H140.639L140.743 139.108V139.626H138.361V141.18H140.743L140.847 141.283V141.801L140.743 141.905H137.636L137.532 141.698V137.037L137.843 136.83L139.5 136.726Z" fill="#407EB1"/>
<path d="M202.266 136.726H203.405L203.716 136.83V137.451L201.437 137.555L201.333 139.005H203.716V139.626H201.333V141.18H203.716V141.905H200.919L200.608 141.698L200.505 141.283V138.383L200.608 136.933L200.919 136.83L202.266 136.726Z" fill="#407EB1"/>
<path d="M195.43 136.726H196.983L197.812 137.14L198.123 137.658V137.865L197.398 137.762L196.88 137.555H195.533L194.705 138.072L194.291 138.694L194.187 139.315L194.394 140.248L194.912 140.869L195.637 141.18H196.673L197.812 140.765H198.123L197.916 141.387L197.398 141.801L196.466 142.008L195.326 141.905L194.601 141.594L193.98 141.076L193.462 140.144L193.358 139.73V138.901L193.669 137.969L194.291 137.244L195.016 136.83L195.43 136.726Z" fill="#1467C2"/>
<path d="M233.648 136.622L234.58 136.726L235.409 137.14L235.616 137.347V137.865L235.098 137.762L234.58 137.555L233.648 137.451L232.716 137.762L232.094 138.28L231.887 138.694V139.73L232.301 140.662L232.923 141.076L233.337 141.18H234.062L235.409 140.765H235.719L235.616 141.283L234.994 141.801L233.959 142.008L232.923 141.905L232.094 141.49L231.369 140.662L231.059 139.937V138.59L231.576 137.658L232.301 137.037L233.026 136.726L233.648 136.622Z" fill="#1367DD"/>
<path d="M168.19 136.83H168.708L170.262 138.487L171.194 139.626L171.816 140.351L172.333 141.18V141.387H172.541L172.644 141.905L172.126 141.801L170.78 140.248L169.744 139.108L169.019 138.28L168.916 142.008L168.294 141.905L168.087 141.698V136.933L168.19 136.83Z" fill="#1167C4"/>
<path d="M146.026 136.83L146.647 136.933L147.579 138.072L148.615 139.212L149.133 139.833L149.547 140.558L150.272 141.49L150.479 141.594V141.905L149.858 141.801L148.511 140.248L147.579 139.212L146.854 138.28L146.647 138.176L146.751 138.59V141.905L146.129 142.008L145.818 141.905L145.922 136.933L146.026 136.83Z" fill="#1166C3"/>
<path d="M252.603 136.83L253.121 136.933L253.224 140.144L253.535 140.869L254.053 141.18H255.088L255.71 140.765L255.917 140.351H256.124L256.228 139.937L256.331 137.969L256.435 137.14L256.642 137.037L256.849 138.383V139.833L256.642 140.869L256.021 141.594L255.399 141.905L254.985 142.008H254.156L253.328 141.698L252.706 140.973L252.396 140.144L252.292 137.037L252.603 136.83Z" fill="#1065DF"/>
<path d="M265.756 136.83H269.899L270.003 137.347L269.899 137.451H268.242V141.905H267.31L267.206 139.73V137.451H265.652L265.445 137.347L265.549 136.933L265.756 136.83Z" fill="#3F7DB1"/>
<path d="M185.072 136.726H186.211L186.729 137.347L186.522 137.762L186.004 137.658L185.693 137.451H184.968L184.761 137.762L184.865 138.383L186.004 139.212L186.522 139.73L186.833 140.144V140.869L186.522 141.49L185.901 141.905H184.658L184.14 141.594L183.726 140.973V140.765L184.243 140.869L184.968 141.18L185.797 141.076L186.004 140.765L185.901 140.144L184.243 138.901L183.933 138.28L184.036 137.555L184.554 136.933L185.072 136.726Z" fill="#0E65E1"/>
<path d="M155.45 136.83H159.697L159.8 137.347L159.697 137.451H157.936L158.04 141.905H157.108L157.004 137.451H155.347L155.14 137.037L155.45 136.83Z" fill="#3F7DB1"/>
<path d="M215.523 136.83H218.216L218.424 137.037V137.451H216.145V139.005H218.216L218.32 139.108V139.626H216.145L216.249 141.905H215.42V136.933L215.523 136.83Z" fill="#206DBD"/>
<path d="M132.768 136.83H136.911L137.014 136.933V137.451H135.254V140.765L135.15 141.905H134.425L134.321 137.555L132.768 137.451L132.354 137.244V137.037L132.768 136.83Z" fill="#1569C2"/>
<path d="M204.337 136.83H209.412V136.933L208.066 137.037L207.755 137.244L209.205 137.347V137.451H206.823V141.905L206.408 142.008L205.994 141.905L205.891 137.555L204.337 137.451L204.233 137.037L204.337 136.83Z" fill="#407EB1"/>
<path d="M324.689 136.726L325 136.83L324.896 137.244L323.757 138.487L323.136 139.315L323.032 140.04V141.905H322.411L322.307 141.801L322.204 139.419L321.893 138.798L321.064 137.762L320.236 137.244V137.451V137.865L320.028 137.762L319.821 137.244L319.718 137.037L320.546 136.83L321.168 136.933L321.893 137.555L322.618 138.59L323.136 138.072L323.964 137.037L324.689 136.726Z" fill="#125ABB"/>
<path d="M175.44 136.83L175.958 136.933L176.786 138.487L177.615 140.558L178.236 141.801L178.133 142.008L177.408 141.801L176.683 140.455L176.476 140.248L176.061 140.351H175.026L174.715 140.144L174.818 139.523L174.922 139.73H176.372L175.958 138.59L175.543 138.176L175.026 139.419H174.818V138.072L175.44 136.83Z" fill="#0E66C5"/>
<path d="M226.088 137.347H226.917L227.434 137.658L227.642 137.865L227.745 138.694L227.434 139.005L227.745 139.212L227.642 139.73L228.884 141.387L229.092 142.008L228.367 141.905L227.849 141.387L227.02 140.144L226.399 139.73L226.502 139.523H226.813V139.315L226.088 139.108L225.881 138.901V137.969L226.088 137.347Z" fill="#1668C1"/>
<path d="M178.755 136.83H179.273L179.376 137.762L179.48 141.076L179.584 141.18H181.862L181.966 141.594L181.551 141.905H178.755L178.651 141.076V136.933L178.755 136.83Z" fill="#1569C2"/>
<path d="M288.853 136.83H289.37L289.474 136.933L289.578 139.73L289.681 141.18H291.96L292.063 141.698L291.753 141.905H288.956L288.853 141.49L288.749 136.933L288.853 136.83Z" fill="#1D6DBF"/>
<path d="M306.667 136.726L307.185 136.83L307.289 141.18L309.464 141.076L309.671 141.18V141.698L309.256 141.905H306.874L306.564 141.801L306.46 136.933L306.667 136.726Z" fill="#1961BB"/>
<path d="M246.698 136.83L247.216 136.933L247.32 141.905L247.009 142.008L246.491 141.801V138.28L246.077 138.487L245.145 139.626H244.73V139.108L245.248 138.59L245.559 138.072L246.491 137.037L246.698 136.83Z" fill="#0D64C5"/>
<path d="M318.682 139.315H319.925L320.235 139.626L320.339 139.833V141.18L319.925 141.698L318.992 142.008H317.957L317.128 141.698L316.921 141.283L317.024 141.076L317.853 141.18H319.096L319.51 140.869L319.614 140.144L318.682 140.04L318.474 139.937L318.578 139.419L318.682 139.315Z" fill="#1868D6"/>
<path d="M149.961 136.83L150.686 136.933V141.698L151.101 141.594L151.308 141.49V141.698L151.515 141.905H150.479V141.594L150.065 141.387L149.133 140.144L149.236 139.937L149.754 140.455L149.858 136.933L149.961 136.83Z" fill="#3F7DB1"/>
<path d="M160.629 136.726L161.147 136.83L161.251 137.347L161.147 138.383V139.833L161.251 141.905L160.836 142.008L160.422 141.905L160.318 141.283V136.933L160.629 136.726Z" fill="#0F67C7"/>
<path d="M270.831 136.726L271.349 136.83V142.008L270.624 141.905L270.521 141.801V136.933L270.831 136.726Z" fill="#1569C2"/>
<path d="M153.172 136.83L153.69 136.933L154.104 137.555L155.244 140.248L155.865 141.801V142.008L155.14 141.905L154.519 140.662L154.208 139.73V139.419H154.001L153.379 137.762V137.555H153.172L153.068 137.762H152.861L152.965 137.14L153.172 136.83Z" fill="#1067C4"/>
<path d="M248.666 136.83H250.738L251.359 137.347L251.566 137.865L251.463 139.005L250.738 139.626H249.184V139.212L250.116 139.108L250.738 138.798L250.841 138.694V137.969L250.427 137.555L250.013 137.451H248.977L248.77 137.969L248.563 139.005H248.459V136.933L248.666 136.83Z" fill="#176AC2"/>
<path d="M125.414 136.83H126.139V141.905H125.414L125.311 141.801V140.04L125.414 136.83Z" fill="#3E7DB1"/>
<path d="M192.012 138.901H192.116V139.626H192.323L192.53 140.558L191.805 141.387L191.183 141.801L190.458 142.008H189.526L188.905 141.698L188.283 140.869L188.076 140.351L188.387 140.04L188.801 140.662L189.423 141.076L190.355 141.18L191.391 140.662L191.805 140.04L192.012 138.901Z" fill="#1267DE"/>
<path d="M298.9 136.726L299.417 136.83V142.008L298.692 141.905V136.83L298.9 136.726Z" fill="#1E6EBF"/>
<path d="M285.746 137.969H285.953L286.574 139.315V139.73H285.124L284.399 141.49L283.985 141.905L283.26 142.008L283.363 141.698L283.674 141.387L284.71 138.694L285.124 138.487L285.021 139.523H285.228L285.435 138.59L285.746 137.969Z" fill="#1469C4"/>
<path d="M175.544 138.073L176.062 138.59L176.373 139.315V139.73H174.923L174.198 141.49L173.887 141.905H173.369L174.198 139.419L174.716 138.28L174.923 138.487L174.819 139.419H175.026L175.13 138.798L175.441 138.176L175.544 138.073Z" fill="#1469C3"/>
<path d="M146.233 137.347L146.751 137.658L146.854 138.176H146.647L146.751 138.59V141.905L146.129 142.008L145.818 141.905L145.922 137.555L146.129 137.865L146.233 137.347Z" fill="#407EB1"/>
<path d="M164.461 136.622L165.393 136.726L166.222 137.14L166.532 137.451L166.636 138.072L166.532 138.28L165.911 138.072L165.082 137.555H164.254L163.425 137.969L163.218 138.176L162.597 138.072L162.7 137.658L163.011 137.14L163.943 136.726L164.461 136.622Z" fill="#1066E0"/>
<path d="M198.744 136.83H199.366L199.469 136.933V141.905L199.055 142.008L198.744 141.905V136.83Z" fill="#1469C3"/>
<path d="M305.114 139.626L305.425 139.833V140.558L304.7 141.387L303.871 141.905L303.457 142.008H302.525L301.696 141.698L301.593 141.076H301.8L301.903 140.869L302.629 141.18H303.354L304.182 140.765L304.7 140.144L304.907 139.73L305.114 139.626Z" fill="#1367DC"/>
<path d="M252.603 136.83L253.121 136.933L253.224 140.144L253.535 140.869L253.638 141.076L253.224 141.18L253.121 141.49L252.706 140.973L252.396 140.144L252.292 137.037L252.603 136.83Z" fill="#1267C3"/>
<path d="M127.382 136.83L127.9 136.933L128.728 137.762L129.246 138.383L129.143 138.59L128.521 138.072H128.107L127.796 137.658L127.9 138.901V141.801H127.382L127.278 136.933L127.382 136.83Z" fill="#0763C8"/>
<path d="M195.429 136.726H196.983L197.812 137.14L198.122 137.658V137.865L197.397 137.762L196.879 137.555H195.533L194.704 138.072L194.394 138.176L194.083 137.865L194.187 137.347L195.015 136.83L195.429 136.726Z" fill="#1267DE"/>
<path d="M295.274 139.523H296.207L296.932 139.833L297.139 140.144V140.765L296.621 141.18L296.207 141.283H295.378L295.171 141.076V139.626L295.274 139.523Z" fill="#FEFEFD"/>
<path d="M240.691 140.248L240.899 140.558V141.076L240.174 141.698L239.241 142.008H238.413L237.481 141.698L237.17 141.076V140.869L237.895 140.973L238.516 141.18L239.552 141.076L240.691 140.248Z" fill="#1064DE"/>
<path d="M188.491 137.14H188.802L189.009 137.451L188.905 137.865L188.491 138.383L188.284 138.798V140.248L188.18 140.558L188.905 141.49L188.802 141.698L187.973 140.973L187.559 140.144L187.455 139.833V138.694L187.869 137.762L188.491 137.14Z" fill="#0F5ADB"/>
<path d="M249.702 137.347L250.635 137.555L250.945 137.969V138.694L250.635 139.005L250.324 139.108H249.185L249.081 138.901V137.658L249.288 137.451L249.702 137.347Z" fill="#FEFEFD"/>
<path d="M221.116 136.726H222.463L223.291 137.244L223.395 137.865H222.773L222.152 137.555H221.22L220.391 137.969L220.184 138.176H219.873V137.969L219.562 138.072L219.77 137.658L220.391 136.933L221.116 136.726Z" fill="#0F65E0"/>
<path d="M233.648 136.622L234.581 136.726L235.409 137.14L235.616 137.347V137.865L235.098 137.762L234.581 137.555L233.648 137.451L232.716 137.762L232.302 138.072L231.991 137.969L231.888 137.555L232.095 137.14L233.027 136.726L233.648 136.622Z" fill="#1367DD"/>
<path d="M237.273 137.14L237.48 137.244L237.17 137.555L237.273 137.865L237.48 138.073L237.17 138.487L237.066 138.798V139.833L237.584 140.869H237.17L237.377 141.49L236.755 140.973L236.237 140.144L236.134 139.315L236.445 138.073L237.273 137.14Z" fill="#1368C3"/>
<path d="M265.756 136.83H269.899L270.003 137.347L269.899 137.451H268.345L267.517 137.347L267.413 138.59H267.31V137.451H265.652L265.445 137.347L265.549 136.933L265.756 136.83Z" fill="#2B74B9"/>
<path d="M242.556 136.83L243.074 136.933L244.213 138.176L244.627 138.798L245.042 138.59H245.352L244.834 139.108V139.626L244.938 139.833L244.524 139.73L243.695 138.694L243.177 138.176L243.074 141.905H242.97L242.866 138.383L242.763 137.037H242.556L242.452 138.176H242.349V136.933L242.556 136.83Z" fill="#1469C5"/>
<path d="M294.653 136.83H296.518V136.933L294.861 137.037L294.757 137.555L295.378 137.347L295.171 138.176L295.275 138.901H296.518V139.108L295.793 139.315L295.689 139.523L295.275 139.626L295.171 141.076L294.964 140.765V139.626L294.653 139.523L294.55 141.283H294.446V138.28L294.55 136.933L294.653 136.83Z" fill="#1B6BBF"/>
<path d="M197.812 140.765H198.122L197.915 141.387L197.397 141.801L196.465 142.008L195.326 141.905L194.601 141.594L194.29 141.076V140.869H194.911L195.636 141.18H196.672L197.812 140.765Z" fill="#1366DC"/>
<path d="M220.081 137.14L220.288 137.244L219.666 137.969H219.874V138.176L220.081 138.28L219.874 138.798V139.937L220.288 140.765H219.77L220.288 141.387L220.184 141.594L219.666 141.18L219.045 140.144L218.941 139.833V138.901L219.356 137.865L220.081 137.14Z" fill="#1466C3"/>
<path d="M226.088 137.347H226.917L227.434 137.658L227.538 137.762V138.59L227.02 139.108H226.088L225.881 138.901V137.969L226.088 137.347Z" fill="#FEFEFD"/>
<path d="M285.642 136.83L286.16 136.933L286.989 138.487L287.196 139.108V139.626L286.885 139.212L286.678 138.487L286.471 138.383L286.264 138.798L285.953 138.176V137.969H285.746L285.228 139.523H285.021V138.59L284.813 138.694L285.124 137.762L285.642 136.83Z" fill="#165DBA"/>
<path d="M240.277 137.14L240.795 137.451L241.417 138.383L241.52 138.694V139.833L241.21 140.662L240.899 140.973L240.692 140.351L240.381 140.558L240.692 139.626V138.901L240.174 137.865H240.381L240.277 137.14Z" fill="#0F57BC"/>
<path d="M142.608 137.347L143.643 137.451L144.058 137.865V138.487L143.643 139.005L143.436 139.108H142.711L142.4 138.901V137.762L142.608 137.347Z" fill="#FEFEFD"/>
<path d="M278.599 137.244L278.91 137.555L279.013 141.905H278.392L278.288 141.801V139.523L278.495 137.451L278.599 137.244Z" fill="#0E65C5"/>
<path d="M274.146 136.726H275.596L276.424 137.14L276.942 137.658L276.839 138.383L276.631 138.487L275.699 137.762L275.285 137.555H274.353L273.938 137.658V137.14L274.353 136.933L274.146 136.726Z" fill="#0F66E0"/>
<path d="M155.45 136.83H159.697L159.8 137.347H157.833V137.14L157.108 137.451H155.347L155.14 137.037L155.45 136.83Z" fill="#1D6BBF"/>
<path d="M295.378 137.347H296.103L296.621 137.555L296.725 137.762V138.797L296.207 139.005H295.275L295.067 138.59L295.171 137.555L295.378 137.347Z" fill="#FEFEFD"/>
<path d="M317.853 136.726H319.303L319.718 136.933L320.132 137.555V137.762L319.614 137.658L318.889 137.451L317.957 137.555L317.232 137.969H316.921L316.61 137.555L317.025 137.037L317.853 136.726Z" fill="#0D59DE"/>
<path d="M207.962 136.933H209.62L210.345 138.073L210.655 138.694V141.076H210.552L210.448 139.523L209.723 138.383L209.205 137.658V137.347H206.927V137.244L207.962 137.037V136.933Z" fill="#1067C4"/>
<path d="M131.422 136.726L131.836 136.83V141.594L131.526 141.49L131.629 140.662L131.422 140.765L131.318 140.351L131.215 138.176V136.933L131.422 136.726Z" fill="#0862C7"/>
<path d="M139.5 136.726L140.743 136.83V137.451H138.257L138.154 137.865L138.05 137.555L137.843 137.969L137.739 138.901H137.636V136.933L137.843 136.83L139.5 136.726Z" fill="#1167DE"/>
<path d="M168.294 137.762H168.708V139.73L168.605 140.662L168.812 141.905H168.294L168.087 141.698V139.315L168.294 137.762Z" fill="#0F67C5"/>
<path d="M231.991 137.244V137.555L232.198 138.176L231.887 138.694V139.73L232.301 140.765L231.887 140.558L231.473 139.937L231.576 140.558L231.68 140.973L231.369 140.662L231.059 139.937V138.59L231.576 137.658L231.991 137.244Z" fill="#1265C2"/>
<path d="M202.266 136.726H203.405L203.716 136.83V137.451L201.437 137.555L201.126 137.658L200.816 137.555L200.712 137.762L200.608 136.933L200.919 136.83L202.266 136.726Z" fill="#1368DD"/>
<path d="M318.682 139.315H319.925L320.235 139.626L320.339 139.833V141.18L320.132 141.387L319.51 140.973L319.614 140.144L318.682 140.04L318.475 139.937L318.578 139.419L318.682 139.315Z" fill="#1669C2"/>
<path d="M278.392 136.83L279.013 136.933L280.36 138.383L280.981 139.212H280.67L279.738 138.176L279.531 138.072L279.738 138.487H279.427L279.117 138.176V142.008L278.806 141.905H279.013L278.91 141.698L278.806 137.451H278.599L278.495 138.798H278.392L278.288 136.933L278.392 136.83Z" fill="#2368B8"/>
<path d="M201.23 141.18H203.716V141.905H200.919L200.712 141.801V141.387L201.23 141.18Z" fill="#1469DC"/>
<path d="M310.293 140.248L310.914 140.351L311.329 140.869L312.054 141.18H313.089L312.882 141.283L312.779 141.698L313.297 141.801L312.882 142.008H311.95L311.018 141.594L310.293 140.558V140.248Z" fill="#1264DD"/>
<path d="M137.636 141.18L138.154 141.283H140.847V141.801L140.743 141.905H137.636V141.18Z" fill="#1066DF"/>
<path d="M183.726 140.765L184.243 140.869L184.968 141.18L185.797 141.076L186.108 140.869H186.626V141.387L186.108 141.801L185.901 141.905H184.658L184.14 141.594L183.726 140.973V140.765Z" fill="#1167DE"/>
<path d="M295.068 136.933H296.828L297.243 137.451L297.45 137.865L297.346 138.694L297.139 139.212H297.035L296.932 138.694H296.725L296.621 137.762L296.518 137.555L296.103 137.451H295.171L294.757 137.555L294.86 137.037L295.068 136.933Z" fill="#155CBA"/>
<path d="M324.69 136.726L325 136.83L324.897 137.244L323.757 138.487L323.343 139.005L322.825 139.108V138.694L323.032 138.176L323.965 137.037L324.69 136.726Z" fill="#1058C5"/>
<path d="M223.291 137.244L223.809 137.658L224.223 138.383L224.327 139.626L224.12 140.455L223.913 140.04V139.833L223.705 139.937L223.395 140.455L223.291 140.248L223.498 139.626L223.395 138.59L222.98 137.865H223.395L223.291 137.244Z" fill="#155DBD"/>
<path d="M273.835 136.83H274.663L274.353 137.037L274.042 137.14L273.835 137.762L273.317 138.28L272.903 138.901L272.799 139.419H272.696V138.901L272.281 139.005V138.383L272.903 137.451L273.524 136.933L273.835 136.83Z" fill="#0D57DA"/>
<path d="M204.441 136.933H207.858V137.037H206.512L206.305 138.28V141.801H206.098L205.994 137.658L205.891 137.555L204.337 137.451L204.233 137.037L204.441 136.933Z" fill="#0F67C5"/>
<path d="M282.225 136.83H282.95L282.846 140.351L282.742 140.144L282.328 140.248L282.225 136.83Z" fill="#0B65C6"/>
<path d="M212.416 136.83H213.141L213.037 137.244L212.105 138.28L211.587 139.005L211.069 138.901L210.966 138.694L211.277 138.176L212.209 136.933L212.416 136.83Z" fill="#0F59DB"/>
<path d="M309.257 141.076L309.672 141.18V141.698L309.257 141.905H306.875L306.771 141.49L307.186 141.283L309.154 141.18L309.257 141.076Z" fill="#1166DE"/>
<path d="M256.021 136.83L257.16 136.933L257.574 136.83H259.024V136.933L257.885 137.037L258.299 137.244L258.921 137.347V137.451L257.056 137.347L256.849 137.244L256.746 138.072H256.642L256.538 137.14L256.435 137.969L256.331 139.937L256.021 140.351V136.83Z" fill="#175FBB"/>
<path d="M304.492 137.347L304.907 137.451L305.528 138.28L305.632 139.626L305.528 140.248L305.321 139.833L304.907 139.73L304.699 138.487L304.285 137.969V137.762L304.699 137.865L304.492 137.347Z" fill="#0C56D9"/>
<path d="M166.532 137.555L167.05 138.072L167.257 138.59L167.361 139.626L167.154 140.351L166.843 140.04L166.532 139.937L166.325 138.59L166.118 138.176L166.532 138.28V137.555Z" fill="#186BC1"/>
<path d="M282.845 137.037H282.949V141.905L282.535 141.801H282.845L282.638 141.283L282.12 141.076L281.706 140.248L281.81 140.04L282.12 140.351L282.224 137.658H282.327L282.431 140.04L282.742 140.144L282.845 137.037Z" fill="#407EB1"/>
<path d="M294.55 139.315L294.964 139.626L295.068 141.076L296.103 141.283L295.793 141.698L296.518 141.801V141.905H294.861L294.55 141.698V139.315Z" fill="#0E64E1"/>
<path d="M175.129 116.529L175.233 116.84L174.715 118.394L174.508 119.222L173.99 119.947L173.886 120.361L172.954 121.604H172.747L173.058 120.569L173.369 119.947L173.679 119.533H173.886L174.094 118.911L174.508 118.29L175.129 116.529Z" fill="#0B62C3"/>
<path d="M175.543 138.073L176.061 138.59L176.372 139.315V139.73H174.922L175.129 138.798L175.44 138.176L175.543 138.073Z" fill="#FEFEFD"/>
<path d="M285.745 137.969H285.953L286.574 139.315V139.73H285.124L285.435 138.59L285.745 137.969Z" fill="#FEFEFD"/>
<path d="M248.666 136.83H250.323L250.738 137.037L250.634 137.451H248.977L248.77 137.969L248.563 139.005H248.459V136.933L248.666 136.83Z" fill="#0D65C6"/>
<path d="M175.44 136.83L175.958 136.933L176.372 137.658L176.165 138.383L175.854 138.072L175.647 137.658L175.336 138.59L175.026 139.419H174.818V138.072L175.44 136.83Z" fill="#1059BC"/>
<path d="M162.908 137.244V137.555L162.701 137.969L163.115 138.28L162.804 138.798V139.523L162.908 140.144H162.701L162.39 139.73L162.079 139.626L161.976 140.04V138.59L162.493 137.658L162.908 137.244Z" fill="#1367C3"/>
<path d="M314.125 140.144L314.539 140.248L314.643 140.662L314.436 141.18L313.503 141.801H312.675L312.882 141.283H313.089V141.076L313.711 140.662L314.125 140.144Z" fill="#0955E1"/>
<path d="M131.836 137.037H131.94V141.905L131.318 141.801L130.49 140.973L129.765 140.144L129.558 139.626L130.283 140.248L130.8 140.351L131.629 141.49L131.836 141.594V137.037Z" fill="#1F65B9"/>
<path d="M153.172 138.073L153.586 138.28L154.001 139.005L154.104 139.73H152.654L152.965 138.59L153.172 138.073Z" fill="#FEFEFD"/>
<path d="M263.478 138.073L263.996 138.59L264.306 139.419V139.73H262.856L262.96 139.212L263.374 138.176L263.478 138.073Z" fill="#FEFEFD"/>
<path d="M316.714 137.244L316.922 137.348L316.714 137.555L316.922 137.969L317.129 138.073L316.714 138.694L316.611 139.626L316.507 139.937L316.093 140.04V138.798H315.782L315.989 138.176L316.404 137.555L316.714 137.244Z" fill="#1167C3"/>
<path d="M185.073 136.726H186.212L186.73 137.347L186.523 137.762L186.005 137.658L185.694 137.451H184.969L184.866 137.555H184.348L184.555 137.14L184.762 136.83L185.073 136.726Z" fill="#1366DC"/>
<path d="M314.643 137.865L314.954 138.176L315.057 138.59V140.04L314.746 140.765L314.539 140.973V140.351L314.229 140.144V138.487L314.539 138.694L314.643 138.59V137.865Z" fill="#165CBA"/>
<path d="M256.538 137.037H256.642L256.849 138.383V139.833L256.642 140.869H256.435L256.331 140.351L256.124 140.144L256.228 139.937L256.331 137.969L256.435 137.14L256.538 137.037Z" fill="#075BD6"/>
<path d="M151.722 118.911L151.826 119.222L150.893 120.776L150.272 122.019L149.858 122.64L149.754 122.433L149.34 122.537L149.651 122.019L150.168 121.19L150.376 120.983L150.583 120.465L151.618 119.119L151.722 118.911Z" fill="#0D58BE"/>
<path d="M305.113 139.626L305.424 139.833V140.558L304.699 141.387L304.078 141.801H303.042L303.456 141.387L304.388 141.076L304.699 140.765L304.803 139.833L305.113 139.626Z" fill="#0B55DF"/>
<path d="M246.698 137.037L246.802 137.244L246.595 137.762L245.766 138.901L245.041 139.73L244.73 139.626V139.108L245.248 138.59L245.352 138.28L245.766 138.176L246.388 137.347L246.698 137.037Z" fill="#0A56D6"/>
<path d="M276.942 137.865L277.252 138.176L277.46 138.694V140.04L277.252 140.351L277.045 139.833H276.734L276.527 138.383H276.734L276.942 137.865Z" fill="#1569C2"/>
<path d="M263.373 136.83L263.891 136.933V137.244L263.477 137.451L263.684 137.762L263.891 138.383L263.477 138.176L263.063 139.212H262.856L262.752 138.59L262.648 138.176L263.27 136.933L263.373 136.83Z" fill="#1C61B9"/>
<path d="M184.555 136.933L184.762 137.037L184.348 137.555H184.762L184.866 138.383L185.28 138.798L184.762 138.901V139.212L184.348 139.005L183.934 138.28L184.037 137.555L184.555 136.933Z" fill="#1568C4"/>
<path d="M262.028 140.04L262.131 140.351L262.339 140.455L262.235 141.283L262.028 141.801L261.51 142.008L261.096 141.905L261.717 140.351L262.028 140.04Z" fill="#1267DE"/>
<path d="M138.257 118.808V119.119L137.843 119.947L137.636 120.465L137.325 120.879L137.221 121.294L136.289 122.536H136.082L136.289 121.915L136.703 121.086L137.325 120.154L137.532 119.636L138.257 118.808Z" fill="#0B63C2"/>
<path d="M290.717 141.18H291.96L292.064 141.698L291.96 141.801H289.475L289.578 141.49L289.785 141.387H290.717V141.18Z" fill="#0E66E2"/>
<path d="M262.545 138.383H262.856L262.96 139.419L262.649 140.351L262.338 140.765L262.027 140.144L261.82 140.248L262.131 139.315L262.545 138.383Z" fill="#1369C5"/>
<path d="M127.278 137.14H127.382V141.801H127.9L127.796 138.901L127.693 137.555L128.21 138.073L128.003 138.176V141.905H127.278V137.14Z" fill="#407EB1"/>
<path d="M176.268 139.005L176.476 139.212L176.786 140.144L176.683 140.455L176.476 140.248L176.061 140.351H175.026L174.715 140.144L174.818 139.523L174.922 139.73H176.372L176.268 139.005Z" fill="#2670BA"/>
<path d="M313.503 136.933L314.021 137.14L314.642 137.762L314.746 138.59L314.539 138.798L313.917 138.073L313.296 137.658L313.503 136.933Z" fill="#1064DD"/>
<path d="M168.605 137.555L169.019 137.865L168.915 142.008L168.605 141.905L168.708 141.801L168.501 140.662L168.605 139.73V137.555Z" fill="#407EB1"/>
<path d="M320.546 136.83L321.168 136.933L321.893 137.555L321.686 137.658V137.865H321.168L320.236 137.244V137.451V137.865L320.028 137.762L319.821 137.244L319.718 137.037L320.546 136.83Z" fill="#1466CB"/>
<path d="M154.104 139.419L154.312 139.73L154.519 140.248L154.415 140.558L154.208 140.248L153.69 140.351H152.862L152.447 140.144L152.551 139.523L152.654 139.73H154.104V139.419Z" fill="#407EB1"/>
<path d="M267.827 136.933H270.002L269.899 137.451H268.345L267.517 137.244L267.827 136.933Z" fill="#195FCB"/>
<path d="M153.172 136.83L153.69 136.933L154.104 137.555L154.001 138.176L153.897 138.383H153.69L153.379 137.762V137.555H153.172L153.068 137.762H152.861L152.965 137.14L153.172 136.83Z" fill="#0F59BD"/>
<path d="M296.931 138.59H297.035V139.212H297.242L297.346 139.523L297.139 140.144L296.621 139.73L295.688 139.523L295.792 139.212L296.517 139.108V138.798L296.931 138.59Z" fill="#0F66E0"/>
<path d="M181.137 141.283H181.758L181.862 141.698L181.758 141.801H179.376L179.583 141.387L181.137 141.283Z" fill="#0762E9"/>
<path d="M192.219 137.969L192.53 138.073L192.737 139.005V139.833L192.633 140.351H192.426L192.322 139.626H192.115L192.012 138.59H192.219V137.969Z" fill="#0652E2"/>
<path d="M319.407 140.973L319.821 141.076L320.132 141.283L319.925 141.698L319.718 141.801L318.164 141.905V141.387L318.993 141.283L319.407 140.973Z" fill="#0753E2"/>
<path d="M242.349 138.383H242.452L242.556 139.833L242.866 140.04V141.283L242.763 141.49H242.556L242.452 141.801L242.763 141.905H242.349V138.383Z" fill="#407EB1"/>
<path d="M138.361 139.108H140.744L140.64 139.523H138.361V139.108Z" fill="#0662E8"/>
<path d="M310.396 138.176H310.914L310.603 138.901L310.706 140.04L310.81 140.351L310.292 140.248L310.81 141.283L310.499 141.18L309.981 140.351L310.189 139.937L310.292 138.901L310.396 138.176Z" fill="#135CBC"/>
<path d="M250.842 138.694L251.049 138.798L250.945 139.005L251.049 139.419L250.738 139.626H249.185V139.212L250.117 139.108L250.738 138.798L250.842 138.694Z" fill="#0F59DB"/>
<path d="M201.334 139.108H203.613V139.523H201.334V139.108Z" fill="#055FEA"/>
<path d="M295.068 136.933H296.621L296.932 137.347V137.555L296.103 137.451H295.171L294.757 137.555L294.86 137.037L295.068 136.933Z" fill="#0854E1"/>
<path d="M216.041 136.933H218.32V137.347H216.041V136.933Z" fill="#0661EA"/>
<path d="M236.756 139.419L237.067 139.833L237.585 140.869H237.17L237.377 141.49L236.756 140.973L236.445 140.455V140.144H236.652L236.756 139.419Z" fill="#125BBC"/>
<path d="M127.382 136.83L127.9 136.933L128.728 137.762L129.246 138.383L129.143 138.59L128.521 138.072H128.107L127.589 137.244L127.382 137.347L127.278 136.933L127.382 136.83Z" fill="#0B56BC"/>
<path d="M279.531 138.073L279.946 138.28L280.774 139.212L281.085 139.315V139.626L281.188 139.937L280.567 139.73L279.635 138.694L279.531 138.073Z" fill="#0F65C4"/>
<path d="M209.619 137.969L210.344 138.073L210.655 138.694V141.076H210.551L210.448 139.523L209.723 138.383L209.619 137.969Z" fill="#0B55BD"/>
<path d="M223.291 137.244L223.809 137.658L224.12 138.176L223.913 138.901L223.498 139.005L223.188 138.176L222.98 137.865H223.395L223.291 137.244Z" fill="#1369C4"/>
<path d="M231.37 139.833L231.784 140.248L232.095 140.662L232.717 140.973V141.18H232.406L232.82 141.698L232.302 141.594L231.681 141.076L231.37 140.248V139.833Z" fill="#0B55DC"/>
<path d="M179.169 137.347L179.376 137.762L179.48 141.076L179.583 141.18H181.862L181.965 141.594L181.758 141.387H179.376L179.065 140.455L179.169 140.351V137.347Z" fill="#407EB1"/>
<path d="M240.277 137.14L240.795 137.451L241.313 138.176L241.106 138.28L241.002 138.694L240.692 138.901L240.174 137.865H240.381L240.277 137.14Z" fill="#1569C2"/>
<path d="M177.305 140.248L177.615 140.558L178.237 141.801L178.133 142.008L177.408 141.801L177.201 141.387V140.869L177.305 140.558V140.248Z" fill="#145CBB"/>
<path d="M316.507 84.0073H319.718L319.511 84.6287L319.407 84.318H316.714L316.403 84.7323L316.507 84.0073Z" fill="#0F67C5"/>
<path d="M211.07 139.419H211.173L211.277 141.905H210.448V139.523H210.552V141.801H211.173L210.863 141.594L211.07 139.937H210.863L210.966 139.523L211.07 139.419Z" fill="#407EB1"/>
<path d="M305.218 137.969L305.529 138.28L305.632 139.626L305.529 140.248L305.322 139.833L304.907 139.73V138.901H305.114L305.218 138.28V137.969Z" fill="#165DBB"/>
<path d="M216.248 139.108H218.216V139.523H216.248V139.108Z" fill="#0864C9"/>
<path d="M175.544 137.555L175.855 137.762L176.062 138.28L176.269 137.865H176.476L176.787 138.487V138.798H176.58L176.476 139.005L176.373 138.798L176.166 139.005L175.648 138.176L175.337 138.28L175.544 137.555Z" fill="#1567C1"/>
<path d="M298.9 136.726L299.314 136.83V139.523H299.21L299.107 138.798V137.969L299.21 137.762H298.9L298.692 137.244V136.83L298.9 136.726Z" fill="#064FBE"/>
<path d="M257.574 136.83H259.024V136.933L257.885 137.037L258.299 137.244L258.92 137.347V137.451L257.056 137.347L256.849 137.244L256.745 138.072H256.642L256.538 136.933L257.574 136.83Z" fill="#2B74B9"/>
<path d="M161.043 139.833H161.147L161.25 141.905L160.836 142.008V141.698V141.49H160.629L160.525 140.455L160.94 140.351L161.043 139.833Z" fill="#407EB1"/>
<path d="M227.02 136.933L227.745 137.037L228.159 137.658V138.798L227.848 139.108H227.33L227.848 138.487L227.745 137.555L227.33 137.14L227.02 136.933Z" fill="#0D58BE"/>
<path d="M194.601 137.037L195.015 137.14L194.912 137.244L195.119 137.347V137.762L194.601 138.176H194.394L194.083 137.865L194.187 137.347L194.601 137.037Z" fill="#0C57DD"/>
<path d="M168.19 136.83H168.708L169.226 137.347L169.123 137.658L168.605 137.555V137.762H168.294L168.19 138.176L168.087 136.933L168.19 136.83Z" fill="#145DBC"/>
<path d="M179.997 112.179H180.515L180.412 112.593L179.894 113.215H179.479V112.49L179.583 112.283L179.997 112.179Z" fill="#1054B0"/>
<path d="M265.549 136.933H267.206V137.347H265.445L265.549 136.933Z" fill="#0755DD"/>
<path d="M242.763 137.347L243.073 137.451L243.384 138.072L243.281 138.28L243.177 138.176L243.073 141.905H242.97L242.866 138.383L242.763 137.347Z" fill="#407EB1"/>
<path d="M232.509 136.933L232.923 137.037H232.716L232.82 137.658L232.302 138.073L231.991 137.969L231.888 137.555L232.095 137.14L232.509 136.933Z" fill="#0A55E0"/>
<path d="M237.584 136.933H238.309L238.102 137.14L237.895 137.762L237.584 137.969L237.17 137.865V137.451L237.584 136.933Z" fill="#0853E1"/>
<path d="M231.992 137.244V137.555L232.199 138.176L231.785 138.28H231.577L231.37 139.315L231.163 139.419V138.383L231.681 137.555L231.992 137.244Z" fill="#1057BB"/>
<path d="M144.575 140.455L144.99 140.973L145.507 141.801V142.008L144.782 141.905L144.472 141.594L144.575 141.18L144.782 141.283L144.575 140.869V140.455Z" fill="#1961BB"/>
<path d="M153.172 137.555H153.379L153.69 138.176L153.586 138.383L153.172 138.072L152.861 139.212H152.654V138.487L152.965 137.658L153.172 137.555Z" fill="#2166B8"/>
<path d="M150.376 120.983L150.479 121.294L150.272 122.019L149.858 122.64L149.754 122.433L149.34 122.537L149.651 122.019L150.168 121.19L150.376 120.983Z" fill="#0863C7"/>
<path d="M250.945 137.14L251.36 137.347L251.567 137.865L251.463 139.005L251.049 139.315L250.842 138.901L251.153 138.59V137.555L250.945 137.14Z" fill="#0E57BC"/>
<path d="M249.599 136.83H250.324L250.738 137.037L250.634 137.451L249.495 137.347L249.599 136.83Z" fill="#0C64E3"/>
<path d="M154.933 139.937L155.243 140.248L155.865 141.801V142.008L155.14 141.905L155.243 140.973L154.933 140.248V139.937Z" fill="#145CBC"/>
<path d="M298.796 140.144H298.899L299.003 140.869L299.314 140.662V141.905L298.796 141.801V140.144Z" fill="#064FBE"/>
<path d="M284.088 140.765L284.295 140.973V141.698L283.985 141.905L283.26 142.008L283.363 141.698L283.674 141.387L283.778 141.076H283.985L284.088 140.765Z" fill="#186AD8"/>
<path d="M304.078 136.933L304.596 137.14L304.7 137.658V137.865H304.078L303.561 137.451L304.078 136.933Z" fill="#0E64E0"/>
<path d="M259.749 136.83H261.717L261.82 137.347L261.717 137.451H260.06V137.347L261.199 137.244L261.303 137.14L261.095 137.037L259.749 136.933V136.83Z" fill="#2D6FB5"/>
<path d="M322.411 138.487L322.722 138.59L322.929 138.487L322.825 139.005L323.24 139.108L323.033 139.523L322.929 140.351L322.722 140.04L322.411 138.694V138.487Z" fill="#196BC1"/>
<path d="M137.843 136.83H139.086V136.933L138.05 137.037V137.555L137.843 137.969L137.739 138.901H137.636V136.933L137.843 136.83Z" fill="#156AC3"/>
<path d="M174.818 139.523L174.922 139.73H176.165V139.833L175.336 139.937L176.165 140.144L176.061 140.351H175.026L174.715 140.144L174.818 139.523Z" fill="#407EB1"/>
<path d="M198.434 124.712H198.537L198.434 129.683H198.33V125.022L198.123 124.919L198.434 124.712Z" fill="#1067C5"/>
<path d="M245.248 138.59H245.559L245.455 139.315L245.041 139.73L244.73 139.626V139.108L245.248 138.59Z" fill="#0B61E3"/>
<path d="M316.714 137.244L316.921 137.348L316.714 137.555L316.921 137.969L317.129 138.073L316.714 138.487V138.28L316.093 138.176L316.3 137.658L316.714 137.244Z" fill="#135ABB"/>
<path d="M314.229 137.555L314.643 137.762L314.747 138.59L314.539 138.798L313.918 138.072V137.865H314.125L314.229 137.555Z" fill="#0552DF"/>
<path d="M285.021 139.626L286.367 139.73V139.833L285.642 139.937L286.367 140.144L286.16 140.351H285.228L285.021 140.144L284.917 139.937L285.021 139.626Z" fill="#407EB1"/>
<path d="M160.422 137.762H160.526L160.629 139.315L160.733 139.833L160.526 140.04L160.422 141.283H160.318V139.108L160.422 137.762Z" fill="#407EB1"/>
<path d="M304.7 140.144H304.803V140.765L304.286 141.283L303.561 141.387L303.664 141.076L304.493 140.455L304.7 140.144Z" fill="#1167DF"/>
<path d="M286.575 139.315L286.782 139.626L286.989 140.144L286.886 140.558L286.678 140.248L285.746 140.144L285.539 139.833L286.575 139.73V139.315Z" fill="#246FBC"/>
<path d="M220.288 137.14L220.598 137.451L220.495 137.865L220.184 138.176H219.873V137.969L219.562 138.073L219.77 137.658L220.288 137.14Z" fill="#0752E2"/>
<path d="M200.919 136.83H201.955L201.333 137.14L201.437 137.555L201.126 137.658L200.816 137.555L200.712 137.762L200.608 136.933L200.919 136.83Z" fill="#146AC3"/>
<path d="M267.827 136.933H268.863L269.174 137.14L268.967 137.347H267.931L267.517 137.14L267.827 136.933Z" fill="#0662E9"/>
<path d="M148.822 140.351L149.547 140.973L149.962 141.387L150.479 141.594V141.905L149.858 141.801L148.822 140.558V140.351Z" fill="#105BBE"/>
<path d="M170.986 140.248L171.504 140.558L172.022 141.283L172.644 141.698V141.905L172.126 141.801L170.986 140.455V140.248Z" fill="#135BBB"/>
<path d="M186.211 140.869H186.626V141.387L186.108 141.801H185.383L185.797 141.49H186.004L186.211 140.869Z" fill="#0A55E0"/>
<path d="M130.593 140.04L131.214 140.558L131.421 140.351L131.732 140.662V141.18L131.421 141.387L130.593 140.248V140.04Z" fill="#3E7DB1"/>
<path d="M256.745 138.383H256.849V139.833L256.745 140.558L256.538 140.351L256.435 139.108L256.745 138.383Z" fill="#1C62B9"/>
<path d="M265.342 140.662L265.653 140.765L266.067 141.698V141.905H265.445L265.342 141.387L265.445 141.076L265.342 140.662Z" fill="#1159B8"/>
<path d="M186.005 139.315L186.419 139.523L186.833 140.144V140.869L186.626 141.18L186.419 140.455L186.316 140.04L186.108 139.523L186.005 139.315Z" fill="#206FBE"/>
<path d="M309.982 138.694H310.189L310.292 139.523V140.04L309.878 140.144V138.798L309.982 138.694Z" fill="#085AE4"/>
<path d="M246.595 137.658H246.698V141.49H246.595L246.491 138.28L246.284 138.072L246.595 137.658Z" fill="#407EB1"/>
<path d="M143.022 136.933L143.85 137.037L143.747 137.451L142.504 137.347V137.037L143.022 136.933Z" fill="#0F62DF"/>
<path d="M237.274 137.14L237.481 137.244L237.17 137.555L237.274 137.865L237.481 138.073L237.17 138.487H236.963L236.756 138.073L236.549 137.969L237.274 137.14Z" fill="#165DBA"/>
<path d="M173.68 140.869L173.991 140.973L174.094 141.698L173.887 141.905H173.369L173.68 140.869Z" fill="#1368DD"/>
<path d="M153.69 137.347H154L154.104 137.969L153.897 138.383H153.69L153.379 137.762V137.555H153.69V137.347Z" fill="#0C5DC2"/>
<path d="M204.441 136.933H205.373L205.476 137.347H204.233V137.037L204.441 136.933Z" fill="#0756E4"/>
<path d="M287.817 140.973H288.025L288.439 141.905H287.61V141.49H287.817V140.973Z" fill="#125CBD"/>
<path d="M262.752 139.523L262.856 139.73L263.373 139.937L264.098 140.144L263.788 140.351H262.959L262.856 140.04H262.648L262.752 139.523Z" fill="#407EB1"/>
<path d="M257.678 136.933H259.128L259.024 137.347H258.299L257.678 137.037V136.933Z" fill="#064FBE"/>
<path d="M223.705 139.833H223.912L224.016 140.04V140.662L223.705 141.076H223.498L223.602 139.937L223.705 139.833Z" fill="#0954E0"/>
<path d="M132.768 136.83H134.425V137.037L133.182 137.14L132.561 137.244L132.768 136.83Z" fill="#1C61B8"/>
<path d="M231.059 138.59H231.162V139.419H231.369L231.576 140.558L231.68 140.973L231.369 140.662L231.059 139.937V138.59Z" fill="#1A62BB"/>
<path d="M160.422 140.455L160.629 140.558L160.733 141.283L160.629 141.49H160.836L161.043 141.905H160.422V140.455Z" fill="#0D66C6"/>
<path d="M249.185 139.212H250.117V139.523L250.427 139.626H249.185V139.212Z" fill="#055EEA"/>
<path d="M163.218 137.037L163.632 137.14H163.425L163.218 137.762L162.597 138.073L162.7 137.658L163.011 137.14L163.218 137.037Z" fill="#0651E4"/>
<path d="M155.45 137.037H156.693V137.347H155.347L155.45 137.037Z" fill="#0458E8"/>
<path d="M149.961 136.83H150.479L150.582 136.933V138.487H150.479L150.375 137.347L150.065 137.244L149.961 137.451V136.83Z" fill="#0F65C4"/>
<path d="M176.269 138.694L176.89 138.798L177.097 139.523H176.89L176.786 139.315L176.683 139.626H176.476L176.269 138.694Z" fill="#0F5ABD"/>
<path d="M294.653 136.83H296.518V136.933L294.86 137.037L294.757 137.555L294.964 137.658L294.653 138.072V136.83Z" fill="#1961BB"/>
<path d="M242.556 136.83L243.074 136.933L243.488 137.451L242.763 137.244V137.037H242.556L242.452 138.176H242.349V136.933L242.556 136.83Z" fill="#2066B8"/>
<path d="M131.422 136.726L131.733 136.83L131.629 137.347L131.526 137.555H131.318V138.176H131.215V136.933L131.422 136.726Z" fill="#1C61B9"/>
<path d="M143.229 136.933H144.161L144.575 137.555V138.59H144.471L144.264 137.555L143.954 137.14L143.229 137.037V136.933Z" fill="#0E55BC"/>
<path d="M157.522 116.84H157.625V117.565H157.832L157.625 117.979L157.107 118.29L157.418 117.151L157.522 116.84Z" fill="#1463C0"/>
<path d="M246.699 136.83L246.906 136.933L246.181 137.658L245.87 138.176L245.56 138.383V138.072L246.492 137.037L246.699 136.83Z" fill="#1B60BD"/>
<path d="M187.766 140.455H187.973L188.491 140.973L188.905 141.49L188.801 141.698L187.973 140.973L187.766 140.455Z" fill="#185EC8"/>
<path d="M243.799 138.59L244.731 139.212L244.938 139.833L244.524 139.73L243.799 138.798V138.59Z" fill="#125ABB"/>
<path d="M192.322 137.969L192.529 138.073L192.737 139.005V139.833L192.529 139.419L192.322 138.901V137.969Z" fill="#2267B8"/>
<path d="M227.02 136.933L227.745 137.037L228.055 137.451V138.28L227.848 137.969L227.641 137.451L227.33 137.14L227.02 136.933Z" fill="#0B55BD"/>
<path d="M298.9 136.726L299.314 136.83L299.107 137.244V137.762H298.9L298.692 137.244V136.83L298.9 136.726Z" fill="#0A56DD"/>
<path d="M270.831 136.726H271.245V137.451L270.935 137.555L270.728 137.347L270.831 136.726Z" fill="#0A55E0"/>
<path d="M240.795 139.005H240.899L241.002 140.144L240.795 140.558L240.692 140.351L240.381 140.558L240.692 139.626L240.795 139.005Z" fill="#206FC0"/>
<path d="M296.931 138.59H297.035V139.108L296.103 139.419L295.688 139.315L296.103 139.108H296.517V138.798L296.931 138.59Z" fill="#0652E2"/>
<path d="M207.962 136.933L208.48 137.037V137.347H206.927V137.244L207.962 137.037V136.933Z" fill="#0863D8"/>
<path d="M225.881 139.108L226.917 139.212L226.813 139.523L226.192 139.626L225.881 139.108Z" fill="#0751C7"/>
<path d="M297.553 139.73L297.76 139.937V140.973L297.449 141.387L297.553 139.73Z" fill="#1A62BB"/>
<path d="M319.925 136.933H320.546L320.65 137.347L320.132 137.244L320.236 137.865L320.028 137.762L319.821 137.244L319.718 137.037L319.925 136.933Z" fill="#407EB1"/>
<path d="M228.573 141.283L228.884 141.387L229.091 142.008H228.573V141.594L228.366 141.49H228.573V141.283Z" fill="#1A61D1"/>
<path d="M313.917 140.455H314.228L314.021 140.973L313.503 141.18L313.296 140.973L313.917 140.455Z" fill="#1468DC"/>
<path d="M152.861 139.833H154.001V140.144H153.172L152.861 139.833Z" fill="#0864C9"/>
<path d="M263.064 139.73L264.203 139.833L264.099 140.144L263.374 140.04L262.96 139.833L263.064 139.73Z" fill="#0761C7"/>
<path d="M211.484 138.383L211.691 138.59L211.587 139.005L211.069 138.901L210.966 138.694L211.069 138.487L211.484 138.383Z" fill="#0C63E2"/>
<path d="M176.165 137.451L176.372 137.865L176.165 138.383L175.855 138.072L175.751 137.658L176.165 137.451Z" fill="#0B5CC2"/>
<path d="M172.126 136.83H172.747V137.14L172.126 137.451L172.022 136.933L172.126 136.83Z" fill="#1C6DC0"/>
<path d="M158.972 136.933H159.697L159.8 137.347H158.972V137.037V136.933Z" fill="#0C54BC"/>
<path d="M151.722 118.911L151.826 119.222L151.308 120.051L150.894 120.258L151.101 119.844L151.722 118.911Z" fill="#1A62BA"/>
<path d="M175.544 137.555L175.855 137.762L176.062 138.28L175.958 138.59L175.544 138.176L175.337 138.28L175.544 137.555Z" fill="#407EB1"/>
<path d="M151.411 141.18L151.826 141.387L151.722 141.801H151.204L151.411 141.18Z" fill="#0F66E0"/>
<path d="M252.499 140.248L252.913 140.662L253.224 141.18L253.12 141.49L252.706 140.973L252.499 140.558V140.248Z" fill="#1A60BA"/>
<path d="M264.306 139.419L264.513 139.833L264.617 140.351L264.099 140.144L264.203 139.833H263.478V139.73H264.306V139.419Z" fill="#407EB1"/>
</svg>
