<?xml version="1.0" encoding="utf-8"?>
<!-- Generator: Adobe Illustrator 28.0.0, SVG Export Plug-In . SVG Version: 6.00 Build 0)  -->
<svg version="1.1" id="Layer_1" xmlns="http://www.w3.org/2000/svg" xmlns:xlink="http://www.w3.org/1999/xlink" x="0px" y="0px"
	 viewBox="0 0 450 220" style="enable-background:new 0 0 450 220;" xml:space="preserve">
<style type="text/css">
	.st0{fill:#FFE500;}
</style>
<g>
	<path d="M172.6,175.8c0,0-0.2-0.1-0.4-0.1c-0.3,0-0.5-0.1-0.7-0.2c-0.2-0.1-0.4-0.2-0.4-0.2c-0.1,0-0.2,0-0.2-0.1
		c-0.1-0.1-0.2-0.1-0.4,0c-0.1,0-0.6,0.1-1,0.1c-0.6,0-0.7,0-0.9-0.1c-0.1-0.1-0.2-0.2-0.3-0.2c-0.1,0-0.1-0.1-0.1-0.2
		c0-0.1-0.1-0.1-0.1-0.1s-0.3-0.1-0.4-0.2c-0.4-0.2-1.5-0.5-1.9-0.5c-0.4,0-0.6-0.1-0.6-0.2c0-0.1,0-0.1-0.1-0.1
		c0,0-0.1-0.1-0.1-0.2s0-0.2,0.1-0.2c0,0,0.1-0.1,0.1-0.3c0-0.2,0-0.3,0.1-0.3c0.1,0,0.2-0.1,0.3-0.2c0.1-0.1,0.3-0.1,0.4-0.1
		s0.2,0,0.2-0.1c0-0.2,0.6-0.3,1.1-0.3c0.3,0,0.6,0,0.6-0.1c0,0,0.1-0.1,0.3-0.1c0.3,0,0.3,0,0.2-0.1c-0.1-0.1-0.1-0.2-0.1-0.2
		s-0.1-0.1-0.2-0.1c-0.1,0-0.2-0.1-0.2-0.7c0-0.6,0-0.6,0.2-0.6c0.1,0,0.2-0.1,0.2-0.3c0-0.4,0-0.6-0.2-0.6c-0.1,0-0.2-0.1-0.2-0.8
		c0-0.6,0-0.7,0.2-0.8c0.1-0.1,0.2-0.1,0.2-0.2c0-0.1,0.3-0.3,0.4-0.3c0.1,0,0.2-0.1,0.3-0.1c0.1-0.1,0.3-0.1,1-0.2
		c0.9,0,0.9,0,0.9,0.1c0,0.1,0.1,0.2,0.2,0.2c0.2,0,0.2,0.1,0.2,0.4c0,0.2,0.1,0.3,0.1,0.3c0.2,0,0.2,0.5,0.2,2.4
		c0,1.2,0,1.8,0.1,1.8c0,0,0.1,0.2,0.2,0.4c0.1,0.2,0.1,0.4,0.2,0.4c0.1,0,0.1,0.1,0.2,0.2c0,0.1,0.1,0.2,0.2,0.2
		c0.1,0,0.1,0.1,0.2,0.2c0,0.1,0.1,0.2,0.2,0.2c0.2,0,0.9,0.4,0.9,0.6c0,0.1,0.1,0.1,0.2,0.1c0.1,0,0.2,0.1,0.2,0.6
		c0,0.5,0,0.6-0.2,0.6c-0.1,0-0.2,0.1-0.2,0.2c0,0.1-0.1,0.2-0.3,0.2c-0.2,0-0.3,0.1-0.3,0.1s-0.1,0.1-0.2,0.1
		C172.7,175.8,172.6,175.8,172.6,175.8z M172.9,174.7c0,0-0.1-0.2-0.3-0.3c-0.2-0.1-0.3-0.2-0.3-0.3c0-0.1-0.1-0.1-0.2-0.1
		c-0.2,0-1-0.7-1-0.9c0-0.1,0-0.1,0.1,0c0.1,0.1,0.1,0.1,0.1,0c0-0.1-0.1-0.1-0.1-0.1c-0.2,0-0.3-0.1-0.3-0.4c0-0.1-0.1-0.3-0.1-0.3
		c-0.1-0.1-0.1-0.3-0.2-2.2c0-1.2-0.1-2.1-0.1-2.2c0,0-0.1-0.1-0.2-0.2c-0.1-0.2-1.1-0.1-1.1,0.1c0,0.1-0.1,0.1-0.2,0.1
		c-0.2,0-0.2,0.3,0,0.5c0.1,0.1,0.2,0.2,0.2,0.3c0,0.2,0,0.2,0.1,0.2c0.1,0,0.1,0.1,0.1,0.3c0,0.2,0,0.3-0.1,0.3
		c-0.1,0-0.1,0.1-0.1,0.3c0,0.2,0,0.3-0.2,0.3c-0.3,0.1-0.2,0.3,0.2,0.7c0.2,0.2,0.4,0.4,0.4,0.5c0,0.1,0,0.2,0.1,0.3
		c0.1,0.1,0.1,0.2,0,0.2c-0.1,0-0.1,0.2-0.1,0.3c0,0.3-0.1,0.4-0.5,0.4c-0.1,0-0.3,0-0.3,0.1c0,0-0.4,0.1-0.8,0.2
		c-1,0.1-1.1,0.1-1,0.3c0.1,0.1,0.2,0.1,0.3,0.1c0.4,0,1.1,0.4,1.1,0.6c0,0.1,0.1,0.2,0.2,0.2c0.1,0,0.3,0.1,0.4,0.2
		c0.1,0.1,0.3,0.2,0.6,0.2c0.4,0,0.5,0,0.5-0.2c0-0.1,0.1-0.2,0.3-0.2c0.3,0,0.8,0.1,0.8,0.2c0,0,0.1,0.1,0.2,0.1
		c0.1,0,0.3,0.1,0.4,0.2C172,174.7,172.9,174.8,172.9,174.7z M163.9,170.9c-0.1-0.1-0.2-0.2-0.3-0.2c-0.1,0-0.1-0.2-0.1-0.7
		c0-0.5,0-0.6,0.2-0.8c0.1-0.1,0.1-0.1,0.1-0.1c-0.1,0.1-0.1,0.1,0.4-0.6c0.3-0.4,0.3-0.4-0.1-0.1c-0.1,0.1-0.3,0.1-0.3,0.1
		c0,0-0.2,0.1-0.3,0.2c-0.1,0.1-0.3,0.2-0.3,0.2c-0.1,0-0.2,0.1-0.4,0.2c-0.5,0.2-1.1,0.2-1.1,0c0-0.1-0.1-0.1-0.2-0.1
		c-0.1,0-0.2-0.1-0.2-0.7c0-0.6,0-0.7,0.2-0.7c0.1,0,0.2-0.1,0.2-0.2c0-0.1,0-0.3,0.1-0.4c0.1-0.2,0-0.3-0.3-0.4
		c-0.1,0-0.1-0.1-0.1-0.2c0-0.1-0.1-0.1-0.1-0.1c-0.2,0-0.3-0.3-0.3-0.8c0-0.4,0-0.4-0.2-0.4c-0.1,0-0.6,0.1-1.2,0.1c-1,0-1,0-1-0.1
		c0-0.1-0.1-0.2-0.2-0.2c-0.1,0-0.2-0.1-0.2-0.2c0-0.1-0.1-0.2-0.2-0.2c-0.2,0-0.2-0.1-0.2-0.8c0-0.8,0-0.8-0.2-0.8
		c-0.1,0-0.2-0.1-0.2-0.2c0-0.1-0.1-0.2-0.2-0.2c-0.1,0-0.2-0.1-0.2-0.3c0-0.3,0.1-0.7,0.2-0.7c0.1,0,0.3-0.8,0.3-0.9
		c0,0-0.3-0.1-0.6-0.1c-0.7,0-0.8,0-0.8-0.2c0-0.1-0.1-0.1-0.3-0.1c-0.2,0-0.3-0.1-0.5-0.4c-0.1-0.2-0.3-0.4-0.3-0.4
		c0,0-0.1-0.2-0.2-0.2c-0.1-0.1-0.2-0.3-0.2-0.4c0-0.2,0-0.2-0.2-0.2c-0.1,0-0.2-0.1-0.2-0.2c0-0.1,0-0.2-0.1-0.2
		c-0.1,0-0.5-0.3-0.8-0.7c-0.2-0.2-0.2-0.3-0.2-0.9c0-0.6,0-0.7,0.2-0.7c0,0,0-0.1,0.1-0.2c0-0.2,0.5-0.8,0.6-0.8
		c0.1,0,0.1-0.1,0.1-0.1c0-0.1,0.1-0.1,0.2-0.2c0.1,0,0.2-0.1,0.2-0.2s0.1-0.1,0.2-0.2c0.1,0,0.2-0.1,0.2-0.9c0-0.5,0.1-1,0.1-1.2
		c0-0.3,0-0.4,0-0.3c-0.2,0.1-0.7,0-0.7-0.2c0-0.1-0.1-0.1-0.2-0.1c-0.1,0-0.2,0-0.2-0.1c0-0.1-0.1-0.2-0.1-0.2
		c-0.1-0.1-0.1-0.3-0.2-0.5c-0.1-0.4,0.1-1.7,0.2-1.8c0.1,0,0.1-0.4-0.1-0.6c-0.1-0.1-0.3-0.2-0.8-0.2c-0.4,0-0.7,0-0.7,0.1
		c0,0.1-0.5,0.2-0.9,0.2c-0.2,0-0.3,0-0.4,0.1c-0.1,0.1-0.3,0.1-0.5,0.2c-0.4,0-0.4,0-0.5-0.1c0-0.1-0.1-0.2-0.2-0.2
		c-0.1,0-0.2-0.1-0.2-0.3c0-0.3,0.1-0.6,0.3-0.6c0,0,0.1,0,0.1-0.1c0-0.2,0.4-0.9,0.5-0.9c0.1,0,0.1-0.1,0.1-0.2
		c0-0.2,0.2-0.7,0.3-0.7c0,0,0.1-0.1,0.1-0.2c0-0.1,0.1-0.3,0.1-0.4c0.1-0.1,0.2-0.3,0.2-0.3c0-0.1,0.1-0.1,0.2-0.1
		c0.1,0,0.1-0.1,0.2-0.2c0.2-0.3,1.7-0.2,2,0.1c0,0,0.2,0.1,0.3,0.1c0.3,0.1,0.4,0,0.4-0.6c0-0.4,0-0.6,0.2-0.8
		c0.1-0.2,0.2-0.4,0.2-0.5c0-0.1,0.1-0.3,0.2-0.3c0.1-0.1,0.1-0.2,0.1-0.2c0-0.1,0.1-0.2,0.2-0.2c0.1,0,0.2-0.1,0.2-0.2
		c0-0.3,0.1-0.4,0.2-0.4c0.1,0,0.1-0.1,0.1-0.2c0-0.2,0.2-0.9,0.3-0.9c0,0,0.1-0.1,0.1-0.2c0-0.1,0-0.2-0.1-0.2
		c-0.1,0-0.1-0.1-0.2-0.2c0-0.1-0.3-0.4-0.6-0.6c-0.3-0.2-0.5-0.4-0.5-0.5c0-0.1-0.1-0.1-0.2-0.1c-0.1,0-0.2-0.1-0.2-0.7
		c0-0.7,0.1-1,0.2-1c0.1,0,0.1-0.1,0.1-0.3c0-0.4,0.2-1.3,0.3-1.3c0.1,0,0.1-2.3,0-2.3c-0.1,0-0.2-1.3-0.2-2.2c0-0.7,0-0.8-0.2-0.8
		c-0.1,0-0.2,0-0.2,0.1c0,0.1-0.4,0.2-0.6,0.2c-0.1,0-0.2,0.1-0.2,0.2c0,0.2-0.1,0.2-0.6,0.2c-0.5,0-0.6,0-0.7-0.2
		c0-0.1-0.1-0.2-0.2-0.2c-0.1,0-0.1-0.1-0.1-0.2c0-0.1-0.1-0.2-0.2-0.2c-0.1,0-0.2-0.1-0.2-0.1c0-0.1-0.1-0.2-0.2-0.2
		c-0.1-0.1-0.2-0.2-0.2-0.3c0-0.1,0-0.2-0.1-0.2c-0.1,0-0.2-0.2-0.2-0.5c0-0.1,0-0.2-0.1-0.3c-0.1-0.1-0.3-0.6-0.3-1
		c0-0.2,0-0.3-0.1-0.3c-0.1,0-0.2-1-0.2-1.8c0-0.8,0.1-1.8,0.2-1.8c0.1,0,0.1-2.6,0-2.6c-0.1,0-0.2-0.4-0.2-0.7
		c0-0.1-0.1-0.3-0.1-0.3c-0.1-0.1-0.1-0.3-0.2-0.5c0-0.2-0.1-0.4-0.1-0.4c-0.2,0-0.2-0.9-0.2-2.3c0-1.3,0-1.5,0.2-1.5
		c0.1-0.1,0.1-0.2,0.1-0.3c0-0.2,0.1-0.3,0.2-0.3c0.1-0.1,0.2-0.2,0.2-0.3c0-0.1,0-0.2,0.1-0.2c0,0,0.2-0.3,0.3-0.5
		c0.1-0.2,0.3-0.4,0.3-0.4c0.1,0,0.1-0.5,0.1-1.3c0-1.2,0.1-1.7,0.2-1.7c0,0,0.1-0.2,0.1-0.5c0-0.2,0.1-0.6,0.2-0.7s0.1-0.4,0.2-0.6
		c0-0.2,0.1-0.4,0.2-0.4c0.1,0,0.1-0.3,0.2-0.5c0-0.2,0.1-0.6,0.2-0.7c0.1-0.2,0.2-0.5,0.2-0.7c0.1-0.3,0.1-0.5,0.2-0.5
		c0.1,0,0.1-0.1,0.1-0.5c0-0.5,0.2-1.2,0.3-1.2c0,0,0.1-0.3,0.1-0.6c0-0.7,0.2-2,0.3-2c0,0,0.1-0.7,0.1-1.7c0-0.9,0-1.7-0.1-1.7
		c-0.1,0-0.3-1.6-0.3-2.4c0-0.3,0-0.5-0.1-0.5c-0.1,0.1-0.2-0.5-0.2-1c0-0.4,0-0.5-0.1-0.5c-0.2,0-0.3-0.3-0.3-0.7
		c0-0.2-0.1-0.3-0.1-0.4c-0.1-0.1-0.1-0.3-0.2-1.3c0-1.2,0-1.3,0.2-1.9c0-0.1,0.1-1,0.2-2c0.1-1.5,0.1-1.9,0.2-1.9
		c0.1-0.1,0.1-0.3,0.1-0.8c0-0.9,0.1-1.2,0.2-1.2c0.1,0,0.1-0.2,0.1-0.7c0-0.7,0.1-1.7,0.3-1.7c0,0,0.1-0.3,0.1-0.7
		c0-0.8,0.2-2,0.3-2c0,0,0.1-0.2,0.1-0.5c0-0.6,0.2-1.8,0.3-1.9c0.1-0.1,0.1-6.8,0-6.9c-0.2-0.1-0.3-0.9-0.3-1.7
		c0-0.9,0.1-1.9,0.2-1.9c0,0,0.1-0.2,0.1-0.5c0-0.6,0.2-1.5,0.3-1.5c0.1,0,0.1-0.3,0.1-0.9c0-0.7,0.1-0.9,0.2-1
		c0.1-0.1,0.1-0.2,0.1-0.8c0-0.8,0.2-2.2,0.3-2.2c0.1,0,0.1-4.3,0-4.4c-0.1,0-0.2-1.8-0.2-2.9c0-0.6,0-1-0.1-1
		c-0.1,0-0.2-0.6-0.2-1.3c0-0.6,0-0.7,0.2-0.7c0.1,0,0.2-0.1,0.2-0.2s0-0.2,0.2-0.2c0.1,0,0.2-0.1,0.2-0.1c0-0.1,0.1-0.1,0.1-0.2
		c0.1,0,0.3-0.2,0.4-0.4c0.2-0.2,0.3-0.3,0.4-0.3c0.1,0,0.1-0.1,0.1-0.2c0-0.1,0.1-0.4,0.2-0.6c0.1-0.2,0.2-0.5,0.2-0.6
		c0-0.4,0.1-0.5,0.2-0.5c0.1,0,0.1-0.1,0.1-0.1c0-0.2,0.1-0.2,0.4-0.2c0.1,0,0.2,0,0.2-0.1c0-0.1,0.1-0.1,0.3,0
		c0.2,0,0.4,0.1,0.5,0.1c0.2,0,0.2,0.1,0.2,0.2c0,0.1,0.1,0.2,0.2,0.2c0.1,0,0.2,0.1,0.2,0.1c0,0.1,0.1,0.2,0.2,0.2
		c0.1,0,0.2,0.1,0.2,0.3c0,0.1,0.1,0.3,0.2,0.5c0.1,0.1,0.2,0.3,0.2,0.4c0,0.1,0,0.2,0.1,0.2c0.1,0,0.3,0.5,0.3,0.9
		c0,0.2,0,0.4,0.1,0.4s0.1,0.1,0.2,0.3c0.1,0.2,0.3,0.5,0.6,0.8c0.3,0.3,0.5,0.6,0.5,0.7c0,0.1,0.1,0.2,0.2,0.2
		c0.1,0,0.2,0.1,0.2,0.1c0,0.1,0.1,0.2,0.2,0.2c0.1,0.1,0.2,0.2,0.2,0.3c0,0.1,0,0.2,0.1,0.2c0,0,0.1,0.1,0.1,0.2
		c0,0.1,0,0.2-0.1,0.2c0,0-0.1,0.2-0.1,0.4c0,0.3,0,0.4-0.2,0.6c-0.2,0.2-0.2,0.2-0.2,1.6c0,0.8,0,1.4,0.1,1.5c0,0,0.1,0.3,0.2,0.7
		c0.1,0.7,0.3,1,0.7,1c0.2,0,0.8,0.6,0.8,0.8c0,0.1,0,0.2,0.1,0.2c0.1,0,0.3,0.6,0.3,1.1c0,0.3,0,0.5,0.1,0.5c0.1,0,0.2,0.6,0.2,1.5
		c0,0.7,0,0.8,0.2,0.9c0.1,0.1,0.2,0.2,0.2,0.4c0,0.1,0,0.2,0.1,0.2c0.1,0,0.6,0.5,0.6,0.6c0,0,0.1,0.1,0.3,0.1
		c0.2,0,0.3,0.1,0.3,0.2c0,0.1,0.1,0.1,0.5,0.1c0.5,0,0.5,0,0.5,0.2c0,0.1,0.1,0.2,0.2,0.2c0.1,0,0.2,0.1,0.2,0.7
		c0,0.7-0.1,1.6-0.3,1.6c0,0-0.1,0.2-0.1,0.4c0,0.5-0.3,1.2-0.6,1.2c-0.1,0-0.2,0.1-0.2,0.2c0,0.3-0.5,0.8-0.8,0.8
		c-0.1,0-0.2,0-0.2,0.2c0,0.1-0.1,0.2-0.2,0.2c-0.1,0-0.2,0-0.2,0.1c0,0.1-0.2,0.2-0.5,0.2c-0.2,0-0.2,0-0.2,0.1
		c0,0.2-0.1,0.2-0.4,0.2c-0.1,0-0.2,0.1-0.2,0.2c0,0.1-0.1,0.2-0.2,0.2c-0.1,0-0.1,0.1-0.3,1c0,0.2-0.1,0.4-0.2,0.4
		c-0.1,0-0.1,0.1-0.1,0.4c0,0.2,0,0.4-0.2,0.5c-0.2,0.2-0.2,1.1,0,1.1c0.1,0,0.2,0.2,0.2,0.4c0,0.1,0,0.2,0.1,0.2
		c0.2,0.1,0.3,0.9,0.3,2.8c0,1.6,0,2-0.1,2.2c-0.1,0.1-0.2,0.2-0.2,0.2s-0.1,0.1-0.1,0.2c0,0.1,0,0.2-0.2,0.2
		c-0.1,0-0.2,0.1-0.2,0.2c0,0.1-0.2,0.4-0.7,0.9c-0.4,0.4-0.7,0.7-0.7,0.8c0,0-0.1,0.1-0.1,0.1c-0.1,0-0.1,0.1-0.2,0.2
		c0,0.1-0.1,0.2-0.2,0.2c-0.1,0-0.1,0.1-0.1,0.2c0,0.1-0.1,0.2-0.2,0.2c-0.1,0-0.2,0.1-0.2,0.2c0,0.1-0.1,0.3-0.1,0.4
		c-0.1,0.1-0.2,0.3-0.2,0.5c-0.1,0.8-0.2,1.2-0.3,1.2c-0.1,0-0.1,0.5-0.1,1.4c0,1.4-0.1,2.2-0.2,2.2c0,0-0.1,0.2-0.1,0.4
		c0,0.6-0.1,0.9-0.2,0.9c-0.1,0-0.1,0.1-0.1,0.3c0,0.4-0.1,0.7-0.2,0.7c-0.1,0-0.1,0.1-0.1,0.3c0,0.4-0.2,1-0.3,1
		c0,0-0.1,0.6-0.1,1.3c0,1.2,0,1.3,0.2,1.5c0.1,0.1,0.2,0.2,0.2,0.3c0,0.1,0.1,0.3,0.2,0.4c0.1,0.2,0.2,0.4,0.2,0.6
		c0,0.2,0,0.3,0.1,0.3c0.1,0,0.2,0.2,0.2,0.4c0,0.1,0,0.2,0.1,0.2c0.1,0,0.3,0.4,0.3,0.7c0,0.2,0,0.3,0.1,0.3c0.1,0,0.3,0.3,0.3,0.7
		c0,0.2,0,0.3,0.1,0.3c0.1,0,0.2,0.4,0.2,0.8c0,0.1,0,0.3,0.1,0.3c0.1,0,0.3,0.8,0.3,1.4c0,0.3,0,0.6,0.1,0.6c0,0,0.1,0.2,0.1,0.5
		c0,0.3,0,0.5-0.1,0.5c0,0-0.1,0.2-0.1,0.4c0,0.4-0.1,0.8-0.3,0.8c0,0-0.1,0.1-0.1,0.2c0,0.2-0.2,0.6-0.3,0.6c0,0-0.1,0.1-0.1,0.2
		c0,0.2-0.1,0.5-0.3,0.5c-0.1,0-0.1,0.2-0.1,1c0,0.6,0,1,0.1,1c0.1-0.1,0.3,0.8,0.3,1.4c0,0.6-0.1,1.2-0.3,1.2c0,0-0.1,0.1-0.1,0.2
		c0,0.1-0.1,0.3-0.2,0.3c-0.1,0.1-0.1,0.2-0.2,0.3c0,0.1-0.1,0.2-0.2,0.2c-0.1,0-0.1,0.1-0.1,0.1c0,0.2-0.4,0.8-0.5,0.8
		c0,0-0.1,0.1-0.1,0.3c0,0.2-0.1,0.3-0.2,0.4c-0.1,0-0.2,0.1-0.2,1.2c0,0.9,0,1.2,0.1,1.2c0.1,0,0.3,0.4,0.3,0.8
		c0,0.1,0,0.3,0.1,0.3c0.1,0,0.1,0.2,0.2,0.3c0,0.1,0.1,0.4,0.2,0.6c0.1,0.2,0.2,0.5,0.2,1.1c0,0.9-0.1,1.3-0.2,1.3
		c-0.1,0-0.1,0.1-0.1,0.3c0,0.2-0.1,0.4-0.1,0.5c-0.1,0.1-0.2,0.4-0.2,0.5c-0.1,0.2-0.1,0.3-0.2,0.3c-0.1,0-0.1,0.1-0.1,0.3
		c0,0.4-0.1,0.9-0.2,0.9c0,0-0.1,0.8-0.1,2.2c0,1.3,0,2.2,0.1,2.2c0.1,0,0.2,0.8,0.2,1.7c0,0.6,0,0.9,0.1,1c0.1,0,0.2,1.3,0.2,2.5
		c0,1.2,0,1.4,0.3,1.6c0.1,0.1,0.2,0.2,0.2,0.3s0.1,0.1,0.1,0.1c0.1,0,0.2,0.2,0.2,0.5c0,0.2,0,0.2,0.2,0.3c0.1,0,0.2,0.1,0.2,0.5
		c0,0.3,0,0.4,0.1,0.4c0.2,0,0.2,0.3,0.2,1c0,0.5,0,0.7,0.1,0.7c0.1,0,0.1,0.1,0.1,0.2c0,0.2,0.3,0.5,0.4,0.5c0,0,0.1,0,0.1,0.1
		c0,0.1,0.1,0.1,0.2,0.2c0.1,0,0.3,0.2,0.5,0.3c0.2,0.2,0.3,0.4,0.2,0.6l0,0.3c0,0.4,0,0.8,0,1c0,0.2,0,1.8,0,3.6
		c0,3.2,0,4.1-0.2,4.1c0,0-0.1,0.2-0.1,0.5c0,0.3-0.1,0.5-0.2,0.5c-0.2,0.1-0.2,1.9,0,2c0.2,0.1,0.2,1.2,0.1,1.8
		c-0.1,0.3-0.1,0.5-0.2,0.5c0,0-0.1,0.2-0.1,0.4c0,0.3-0.1,0.5-0.2,0.5c-0.1,0.1-0.1,0.2-0.1,0.3s-0.1,0.3-0.2,0.5
		c-0.1,0.1-0.2,0.3-0.2,0.4c0,0.2-0.2,0.5-0.3,0.5c-0.1,0-0.1,0.1-0.1,0.2c0,0.3-0.1,0.4-0.2,0.4c-0.1,0-0.1,0.1-0.1,0.5
		c0,0.4,0,0.5,0.1,0.5c0.1,0,0.1,0.1,0.2,0.3c0,0.2,0.1,0.3,0.2,0.3c0.1,0,0.2,0.1,0.2,0.2c0,0.1,0.1,0.2,0.2,0.2
		c0.1,0,0.2,0.1,0.2,0.2c0,0.1,0.1,0.2,0.2,0.2c0.1,0,0.3,0.1,0.4,0.2c0.1,0.1,0.3,0.2,0.5,0.2c0.4,0,0.6,0.1,0.6,0.2
		c0,0.1,0.1,0.1,0.2,0.1c0.1,0,0.2,0.1,0.2,0.1c0,0.1,0.1,0.2,0.2,0.3c0.1,0.1,0.2,0.3,0.2,0.6c0,0.2,0,0.4,0.1,0.4
		c0.1,0,0.3,0.7,0.3,1.2c0,0.2,0,0.4,0.1,0.4c0,0,0.1,0.1,0.2,0.2c0.1,0.3,0.5,0.4,1.3,0.5c0.4,0.1,0.8,0.1,0.8,0.2
		c0.1,0,1.1,0.1,2.2,0.1c2.2,0,2.5,0.1,2.6,0.5c0,0.1,0.1,0.2,0.1,0.3c0.1,0,0.1,0.1,0,0.2c-0.1,0.1-0.1,0.2-0.1,0.3
		c0,0.1-0.1,0.1-0.2,0.1c-0.1,0-0.2,0-0.2,0.2c0,0.1-0.1,0.2-0.2,0.2c-0.1,0-0.2,0.1-0.2,0.1c0,0.2-0.4,0.4-0.5,0.3
		c-0.1,0-0.1,0,0,0c0.1,0.1-0.1,0.3-0.3,0.3c0,0-0.2,0.1-0.3,0.2c-0.1,0.1-0.3,0.2-0.4,0.2c-0.2,0-0.2,0-0.2,0.2
		c0,0.1,0,0.2-0.1,0.2s-0.1,0.1-0.1,0.2c0,0.1,0,0.2-0.1,0.2c-0.1,0-0.1,0.5-0.1,1.3c0,1.4,0,1.7-0.2,1.7c-0.1,0-0.1,0.1-0.1,0.2
		c0,0.3-0.1,0.4-0.4,0.6c-0.3,0.2-0.3,0.2-1.2,0.2C164.2,171,164,171,163.9,170.9z M165.6,169.8c0.2-0.2,0.2-0.3,0.2-1.5
		c0.1-1.6,0.1-2,0.2-2c0.1,0,0.1-0.1,0.1-0.2c0-0.1,0.1-0.2,0.2-0.2c0.1,0,0.2-0.1,0.2-0.2c0-0.1,0.1-0.2,0.2-0.2
		c0.1,0,0.2-0.1,0.2-0.1c0-0.1,0.2-0.3,0.5-0.3c0.1,0,0.2-0.1,0.2-0.2c0-0.1,0.1-0.2,0.2-0.2c0.2,0,0.3-0.2,0.2-0.3c0,0-0.6,0-1.3,0
		c-1.4,0-2.7-0.1-2.8-0.2c0,0-0.2-0.1-0.4-0.1c-0.5,0-1.3-0.3-1.3-0.6c0-0.1-0.1-0.2-0.2-0.2c-0.1,0-0.2-0.1-0.2-0.2
		c0-0.1,0-0.2-0.1-0.2c-0.1,0-0.3-0.6-0.3-1.1c0-0.4,0-0.5-0.1-0.5c-0.1,0-0.1-0.1-0.2-0.4c-0.1-0.8-0.2-0.9-0.8-0.9
		c-0.1,0-0.3-0.1-0.4-0.2c-0.1-0.1-0.3-0.2-0.3-0.2c-0.1,0-0.1-0.1-0.1-0.2c0-0.1-0.1-0.2-0.2-0.2c-0.2,0-0.9-0.6-0.9-0.9
		c0-0.1,0-0.2-0.2-0.2c-0.1,0-0.2-0.1-0.2-0.3c0-0.2,0-0.3-0.1-0.3c-0.2,0-0.2-0.2-0.2-0.7c0-0.6,0.1-1,0.2-1c0.1,0,0.1-0.1,0.1-0.3
		c0-0.2,0-0.3,0.2-0.3c0.1,0,0.2-0.1,0.2-0.3c0-0.2,0.1-0.4,0.1-0.5c0.1-0.1,0.2-0.4,0.2-0.5c0-0.2,0.1-0.3,0.2-0.3
		c0.1,0,0.1-0.1,0.1-0.3c0-0.4,0.2-1.1,0.3-1.1c0.1,0,0.1-0.1,0.1-0.5c0-0.3,0-0.5-0.1-0.5c-0.1,0-0.3-0.6-0.3-1.3
		c0-0.7,0.1-1.7,0.3-1.7c0.1,0,0.1-0.2,0.1-0.6c0-0.4,0.1-0.6,0.2-0.7c0.1-0.1,0.1-0.3,0.1-2.1c0-1.3,0-2-0.1-2c0,0-0.1-0.2-0.1-0.5
		c0-0.3,0-0.5,0.1-0.5c0,0,0.1-0.3,0.1-0.6c0-0.5,0-0.7-0.2-0.9c-0.1-0.2-0.2-0.4-0.2-0.5c0-0.3,0.1-0.7,0.2-0.7
		c0.1,0,0.1-0.1,0.1-0.3c0-0.2,0-0.3-0.2-0.3c-0.1,0-0.2-0.1-0.2-0.2c0-0.1-0.1-0.2-0.2-0.2c-0.3,0-0.8-0.5-0.8-0.7
		c0-0.1,0-0.2-0.1-0.2c-0.1,0-0.2-0.7-0.2-1.4c0-0.3,0-0.5-0.1-0.6c-0.1-0.1-0.1-0.3-0.2-0.5c0-0.3-0.1-0.4-0.1-0.4
		c-0.1,0-0.3-0.3-0.3-0.5c0-0.1-0.1-0.1-0.2-0.1c-0.1,0-0.2-0.1-0.2-0.2c0-0.1-0.1-0.2-0.2-0.3c-0.1-0.1-0.2-0.3-0.2-1.5
		c0-0.7,0-1.3-0.1-1.3c-0.1,0-0.3-1.9-0.3-2.9c0-0.6,0-0.8-0.1-0.8c-0.2,0-0.2-0.6-0.2-3.1c0-2.1,0-2.3,0.2-2.4
		c0.1-0.1,0.1-0.2,0.1-0.4c0-0.4,0.1-0.7,0.2-0.7c0.1,0,0.1-0.1,0.1-0.3c0-0.1,0.1-0.4,0.1-0.5c0.1-0.1,0.2-0.4,0.2-0.6
		c0.1-0.2,0.1-0.3,0.2-0.3c0,0,0.1-0.3,0.1-0.8c0-0.4,0-0.8-0.1-0.8c-0.1,0-0.3-0.4-0.3-0.6c0-0.1-0.1-0.3-0.2-0.4
		c-0.1-0.1-0.2-0.3-0.2-0.6c0-0.3,0-0.4-0.1-0.4c-0.2,0-0.2-0.5-0.2-1.8c0-1,0-1.1,0.2-1.2c0.1-0.1,0.1-0.2,0.1-0.3
		c0-0.2,0.1-0.4,0.2-0.4c0.1,0,0.1-0.1,0.1-0.2c0-0.1,0.1-0.3,0.2-0.3c0.1-0.1,0.2-0.2,0.2-0.3c0-0.1,0.1-0.2,0.2-0.2
		c0.1,0,0.2-0.1,0.2-0.2c0-0.2,0.1-0.3,0.2-0.3c0.1-0.1,0.2-0.2,0.2-0.2c0-0.1,0.1-0.2,0.2-0.3c0.2-0.3,0.2-1.4,0-1.5
		c-0.1-0.1-0.1-0.3-0.2-1.3c0-1.3,0-1.7,0.2-1.7c0.1,0,0.1-0.1,0.1-0.3c0-0.2,0-0.3,0.2-0.3c0.1,0,0.2-0.1,0.2-0.3
		c0-0.1,0.1-0.4,0.2-0.5c0.2-0.4,0.4-1.4,0.3-2c0-0.3-0.1-0.7-0.1-0.9c0-0.2,0-0.3-0.1-0.3c-0.1,0-0.3-0.7-0.3-1
		c0-0.2,0-0.3-0.1-0.3c-0.1,0-0.2-0.2-0.2-0.7c0-0.2,0-0.3-0.1-0.3c-0.1,0-0.2-0.2-0.2-0.5c0-0.1,0-0.2-0.1-0.2
		c-0.1,0-0.3-0.4-0.3-0.7c0-0.2,0-0.3-0.1-0.3c-0.1,0-0.3-0.3-0.3-0.6c0-0.1,0-0.2-0.1-0.2c-0.1,0-0.3-0.5-0.3-0.7
		c0-0.1-0.1-0.2-0.1-0.3c-0.1-0.1-0.1-0.3-0.1-1.6c0-1.3,0-1.6,0.1-1.8c0.1-0.1,0.1-0.4,0.1-0.5c0-0.3,0.2-0.7,0.2-0.7
		c0,0,0.1-0.1,0.1-0.2c0-0.3,0.2-0.8,0.3-0.8c0.1,0,0.1-0.3,0.1-0.8c0-0.6,0.1-0.8,0.2-0.9c0.1-0.1,0.1-0.3,0.1-1.4
		c0-1.3,0.1-2.5,0.2-2.6c0,0,0.1-0.2,0.1-0.5c0-0.3,0.1-0.5,0.2-0.5c0.1-0.1,0.1-0.2,0.1-0.3c0-0.1,0.1-0.2,0.2-0.3
		c0.1-0.1,0.2-0.2,0.2-0.2c0-0.1,1.8-2.1,2-2.1c0.1,0,0.1-0.1,0.1-0.2c0-0.1,0.1-0.2,0.2-0.2c0.1,0,0.1-0.1,0.1-0.1
		c0-0.1,0.1-0.2,0.2-0.3c0.1-0.2,0.2-0.3,0.2-2.2c0-1.1,0-2-0.1-2c-0.1,0-0.3-0.5-0.3-0.8c0-0.2,0-0.3-0.1-0.3c-0.1,0-0.2-0.3-0.2-1
		c0-0.5,0.1-1,0.2-1c0,0,0.1-0.2,0.2-0.5c0.1-0.3,0.1-0.5,0.2-0.5c0,0,0.1-0.2,0.1-0.5c0-0.4,0-0.5,0.1-0.5c0.1,0,0.1,0,0.1-0.1
		c-0.1-0.1,0.4-0.6,0.6-0.6c0.1,0,0.2-0.1,0.3-0.2c0.1-0.1,0.2-0.2,0.3-0.2c0.1,0,0.2-0.1,0.3-0.2c0.1-0.1,0.2-0.2,0.3-0.2
		c0.2,0,0.2,0,0.2-0.2c0-0.1,0.1-0.2,0.2-0.2c0.2,0,0.2,0,0.2-0.2c0-0.1,0.1-0.2,0.2-0.2c0.1,0,0.2-0.1,0.2-0.2
		c0-0.1,0.1-0.2,0.2-0.2c0.1,0,0.1-0.1,0.2-0.2c0-0.1,0.1-0.3,0.2-0.3c0.1-0.1,0.2-0.4,0.2-0.8c0.1-0.4,0.1-0.6,0.2-0.6
		c0,0,0.1-0.2,0.1-0.5v-0.2c0-0.2-0.1-0.3-0.3-0.4c-0.2,0-0.3-0.1-0.3-0.2c0-0.1-0.1-0.1-0.3-0.1c-0.3,0-0.3,0-0.3-0.2
		c0-0.1-0.1-0.2-0.2-0.2c-0.3,0-0.8-0.5-0.8-0.8c0-0.2,0-0.2-0.2-0.2c-0.1,0-0.2-0.1-0.2-0.3c0-0.2,0-0.3-0.2-0.3
		c-0.1,0-0.2-0.1-0.2-1c0-0.7,0-1-0.1-1c-0.1-0.1-0.2-0.4-0.2-0.8c-0.1-0.7-0.4-1.5-0.5-1.5c-0.1,0-0.5-0.2-0.5-0.3
		c0,0-0.1-0.1-0.1-0.1c-0.1,0-0.1-0.1-0.2-0.1c0-0.1-0.1-0.2-0.2-0.3c-0.1-0.1-0.2-0.3-0.2-0.5c0-0.2,0-0.3-0.1-0.4
		c-0.1,0-0.2-1.4-0.2-2.7c0-1.3,0-1.5,0.2-1.5c0.1,0,0.1-0.1,0.1-0.3c0-0.1,0-0.3,0.1-0.4c0-0.1,0-0.2,0-0.3
		c-0.1-0.1-0.1-0.2-0.1-0.3c0,0,0,0,0,0c-0.1,0.1-0.3-0.1-0.3-0.3c0-0.1-0.1-0.1-0.1-0.1s-0.1-0.1-0.2-0.1c0-0.1-0.1-0.2-0.2-0.2
		c-0.1-0.1-0.1-0.2-0.1-0.2c0-0.1-0.1-0.1-0.1-0.1s-0.1-0.1-0.2-0.1c0-0.1-0.1-0.2-0.2-0.3c-0.2-0.3-0.5-1.1-0.5-1.5
		c0-0.2-0.1-0.5-0.3-0.8c-0.2-0.3-0.3-0.7-0.3-0.8c0-0.3-0.1-0.3-0.4-0.4c-0.2,0-0.2,0-0.3,0.4c0,0.3-0.1,0.5-0.2,0.6
		c-0.1,0.1-0.1,0.2-0.1,0.4c0,0.2,0,0.3-0.2,0.3c-0.1,0-0.2,0.1-0.2,0.2c0,0.2-0.1,0.3-0.5,0.6c-0.2,0.2-0.6,0.4-0.7,0.5
		c-0.2,0-0.2,0.1-0.2,0.5c0,0.3,0,0.5,0.1,0.5c0.1,0,0.2,0.7,0.2,1.9c0,0.7,0,1.1,0.1,1.1c0.3,0.1,0.3,7.2,0,7.3
		c0,0-0.1,0.4-0.1,0.8c0,0.8-0.1,1.5-0.2,1.5c-0.1,0-0.1,0.3-0.1,0.6c0,0.6-0.1,1.4-0.2,1.4c0,0-0.1,0.2-0.1,0.5
		c0,0.6-0.2,1.5-0.3,1.5c0,0-0.1,0.5-0.1,1.2c0,0.7,0,1.2,0.1,1.2c0.2,0,0.3,1,0.3,4c0,2.9-0.1,4.4-0.3,4.6c0,0-0.1,0.3-0.1,0.6
		c0,0.6-0.2,1.6-0.3,1.7c0,0-0.1,0.3-0.1,0.6c0,0.8-0.2,1.8-0.3,1.8c-0.1,0-0.1,0.2-0.1,0.7c0,0.7-0.1,1.5-0.3,1.5
		c0,0-0.1,0.2-0.1,0.4c0,0.7-0.2,2.2-0.3,2.2c0,0-0.1,0.6-0.1,1.3c0,1.2-0.1,1.9-0.3,2.1c-0.1,0-0.1,0.5-0.1,1.1
		c0,0.9,0,1.1,0.1,1.2c0.1,0.1,0.2,0.2,0.2,0.5c0,0.3,0.1,0.5,0.2,0.5c0.1,0.1,0.1,0.3,0.2,0.7c0,0.4,0.1,0.6,0.1,0.6
		c0.1,0,0.2,0.4,0.2,1.2c0,0.5,0,0.7,0.1,0.8c0.3,0.3,0.3,5.7,0,5.9c0,0-0.1,0.5-0.1,1c0,0.8-0.1,1-0.2,1c-0.1,0.1-0.1,0.2-0.1,0.5
		c0,0.5-0.1,0.8-0.2,0.8c-0.1,0-0.1,0.1-0.1,0.4c0,0.4-0.1,0.9-0.2,0.9c0,0-0.1,0.2-0.1,0.4c0,0.3-0.1,0.5-0.2,0.5
		c-0.1,0.1-0.1,0.2-0.1,0.4c0,0.3-0.2,0.9-0.3,1c-0.1,0.1-0.2,1-0.2,2.1c0,1,0,1.2-0.1,1.2c0,0-0.1,0.2-0.1,0.4
		c0,0.2-0.1,0.4-0.2,0.5c-0.1,0.1-0.1,0.2-0.1,0.2c0,0.1-0.1,0.2-0.1,0.3c-0.1,0.1-0.2,0.3-0.2,0.3c0,0.1-0.1,0.1-0.2,0.1
		c-0.1,0-0.1,0.1-0.1,0.2c0,0.3-0.1,0.5-0.3,0.5c-0.1,0-0.2,0.1-0.2,1.5c0,1.2,0,1.5,0.1,1.5c0.1,0,0.3,0.6,0.3,1
		c0,0.1,0.1,0.3,0.1,0.3c0.1,0.1,0.1,0.3,0.2,0.5c0,0.2,0.1,0.4,0.1,0.4c0.2,0,0.2,0.6,0.2,1.6c0,1.1-0.1,2.1-0.3,2.1
		c0,0-0.1,0.5-0.1,1.1s0,1.1,0.1,1.1c0.1,0,0.3,0.7,0.3,1.1c0,0.1,0,0.3,0.1,0.3c0.1,0,0.3,0.5,0.3,0.7c0,0.1,0,0.2,0.1,0.2
		c0.1,0,0.1,0.1,0.2,0.2c0.1,0.2,0.1,0.2,0.3,0.5c0.1,0.1,0.1,0.2,0.1,0.2c0,0.1,0.1,0.1,0.3,0.1c0.3,0,0.3,0,0.3-0.2
		c0-0.1,0.1-0.2,0.2-0.2c0.1,0,0.2,0,0.2-0.1c0-0.1,0.5-0.3,0.9-0.3c0.5,0,0.6,0.1,0.9,0.4c0.2,0.2,0.2,0.4,0.2,1.2c0,0.6,0,1,0.1,1
		c0.1,0,0.2,1.3,0.2,2.6c0,1.1-0.1,2-0.2,1.9c0,0-0.1,0.2-0.1,0.5c0,0.4-0.1,0.6-0.2,0.6c-0.2,0.2-0.2,0.6,0.1,0.8
		c0.1,0.1,0.2,0.2,0.3,0.2c0,0,0.1,0.1,0.2,0.2c0.1,0.1,0.2,0.2,0.3,0.2s0.1,0.1,0.1,0.1c0,0.1,0.1,0.2,0.2,0.2
		c0.1,0,0.2,0.1,0.2,0.3c0,0.2,0,0.3,0.1,0.3c0.1,0,0.1,0.1,0.2,0.2c0.1,0.3-0.1,1.1-0.2,1.1c0,0-0.1,0.1-0.1,0.2
		c0,0.3-0.1,0.4-0.2,0.4c-0.1,0-0.1,0.1-0.1,0.2c0,0.2-0.2,0.6-0.3,0.6c0,0-0.1,0.1-0.1,0.1c0,0.1-0.1,0.2-0.2,0.4
		c-0.1,0.1-0.2,0.3-0.2,0.4c0,0.1-0.1,0.2-0.2,0.3c-0.1,0.1-0.2,0.3-0.2,1.1c0,0.9,0,1-0.2,1c-0.1,0-0.2,0.1-0.2,0.2
		c0,0.1-0.1,0.1-0.5,0.1c-0.3,0-0.6,0-0.7-0.1c-0.1-0.1-0.3-0.2-0.5-0.3c-0.2-0.1-0.3-0.2-0.3-0.2c0,0-0.2-0.1-0.3-0.1
		c-0.3,0-0.4,0-0.4,0.2c-0.1,0.1-0.1,0.2-0.2,0.2s-0.1,0.1-0.1,0.2c0,0.1-0.1,0.3-0.2,0.3c-0.1,0.1-0.1,0.2-0.1,0.3
		c0,0.1-0.1,0.2-0.2,0.3c-0.1,0.1-0.2,0.2-0.2,0.3c0,0.1,0,0.2-0.1,0.3c-0.1,0.1,0,0.2,0.1,0.2c0.1,0,0.2,0,0.3,0
		c0.1-0.2,0.6-0.2,1.6-0.2c0.8,0,1,0,1.1,0.2c0.1,0.1,0.2,0.2,0.3,0.2c0.1,0,0.1,0.1,0.1,0.2c0,0.1,0,0.2,0.1,0.2
		c0.2,0,0.3,0.6,0.2,1.1c-0.1,0.3-0.1,0.6-0.2,0.6c-0.1,0-0.1,1,0,1.1c0.1,0,0.2,0.1,0.4,0c0.2,0,0.3,0,0.4,0.1
		c0.1,0.1,0.2,0.1,0.3,0.1c0.1,0,0.2,0.1,0.2,0.1c0,0.1,0.1,0.2,0.1,0.2c0.1,0.1,0.1,0.3,0.1,0.5c0,0.2-0.1,0.6-0.1,0.8
		c-0.1,0.3-0.1,0.7-0.1,1c0,0.6-0.1,1-0.3,1c-0.1,0-0.1,0.1-0.1,0.2c0,0.1-0.4,0.7-1.1,1.4c-0.4,0.4-0.3,0.6,0.5,1.4
		c0.2,0.2,0.3,0.4,0.3,0.5c0,0.1,0.1,0.2,0.1,0.2c0.1,0,0.2,0.1,0.2,0.3c0.1,0.2,0.2,0.3,0.2,0.4c0.1,0.1,0.1,0.1,0.1,0.2
		c0,0.1,0.1,0.2,0.2,0.3c0.2,0.2,0.3,0.2,0.9,0.2c0.7,0,1,0,0.9,0.2c0,0,0,0.1,0.1,0c0.2-0.1,0.5,0.4,0.5,0.8c0,0.4-0.1,0.7-0.2,0.7
		c-0.1,0-0.1,0.2-0.1,0.4c0,0.5,0,0.6,0.2,0.6c0.1,0,0.2,0.1,0.2,0.3c0,0.2,0,0.3,0.1,0.3c0.1,0,0.1,0.1,0.1,0.1
		c0,0.1-0.1,0.1-0.1,0.2c-0.1,0-0.1,0.2-0.1,0.6c0,0.3,0.2,0.5,0.5,0.5h0.2c0.5,0,0.7,0,0.7-0.1c0-0.1,0.2-0.2,0.4-0.2
		c0.1,0,0.2-0.1,0.2-0.2c0-0.1,0.1-0.2,0.3-0.2c0.2,0,0.3,0,0.3,0.2c0,0.1,0.1,0.2,0.2,0.2c0.1,0,0.2,0.1,0.2,0.8c0,0.8,0,0.8,0.2,1
		c0.1,0.1,0.3,0.2,0.5,0.2c0.3,0,0.4,0.1,0.5,0.2c0.2,0.2,0.2,0.2,0,0.4c-0.1,0.1-0.2,0.3-0.2,0.4c-0.1,0.1-0.2,0.2-0.2,0.2
		c-0.1,0-0.2,0.1-0.2,0.3c0,0.1-0.1,0.3-0.1,0.4c-0.1,0.1,0,0.1,0.2,0c0.1-0.1,0.3-0.1,0.4-0.2c0.1-0.1,0.2-0.1,0.3-0.1
		c0.1,0,0.2-0.1,0.2-0.2c0-0.1,0.1-0.1,0.2-0.2c0.1,0,0.2-0.1,0.2-0.1c0-0.1,0.1-0.2,0.1-0.2c0.1-0.1,0.2-0.2,0.2-0.2
		c0-0.1,0.1-0.1,0.2-0.1s0.2,0,0.2-0.1c0-0.1,0.3-0.2,0.5-0.2c0.1,0,0.2,0.1,0.2,0.2c0,0.1,0.1,0.1,0.2,0.1c0.1,0,0.2,0.1,0.2,0.2
		c0,0.1,0,0.2,0.1,0.2c0,0,0.1,0.2,0.1,0.4c0,0.3,0,0.4-0.1,0.5c-0.1,0.1-0.1,0.3-0.1,0.4c0,0.2,0,0.3-0.2,0.3
		c-0.1,0-0.2,0.1-0.2,0.2c0,0.1-0.1,0.3-0.3,0.6c-0.4,0.4-0.4,0.5-0.1,0.6C165,170.1,165.4,170,165.6,169.8z M151.4,137.5
		c-0.1,0-0.1-0.1-0.1-0.2c0-0.1-0.1-0.2-0.2-0.2c-0.3,0-0.5-0.2-0.5-0.5c0-0.1-0.1-0.1-0.1-0.1c-0.2,0-0.2-0.5-0.2-1
		c0.1-0.7,0-2-0.1-2c0,0-0.1-0.1-0.1-0.3c0-0.2,0-0.3,0.1-0.2c0,0.1,0.1-0.1,0.1-0.5c0-0.5,0-0.7,0.2-0.8c0.1-0.1,0.2-0.2,0.2-0.3
		c0-0.1,0.1-0.1,0.2-0.1c0.1,0,0.2,0,0.2-0.1c0-0.1,0.1-0.1,0.5-0.1c0.3,0,0.5,0.1,0.5,0.1c0,0.1,0.1,0.1,0.2,0.1
		c0.1,0,0.2,0.1,0.2,0.2c0,0.1,0.1,0.2,0.2,0.2c0.2,0,0.5,0.3,0.5,0.5c0,0.1,0.1,0.1,0.2,0.2c0.1,0,0.2,0.1,0.2,0.4
		c0,0.2,0,0.3,0.1,0.3c0,0,0.1,0.1,0.1,0.2s0,0.2-0.1,0.2c0,0-0.1,0.1-0.1,0.2s0,0.3-0.1,0.3c-0.1,0.1-0.1,0.1,0,0.3
		c0.1,0.1,0.1,0.3,0.1,0.4c0,0.1,0,0.2,0.1,0.2c0.1,0,0.3,0.4,0.3,1.1c0,0.7,0,0.9-0.2,0.9c-0.1,0-0.1,0.1-0.1,0.2
		c0,0.1-0.1,0.2-0.2,0.2c-0.1,0-0.2,0.1-0.2,0.2c0,0.1-0.1,0.2-0.2,0.2c-0.1,0-0.2,0-0.2,0.1C152.7,137.4,151.7,137.6,151.4,137.5z
		 M152.1,136.4c0.1-0.1,0.2-0.2,0.3-0.2c0.2,0,0.2,0,0.2-0.5c0-0.3,0-0.5-0.1-0.5c-0.1,0-0.4-0.7-0.4-0.8c0-0.1,0-0.1-0.1-0.1
		c-0.1,0-0.1-0.1-0.2-0.2c-0.1-0.2,0-0.3,0.1-0.7c0.2-0.4,0.2-0.7,0-0.8c-0.1-0.1-0.1-0.2-0.1-0.2c0-0.1-0.5-0.2-0.6-0.1
		c-0.1,0.1-0.1,2,0,2c0.1,0.1,0.2,0.9,0,0.9c-0.1,0-0.1,0.2-0.1,0.5c0,0.4,0,0.5,0.2,0.5c0.1,0,0.2,0.1,0.2,0.2
		C151.6,136.6,152,136.6,152.1,136.4z M154.9,133.4C154.9,133.3,154.9,133.3,154.9,133.4c0.1,0,0.1,0.1,0,0.1
		C154.9,133.5,154.9,133.5,154.9,133.4z"/>
	<path d="M194.6,157c-10.1,0-17.5-7.9-17.5-20.9c0-13,7.5-21,17.8-21c4.9,0,8.7,2.4,10.9,5l-2.5,2.9c-2.2-2.3-4.9-3.9-8.4-3.9
		c-8,0-13.1,6.5-13.1,16.8s5,17,13,17c3.9,0,6.8-1.7,9.6-4.7l2.5,2.9C203.7,154.9,199.8,157,194.6,157z M214.1,156.3v-43.9h4.5v12.1
		l-0.1,6.3c2.8-2.8,5.9-5.1,9.9-5.1c6.2,0,9.1,4,9.1,11.6v18.9h-4.5v-18.3c0-5.7-1.8-8.3-6-8.3c-3.1,0-5.4,1.6-8.5,4.8v21.8H214.1z
		 M247.3,156.3v-29.8h4.5v29.8H247.3z M249.6,120c-1.8,0-3.1-1.2-3.1-3.1c0-1.8,1.3-3,3.1-3s3.1,1.2,3.1,3
		C252.7,118.9,251.4,120,249.6,120z M267.1,157c-3.5,0-4.9-2.2-4.9-6.2v-38.4h4.5v38.8c0,1.5,0.6,2.1,1.4,2.1c0.3,0,0.5,0,1.1-0.1
		l0.6,3.5C269.1,156.8,268.3,157,267.1,157z M289.5,157c-7.9,0-14.2-5.8-14.2-15.6c0-9.7,6.5-15.7,13.3-15.7c7.5,0,11.8,5.4,11.8,14
		c0,0.9-0.1,1.9-0.2,2.7h-20.4c0.3,6.6,4.3,11,10.2,11c3,0,5.4-0.9,7.6-2.4l1.7,3C296.6,155.7,293.5,157,289.5,157z M279.7,139.1
		h16.7c0-6.4-2.9-9.7-7.7-9.7C284.3,129.4,280.3,132.9,279.7,139.1z"/>
	<path class="st0" d="M187.3,104.6c-5.5,0-9.3-2.3-11.8-6.7l4.5-3.3c1.7,3.1,3.9,4.4,6.6,4.4c4,0,6.1-2.2,6.1-8.1V63.2h6.5v28.2
		C199.2,98.7,195.6,104.6,187.3,104.6z M221.2,104.6c-5.6,0-10.8-2.2-14.5-6l3.8-4.5c2.9,2.9,6.9,4.8,10.8,4.8
		c4.9,0,7.6-2.3,7.6-5.7c0-3.7-2.8-4.9-6.5-6.5l-5.6-2.5c-3.9-1.6-8.2-4.7-8.2-10.6c0-6.4,5.6-11.2,13.3-11.2c4.8,0,9.3,2,12.3,5.1
		l-3.3,4c-2.5-2.2-5.4-3.6-9-3.6c-4.1,0-6.8,2-6.8,5.2c0,3.5,3.3,4.8,6.6,6.2l5.6,2.3c4.8,2,8.3,5,8.3,11
		C235.5,99.2,230.1,104.6,221.2,104.6z"/>
</g>
</svg>
