<?xml version="1.0" encoding="utf-8"?>
<!-- Generator: Adobe Illustrator 28.0.0, SVG Export Plug-In . SVG Version: 6.00 Build 0)  -->
<svg version="1.1" id="Layer_1" xmlns="http://www.w3.org/2000/svg" xmlns:xlink="http://www.w3.org/1999/xlink" x="0px" y="0px"
	 viewBox="0 0 450 220" style="enable-background:new 0 0 450 220;" xml:space="preserve">
<style type="text/css">
	.st0{clip-path:url(#SVGID_00000155827374977513448410000010335692305592394928_);}
	.st1{fill:#F0DE3E;}
	.st2{fill-rule:evenodd;clip-rule:evenodd;fill:#323330;}
</style>
<g>
	<g>
		<defs>
			<rect id="SVGID_1_" x="159.7" y="44.7" width="130.6" height="130.6"/>
		</defs>
		<clipPath id="SVGID_00000142865528177266314060000007661908614921430166_">
			<use xlink:href="#SVGID_1_"  style="overflow:visible;"/>
		</clipPath>
		<g style="clip-path:url(#SVGID_00000142865528177266314060000007661908614921430166_);">
			<path class="st1" d="M159.7,69.9c0-13.9,11.3-25.1,25.1-25.1h80.3c13.9,0,25.1,11.3,25.1,25.1v80.3c0,13.9-11.3,25.1-25.1,25.1
				h-80.3c-13.9,0-25.1-11.3-25.1-25.1V69.9z"/>
			<path class="st2" d="M228.8,87.8c0.3,0,0.5,7.1,0.5,15.9c0,8.8-0.2,15.9-0.5,15.9s-0.5-7.1-0.5-15.9
				C228.2,95,228.5,87.8,228.8,87.8z M220.9,105.6c0.2,0,0.4,5.5,0.4,12.4s-0.2,12.4-0.4,12.4c-0.2,0-0.4-5.5-0.4-12.4
				S220.6,105.6,220.9,105.6z M269.4,94c0.3,0,0.5,7.1,0.5,15.9c0,8.8-0.2,15.9-0.5,15.9s-0.5-7.1-0.5-15.9
				C268.9,101.1,269.2,94,269.4,94z M251.7,98c0.1,0,0.3,3.5,0.3,7.9s-0.1,7.9-0.3,7.9c-0.1,0-0.3-3.5-0.3-7.9
				C251.4,101.6,251.5,98,251.7,98z M199.9,139.4c0.1,0,0.3,3.5,0.3,7.9c0,4.4-0.1,7.9-0.3,7.9s-0.3-3.5-0.3-7.9
				C199.7,142.9,199.8,139.4,199.9,139.4z M185.8,119.2c0.3,0,0.5,7.1,0.5,15.9c0,8.8-0.2,15.9-0.5,15.9c-0.3,0-0.5-7.1-0.5-15.9
				C185.3,126.3,185.5,119.2,185.8,119.2z M172.3,128.7c0.1,0,0.3,3.5,0.3,7.9c0,4.4-0.1,7.9-0.3,7.9c-0.1,0-0.3-3.5-0.3-7.9
				C172,132.2,172.2,128.7,172.3,128.7z M290.3,142.7V62c0-4.7-1.9-9.1-5.1-12.2c-3.1-3.2-7.4-5.1-12.2-5.1h-96
				c-4.7,0-9.1,1.9-12.2,5.1c-3.2,3.1-5.1,7.4-5.1,12.2v80.7V158c0,4.8,1.9,9.1,5.1,12.2c3.1,3.1,7.4,5.1,12.2,5.1h96
				c4.8,0,9.1-1.9,12.2-5.1c3.1-3.1,5.1-7.4,5.1-12.2V142.7z M163.3,141.5V62c0-3.8,1.6-7.1,4-9.6c2.5-2.5,5.9-4,9.6-4h96
				c3.8,0,7.1,1.6,9.6,4c2.5,2.5,4,5.9,4,9.6v54c0-0.4-0.1-0.8-0.3-1.2c-0.8-1.6-1.5-3-2.1-4.4v0.3l-0.6,19.9l-0.6-19.9
				c-0.1-5.6-1.5-10.9-2-16.6c-0.5-3-3.9-10.3-4.1-2.7l-0.6,19.9l-0.5-19.9c-0.1-5.1,0.3-8.3-5.3-10.8c-1.7-0.8-4,0.7-7,4.4
				c-1.1,1.5-1.3,29.2-1.4,33.1c-0.2-6.2,0-31.5-1.9-35.6c-0.2-0.4-0.4-0.7-0.5-0.8c-0.8-0.8-0.8,0.6-0.9,0.9
				c-0.4,0.9-0.3,0.9-0.3,1.9l-0.6,19.9c-0.1-2.9-0.1-21.6-1.1-22.9c-1.5-1.8-2.9-0.8-3.7,0.9c-1.1,2.2-0.7,4.3-1.5,6.7
				c-0.8,2.4-0.8,2.3-2,4.2c-0.5,0.9-1.2,2.3-2,3.9c-0.9,2-1.7,2-2.8,3.6c-0.9,1.3-1.6,3-2,5.1c-0.5,2.2-0.5,3.3-2.2,0.2
				c-0.4-0.7-0.8-1.6-1.1-2.7l-0.3,9.3l-0.3-11.2c-0.2-0.7-0.4-1.4-0.6-2.2l-0.1-0.3l-0.1,4.6l-0.4,14.1l-0.4-14.1l-0.2-7.2
				c-0.2-0.6-0.5-1.2-0.7-1.9l-0.3,9.4l-0.6,19.9l-0.6-19.9c-0.3-9.9-0.8-16.1-2.3-25.8c-0.1-0.5-0.6-2.7-1.2-6.7
				c-0.3-1.9-1.9-3.4-3.9-3.3c-1.6,0-1.6,1-2.6,2.1c-1.6,1.9-1.2,15.7-1.3,19l-0.6,19.9l-0.6-19.9c0-1.9,0-16.1-0.8-16.5
				c-0.3-0.2-0.6,0.1-0.8,0.8c0,0.6,0,1.1-0.1,1.5l-0.5,17.4L220,77.1c-0.3,0.1-0.6,0.3-1,0.6c-1.6,1.1-2.7,2.7-3.4,4.9
				c-1.1,3.6-1,3.7-1.1,7.6l-0.6,19.9l-0.6-19.9l-0.1-4c-1.7,2.3-3.2,8-4.6,17.4c-0.4,8.2-1.4,17.6-2.8,28.3l-0.1,5l-0.6,19.9
				l-0.6-19.9c0-2.3-0.1-3-0.6-5.1c-0.3-1.2-0.2-2.1-1-3c-1.4-1.7-2.9-2.7-4.5-3.1c-1.3,0.2-2.4,0.1-3.2-0.3l0,1.9l-0.6,19.9
				l-0.6-19.9l-0.1-3c0-0.1,0-0.2-0.1-0.3c-0.9-2.1-2-5.1-3.3-9.1c-0.5-1.5-1.3-2.4-1.5-3.9c-0.3-1.8,0-1.6,0.2-3
				c0.1-1-0.6-1.4-0.8-2.4c-0.1-0.6-0.1-1.1-0.1-1.8c0-3.4,0.6-3.1-1.8-4.7c-0.7-0.4-1.3-1-2-1.7c-0.8-1.7-1.7-2.2-3-1.5
				c-1,0.6-1.5,1.9-2.2,2.9c-0.2,0.2-0.3,0.4-0.5,0.6c-0.1,0.1-0.2,0.3-0.2,0.6l-0.2,7.1l-0.6,19.9l-0.6-19.9l-0.1-3.6
				c0-0.4-0.3-0.7-0.7-0.8c-0.4-0.1-0.8,0-0.9,0.4c0,0,0,0,0,0c-0.7,1.3-1.4,2.8-1.9,4.6c0,0.1,0,0.1,0,0.2l-0.5,16.8l-0.4-13.6
				c-0.6,2.4-1,5.3-1.3,8.4c-0.5,5-3.1,14.4-7.6,20.3C163.5,140.3,163.3,140.9,163.3,141.5z M264.9,160.5c4,0,8.6-1.2,10.1-5.3
				c1.6-4.3,0.3-7.8-2.5-10.3c-2.6-2.3-6-2.9-8.5-4.5c-1.4-0.8-2.5-1.9-2-3.7c0.8-2.8,4.5-2.4,6.1-0.7l0.8,1.3l4.8-3.1
				c-2.2-4-6-5.5-10.3-4.9c-5.5,0.7-8.8,5.2-7.5,10.6c1.6,6.7,9.2,6.3,12.6,9.8c2.2,2.2,0.4,5-2.5,5.2c-3.2,0.2-5.4-1-7.1-3.8l-5,3
				C256.1,158.7,260,160.5,264.9,160.5z M248.4,157.4c1.4-1.7,2-4.2,1.9-7.4v-20.5H244v19.4c0,2.1,0.5,5.1-2.1,5.8
				c-2.6,0.7-4.2-0.9-5.4-3.1l-5,3.1c1,2.1,2.5,3.7,4.4,4.7C239.8,161.4,245.6,161,248.4,157.4z M215.3,125.6c0.1,0,0.3,3.5,0.3,7.9
				c0,4.4-0.1,7.9-0.3,7.9s-0.3-3.5-0.3-7.9C215.1,129.1,215.2,125.6,215.3,125.6z"/>
		</g>
	</g>
</g>
</svg>
