<svg width="450" height="220" viewBox="0 0 450 220" fill="none" xmlns="http://www.w3.org/2000/svg">
<g clip-path="url(#clip0_1399_2)">
<path d="M191.962 108.273C191.828 91.9007 171.549 78.7311 146.639 78.7311H146.047C137.983 78.7278 129.99 80.2423 122.487 83.1954C109.875 88.2623 101.315 97.1909 100.679 107.436C100.679 107.715 100.679 107.994 100.679 108.285C100.679 108.407 100.679 108.53 100.679 108.653V108.787C100.679 108.876 100.679 108.954 100.679 109.032V110.394C100.679 110.461 100.679 110.517 100.679 110.573V110.785C100.679 111.008 100.679 111.242 100.679 111.477C100.679 111.711 100.679 111.89 100.679 112.102C101.17 120.249 105.589 127.66 113.235 133.073C121.549 138.943 132.822 142.001 145.857 142.001H146.56C159.953 141.89 171.449 138.586 179.786 132.47C187.677 126.722 192.052 118.709 191.985 109.981L191.962 108.273Z" fill="#2D3277"/>
<path d="M141.829 121.008C142.239 120.845 142.672 120.747 143.112 120.718C143.56 120.692 144.008 120.757 144.43 120.911C144.851 121.064 145.237 121.302 145.563 121.61C145.889 121.917 146.149 122.289 146.327 122.7C146.504 123.112 146.596 123.556 146.596 124.005C146.596 124.453 146.504 124.897 146.327 125.309C146.149 125.72 145.889 126.092 145.563 126.399C145.237 126.707 144.851 126.945 144.43 127.098C144.008 127.252 143.56 127.318 143.112 127.291C142.27 127.298 141.459 126.979 140.847 126.401C140.235 125.822 139.871 125.03 139.831 124.189C139.831 123.441 139.396 123.318 139.161 123.318C138.925 123.343 138.706 123.454 138.547 123.631C138.348 123.849 138.107 124.026 137.839 124.15C137.571 124.275 137.28 124.345 136.985 124.356C136.623 124.356 136.266 124.28 135.936 124.133C135.373 123.986 134.883 123.638 134.558 123.155C134.234 122.672 134.096 122.087 134.172 121.51C134.203 121.396 134.204 121.276 134.177 121.161C134.15 121.046 134.095 120.94 134.016 120.852C133.912 120.757 133.785 120.692 133.648 120.662C133.541 120.649 133.433 120.659 133.331 120.691C133.229 120.724 133.135 120.779 133.056 120.852C132.593 121.245 132.028 121.5 131.427 121.588C131.133 121.59 130.842 121.537 130.567 121.432C129.772 121.181 129.096 120.648 128.668 119.932C128.24 119.216 128.09 118.367 128.246 117.548C128.278 117.435 128.275 117.314 128.237 117.203C128.2 117.091 128.129 116.993 128.034 116.923C127.744 116.733 127.465 117.012 127.286 117.191C127.083 117.387 126.837 117.534 126.568 117.621C126.3 117.708 126.015 117.732 125.735 117.693C125.063 117.645 124.433 117.353 123.962 116.872C123.491 116.391 123.213 115.754 123.179 115.082C123.173 114.75 123.235 114.421 123.359 114.115C123.484 113.808 123.669 113.529 123.905 113.296C124.134 113.064 124.406 112.879 124.707 112.753C125.008 112.626 125.331 112.561 125.657 112.559C126.245 112.481 126.841 112.634 127.32 112.986C127.798 113.337 128.122 113.86 128.224 114.445C128.224 114.445 128.224 114.535 128.224 114.591C128.224 114.646 128.291 115.093 128.547 115.182C128.804 115.271 129.016 114.992 129.139 114.814C129.162 114.765 129.192 114.72 129.228 114.68L129.306 114.579C129.62 114.126 130.053 113.77 130.558 113.549C131.062 113.328 131.618 113.252 132.163 113.329C132.542 113.327 132.918 113.384 133.28 113.497C133.808 113.683 134.26 114.037 134.569 114.504C134.877 114.972 135.024 115.527 134.987 116.086C134.984 116.25 135.045 116.408 135.158 116.527C135.271 116.646 135.426 116.716 135.59 116.722C135.69 116.719 135.789 116.694 135.879 116.65C135.97 116.606 136.05 116.543 136.114 116.466C136.347 116.171 136.638 115.928 136.967 115.749C137.298 115.571 137.66 115.461 138.034 115.428C138.527 115.43 139.013 115.537 139.463 115.74C141.918 116.678 140.802 119.78 140.802 119.803C140.657 120.16 140.422 120.774 140.925 121.097H141.025H141.226C141.411 121.082 141.592 121.037 141.762 120.963L141.829 121.008Z" fill="white"/>
<path d="M189.485 104.735C183.074 106.228 176.818 108.324 170.802 110.997C166.483 107.291 156.494 98.7199 153.793 96.7556C152.709 95.8677 151.483 95.1696 150.166 94.6908C149.578 94.5054 148.963 94.4186 148.347 94.4342C147.586 94.4485 146.833 94.5842 146.115 94.8359C144.19 95.6426 142.42 96.7753 140.88 98.1841L140.78 98.2734C139.521 99.4493 138.062 100.39 136.472 101.052C135.955 101.167 135.428 101.227 134.898 101.231C133.903 101.308 132.915 101.018 132.119 100.416C132.151 100.347 132.192 100.283 132.242 100.227L136.003 96.1083C138.916 93.1395 141.662 90.3493 148.023 90.1484H148.336C151.224 90.257 154.064 90.928 156.695 92.1239C160.352 93.9079 164.367 94.8354 168.436 94.8359C172.793 94.7116 177.072 93.6496 180.981 91.7221C185.445 95.4721 188.425 99.9364 189.485 104.735Z" fill="white"/>
<path d="M146.069 80.7734H146.639C152.652 80.7467 158.641 81.5619 164.429 83.1953L164.808 83.3069L165.589 83.5413C170.355 85.0119 174.857 87.2308 178.926 90.1149C175.619 91.5985 172.048 92.4066 168.424 92.4921H168.257C164.587 92.4633 160.971 91.6088 157.676 89.9921C154.748 88.6879 151.595 87.9639 148.391 87.8605H147.9C144.018 87.8359 140.254 89.1972 137.286 91.6997C135.499 91.8217 133.733 92.1628 132.029 92.7153C130.863 93.1228 129.646 93.3669 128.413 93.4408H127.174H127.018C122.621 92.694 118.302 91.5433 114.116 90.0033C122.319 84.2332 133.926 80.8738 146.069 80.7734Z" fill="#FFD100"/>
<path d="M112.019 91.5882C117.8 93.8985 124.496 95.5391 126.528 95.6507H126.985C127.454 95.6507 127.934 95.7065 128.414 95.7177C129.862 95.6361 131.292 95.3583 132.666 94.8918C133.224 94.7244 133.782 94.5681 134.351 94.4342L134.273 94.5123L130.456 98.7087C130.127 99.0122 129.897 99.4075 129.795 99.8433C129.694 100.279 129.726 100.736 129.887 101.153C130.127 101.671 130.516 102.106 131.003 102.403C132.305 103.128 133.777 103.49 135.266 103.452C135.848 103.463 136.428 103.406 136.996 103.285C138.659 102.905 140.344 101.532 142.186 100.048C143.64 98.7802 145.296 97.7653 147.086 97.0458C147.519 96.9305 147.965 96.8668 148.414 96.8561H148.749C150.112 97.0812 151.387 97.68 152.432 98.586C155.456 100.818 168.38 111.979 169.865 113.206C170.115 113.439 170.314 113.723 170.447 114.039C170.58 114.354 170.644 114.695 170.635 115.037C170.621 115.371 170.524 115.696 170.353 115.982C170.181 116.269 169.94 116.508 169.653 116.677C169.154 117.016 168.569 117.206 167.967 117.224C167.437 117.22 166.918 117.065 166.472 116.778L166.115 116.454C164.92 115.338 161.293 112.135 159.798 110.874C159.532 110.59 159.17 110.414 158.782 110.383C158.67 110.381 158.559 110.405 158.459 110.453C158.358 110.502 158.27 110.573 158.202 110.662C157.867 111.075 158.045 111.666 158.637 112.157L164.295 117.738C164.67 118.091 164.917 118.558 164.999 119.066C165.019 119.492 164.918 119.914 164.706 120.284C164.495 120.654 164.182 120.955 163.804 121.153C163.272 121.542 162.633 121.76 161.974 121.778C161.486 121.774 161.008 121.639 160.59 121.387L159.775 120.584C158.313 119.166 156.795 117.704 155.679 116.789C155.409 116.517 155.055 116.344 154.675 116.298C154.57 116.298 154.466 116.32 154.37 116.362C154.274 116.405 154.188 116.466 154.117 116.544C153.961 116.733 153.76 117.124 154.206 117.66C154.351 117.838 154.507 117.994 154.507 117.994L158.637 122.548C158.842 122.775 158.957 123.069 158.961 123.375C158.965 123.681 158.858 123.978 158.659 124.211L158.536 124.39L158.179 124.724C157.655 125.118 157.015 125.326 156.36 125.316C156.193 125.328 156.025 125.328 155.858 125.316C155.389 125.238 155.255 125.126 155.211 125.07L155.077 124.936C153.906 123.713 152.669 122.554 151.371 121.465C151.114 121.204 150.775 121.039 150.411 120.997C150.304 120.995 150.197 121.017 150.098 121.062C150 121.106 149.912 121.172 149.842 121.253C149.496 121.644 149.653 122.213 150.233 122.749L153.347 126.22C153.269 126.331 152.923 126.711 151.728 126.867C151.576 126.878 151.423 126.878 151.271 126.867C150.211 126.807 149.176 126.522 148.235 126.03C148.491 125.372 148.62 124.672 148.615 123.965C148.612 123.243 148.466 122.529 148.184 121.864C147.902 121.199 147.491 120.597 146.974 120.093C145.961 119.095 144.601 118.527 143.179 118.508C143.277 117.502 143.052 116.491 142.539 115.621C142.026 114.751 141.25 114.066 140.322 113.664C139.615 113.363 138.858 113.2 138.09 113.184C137.594 113.194 137.102 113.273 136.628 113.419C136.038 112.435 135.109 111.701 134.016 111.354C133.225 111.07 132.379 110.97 131.543 111.063C130.708 111.156 129.905 111.439 129.195 111.89C128.759 111.408 128.226 111.023 127.632 110.76C127.038 110.497 126.396 110.361 125.746 110.361C124.59 110.376 123.479 110.813 122.621 111.588C121.293 110.662 116.851 108.061 105.702 105.628C105.199 105.517 104.106 105.215 103.19 104.959C104.184 100.093 107.242 95.4721 112.019 91.5882Z" fill="white"/>
<path d="M189.909 110.07C189.909 110.435 189.865 110.807 189.775 111.186C188.793 117.515 184.496 123.463 177.409 128.039C169.15 133.419 158.202 136.41 146.539 136.51H145.958C122.153 136.51 102.789 124.233 102.666 108.999C102.666 108.519 102.666 107.994 102.733 107.403L105.155 107.95C116.137 110.294 120.244 112.771 121.271 113.53C121.086 114.046 120.996 114.59 121.003 115.137C121.015 116.377 121.515 117.562 122.394 118.435C123.274 119.308 124.462 119.8 125.702 119.802C125.914 119.814 126.126 119.814 126.338 119.802C126.56 120.668 126.994 121.464 127.6 122.12C128.205 122.777 128.964 123.273 129.809 123.564C130.332 123.768 130.888 123.874 131.45 123.876C131.745 123.874 132.041 123.844 132.331 123.787C132.915 124.948 133.927 125.837 135.155 126.265C135.742 126.494 136.366 126.616 136.996 126.622C137.401 126.623 137.804 126.563 138.191 126.443C138.635 127.378 139.336 128.167 140.211 128.72C141.086 129.273 142.1 129.567 143.135 129.568C144.541 129.554 145.888 128.998 146.896 128.017C148.242 128.751 149.739 129.167 151.271 129.233C151.505 129.245 151.74 129.245 151.974 129.233C152.606 129.202 153.224 129.03 153.781 128.731C154.339 128.432 154.824 128.013 155.2 127.503C155.233 127.461 155.263 127.417 155.289 127.369C155.709 127.47 156.14 127.523 156.572 127.526C157.667 127.489 158.721 127.097 159.575 126.41C160.411 125.831 161.026 124.985 161.316 124.01C161.55 124.01 161.807 124.01 162.041 124.01C163.141 123.985 164.209 123.636 165.11 123.006C165.759 122.626 166.303 122.09 166.693 121.447C167.083 120.804 167.306 120.074 167.342 119.323C167.569 119.344 167.797 119.344 168.023 119.323C169.052 119.344 170.064 119.064 170.936 118.519C171.512 118.16 171.995 117.669 172.344 117.087C172.693 116.505 172.899 115.848 172.945 115.171C172.997 114.339 172.82 113.509 172.432 112.771C178.093 110.452 183.93 108.586 189.887 107.191C189.887 107.671 189.976 108.162 189.976 108.653C189.976 109.144 189.909 109.602 189.909 110.07Z" fill="#FFD100"/>
<path d="M346.806 89.6797C345.17 87.589 342.673 86.5436 339.317 86.5436C335.969 86.5436 333.48 87.5704 331.839 89.6351C330.2 91.7207 329.343 94.3154 329.418 96.9677C329.353 99.6259 330.226 102.222 331.884 104.3C333.525 106.32 336.025 107.336 339.362 107.336C342.699 107.336 345.21 106.32 346.851 104.3C348.51 102.222 349.383 99.6259 349.317 96.9677C349.357 94.3197 348.469 91.7413 346.806 89.6797ZM342.732 101.488C342.336 102.013 341.816 102.433 341.218 102.709C340.621 102.985 339.963 103.11 339.306 103.073C338.648 103.107 337.991 102.981 337.392 102.705C336.793 102.429 336.27 102.011 335.868 101.488C334.986 100.152 334.563 98.5654 334.663 96.9677C334.57 95.3882 334.993 93.8212 335.868 92.5034C336.273 91.9828 336.796 91.5678 337.394 91.2937C337.992 91.0196 338.649 90.8947 339.306 90.9297C339.962 90.8927 340.617 91.0168 341.216 91.2911C341.813 91.5653 342.334 91.9815 342.732 92.5034C343.605 93.8226 344.024 95.3894 343.927 96.9677C344.03 98.5641 343.611 100.151 342.732 101.488Z" fill="#2D3277"/>
<path d="M304.864 87.9498C303.086 87.0852 301.127 86.6531 299.15 86.6886C295.802 86.6886 293.569 87.548 292.163 89.2667C291.269 90.4915 290.767 91.9585 290.723 93.4743H295.657C295.729 92.82 295.98 92.1981 296.382 91.6774C296.723 91.3496 297.132 91.1 297.578 90.9458C298.026 90.7916 298.501 90.7366 298.971 90.7846C299.823 90.7376 300.672 90.8944 301.449 91.2422C301.737 91.4071 301.97 91.6522 302.121 91.9475C302.271 92.2428 302.333 92.5755 302.297 92.9051C302.292 93.2346 302.18 93.5532 301.979 93.8144C301.778 94.0755 301.498 94.2654 301.181 94.356C300.523 94.5923 299.836 94.7424 299.139 94.8024L297.398 95.0145C295.843 95.145 294.327 95.5731 292.933 96.2756C292.025 96.7945 291.28 97.5582 290.786 98.4798C290.29 99.4014 290.064 100.444 290.132 101.488C290.086 102.286 290.219 103.086 290.52 103.827C290.821 104.568 291.284 105.233 291.873 105.773C293.139 106.785 294.718 107.322 296.337 107.291C307.498 107.782 307.353 101.41 307.498 100.093V92.76C307.319 90.4051 306.482 88.7757 304.864 87.9498ZM302.275 99.1105C302.336 99.7745 302.235 100.443 301.98 101.06C301.726 101.676 301.325 102.221 300.813 102.648C299.909 103.276 298.834 103.611 297.732 103.608C297.085 103.629 296.45 103.424 295.936 103.028C295.675 102.793 295.473 102.499 295.347 102.172C295.221 101.844 295.174 101.491 295.21 101.142C295.184 100.705 295.283 100.269 295.494 99.8859C295.706 99.5027 296.021 99.1873 296.404 98.9765C297.146 98.6148 297.941 98.3773 298.759 98.2734L299.875 98.0614C300.342 97.9782 300.8 97.8588 301.248 97.7042C301.594 97.579 301.923 97.4143 302.23 97.2131L302.275 99.1105Z" fill="#2D3277"/>
<path d="M279.406 91.0079C279.935 90.9683 280.466 91.0548 280.955 91.2605C281.444 91.4662 281.877 91.7852 282.219 92.191C282.639 92.77 282.908 93.4454 283 94.1553H288.491C288.186 91.38 287.219 89.4454 285.589 88.3517C283.691 87.1854 281.488 86.6104 279.261 86.6999C277.944 86.6299 276.627 86.8426 275.399 87.3239C274.171 87.8051 273.06 88.5438 272.141 89.4901C270.305 91.6636 269.376 94.4622 269.551 97.3026C269.439 99.9167 270.27 102.484 271.895 104.535C273.443 106.387 275.873 107.314 279.183 107.314C280.608 107.407 282.034 107.151 283.338 106.568C284.641 105.984 285.782 105.091 286.661 103.966C287.672 102.706 288.289 101.177 288.435 99.5682H282.955C282.892 100.482 282.558 101.356 281.995 102.079C281.647 102.426 281.226 102.692 280.763 102.858C280.301 103.024 279.807 103.086 279.317 103.039C278.53 103.088 277.748 102.877 277.091 102.437C276.436 101.997 275.944 101.354 275.69 100.606C275.302 99.503 275.125 98.3372 275.165 97.1686C275.125 95.9491 275.302 94.732 275.69 93.5749C275.939 92.7962 276.437 92.1218 277.11 91.6573C277.783 91.1928 278.59 90.9644 279.406 91.0079Z" fill="#2D3277"/>
<path d="M268.034 86.7444C256.75 86.7444 257.409 96.7891 257.409 96.7891V106.945H262.542V97.3806C262.47 96.1944 262.669 95.0074 263.123 93.9096C263.826 92.5815 265.199 91.9118 267.252 91.9118H267.855L268.714 91.99V86.789H268.279L268.034 86.7444Z" fill="#2D3277"/>
<path d="M249.261 101.599C249.066 101.889 248.83 102.148 248.558 102.369C247.725 102.959 246.709 103.236 245.69 103.151C244.738 103.205 243.789 102.976 242.967 102.492C242.298 102.053 241.756 101.448 241.392 100.736C241.027 100.023 240.855 99.2287 240.891 98.4296H255.065C255.106 97.1363 255.05 95.8418 254.898 94.5568C254.698 93.1159 254.167 91.7407 253.346 90.539C252.53 89.2771 251.369 88.2774 249.998 87.6595C248.556 87.0302 246.996 86.7181 245.422 86.7444C244.139 86.6946 242.859 86.9086 241.661 87.3731C240.462 87.8377 239.373 88.5429 238.458 89.4452C236.672 91.2459 235.779 93.85 235.779 97.2577C235.779 100.851 236.761 103.452 238.748 105.07C240.679 106.652 243.106 107.501 245.601 107.47C246.955 107.549 248.308 107.335 249.572 106.844C250.835 106.353 251.978 105.596 252.922 104.624C253.758 103.809 254.372 102.795 254.708 101.677L249.261 101.599ZM242.364 92.0568C242.765 91.6701 243.242 91.3711 243.765 91.1789C244.287 90.9867 244.844 90.9056 245.4 90.9407C246.504 90.9046 247.581 91.2784 248.424 91.9899C248.846 92.3854 249.183 92.8622 249.415 93.3916C249.648 93.9211 249.77 94.4922 249.775 95.0702H241.003C241.121 93.9454 241.598 92.8887 242.364 92.0568Z" fill="#2D3277"/>
<path d="M233.704 106.901H229.027V95.1148C229.068 94.6466 229.01 94.1751 228.856 93.7309C228.704 93.2867 228.458 92.8797 228.138 92.5365C227.816 92.1933 227.427 91.9215 226.994 91.7389C226.561 91.5562 226.093 91.4668 225.623 91.4764C225.147 91.4634 224.672 91.5493 224.23 91.7289C223.789 91.9085 223.389 92.1777 223.056 92.5196C222.724 92.8616 222.466 93.2687 222.3 93.7155C222.132 94.1621 222.06 94.6387 222.085 95.1148V106.901H217.398V95.1148C217.454 94.6485 217.407 94.1758 217.262 93.7291C217.118 93.2823 216.878 92.8722 216.56 92.5267C216.241 92.1811 215.853 91.9085 215.42 91.7272C214.987 91.5458 214.519 91.4604 214.05 91.4764C213.572 91.4583 213.094 91.5408 212.65 91.7185C212.205 91.8961 211.802 92.165 211.468 92.5079C211.133 92.8506 210.875 93.2598 210.708 93.7089C210.541 94.1579 210.471 94.6369 210.501 95.1148V106.901H205.813V95.2264C205.813 90.3604 209.039 86.6774 214.05 86.6774C215.162 86.6516 216.266 86.8829 217.275 87.3533C218.283 87.8237 219.17 88.5205 219.864 89.3894C220.566 88.5415 221.446 87.8588 222.441 87.39C223.437 86.9212 224.524 86.6779 225.623 86.6774C230.735 86.6774 233.748 90.2153 233.748 95.2264L233.704 106.901Z" fill="#2D3277"/>
<path d="M327.855 80.5948C327.855 80.5948 322.721 80.0368 322.721 84.1886V89.6796C322.173 88.783 321.405 88.0415 320.489 87.5256C319.526 86.9963 318.441 86.727 317.341 86.7444C316.168 86.7059 315.001 86.9446 313.937 87.4409C312.873 87.9373 311.94 88.6775 311.214 89.6015C309.594 91.9342 308.807 94.746 308.982 97.5814C308.874 100.143 309.699 102.658 311.303 104.657C312.855 106.499 315.902 107.302 318.614 107.302C328.045 107.302 327.933 99.2108 327.933 99.2108L327.855 80.5948ZM321.705 101.521C321.344 102.05 320.853 102.477 320.278 102.761C319.703 103.044 319.065 103.175 318.424 103.139C317.792 103.178 317.161 103.049 316.594 102.765C316.028 102.48 315.547 102.051 315.199 101.521C314.434 100.162 314.067 98.6149 314.138 97.0568C314.086 95.592 314.445 94.1417 315.176 92.8716C315.519 92.3187 316.004 91.8696 316.582 91.5726C317.162 91.2756 317.809 91.142 318.457 91.1863C319.397 91.1765 320.308 91.5053 321.024 92.1126C322.23 93.1394 322.832 94.9698 322.832 97.3582C322.898 98.8292 322.504 100.284 321.705 101.521Z" fill="#2D3277"/>
<path d="M269.15 131.387C268.954 131.674 268.722 131.933 268.458 132.157C267.62 132.748 266.603 133.032 265.578 132.961C264.634 133.018 263.694 132.793 262.877 132.314C262.219 131.866 261.687 131.256 261.332 130.542C260.978 129.829 260.815 129.036 260.857 128.24H274.909C274.951 126.965 274.895 125.689 274.741 124.423C274.54 122.991 274.014 121.624 273.201 120.427C272.382 119.174 271.22 118.182 269.853 117.57C268.421 116.95 266.872 116.642 265.31 116.666C264.039 116.617 262.77 116.829 261.584 117.29C260.397 117.751 259.318 118.45 258.413 119.345C256.639 121.142 255.757 123.686 255.757 127.035C255.757 130.595 256.728 133.173 258.703 134.758C260.618 136.327 263.026 137.169 265.5 137.135C266.842 137.213 268.184 137.001 269.435 136.514C270.688 136.027 271.819 135.275 272.755 134.311C273.583 133.503 274.189 132.496 274.518 131.387H269.15ZM262.319 121.934C262.718 121.55 263.191 121.253 263.71 121.061C264.228 120.869 264.781 120.786 265.333 120.818C266.423 120.787 267.488 121.156 268.324 121.856C268.743 122.246 269.079 122.718 269.312 123.241C269.544 123.765 269.668 124.33 269.674 124.903H260.98C261.097 123.799 261.557 122.761 262.297 121.934H262.319Z" fill="#2D3277"/>
<path d="M233.916 116.677C232.816 116.655 231.73 116.924 230.768 117.459C229.854 117.97 229.085 118.708 228.536 119.601V110.416C228.536 110.416 223.38 109.914 223.38 114.099V129.043C223.38 129.043 223.268 137.135 232.71 137.135C235.411 137.135 238.458 136.32 240.009 134.49C241.628 132.491 242.465 129.972 242.364 127.403C242.516 124.612 241.705 121.854 240.065 119.59C239.346 118.651 238.412 117.897 237.343 117.39C236.274 116.883 235.099 116.639 233.916 116.677ZM236.036 131.309C235.689 131.839 235.208 132.268 234.642 132.552C234.075 132.837 233.444 132.966 232.811 132.927C232.162 132.971 231.513 132.846 230.926 132.564C230.339 132.283 229.835 131.854 229.463 131.32C228.669 130.081 228.28 128.627 228.346 127.157C228.346 124.78 228.949 123.072 230.154 122.057C230.868 121.441 231.781 121.107 232.721 121.119C233.372 121.076 234.021 121.211 234.599 121.51C235.177 121.809 235.662 122.261 236.003 122.816C236.739 124.085 237.102 125.535 237.052 127.001C237.142 128.516 236.79 130.025 236.036 131.342V131.309Z" fill="#2D3277"/>
<path d="M254.774 116.677H254.529C243.234 116.677 243.905 126.722 243.905 126.722V136.767H249.061V127.392C248.99 126.209 249.187 125.026 249.642 123.932C250.345 122.593 251.718 121.923 253.771 121.923H254.373C254.629 121.923 254.908 121.923 255.232 122.001V116.677H254.774Z" fill="#2D3277"/>
<path d="M205.713 114.088V136.633H210.523V110.405C210.523 110.405 205.713 110.215 205.713 114.088Z" fill="#2D3277"/>
<path d="M219.596 110.372H214.451V115.472H219.596V110.372Z" fill="#2D3277"/>
<path d="M219.607 117.213H214.451V136.677H219.607V117.213Z" fill="#2D3277"/>
</g>
<defs>
<clipPath id="clip0_1399_2">
<rect width="250" height="64.7321" fill="white" transform="translate(100 78)"/>
</clipPath>
</defs>
</svg>
