<?xml version="1.0" encoding="utf-8"?>
<!-- Generator: Adobe Illustrator 28.0.0, SVG Export Plug-In . SVG Version: 6.00 Build 0)  -->
<svg version="1.1" id="Layer_1" xmlns="http://www.w3.org/2000/svg" xmlns:xlink="http://www.w3.org/1999/xlink" x="0px" y="0px"
	 viewBox="0 0 450 220" style="enable-background:new 0 0 450 220;" xml:space="preserve">
<style type="text/css">
	.st0{fill:#00083C;}
</style>
<g>
	<g>
		<g>
			<g>
				<g>
					<path class="st0" d="M146.2,113.8c0,0.1,0,0.1,0,0.2l0,15.2c0,1.9-1.5,3.4-3.4,3.4c-1.8,0-3.5-1.5-3.5-3.4l0-15.2
						c0-0.1,0-0.1,0-0.2c-0.1-3.5-3-6.4-6.6-6.4c-3.5,0-6.5,3-6.4,6.6l0,15.2c0,0.1-0.1,0.3-0.1,0.4c0,0.1,0,0.2,0,0.2
						c-0.1,0.1-0.1,0.3-0.2,0.4c0,0.1,0,0.2,0,0.3c-0.6,1.2-1.8,2-3.2,2.1c-0.3,0-0.4-0.1-0.6-0.1c-1.5-0.4-2.8-1.7-2.8-3.3l0-15.2
						c0-0.1,0-0.1,0-0.1l0-9.9c0-2,1.5-3.5,3.4-3.5c1.3,0,2.6,0.7,3.1,1.9c2-1.2,4.4-1.9,6.8-1.9c4,0,7.6,1.6,10,4.4
						c2.4-2.8,6-4.4,10-4.4c7.4,0,13.3,6,13.3,13.4l0,15.2c0,1.9-1.5,3.4-3.4,3.4c-1.9,0-3.5-1.5-3.5-3.4l0-15.2
						c0-3.6-3-6.6-6.5-6.6C149.2,107.4,146.3,110.2,146.2,113.8z"/>
					<path class="st0" d="M179.7,92.5c0,1.9-1.5,3.5-3.4,3.5c-1.9,0-3.5-1.6-3.5-3.5l0-1.3c0-1.9,1.5-3.5,3.4-3.5
						c2,0,3.5,1.5,3.5,3.4L179.7,92.5z M179.7,104l0.1,24.9c0,1.9-1.5,3.5-3.4,3.5c-1.9,0-3.5-1.5-3.5-3.4l-0.1-24.9
						c0-2,1.5-3.5,3.4-3.5C178.2,100.5,179.7,102,179.7,104z"/>
					<path class="st0" d="M187.5,116.5C187.5,116.4,187.5,116.4,187.5,116.5l-0.1-25.4c0-1.9,1.5-3.5,3.4-3.5c2,0,3.5,1.6,3.5,3.4
						l0,12c2.4-1.7,5.4-2.7,8.6-2.7c8.6,0,15.5,7.3,15.6,16c0,8.6-6.9,15.9-15.5,16c-3.2,0-6.3-1.1-8.7-2.7
						c-0.3,1.5-1.7,2.8-3.4,2.8c-1.9,0-3.5-1.6-3.5-3.4L187.5,116.5z M194.5,116.5c0,2.4,1,4.7,2.6,6.3c1.6,1.7,3.6,2.6,6,2.6
						c2.3,0,4.4-1,6-2.6c1.6-1.6,2.5-3.9,2.5-6.3c0-2.6-1-4.9-2.6-6.5c-1.6-1.7-3.7-2.6-6-2.6c-2.4,0-4.4,1-6,2.6
						C195.4,111.6,194.5,113.9,194.5,116.5z"/>
					<path class="st0" d="M236.1,132.3c-7.3,0-13.3-6-13.3-13.3l0-15.3c0-1.8,1.5-3.4,3.4-3.4c1.9,0,3.4,1.6,3.4,3.4l0,15.3
						c0,3.6,2.9,6.5,6.5,6.5c3.7,0,6.6-2.9,6.7-6.5l0-15.3c0-1.8,1.4-3.4,3.3-3.4c1.8,0,3.5,1.6,3.5,3.4l0,15.3
						C249.6,126.3,243.5,132.3,236.1,132.3z"/>
					<path class="st0" d="M253.9,116.3c0-8.9,7.4-16,16.2-16.1c3.8,0,7.4,1.4,10.2,3.5c1.5,1.1,1.7,3.3,0.7,4.7
						c-1.3,1.5-3.3,1.8-4.8,0.6c-1.7-1.2-3.7-2-6.1-2c-5.2,0-9.5,4.3-9.4,9.2c0,4.9,4.3,9.1,9.5,9.1c2.3,0,4.4-0.8,6.1-2.1
						c1.4-1.1,3.5-0.8,4.8,0.7c1,1.4,0.8,3.5-0.7,4.7c-2.7,2-6.3,3.4-10.2,3.4C261.4,132.2,254,125.1,253.9,116.3z"/>
					<path class="st0" d="M290.8,87.4c2,0,3.6,1.6,3.6,3.5l0.1,37.7c0,1.9-1.6,3.5-3.6,3.5c-1.9,0-3.5-1.6-3.5-3.5L287.3,91
						C287.3,89,288.8,87.4,290.8,87.4z"/>
					<path class="st0" d="M299.5,116.2c0-8.7,6.8-16,15.6-16c8.3,0,14.9,6.2,15.4,14.8c0,0.1,0,0.2,0,0.3c0,0.1,0,0.4-0.1,0.6
						c-0.2,1.5-1.5,2.6-3.3,2.6l-20.3,0c0.3,1.5,1,3.1,2.2,4.2c1.3,1.5,3.9,2.7,6.1,2.9c2.3,0.2,5.1-0.4,6.6-1.6
						c1.3-1.4,4-1.2,4.8-0.2c0.8,0.9,1.5,2.8,0,4.2c-3.1,2.9-6.9,4.2-11.4,4.2C306.4,132.1,299.6,124.9,299.5,116.2z M306.5,113
						l18.1,0c-0.6-2.6-3.9-6.3-9.5-6.8C309.7,106.5,307,110.4,306.5,113z"/>
				</g>
			</g>
		</g>
	</g>
</g>
</svg>
