<svg width="450" height="220" viewBox="0 0 450 220" fill="none" xmlns="http://www.w3.org/2000/svg">
<g clip-path="url(#clip0_1513_33)">
<path d="M198.599 117.743L211.533 152.083H204.976L201.929 143.555H188.394L185.472 152.083H178.96L191.894 117.743H198.599ZM195.065 124.12L189.991 138.583H200.287L195.235 124.12H195.065Z" fill="#77787B"/>
<path d="M214.444 127.472H234.105V129.794L221.194 147.485H234.173V152.083H213.526V149.331L226.245 132.071H214.444V127.472Z" fill="#77787B"/>
<path d="M258.83 127.472V152.083H252.986V148.856H252.895C252.125 149.977 251.106 150.849 249.814 151.483C248.535 152.117 247.085 152.423 245.488 152.423C242.634 152.423 240.459 151.619 238.964 149.988C237.469 148.368 236.722 145.854 236.722 142.434V127.472H242.588V141.743C242.588 143.815 242.996 145.378 243.823 146.42C244.65 147.462 245.884 147.983 247.549 147.983C249.214 147.983 250.505 147.406 251.502 146.251C252.487 145.095 252.986 143.578 252.986 141.709V127.461H258.83V127.472Z" fill="#77787B"/>
<path d="M276.272 127.064C276.737 127.064 277.156 127.098 277.518 127.155C277.88 127.223 278.198 127.302 278.447 127.393V133.26C278.141 133.033 277.699 132.829 277.122 132.625C276.544 132.422 275.83 132.331 275.004 132.331C273.588 132.331 272.376 132.931 271.402 134.132C270.417 135.332 269.93 137.167 269.93 139.659V152.083H264.131V127.472H269.93V131.346H270.02C270.553 130.009 271.345 128.956 272.41 128.197C273.475 127.438 274.766 127.064 276.261 127.064H276.272Z" fill="#77787B"/>
<path d="M299.309 145.888V150.656C298.346 151.268 297.1 151.755 295.549 152.129C293.997 152.502 292.343 152.695 290.588 152.695C286.839 152.695 283.917 151.585 281.833 149.365C279.749 147.145 278.707 144.053 278.707 140.101C278.707 136.148 279.817 133.146 282.048 130.677C284.279 128.208 287.1 126.974 290.509 126.974C293.918 126.974 296.557 128.016 298.448 130.1C300.339 132.184 301.291 135.061 301.291 138.73V141.528H284.438C284.698 143.997 285.491 145.73 286.816 146.715C288.153 147.7 289.874 148.187 291.981 148.187C293.374 148.187 294.699 147.972 295.956 147.553C297.214 147.134 298.335 146.579 299.309 145.888ZM295.605 137.292C295.605 135.378 295.164 133.917 294.28 132.909C293.397 131.901 292.14 131.402 290.531 131.402C289.138 131.402 287.892 131.901 286.794 132.897C285.695 133.894 284.959 135.355 284.596 137.292H295.617H295.605Z" fill="#77787B"/>
<path d="M218.17 70.537V104.877H212.213V77.9668H212.122L201.465 104.877H197.512L186.594 77.9668H186.526V104.877H181.021V70.537H189.573L199.437 95.9863H199.585L210.004 70.537H218.193H218.17ZM223.154 73.1533C223.154 72.1906 223.505 71.3978 224.196 70.7522C224.887 70.1066 225.713 69.7782 226.676 69.7782C227.695 69.7782 228.545 70.1066 229.213 70.7748C229.881 71.4317 230.221 72.2359 230.221 73.1533C230.221 74.0707 229.881 74.8861 229.19 75.5204C228.5 76.1546 227.661 76.4831 226.676 76.4831C225.691 76.4831 224.853 76.1546 224.173 75.5091C223.494 74.8635 223.154 74.0707 223.154 73.1533ZM229.553 80.2659V104.877H223.754V80.2659H229.553ZM247.131 100.664C247.991 100.664 248.943 100.46 249.985 100.064C251.027 99.6672 251.978 99.1349 252.862 98.478V103.869C251.933 104.401 250.891 104.798 249.713 105.07C248.535 105.341 247.255 105.477 245.851 105.477C242.227 105.477 239.282 104.333 237.017 102.046C234.751 99.7578 233.619 96.8244 233.619 93.268C233.619 89.304 234.774 86.0535 237.096 83.4825C239.406 80.9228 242.691 79.643 246.938 79.643C248.025 79.643 249.124 79.7789 250.234 80.0621C251.344 80.3452 252.227 80.6623 252.884 81.0361V86.5971C251.989 85.9402 251.072 85.4305 250.143 85.0794C249.215 84.717 248.252 84.5358 247.278 84.5358C244.99 84.5358 243.155 85.2833 241.751 86.767C240.346 88.2507 239.644 90.2554 239.644 92.781C239.644 95.3067 240.324 97.2095 241.672 98.6025C243.019 99.9956 244.854 100.686 247.165 100.686L247.131 100.664ZM269.352 79.8582C269.816 79.8582 270.235 79.8922 270.598 79.9488C270.96 80.0054 271.277 80.096 271.527 80.1867V86.0535C271.221 85.8269 270.779 85.6231 270.202 85.4192C269.624 85.2153 268.91 85.1247 268.084 85.1247C266.668 85.1247 265.456 85.725 264.482 86.9255C263.508 88.1261 263.01 89.9722 263.01 92.4526V104.877H257.211V80.2659H263.01V84.1394H263.1C263.632 82.8029 264.425 81.7496 265.49 80.9908C266.555 80.232 267.846 79.8582 269.341 79.8582H269.352ZM271.844 92.9283C271.844 88.8623 272.988 85.6344 275.287 83.256C277.586 80.8775 280.78 79.6883 284.869 79.6883C288.719 79.6883 291.721 80.8322 293.884 83.1201C296.047 85.4079 297.123 88.4998 297.123 92.396C297.123 96.2921 295.968 99.5652 293.68 101.921C291.381 104.288 288.255 105.466 284.291 105.466C280.327 105.466 277.45 104.345 275.208 102.102C272.965 99.8597 271.844 96.8017 271.844 92.9169V92.9283ZM277.88 92.7357C277.88 95.3067 278.458 97.2661 279.625 98.6252C280.791 99.9843 282.456 100.664 284.631 100.664C286.805 100.664 288.346 99.9843 289.444 98.6252C290.543 97.2661 291.098 95.2614 291.098 92.5885C291.098 89.9156 290.531 87.9449 289.388 86.5858C288.244 85.238 286.647 84.5584 284.585 84.5584C282.524 84.5584 280.814 85.2606 279.636 86.6764C278.458 88.0921 277.88 90.1081 277.88 92.7244V92.7357ZM305.742 86.7217C305.742 87.5485 306.003 88.2054 306.535 88.6697C307.056 89.1454 308.222 89.7344 310.035 90.4479C312.345 91.3766 313.976 92.4186 314.905 93.5738C315.833 94.7291 316.309 96.1335 316.309 97.7757C316.309 100.086 315.414 101.955 313.636 103.359C311.858 104.764 309.446 105.466 306.422 105.466C305.402 105.466 304.27 105.341 303.035 105.092C301.801 104.843 300.747 104.526 299.887 104.152V98.4553C300.94 99.1915 302.073 99.7691 303.284 100.199C304.496 100.63 305.595 100.845 306.592 100.845C307.905 100.845 308.868 100.664 309.491 100.29C310.114 99.9163 310.42 99.3047 310.42 98.444C310.42 97.6398 310.091 96.9716 309.446 96.4166C308.8 95.8617 307.577 95.2274 305.765 94.5139C303.624 93.6191 302.107 92.6111 301.212 91.5012C300.317 90.3799 299.875 88.9642 299.875 87.2427C299.875 85.0228 300.759 83.1993 302.526 81.7723C304.292 80.3452 306.58 79.6317 309.389 79.6317C310.25 79.6317 311.213 79.7223 312.288 79.9148C313.353 80.1074 314.248 80.3565 314.973 80.6623V86.1667C314.203 85.6571 313.308 85.2153 312.288 84.8529C311.269 84.4905 310.25 84.2979 309.242 84.2979C308.143 84.2979 307.282 84.5131 306.671 84.9435C306.059 85.3739 305.753 85.9629 305.753 86.7104L305.742 86.7217ZM318.801 92.9283C318.801 88.8623 319.945 85.6344 322.244 83.256C324.543 80.8775 327.737 79.6883 331.826 79.6883C335.676 79.6883 338.678 80.8322 340.841 83.1201C343.004 85.4079 344.08 88.4998 344.08 92.396C344.08 96.2921 342.925 99.5652 340.637 101.921C338.338 104.288 335.212 105.466 331.248 105.466C327.284 105.466 324.407 104.345 322.165 102.102C319.922 99.8597 318.801 96.8017 318.801 92.9169V92.9283ZM324.826 92.7357C324.826 95.3067 325.404 97.2661 326.57 98.6252C327.737 99.9843 329.402 100.664 331.576 100.664C333.751 100.664 335.291 99.9843 336.39 98.6252C337.489 97.2661 338.044 95.2614 338.044 92.5885C338.044 89.9156 337.477 87.9449 336.333 86.5858C335.189 85.238 333.592 84.5584 331.531 84.5584C329.47 84.5584 327.76 85.2606 326.582 86.6764C325.404 88.0921 324.826 90.1081 324.826 92.7244V92.7357ZM363.312 85.0002H354.681V104.877H348.814V85.0002H344.692V80.2546H348.814V76.8342C348.814 74.2519 349.653 72.1339 351.34 70.4804C353.028 68.8268 355.18 68 357.819 68C358.521 68 359.144 68.034 359.687 68.1133C360.231 68.1812 360.707 68.2945 361.126 68.4417V73.4477C360.933 73.3345 360.593 73.1986 360.118 73.04C359.642 72.8815 359.087 72.8022 358.464 72.8022C357.252 72.8022 356.312 73.1759 355.667 73.9348C355.021 74.6936 354.681 75.8149 354.681 77.2985V80.2659H363.312V74.7389L369.133 72.9721V80.2773H375V85.0228H369.133V96.5412C369.133 98.0589 369.405 99.1235 369.96 99.7464C370.515 100.369 371.376 100.675 372.554 100.675C372.893 100.675 373.29 100.596 373.765 100.437C374.241 100.279 374.649 100.086 375 99.8597V104.651C374.637 104.854 374.026 105.047 373.165 105.228C372.304 105.409 371.466 105.489 370.639 105.489C368.193 105.489 366.37 104.843 365.146 103.541C363.923 102.238 363.312 100.279 363.312 97.6625V85.0228V85.0002Z" fill="#77787B"/>
<path d="M113.757 70.537H75V109.294H113.757V70.537Z" fill="#F26522"/>
<path d="M156.546 70.537H117.789V109.294H156.546V70.537Z" fill="#8DC63F"/>
<path d="M113.757 113.326H75V152.083H113.757V113.326Z" fill="#00AEEF"/>
<path d="M156.546 113.326H117.789V152.083H156.546V113.326Z" fill="#FFC20E"/>
</g>
<defs>
<clipPath id="clip0_1513_33">
<rect width="300" height="84.6836" fill="white" transform="translate(75 68)"/>
</clipPath>
</defs>
</svg>
