<svg width="450" height="220" viewBox="0 0 450 220" fill="none" xmlns="http://www.w3.org/2000/svg">
<g clip-path="url(#clip0_1411_2)">
<path fill-rule="evenodd" clip-rule="evenodd" d="M124.898 82C122.214 82 119.567 82.585 117.703 83.3547C115.839 82.585 113.192 82 110.509 82C98.6808 82 88 93.2486 88 108.683C88 125.509 101.668 138.522 117.703 138.522C133.738 138.522 147.408 125.509 147.408 108.683C147.406 93.2486 136.724 82 124.898 82ZM117.703 91.164C119.983 92.5259 122.992 96.4795 122.992 100.935C122.992 104.204 120.847 106.777 117.703 106.777C114.559 106.777 112.414 104.204 112.414 100.935C112.414 96.4777 115.425 92.5259 117.703 91.164ZM117.703 131.172C105.443 131.172 95.3024 121.255 95.3024 108.536C95.3024 96.9232 103.635 88.9907 110.183 89.2859C107.082 92.3937 105.202 96.9214 105.202 101.308C105.202 108.846 111.152 114.132 117.705 114.132C124.258 114.132 130.208 108.846 130.208 101.308C130.208 96.9214 128.326 92.3937 125.227 89.2859C131.775 88.9907 140.107 96.9232 140.107 108.536C140.107 121.255 129.963 131.172 117.705 131.172" fill="#0077BC"/>
<path d="M190.177 94.8767V101.025H199.498V124.098H206.098V101.025H215.419V94.8767H190.177Z" fill="#0077BC"/>
<path d="M298.809 94.8767H282.191V101.072H298.37C300.743 101.072 301.669 102.163 301.669 104.961V105.991H288.264C283.165 105.991 280.628 108.556 280.628 114.353V115.733C280.628 121.695 283.257 124.089 288.541 124.089H308.202V104.885C308.202 97.5245 305.784 94.8767 298.809 94.8767ZM289.229 117.848C288.229 117.848 287.109 117.336 287.109 114.829C287.109 112.323 288.217 111.884 289.229 111.884H301.669V117.848H289.229Z" fill="#0077BC"/>
<path d="M353.605 94.8767H336.989V101.072H353.166C355.541 101.072 356.465 102.163 356.465 104.961C356.465 104.975 356.469 105.754 356.469 105.991H343.06C337.961 105.991 335.426 108.556 335.426 114.353V115.733C335.426 121.695 338.055 124.089 343.339 124.089H363V104.885C363 97.5245 360.58 94.8767 353.605 94.8767ZM344.025 117.848C343.025 117.848 341.905 117.336 341.905 114.829C341.905 112.323 343.013 111.884 344.025 111.884H356.465V117.848H344.025Z" fill="#0077BC"/>
<path d="M217.517 94.8767V101.025H226.838V124.098H233.44V101.025H242.763V94.8767H217.517Z" fill="#0077BC"/>
<path d="M309.529 94.8767V101.025H318.849V124.098H325.452V101.025H334.77V94.8767H309.529Z" fill="#0077BC"/>
<path d="M278.067 113.857V105.115C278.067 97.4593 275.116 94.8785 268.458 94.8785H250.786V124.091H268.768C275.836 124.091 278.069 120.56 278.069 113.857M271.328 113.985C271.328 116.783 270.39 117.874 268.018 117.874H257.39V101.1H268.018C270.39 101.1 271.328 102.19 271.328 104.988V113.987V113.985Z" fill="#0077BC"/>
<path d="M180.868 117.135C180.727 116.867 171.907 99.5837 170.83 97.8831C169.585 95.9163 168.073 94.5507 165.171 94.5507C162.477 94.5507 159.288 95.7533 159.288 102.259V124.104H165.796V105.883C165.796 104.577 165.715 102.637 165.697 102.248C165.683 101.927 165.697 101.623 165.859 101.529C166.048 101.42 166.234 101.594 166.36 101.838C166.486 102.083 174.662 118.346 176.4 121.092C177.644 123.059 179.157 124.424 182.058 124.424C184.75 124.424 187.94 123.222 187.94 116.716V94.8713H181.433V113.091C181.433 114.4 181.512 116.338 181.529 116.727C181.543 117.048 181.532 117.35 181.368 117.444C181.181 117.553 180.995 117.377 180.866 117.135" fill="#0077BC"/>
</g>
<defs>
<clipPath id="clip0_1411_2">
<rect width="275" height="56.5217" fill="white" transform="translate(88 82)"/>
</clipPath>
</defs>
</svg>