<svg width="450" height="220" viewBox="0 0 450 220" fill="none" xmlns="http://www.w3.org/2000/svg">
<g clip-path="url(#clip0_1411_2)">
<path fill-rule="evenodd" clip-rule="evenodd" d="M131.946 84C129.477 84 127.042 84.5382 125.327 85.2463C123.612 84.5382 121.177 84 118.708 84C107.826 84 98 94.3487 98 108.548C98 124.028 110.575 136 125.327 136C140.079 136 152.655 124.028 152.655 108.548C152.654 94.3487 142.826 84 131.946 84ZM125.327 92.4309C127.424 93.6839 130.193 97.3212 130.193 101.42C130.193 104.427 128.22 106.795 125.327 106.795C122.434 106.795 120.461 104.427 120.461 101.42C120.461 97.3195 123.231 93.6839 125.327 92.4309ZM125.327 129.239C114.048 129.239 104.718 120.115 104.718 108.413C104.718 97.7294 112.384 90.4315 118.408 90.7031C115.555 93.5622 113.826 97.7277 113.826 101.763C113.826 108.698 119.3 113.561 125.329 113.561C131.358 113.561 136.832 108.698 136.832 101.763C136.832 97.7277 135.1 93.5622 132.249 90.7031C138.273 90.4315 145.939 97.7294 145.939 108.413C145.939 120.115 136.606 129.239 125.329 129.239" fill="#0077BC"/>
<path d="M192.002 95.8466V101.503H200.577V122.73H206.65V101.503H215.225V95.8466H192.002Z" fill="#0077BC"/>
<path d="M291.945 95.8466H276.656V101.547H291.54C293.724 101.547 294.576 102.55 294.576 105.124V106.072H282.243C277.552 106.072 275.218 108.431 275.218 113.765V115.034C275.218 120.519 277.637 122.722 282.498 122.722H300.586V105.054C300.586 98.2825 298.361 95.8466 291.945 95.8466ZM283.131 116.98C282.211 116.98 281.181 116.509 281.181 114.203C281.181 111.897 282.199 111.494 283.131 111.494H294.576V116.98H283.131Z" fill="#0077BC"/>
<path d="M342.357 95.8466H327.07V101.547H341.953C344.138 101.547 344.988 102.55 344.988 105.124C344.988 105.137 344.991 105.854 344.991 106.072H332.655C327.965 106.072 325.632 108.431 325.632 113.765V115.034C325.632 120.519 328.051 122.722 332.912 122.722H351V105.054C351 98.2825 348.774 95.8466 342.357 95.8466ZM333.543 116.98C332.623 116.98 331.593 116.509 331.593 114.203C331.593 111.897 332.612 111.494 333.543 111.494H344.988V116.98H333.543Z" fill="#0077BC"/>
<path d="M217.155 95.8466V101.503H225.731V122.73H231.805V101.503H240.382V95.8466H217.155Z" fill="#0077BC"/>
<path d="M301.807 95.8466V101.503H310.38V122.73H316.456V101.503H325.028V95.8466H301.807Z" fill="#0077BC"/>
<path d="M272.861 113.308V105.266C272.861 98.2226 270.146 95.8483 264.021 95.8483H247.763V122.724H264.306C270.808 122.724 272.863 119.475 272.863 113.308M266.662 113.427C266.662 116.001 265.798 117.004 263.616 117.004H253.838V101.572H263.616C265.798 101.572 266.662 102.575 266.662 105.149V113.428V113.427Z" fill="#0077BC"/>
<path d="M183.438 116.324C183.309 116.077 175.194 100.177 174.203 98.6125C173.058 96.803 171.667 95.5467 168.998 95.5467C166.519 95.5467 163.585 96.653 163.585 102.638V122.736H169.573V105.972C169.573 104.771 169.498 102.986 169.481 102.628C169.468 102.333 169.481 102.053 169.631 101.967C169.805 101.867 169.975 102.026 170.091 102.251C170.207 102.476 177.729 117.439 179.328 119.965C180.473 121.774 181.864 123.03 184.533 123.03C187.01 123.03 189.944 121.924 189.944 115.939V95.8416H183.958V112.603C183.958 113.808 184.031 115.591 184.046 115.949C184.059 116.244 184.049 116.522 183.899 116.609C183.726 116.709 183.556 116.547 183.436 116.324" fill="#0077BC"/>
</g>
<defs>
<clipPath id="clip0_1411_2">
<rect width="253" height="52" fill="white" transform="translate(98 84)"/>
</clipPath>
</defs>
</svg>
