<svg width="450" height="220" viewBox="0 0 450 220" fill="none" xmlns="http://www.w3.org/2000/svg">
<path d="M150.805 92.8632H165.852L158.027 80.2233L143.581 103.698H136.961L155.018 75.4078C155.62 74.204 156.823 73.6025 158.629 73.6025C159.833 73.6025 161.037 74.204 162.24 75.4078L180.298 103.698H173.677L170.667 98.2805H155.62L150.805 92.8632ZM220.626 98.2805V74.2043H215.208V100.688C215.208 101.29 215.81 101.892 215.81 102.494C216.412 103.095 217.014 103.095 217.616 103.095H243.498L247.11 97.6788H220.626V98.2805ZM126.729 94.0667C132.146 94.6686 136.961 90.4553 137.562 85.0381C138.164 79.621 133.951 74.8062 128.534 74.2043C127.932 74.2043 127.33 74.2043 127.33 74.2043H102.652V103.698H108.069V79.6216H126.729C129.136 80.2235 131.543 82.6305 130.942 85.0381C130.942 87.4458 129.136 89.2519 126.729 89.2519H110.477L127.33 104.3H135.757L124.321 94.6692L126.729 94.0667ZM66.5379 103.698C58.1112 103.698 51.4902 97.0768 51.4902 88.6502C51.4902 80.2235 58.1112 73.6025 66.5379 73.6025H83.9926C92.4193 73.6025 99.0403 80.2235 99.0403 88.6502C99.0403 97.0768 92.4193 103.698 83.9926 103.698H66.5379ZM83.3908 98.2805C88.808 98.2805 93.0212 94.0672 93.0212 89.2519C93.0212 83.8348 88.8078 79.6216 83.9926 79.6216H83.3908H66.5379C61.1207 79.6216 56.9068 83.8349 56.9068 88.6502C56.9068 94.0673 61.1201 98.2805 65.9354 98.2805H66.5379H83.3908ZM191.734 103.698C183.307 103.698 176.686 97.0768 176.686 88.6502C176.686 80.2235 183.307 73.6025 191.734 73.6025H212.199L208.588 79.0191H191.734C186.317 79.0191 182.103 83.8349 182.705 88.6502C182.705 93.4654 186.919 97.6788 191.734 97.6788H212.199L208.588 103.095L191.734 103.698ZM260.953 98.2805C256.74 98.2805 253.128 95.2705 251.925 91.0572H276.001L279.612 85.6406H251.925C253.128 81.4273 256.74 78.4173 260.953 78.4173H277.807L281.418 73H260.953C252.527 73 245.906 79.621 245.906 88.0477C245.906 96.4744 252.527 103.095 260.953 103.095H278.409L282.02 97.6788L260.953 98.2805Z" fill="#E50019"/>
<path d="M71.1641 129.618L74.5742 130.479C73.8594 133.28 72.5703 135.418 70.707 136.895C68.8555 138.36 66.5879 139.092 63.9043 139.092C61.127 139.092 58.8652 138.53 57.1191 137.405C55.3848 136.268 54.0605 134.627 53.1465 132.483C52.2441 130.338 51.793 128.036 51.793 125.575C51.793 122.891 52.3027 120.553 53.3223 118.561C54.3535 116.557 55.8125 115.04 57.6992 114.008C59.5977 112.965 61.6836 112.444 63.957 112.444C66.5352 112.444 68.7031 113.1 70.4609 114.413C72.2188 115.725 73.4434 117.571 74.1348 119.95L70.7773 120.741C70.1797 118.866 69.3125 117.5 68.1758 116.645C67.0391 115.79 65.6094 115.362 63.8867 115.362C61.9062 115.362 60.248 115.836 58.9121 116.786C57.5879 117.735 56.6562 119.012 56.1172 120.618C55.5781 122.211 55.3086 123.858 55.3086 125.557C55.3086 127.749 55.625 129.665 56.2578 131.305C56.9023 132.934 57.8984 134.153 59.2461 134.961C60.5938 135.77 62.0527 136.174 63.623 136.174C65.5332 136.174 67.1504 135.624 68.4746 134.522C69.7988 133.42 70.6953 131.786 71.1641 129.618ZM78.3184 138.653V112.883H81.4824V138.653H78.3184ZM85.2266 129.319C85.2266 125.862 86.1875 123.301 88.1094 121.637C89.7148 120.254 91.6719 119.563 93.9805 119.563C96.5469 119.563 98.6445 120.407 100.273 122.094C101.902 123.77 102.717 126.09 102.717 129.055C102.717 131.458 102.354 133.35 101.627 134.733C100.912 136.104 99.8633 137.17 98.4805 137.932C97.1094 138.694 95.6094 139.075 93.9805 139.075C91.3672 139.075 89.252 138.237 87.6348 136.561C86.0293 134.885 85.2266 132.471 85.2266 129.319ZM88.4785 129.319C88.4785 131.709 89 133.502 90.043 134.698C91.0859 135.881 92.3984 136.473 93.9805 136.473C95.5508 136.473 96.8574 135.875 97.9004 134.68C98.9434 133.485 99.4648 131.663 99.4648 129.213C99.4648 126.905 98.9375 125.159 97.8828 123.975C96.8398 122.78 95.5391 122.182 93.9805 122.182C92.3984 122.182 91.0859 122.774 90.043 123.958C89 125.141 88.4785 126.928 88.4785 129.319ZM118.678 138.653V135.911C117.225 138.02 115.25 139.075 112.754 139.075C111.652 139.075 110.621 138.864 109.66 138.442C108.711 138.02 108.002 137.493 107.533 136.86C107.076 136.215 106.754 135.43 106.566 134.504C106.438 133.883 106.373 132.899 106.373 131.551V119.985H109.537V130.338C109.537 131.991 109.602 133.104 109.73 133.678C109.93 134.51 110.352 135.167 110.996 135.647C111.641 136.116 112.438 136.35 113.387 136.35C114.336 136.35 115.227 136.11 116.059 135.629C116.891 135.137 117.477 134.475 117.816 133.643C118.168 132.799 118.344 131.581 118.344 129.987V119.985H121.508V138.653H118.678ZM138.594 138.653V136.297C137.41 138.149 135.67 139.075 133.373 139.075C131.885 139.075 130.514 138.665 129.26 137.844C128.018 137.024 127.051 135.881 126.359 134.417C125.68 132.94 125.34 131.247 125.34 129.336C125.34 127.473 125.65 125.786 126.271 124.274C126.893 122.75 127.824 121.584 129.066 120.776C130.309 119.967 131.697 119.563 133.232 119.563C134.357 119.563 135.359 119.803 136.238 120.284C137.117 120.752 137.832 121.368 138.383 122.129V112.883H141.529V138.653H138.594ZM128.592 129.336C128.592 131.727 129.096 133.514 130.104 134.698C131.111 135.881 132.301 136.473 133.672 136.473C135.055 136.473 136.227 135.911 137.188 134.786C138.16 133.649 138.646 131.92 138.646 129.6C138.646 127.045 138.154 125.17 137.17 123.975C136.186 122.78 134.973 122.182 133.531 122.182C132.125 122.182 130.947 122.756 129.998 123.905C129.061 125.053 128.592 126.864 128.592 129.336ZM157.525 138.653V112.883H160.936V138.653H157.525ZM166.561 138.653V119.985H169.408V122.639C170.779 120.588 172.76 119.563 175.35 119.563C176.475 119.563 177.506 119.768 178.443 120.178C179.393 120.577 180.102 121.104 180.57 121.76C181.039 122.417 181.367 123.196 181.555 124.098C181.672 124.684 181.73 125.709 181.73 127.174V138.653H178.566V127.297C178.566 126.008 178.443 125.047 178.197 124.415C177.951 123.77 177.512 123.26 176.879 122.885C176.258 122.499 175.525 122.305 174.682 122.305C173.334 122.305 172.168 122.733 171.184 123.588C170.211 124.444 169.725 126.067 169.725 128.458V138.653H166.561ZM187.355 138.653V122.446H184.561V119.985H187.355V117.999C187.355 116.745 187.467 115.813 187.689 115.204C187.994 114.383 188.527 113.721 189.289 113.217C190.062 112.702 191.141 112.444 192.523 112.444C193.414 112.444 194.398 112.549 195.477 112.76L195.002 115.52C194.346 115.403 193.725 115.344 193.139 115.344C192.178 115.344 191.498 115.549 191.1 115.959C190.701 116.37 190.502 117.137 190.502 118.262V119.985H194.141V122.446H190.502V138.653H187.355ZM196.584 138.653V119.985H199.432V122.815C200.158 121.491 200.826 120.618 201.436 120.196C202.057 119.774 202.736 119.563 203.475 119.563C204.541 119.563 205.625 119.903 206.727 120.583L205.637 123.518C204.863 123.061 204.09 122.833 203.316 122.833C202.625 122.833 202.004 123.043 201.453 123.465C200.902 123.875 200.51 124.45 200.275 125.188C199.924 126.313 199.748 127.543 199.748 128.879V138.653H196.584ZM220.789 136.35C219.617 137.346 218.486 138.049 217.396 138.459C216.318 138.87 215.158 139.075 213.916 139.075C211.865 139.075 210.289 138.577 209.188 137.581C208.086 136.573 207.535 135.29 207.535 133.731C207.535 132.817 207.74 131.985 208.15 131.235C208.572 130.473 209.117 129.864 209.785 129.407C210.465 128.95 211.227 128.604 212.07 128.37C212.691 128.206 213.629 128.047 214.883 127.895C217.438 127.59 219.318 127.227 220.525 126.805C220.537 126.372 220.543 126.096 220.543 125.979C220.543 124.69 220.244 123.782 219.646 123.254C218.838 122.54 217.637 122.182 216.043 122.182C214.555 122.182 213.453 122.446 212.738 122.973C212.035 123.489 211.514 124.409 211.174 125.733L208.08 125.311C208.361 123.987 208.824 122.92 209.469 122.112C210.113 121.292 211.045 120.665 212.264 120.231C213.482 119.786 214.895 119.563 216.5 119.563C218.094 119.563 219.389 119.75 220.385 120.125C221.381 120.5 222.113 120.975 222.582 121.549C223.051 122.112 223.379 122.827 223.566 123.694C223.672 124.233 223.725 125.206 223.725 126.612V130.831C223.725 133.772 223.789 135.635 223.918 136.42C224.059 137.194 224.328 137.938 224.727 138.653H221.422C221.094 137.997 220.883 137.229 220.789 136.35ZM220.525 129.284C219.377 129.752 217.654 130.151 215.357 130.479C214.057 130.667 213.137 130.877 212.598 131.112C212.059 131.346 211.643 131.692 211.35 132.149C211.057 132.594 210.91 133.092 210.91 133.643C210.91 134.487 211.227 135.19 211.859 135.752C212.504 136.315 213.441 136.596 214.672 136.596C215.891 136.596 216.975 136.333 217.924 135.805C218.873 135.266 219.57 134.534 220.016 133.608C220.355 132.893 220.525 131.838 220.525 130.444V129.284ZM227.381 133.081L230.51 132.588C230.686 133.842 231.172 134.803 231.969 135.471C232.777 136.139 233.902 136.473 235.344 136.473C236.797 136.473 237.875 136.18 238.578 135.594C239.281 134.997 239.633 134.299 239.633 133.502C239.633 132.788 239.322 132.225 238.701 131.815C238.268 131.534 237.189 131.176 235.467 130.743C233.146 130.157 231.535 129.653 230.633 129.231C229.742 128.797 229.062 128.206 228.594 127.456C228.137 126.694 227.908 125.856 227.908 124.942C227.908 124.11 228.096 123.342 228.471 122.639C228.857 121.924 229.379 121.333 230.035 120.864C230.527 120.5 231.195 120.196 232.039 119.95C232.895 119.692 233.809 119.563 234.781 119.563C236.246 119.563 237.529 119.774 238.631 120.196C239.744 120.618 240.564 121.192 241.092 121.918C241.619 122.633 241.982 123.594 242.182 124.801L239.088 125.223C238.947 124.262 238.537 123.512 237.857 122.973C237.189 122.434 236.24 122.165 235.01 122.165C233.557 122.165 232.52 122.405 231.898 122.885C231.277 123.366 230.967 123.928 230.967 124.573C230.967 124.983 231.096 125.352 231.354 125.68C231.611 126.02 232.016 126.301 232.566 126.524C232.883 126.641 233.814 126.911 235.361 127.333C237.6 127.93 239.158 128.422 240.037 128.809C240.928 129.184 241.625 129.735 242.129 130.461C242.633 131.188 242.885 132.09 242.885 133.168C242.885 134.223 242.574 135.219 241.953 136.157C241.344 137.083 240.459 137.803 239.299 138.319C238.139 138.823 236.826 139.075 235.361 139.075C232.936 139.075 231.084 138.571 229.807 137.563C228.541 136.555 227.732 135.061 227.381 133.081ZM253.555 135.823L254.012 138.618C253.121 138.805 252.324 138.899 251.621 138.899C250.473 138.899 249.582 138.717 248.949 138.354C248.316 137.991 247.871 137.516 247.613 136.93C247.355 136.333 247.227 135.084 247.227 133.186V122.446H244.906V119.985H247.227V115.362L250.373 113.463V119.985H253.555V122.446H250.373V133.362C250.373 134.264 250.426 134.844 250.531 135.102C250.648 135.36 250.83 135.565 251.076 135.717C251.334 135.87 251.697 135.946 252.166 135.946C252.518 135.946 252.98 135.905 253.555 135.823ZM256.631 138.653V119.985H259.479V122.815C260.205 121.491 260.873 120.618 261.482 120.196C262.104 119.774 262.783 119.563 263.521 119.563C264.588 119.563 265.672 119.903 266.773 120.583L265.684 123.518C264.91 123.061 264.137 122.833 263.363 122.833C262.672 122.833 262.051 123.043 261.5 123.465C260.949 123.875 260.557 124.45 260.322 125.188C259.971 126.313 259.795 127.543 259.795 128.879V138.653H256.631ZM280.889 138.653V135.911C279.436 138.02 277.461 139.075 274.965 139.075C273.863 139.075 272.832 138.864 271.871 138.442C270.922 138.02 270.213 137.493 269.744 136.86C269.287 136.215 268.965 135.43 268.777 134.504C268.648 133.883 268.584 132.899 268.584 131.551V119.985H271.748V130.338C271.748 131.991 271.812 133.104 271.941 133.678C272.141 134.51 272.562 135.167 273.207 135.647C273.852 136.116 274.648 136.35 275.598 136.35C276.547 136.35 277.438 136.11 278.27 135.629C279.102 135.137 279.688 134.475 280.027 133.643C280.379 132.799 280.555 131.581 280.555 129.987V119.985H283.719V138.653H280.889ZM300.875 131.815L303.986 132.219C303.646 134.364 302.773 136.045 301.367 137.264C299.973 138.471 298.256 139.075 296.217 139.075C293.662 139.075 291.605 138.243 290.047 136.579C288.5 134.903 287.727 132.506 287.727 129.389C287.727 127.374 288.061 125.61 288.729 124.098C289.396 122.586 290.41 121.456 291.77 120.706C293.141 119.944 294.629 119.563 296.234 119.563C298.262 119.563 299.92 120.079 301.209 121.11C302.498 122.129 303.324 123.583 303.688 125.469L300.611 125.944C300.318 124.69 299.797 123.747 299.047 123.114C298.309 122.481 297.412 122.165 296.357 122.165C294.764 122.165 293.469 122.739 292.473 123.887C291.477 125.024 290.979 126.829 290.979 129.301C290.979 131.809 291.459 133.631 292.42 134.768C293.381 135.905 294.635 136.473 296.182 136.473C297.424 136.473 298.461 136.092 299.293 135.331C300.125 134.569 300.652 133.397 300.875 131.815ZM313.602 135.823L314.059 138.618C313.168 138.805 312.371 138.899 311.668 138.899C310.52 138.899 309.629 138.717 308.996 138.354C308.363 137.991 307.918 137.516 307.66 136.93C307.402 136.333 307.273 135.084 307.273 133.186V122.446H304.953V119.985H307.273V115.362L310.42 113.463V119.985H313.602V122.446H310.42V133.362C310.42 134.264 310.473 134.844 310.578 135.102C310.695 135.36 310.877 135.565 311.123 135.717C311.381 135.87 311.744 135.946 312.213 135.946C312.564 135.946 313.027 135.905 313.602 135.823ZM328.947 138.653V135.911C327.494 138.02 325.52 139.075 323.023 139.075C321.922 139.075 320.891 138.864 319.93 138.442C318.98 138.02 318.271 137.493 317.803 136.86C317.346 136.215 317.023 135.43 316.836 134.504C316.707 133.883 316.643 132.899 316.643 131.551V119.985H319.807V130.338C319.807 131.991 319.871 133.104 320 133.678C320.199 134.51 320.621 135.167 321.266 135.647C321.91 136.116 322.707 136.35 323.656 136.35C324.605 136.35 325.496 136.11 326.328 135.629C327.16 135.137 327.746 134.475 328.086 133.643C328.438 132.799 328.613 131.581 328.613 129.987V119.985H331.777V138.653H328.947ZM336.717 138.653V119.985H339.564V122.815C340.291 121.491 340.959 120.618 341.568 120.196C342.189 119.774 342.869 119.563 343.607 119.563C344.674 119.563 345.758 119.903 346.859 120.583L345.77 123.518C344.996 123.061 344.223 122.833 343.449 122.833C342.758 122.833 342.137 123.043 341.586 123.465C341.035 123.875 340.643 124.45 340.408 125.188C340.057 126.313 339.881 127.543 339.881 128.879V138.653H336.717ZM361.52 132.641L364.789 133.045C364.273 134.956 363.318 136.438 361.924 137.493C360.529 138.547 358.748 139.075 356.58 139.075C353.85 139.075 351.682 138.237 350.076 136.561C348.482 134.874 347.686 132.512 347.686 129.477C347.686 126.336 348.494 123.899 350.111 122.165C351.729 120.43 353.826 119.563 356.404 119.563C358.9 119.563 360.939 120.413 362.521 122.112C364.104 123.811 364.895 126.202 364.895 129.284C364.895 129.471 364.889 129.752 364.877 130.127H350.955C351.072 132.178 351.652 133.749 352.695 134.838C353.738 135.928 355.039 136.473 356.598 136.473C357.758 136.473 358.748 136.168 359.568 135.559C360.389 134.95 361.039 133.977 361.52 132.641ZM351.131 127.526H361.555C361.414 125.956 361.016 124.778 360.359 123.993C359.352 122.774 358.045 122.165 356.439 122.165C354.986 122.165 353.762 122.651 352.766 123.624C351.781 124.596 351.236 125.897 351.131 127.526Z" fill="black"/>
</svg>
