<svg width="450" height="220" viewBox="0 0 450 220" fill="none" xmlns="http://www.w3.org/2000/svg">
<mask id="mask0_1478_1278" style="mask-type:luminance" maskUnits="userSpaceOnUse" x="125" y="77" width="200" height="66">
<path d="M325 77H125V142.236H325V77Z" fill="white"/>
</mask>
<g mask="url(#mask0_1478_1278)">
<path d="M204.207 124.694C202.386 123.628 200.947 122.19 199.888 120.375C198.831 118.56 198.3 116.568 198.3 114.408V104.825C198.3 102.665 198.831 100.676 199.888 98.8645C200.947 97.0466 202.386 95.6078 204.207 94.5451C206.025 93.4761 208.011 92.9447 210.161 92.9447C212.312 92.9447 214.294 93.4792 216.115 94.5451C217.933 95.6078 219.375 97.0466 220.435 98.8645C221.494 100.679 222.023 102.665 222.023 104.825V114.408C222.023 116.568 221.494 118.557 220.435 120.375C219.378 122.19 217.936 123.628 216.115 124.694C214.294 125.757 212.309 126.292 210.161 126.292C208.014 126.292 206.028 125.757 204.207 124.694ZM213.34 120.126C214.325 119.526 215.108 118.718 215.689 117.696C216.271 116.674 216.56 115.58 216.56 114.408V104.825C216.56 103.653 216.271 102.559 215.689 101.537C215.105 100.518 214.322 99.7067 213.34 99.1069C212.355 98.5072 211.295 98.2057 210.161 98.2057C209.027 98.2057 207.967 98.5072 206.982 99.1069C205.997 99.7067 205.214 100.521 204.633 101.537C204.052 102.556 203.76 103.65 203.76 104.825V114.408C203.76 115.58 204.052 116.674 204.633 117.696C205.217 118.715 206 119.526 206.982 120.126C207.967 120.726 209.027 121.027 210.161 121.027C211.295 121.027 212.355 120.726 213.34 120.126Z" fill="#4CAF5B"/>
<path d="M230.699 125.459C229.133 124.934 227.678 124.209 226.336 123.277C226.187 123.187 226.081 123.032 226.022 122.805C225.96 122.575 225.978 122.376 226.065 122.196L227.632 119.362C227.809 119.004 228.092 118.821 228.48 118.821C228.719 118.821 228.943 118.883 229.154 119.004C231.392 120.412 233.48 121.121 235.419 121.121C236.998 121.121 238.247 120.735 239.157 119.971C240.068 119.206 240.522 118.209 240.522 116.978C240.522 116.167 240.298 115.487 239.85 114.93C239.403 114.374 238.803 113.902 238.06 113.51C237.312 113.125 236.224 112.64 234.791 112.071L233.492 111.534C231.463 110.664 229.754 109.551 228.368 108.203C226.979 106.851 226.283 104.871 226.283 102.261C226.283 100.431 226.693 98.8117 227.517 97.4009C228.337 95.9901 229.478 94.8962 230.941 94.1131C232.405 93.3331 234.089 92.9416 236 92.9416C237.582 92.9416 239.157 93.2057 240.724 93.7309C242.29 94.2592 243.701 94.9832 244.953 95.9124C245.102 95.9994 245.205 96.1579 245.267 96.3847C245.326 96.6085 245.31 96.8136 245.223 96.9907L243.747 99.8247C243.57 100.185 243.281 100.362 242.896 100.362C242.657 100.362 242.433 100.303 242.225 100.185C241.059 99.4332 239.947 98.8956 238.89 98.5631C237.831 98.2337 236.883 98.069 236.047 98.069C234.704 98.069 233.645 98.4388 232.868 99.1691C232.091 99.9055 231.706 100.844 231.706 101.984C231.706 103.125 232.131 104.119 232.98 104.887C233.831 105.651 235.195 106.425 237.075 107.205C237.343 107.295 238.365 107.709 240.143 108.442C241.917 109.178 243.328 110.25 244.372 111.658C245.419 113.072 245.938 114.735 245.938 116.655C245.938 118.576 245.497 120.173 244.617 121.627C243.738 123.085 242.504 124.216 240.926 125.027C239.344 125.838 237.523 126.242 235.466 126.242C233.856 126.242 232.265 125.981 230.699 125.456" fill="#4CAF5B"/>
<path d="M256.054 124.694C254.245 123.628 252.816 122.19 251.756 120.375C250.696 118.56 250.168 116.568 250.168 114.408V104.825C250.168 102.665 250.696 100.676 251.756 98.8614C252.816 97.0435 254.248 95.6047 256.054 94.542C257.856 93.473 259.835 92.9416 261.986 92.9416C263.866 92.9416 265.609 93.2834 267.222 93.9546C268.832 94.629 270.205 95.6172 271.34 96.9037C271.517 97.115 271.607 97.3698 271.607 97.6712C271.607 97.9727 271.486 98.271 271.249 98.5724L269.276 100.639C269.037 100.881 268.801 100.999 268.561 100.999C268.263 100.999 267.996 100.866 267.757 100.595C266.265 99.0075 264.354 98.2119 262.026 98.2119C260.892 98.2119 259.835 98.5134 258.85 99.1131C257.865 99.7129 257.082 100.527 256.501 101.543C255.92 102.562 255.631 103.656 255.631 104.831V114.415C255.631 115.586 255.92 116.68 256.501 117.699C257.082 118.722 257.865 119.53 258.85 120.129C259.835 120.729 260.892 121.03 262.026 121.03C263.161 121.03 264.22 120.745 265.205 120.176C266.19 119.604 266.964 118.824 267.533 117.833C268.098 116.845 268.381 115.763 268.381 114.595V112.388H262.387C262.116 112.388 261.893 112.298 261.712 112.121C261.535 111.941 261.445 111.714 261.445 111.444V108.206C261.445 107.938 261.535 107.709 261.712 107.531C261.893 107.348 262.116 107.264 262.387 107.264H271.83C272.368 107.264 272.822 107.451 273.195 107.824C273.568 108.2 273.754 108.656 273.754 109.197V114.418C273.754 116.577 273.223 118.566 272.166 120.384C271.11 122.199 269.674 123.638 267.872 124.704C266.063 125.766 264.102 126.301 261.986 126.301C259.87 126.301 257.859 125.766 256.054 124.704" fill="#003A40"/>
<path d="M283.645 124.265C282.017 123.308 280.727 122 279.773 120.35C278.816 118.703 278.341 116.904 278.341 114.952V110.092C278.341 108.144 278.816 106.341 279.773 104.691C280.727 103.044 282.017 101.739 283.645 100.779C285.271 99.8185 287.054 99.3369 288.993 99.3369C290.932 99.3369 292.716 99.8185 294.341 100.779C295.97 101.739 297.259 103.044 298.213 104.691C299.171 106.341 299.649 108.144 299.649 110.092V113.106C299.649 113.644 299.46 114.101 299.09 114.477C298.714 114.853 298.26 115.039 297.722 115.039H283.711V115.269C283.711 116.739 284.226 117.988 285.255 119.023C286.284 120.058 287.533 120.574 288.993 120.574H296.11C296.377 120.574 296.604 120.667 296.781 120.847C296.958 121.027 297.048 121.251 297.048 121.521V124.763C297.048 125.03 296.958 125.257 296.781 125.437C296.604 125.614 296.377 125.704 296.11 125.704H288.993C287.054 125.704 285.271 125.222 283.645 124.262M294.273 110.182V109.778C294.273 108.305 293.757 107.056 292.729 106.018C291.7 104.983 290.451 104.467 288.99 104.467C287.53 104.467 286.284 104.983 285.252 106.018C284.223 107.053 283.708 108.305 283.708 109.778V110.182H294.27H294.273Z" fill="#003A40"/>
<path d="M309 124.874C307.371 123.93 306.082 122.649 305.128 121.027C304.174 119.405 303.698 117.649 303.698 115.76V109.865C303.698 107.976 304.174 106.22 305.128 104.598C306.085 102.982 307.374 101.695 309 100.751C310.625 99.8061 312.409 99.3337 314.348 99.3337C316.287 99.3337 318.067 99.8061 319.696 100.751C321.321 101.695 322.614 102.982 323.568 104.598C324.522 106.22 325 107.976 325 109.865V115.76C325 117.649 324.522 119.405 323.568 121.027C322.611 122.649 321.321 123.93 319.696 124.874C318.067 125.819 316.287 126.291 314.348 126.291C312.409 126.291 310.625 125.819 309 124.874ZM318.083 119.517C319.112 118.482 319.627 117.23 319.627 115.76V109.865C319.627 108.395 319.112 107.143 318.083 106.108C317.054 105.073 315.805 104.557 314.345 104.557C312.884 104.557 311.635 105.073 310.606 106.108C309.578 107.143 309.062 108.395 309.062 109.865V115.76C309.062 117.23 309.578 118.482 310.606 119.517C311.635 120.552 312.884 121.071 314.345 121.071C315.805 121.071 317.054 120.552 318.083 119.517Z" fill="#003A40"/>
<path d="M155.989 90.12V77L151.896 84.1628C140.753 86.6551 132.303 96.276 131.579 107.988H138.12C138.907 98.4823 146.483 90.9062 155.989 90.12Z" fill="#4CAF5B"/>
<path d="M138.12 111.251H125L132.163 115.344C134.658 126.487 144.273 134.937 155.988 135.661V129.119C146.482 128.336 138.906 120.76 138.12 111.254" fill="#003A40"/>
<path d="M177.116 107.988H190.236L183.073 103.896C180.581 92.752 170.963 84.3027 159.248 83.5817V90.1199C168.754 90.9062 176.33 98.4823 177.116 107.988Z" fill="#003A40"/>
<path d="M159.248 129.116V142.236L163.341 135.073C174.484 132.578 182.934 122.96 183.658 111.248H177.116C176.33 120.751 168.754 128.327 159.248 129.113" fill="#4CAF5B"/>
<path d="M159.636 107.603L147.526 99.5295L155.6 111.64L167.71 119.713L159.636 107.603ZM157.598 111.015C156.812 111.015 156.171 110.375 156.171 109.589C156.171 108.802 156.812 108.162 157.598 108.162C158.384 108.162 159.024 108.799 159.024 109.589C159.024 110.378 158.384 111.015 157.598 111.015Z" fill="#003A40"/>
<path d="M155.6 111.636L152.878 107.556L140.494 109.62L152.878 111.683L147.526 119.71L155.553 114.359L157.617 126.742L159.683 114.359L155.6 111.636Z" fill="#4CAF5B"/>
<path d="M162.359 107.556L167.707 99.5264L159.683 104.881L157.62 92.4941L155.557 104.881L159.637 107.6L162.359 111.683L174.742 109.62L162.359 107.556Z" fill="#4CAF5B"/>
</g>
</svg>
