<?xml version="1.0" encoding="utf-8"?>
<!-- Generator: Adobe Illustrator 28.2.0, SVG Export Plug-In . SVG Version: 6.00 Build 0)  -->
<svg version="1.1" id="Layer_1" xmlns="http://www.w3.org/2000/svg" xmlns:xlink="http://www.w3.org/1999/xlink" x="0px" y="0px"
	 viewBox="0 0 450 220" style="enable-background:new 0 0 450 220;" xml:space="preserve">
<style type="text/css">
	.st0{fill:#43AEE3;}
	.st1{fill:#FFC200;}
	.st2{fill:#3477BD;}
	.st3{fill:#495A70;}
	.st4{fill:none;stroke:#344151;stroke-width:10.0001;stroke-miterlimit:10.0001;}
	.st5{font-family:'Rockwell-Regular';}
	.st6{font-size:40.8204px;}
	.st7{font-size:19.1065px;}
</style>
<g>
	<path class="st0" d="M156.5,75.4c16.4,1.7,29.4,14.6,31.1,31h7c-1.7-20.2-17.8-36.3-38.2-38V75.4z"/>
	<path class="st1" d="M118.3,106.5c1.7-16.4,14.7-29.3,31.1-31v-7c-20.3,1.7-36.5,17.8-38.2,38H118.3z"/>
	<path class="st2" d="M149.5,144.7c-16.4-1.7-29.4-14.7-31.1-31.1h-7c1.7,20.3,17.8,36.5,38.2,38.2V144.7z"/>
	<path class="st3" d="M187.5,113.6c-1.6,16.4-14.6,29.6-31.1,31.1v7c20.3-1.7,36.5-17.8,38.2-38.2
		C194.5,113.6,187.5,113.6,187.5,113.6z"/>
	<ellipse class="st4" cx="153.4" cy="110.1" rx="13.3" ry="13.3"/>
	<text transform="matrix(1 0 0 1 199.6348 112.9758)" class="st3 st5 st6">Ovidio</text>
	<text transform="matrix(1 0 0 1 205.1753 136.3996)" class="st1 st5 st7">IT Consulting</text>
</g>
</svg>
