<svg width="450" height="220" viewBox="0 0 450 220" fill="none" xmlns="http://www.w3.org/2000/svg">
<path d="M180.988 118.225V119.8H177.75V130.3C177.75 130.912 177.838 131.438 178.013 131.788C178.188 132.138 178.625 132.312 179.325 132.4C179.85 132.4 180.375 132.4 180.988 132.312V133.888C180.725 133.888 180.463 133.888 180.113 133.888C179.85 133.888 179.588 133.888 179.238 133.888C177.925 133.888 177.05 133.625 176.613 133.188C176.088 132.662 175.825 131.788 175.913 130.475V119.8H173.2V118.225H175.913V113.5H177.838V118.225H180.988Z" fill="black"/>
<path d="M185.1 128.637C185.275 129.337 185.625 130.037 186.063 130.65C186.5 131.262 187.025 131.7 187.638 132.137C188.25 132.487 189.038 132.75 190 132.75C191.4 132.75 192.45 132.4 193.238 131.7C194.025 131 194.55 130.037 194.9 128.812H196.825C196.388 130.562 195.688 131.962 194.638 132.925C193.588 133.887 192.013 134.412 190.088 134.412C188.863 134.412 187.813 134.237 186.938 133.8C186.063 133.362 185.275 132.75 184.75 132.05C184.225 131.262 183.788 130.387 183.525 129.425C183.263 128.462 183.088 127.412 183.088 126.275C183.088 125.225 183.263 124.262 183.525 123.212C183.788 122.25 184.225 121.375 184.75 120.587C185.275 119.8 186.063 119.187 186.938 118.75C187.813 118.312 188.863 118.05 190.088 118.05C191.313 118.05 192.363 118.312 193.325 118.837C194.2 119.362 194.9 119.975 195.513 120.85C196.038 121.637 196.475 122.6 196.738 123.65C197 124.7 197.088 125.75 197 126.887H185.013C184.838 127.237 184.925 127.937 185.1 128.637ZM194.55 122.862C194.288 122.162 194.025 121.637 193.588 121.112C193.15 120.587 192.625 120.15 192.013 119.887C191.4 119.537 190.7 119.45 190 119.45C189.213 119.45 188.513 119.625 187.9 119.887C187.288 120.237 186.763 120.587 186.325 121.112C185.888 121.637 185.538 122.25 185.275 122.862C185.013 123.562 184.838 124.262 184.75 124.962H194.813C194.9 124.175 194.725 123.475 194.55 122.862Z" fill="black"/>
<path d="M208.9 120.325C208.2 119.625 207.238 119.362 205.925 119.362C205.05 119.362 204.263 119.538 203.563 119.975C202.863 120.325 202.338 120.85 201.813 121.462C201.375 122.075 201.025 122.775 200.763 123.562C200.5 124.35 200.413 125.138 200.413 126.013C200.413 126.8 200.5 127.675 200.763 128.462C201.025 129.25 201.375 129.95 201.813 130.562C202.25 131.175 202.863 131.7 203.563 132.05C204.263 132.4 205.05 132.663 205.925 132.663C206.538 132.663 207.063 132.575 207.588 132.312C208.113 132.05 208.55 131.788 208.988 131.35C209.425 131 209.688 130.475 209.95 129.95C210.213 129.425 210.388 128.813 210.475 128.2H212.4C212.138 130.125 211.438 131.613 210.3 132.663C209.163 133.713 207.763 134.237 205.925 134.237C204.7 134.237 203.65 134.062 202.775 133.625C201.9 133.188 201.113 132.575 200.5 131.875C199.888 131.088 199.363 130.3 199.1 129.25C198.75 128.287 198.575 127.15 198.575 126.1C198.575 124.963 198.75 123.913 199.1 122.95C199.45 121.988 199.888 121.113 200.5 120.325C201.113 119.538 201.9 119.013 202.775 118.575C203.65 118.138 204.788 117.875 205.925 117.875C207.588 117.875 208.988 118.312 210.213 119.188C211.35 120.062 212.05 121.375 212.313 123.212H210.388C210.125 121.9 209.6 121.025 208.9 120.325Z" fill="black"/>
<path d="M216.95 112.275V120.938H217.037C217.387 119.975 218.087 119.188 218.962 118.663C219.925 118.05 220.887 117.788 222.025 117.788C223.075 117.788 224.037 117.963 224.737 118.225C225.437 118.488 226.05 118.925 226.487 119.45C226.925 119.975 227.275 120.588 227.45 121.375C227.625 122.163 227.712 122.95 227.712 123.913V133.975H225.787V124.088C225.787 123.388 225.7 122.775 225.612 122.25C225.525 121.638 225.262 121.2 225 120.763C224.737 120.325 224.3 119.975 223.775 119.8C223.25 119.538 222.637 119.45 221.85 119.45C221.062 119.45 220.362 119.625 219.837 119.888C219.225 120.15 218.7 120.5 218.35 121.025C217.912 121.463 217.65 122.075 217.387 122.688C217.125 123.3 217.037 124.088 217.037 124.788V133.888H215.112V112.275H216.95Z" fill="black"/>
<path d="M232.438 130.65H234.975V133.888H232.438V130.65Z" fill="black"/>
<path d="M248.713 121.288C248.45 120.85 248.188 120.5 247.838 120.237C247.488 119.975 247.05 119.713 246.525 119.625C246 119.537 245.563 119.45 244.95 119.45C244.513 119.45 244.075 119.537 243.638 119.625C243.2 119.713 242.85 119.887 242.413 120.062C242.063 120.238 241.8 120.587 241.538 120.938C241.275 121.288 241.188 121.725 241.188 122.25C241.188 122.688 241.275 123.037 241.538 123.3C241.713 123.562 241.975 123.825 242.325 124C242.675 124.175 243.025 124.35 243.375 124.525C243.725 124.612 244.075 124.787 244.425 124.875L246.963 125.487C247.488 125.575 248.013 125.75 248.538 125.925C249.063 126.1 249.588 126.45 249.938 126.712C250.375 127.062 250.725 127.5 250.988 128.025C251.25 128.55 251.338 129.162 251.338 129.775C251.338 130.65 251.163 131.35 250.725 131.962C250.375 132.575 249.85 133.013 249.238 133.45C248.625 133.8 248.013 134.062 247.225 134.237C246.438 134.412 245.738 134.5 245.038 134.5C243.2 134.5 241.713 134.062 240.575 133.188C239.438 132.312 238.825 130.912 238.65 128.987H240.575C240.663 130.3 241.1 131.263 241.975 131.875C242.85 132.487 243.9 132.837 245.125 132.837C245.563 132.837 246.088 132.75 246.525 132.663C247.05 132.575 247.488 132.4 247.925 132.138C248.363 131.875 248.713 131.612 248.975 131.175C249.238 130.825 249.413 130.3 249.413 129.775C249.413 129.337 249.325 128.9 249.15 128.638C248.975 128.288 248.713 128.025 248.363 127.85C248.013 127.675 247.663 127.5 247.225 127.325C246.788 127.15 246.438 127.063 246 126.975L243.55 126.45C242.938 126.275 242.325 126.1 241.8 125.925C241.275 125.75 240.838 125.488 240.4 125.138C239.963 124.788 239.7 124.438 239.438 124C239.175 123.562 239.088 122.95 239.088 122.337C239.088 121.55 239.263 120.85 239.613 120.325C239.963 119.8 240.4 119.275 241.013 118.925C241.538 118.575 242.238 118.313 242.938 118.138C243.638 117.963 244.338 117.875 245.038 117.875C245.825 117.875 246.525 117.963 247.225 118.138C247.925 118.313 248.538 118.663 248.975 119.1C249.5 119.538 249.938 120.062 250.2 120.675C250.463 121.287 250.638 122.075 250.725 122.862H248.8C249.063 122.162 248.888 121.725 248.713 121.288Z" fill="black"/>
<path d="M260.437 118.225V119.8H257.287V130.3C257.287 130.912 257.375 131.438 257.55 131.788C257.725 132.138 258.162 132.312 258.862 132.4C259.387 132.4 259.912 132.4 260.525 132.312V133.888C260.262 133.888 260 133.888 259.65 133.888C259.387 133.888 259.125 133.888 258.775 133.888C257.462 133.888 256.587 133.625 256.15 133.188C255.625 132.662 255.362 131.788 255.45 130.475V119.8H252.737V118.225H255.45V113.5H257.375V118.225H260.437Z" fill="black"/>
<path d="M274.087 133.8V131H274C273.475 132.05 272.775 132.837 271.812 133.362C270.85 133.887 269.8 134.15 268.662 134.15C267.7 134.15 266.825 133.975 266.125 133.712C265.425 133.45 264.9 133.012 264.462 132.575C264.025 132.05 263.675 131.437 263.5 130.737C263.325 130.037 263.237 129.162 263.237 128.287V118.225H265.162V128.375C265.162 129.775 265.512 130.825 266.125 131.612C266.737 132.312 267.787 132.662 269.275 132.662C270.062 132.662 270.85 132.487 271.375 132.137C271.9 131.787 272.425 131.35 272.862 130.737C273.212 130.125 273.562 129.512 273.737 128.725C273.912 127.937 274 127.237 274 126.45V118.225H275.925V133.8H274.087Z" fill="black"/>
<path d="M291.412 133.8V130.825H291.325C291.15 131.35 290.8 131.788 290.45 132.225C290.1 132.663 289.575 133.013 289.138 133.275C288.613 133.538 288.088 133.8 287.562 133.975C286.95 134.15 286.425 134.238 285.812 134.238C284.588 134.238 283.625 134.063 282.75 133.625C281.875 133.188 281.175 132.575 280.562 131.875C279.95 131.088 279.513 130.213 279.25 129.25C278.987 128.288 278.812 127.238 278.812 126.1C278.812 124.963 278.987 123.913 279.25 122.95C279.513 121.988 279.95 121.113 280.562 120.325C281.175 119.538 281.875 119.013 282.75 118.488C283.625 118.05 284.675 117.788 285.812 117.788C286.425 117.788 286.95 117.875 287.562 117.963C288.088 118.138 288.613 118.313 289.138 118.575C289.663 118.838 290.013 119.188 290.45 119.625C290.8 120.063 291.15 120.5 291.325 121.113H291.412V112.275H293.338V133.888H291.412V133.8ZM280.912 128.375C281.087 129.163 281.437 129.863 281.787 130.475C282.137 131.088 282.75 131.613 283.362 131.963C283.975 132.313 284.762 132.575 285.725 132.575C286.775 132.575 287.563 132.4 288.263 131.963C288.963 131.613 289.487 131.088 289.925 130.475C290.362 129.863 290.713 129.163 290.888 128.375C291.063 127.588 291.15 126.8 291.15 126.013C291.15 125.225 291.063 124.438 290.888 123.65C290.713 122.863 290.362 122.163 289.925 121.55C289.487 120.938 288.963 120.413 288.263 120.063C287.563 119.713 286.687 119.45 285.725 119.45C284.85 119.45 284.062 119.625 283.362 120.063C282.75 120.413 282.225 120.938 281.787 121.55C281.35 122.163 281.087 122.863 280.912 123.65C280.737 124.438 280.65 125.225 280.65 126.013C280.65 126.8 280.737 127.588 280.912 128.375Z" fill="black"/>
<path d="M298.675 112.275V115.25H296.75V112.188L298.675 112.275ZM298.675 118.225V133.8H296.75V118.225H298.675Z" fill="black"/>
<path d="M312.062 118.4C312.938 118.838 313.725 119.45 314.338 120.15C314.95 120.938 315.475 121.725 315.738 122.775C316.088 123.738 316.262 124.875 316.262 125.925C316.262 127.063 316.088 128.113 315.738 129.075C315.388 130.038 314.95 130.913 314.338 131.7C313.725 132.488 312.938 133.013 312.062 133.45C311.188 133.888 310.05 134.063 308.912 134.063C307.687 134.063 306.638 133.888 305.763 133.45C304.888 133.013 304.1 132.4 303.487 131.7C302.875 130.913 302.35 130.125 302.088 129.075C301.738 128.113 301.562 126.975 301.562 125.925C301.562 124.788 301.738 123.738 302.088 122.775C302.438 121.813 302.875 120.938 303.487 120.15C304.1 119.363 304.888 118.838 305.763 118.4C306.638 117.963 307.775 117.7 308.912 117.7C310.137 117.788 311.188 117.963 312.062 118.4ZM306.55 119.975C305.85 120.325 305.325 120.85 304.8 121.463C304.362 122.075 304.013 122.775 303.75 123.563C303.487 124.35 303.4 125.138 303.4 126.013C303.4 126.8 303.487 127.675 303.75 128.463C304.013 129.25 304.362 129.95 304.8 130.563C305.237 131.175 305.85 131.7 306.55 132.05C307.25 132.4 308.037 132.663 308.912 132.663C309.787 132.663 310.575 132.488 311.275 132.05C311.975 131.7 312.5 131.175 313.025 130.563C313.463 129.95 313.812 129.25 314.075 128.463C314.337 127.675 314.425 126.888 314.425 126.013C314.425 125.225 314.337 124.35 314.075 123.563C313.812 122.775 313.463 122.075 313.025 121.463C312.588 120.85 311.975 120.325 311.275 119.975C310.575 119.625 309.787 119.363 308.912 119.363C308.037 119.363 307.25 119.538 306.55 119.975Z" fill="black"/>
<path d="M173.55 83.75H171.45V80.95H181.6C185.8 80.95 188.863 83.8375 188.863 88.2125C188.863 92.5875 185.888 95.5625 181.6 95.5625H176.788V104.138H173.55V83.75ZM181.075 92.675C183.788 92.675 185.45 90.925 185.45 88.125C185.45 85.325 183.788 83.75 181.075 83.75H176.788V92.675H181.075Z" fill="black"/>
<path d="M202.513 80.5125C209.163 80.5125 214.413 85.675 214.413 92.325C214.413 99.15 209.25 104.4 202.513 104.4C195.863 104.4 190.7 99.0625 190.7 92.325C190.613 85.675 195.775 80.5125 202.513 80.5125ZM202.513 101.338C207.15 101.338 211 97.4 211 92.325C211 87.425 207.238 83.575 202.513 83.575C197.875 83.575 194.025 87.3375 194.025 92.325C194.025 97.4 197.788 101.338 202.513 101.338Z" fill="black"/>
<path d="M216.862 101.25H219.137V83.75H216.862V80.95H224.475V83.75H222.2V101.25H224.475V104.05H216.862V101.25Z" fill="black"/>
<path d="M227.1 101.25H228.5C228.937 101.25 229.2 100.988 229.2 100.55V80.95H232.175L242.5 95.5625C243.375 96.7875 244.425 98.7125 244.425 98.7125H244.512C244.512 98.7125 244.25 96.875 244.25 95.5625V83.05C244.25 81.5625 244.862 80.95 246.35 80.95H249.587V83.75H248.187C247.75 83.75 247.487 84.0125 247.487 84.45V104.05H244.512L234.187 89.4375C233.312 88.2125 232.262 86.2875 232.262 86.2875H232.175C232.175 86.2875 232.35 88.125 232.35 89.4375V101.95C232.35 103.438 231.737 104.05 230.25 104.05H226.925V101.25H227.1Z" fill="black"/>
<path d="M263.588 80.5125C266.738 80.5125 272.25 81.825 272.25 85.5V87.775H269.275V86.4625C269.275 84.5375 266.038 83.575 263.675 83.575C259.038 83.575 255.45 87.075 255.45 92.2375C255.45 97.3125 259.125 101.338 263.763 101.338C268.313 101.338 271.025 98.1875 271.025 98.1875L272.775 100.55C272.775 100.55 269.538 104.4 263.675 104.4C256.763 104.4 251.95 99.0625 251.95 92.2375C252.038 85.5875 257.025 80.5125 263.588 80.5125Z" fill="black"/>
<path d="M277.238 83.75H275.138V80.95H288.7C290.188 80.95 290.8 81.5625 290.8 83.05V85.9375H287.825V84.45C287.825 83.925 287.563 83.75 287.125 83.75H280.563V91.0125H288.613V93.8125H280.563V100.55C280.563 100.988 280.825 101.25 281.263 101.25H288C288.438 101.25 288.7 100.988 288.7 100.55V99.0625H291.675V101.95C291.675 103.438 291.063 104.05 289.575 104.05H279.338C277.85 104.05 277.238 103.438 277.238 101.95V83.75Z" fill="black"/>
<path d="M293.687 101.25H295.087C295.525 101.25 295.787 100.988 295.787 100.55V80.95H298.762L309 95.5625C309.875 96.7875 310.925 98.7125 310.925 98.7125H311.012C311.012 98.7125 310.75 96.875 310.75 95.5625V83.05C310.75 81.5625 311.362 80.95 312.85 80.95H316.087V83.75H314.687C314.25 83.75 313.987 84.0125 313.987 84.45V104.05H311.012L300.687 89.4375C299.812 88.2125 298.762 86.2875 298.762 86.2875H298.675C298.675 86.2875 298.85 88.125 298.85 89.4375V101.95C298.85 103.438 298.237 104.05 296.75 104.05H293.425V101.25H293.687Z" fill="black"/>
<path d="M330.438 80.5125C337.087 80.5125 342.338 85.675 342.338 92.325C342.338 99.15 337.175 104.4 330.438 104.4C323.788 104.4 318.625 99.0625 318.625 92.325C318.625 85.675 323.788 80.5125 330.438 80.5125ZM330.438 101.338C335.075 101.338 338.925 97.4 338.925 92.325C338.925 87.425 335.163 83.575 330.438 83.575C325.8 83.575 321.95 87.3375 321.95 92.325C322.037 97.4 325.8 101.338 330.438 101.338Z" fill="black"/>
<path d="M352.225 83.75H347.588C347.15 83.75 346.887 84.0125 346.887 84.45V85.9375H344V82.875C344 81.3875 344.525 80.95 345.925 80.95H361.85C363.337 80.95 363.775 81.475 363.775 82.875V85.9375H360.887V84.45C360.887 83.925 360.625 83.75 360.188 83.75H355.55V104.05H352.312V83.75H352.225Z" fill="black"/>
<path d="M135.663 73.5125L132.688 64.5875V97.3125L138.637 115.163L149.313 150.163L160.338 144.738C160.6 144.563 160.775 144.213 160.6 143.95L144.587 109.213L135.663 73.5125Z" fill="#5C5A5E"/>
<path d="M117.725 133.012L120.35 158.037C121.225 158.125 122.187 158.037 123.062 157.95L141.962 155.675C142.575 155.587 143.187 155.412 143.712 155.062L135.575 132.925L120.7 115.162L108.8 91.3625V115.162L117.725 133.012Z" fill="#5C5A5E"/>
<path d="M149.313 150.163L138.638 115.163L132.688 97.3125L120.7 115.163L135.663 133.013L143.8 155.15C144.238 154.888 144.763 154.538 145.288 154.1C145.463 153.925 149.313 150.163 149.313 150.163Z" fill="#808080"/>
<path d="M132.687 97.3125V64.5875L127.612 62.05C127.087 61.7875 126.562 61.9625 126.3 62.4875L123.937 67.3C123.85 67.475 123.675 67.65 123.5 67.7375L118.162 70.3625C117.987 70.45 117.812 70.625 117.725 70.8875L108.8 91.3625L120.7 115.162L132.687 97.3125Z" fill="#FF560B"/>
<path d="M117.725 133.012L108.8 115.162V91.3625L99.7878 103.262L86.3128 146.487C86.1378 147.012 86.4003 147.537 86.9253 147.712L118.6 157.775C119.038 157.95 119.563 158.037 120.088 158.037C120.175 158.037 120.263 158.037 120.35 158.037L117.725 133.012Z" fill="#FF560B"/>
</svg>
