<?xml version="1.0" encoding="utf-8"?>
<!-- Generator: Adobe Illustrator 28.0.0, SVG Export Plug-In . SVG Version: 6.00 Build 0)  -->
<svg version="1.1" id="Layer_1" xmlns="http://www.w3.org/2000/svg" xmlns:xlink="http://www.w3.org/1999/xlink" x="0px" y="0px"
	 viewBox="0 0 450 220" style="enable-background:new 0 0 450 220;" xml:space="preserve">
<style type="text/css">
	.st0{fill:#006655;}
	.st1{fill:#FFFFFF;}
	.st2{fill:#00A98F;}
	.st3{fill:#6D6E71;}
</style>
<g>
	<g>
		<polygon class="st0" points="298.3,79.7 298.3,164.3 364,164.3 380.5,79.7 		"/>
		<path class="st1" d="M343,100.4c-2.7-2.4-7.1-3.5-12.8-3.5c-2.7,0-5.4,0.3-8.2,0.8c-1.5,0.3-2.9,0.7-4.2,1.2l-2.2,10.9
			c1.7-0.8,3.2-1.5,4.5-2c1.8-0.5,4-0.8,6.4-0.8c2.4,0,4.2,0.5,5.2,1.7s1.7,2.5,1.7,4.2c0,2.4-1,4.7-3.2,6.9
			c-2,2.2-6.4,5.5-12.8,10.1l-6.6,4.7l-2.5,12.8h32.4l2-10.4h-19.5l8.6-6.1c5.2-3.7,9.1-7.2,11.6-10.4s3.7-6.9,3.7-10.8
			C347.2,105.8,345.9,102.8,343,100.4z"/>
		<polygon class="st2" points="383,79.7 379.6,79.7 363,164.3 383,164.3 		"/>
		<polygon class="st1" points="363.5,114.7 351.2,118.9 349,130 358.5,126.3 351.1,164.3 363,164.3 372.7,114.7 		"/>
	</g>
	<g>
		<path class="st3" d="M69.2,56h4.4v12.6c0,3.7,1.2,6.2,4.5,6.2s4.5-2.4,4.5-6.2V56H87v14c0,5.9-3.4,8.2-8.9,8.2s-8.9-2.4-8.9-8.2
			V56z"/>
		<path class="st3" d="M91.9,56h5.4l8.2,16.3l0,0V56h4.2v21.7h-5.4l-8.4-16.3l0,0v16.3h-4.2V56H91.9z"/>
		<path class="st3" d="M114.2,56h4.4v21.7h-4.4V56z"/>
		<path class="st3" d="M121.3,56h4.7l5.5,17.1l0,0l5.5-17.1h4.4l-7.4,21.7h-5.4L121.3,56z"/>
		<path class="st3" d="M144.5,56h12.8v3.4h-8.4v5.4h7.7v3.4h-7.7v6.1h8.6v3.4h-12.9V56z"/>
		<path class="st3" d="M161.6,56h4.7c4.7,0,10.3-0.2,10.3,5.9c0,2.5-1.7,4.7-4.5,5l0,0c1.2,0.2,1.8,1.3,2.4,2.2l3.5,8.6h-4.9
			l-2.7-6.7c-0.7-1.7-1.2-2.2-3-2.2H166v9.1h-4.4V56z M165.8,65.3h1.5c2.2,0,4.5-0.3,4.5-3s-2.4-2.9-4.5-2.9h-1.5V65.3z"/>
		<path class="st3" d="M192.7,60.1c-1.3-0.7-2.9-1-4.4-1s-3.4,0.7-3.4,3c0,3.7,9.6,2.2,9.6,9.4c0,4.7-3.7,6.6-8.2,6.6
			c-2.4,0-3.4-0.3-5.5-0.8l0.3-3.9c1.5,0.8,3.2,1.3,4.9,1.3s3.9-0.8,3.9-2.9c0-4.2-9.6-2.4-9.6-9.6c0-4.9,3.7-6.6,7.6-6.6
			c1.8,0,3.7,0.2,5.2,0.8L192.7,60.1z"/>
		<path class="st3" d="M198.3,56h4.4v21.7h-4.4V56z"/>
		<path class="st3" d="M207.4,56h5.9c6.7,0,12.6,2.2,12.6,10.9c0,8.6-5.9,10.9-12.6,10.9h-5.9V56z M211.7,74.4h2.4
			c3.7,0,7.2-2.7,7.2-7.4s-3.5-7.4-7.2-7.4h-2.4V74.4z"/>
		<path class="st3" d="M236.3,56h4.9l8.6,21.7h-4.9l-1.8-5h-8.7l-1.8,5h-4.5L236.3,56z M238.8,60.4L238.8,60.4l-3.2,8.9h6.4
			L238.8,60.4z"/>
		<path class="st3" d="M252.7,56h5.9c6.7,0,12.6,2.2,12.6,10.9c0,8.6-5.9,10.9-12.6,10.9h-5.9V56z M257.1,74.4h2.4
			c3.7,0,7.2-2.7,7.2-7.4s-3.5-7.4-7.2-7.4h-2.4V74.4z"/>
	</g>
	<g>
		<g>
			<g>
				<g>
					<path class="st0" d="M112.9,97.6h13.3v49.6h-13.3V97.6z"/>
				</g>
			</g>
			<g>
				<g>
					<path class="st0" d="M248.5,96.7c16.3,0,24.9,9.7,24.9,25.7c0,15.8-8.7,25.7-24.9,25.7c-16.1,0-24.9-9.9-24.9-25.7
						C223.7,106.5,232.2,96.7,248.5,96.7z M248.5,138.2c8.1,0,11.3-7.7,11.3-15.8c0-8.6-3.2-15.8-11.3-15.8
						c-8.1,0-11.3,7.2-11.3,15.8C237.3,130.7,240.5,138.2,248.5,138.2z"/>
				</g>
			</g>
			<g>
				<path class="st0" d="M163.1,96.7c-18.2,0-28.6,7.2-28.6,25.9c0,18.8,12.4,25.4,25.7,25.4c4.5,0,10.8-0.2,19.2-2.4v-27.4H161
					l-1.8,9.4h7.6v9.7c-1.2,0.5-2.9,0.8-4.7,0.8c-9.6,0-13.8-5.9-13.8-15.6c0-11.6,6.1-16.1,16.8-16.1c2.9,0,7.2,0.7,11.1,2.7
					l2-10.3C173.2,97.1,166.3,96.7,163.1,96.7z"/>
			</g>
			<g>
				<path class="st0" d="M88.7,96.7c-9.9,0-21.7,3.2-21.7,15.1c0,18,23.5,12.3,23.5,21.5c0,4-4,4.9-8.2,4.9
					c-5.5,0-10.3-1.3-13.6-3.2L67.5,146c4.4,1.3,10.1,2.2,14.8,2.2c11.1,0,21.9-3.5,21.9-16.3c0-18-23.5-12.4-23.5-20.5
					c0-4.4,5.5-4.5,8.9-4.5c3.2,0,6.4,0.5,9.4,1.7l1.8-9.7C97.6,97.4,93.2,96.7,88.7,96.7z"/>
			</g>
			<g>
				<polygon class="st0" points="219.8,137.4 202.5,137.4 202.5,97.6 189.4,97.6 189.4,147.3 219.8,147.3 				"/>
			</g>
		</g>
	</g>
</g>
</svg>
