<svg width="450" height="220" viewBox="0 0 450 220" fill="none" xmlns="http://www.w3.org/2000/svg">
<path d="M106.813 132.628V133.637C106.813 133.746 106.759 133.796 106.654 133.796H104.137C104.095 133.796 104.071 133.819 104.071 133.862V136.329C104.071 136.437 104.017 136.491 103.909 136.491H102.9C102.792 136.491 102.737 136.437 102.737 136.329V133.862C102.737 133.819 102.714 133.796 102.672 133.796H100.162C100.054 133.796 100 133.742 100 133.637V132.628C100 132.52 100.054 132.466 100.162 132.466H102.679C102.722 132.466 102.745 132.447 102.745 132.4V129.837C102.745 129.728 102.799 129.678 102.908 129.678H103.917C104.025 129.678 104.079 129.732 104.079 129.837V132.4C104.079 132.443 104.098 132.466 104.145 132.466H106.662C106.77 132.466 106.821 132.52 106.821 132.628H106.813Z" fill="#5027B6"/>
<path d="M112.36 131.186H110.628C110.585 131.186 110.562 131.209 110.562 131.252V135.501C110.562 135.95 110.663 136.274 110.868 136.472C111.069 136.669 111.386 136.769 111.815 136.769H112.279C112.387 136.769 112.438 136.823 112.438 136.928V137.922C112.438 138.03 112.383 138.084 112.279 138.084C111.939 138.103 111.691 138.115 111.541 138.115C110.729 138.115 110.118 137.968 109.704 137.674C109.294 137.38 109.085 136.839 109.085 136.046V131.252C109.085 131.209 109.062 131.186 109.02 131.186H108.041C107.933 131.186 107.883 131.132 107.883 131.024V130.076C107.883 129.968 107.937 129.918 108.041 129.918H109.02C109.062 129.918 109.085 129.895 109.085 129.852V127.961C109.085 127.853 109.139 127.799 109.244 127.799H110.4C110.508 127.799 110.562 127.853 110.562 127.961V129.852C110.562 129.895 110.582 129.918 110.628 129.918H112.36C112.468 129.918 112.523 129.972 112.523 130.076V131.024C112.523 131.132 112.468 131.186 112.36 131.186Z" fill="black"/>
<path d="M119.1 130.134C119.587 130.363 119.958 130.683 120.221 131.097C120.484 131.507 120.616 131.975 120.616 132.501V137.918C120.616 138.026 120.561 138.08 120.453 138.08H119.235C119.127 138.08 119.077 138.026 119.077 137.918V137.342C119.077 137.287 119.05 137.276 118.995 137.311C118.717 137.601 118.377 137.821 117.979 137.976C117.576 138.13 117.132 138.208 116.641 138.208C115.848 138.208 115.195 138.007 114.677 137.608C114.158 137.206 113.899 136.599 113.899 135.787C113.899 134.975 114.189 134.299 114.773 133.823C115.357 133.347 116.169 133.108 117.217 133.108H119.011C119.053 133.108 119.077 133.088 119.077 133.042V132.609C119.077 132.137 118.941 131.774 118.667 131.511C118.392 131.248 117.979 131.117 117.426 131.117C116.977 131.117 116.61 131.205 116.328 131.379C116.045 131.557 115.871 131.793 115.806 132.095C115.775 132.203 115.709 132.249 115.612 132.238L114.313 132.06C114.205 132.037 114.158 131.994 114.17 131.932C114.255 131.302 114.592 130.788 115.179 130.386C115.767 129.984 116.505 129.786 117.391 129.786C118.044 129.786 118.613 129.902 119.1 130.131V130.134ZM118.45 136.46C118.868 136.162 119.077 135.783 119.077 135.323V134.376C119.077 134.333 119.053 134.31 119.011 134.31H117.503C116.873 134.31 116.37 134.434 115.995 134.678C115.62 134.925 115.434 135.265 115.434 135.702C115.434 136.097 115.577 136.398 115.86 136.599C116.142 136.804 116.513 136.905 116.973 136.905C117.538 136.905 118.033 136.754 118.446 136.456L118.45 136.46Z" fill="black"/>
<path d="M122.7 137.918V127.018C122.7 126.91 122.754 126.856 122.863 126.856H124.081C124.189 126.856 124.243 126.91 124.243 127.018V137.918C124.243 138.026 124.189 138.08 124.081 138.08H122.863C122.754 138.08 122.7 138.026 122.7 137.918Z" fill="black"/>
<path d="M133.12 134.457C133.12 134.565 133.066 134.616 132.961 134.616H127.846C127.803 134.616 127.78 134.639 127.78 134.681C127.78 135.045 127.811 135.323 127.877 135.517C127.993 135.946 128.232 136.278 128.588 136.518C128.948 136.758 129.396 136.878 129.941 136.878C130.73 136.878 131.341 136.553 131.77 135.899C131.824 135.791 131.894 135.776 131.979 135.853L132.892 136.464C132.965 136.53 132.98 136.599 132.938 136.673C132.64 137.152 132.215 137.535 131.662 137.809C131.113 138.088 130.49 138.227 129.794 138.227C129.013 138.227 128.356 138.057 127.823 137.713C127.289 137.372 126.887 136.885 126.62 136.255C126.365 135.625 126.233 134.859 126.233 133.962C126.233 133.181 126.291 132.59 126.411 132.184C126.605 131.445 126.987 130.865 127.563 130.436C128.14 130.007 128.839 129.794 129.663 129.794C130.742 129.794 131.55 130.065 132.083 130.602C132.617 131.144 132.942 131.936 133.062 132.984C133.104 133.421 133.12 133.912 133.108 134.457H133.12ZM128.534 131.464C128.236 131.693 128.031 132.002 127.923 132.385C127.85 132.621 127.799 132.918 127.78 133.282C127.78 133.324 127.803 133.347 127.846 133.347H131.519C131.561 133.347 131.585 133.328 131.585 133.282C131.561 132.93 131.531 132.667 131.488 132.497C131.38 132.079 131.171 131.747 130.854 131.495C130.537 131.244 130.146 131.12 129.675 131.12C129.203 131.12 128.836 131.236 128.538 131.464H128.534Z" fill="black"/>
<path d="M140.783 130.567C141.297 131.074 141.552 131.762 141.552 132.628V137.918C141.552 138.026 141.498 138.08 141.39 138.08H140.172C140.064 138.08 140.01 138.026 140.01 137.918V132.934C140.01 132.4 139.855 131.967 139.546 131.635C139.236 131.302 138.823 131.136 138.312 131.136C137.802 131.136 137.4 131.302 137.079 131.635C136.758 131.967 136.599 132.392 136.599 132.918V137.922C136.599 138.03 136.545 138.084 136.437 138.084H135.219C135.111 138.084 135.057 138.03 135.057 137.922V130.084C135.057 129.976 135.111 129.926 135.219 129.926H136.437C136.545 129.926 136.599 129.98 136.599 130.084V130.66C136.599 130.683 136.607 130.699 136.623 130.707C136.638 130.718 136.654 130.711 136.661 130.691C137.121 130.103 137.798 129.81 138.699 129.81C139.6 129.81 140.269 130.065 140.783 130.571V130.567Z" fill="black"/>
<path d="M147.612 131.186H145.88C145.837 131.186 145.814 131.209 145.814 131.252V135.501C145.814 135.95 145.915 136.274 146.12 136.472C146.321 136.669 146.638 136.769 147.067 136.769H147.531C147.639 136.769 147.689 136.823 147.689 136.928V137.922C147.689 138.03 147.635 138.084 147.531 138.084C147.191 138.103 146.943 138.115 146.792 138.115C145.981 138.115 145.37 137.968 144.956 137.674C144.546 137.38 144.337 136.839 144.337 136.046V131.252C144.337 131.209 144.314 131.186 144.272 131.186H143.293C143.185 131.186 143.135 131.132 143.135 131.024V130.076C143.135 129.968 143.189 129.918 143.293 129.918H144.272C144.314 129.918 144.337 129.895 144.337 129.852V127.961C144.337 127.853 144.391 127.799 144.496 127.799H145.652C145.76 127.799 145.814 127.853 145.814 127.961V129.852C145.814 129.895 145.834 129.918 145.88 129.918H147.612C147.72 129.918 147.775 129.972 147.775 130.076V131.024C147.775 131.132 147.72 131.186 147.612 131.186Z" fill="black"/>
<path d="M150.735 137.605C150.148 137.202 149.738 136.646 149.502 135.93C149.309 135.354 149.212 134.701 149.212 133.974C149.212 133.247 149.301 132.574 149.483 132.048C149.718 131.345 150.128 130.792 150.716 130.39C151.304 129.988 152.004 129.79 152.815 129.79C153.585 129.79 154.254 129.991 154.826 130.39C155.398 130.792 155.808 131.337 156.052 132.033C156.245 132.578 156.342 133.22 156.342 133.958C156.342 134.697 156.245 135.362 156.052 135.93C155.816 136.646 155.41 137.206 154.834 137.605C154.258 138.007 153.577 138.204 152.796 138.204C152.015 138.204 151.315 138.003 150.728 137.605H150.735ZM153.929 136.514C154.25 136.274 154.478 135.934 154.617 135.497C154.733 135.091 154.795 134.589 154.795 133.989C154.795 133.39 154.741 132.895 154.633 132.497C154.494 132.06 154.265 131.72 153.945 131.48C153.624 131.24 153.233 131.12 152.773 131.12C152.313 131.12 151.957 131.24 151.636 131.48C151.315 131.72 151.087 132.06 150.948 132.497C150.832 132.872 150.77 133.367 150.77 133.989C150.77 134.612 150.828 135.111 150.948 135.497C151.076 135.934 151.304 136.274 151.628 136.514C151.953 136.754 152.348 136.874 152.808 136.874C153.237 136.874 153.608 136.754 153.929 136.514Z" fill="black"/>
<path d="M167.826 132.628V133.637C167.826 133.746 167.772 133.796 167.668 133.796H165.151C165.108 133.796 165.085 133.819 165.085 133.862V136.329C165.085 136.437 165.031 136.491 164.923 136.491H163.913C163.805 136.491 163.751 136.437 163.751 136.329V133.862C163.751 133.819 163.728 133.796 163.685 133.796H161.168C161.06 133.796 161.006 133.742 161.006 133.637V132.628C161.006 132.52 161.06 132.466 161.168 132.466H163.685C163.728 132.466 163.751 132.447 163.751 132.4V129.837C163.751 129.728 163.805 129.678 163.913 129.678H164.923C165.031 129.678 165.085 129.732 165.085 129.837V132.4C165.085 132.443 165.104 132.466 165.151 132.466H167.668C167.776 132.466 167.826 132.52 167.826 132.628Z" fill="#5027B6"/>
<path d="M173.376 131.186H171.644C171.601 131.186 171.578 131.209 171.578 131.252V135.501C171.578 135.95 171.678 136.274 171.883 136.472C172.084 136.669 172.401 136.769 172.831 136.769H173.295C173.403 136.769 173.453 136.823 173.453 136.928V137.922C173.453 138.03 173.399 138.084 173.295 138.084C172.954 138.103 172.707 138.115 172.556 138.115C171.744 138.115 171.133 137.968 170.72 137.674C170.31 137.38 170.101 136.839 170.101 136.046V131.252C170.101 131.209 170.078 131.186 170.035 131.186H169.057C168.949 131.186 168.898 131.132 168.898 131.024V130.076C168.898 129.968 168.953 129.918 169.057 129.918H170.035C170.078 129.918 170.101 129.895 170.101 129.852V127.961C170.101 127.853 170.155 127.799 170.259 127.799H171.416C171.524 127.799 171.578 127.853 171.578 127.961V129.852C171.578 129.895 171.597 129.918 171.644 129.918H173.376C173.484 129.918 173.538 129.972 173.538 130.076V131.024C173.538 131.132 173.484 131.186 173.376 131.186Z" fill="black"/>
<path d="M181.884 134.457C181.884 134.565 181.83 134.616 181.726 134.616H176.61C176.568 134.616 176.545 134.639 176.545 134.681C176.545 135.045 176.576 135.323 176.641 135.517C176.757 135.946 176.997 136.278 177.353 136.518C177.712 136.758 178.161 136.878 178.706 136.878C179.495 136.878 180.106 136.553 180.535 135.899C180.589 135.791 180.659 135.776 180.744 135.853L181.656 136.464C181.73 136.53 181.745 136.599 181.703 136.673C181.405 137.152 180.98 137.535 180.427 137.809C179.878 138.088 179.255 138.227 178.559 138.227C177.778 138.227 177.121 138.057 176.587 137.713C176.054 137.372 175.651 136.885 175.385 136.255C175.13 135.625 174.998 134.859 174.998 133.962C174.998 133.181 175.056 132.59 175.176 132.184C175.369 131.445 175.752 130.865 176.328 130.436C176.904 130.007 177.604 129.794 178.428 129.794C179.506 129.794 180.314 130.065 180.848 130.602C181.382 131.144 181.706 131.936 181.826 132.984C181.869 133.421 181.884 133.912 181.873 134.457H181.884ZM177.302 131.464C177.005 131.693 176.8 132.002 176.692 132.385C176.618 132.621 176.568 132.918 176.549 133.282C176.549 133.324 176.572 133.347 176.614 133.347H180.287C180.33 133.347 180.353 133.328 180.353 133.282C180.33 132.93 180.299 132.667 180.256 132.497C180.148 132.079 179.939 131.747 179.622 131.495C179.305 131.244 178.915 131.12 178.443 131.12C177.971 131.12 177.604 131.236 177.306 131.464H177.302Z" fill="black"/>
<path d="M185.013 137.589C184.437 137.179 184.038 136.619 183.826 135.915C183.663 135.424 183.586 134.778 183.586 133.974C183.586 133.235 183.667 132.59 183.826 132.033C184.038 131.349 184.437 130.803 185.02 130.397C185.604 129.991 186.296 129.786 187.097 129.786C187.897 129.786 188.597 129.991 189.196 130.397C189.796 130.803 190.186 131.318 190.368 131.936C190.434 132.106 190.476 132.284 190.495 132.466C190.495 132.551 190.449 132.605 190.352 132.628L189.15 132.806H189.119C189.045 132.806 188.991 132.76 188.957 132.663L188.91 132.408C188.825 132.044 188.616 131.739 188.284 131.495C187.951 131.252 187.553 131.128 187.081 131.128C186.61 131.128 186.231 131.252 185.91 131.495C185.589 131.743 185.38 132.068 185.283 132.474C185.187 132.86 185.14 133.367 185.14 133.997C185.14 134.627 185.187 135.118 185.283 135.505C185.392 135.934 185.6 136.271 185.917 136.514C186.231 136.762 186.621 136.881 187.081 136.881C187.541 136.881 187.955 136.758 188.291 136.514C188.628 136.267 188.841 135.95 188.926 135.551C188.937 135.54 188.937 135.528 188.933 135.513C188.929 135.497 188.933 135.482 188.941 135.474V135.408C188.972 135.323 189.03 135.292 189.119 135.312L190.321 135.505C190.406 135.528 190.449 135.571 190.449 135.633V135.698C190.449 135.795 190.422 135.911 190.368 136.05C190.186 136.704 189.796 137.226 189.196 137.62C188.597 138.014 187.897 138.212 187.097 138.212C186.296 138.212 185.589 138.007 185.013 137.593V137.589Z" fill="black"/>
<path d="M197.98 130.567C198.494 131.074 198.75 131.762 198.75 132.628V137.918C198.75 138.026 198.695 138.08 198.587 138.08H197.369C197.261 138.08 197.207 138.026 197.207 137.918V132.934C197.207 132.4 197.052 131.967 196.743 131.635C196.434 131.302 196.02 131.136 195.509 131.136C194.999 131.136 194.597 131.302 194.276 131.635C193.955 131.967 193.797 132.392 193.797 132.918V137.922C193.797 138.03 193.743 138.084 193.634 138.084H192.416C192.308 138.084 192.254 138.03 192.254 137.922V130.084C192.254 129.976 192.308 129.926 192.416 129.926H193.634C193.743 129.926 193.797 129.98 193.797 130.084V130.66C193.797 130.683 193.804 130.699 193.82 130.707C193.835 130.718 193.851 130.711 193.859 130.691C194.319 130.103 194.995 129.81 195.896 129.81C196.797 129.81 197.466 130.065 197.98 130.571V130.567Z" fill="black"/>
<path d="M202.117 137.605C201.529 137.202 201.12 136.646 200.884 135.93C200.69 135.354 200.594 134.701 200.594 133.974C200.594 133.247 200.683 132.574 200.864 132.048C201.1 131.345 201.51 130.792 202.098 130.39C202.686 129.988 203.385 129.79 204.197 129.79C204.967 129.79 205.636 129.991 206.208 130.39C206.78 130.792 207.19 131.337 207.434 132.033C207.627 132.578 207.724 133.22 207.724 133.958C207.724 134.697 207.627 135.362 207.434 135.93C207.198 136.646 206.792 137.206 206.216 137.605C205.64 138.007 204.959 138.204 204.178 138.204C203.397 138.204 202.697 138.003 202.109 137.605H202.117ZM205.307 136.514C205.628 136.274 205.856 135.934 205.995 135.497C206.111 135.091 206.173 134.589 206.173 133.989C206.173 133.39 206.119 132.895 206.011 132.497C205.872 132.06 205.643 131.72 205.322 131.48C205.002 131.24 204.611 131.12 204.151 131.12C203.691 131.12 203.335 131.24 203.014 131.48C202.693 131.72 202.465 132.06 202.326 132.497C202.21 132.872 202.148 133.367 202.148 133.989C202.148 134.612 202.206 135.111 202.326 135.497C202.454 135.934 202.682 136.274 203.006 136.514C203.331 136.754 203.726 136.874 204.186 136.874C204.615 136.874 204.986 136.754 205.307 136.514Z" fill="black"/>
<path d="M209.746 137.918V127.018C209.746 126.91 209.8 126.856 209.908 126.856H211.126C211.235 126.856 211.289 126.91 211.289 127.018V137.918C211.289 138.026 211.235 138.08 211.126 138.08H209.908C209.8 138.08 209.746 138.026 209.746 137.918Z" fill="black"/>
<path d="M214.78 137.605C214.193 137.202 213.783 136.646 213.547 135.93C213.353 135.354 213.257 134.701 213.257 133.974C213.257 133.247 213.346 132.574 213.527 132.048C213.763 131.345 214.173 130.792 214.761 130.39C215.349 129.988 216.048 129.79 216.86 129.79C217.63 129.79 218.299 129.991 218.871 130.39C219.443 130.792 219.853 131.337 220.097 132.033C220.29 132.578 220.387 133.22 220.387 133.958C220.387 134.697 220.29 135.362 220.097 135.93C219.861 136.646 219.455 137.206 218.879 137.605C218.303 138.007 217.622 138.204 216.841 138.204C216.06 138.204 215.36 138.003 214.772 137.605H214.78ZM217.97 136.514C218.291 136.274 218.519 135.934 218.658 135.497C218.774 135.091 218.836 134.589 218.836 133.989C218.836 133.39 218.782 132.895 218.674 132.497C218.535 132.06 218.306 131.72 217.986 131.48C217.665 131.24 217.274 131.12 216.814 131.12C216.354 131.12 215.998 131.24 215.677 131.48C215.356 131.72 215.128 132.06 214.989 132.497C214.873 132.872 214.811 133.367 214.811 133.989C214.811 134.612 214.869 135.111 214.989 135.497C215.117 135.934 215.345 136.274 215.67 136.514C215.994 136.754 216.389 136.874 216.849 136.874C217.278 136.874 217.649 136.754 217.97 136.514Z" fill="black"/>
<path d="M227.589 129.918H228.807C228.916 129.918 228.97 129.972 228.97 130.076V137.659C228.97 138.95 228.602 139.878 227.872 140.431C227.141 140.984 226.159 141.266 224.929 141.266C224.759 141.266 224.492 141.254 224.129 141.235C224.021 141.224 223.966 141.166 223.966 141.057L224.013 139.951C224.013 139.909 224.028 139.87 224.059 139.839C224.09 139.808 224.133 139.797 224.187 139.808C224.338 139.82 224.554 139.824 224.844 139.824C225.753 139.824 226.41 139.654 226.816 139.317C227.222 138.981 227.427 138.413 227.427 137.608V137.318C227.427 137.295 227.419 137.28 227.404 137.272C227.388 137.26 227.369 137.268 227.35 137.287C226.901 137.809 226.244 138.072 225.378 138.072C224.682 138.072 224.055 137.891 223.495 137.527C222.934 137.164 222.547 136.63 222.331 135.923C222.192 135.451 222.122 134.801 222.122 133.966C222.122 133.081 222.203 132.396 222.362 131.913C222.563 131.271 222.926 130.757 223.444 130.366C223.963 129.976 224.573 129.783 225.281 129.783C226.159 129.783 226.847 130.049 227.35 130.583C227.369 130.606 227.388 130.614 227.404 130.606C227.419 130.602 227.427 130.587 227.427 130.567V130.069C227.427 129.96 227.481 129.91 227.585 129.91L227.589 129.918ZM227.404 134.921C227.419 134.728 227.427 134.407 227.427 133.958C227.427 133.51 227.419 133.193 227.404 133.003C227.388 132.818 227.357 132.636 227.315 132.466C227.23 132.072 227.036 131.747 226.739 131.495C226.441 131.244 226.066 131.12 225.617 131.12C225.169 131.12 224.794 131.248 224.496 131.495C224.198 131.743 223.982 132.072 223.854 132.466C223.738 132.787 223.676 133.282 223.676 133.958C223.676 134.697 223.731 135.2 223.839 135.466C223.947 135.861 224.156 136.185 224.473 136.437C224.786 136.688 225.169 136.812 225.617 136.812C226.066 136.812 226.468 136.688 226.762 136.437C227.056 136.185 227.245 135.861 227.33 135.466C227.361 135.296 227.388 135.114 227.404 134.921Z" fill="black"/>
<path d="M230.965 128.835C230.938 128.797 230.942 128.754 230.973 128.7L231.92 126.968C231.951 126.894 232.017 126.856 232.114 126.856H233.189C233.254 126.856 233.293 126.875 233.308 126.914C233.324 126.952 233.316 126.995 233.285 127.049L232.149 128.781C232.094 128.855 232.033 128.893 231.955 128.893H231.105C231.039 128.893 230.996 128.874 230.969 128.839L230.965 128.835ZM230.989 137.918V130.08C230.989 129.972 231.043 129.922 231.151 129.922H232.369C232.477 129.922 232.527 129.976 232.527 130.08V137.918C232.527 138.026 232.473 138.08 232.369 138.08H231.151C231.043 138.08 230.989 138.026 230.989 137.918Z" fill="black"/>
<path d="M239.349 130.134C239.836 130.363 240.207 130.683 240.47 131.097C240.733 131.507 240.865 131.975 240.865 132.501V137.918C240.865 138.026 240.81 138.08 240.702 138.08H239.484C239.376 138.08 239.326 138.026 239.326 137.918V137.342C239.326 137.287 239.299 137.276 239.244 137.311C238.966 137.601 238.626 137.821 238.228 137.976C237.825 138.13 237.381 138.208 236.89 138.208C236.097 138.208 235.444 138.007 234.926 137.608C234.407 137.206 234.148 136.599 234.148 135.787C234.148 134.975 234.438 134.299 235.022 133.823C235.606 133.347 236.418 133.108 237.466 133.108H239.26C239.302 133.108 239.326 133.088 239.326 133.042V132.609C239.326 132.137 239.19 131.774 238.916 131.511C238.641 131.248 238.228 131.117 237.675 131.117C237.226 131.117 236.859 131.205 236.577 131.379C236.294 131.557 236.12 131.793 236.055 132.095C236.024 132.203 235.958 132.249 235.861 132.238L234.562 132.06C234.454 132.037 234.407 131.994 234.419 131.932C234.504 131.302 234.841 130.788 235.428 130.386C236.016 129.984 236.754 129.786 237.64 129.786C238.293 129.786 238.862 129.902 239.349 130.131V130.134ZM238.699 136.46C239.117 136.162 239.326 135.783 239.326 135.323V134.376C239.326 134.333 239.302 134.31 239.26 134.31H237.752C237.122 134.31 236.619 134.434 236.244 134.678C235.869 134.925 235.683 135.265 235.683 135.702C235.683 136.097 235.826 136.398 236.109 136.599C236.391 136.804 236.762 136.905 237.222 136.905C237.787 136.905 238.282 136.754 238.695 136.456L238.699 136.46Z" fill="black"/>
<path d="M252.406 132.628V133.637C252.406 133.746 252.352 133.796 252.248 133.796H249.731C249.688 133.796 249.665 133.819 249.665 133.862V136.329C249.665 136.437 249.611 136.491 249.503 136.491H248.494C248.385 136.491 248.331 136.437 248.331 136.329V133.862C248.331 133.819 248.308 133.796 248.265 133.796H245.748C245.64 133.796 245.586 133.742 245.586 133.637V132.628C245.586 132.52 245.64 132.466 245.748 132.466H248.265C248.308 132.466 248.331 132.447 248.331 132.4V129.837C248.331 129.728 248.385 129.678 248.494 129.678H249.503C249.611 129.678 249.665 129.732 249.665 129.837V132.4C249.665 132.443 249.684 132.466 249.731 132.466H252.248C252.356 132.466 252.406 132.52 252.406 132.628Z" fill="#5027B6"/>
<path d="M260.742 134.457C260.742 134.565 260.688 134.616 260.583 134.616H255.468C255.425 134.616 255.402 134.639 255.402 134.681C255.402 135.045 255.433 135.323 255.499 135.517C255.615 135.946 255.854 136.278 256.21 136.518C256.57 136.758 257.018 136.878 257.563 136.878C258.352 136.878 258.963 136.553 259.392 135.899C259.446 135.791 259.516 135.776 259.601 135.853L260.514 136.464C260.587 136.53 260.603 136.599 260.56 136.673C260.262 137.152 259.837 137.535 259.284 137.809C258.735 138.088 258.112 138.227 257.417 138.227C256.635 138.227 255.978 138.057 255.445 137.713C254.911 137.372 254.509 136.885 254.242 136.255C253.987 135.625 253.855 134.859 253.855 133.962C253.855 133.181 253.913 132.59 254.033 132.184C254.227 131.445 254.609 130.865 255.186 130.436C255.762 130.007 256.461 129.794 257.285 129.794C258.364 129.794 259.172 130.065 259.705 130.602C260.239 131.144 260.564 131.936 260.684 132.984C260.726 133.421 260.742 133.912 260.73 134.457H260.742ZM256.156 131.464C255.858 131.693 255.653 132.002 255.545 132.385C255.472 132.621 255.421 132.918 255.402 133.282C255.402 133.324 255.425 133.347 255.468 133.347H259.141C259.183 133.347 259.207 133.328 259.207 133.282C259.184 132.93 259.153 132.667 259.11 132.497C259.002 132.079 258.793 131.747 258.476 131.495C258.159 131.244 257.768 131.12 257.297 131.12C256.825 131.12 256.458 131.236 256.16 131.464H256.156Z" fill="black"/>
<path d="M273.088 130.537C273.56 131.024 273.792 131.7 273.792 132.566V137.922C273.792 138.03 273.738 138.084 273.633 138.084H272.431C272.323 138.084 272.269 138.03 272.269 137.922V132.887C272.269 132.354 272.122 131.928 271.828 131.611C271.534 131.294 271.14 131.14 270.648 131.14C270.157 131.14 269.755 131.294 269.446 131.604C269.137 131.913 268.982 132.331 268.982 132.853V137.918C268.982 138.026 268.928 138.08 268.824 138.08H267.621C267.513 138.08 267.459 138.026 267.459 137.918V132.883C267.459 132.35 267.312 131.925 267.018 131.608C266.724 131.291 266.33 131.136 265.839 131.136C265.348 131.136 264.953 131.29 264.659 131.6C264.365 131.909 264.219 132.327 264.219 132.849V137.914C264.219 138.022 264.164 138.076 264.056 138.076H262.838C262.73 138.076 262.676 138.022 262.676 137.914V130.076C262.676 129.968 262.73 129.918 262.838 129.918H264.056C264.164 129.918 264.219 129.972 264.219 130.076V130.622C264.219 130.645 264.226 130.66 264.242 130.668C264.257 130.68 264.277 130.672 264.3 130.653C264.771 130.088 265.456 129.802 266.353 129.802C266.898 129.802 267.362 129.906 267.749 130.115C268.135 130.324 268.433 130.629 268.646 131.035C268.677 131.078 268.711 131.078 268.742 131.035C268.998 130.618 269.338 130.308 269.759 130.103C270.181 129.902 270.648 129.798 271.163 129.798C271.975 129.798 272.617 130.042 273.084 130.529L273.088 130.537Z" fill="black"/>
<path d="M282.851 134.024C282.851 134.774 282.766 135.42 282.596 135.965C282.371 136.68 282.004 137.233 281.49 137.624C280.975 138.014 280.318 138.208 279.518 138.208C279.154 138.208 278.81 138.134 278.485 137.991C278.161 137.848 277.878 137.643 277.643 137.373C277.619 137.353 277.604 137.345 277.585 137.357C277.569 137.369 277.561 137.384 277.561 137.403V140.98C277.561 141.088 277.507 141.138 277.399 141.138H276.181C276.073 141.138 276.022 141.084 276.022 140.98V130.08C276.022 129.972 276.077 129.922 276.181 129.922H277.399C277.507 129.922 277.561 129.976 277.561 130.08V130.61C277.561 130.633 277.569 130.649 277.585 130.656C277.6 130.668 277.619 130.66 277.643 130.641C277.878 130.374 278.157 130.165 278.478 130.015C278.799 129.864 279.147 129.79 279.518 129.79C280.287 129.79 280.925 129.98 281.436 130.359C281.942 130.738 282.313 131.275 282.549 131.971C282.75 132.547 282.855 133.231 282.855 134.024H282.851ZM281.292 133.989C281.292 133.166 281.157 132.505 280.89 132.002C280.581 131.414 280.071 131.12 279.367 131.12C278.748 131.12 278.277 131.41 277.956 131.986C277.701 132.447 277.569 133.119 277.569 134.005C277.569 134.89 277.708 135.586 277.987 136.058C278.296 136.603 278.752 136.878 279.348 136.878C279.989 136.878 280.465 136.622 280.774 136.108C281.115 135.594 281.289 134.89 281.289 133.993L281.292 133.989Z" fill="black"/>
<path d="M284.87 137.918V127.018C284.87 126.91 284.924 126.856 285.033 126.856H286.25C286.359 126.856 286.413 126.91 286.413 127.018V137.918C286.413 138.026 286.359 138.08 286.25 138.08H285.033C284.924 138.08 284.87 138.026 284.87 137.918Z" fill="black"/>
<path d="M295.288 134.457C295.288 134.565 295.233 134.616 295.129 134.616H290.014C289.971 134.616 289.948 134.639 289.948 134.681C289.948 135.045 289.979 135.323 290.045 135.517C290.161 135.946 290.4 136.278 290.756 136.518C291.116 136.758 291.564 136.878 292.109 136.878C292.898 136.878 293.509 136.553 293.938 135.899C293.992 135.791 294.062 135.776 294.147 135.853L295.059 136.464C295.133 136.53 295.148 136.599 295.106 136.673C294.808 137.152 294.383 137.535 293.83 137.809C293.281 138.088 292.658 138.227 291.962 138.227C291.181 138.227 290.524 138.057 289.991 137.713C289.457 137.372 289.055 136.885 288.788 136.255C288.533 135.625 288.401 134.859 288.401 133.962C288.401 133.181 288.459 132.59 288.579 132.184C288.773 131.445 289.155 130.865 289.731 130.436C290.308 130.007 291.007 129.794 291.831 129.794C292.91 129.794 293.718 130.065 294.251 130.602C294.785 131.144 295.11 131.936 295.23 132.984C295.272 133.421 295.288 133.912 295.276 134.457H295.288ZM290.702 131.464C290.404 131.693 290.199 132.002 290.091 132.385C290.018 132.621 289.967 132.918 289.948 133.282C289.948 133.324 289.971 133.347 290.014 133.347H293.687C293.729 133.347 293.753 133.328 293.753 133.282C293.729 132.93 293.698 132.667 293.656 132.497C293.548 132.079 293.339 131.747 293.022 131.495C292.705 131.244 292.314 131.12 291.843 131.12C291.371 131.12 291.004 131.236 290.706 131.464H290.702Z" fill="black"/>
<path d="M301.839 130.134C302.326 130.363 302.697 130.683 302.96 131.097C303.223 131.507 303.355 131.975 303.355 132.501V137.918C303.355 138.026 303.301 138.08 303.192 138.08H301.974C301.866 138.08 301.816 138.026 301.816 137.918V137.342C301.816 137.287 301.789 137.276 301.735 137.311C301.456 137.601 301.116 137.821 300.718 137.976C300.316 138.13 299.871 138.208 299.38 138.208C298.587 138.208 297.934 138.007 297.416 137.608C296.898 137.206 296.639 136.599 296.639 135.787C296.639 134.975 296.929 134.299 297.512 133.823C298.096 133.347 298.908 133.108 299.956 133.108H301.75C301.793 133.108 301.816 133.088 301.816 133.042V132.609C301.816 132.137 301.681 131.774 301.406 131.511C301.132 131.248 300.718 131.117 300.165 131.117C299.716 131.117 299.349 131.205 299.067 131.379C298.785 131.557 298.611 131.793 298.545 132.095C298.514 132.203 298.448 132.249 298.352 132.238L297.052 132.06C296.944 132.037 296.898 131.994 296.909 131.932C296.994 131.302 297.331 130.788 297.918 130.386C298.506 129.984 299.245 129.786 300.13 129.786C300.784 129.786 301.352 129.902 301.839 130.131V130.134ZM301.19 136.46C301.607 136.162 301.816 135.783 301.816 135.323V134.376C301.816 134.333 301.793 134.31 301.75 134.31H300.242C299.612 134.31 299.109 134.434 298.734 134.678C298.359 134.925 298.174 135.265 298.174 135.702C298.174 136.097 298.317 136.398 298.599 136.599C298.881 136.804 299.252 136.905 299.713 136.905C300.277 136.905 300.772 136.754 301.186 136.456L301.19 136.46Z" fill="black"/>
<path d="M312.283 133.974C312.283 134.774 312.183 135.459 311.978 136.027C311.742 136.723 311.371 137.26 310.864 137.639C310.358 138.018 309.72 138.208 308.946 138.208C308.571 138.208 308.223 138.134 307.903 137.983C307.582 137.833 307.303 137.624 307.067 137.357C307.044 137.338 307.029 137.33 307.009 137.342C306.994 137.353 306.986 137.369 306.986 137.388V137.918C306.986 138.026 306.932 138.08 306.828 138.08H305.61C305.501 138.08 305.447 138.026 305.447 137.918V127.018C305.447 126.91 305.501 126.856 305.61 126.856H306.828C306.936 126.856 306.986 126.91 306.986 127.018V130.595C306.986 130.618 306.994 130.633 307.009 130.641C307.025 130.653 307.044 130.645 307.067 130.625C307.303 130.359 307.582 130.154 307.91 130.007C308.235 129.864 308.579 129.79 308.943 129.79C309.743 129.79 310.4 129.987 310.914 130.382C311.429 130.776 311.796 131.329 312.02 132.033C312.19 132.578 312.276 133.224 312.276 133.974H312.283ZM310.729 134.005C310.729 133.127 310.559 132.423 310.215 131.89C309.905 131.376 309.43 131.12 308.788 131.12C308.189 131.12 307.736 131.395 307.427 131.936C307.149 132.427 307.009 133.112 307.009 133.989C307.009 134.867 307.137 135.54 307.396 136.008C307.717 136.584 308.185 136.874 308.807 136.874C309.511 136.874 310.021 136.58 310.331 135.992C310.597 135.49 310.733 134.828 310.733 134.005H310.729Z" fill="black"/>
<path d="M314.494 128.348C314.301 128.155 314.204 127.911 314.204 127.61C314.204 127.308 314.301 127.064 314.494 126.871C314.687 126.678 314.931 126.581 315.233 126.581C315.534 126.581 315.778 126.678 315.971 126.871C316.164 127.064 316.261 127.308 316.261 127.61C316.261 127.911 316.164 128.155 315.971 128.348C315.778 128.541 315.534 128.638 315.233 128.638C314.931 128.638 314.687 128.541 314.494 128.348ZM314.432 137.902V130.08C314.432 129.972 314.486 129.922 314.591 129.922H315.809C315.917 129.922 315.967 129.976 315.967 130.08V137.902C315.967 138.01 315.913 138.065 315.809 138.065H314.591C314.482 138.065 314.432 138.01 314.432 137.902Z" fill="black"/>
<path d="M318.391 137.918V127.018C318.391 126.91 318.445 126.856 318.553 126.856H319.771C319.879 126.856 319.933 126.91 319.933 127.018V137.918C319.933 138.026 319.879 138.08 319.771 138.08H318.553C318.445 138.08 318.391 138.026 318.391 137.918Z" fill="black"/>
<path d="M322.351 128.348C322.157 128.155 322.061 127.911 322.061 127.61C322.061 127.308 322.157 127.064 322.351 126.871C322.544 126.678 322.787 126.581 323.089 126.581C323.391 126.581 323.634 126.678 323.828 126.871C324.021 127.064 324.118 127.308 324.118 127.61C324.118 127.911 324.021 128.155 323.828 128.348C323.634 128.541 323.391 128.638 323.089 128.638C322.787 128.638 322.544 128.541 322.351 128.348ZM322.285 137.902V130.08C322.285 129.972 322.339 129.922 322.443 129.922H323.661C323.77 129.922 323.82 129.976 323.82 130.08V137.902C323.82 138.01 323.766 138.065 323.661 138.065H322.443C322.335 138.065 322.285 138.01 322.285 137.902Z" fill="black"/>
<path d="M331.471 126.856H332.689C332.797 126.856 332.848 126.91 332.848 127.018V137.918C332.848 138.026 332.794 138.08 332.689 138.08H331.471C331.363 138.08 331.309 138.026 331.309 137.918V137.388C331.309 137.369 331.301 137.349 331.286 137.342C331.27 137.33 331.251 137.338 331.228 137.357C330.992 137.624 330.713 137.833 330.393 137.983C330.072 138.134 329.724 138.208 329.352 138.208C328.583 138.208 327.945 138.018 327.435 137.639C326.928 137.26 326.557 136.723 326.321 136.027C326.116 135.462 326.016 134.778 326.016 133.974C326.016 133.228 326.101 132.578 326.271 132.033C326.495 131.329 326.862 130.776 327.377 130.382C327.891 129.987 328.548 129.79 329.349 129.79C329.712 129.79 330.056 129.864 330.381 130.007C330.706 130.15 330.988 130.359 331.224 130.625C331.243 130.649 331.262 130.653 331.282 130.641C331.297 130.629 331.305 130.614 331.305 130.595V127.018C331.305 126.91 331.359 126.856 331.467 126.856H331.471ZM331.278 133.989C331.278 133.092 331.143 132.408 330.876 131.936C330.566 131.391 330.11 131.12 329.515 131.12C328.873 131.12 328.397 131.376 328.088 131.89C327.748 132.423 327.574 133.131 327.574 134.005C327.574 134.828 327.705 135.49 327.976 135.992C328.285 136.58 328.796 136.874 329.499 136.874C330.118 136.874 330.59 136.584 330.911 136.008C331.158 135.559 331.278 134.886 331.278 133.989Z" fill="black"/>
<path d="M339.8 130.134C340.287 130.363 340.658 130.683 340.921 131.097C341.184 131.507 341.316 131.975 341.316 132.501V137.918C341.316 138.026 341.262 138.08 341.153 138.08H339.935C339.827 138.08 339.777 138.026 339.777 137.918V137.342C339.777 137.287 339.75 137.276 339.696 137.311C339.417 137.601 339.077 137.821 338.679 137.976C338.277 138.13 337.832 138.208 337.341 138.208C336.548 138.208 335.895 138.007 335.377 137.608C334.859 137.206 334.6 136.599 334.6 135.787C334.6 134.975 334.89 134.299 335.473 133.823C336.057 133.347 336.869 133.108 337.917 133.108H339.711C339.754 133.108 339.777 133.088 339.777 133.042V132.609C339.777 132.137 339.642 131.774 339.367 131.511C339.092 131.248 338.679 131.117 338.126 131.117C337.677 131.117 337.31 131.205 337.028 131.379C336.746 131.557 336.572 131.793 336.506 132.095C336.475 132.203 336.409 132.249 336.312 132.238L335.013 132.06C334.905 132.037 334.859 131.994 334.87 131.932C334.955 131.302 335.292 130.788 335.879 130.386C336.467 129.984 337.206 129.786 338.091 129.786C338.745 129.786 339.313 129.902 339.8 130.131V130.134ZM339.15 136.46C339.568 136.162 339.777 135.783 339.777 135.323V134.376C339.777 134.333 339.754 134.31 339.711 134.31H338.203C337.573 134.31 337.07 134.434 336.695 134.678C336.32 134.925 336.135 135.265 336.135 135.702C336.135 136.097 336.278 136.398 336.56 136.599C336.842 136.804 337.213 136.905 337.673 136.905C338.238 136.905 338.733 136.754 339.147 136.456L339.15 136.46Z" fill="black"/>
<path d="M348.623 126.856H349.841C349.949 126.856 349.999 126.91 349.999 127.018V137.918C349.999 138.026 349.945 138.08 349.841 138.08H348.623C348.514 138.08 348.46 138.026 348.46 137.918V137.388C348.46 137.369 348.452 137.349 348.437 137.342C348.422 137.33 348.402 137.338 348.379 137.357C348.143 137.624 347.865 137.833 347.544 137.983C347.223 138.134 346.875 138.208 346.504 138.208C345.734 138.208 345.096 138.018 344.586 137.639C344.08 137.26 343.708 136.723 343.472 136.027C343.268 135.462 343.167 134.778 343.167 133.974C343.167 133.228 343.252 132.578 343.422 132.033C343.646 131.329 344.014 130.776 344.528 130.382C345.042 129.987 345.7 129.79 346.5 129.79C346.863 129.79 347.207 129.864 347.532 130.007C347.857 130.15 348.139 130.359 348.375 130.625C348.395 130.649 348.414 130.653 348.433 130.641C348.449 130.629 348.456 130.614 348.456 130.595V127.018C348.456 126.91 348.511 126.856 348.619 126.856H348.623ZM348.429 133.989C348.429 133.092 348.294 132.408 348.027 131.936C347.718 131.391 347.262 131.12 346.666 131.12C346.024 131.12 345.549 131.376 345.239 131.89C344.899 132.423 344.725 133.131 344.725 134.005C344.725 134.828 344.857 135.49 345.127 135.992C345.437 136.58 345.947 136.874 346.651 136.874C347.269 136.874 347.741 136.584 348.062 136.008C348.309 135.559 348.429 134.886 348.429 133.989Z" fill="black"/>
<path d="M124.986 118.202C123.118 119.505 120.226 121.037 115.014 121.037C107.366 121.037 101.756 117.75 100.116 109.932L103.913 107.949C104.025 110.326 104.311 111.347 104.818 112.426C105.951 114.92 108.955 117.692 115.014 117.692C115.806 117.692 117.562 117.692 119.545 117.128C123.226 115.995 126.06 113.219 126.06 109.197C126.06 108.575 126.002 106.932 124.986 105.346C123.625 103.193 121.359 102.23 116.715 100.985C113.827 100.246 110.652 99.5698 107.934 98.2668C106.121 97.362 102.158 95.0924 102.158 89.3738C102.158 86.2575 103.291 84.4441 104.083 83.4272C107.594 78.942 114.275 79 115.354 79C119.715 79 123.907 80.1909 126.795 83.6476C127.534 84.5523 128.268 85.5731 129.119 87.7847L125.608 89.6522C125.21 88.4072 124.757 87.2743 123.965 86.1956C122.832 84.5523 120.114 82.1164 115.242 82.1164C114.449 82.1164 110.2 82.1744 107.706 84.6645C106.968 85.3991 105.839 86.706 105.839 89.254C105.839 90.6691 106.237 91.918 107.03 92.9929C108.785 95.3167 111.731 96.0513 114.337 96.7318C118.076 97.7526 123.118 98.7733 126.176 101.263C127.421 102.284 129.915 104.72 129.915 109.081C129.915 111.177 129.293 115.086 124.986 118.202Z" fill="#191919"/>
<path d="M135.804 86.648V81.494H139.09V86.648H135.804ZM135.804 120.016V92.9929H139.09V120.016H135.804Z" fill="#191919"/>
<path d="M147.531 120.016V80.0208H150.93V120.016H147.531Z" fill="#191919"/>
<path d="M167.757 120.016H165.039L155.693 92.9929H159.034L166.512 114.974L174.84 92.9929H178.127L167.761 120.016H167.757Z" fill="#191919"/>
<path d="M203.785 116.389C202.312 118.144 199.648 120.692 194.153 120.692C193.191 120.692 190.472 120.634 187.921 119.277C181.463 115.937 181.235 108.003 181.235 106.247C181.235 105.342 181.235 103.131 182.086 100.753C183.841 95.653 188.261 92.3124 193.701 92.3124C195.344 92.3124 199.253 92.6526 202.37 96.1634C204.523 98.5993 205.88 102.396 205.88 105.683V106.533H184.92C184.862 108.741 185.148 110.102 185.43 111.065C185.995 113.219 187.924 117.692 194.099 117.638C196.477 117.638 200.216 117.073 202.768 111.974L205.884 112.878C205.602 113.443 204.922 114.974 203.789 116.389H203.785ZM193.643 95.3166C188.941 95.3166 186.73 98.5452 185.995 100.018C185.485 101.151 185.144 102.566 184.974 103.757H202.026C201.233 96.7898 196.585 95.3166 193.643 95.3166Z" fill="#191919"/>
<path d="M225.538 95.711C224.857 95.5989 224.235 95.5409 223.442 95.5409C219.305 95.5409 216.757 97.9768 216.135 101.944C215.907 103.359 215.852 105.172 215.852 108.347V120.016H212.512V92.9929H215.852V97.2963C216.023 96.8439 216.305 96.3335 216.591 95.9353C216.931 95.4249 218.064 94.0098 219.761 93.2713C220.5 92.931 221.687 92.5908 223.612 92.5908C224.065 92.5908 224.633 92.5908 225.596 92.7029L225.538 95.7072V95.711Z" fill="#191919"/>
<path d="M246.897 87.893V120.012H236.813V87.893H226.389V80.0208H257.263V87.8969H246.897V87.893Z" fill="#6C51C5"/>
<path d="M265.367 107.044C265.367 107.326 265.309 108.007 265.479 108.799C266.159 112.256 268.595 114.406 272.106 114.406C272.616 114.406 273.749 114.348 274.94 113.895C277.886 112.874 279.189 109.874 279.584 109.136L286.157 112.534C284.966 114.29 284.343 115.082 283.663 115.875C279.301 120.689 273.637 121.087 271.425 121.087C270.521 121.087 268.425 121.029 266.101 120.294C259.528 118.253 256.47 112.476 256.47 105.791C256.47 103.978 256.582 98.4833 260.267 94.234C262.08 92.1925 265.196 89.5324 271.653 89.5324C273.637 89.5324 279.53 89.7605 283.21 94.9145C286.551 99.5041 286.439 105.621 286.497 107.036H265.367V107.044ZM274.259 96.3335C273.069 95.769 272.106 95.769 271.595 95.769C268.139 95.769 266.554 98.3171 266.101 99.3378C265.873 99.8482 265.649 100.471 265.421 101.604H277.488C277.376 100.641 277.206 97.6366 274.259 96.3335Z" fill="#6C51C5"/>
<path d="M315.329 115.879C311.42 120.468 306.378 120.979 304.224 120.979C302.921 120.979 300.315 120.808 297.311 119.335C291.759 116.617 289.551 111.347 289.551 105.455C289.551 104.094 289.609 101.263 291.024 97.9768C294.365 90.2167 301.672 89.5904 304.394 89.5904C306.718 89.5904 311.93 90.0427 315.893 95.0305C316.233 95.4829 316.458 95.8232 317.026 96.7279L310.569 100.409C310.511 100.239 310.059 99.3339 309.606 98.7114C309.096 98.0889 307.453 96.2755 304.793 96.2755C304.17 96.2755 302.925 96.3335 301.622 97.2963C298.618 99.5621 298.506 104.604 298.506 105.172C298.506 107.72 299.356 111.007 301.34 112.65C301.904 113.103 303.153 114.065 305.079 114.065C307.913 114.007 309.44 112.14 309.95 111.401C310.233 110.949 310.461 110.609 310.801 109.646L317.374 113.045C316.752 114.007 316.071 115.028 315.336 115.879H315.329Z" fill="#6C51C5"/>
<path d="M339.975 120.016V104.55C339.975 102.284 340.087 99.2837 337.938 97.8106C337.199 97.3002 336.352 97.0721 335.502 97.0721C335.049 97.0721 333.916 97.1842 332.896 97.8647C331.028 99.1677 330.8 101.205 330.8 105.285V120.012H322.077V80.0208H330.8L330.858 93.5613C331.028 93.3912 331.763 92.5405 332.559 91.976C335.277 89.8804 337.999 89.6523 339.244 89.6523C343.211 89.6523 345.477 91.5236 346.44 92.5985C347.062 93.279 347.573 94.1297 347.855 94.9764C348.365 96.2794 348.648 97.7526 348.648 100.583V120.016H339.979H339.975Z" fill="#6C51C5"/>
</svg>
