<?xml version="1.0" encoding="utf-8"?>
<!-- Generator: Adobe Illustrator 28.3.0, SVG Export Plug-In . SVG Version: 6.00 Build 0)  -->
<svg version="1.1" id="CONTENIDO" xmlns="http://www.w3.org/2000/svg" xmlns:xlink="http://www.w3.org/1999/xlink" x="0px" y="0px"
	 viewBox="0 0 450 220" style="enable-background:new 0 0 450 220;" xml:space="preserve">
<style type="text/css">
	.st0{fill:#1C1C1C;}
</style>
<g>
	<rect x="274.46" y="135.44" class="st0" width="40.55" height="9.25"/>
	<path class="st0" d="M154.56,103.06c0,0-4.7,0-7.17,0c-2.93,0-4.46-1.27-4.46-3.06c0-2.62,2.06-3.88,8.99-3.88
		c9.45,0,17.51,2.31,17.51,2.31v-9.25c0,0-7.84-2.31-17.51-2.31c-10.29,0-19.39,3.14-19.39,13.13c0,8.52,6.96,12.31,15.14,12.31h6
		c4.1,0,7.82,0.93,7.82,4.6c0,3.9-4.2,4.65-9.58,4.65c-10.04,0-17.96-3.96-17.96-3.96v9.91c0,0,7.08,3.3,17.96,3.3
		c12.15,0,20.05-3.96,20.05-14.31C171.97,106.92,164.7,103.06,154.56,103.06z"/>
	<path class="st0" d="M198.42,86.88c-12.55,0-22.77,9.86-22.77,21.97c0,12.11,10.21,21.97,22.77,21.97
		c12.55,0,22.77-9.86,22.77-21.97C221.19,96.73,210.98,86.88,198.42,86.88z M198.42,121.14c-6.78,0-12.3-5.52-12.3-12.3
		c0-6.78,5.52-12.3,12.3-12.3c6.78,0,12.3,5.52,12.3,12.3C210.72,115.63,205.2,121.14,198.42,121.14z"/>
	<path class="st0" d="M294.69,86.88c-12.55,0-22.77,9.86-22.77,21.97c0,12.11,10.21,21.97,22.77,21.97
		c12.55,0,22.77-9.86,22.77-21.97C317.46,96.73,307.25,86.88,294.69,86.88z M294.69,121.14c-6.78,0-12.3-5.52-12.3-12.3
		c0-6.78,5.52-12.3,12.3-12.3c6.78,0,12.3,5.52,12.3,12.3C306.99,115.63,301.48,121.14,294.69,121.14z"/>
	<path class="st0" d="M251.65,86.88c-4.73,0-11.14,2.32-15.21,5.75V75.31H226.3v54.92h10.14v-27.17c3.45-3.2,8.01-6.52,14.34-6.52
		c5.69,0,5.93,3.25,5.93,6.78v26.9h10.14v-27.6C266.86,92.56,261.79,86.88,251.65,86.88z"/>
</g>
</svg>
