<svg width="450" height="220" viewBox="0 0 450 220" fill="none" xmlns="http://www.w3.org/2000/svg">
<g clip-path="url(#clip0_1451_2)">
<path d="M280.802 90.2702C285.004 90.2702 288.41 86.8519 288.41 82.6351C288.41 78.4184 285.004 75 280.802 75C276.6 75 273.194 78.4184 273.194 82.6351C273.194 86.8519 276.6 90.2702 280.802 90.2702Z" fill="#1C1F2A"/>
<path d="M158.567 126.566H170.811C170.811 126.566 170.196 131.958 179.324 134.013C182.357 134.696 184.93 134.066 186.167 133.654C188.084 133.016 190.371 131.976 190.545 129.748C190.741 127.268 188.667 126.231 186.598 125.785C183.033 125.014 179.42 124.474 175.836 123.777C174.087 123.437 172.307 123.131 170.641 122.531C164.893 120.46 160.79 116.937 160.35 110.304C159.905 103.573 162.639 98.5114 168.71 95.5526C177.208 91.4107 187.091 91.7137 194.99 95.8796C200.119 98.5832 203.133 103.597 203.003 109.321H190.932C189.618 102.691 179.852 101.393 175.152 105.049C173.033 106.697 173.221 109.778 175.846 111.075C177.905 112.091 180.289 112.479 182.559 113.021C186.649 113.994 190.887 114.507 194.839 115.863C206.431 119.843 205.281 134.89 197.795 140.281C194.251 142.836 190.341 144.152 186.286 144.644C180.079 145.393 174.167 144.891 168.437 142.033C161.794 138.824 159.275 133.561 158.57 126.566H158.567Z" fill="#1C1F2A"/>
<path d="M306.744 105.41H296.254V93.9203H306.643V76.082H320.256V93.9043H338.353V105.333H320.343V112.373C320.343 112.373 320.322 119.872 320.351 123.621C320.394 129.48 323.75 132.734 329.607 132.298C332.16 132.106 335.609 131.33 338.348 130.429C338.3 134.696 338.348 138.965 338.348 142.948C330.74 146.409 316.155 146.175 310.277 136.836C307.999 133.215 306.844 129.288 306.775 125.061C306.688 119.519 306.744 108.433 306.744 108.433V105.41Z" fill="#1C1F2A"/>
<path d="M362.389 76.082H349.137V143.66H362.389V76.082Z" fill="#1C1F2A"/>
<path d="M287.414 93.9203H274.156V143.66H287.414V93.9203Z" fill="#1C1F2A"/>
<path d="M83.4117 92.5565C60.5964 92.5565 39.94 101.933 25 117.006L52.7847 144.891C60.6123 136.966 71.4412 132.035 83.4143 132.035C95.3875 132.035 106.214 136.966 114.036 144.891L141.826 116.998C126.878 101.925 106.23 92.5565 83.4143 92.5565" fill="#FF7500"/>
<path d="M250.255 93.9203L235.866 125.66L221.474 93.9203H207.281L229.829 143.66H241.9L264.448 93.9203H250.255Z" fill="#1C1F2A"/>
<path d="M411.345 93.9203V96.2943C407.528 94.0399 403.08 92.7452 398.333 92.7452C384.14 92.7452 372.636 104.581 372.636 118.825C372.636 133.069 384.14 144.777 398.333 144.777C403.083 144.777 407.528 143.482 411.345 141.228V143.66H425V93.9203H411.345ZM399.782 132.79C392.161 132.79 385.981 126.59 385.981 118.939C385.981 111.288 392.158 105.088 399.782 105.088C404.624 105.088 408.881 107.593 411.345 111.381V126.494C408.881 130.283 404.624 132.787 399.782 132.787V132.79Z" fill="#1C1F2A"/>
</g>
<defs>
<clipPath id="clip0_1451_2">
<rect width="400" height="70" fill="white" transform="translate(25 75)"/>
</clipPath>
</defs>
</svg>
