<svg width="450" height="220" viewBox="0 0 450 220" fill="none" xmlns="http://www.w3.org/2000/svg">
<g clip-path="url(#clip0_1451_2)">
<path d="M266.852 95.4527C270.004 95.4527 272.558 92.8889 272.558 89.7263C272.558 86.5638 270.004 84 266.852 84C263.701 84 261.146 86.5638 261.146 89.7263C261.146 92.8889 263.701 95.4527 266.852 95.4527Z" fill="#1C1F2A"/>
<path d="M175.176 122.675H184.358C184.358 122.675 183.897 126.718 190.744 128.259C193.018 128.772 194.947 128.299 195.875 127.99C197.314 127.512 199.028 126.732 199.159 125.061C199.306 123.201 197.751 122.423 196.199 122.088C193.525 121.51 190.815 121.105 188.127 120.583C186.816 120.328 185.481 120.099 184.231 119.648C179.92 118.095 176.843 115.453 176.513 110.478C176.179 105.43 178.229 101.634 182.783 99.4144C189.156 96.308 196.569 96.5353 202.493 99.6597C206.339 101.687 208.6 105.448 208.503 109.741H199.449C198.464 104.768 191.139 103.795 187.615 106.536C186.025 107.773 186.166 110.083 188.135 111.056C189.679 111.818 191.467 112.109 193.169 112.516C196.237 113.246 199.416 113.631 202.38 114.647C211.073 117.632 210.211 128.917 204.597 132.961C201.939 134.877 199.006 135.864 195.965 136.233C191.31 136.795 186.875 136.418 182.578 134.275C177.596 131.868 175.706 127.92 175.178 122.675H175.176Z" fill="#1C1F2A"/>
<path d="M286.308 106.808H278.44V98.1902H286.232V84.8115H296.442V98.1783H310.015V106.75H296.507V112.03C296.507 112.03 296.492 117.654 296.513 120.466C296.545 124.86 299.062 127.3 303.455 126.973C305.37 126.83 307.957 126.248 310.011 125.572C309.975 128.772 310.011 131.974 310.011 134.961C304.305 137.557 293.367 137.381 288.958 130.377C287.249 127.661 286.383 124.716 286.332 121.546C286.266 117.389 286.308 109.075 286.308 109.075V106.808Z" fill="#1C1F2A"/>
<path d="M328.042 84.8115H318.103V135.495H328.042V84.8115Z" fill="#1C1F2A"/>
<path d="M271.811 98.1902H261.867V135.495H271.811V98.1902Z" fill="#1C1F2A"/>
<path d="M118.809 97.1674C101.697 97.1674 86.205 104.2 75 115.505L95.8385 136.418C101.709 130.475 109.831 126.776 118.811 126.776C127.791 126.776 135.91 130.475 141.777 136.418L162.62 115.499C151.409 104.194 135.922 97.1674 118.811 97.1674" fill="#FF7500"/>
<path d="M243.941 98.1902L233.149 121.995L222.356 98.1902H211.711L228.622 135.495H237.675L254.586 98.1902H243.941Z" fill="#1C1F2A"/>
<path d="M364.758 98.1902V99.9707C361.895 98.28 358.56 97.309 355 97.309C344.355 97.309 335.727 106.186 335.727 116.869C335.727 127.552 344.355 136.333 355 136.333C358.562 136.333 361.895 135.362 364.758 133.671V135.495H375V98.1902H364.758ZM356.086 127.342C350.371 127.342 345.736 122.693 345.736 116.954C345.736 111.216 350.369 106.566 356.086 106.566C359.718 106.566 362.911 108.445 364.758 111.286V122.621C362.911 125.462 359.718 127.34 356.086 127.34V127.342Z" fill="#1C1F2A"/>
</g>
<defs>
<clipPath id="clip0_1451_2">
<rect width="300" height="52.5" fill="white" transform="translate(75 84)"/>
</clipPath>
</defs>
</svg>
