<svg width="450" height="220" viewBox="0 0 450 220" fill="none" xmlns="http://www.w3.org/2000/svg">
<g clip-path="url(#clip0_1451_2)">
<path d="M216.852 86.4527C220.004 86.4527 222.558 83.8889 222.558 80.7263C222.558 77.5638 220.004 75 216.852 75C213.701 75 211.146 77.5638 211.146 80.7263C211.146 83.8889 213.701 86.4527 216.852 86.4527Z" fill="#1C1F2A"/>
<path d="M125.176 113.675H134.358C134.358 113.675 133.897 117.718 140.744 119.259C143.018 119.772 144.947 119.299 145.875 118.99C147.314 118.512 149.028 117.732 149.159 116.061C149.306 114.201 147.751 113.423 146.199 113.088C143.525 112.51 140.815 112.105 138.127 111.583C136.816 111.328 135.481 111.099 134.231 110.648C129.92 109.095 126.843 106.453 126.513 101.478C126.179 96.4299 128.229 92.6336 132.783 90.4144C139.156 87.308 146.569 87.5353 152.493 90.6597C156.339 92.6874 158.6 96.4478 158.503 100.741H149.449C148.464 95.7679 141.139 94.7949 137.615 97.5364C136.025 98.7726 136.166 101.083 138.135 102.056C139.679 102.818 141.467 103.109 143.169 103.516C146.237 104.246 149.416 104.631 152.38 105.647C161.073 108.632 160.211 119.917 154.597 123.961C151.939 125.877 149.006 126.864 145.965 127.233C141.31 127.795 136.875 127.418 132.578 125.275C127.596 122.868 125.706 118.92 125.178 113.675H125.176Z" fill="#1C1F2A"/>
<path d="M236.308 97.8077H228.44V89.1902H236.232V75.8115H246.442V89.1783H260.015V97.7498H246.507V103.03C246.507 103.03 246.492 108.654 246.513 111.466C246.545 115.86 249.062 118.3 253.455 117.973C255.37 117.83 257.957 117.248 260.011 116.572C259.975 119.772 260.011 122.974 260.011 125.961C254.305 128.557 243.367 128.381 238.958 121.377C237.249 118.661 236.383 115.716 236.332 112.546C236.266 108.389 236.308 100.075 236.308 100.075V97.8077Z" fill="#1C1F2A"/>
<path d="M278.042 75.8115H268.103V126.495H278.042V75.8115Z" fill="#1C1F2A"/>
<path d="M221.811 89.1902H211.867V126.495H221.811V89.1902Z" fill="#1C1F2A"/>
<path d="M68.8088 88.1674C51.6973 88.1674 36.205 95.1997 25 106.505L45.8385 127.418C51.7092 121.475 59.8309 117.776 68.8108 117.776C77.7907 117.776 85.9103 121.475 91.777 127.418L112.62 106.499C101.409 95.1937 85.9222 88.1674 68.8108 88.1674" fill="#FF7500"/>
<path d="M193.941 89.1902L183.149 112.995L172.356 89.1902H161.711L178.622 126.495H187.675L204.586 89.1902H193.941Z" fill="#1C1F2A"/>
<path d="M314.758 89.1902V90.9707C311.895 89.28 308.56 88.309 305 88.309C294.355 88.309 285.727 97.1856 285.727 107.869C285.727 118.552 294.355 127.333 305 127.333C308.562 127.333 311.895 126.362 314.758 124.671V126.495H325V89.1902H314.758ZM306.086 118.342C300.371 118.342 295.736 113.693 295.736 107.954C295.736 102.216 300.369 97.5664 306.086 97.5664C309.718 97.5664 312.911 99.4446 314.758 102.286V113.621C312.911 116.462 309.718 118.34 306.086 118.34V118.342Z" fill="#1C1F2A"/>
</g>
<defs>
<clipPath id="clip0_1451_2">
<rect width="300" height="52.5" fill="white" transform="translate(25 75)"/>
</clipPath>
</defs>
</svg>
