<?xml version="1.0" encoding="utf-8"?>
<!-- Generator: Adobe Illustrator 28.2.0, SVG Export Plug-In . SVG Version: 6.00 Build 0)  -->
<svg version="1.1" id="Layer_1" xmlns="http://www.w3.org/2000/svg" xmlns:xlink="http://www.w3.org/1999/xlink" x="0px" y="0px"
	 viewBox="0 0 450 220" style="enable-background:new 0 0 450 220;" xml:space="preserve">
<style type="text/css">
	.st0{fill:#ED4C5C;}
	.st1{fill:#2A5F9E;}
	.st2{fill:#FFFFFF;}
</style>
<g>
	<polygon points="281.1,186.6 127.9,186.6 168.9,33.4 168.9,33.4 322.1,33.4 281.1,186.6 	"/>
	<g>
		<path class="st0" d="M185.9,139.4h-32.8c-0.5,0-0.9,0.3-1.1,0.8l-8.8,32.9c-0.2,0.7,0.3,1.4,1.1,1.4h32.8c0.5,0,0.9-0.3,1.1-0.8
			l8.8-32.9C187.2,140.1,186.6,139.4,185.9,139.4z"/>
		<path class="st1" d="M169,80.3h33.7c0.3,0,0.6-0.2,0.7-0.5l5.4-20.1c0.1-0.4-0.2-0.9-0.7-0.9h-23.1c-0.5,0-0.8-0.4-0.7-0.9
			l0.8-3.2c0.1-0.3,0.4-0.5,0.7-0.5h23.9c0.3,0,0.6-0.2,0.7-0.5l2-7.6c0.1-0.4-0.2-0.9-0.7-0.9H178c-0.3,0-0.6,0.2-0.7,0.5l-5.4,20
			c-0.1,0.4,0.2,0.9,0.7,0.9h23.2c0.5,0,0.8,0.4,0.7,0.9l-0.8,3.2c-0.1,0.3-0.4,0.5-0.7,0.5h-24c-0.3,0-0.6,0.2-0.7,0.5l-2,7.6
			C168.2,79.8,168.5,80.3,169,80.3z"/>
		<path class="st2" d="M190.7,126.9l9-33.7c0.1-0.4-0.2-0.9-0.7-0.9h-33.7c-0.3,0-0.6,0.2-0.7,0.5l-9,33.7c-0.1,0.4,0.2,0.9,0.7,0.9
			h9c0.3,0,0.6-0.2,0.7-0.5l2.8-10c0.1-0.5,0.5-0.8,1.1-0.8h12.3c0.3,0,0.6,0.1,0.7,0.3c0.1,0.2,0.2,0.4,0.1,0.7l-2.7,9.4
			c-0.1,0.4,0.2,0.9,0.7,0.9h8.9C190.3,127.4,190.6,127.2,190.7,126.9z M187.2,102.2l-0.8,3.2c-0.1,0.3-0.4,0.5-0.7,0.5h-13.3
			c-0.5,0-0.8-0.4-0.7-0.9l0.8-3.2c0.1-0.3,0.4-0.5,0.7-0.5h13.3C186.9,101.3,187.3,101.7,187.2,102.2z"/>
		<path class="st1" d="M216,80.3h33.7c0.3,0,0.6-0.2,0.7-0.5l9-33.7c0.1-0.4-0.2-0.9-0.7-0.9h-8.9c-0.3,0-0.6,0.2-0.7,0.5L245.8,57
			c-0.1,0.3-0.4,0.5-0.7,0.5h-12.9c-0.5,0-0.8-0.5-0.7-0.9l3.1-10.6c0.1-0.4-0.2-0.9-0.7-0.9H225c-0.3,0-0.6,0.2-0.7,0.5l-5.4,20
			c-0.1,0.4,0.2,0.9,0.7,0.9h23.1c0.5,0,0.8,0.4,0.7,0.9l-0.8,3.2c-0.1,0.3-0.4,0.5-0.7,0.5H218c-0.3,0-0.6,0.2-0.7,0.5l-2,7.6
			C215.2,79.8,215.5,80.3,216,80.3z"/>
		<path class="st2" d="M237.7,126.9l2-7.6c0.1-0.4-0.2-0.9-0.7-0.9h-10.8c-0.5,0-0.8-0.4-0.7-0.9l0.8-3.2c0.1-0.3,0.4-0.5,0.7-0.5
			h11.6c0.3,0,0.6-0.2,0.7-0.5l5.4-20.1c0.1-0.4-0.2-0.9-0.7-0.9h-33.7c-0.3,0-0.6,0.2-0.7,0.5l-9,33.7c-0.1,0.4,0.2,0.9,0.7,0.9
			h7.5c0.3,0,0.6-0.2,0.7-0.5l6.7-25.1c0.1-0.3,0.4-0.5,0.7-0.5l1.9,0h13.6c0.5,0,0.8,0.4,0.7,0.9l-0.8,3.2
			c-0.1,0.3-0.4,0.5-0.7,0.5h-11.1c-0.3,0-0.6,0.2-0.7,0.5l-5.3,20.1c-0.1,0.4,0.2,0.9,0.7,0.9h20
			C237.4,127.4,237.6,127.2,237.7,126.9z"/>
		<path class="st0" d="M233.4,139.4h-33.7c-0.3,0-0.6,0.2-0.7,0.5l-9,33.7c-0.1,0.4,0.2,0.9,0.7,0.9l7,0c0.3,0,0.6-0.2,0.7-0.5
			l6.7-25.2c0.1-0.3,0.4-0.5,0.7-0.5l3.4,0c0.5,0,0.8,0.4,0.7,0.9l-6.5,24.4c-0.1,0.4,0.2,0.9,0.7,0.9l7.2,0c0.3,0,0.6-0.2,0.7-0.5
			l6.7-25.2c0.1-0.3,0.4-0.5,0.7-0.5l3.4,0c0.5,0,0.8,0.4,0.7,0.9l-6.5,24.5c-0.1,0.4,0.2,0.9,0.7,0.9h7c0.3,0,0.6-0.2,0.7-0.5
			l9-33.7C234.2,139.8,233.9,139.4,233.4,139.4z"/>
		<path class="st2" d="M293.3,92.3h-33.4c-0.4,0-0.7,0.3-0.8,0.6l-9,33.4c-0.1,0.5,0.3,1.1,0.8,1.1h33.4c0.4,0,0.7-0.3,0.8-0.6
			l9-33.4C294.3,92.8,293.9,92.3,293.3,92.3z"/>
		<path class="st1" d="M306.1,45.2h-33.7c-0.3,0-0.6,0.2-0.7,0.5l-5.4,20c-0.1,0.4,0.2,0.9,0.7,0.9h23.2c0.5,0,0.8,0.4,0.7,0.9
			l-0.9,3.2c-0.1,0.3-0.4,0.5-0.7,0.5h-24c-0.3,0-0.6,0.2-0.7,0.5l-2,7.6c-0.1,0.4,0.2,0.9,0.7,0.9h33.7c0.3,0,0.6-0.2,0.7-0.5
			l5.4-20.1c0.1-0.4-0.2-0.9-0.7-0.9h-23.1c-0.5,0-0.8-0.4-0.7-0.9l0.9-3.2c0.1-0.3,0.4-0.5,0.7-0.5h23.9c0.3,0,0.6-0.2,0.7-0.5
			l2-7.6C306.9,45.6,306.6,45.2,306.1,45.2z"/>
		<path class="st0" d="M280.9,139.4h-8.9c-0.3,0-0.6,0.2-0.7,0.5l-3.3,11.4c-0.1,0.3-0.4,0.5-0.7,0.5h-12.9c-0.5,0-0.8-0.5-0.7-0.9
			l3.1-10.6c0.1-0.4-0.2-0.9-0.7-0.9h-8.9c-0.3,0-0.6,0.2-0.7,0.5l-5.4,20c-0.1,0.4,0.2,0.9,0.7,0.9h23.1c0.5,0,0.8,0.4,0.7,0.9
			l-0.9,3.2c-0.1,0.3-0.4,0.5-0.7,0.5h-23.9c-0.3,0-0.6,0.2-0.7,0.5l-2,7.6c-0.1,0.4,0.2,0.9,0.7,0.9h33.7c0.3,0,0.6-0.2,0.7-0.5
			l9-33.7C281.7,139.8,281.3,139.4,280.9,139.4z"/>
	</g>
</g>
</svg>
