<svg width="450" height="220" viewBox="0 0 450 220" fill="none" xmlns="http://www.w3.org/2000/svg">
<path d="M163.284 87.4534H165.647V113.789H163.284V87.4534Z" fill="#00A4DC"/>
<path d="M170.808 87.4534H173.981L184.049 110.395H184.123V87.4534H186.486V113.789H183.313L173.244 90.8474H173.171V113.789H170.808V87.4534Z" fill="#00A4DC"/>
<path d="M189.546 87.4534H192.056L197.921 111.279H197.994L203.858 87.4534H206.369L199.433 113.789H196.481L189.546 87.4534Z" fill="#00A4DC"/>
<path d="M209.422 87.4534H222.476V89.4483H211.778V99.0346H221.773V101.03H211.778V111.801H222.804V113.796H209.415V87.4534H209.422Z" fill="#00A4DC"/>
<path d="M238.227 94.2012C238.227 90.9544 236.714 88.9997 233.508 88.9997C230.301 88.9997 228.527 91.1017 228.527 93.7192C228.527 101.578 241.286 97.2605 241.286 106.519C241.286 111.607 238.113 114.224 233.32 114.224C228.527 114.224 225.648 111.566 225.648 106.405V105.628H228.012V106.626C228.012 109.98 229.779 112.229 233.247 112.229C236.714 112.229 238.923 110.569 238.923 106.88C238.923 99.0613 226.164 103.526 226.164 93.9736C226.164 89.8432 228.855 87.0048 233.427 87.0048C238.334 87.0048 240.584 89.5151 240.584 94.1945H238.22L238.227 94.2012Z" fill="#00A4DC"/>
<path d="M250.217 89.4483H243.429V87.4534H259.361V89.4483H252.573V113.789H250.21V89.4483H250.217Z" fill="#00A4DC"/>
<path d="M262.683 87.4534H265.046V113.789H262.683V87.4534Z" fill="#00A4DC"/>
<path d="M277.657 102.355V100.36H286.106V113.782H284.265V109.431H284.191C283.381 112.343 281.018 114.224 278.4 114.224C273.018 114.224 269.992 110.053 269.992 100.614C269.992 91.1753 273.018 87.0048 278.4 87.0048C283.414 87.0048 285.664 90.285 285.958 94.8238H283.595C283.595 91.6507 281.861 88.993 278.394 88.993C274.631 88.993 272.342 92.0925 272.342 100.608C272.342 109.123 274.631 112.222 278.394 112.222C281.935 112.222 283.89 109.049 283.89 102.89V102.335H277.657V102.355Z" fill="#00A4DC"/>
<path d="M296.583 87.4534H299.536L307.321 113.789H304.811L302.669 106.117H293.45L291.308 113.789H288.798L296.577 87.4534H296.583ZM302.153 104.122L298.096 89.2943H298.023L293.966 104.122H302.153Z" fill="#00A4DC"/>
<path d="M326.23 104.865C325.895 110.877 323.131 114.231 318.411 114.231C313.029 114.231 310.003 110.06 310.003 100.621C310.003 91.1821 313.029 87.0115 318.411 87.0115C323.793 87.0115 325.969 90.8072 325.969 95.1251H323.606C323.606 91.5503 321.798 88.9998 318.404 88.9998C314.642 88.9998 312.353 92.0993 312.353 100.614C312.353 109.13 314.642 112.229 318.404 112.229C321.725 112.229 323.606 109.391 323.86 104.852H326.223L326.23 104.865Z" fill="#00A4DC"/>
<path d="M330.402 87.4534H332.765V113.789H330.402V87.4534Z" fill="#00A4DC"/>
<path d="M346.115 87.0115C351.497 87.0115 354.523 91.1754 354.523 100.621C354.523 110.067 351.497 114.231 346.115 114.231C340.733 114.231 337.707 110.06 337.707 100.621C337.707 91.1821 340.733 87.0115 346.115 87.0115ZM346.115 112.236C349.877 112.236 352.167 109.136 352.167 100.621C352.167 92.106 349.884 89.0065 346.115 89.0065C342.346 89.0065 340.063 92.106 340.063 100.621C340.063 109.136 342.353 112.236 346.115 112.236ZM349.911 81L346.296 86.2015H344.529L347.293 81H349.911Z" fill="#00A4DC"/>
<path d="M359.322 87.4534H362.495L372.564 110.395H372.637V87.4534H375V113.789H371.827L361.759 90.8474H361.685V113.789H359.322V87.4534Z" fill="#00A4DC"/>
<path d="M106.176 104.049C106.176 111.011 102.059 114.405 95.1633 114.405C88.2681 114.405 84.1846 111.044 84.1846 104.049V88.0291H89.8547V104.055C89.8547 106.867 90.5777 109.645 95.1633 109.645C99.2067 109.645 100.505 107.878 100.505 104.055V88.0291H106.176V104.055V104.049Z" fill="#2B3330"/>
<path d="M111.05 88.0291H123.18C128.087 88.0291 131.414 89.6156 131.414 94.4155C131.414 96.9393 130.149 98.7133 127.913 99.7911C131.053 100.695 132.639 103.111 132.639 106.325C132.639 111.553 128.201 113.796 123.541 113.796H111.05V88.0291ZM116.713 98.4522H122.457C124.445 98.4522 125.925 97.5484 125.925 95.3929C125.925 92.936 124.044 92.4339 122.029 92.4339H116.72V98.4589L116.713 98.4522ZM116.713 109.391H122.778C125.014 109.391 126.962 108.668 126.962 105.997C126.962 103.326 125.302 102.315 122.885 102.315H116.713V109.391Z" fill="#2B3330"/>
<path d="M143.504 88.0291H149.315L158.948 113.796H153.064L151.115 108.052H141.476L139.454 113.796H133.717L143.497 88.0291H143.504ZM142.962 103.828H149.636L146.389 94.3753H146.316L142.955 103.828H142.962Z" fill="#2B3330"/>
<path d="M82.0291 110.469C82.0291 112.41 80.4559 113.983 78.5145 113.983C76.5732 113.983 75 112.41 75 110.469C75 108.527 76.5732 106.961 78.5145 106.961C80.4559 106.961 82.0291 108.534 82.0291 110.469Z" fill="#2B3330"/>
<path d="M166.859 127.753C166.859 126.548 166.424 125.712 165.072 125.712C163.88 125.712 163.171 126.354 163.171 127.579C163.171 130.813 168.593 128.885 168.593 133.082C168.593 135.74 166.645 136.496 165.018 136.496C162.334 136.496 161.544 135.11 161.544 132.667H162.963C162.963 133.952 163.043 135.338 165.119 135.338C166.243 135.338 167.114 134.535 167.114 133.31C167.114 130.056 161.691 131.944 161.691 127.727C161.691 126.662 162.14 124.553 165.052 124.553C167.241 124.553 168.238 125.645 168.272 127.753H166.853H166.859Z" fill="#2B3330"/>
<path d="M171.426 132.118C171.426 133.437 171.426 135.432 173.086 135.432C174.372 135.432 174.552 134.08 174.552 133.437H175.905C175.905 134.354 175.356 136.496 173.006 136.496C170.897 136.496 170.014 135.03 170.014 132.071C170.014 129.916 170.429 127.419 173.086 127.419C175.744 127.419 175.965 129.722 175.965 131.569V132.118H171.426ZM174.546 131.054V130.585C174.546 129.621 174.238 128.476 173.046 128.476C171.634 128.476 171.466 130.217 171.466 130.726V131.047H174.539L174.546 131.054Z" fill="#2B3330"/>
<path d="M181.868 130.264C181.868 129.427 181.534 128.476 180.503 128.476C179.666 128.476 178.816 128.891 178.816 132.051C178.816 133.176 178.829 135.432 180.456 135.432C181.614 135.432 181.868 134.207 181.868 133.276H183.221C183.221 134.642 182.544 136.496 180.389 136.496C178.233 136.496 177.396 135.03 177.396 132.071C177.396 129.916 177.818 127.419 180.469 127.419C182.819 127.419 183.221 129.273 183.221 130.264H181.868Z" fill="#2B3330"/>
<path d="M184.935 127.646H186.287V128.932H186.32C186.709 128.108 187.224 127.419 188.188 127.419C188.463 127.419 188.657 127.452 188.784 127.512V128.831C188.657 128.818 188.496 128.764 188.061 128.764C187.385 128.764 186.294 129.373 186.294 130.806V136.262H184.941V127.64L184.935 127.646Z" fill="#2B3330"/>
<path d="M191.146 132.118C191.146 133.437 191.146 135.432 192.806 135.432C194.091 135.432 194.272 134.08 194.272 133.437H195.624C195.624 134.354 195.076 136.496 192.726 136.496C190.617 136.496 189.733 135.03 189.733 132.071C189.733 129.916 190.148 127.419 192.806 127.419C195.464 127.419 195.685 129.722 195.685 131.569V132.118H191.146ZM194.265 131.054V130.585C194.265 129.621 193.958 128.476 192.766 128.476C191.353 128.476 191.186 130.217 191.186 130.726V131.047H194.259L194.265 131.054Z" fill="#2B3330"/>
<path d="M197.888 125.136H199.24V127.646H200.739V128.711H199.24V134.247C199.24 134.936 199.414 135.211 200.124 135.211C200.411 135.211 200.572 135.177 200.719 135.164V136.275C200.545 136.309 200.19 136.369 199.628 136.369C198.229 136.369 197.888 135.787 197.888 134.662V128.711H196.636V127.646H197.888V125.136Z" fill="#2B3330"/>
<path d="M201.763 130.25C201.763 128.289 202.6 127.419 204.662 127.419C207.286 127.419 207.286 128.999 207.286 129.896V134.709C207.286 135.064 207.286 135.398 207.701 135.398C207.875 135.398 207.955 135.365 208.022 135.318V136.282C207.929 136.302 207.574 136.362 207.232 136.362C206.717 136.362 206.074 136.362 206.007 135.251H205.974C205.539 136.021 204.702 136.49 203.899 136.49C202.292 136.49 201.549 135.526 201.549 133.979C201.549 132.774 202.064 131.937 203.176 131.596L204.996 131.047C205.981 130.739 205.981 130.465 205.981 129.742C205.981 128.938 205.499 128.47 204.595 128.47C203.115 128.47 203.115 129.855 203.115 130.157V130.237H201.763V130.25ZM205.934 131.569C205.438 132.098 204.247 132.212 203.631 132.58C203.196 132.855 202.968 133.189 202.968 133.946C202.968 134.816 203.276 135.425 204.193 135.425C205.11 135.425 205.934 134.669 205.934 133.785V131.563V131.569Z" fill="#2B3330"/>
<path d="M209.436 127.646H210.788V128.932H210.821C211.21 128.108 211.725 127.419 212.689 127.419C212.963 127.419 213.158 127.452 213.285 127.512V128.831C213.158 128.818 212.997 128.764 212.562 128.764C211.886 128.764 210.795 129.373 210.795 130.806V136.262H209.442V127.64L209.436 127.646Z" fill="#2B3330"/>
<path d="M215.602 124.165H217.182L215.442 126.448H214.478L215.602 124.165ZM214.605 127.646H215.957V136.269H214.605V127.646Z" fill="#2B3330"/>
<path d="M217.917 130.25C217.917 128.289 218.754 127.419 220.816 127.419C223.44 127.419 223.44 128.999 223.44 129.896V134.709C223.44 135.064 223.44 135.398 223.855 135.398C224.029 135.398 224.11 135.365 224.177 135.318V136.282C224.083 136.302 223.728 136.362 223.387 136.362C222.871 136.362 222.229 136.362 222.162 135.251H222.128C221.693 136.021 220.856 136.49 220.053 136.49C218.446 136.49 217.703 135.526 217.703 133.979C217.703 132.774 218.219 131.937 219.33 131.596L221.151 131.047C222.135 130.739 222.135 130.465 222.135 129.742C222.135 128.938 221.653 128.47 220.749 128.47C219.27 128.47 219.27 129.855 219.27 130.157V130.237H217.917V130.25ZM222.081 131.569C221.586 132.098 220.394 132.212 219.778 132.58C219.343 132.855 219.116 133.189 219.116 133.946C219.116 134.816 219.424 135.425 220.341 135.425C221.258 135.425 222.081 134.669 222.081 133.785V131.563V131.569Z" fill="#2B3330"/>
<path d="M235.45 136.269H234.165V135.204H234.131C233.957 135.847 233.201 136.49 232.264 136.49C230.222 136.49 229.445 134.669 229.445 131.951C229.445 130.15 229.733 127.412 232.163 127.412C232.933 127.412 233.756 127.881 234.064 128.617H234.098V124.774H235.45V136.262V136.269ZM232.444 135.338C233.944 135.338 234.185 133.919 234.185 131.958C234.185 130.284 233.897 128.577 232.444 128.577C231.193 128.577 230.865 129.896 230.865 131.958C230.865 134.019 231.186 135.338 232.444 135.338Z" fill="#2B3330"/>
<path d="M238.668 132.118C238.668 133.437 238.668 135.432 240.329 135.432C241.614 135.432 241.795 134.08 241.795 133.437H243.147C243.147 134.354 242.598 136.496 240.248 136.496C238.14 136.496 237.256 135.03 237.256 132.071C237.256 129.916 237.671 127.419 240.329 127.419C242.986 127.419 243.207 129.722 243.207 131.569V132.118H238.668ZM241.788 131.054V130.585C241.788 129.621 241.48 128.476 240.288 128.476C238.876 128.476 238.709 130.217 238.709 130.726V131.047H241.781L241.788 131.054Z" fill="#2B3330"/>
<path d="M256.268 132.326C256.141 134.501 255.284 136.496 252.773 136.496C249.506 136.496 249.071 133.424 249.071 130.525C249.071 127.626 249.6 124.553 252.773 124.553C255.123 124.553 256.107 125.872 256.167 128.128H254.688C254.654 126.823 254.239 125.712 252.773 125.712C250.812 125.712 250.551 127.867 250.551 130.525C250.551 133.183 250.805 135.338 252.773 135.338C254.494 135.338 254.735 133.731 254.788 132.326H256.268Z" fill="#2B3330"/>
<path d="M257.942 124.781H259.295V126.327H257.942V124.781ZM257.942 127.646H259.295V136.269H257.942V127.646Z" fill="#2B3330"/>
<path d="M262.589 132.118C262.589 133.437 262.589 135.432 264.249 135.432C265.535 135.432 265.716 134.08 265.716 133.437H267.068C267.068 134.354 266.519 136.496 264.169 136.496C262.06 136.496 261.177 135.03 261.177 132.071C261.177 129.916 261.592 127.419 264.249 127.419C266.907 127.419 267.128 129.722 267.128 131.569V132.118H262.589ZM265.709 131.054V130.585C265.709 129.621 265.401 128.476 264.209 128.476C262.797 128.476 262.629 130.217 262.629 130.726V131.047H265.702L265.709 131.054Z" fill="#2B3330"/>
<path d="M268.93 127.646H270.215V128.657H270.248C270.603 127.867 271.5 127.419 272.337 127.419C274.606 127.419 274.606 129.139 274.606 130.157V136.269H273.254V130.317C273.254 129.655 273.207 128.577 271.982 128.577C271.259 128.577 270.275 129.059 270.275 130.317V136.269H268.923V127.646H268.93Z" fill="#2B3330"/>
<path d="M280.798 130.264C280.798 129.427 280.463 128.476 279.432 128.476C278.596 128.476 277.745 128.891 277.745 132.051C277.745 133.176 277.759 135.432 279.386 135.432C280.544 135.432 280.798 134.207 280.798 133.276H282.15C282.15 134.642 281.474 136.496 279.319 136.496C277.163 136.496 276.326 135.03 276.326 132.071C276.326 129.916 276.748 127.419 279.399 127.419C281.749 127.419 282.15 129.273 282.15 130.264H280.798Z" fill="#2B3330"/>
<path d="M283.949 124.781H285.301V126.327H283.949V124.781ZM283.949 127.646H285.301V136.269H283.949V127.646Z" fill="#2B3330"/>
<path d="M287.263 130.25C287.263 128.289 288.1 127.419 290.162 127.419C292.786 127.419 292.786 128.999 292.786 129.896V134.709C292.786 135.064 292.786 135.398 293.201 135.398C293.375 135.398 293.455 135.365 293.522 135.318V136.282C293.429 136.302 293.074 136.362 292.732 136.362C292.217 136.362 291.574 136.362 291.507 135.251H291.474C291.039 136.021 290.202 136.49 289.399 136.49C287.792 136.49 287.049 135.526 287.049 133.979C287.049 132.774 287.564 131.937 288.676 131.596L290.496 131.047C291.48 130.739 291.48 130.465 291.48 129.742C291.48 128.938 290.998 128.47 290.095 128.47C288.615 128.47 288.615 129.855 288.615 130.157V130.237H287.263V130.25ZM291.434 131.569C290.938 132.098 289.747 132.212 289.131 132.58C288.696 132.855 288.468 133.189 288.468 133.946C288.468 134.816 288.776 135.425 289.693 135.425C290.61 135.425 291.434 134.669 291.434 133.785V131.563V131.569Z" fill="#2B3330"/>
<path d="M298.396 127.646H299.876L301.583 134.568H301.616L303.129 127.646H304.609L302.112 136.851C301.79 138.043 301.436 139.107 299.809 139.107C299.28 139.107 299.052 139.074 298.825 139.06V137.996C299.019 138.029 299.273 138.043 299.615 138.043C300.244 138.043 300.518 137.674 300.679 137.206L300.933 136.449L298.39 127.646H298.396Z" fill="#2B3330"/>
<path d="M313.105 136.269H311.686V126.033H308.808V124.781H315.997V126.033H313.099V136.269H313.105Z" fill="#2B3330"/>
<path d="M318.458 132.118C318.458 133.437 318.458 135.432 320.119 135.432C321.404 135.432 321.585 134.08 321.585 133.437H322.937C322.937 134.354 322.388 136.496 320.038 136.496C317.93 136.496 317.046 135.03 317.046 132.071C317.046 129.916 317.461 127.419 320.119 127.419C322.776 127.419 322.997 129.722 322.997 131.569V132.118H318.458ZM321.578 131.054V130.585C321.578 129.621 321.27 128.476 320.078 128.476C318.666 128.476 318.499 130.217 318.499 130.726V131.047H321.571L321.578 131.054ZM320.34 124.165H321.919L320.179 126.448H319.215L320.34 124.165Z" fill="#2B3330"/>
<path d="M328.903 130.264C328.903 129.427 328.569 128.476 327.538 128.476C326.701 128.476 325.851 128.891 325.851 132.051C325.851 133.176 325.864 135.432 327.491 135.432C328.649 135.432 328.903 134.207 328.903 133.276H330.256C330.256 134.642 329.58 136.496 327.424 136.496C325.268 136.496 324.432 135.03 324.432 132.071C324.432 129.916 324.853 127.419 327.504 127.419C329.854 127.419 330.256 129.273 330.256 130.264H328.903Z" fill="#2B3330"/>
<path d="M331.97 127.646H333.255V128.657H333.288C333.643 127.867 334.54 127.419 335.377 127.419C337.646 127.419 337.646 129.139 337.646 130.157V136.269H336.294V130.317C336.294 129.655 336.247 128.577 335.022 128.577C334.299 128.577 333.315 129.059 333.315 130.317V136.269H331.963V127.646H331.97Z" fill="#2B3330"/>
<path d="M339.822 124.781H341.175V126.327H339.822V124.781ZM339.822 127.646H341.175V136.269H339.822V127.646Z" fill="#2B3330"/>
<path d="M347.446 130.264C347.446 129.427 347.111 128.476 346.08 128.476C345.243 128.476 344.393 128.891 344.393 132.051C344.393 133.176 344.406 135.432 346.033 135.432C347.191 135.432 347.452 134.207 347.452 133.276H348.805C348.805 134.642 348.128 136.496 345.973 136.496C343.817 136.496 342.98 135.03 342.98 132.071C342.98 129.916 343.396 127.419 346.053 127.419C348.403 127.419 348.805 129.273 348.805 130.264H347.452H347.446Z" fill="#2B3330"/>
<path d="M350.313 130.25C350.313 128.289 351.15 127.419 353.212 127.419C355.836 127.419 355.836 128.999 355.836 129.896V134.709C355.836 135.064 355.836 135.398 356.258 135.398C356.432 135.398 356.512 135.365 356.579 135.318V136.282C356.485 136.302 356.13 136.362 355.789 136.362C355.274 136.362 354.631 136.362 354.564 135.251H354.53C354.095 136.021 353.259 136.49 352.455 136.49C350.849 136.49 350.105 135.526 350.105 133.979C350.105 132.774 350.621 131.937 351.732 131.596L353.553 131.047C354.537 130.739 354.537 130.465 354.537 129.742C354.537 128.938 354.055 128.47 353.151 128.47C351.672 128.47 351.672 129.855 351.672 130.157V130.237H350.32L350.313 130.25ZM354.484 131.569C353.981 132.098 352.797 132.212 352.181 132.58C351.746 132.855 351.525 133.189 351.525 133.946C351.525 134.816 351.833 135.425 352.75 135.425C353.667 135.425 354.49 134.669 354.49 133.785V131.563L354.484 131.569Z" fill="#2B3330"/>
</svg>
