<svg width="450" height="220" viewBox="0 0 450 220" fill="none" xmlns="http://www.w3.org/2000/svg">
<path d="M207.664 117.347C207.664 130.44 205.005 139.846 199.689 145.565C194.372 151.284 185.558 154.144 173.249 154.144C161.08 154.144 152.306 151.314 146.927 145.652C141.547 139.99 138.857 130.563 138.857 117.37V68.6394H155.9V116.137C155.9 121.819 156.444 126.292 157.534 129.555C158.378 132.483 160.217 135.026 162.736 136.743C165.113 138.273 168.578 139.037 173.131 139.037C179.616 139.037 184.149 137.314 186.731 133.868C189.314 130.421 190.602 124.59 190.598 116.372V108.422L207.664 111.062V117.347Z" fill="#0073B8"/>
<path d="M295.037 152.274V116.742H262.099H247.955V101.171H262.099H295.037V68.6394H312.143V152.274H295.037Z" fill="#0073B8"/>
<g style="mix-blend-mode:multiply" opacity="0.5">
<path d="M200.789 144.277C200.294 143.727 199.807 143.161 199.35 142.564C193.704 135.164 190.799 124.873 190.637 111.69V116.404C190.712 120.292 190.298 124.175 189.403 127.96C190.717 133.923 193.268 139.543 196.891 144.458C197.457 145.204 198.07 145.903 198.691 146.587C199.041 146.262 199.379 145.924 199.704 145.573C200.082 145.149 200.443 144.717 200.789 144.277Z" fill="#444242"/>
</g>
<g style="mix-blend-mode:multiply" opacity="0.5">
<path d="M265.282 101.132H262.178C262.513 104.223 262.678 107.331 262.673 110.441C262.673 112.625 262.594 114.707 262.461 116.726H265.557C265.69 114.699 265.769 112.609 265.769 110.441C265.772 107.332 265.609 104.224 265.282 101.132Z" fill="#444242"/>
</g>
<path d="M262.649 110.457C262.649 125.001 259.577 135.9 253.433 143.153C247.288 150.407 238.351 154.034 226.624 154.034C214.251 154.034 205.154 150.216 199.335 142.58C193.515 134.944 190.602 124.236 190.598 110.457C190.598 96.5988 193.51 85.862 199.335 78.2472C205.16 70.6324 214.255 66.8348 226.624 66.856C239.074 66.856 248.192 70.6528 253.975 78.2472C259.758 85.8416 262.649 96.5776 262.649 110.457ZM245.065 110.457C245.065 100.548 243.663 93.3252 240.861 88.79C238.058 84.2547 233.313 81.989 226.624 81.9945C219.934 81.9945 215.188 84.2594 212.386 88.79C209.583 93.3205 208.182 100.543 208.182 110.457C208.182 120.366 209.601 127.588 212.441 132.124C215.28 136.659 219.994 138.925 226.584 138.919C233.273 138.919 238.019 136.654 240.822 132.124C243.624 127.593 245.036 120.371 245.057 110.457H245.065Z" fill="#5D5D5D"/>
</svg>
