<svg width="300" height="300" viewBox="0 0 300 300" fill="none" xmlns="http://www.w3.org/2000/svg">
<path d="M296.684 118.803C279.436 37.8124 199.795 -13.9319 118.803 3.31617C37.8124 20.5643 -13.9319 100.205 3.31617 181.197C20.5643 262.188 100.205 313.932 181.197 296.684C262.188 279.436 313.932 199.795 296.684 118.803ZM207.594 190.646C204.594 193.345 201.144 195.145 196.945 196.045C192.745 196.945 188.696 196.795 184.946 195.595C181.197 194.395 178.197 191.845 175.797 188.096L136.202 122.103L145.95 167.848C147.6 175.647 147.3 182.546 145.201 188.846C143.101 195.145 139.501 200.394 134.402 204.594C129.302 208.794 123.003 211.793 115.504 213.293C108.005 214.943 101.105 214.793 94.6561 212.993C88.2068 211.193 82.8074 207.894 78.3079 202.944C73.8084 197.995 70.8087 191.695 69.1589 184.046L57.6102 129.602L79.0578 125.103L90.9065 180.597C91.6564 183.896 93.0063 186.896 94.9561 189.296C96.9059 191.695 99.3056 193.495 102.305 194.545C105.155 195.595 108.455 195.745 111.904 194.995C115.354 194.245 118.204 192.745 120.453 190.646C122.553 188.546 124.053 185.996 124.953 182.996C125.853 179.997 125.853 176.847 125.103 173.397L113.254 117.904L154.949 109.055L190.646 174.447C190.945 174.897 191.245 175.197 191.545 175.497C191.845 175.647 192.295 175.797 192.745 175.647C193.195 175.497 193.495 175.347 193.795 175.047C194.095 174.747 194.245 174.297 194.245 173.697L200.694 99.3056L223.492 94.5061L213.143 180.147C212.243 184.496 210.593 187.946 207.594 190.646ZM244.94 179.397C244.19 181.497 242.99 183.296 241.34 184.796C239.69 186.296 237.74 187.346 235.341 187.796C232.041 188.546 228.891 187.946 225.892 185.996C222.892 184.046 221.092 181.347 220.342 177.897C219.592 174.597 220.192 171.448 222.142 168.448C224.092 165.448 226.792 163.649 230.241 162.899C233.541 162.149 236.69 162.749 239.69 164.698C242.69 166.648 244.49 169.348 245.239 172.797C245.839 175.047 245.689 177.147 244.94 179.397Z" fill="#6BD8D7"/>
<path d="M207.594 190.646C204.594 193.345 201.144 195.145 196.945 196.045C192.745 196.945 188.696 196.795 184.946 195.595C181.197 194.395 178.197 191.845 175.797 188.096L136.202 122.103L145.95 167.848C147.6 175.647 147.3 182.546 145.201 188.846C143.101 195.145 139.501 200.394 134.402 204.594C129.302 208.794 123.003 211.793 115.504 213.293C108.005 214.943 101.105 214.793 94.6561 212.993C88.2068 211.193 82.8074 207.894 78.3079 202.944C73.8084 197.995 70.8087 191.695 69.1589 184.046L57.6102 129.602L79.0578 125.103L90.9065 180.597C91.6564 183.896 93.0063 186.896 94.9561 189.296C96.9059 191.695 99.3056 193.495 102.305 194.545C105.155 195.595 108.455 195.745 111.904 194.995C115.354 194.245 118.204 192.745 120.453 190.646C122.553 188.546 124.053 185.996 124.953 182.996C125.853 179.997 125.853 176.847 125.103 173.397L113.254 117.904L154.949 109.055L190.646 174.447C190.945 174.897 191.245 175.197 191.545 175.497C191.845 175.647 192.295 175.797 192.745 175.647C193.195 175.497 193.495 175.347 193.795 175.047C194.095 174.747 194.245 174.297 194.245 173.697L200.694 99.3056L223.492 94.5061L213.143 180.147C212.243 184.496 210.593 187.946 207.594 190.646Z" fill="#6BD8D7"/>
<path d="M244.94 179.397C244.19 181.497 242.99 183.296 241.34 184.796C239.69 186.296 237.74 187.346 235.341 187.796C232.041 188.546 228.891 187.946 225.892 185.996C222.892 184.046 221.092 181.347 220.342 177.897C219.592 174.597 220.192 171.448 222.142 168.448C224.092 165.448 226.792 163.649 230.241 162.899C233.541 162.149 236.69 162.749 239.69 164.698C242.69 166.648 244.49 169.348 245.239 172.797C245.839 175.047 245.689 177.147 244.94 179.397Z" fill="#6BD8D7"/>
<path d="M206.576 186.916C203.545 189.638 200.058 191.453 195.813 192.36C191.569 193.268 187.476 193.116 183.686 191.907C179.896 190.697 176.864 188.126 174.439 184.346L134.419 117.809L144.272 163.931C145.94 171.794 145.637 178.751 143.514 185.102C141.392 191.453 137.754 196.746 132.6 200.98C127.446 205.214 121.079 208.238 113.499 209.751C105.92 211.414 98.9464 211.263 92.4279 209.448C85.9095 207.633 80.4522 204.307 75.9045 199.316C71.3567 194.326 68.3249 187.975 66.6574 180.263L55 125.385L76.6776 120.849L88.6533 176.8C89.4113 180.127 90.7756 183.151 92.7463 185.571C94.717 187.99 97.1424 189.805 100.174 190.863C103.055 191.922 106.39 192.073 109.876 191.317C113.363 190.561 116.243 189.049 118.517 186.932C120.639 184.814 122.155 182.244 123.065 179.219C123.974 176.195 123.974 173.019 123.216 169.541L111.24 113.59L153.383 104.668L189.462 170.585C189.765 171.038 190.068 171.341 190.371 171.643C190.674 171.794 191.129 171.946 191.584 171.794C192.039 171.643 192.342 171.492 192.645 171.19C192.948 170.887 193.1 170.434 193.1 169.829L199.618 94.839L222.66 90L212.2 176.331C211.291 180.716 209.623 184.194 206.592 186.916H206.576ZM244.323 175.575C243.565 177.692 242.352 179.507 240.684 181.019C239.017 182.531 237.046 183.59 234.621 184.043C231.286 184.799 228.102 184.194 225.071 182.229C222.039 180.263 220.22 177.541 219.462 174.063C218.704 170.736 219.31 167.56 221.281 164.536C223.251 161.512 225.98 159.697 229.467 158.941C232.802 158.185 235.985 158.79 239.017 160.755C242.049 162.721 243.868 165.443 244.626 168.921C245.232 171.19 245.081 173.307 244.323 175.575Z" fill="white"/>
</svg>
