<svg width="450" height="220" viewBox="0 0 450 220" fill="none" xmlns="http://www.w3.org/2000/svg">
<path d="M211.254 42.5144C248.239 34.6378 284.609 58.2676 292.486 95.2536C300.362 132.239 276.732 168.609 239.746 176.486C202.761 184.362 166.391 160.732 158.514 123.746C150.638 86.7605 174.268 50.391 211.254 42.5144Z" fill="#6BD8D7"/>
<path d="M251.337 126.068C249.952 127.303 248.36 128.126 246.421 128.538C244.483 128.949 242.614 128.881 240.883 128.332C239.153 127.783 237.768 126.617 236.66 124.902L218.385 94.7162L222.884 115.64C223.646 119.208 223.507 122.363 222.538 125.245C221.569 128.126 219.908 130.527 217.554 132.448C215.2 134.369 212.293 135.741 208.831 136.427C205.37 137.182 202.186 137.113 199.209 136.29C196.232 135.467 193.74 133.957 191.663 131.693C189.586 129.429 188.202 126.548 187.44 123.049L182.117 98.1532L192.016 96.0952L197.485 121.478C197.831 122.988 198.454 124.36 199.354 125.457C200.254 126.555 201.362 127.378 202.746 127.858C204.062 128.339 205.585 128.407 207.177 128.064C208.769 127.721 210.084 127.035 211.123 126.075C212.092 125.114 212.784 123.948 213.2 122.576C213.615 121.204 213.615 119.763 213.269 118.185L207.8 92.8022L227.045 88.7546L243.521 118.659C243.659 118.865 243.798 119.002 243.936 119.139C244.075 119.208 244.282 119.276 244.49 119.208C244.698 119.139 244.836 119.07 244.975 118.933C245.113 118.796 245.182 118.59 245.182 118.316L248.159 84.2954L258.682 82.1001L253.905 121.266C253.49 123.255 252.728 124.833 251.343 126.068H251.337ZM268.574 120.923C268.228 121.883 267.674 122.706 266.913 123.392C266.151 124.078 265.251 124.559 264.144 124.764C262.621 125.107 261.167 124.833 259.782 123.941C258.398 123.049 257.567 121.814 257.221 120.237C256.875 118.727 257.152 117.287 258.052 115.915C258.952 114.543 260.198 113.719 261.79 113.376C263.313 113.033 264.767 113.308 266.151 114.2C267.536 115.091 268.366 116.326 268.713 117.904C268.989 118.933 268.92 119.894 268.574 120.923Z" fill="white"/>
</svg>
