<?xml version="1.0" encoding="utf-8"?>
<!-- Generator: Adobe Illustrator 28.0.0, SVG Export Plug-In . SVG Version: 6.00 Build 0)  -->
<svg version="1.1" id="Layer_1" xmlns="http://www.w3.org/2000/svg" xmlns:xlink="http://www.w3.org/1999/xlink" x="0px" y="0px"
	 viewBox="0 0 450 220" style="enable-background:new 0 0 450 220;" xml:space="preserve">
<style type="text/css">
	.st0{fill-rule:evenodd;clip-rule:evenodd;fill:#007DC3;}
	.st1{fill-rule:evenodd;clip-rule:evenodd;fill:#FDBB30;}
	.st2{fill-rule:evenodd;clip-rule:evenodd;fill:none;stroke:#FDBB30;stroke-width:0.7716;stroke-miterlimit:3.8637;}
</style>
<g>
	<path class="st0" d="M104.8,120.5l0-5.1c-12.7,0.2-8.7,7.3-8.7,7.3C99.7,127.6,104.8,121.8,104.8,120.5z M91.1,107.3l-1.5-5.2
		c0,0,21.5-9.6,23,8.5c0,0,0.2,17.7,0.8,19c0,0-5.6,2-8.1-3.1c0,0,0,0,0,0c0.1,1.1-10.1,8.4-16.4-0.1c0,0-8.5-15,15.6-16.1
		C104.5,110.3,105.3,101,91.1,107.3z"/>
	<path class="st0" d="M196,120.5l0-5.1c-12.7,0.2-8.7,7.3-8.7,7.3C190.9,127.6,196,121.8,196,120.5z M182.3,107.3l-1.5-5.2
		c0,0,21.5-9.6,23,8.5c0,0,0.2,17.7,0.8,19c0,0-5.6,2-8.1-3.1c0,0,0,0,0,0c0.1,1.1-10.1,8.4-16.4-0.1c0,0-8.5-15,15.6-16.1
		C195.7,110.3,196.5,101,182.3,107.3z"/>
	<g>
		<path class="st0" d="M355.7,126.1c-1.3,0.6-3.3,1-5.3,1c-6.1,0-9.6-3.9-9.6-10.1c0-6.6,3.9-10.4,9.8-10.4c2.1,0,3.8,0.4,5,1
			l0.8-2.6c-0.9-0.4-2.9-1.1-6-1.1c-7.8,0-13.1,5.3-13.1,13.2c0,8.3,5.3,12.7,12.4,12.7c3.1,0,5.5-0.6,6.6-1.2L355.7,126.1z"/>
		<path class="st0" d="M359.9,129.5h3.3v-10.9c0-0.6,0-1.1,0.2-1.6c0.6-1.8,2.3-3.2,4.4-3.2c3.1,0,4.2,2.4,4.2,5.3v10.4h3.3v-10.7
			c0-6.2-3.9-7.7-6.3-7.7c-1.2,0-2.4,0.3-3.4,0.9c-1,0.6-1.8,1.4-2.3,2.3h-0.1V103h-3.3V129.5z"/>
		<path class="st0" d="M383.3,129.5v-18h-3.3v18H383.3z M381.7,104.4c-1.2,0-2,0.9-2,2c0,1.1,0.8,2,2,2c1.3,0,2.1-0.9,2.1-2
			C383.7,105.3,382.9,104.4,381.7,104.4z"/>
		<rect x="388.3" y="103" class="st0" width="3.3" height="26.5"/>
		<path class="st0" d="M411.1,121.1c0.1-0.4,0.1-0.9,0.1-1.5c0-3.3-1.5-8.5-7.5-8.5c-5.3,0-8.5,4.2-8.5,9.7c0,5.4,3.3,9.1,8.9,9.1
			c2.9,0,4.9-0.6,6-1.2l-0.6-2.3c-1.2,0.5-2.6,0.9-5,0.9c-3.3,0-6.1-1.8-6.2-6.3H411.1z M398.5,118.7c0.3-2.3,1.7-5.3,5-5.3
			c3.7,0,4.6,3.2,4.5,5.3H398.5z"/>
	</g>
	<path class="st0" d="M47.5,90.6h-8.7l8.3,34.1c0,0,0.7,7.3,10,4.8l7-29.5l4.5,23.7c0,0,1,8.5,10.2,5.8l10.4-38.9h-8.3l-6,29.4
		l-6.1-29.4h-8.6l-6.8,29.5L47.5,90.6z"/>
	<rect x="118.2" y="90.3" class="st0" width="7.9" height="39"/>
	<path class="st0" d="M139.6,129.5h-8.1v-29.2h7.7v4c0.2-1,3.9-4.6,8.4-4.6c3.8,0,6,1.3,8.4,5.1c0,0,3.3-5.3,9.1-5.1
		c4.3,0,9.2,2.3,10.3,9.8v20h-8v-17.9c0,0-0.1-5.4-5.3-5.1c0,0-4.3,0.3-4.6,5.1v17.9h-8.1l0-17.9c0,0-0.3-5.2-5-5.2
		c-2.8,0-4.9,2.6-4.9,5.2L139.6,129.5z"/>
	<path class="st0" d="M209.1,100.3v29.2h8.1v-16.1c0,0,0.7-7.6,9-5.8v-7.8c0,0-7.3-1-9.8,6.1l0-5.6H209.1z"/>
	<path class="st0" d="M237.6,90.6h-7.9l0,29.3c-0.1,1.2,0.3,14.1,14.5,9.2l0-6c0,0-6.8,2.4-6.6-3.7v-12.3h6.9v-7.3h-6.9V90.6z"/>
	<g>
		<path class="st1" d="M290.8,97.5c-0.2,1.3-4.3,2.8-5.9,0.1l-1.6-17.7c-0.1-0.6-0.1-3.4,4.5-3.4c0,0,4.4-0.3,4.6,3.2L290.8,97.5z"
			/>
		<path class="st1" d="M284.9,122.5c0.2-1.3,4.3-2.8,5.9-0.1l1.6,17.7c0.1,0.6,0.1,3.4-4.5,3.4c0,0-4.4,0.3-4.6-3.2L284.9,122.5z"/>
		<path class="st1" d="M278.3,101.3c1,0.8,0.3,5.1-2.9,5.1L259.3,99c-0.6-0.2-2.9-1.6-0.6-5.6c0,0,1.9-4,5.1-2.4L278.3,101.3z"/>
		<path class="st1" d="M297.1,119c-1-0.8-0.3-5.1,2.9-5.1l16.1,7.4c0.6,0.2,2.9,1.6,0.6,5.6c0,0-1.9,4-5.1,2.4L297.1,119z"/>
		<path class="st1" d="M275.3,113.6c1.2-0.5,4.6,2.3,3,5.1L263.8,129c-0.5,0.4-2.9,1.7-5.2-2.2c0,0-2.5-3.6,0.5-5.6L275.3,113.6z"/>
		<path class="st1" d="M300.1,106.4c-1.2,0.5-4.6-2.3-3-5.1l14.5-10.3c0.5-0.4,2.9-1.7,5.2,2.2c0,0,2.5,3.6-0.5,5.6L300.1,106.4z"/>
		<path class="st2" d="M319.7,128.2c0-1.3,1.1-2.4,2.4-2.4c1.3,0,2.4,1.1,2.4,2.4c0,1.3-1.1,2.4-2.4,2.4
			C320.7,130.6,319.7,129.5,319.7,128.2z"/>
		<path class="st1" d="M321.2,129.5v-2.8h1c0.3,0,0.4,0,0.5,0.1c0.1,0,0.2,0.1,0.3,0.3c0.1,0.1,0.1,0.3,0.1,0.4
			c0,0.2-0.1,0.4-0.2,0.5c-0.1,0.1-0.3,0.2-0.5,0.3c0.1,0.1,0.2,0.1,0.3,0.2c0.1,0.1,0.2,0.2,0.3,0.5l0.3,0.5h-0.6l-0.3-0.6
			c-0.1-0.2-0.2-0.4-0.3-0.4c0-0.1-0.1-0.1-0.1-0.1c0,0-0.1,0-0.2,0h-0.1v1.2H321.2z M321.6,127.9h0.4c0.2,0,0.4,0,0.4,0
			c0.1,0,0.1-0.1,0.1-0.1c0-0.1,0-0.1,0-0.2c0-0.1,0-0.2-0.1-0.2c0-0.1-0.1-0.1-0.2-0.1c0,0-0.2,0-0.3,0h-0.4V127.9z"/>
	</g>
</g>
</svg>
