<?xml version="1.0" encoding="utf-8"?>
<!-- Generator: Adobe Illustrator 28.0.0, SVG Export Plug-In . SVG Version: 6.00 Build 0)  -->
<svg version="1.1" id="Layer_1" xmlns="http://www.w3.org/2000/svg" xmlns:xlink="http://www.w3.org/1999/xlink" x="0px" y="0px"
	 viewBox="0 0 450 220" style="enable-background:new 0 0 450 220;" xml:space="preserve">
<style type="text/css">
	.st0{clip-path:url(#SVGID_00000092450348089694422100000012897757946382680467_);}
	.st1{fill:#757575;}
	.st2{fill:#FFFFFF;filter:url(#Adobe_OpacityMaskFilter);}
	.st3{mask:url(#mask0_521_557_00000100351234424180343490000005864852092263444892_);}
	.st4{opacity:0.3;fill:url(#SVGID_00000015320491508046297010000003104069585869206188_);enable-background:new    ;}
	.st5{fill:#00BFA5;}
	.st6{opacity:0.3;}
	.st7{fill:#04A88C;}
	.st8{fill:#1CE9B6;}
	.st9{fill:#4285F4;}
	.st10{opacity:0.4;}
	.st11{fill:#46F7C5;}
	.st12{fill:#2A6FD3;}
	.st13{fill:#4FC3F7;}
	.st14{fill:#24CE9E;}
	.st15{fill:#6ED2F4;}
	.st16{fill:#30A5CE;}
	.st17{fill:url(#SVGID_00000002344906224272678320000005128174934371064488_);}
	.st18{fill:url(#SVGID_00000161617850641699460620000018166571678604806786_);}
	.st19{fill:url(#SVGID_00000009571560313492717390000004039597701444101792_);}
	.st20{fill:url(#SVGID_00000125575382850658308300000004877291895942814630_);}
	.st21{fill:url(#SVGID_00000124126151700217203520000011558083379479006609_);}
	.st22{fill:url(#SVGID_00000014608450861115617800000013312247729983267223_);}
</style>
<g>
	<defs>
		<rect id="SVGID_1_" x="146" y="34.6" width="158" height="134.2"/>
	</defs>
	<clipPath id="SVGID_00000072976173741297046680000009437381563380245914_">
		<use xlink:href="#SVGID_1_"  style="overflow:visible;"/>
	</clipPath>
	<g style="clip-path:url(#SVGID_00000072976173741297046680000009437381563380245914_);">
		<path class="st1" d="M146,155.9h1.6l2.3,9.2l0.2,0.9h0.1l0.3-0.9l2.8-9.2h1.5l2.7,9.2l0.3,0.9h0.1l2.5-10.1h1.6l-3.4,12.5H157
			l-2.7-9.1l-0.3-1H154l-0.3,1l-2.8,9.1h-1.5L146,155.9L146,155.9z"/>
		<path class="st1" d="M164.1,168.1c-0.7-0.4-1.2-1-1.6-1.7c-0.4-0.7-0.6-1.5-0.6-2.4c0-0.9,0.2-1.7,0.6-2.4
			c0.4-0.7,0.9-1.3,1.6-1.7c0.7-0.4,1.5-0.6,2.4-0.6c0.9,0,1.7,0.2,2.4,0.6c0.7,0.4,1.2,1,1.6,1.7c0.4,0.7,0.6,1.5,0.6,2.4
			c0,0.9-0.2,1.7-0.6,2.4c-0.4,0.7-0.9,1.3-1.6,1.7c-0.7,0.4-1.5,0.6-2.4,0.6C165.6,168.8,164.8,168.5,164.1,168.1z M168,167
			c0.5-0.3,0.9-0.7,1.1-1.2c0.3-0.5,0.4-1.1,0.4-1.8c0-0.7-0.1-1.3-0.4-1.8c-0.3-0.5-0.7-0.9-1.1-1.2c-0.5-0.3-1-0.4-1.5-0.4
			c-0.5,0-1.1,0.1-1.5,0.4c-0.5,0.3-0.9,0.7-1.1,1.2c-0.3,0.5-0.4,1.1-0.4,1.8c0,0.7,0.1,1.3,0.4,1.8c0.3,0.5,0.7,0.9,1.1,1.2
			c0.5,0.3,1,0.4,1.5,0.4C167,167.4,167.5,167.3,168,167z"/>
		<path class="st1" d="M172.6,159.6h1.4v1.3h0.1c0.3-0.5,0.6-0.8,1.2-1.1c0.5-0.3,1.1-0.5,1.6-0.5c0.7,0,1.2,0.2,1.7,0.5
			c0.5,0.3,0.8,0.7,1,1.3c0.3-0.5,0.7-0.9,1.2-1.3c0.5-0.3,1.1-0.5,1.8-0.5c1,0,1.8,0.3,2.3,0.9c0.5,0.6,0.8,1.5,0.8,2.5v5.7h-1.5
			V163c0-0.8-0.2-1.4-0.5-1.8c-0.3-0.4-0.8-0.6-1.5-0.6c-0.4,0-0.8,0.1-1.2,0.4c-0.4,0.3-0.6,0.6-0.8,1c-0.2,0.4-0.3,0.9-0.3,1.4v5
			h-1.5V163c0-0.8-0.2-1.4-0.5-1.8c-0.3-0.4-0.8-0.6-1.5-0.6c-0.4,0-0.8,0.1-1.2,0.4c-0.4,0.3-0.6,0.6-0.8,1
			c-0.2,0.4-0.3,0.9-0.3,1.4v5h-1.5L172.6,159.6L172.6,159.6z"/>
		<path class="st1" d="M189.6,168.1c-0.7-0.4-1.2-1-1.6-1.7c-0.4-0.7-0.6-1.5-0.6-2.4c0-0.9,0.2-1.7,0.5-2.4
			c0.4-0.7,0.9-1.3,1.5-1.7c0.7-0.4,1.4-0.6,2.3-0.6c0.9,0,1.6,0.2,2.3,0.6c0.6,0.4,1.1,0.9,1.5,1.6c0.3,0.7,0.5,1.5,0.5,2.4
			c0,0.2,0,0.3-0.1,0.5h-7.1c0,0.7,0.2,1.2,0.5,1.7c0.3,0.5,0.7,0.8,1.1,1.1c0.4,0.2,0.9,0.3,1.4,0.3c1.1,0,2-0.5,2.6-1.6l1.3,0.6
			c-0.4,0.7-0.9,1.3-1.6,1.7c-0.7,0.4-1.5,0.6-2.4,0.6C191,168.8,190.2,168.6,189.6,168.1L189.6,168.1z M194.4,163.1
			c0-0.4-0.1-0.7-0.3-1.1c-0.2-0.4-0.5-0.7-0.9-0.9c-0.4-0.3-0.9-0.4-1.5-0.4c-0.7,0-1.3,0.2-1.8,0.7c-0.5,0.4-0.8,1-1,1.8
			L194.4,163.1L194.4,163.1z"/>
		<path class="st1" d="M197.7,159.6h1.4v1.3h0.1c0.2-0.4,0.6-0.8,1.2-1.1c0.5-0.3,1.1-0.5,1.7-0.5c1.1,0,1.9,0.3,2.5,0.9
			c0.6,0.6,0.8,1.5,0.8,2.5v5.7h-1.5V163c0-0.8-0.2-1.4-0.6-1.8c-0.4-0.4-0.9-0.6-1.6-0.6c-0.5,0-0.9,0.1-1.3,0.4
			c-0.4,0.3-0.7,0.6-0.9,1.1c-0.2,0.4-0.3,0.9-0.3,1.4v5h-1.5V159.6L197.7,159.6z"/>
		<path class="st1" d="M213.7,157.4h-3.5V156h8.5v1.4h-3.5v11.1h-1.5L213.7,157.4L213.7,157.4z"/>
		<path class="st1" d="M220.5,168.2c-0.7-0.4-1.2-1-1.6-1.7c-0.4-0.7-0.6-1.5-0.6-2.4c0-0.9,0.2-1.7,0.5-2.4
			c0.4-0.7,0.9-1.3,1.5-1.7c0.7-0.4,1.4-0.6,2.3-0.6c0.9,0,1.6,0.2,2.3,0.6c0.6,0.4,1.1,0.9,1.5,1.6c0.3,0.7,0.5,1.5,0.5,2.4
			c0,0.2,0,0.3-0.1,0.5h-7.1c0,0.7,0.2,1.2,0.5,1.7c0.3,0.5,0.7,0.8,1.1,1.1c0.4,0.2,0.9,0.3,1.4,0.3c1.1,0,2-0.5,2.6-1.6l1.3,0.6
			c-0.4,0.7-0.9,1.3-1.6,1.7c-0.7,0.4-1.5,0.6-2.4,0.6C222,168.8,221.2,168.6,220.5,168.2L220.5,168.2z M225.4,163.1
			c0-0.4-0.1-0.7-0.3-1.1c-0.2-0.4-0.5-0.7-0.9-0.9c-0.4-0.3-0.9-0.4-1.5-0.4c-0.7,0-1.3,0.2-1.8,0.7c-0.5,0.4-0.8,1-1,1.8
			L225.4,163.1L225.4,163.1z"/>
		<path class="st1" d="M230.5,168.2c-0.7-0.4-1.2-1-1.6-1.7c-0.4-0.7-0.6-1.5-0.6-2.4c0-0.9,0.2-1.7,0.6-2.4s0.9-1.3,1.6-1.7
			c0.7-0.4,1.5-0.6,2.3-0.6c1,0,1.8,0.2,2.4,0.7c0.7,0.4,1.1,1,1.4,1.8l-1.3,0.6c-0.2-0.5-0.6-1-1-1.2c-0.4-0.3-1-0.4-1.6-0.4
			c-0.5,0-1,0.1-1.5,0.4c-0.5,0.3-0.8,0.7-1.1,1.2c-0.3,0.5-0.4,1.1-0.4,1.8s0.1,1.3,0.4,1.8c0.3,0.5,0.6,0.9,1.1,1.2
			c0.5,0.3,0.9,0.4,1.5,0.4c0.6,0,1.2-0.1,1.6-0.4c0.5-0.3,0.8-0.7,1-1.2l1.3,0.6c-0.3,0.7-0.8,1.3-1.5,1.8
			c-0.7,0.5-1.5,0.7-2.4,0.7C232,168.8,231.2,168.6,230.5,168.2L230.5,168.2z"/>
		<path class="st1" d="M238.3,156h1.5v3.7l-0.1,1.2h0.1c0.2-0.5,0.6-0.8,1.2-1.1c0.5-0.3,1.1-0.5,1.7-0.5c1.1,0,1.9,0.3,2.5,1
			c0.6,0.6,0.9,1.5,0.9,2.5v5.7h-1.5V163c0-0.8-0.2-1.4-0.6-1.8c-0.4-0.4-0.9-0.6-1.6-0.6c-0.5,0-0.9,0.1-1.3,0.4
			c-0.4,0.3-0.7,0.6-0.9,1.1c-0.2,0.4-0.3,0.9-0.3,1.4v5h-1.5V156L238.3,156z"/>
		<path class="st1" d="M248.2,159.6h1.4v1.3h0.1c0.3-0.5,0.6-0.8,1.2-1.1c0.5-0.3,1.1-0.5,1.6-0.5c0.7,0,1.2,0.2,1.7,0.5
			c0.5,0.3,0.8,0.7,1,1.3c0.3-0.5,0.7-0.9,1.2-1.3c0.5-0.3,1.1-0.5,1.8-0.5c1,0,1.8,0.3,2.3,0.9c0.5,0.6,0.8,1.5,0.8,2.5v5.7h-1.5
			V163c0-0.8-0.2-1.4-0.5-1.8c-0.3-0.4-0.8-0.6-1.5-0.6c-0.4,0-0.8,0.1-1.2,0.4c-0.4,0.3-0.6,0.6-0.8,1c-0.2,0.4-0.3,0.9-0.3,1.4v5
			h-1.5v-5.5c0-0.8-0.2-1.4-0.5-1.8c-0.3-0.4-0.8-0.6-1.5-0.6c-0.4,0-0.8,0.1-1.2,0.4c-0.4,0.3-0.6,0.6-0.8,1
			c-0.2,0.4-0.3,0.9-0.3,1.4v5h-1.5L248.2,159.6L248.2,159.6z"/>
		<path class="st1" d="M264.5,168.4c-0.5-0.3-0.9-0.6-1.2-1.1c-0.3-0.4-0.4-1-0.4-1.5c0-0.9,0.4-1.7,1.1-2.2
			c0.7-0.5,1.6-0.8,2.7-0.8c0.5,0,1,0.1,1.5,0.2c0.5,0.1,0.8,0.3,1.1,0.4v-0.5c0-0.7-0.2-1.2-0.7-1.6c-0.5-0.4-1.1-0.6-1.8-0.6
			c-0.5,0-1,0.1-1.4,0.3c-0.4,0.2-0.8,0.5-1,0.9l-1.1-0.8c0.3-0.5,0.8-1,1.4-1.3c0.6-0.3,1.3-0.5,2-0.5c1.2,0,2.2,0.3,2.9,1
			c0.7,0.6,1,1.5,1,2.6v5.7h-1.4v-1.3h-0.1c-0.3,0.4-0.6,0.8-1.2,1.1c-0.5,0.3-1.1,0.5-1.7,0.5C265.6,168.8,265,168.7,264.5,168.4
			L264.5,168.4z M267.8,167.1c0.4-0.3,0.8-0.6,1-1c0.3-0.4,0.4-0.9,0.4-1.4c-0.3-0.2-0.6-0.3-1-0.5c-0.4-0.1-0.8-0.2-1.3-0.2
			c-0.8,0-1.4,0.2-1.8,0.5c-0.4,0.3-0.6,0.8-0.6,1.3c0,0.5,0.2,0.9,0.6,1.2c0.4,0.3,0.8,0.5,1.4,0.5
			C266.9,167.5,267.4,167.4,267.8,167.1L267.8,167.1z"/>
		<path class="st1" d="M272.7,156h1.5v7.9l4.2-4.3h1.9v0.1l-3.5,3.5l3.6,5.3v0.1h-1.8l-2.9-4.3l-1.5,1.5v2.7h-1.5V156L272.7,156z"/>
		<path class="st1" d="M283,168.2c-0.7-0.4-1.2-1-1.6-1.7c-0.4-0.7-0.6-1.5-0.6-2.4c0-0.9,0.2-1.7,0.5-2.4c0.4-0.7,0.9-1.3,1.5-1.7
			c0.7-0.4,1.4-0.6,2.3-0.6c0.9,0,1.6,0.2,2.3,0.6c0.6,0.4,1.1,0.9,1.5,1.6c0.3,0.7,0.5,1.5,0.5,2.4c0,0.2,0,0.3-0.1,0.5h-7
			c0,0.7,0.2,1.2,0.5,1.7c0.3,0.5,0.7,0.8,1.1,1.1c0.4,0.2,0.9,0.3,1.4,0.3c1.1,0,2-0.5,2.6-1.6l1.3,0.6c-0.4,0.7-0.9,1.3-1.6,1.7
			c-0.7,0.4-1.5,0.6-2.4,0.6C284.4,168.8,283.6,168.6,283,168.2L283,168.2z M287.8,163.1c0-0.4-0.1-0.7-0.3-1.1
			c-0.2-0.4-0.5-0.7-0.9-0.9c-0.4-0.3-0.9-0.4-1.5-0.4c-0.7,0-1.3,0.2-1.8,0.7c-0.5,0.4-0.8,1-1,1.8L287.8,163.1L287.8,163.1z"/>
		<path class="st1" d="M291.1,159.6h1.4v1.4h0.1c0.2-0.5,0.5-0.9,1-1.2c0.5-0.3,1-0.5,1.6-0.5c0.4,0,0.8,0.1,1.1,0.2v1.6
			c-0.4-0.2-0.8-0.3-1.3-0.3c-0.4,0-0.8,0.1-1.2,0.4c-0.4,0.2-0.7,0.6-0.9,1c-0.2,0.4-0.3,0.9-0.3,1.3v5h-1.5V159.6L291.1,159.6z"/>
		<path class="st1" d="M298.1,168.1c-0.6-0.4-1.1-1-1.4-1.7l1.3-0.6c0.2,0.5,0.6,1,1,1.2c0.4,0.3,0.9,0.4,1.4,0.4
			c0.6,0,1-0.1,1.4-0.3c0.4-0.2,0.6-0.6,0.6-1c0-0.4-0.2-0.7-0.5-0.9c-0.3-0.2-0.8-0.4-1.5-0.6l-1.1-0.3c-0.7-0.2-1.3-0.5-1.8-0.9
			c-0.5-0.4-0.7-1-0.7-1.6c0-0.5,0.2-1,0.5-1.4c0.3-0.4,0.7-0.7,1.2-0.9c0.5-0.2,1.1-0.3,1.7-0.3c0.8,0,1.5,0.2,2.1,0.5
			c0.6,0.3,1,0.8,1.3,1.4l-1.3,0.6c-0.4-0.8-1.1-1.2-2.1-1.2c-0.5,0-0.9,0.1-1.3,0.3c-0.4,0.2-0.6,0.5-0.6,0.9
			c0,0.3,0.1,0.6,0.4,0.8c0.3,0.2,0.6,0.4,1.2,0.5l1.3,0.3c0.9,0.2,1.5,0.6,2,1c0.4,0.4,0.7,1,0.7,1.6c0,0.5-0.2,1-0.5,1.4
			c-0.3,0.4-0.7,0.7-1.3,1c-0.5,0.2-1.1,0.3-1.8,0.3C299.5,168.8,298.7,168.6,298.1,168.1L298.1,168.1z"/>
		<defs>
			<filter id="Adobe_OpacityMaskFilter" filterUnits="userSpaceOnUse" x="190.5" y="53.5" width="69" height="62.7">
				<feColorMatrix  type="matrix" values="1 0 0 0 0  0 1 0 0 0  0 0 1 0 0  0 0 0 1 0"/>
			</filter>
		</defs>
		
			<mask maskUnits="userSpaceOnUse" x="190.5" y="53.5" width="69" height="62.7" id="mask0_521_557_00000100351234424180343490000005864852092263444892_">
			<path class="st2" d="M258.8,115c0.3-0.4,0.4-0.7,0.5-1.2c0.2-0.8,0.2-1.8,0.1-2.3v-55c0-1.7-1.3-3-3-3h-12.6c-1.7,0-3,1.4-3,3
				l-0.2,27.1l-6.1-9.3c-0.6-1.1-1.8-1.9-3-2l-12.3,0c-1.2,0-2.2,0.6-2.9,1.7l-7,10V56.5c0-1.7-1.2-3-2.8-3h-12.8c-1.7,0-3,1.3-3,3
				v55.7c-0.4,2,0.9,4,3.2,4h12.6c0,0,0,0,0,0h0.1c1.2,0,2.2-0.7,2.9-1.8l15.6-23.6l15.9,23.7c0,0.1,0.1,0.1,0.1,0.1c0,0,0,0,0,0.1
				c0,0,0,0,0,0c0.1,0.2,0.2,0.3,0.3,0.5c0.5,0.6,1.1,0.9,1.8,1c0.1,0,0.3,0,0.4,0h12.8c0,0,0,0,0,0
				C257.7,116.1,258.4,115.6,258.8,115L258.8,115z"/>
		</mask>
		<g class="st3">
			
				<linearGradient id="SVGID_00000020360902862860612790000013466418688702331045_" gradientUnits="userSpaceOnUse" x1="180.4583" y1="155.9792" x2="219.4736" y2="116.9782" gradientTransform="matrix(1 0 0 -1 0 221.2756)">
				<stop  offset="0" style="stop-color:#FFFFFF;stop-opacity:0.2"/>
				<stop  offset="0.16" style="stop-color:#FFFFFF;stop-opacity:0.14"/>
				<stop  offset="0.44" style="stop-color:#FFFFFF;stop-opacity:6.000000e-02"/>
				<stop  offset="0.72" style="stop-color:#FFFFFF;stop-opacity:2.000000e-02"/>
				<stop  offset="1" style="stop-color:#FFFFFF;stop-opacity:0"/>
			</linearGradient>
			<path style="opacity:0.3;fill:url(#SVGID_00000020360902862860612790000013466418688702331045_);enable-background:new    ;" d="
				M206.4,53.5h-12.8c-1.7,0-3,1.3-3,3v56.7c0,1.7,1.3,3,3,3h12.8c1.7,0,3-1.3,3-3V56.5C209.4,54.8,208,53.5,206.4,53.5z"/>
			<path class="st5" d="M256.4,116.1h-12.8c-1.7,0-3-1.3-3-3V56.5c0-1.6,1.3-3,3-3h12.8c1.7,0,3,1.3,3,3v56.7
				C259.4,114.8,258.1,116.1,256.4,116.1z"/>
			<g class="st6">
				<path class="st7" d="M259.1,113.1V56.5c0-1.5-1.2-2.8-2.9-3c1.8,0,3.2,1.3,3.2,3v56.7H259.1z"/>
			</g>
			<g class="st6">
				<path class="st8" d="M240.9,113.3h-0.3V56.6c0-1.1,0.4-1.9,1.1-2.4c0.5-0.4,1.1-0.7,1.7-0.7c0.1,0,0.3,0,0.4,0h12.7l0.1,0
					c0.8,0,1.8,0.5,2.3,1.3c0.3,0.5,0.5,1.1,0.5,1.8c0-1.6-1.3-2.9-2.9-2.9h-12.8c-1,0-1.8,0.4-2.3,1c-0.3,0.4-0.5,0.8-0.6,1.4
					c-0.1,0.5,0,1,0,1.1L240.9,113.3L240.9,113.3z"/>
			</g>
			<path class="st9" d="M206.4,116.1l-12.5-0.3c-1.7,0-3.3-1.1-3.3-2.8V56.5c0-1.7,1.3-3,3-3h12.8c1.7,0,3,1.3,3,3v56.7
				C209.4,114.8,208,116.1,206.4,116.1z"/>
			<path class="st8" d="M216.2,77.2l24.7,37.3c0.8,1.4,1.7,1.7,2.9,1.7h12.6c3.2,0,3.4-4,2.9-4.9L234.2,74c-0.7-1.1-1.7-1.7-2.9-1.7
				"/>
			<g class="st10">
				<path class="st11" d="M244,116.1c-1.2,0-2.3-0.2-3.1-1.6l-15.8-23.8l-8.8-13.4l0.2-0.2l24.6,37.2l0.1,0.1
					C242,115.8,242.9,116.1,244,116.1L244,116.1z"/>
			</g>
			<g class="st6">
				<path class="st12" d="M209.4,84.4h-0.1l0.1-28.1l0.1,0V84.4z"/>
			</g>
			<g class="st6">
				<path class="st13" d="M190.9,112.2h-0.3V56.5c0-0.2,0-0.3,0-0.5c0.1-0.9,0.6-1.6,1.2-2c0.5-0.4,1.1-0.6,1.7-0.6h12.9
					c0.9,0,1.7,0.5,2.2,1.1c0.4,0.5,0.7,1.2,0.7,1.7h-0.1c0-1-1.2-2.6-2.8-2.6h-12.9c-0.9,0-1.6,0.4-2.1,1c-0.2,0.3-0.7,1.1-0.7,2.1
					L190.9,112.2L190.9,112.2z"/>
			</g>
			<g class="st6">
				<path class="st14" d="M256.4,116.2h-12.6c-1.2,0-2.1-0.2-2.9-1.7l0.2-0.1c0.8,1.4,1.5,1.6,2.7,1.6h12.6c1.1,0,1.8-0.4,2.4-1.3
					c0.7-1.2,0.6-2.6,0.4-3.1l-25.2-37.4l0.2-0.2l25.2,37.4c0.4,0.6,0.1,2.7-0.3,3.4C258.6,115.4,257.9,116.2,256.4,116.2
					L256.4,116.2z"/>
			</g>
			<path class="st13" d="M206.6,116.1h-12.9c-2.6,0-3.9-2.5-2.9-4.9L216.2,74c0.7-1.1,1.7-1.7,2.9-1.7l12.3,0c2.5,0,4,2.7,2.8,4.9
				l-24.6,37.3C208.8,115.5,207.8,116.1,206.6,116.1z"/>
			<g class="st6">
				<path class="st15" d="M195.8,116.1l-1.9,0c-1.3,0-2.3-0.5-2.9-1.4c-0.6-1-0.7-2.2-0.2-3.5l0,0L216.2,74c0.8-1.2,1.8-1.7,3-1.7
					h12.3c0.5,0,0.9,0.1,1.3,0.3c0.3,0.1,0.6,0.3,0.8,0.6c0.2,0.2,0.4,0.5,0.6,0.8c0,0-1.6-1.4-2.7-1.4h-12.3c-1.1,0-2,0.5-2.8,1.6
					l-25.3,37.3c-0.5,1.1-0.4,2.3,0.2,3.2c0.5,0.8,1.5,1.4,2.6,1.4L195.8,116.1L195.8,116.1z"/>
			</g>
			<g class="st6">
				<path class="st16" d="M206.6,116.1c-0.5,0-10.8,0-12.8,0c-0.2,0-0.3,0-0.3,0c-0.6,0-1.2-0.3-1.7-0.6l-0.5-0.5
					c0.4,0.3,1.5,0.7,2.1,0.8c0.5,0,13.1,0,13.2,0c1.1,0,2.1-0.6,2.8-1.7L234,76.9c0.5-1,0.5-2.1-0.1-3.1c-0.2-0.4-0.5-0.9-0.9-1.2
					c-0.7-0.4-0.5-0.3,0,0c0.4,0.2,0.8,0.6,1.1,1c0.7,1,0.7,2.4,0.2,3.3c0,0,0,0,0,0c-2,3.1-5.4,8.2-9,13.7
					c-7.3,11.1-15.6,23.6-15.6,23.6C208.8,115.5,207.8,116.1,206.6,116.1L206.6,116.1z"/>
			</g>
		</g>
		<g class="st6">
			<path class="st13" d="M196.4,124.5c0-1.1-1-1.9-2-1.9l-14.6-0.1c-0.4,0-0.7-0.1-1-0.3l0,0c-0.1,0-0.2-0.1-0.2-0.1l-0.1-0.1
				c0.2,0.2,0.5,0.3,0.7,0.4c0,0,0.2,0,0.2,0c0.1,0,0.2,0,0.2,0h14.8c0.5,0,0.9,0.2,1.2,0.4c0.2,0.2,0.5,0.4,0.6,0.7
				C196.4,123.8,196.4,124,196.4,124.5L196.4,124.5z"/>
			<path class="st13" d="M167.1,34.6h27.4c0.9,0,2,0.8,2,2c0-1-1.2-1.7-2-1.7l-27.4,0c-0.1,0-0.1,0-0.2,0l-0.3-0.2
				C166.7,34.7,166.9,34.6,167.1,34.6z"/>
		</g>
		<g class="st6">
			<path class="st8" d="M270.1,47.2c1.2,0,2.1,0.7,2.1,1.9l0.1,71.1c0,0.7-0.2,1.3-0.6,1.7c-0.4,0.4-1,0.7-1.8,0.7l-14.5,0
				c-1,0-1.8,0.7-1.8,1.7l0,8.4c0,0.5,0.1,1.1,0.5,1.5c0.5,0.5,1.2,0.6,1.2,0.6c-0.1,0-0.2,0-0.3,0c-1.1-0.2-1.7-1-1.7-2.1l0-8.4
				c0-1.2,0.9-2,2.1-2l14.5,0c0.6,0,1.2-0.2,1.6-0.6c0.4-0.4,0.6-0.9,0.6-1.5l0-71.2C272,48.1,271.1,47.3,270.1,47.2L270.1,47.2z"/>
			<path class="st8" d="M255.3,47.3c-1.3,0-2.1-0.9-2.1-2.1v-8.6c0-0.9,0.8-1.9,2-1.9c0,0,22.5,0,27.2,0c0.6,0,1.1,0.3,1.1,0.3
				l-0.4-0.1c-0.1,0-0.2,0-0.2,0c-1.6,0-27.7,0-27.7,0c-1,0-1.7,0.7-1.7,1.7l-0.1,8.6C253.5,46.2,254.2,47.2,255.3,47.3"/>
		</g>
		<path class="st9" d="M194.4,134.9h-27.4c-1.1,0-2-0.9-2-2V36.6c0-1.1,0.9-2,2-2h27.4c1.1,0,2,0.9,2,2v8.5c0,1.1-0.9,2-2,2h-14.8
			c-1.1,0-2,0.9-2,2v71.2c0,1.1,0.9,2,2,2h14.8c1.1,0,2,0.9,2,2v8.6C196.4,134,195.5,134.9,194.4,134.9L194.4,134.9z"/>
		<g class="st6">
			<path class="st12" d="M167,134.9c-0.8,0-1.4-0.4-1.8-1.1c0.3,0.6,1.1,0.9,1.8,0.9l27.4,0c1.1,0,1.8-0.8,1.8-1.6l0.1-8.6
				c0,0,0-0.7-0.1-0.8l-0.2-0.6l0.1,0.2c0,0,0.3,0.5,0.3,1c0,0.2,0,0.3,0,0.5l0,8.4c0,0.9-0.9,1.8-2,1.8L167,134.9L167,134.9z"/>
			<path class="st12" d="M179.4,122.3c-0.5,0-2.1-0.7-2.1-1.9V49.3c0-1.2,0.9-2.5,2.1-2.5l14.7,0c1,0,2.1-0.5,2.1-1.5v-8.5
				c0-1-0.8-2.1-1.9-2.1c0.7,0,1.4,0.3,1.8,0.8c0.3,0.4,0.4,0.8,0.4,1.3v8.4c0,0,0,0.1,0,0.3c-0.1,0.3-0.2,0.5-0.3,0.8
				c-0.2,0.3-0.5,0.5-0.8,0.7c-0.4,0.2-0.8,0.2-1.3,0.2h-14.5c-0.3,0-0.6,0.1-0.9,0.3c-0.7,0.4-1.1,1.1-1,1.9l0,71.2
				c0,0.4,0.2,0.8,0.4,1.1C178.4,122,178.9,122.3,179.4,122.3L179.4,122.3L179.4,122.3z"/>
		</g>
		<path class="st5" d="M255.3,34.6h27.2c1.1,0,2,0.9,2,2v96.3c0,1.1-0.9,2-2,2h-27.2c-1.1,0-2-0.9-2-2v-8.5c0-1.1,0.9-2,2-2H270
			c1.1,0,2-0.9,2-2V49.3c0-1.1-0.9-2-2-2h-14.8c-1.1,0-2-0.9-2-2v-8.6C253.3,35.5,254.2,34.6,255.3,34.6L255.3,34.6z"/>
		<g class="st6">
			<path class="st7" d="M283.1,134.8c0.6-0.3,1.1-1.2,1.1-1.9l0-96.2c0-0.7-0.4-1.7-1.1-2c0.7,0.2,1.2,0.8,1.3,1.5
				c0,0.2,0,0.3,0,0.5v96.2C284.5,133.8,284,134.5,283.1,134.8L283.1,134.8z"/>
		</g>
		<g class="st6">
			<path class="st7" d="M282.8,134.9c-0.1,0-0.3,0-0.3,0l-26.5,0h-0.2c-0.4,0-0.6,0-0.9,0c-0.2,0-0.5-0.2-0.7-0.3
				c0,0-0.1-0.1-0.1-0.1c-0.1,0-0.1-0.1-0.1-0.1s0.5,0.3,0.8,0.3c0.5,0.1,0.8,0.1,1.1,0.1h0.2l26.6,0c0.4,0,1.1-0.2,1.4-0.4
				l-0.1,0.1c-0.2,0.2-0.5,0.3-0.8,0.4C283,134.9,282.8,134.9,282.8,134.9L282.8,134.9z"/>
		</g>
		<g class="st10">
			<path class="st7" d="M253.3,45.1c0,1,1.1,1.9,2.1,1.9h14.8c1.2,0,1.9,0.9,1.9,2c-0.1-0.9-0.9-1.8-1.9-1.8h-14.8
				c-1.2,0-2-0.9-2.1-1.8L253.3,45.1L253.3,45.1z"/>
		</g>
		<g class="st10">
			<path class="st13" d="M166.6,34.7l0.3,0.2c-1,0.2-1.5,1-1.5,1.7l0,96.2c0,0.7,0.4,1.7,1.1,2c-0.7-0.2-1.2-0.8-1.3-1.5
				c0-0.2,0-0.3,0-0.5V36.7C165.1,35.8,165.7,34.9,166.6,34.7L166.6,34.7z"/>
		</g>
		
			<linearGradient id="SVGID_00000176757228343285618360000007668861280811320724_" gradientUnits="userSpaceOnUse" x1="165.5136" y1="136.4763" x2="196.8746" y2="136.4763" gradientTransform="matrix(1 0 0 -1 0 221.2756)">
			<stop  offset="0" style="stop-color:#FFFFFF;stop-opacity:0.1"/>
			<stop  offset="1" style="stop-color:#FFFFFF;stop-opacity:0"/>
		</linearGradient>
		<path style="fill:url(#SVGID_00000176757228343285618360000007668861280811320724_);" d="M194.9,135h-27.4c-1.1,0-2-0.9-2-2V36.7
			c0-1.1,0.9-2,2-2h27.4c1.1,0,2,0.9,2,2v8.5c0,1.1-0.9,2-2,2h-14.8c-1.1,0-2,0.9-2,2v71.2c0,1.1,0.9,2,2,2h14.8c1.1,0,2,0.9,2,2
			v8.6C196.9,134.1,196,135,194.9,135L194.9,135z"/>
		<g class="st6">
			
				<linearGradient id="SVGID_00000102526892423047600670000001787452678110486923_" gradientUnits="userSpaceOnUse" x1="165.7039" y1="92.2431" x2="196.873" y2="92.2431" gradientTransform="matrix(1 0 0 -1 0 221.2756)">
				<stop  offset="0" style="stop-color:#FFFFFF;stop-opacity:0.1"/>
				<stop  offset="1" style="stop-color:#FFFFFF;stop-opacity:0"/>
			</linearGradient>
			<path style="fill:url(#SVGID_00000102526892423047600670000001787452678110486923_);" d="M167.5,135c-0.8,0-1.4-0.4-1.8-1.1
				c0.3,0.6,1.1,0.9,1.8,0.9l27.4,0c1.1,0,1.8-0.8,1.8-1.6l0.1-8.6c0,0,0-0.7-0.1-0.8l-0.2-0.6l0.1,0.2c0,0,0.3,0.5,0.3,1
				c0,0.2,0,0.3,0,0.5l0,8.4c0,0.9-0.9,1.8-2,1.8L167.5,135L167.5,135z"/>
			
				<linearGradient id="SVGID_00000126291137121483421010000015877834847946491279_" gradientUnits="userSpaceOnUse" x1="177.7277" y1="142.7852" x2="196.8733" y2="142.7852" gradientTransform="matrix(1 0 0 -1 0 221.2756)">
				<stop  offset="0" style="stop-color:#FFFFFF;stop-opacity:0.1"/>
				<stop  offset="1" style="stop-color:#FFFFFF;stop-opacity:0"/>
			</linearGradient>
			<path style="fill:url(#SVGID_00000126291137121483421010000015877834847946491279_);" d="M179.9,122.3c-0.5,0-2.1-0.7-2.1-1.9
				V49.3c0-1.2,0.9-2.5,2.1-2.5l14.7,0c1,0,2.1-0.5,2.1-1.5v-8.5c0-1-0.8-2.1-1.9-2.1c0.7,0,1.4,0.3,1.8,0.8
				c0.3,0.4,0.4,0.8,0.4,1.3v8.4c0,0,0,0.1,0,0.3c-0.1,0.3-0.2,0.5-0.3,0.8c-0.2,0.3-0.5,0.5-0.8,0.7c-0.4,0.2-0.8,0.2-1.3,0.2H180
				c-0.3,0-0.6,0.1-0.9,0.3c-0.7,0.4-1.1,1.1-1,1.9l0,71.2c0,0.4,0.2,0.8,0.4,1.1C178.8,122,179.3,122.3,179.9,122.3L179.9,122.3
				L179.9,122.3z"/>
		</g>
		
			<linearGradient id="SVGID_00000155132517573743716890000005824358810841902244_" gradientUnits="userSpaceOnUse" x1="253.7009" y1="136.4763" x2="284.921" y2="136.4763" gradientTransform="matrix(1 0 0 -1 0 221.2756)">
			<stop  offset="0" style="stop-color:#FFFFFF;stop-opacity:0.1"/>
			<stop  offset="1" style="stop-color:#FFFFFF;stop-opacity:0"/>
		</linearGradient>
		<path style="fill:url(#SVGID_00000155132517573743716890000005824358810841902244_);" d="M255.7,34.6h27.2c1.1,0,2,0.9,2,2v96.3
			c0,1.1-0.9,2-2,2h-27.2c-1.1,0-2-0.9-2-2v-8.5c0-1.1,0.9-2,2-2h14.8c1.1,0,2-0.9,2-2V49.3c0-1.1-0.9-2-2-2h-14.8c-1.1,0-2-0.9-2-2
			v-8.6C253.7,35.5,254.6,34.6,255.7,34.6L255.7,34.6z"/>
		<g class="st6">
			
				<linearGradient id="SVGID_00000124125580758485765540000009687711181147517349_" gradientUnits="userSpaceOnUse" x1="283.5663" y1="136.472" x2="284.9243" y2="136.472" gradientTransform="matrix(1 0 0 -1 0 221.2756)">
				<stop  offset="0" style="stop-color:#FFFFFF;stop-opacity:0.1"/>
				<stop  offset="1" style="stop-color:#FFFFFF;stop-opacity:0"/>
			</linearGradient>
			<path style="fill:url(#SVGID_00000124125580758485765540000009687711181147517349_);" d="M283.6,134.8c0.6-0.3,1.1-1.2,1.1-1.9
				l0-96.2c0-0.7-0.4-1.7-1.1-2c0.7,0.2,1.2,0.8,1.3,1.5c0,0.2,0,0.3,0,0.5v96.2C284.9,133.8,284.4,134.5,283.6,134.8L283.6,134.8z"
				/>
		</g>
		<g class="st6">
			
				<linearGradient id="SVGID_00000101063662111901211400000016032907093188849025_" gradientUnits="userSpaceOnUse" x1="254.2712" y1="86.6339" x2="284.3744" y2="86.6339" gradientTransform="matrix(1 0 0 -1 0 221.2756)">
				<stop  offset="0" style="stop-color:#FFFFFF;stop-opacity:0.1"/>
				<stop  offset="1" style="stop-color:#FFFFFF;stop-opacity:0"/>
			</linearGradient>
			<path style="fill:url(#SVGID_00000101063662111901211400000016032907093188849025_);" d="M283.2,134.9c-0.1,0-0.3,0-0.3,0
				l-26.5,0h-0.2c-0.4,0-0.6,0-0.9,0c-0.2,0-0.5-0.2-0.7-0.3c0,0-0.1-0.1-0.1-0.1c-0.1,0-0.1-0.1-0.1-0.1s0.5,0.3,0.8,0.3
				c0.5,0.1,0.8,0.1,1.1,0.1h0.2l26.6,0c0.4,0,1.1-0.2,1.4-0.4l-0.1,0.1c-0.2,0.2-0.5,0.3-0.8,0.4
				C283.5,134.9,283.3,134.9,283.2,134.9L283.2,134.9z"/>
		</g>
	</g>
</g>
<path class="st1" d="M218.5,186.1c-0.6,0-1.2-0.1-1.6-0.4c-0.5-0.3-0.9-0.7-1.2-1.2c-0.3-0.5-0.4-1.1-0.4-1.7c0-0.6,0.1-1.2,0.4-1.7
	c0.3-0.5,0.7-0.9,1.2-1.2c0.5-0.3,1-0.4,1.6-0.4c0.5,0,0.9,0.1,1.3,0.3c0.4,0.2,0.7,0.4,1,0.7l-0.5,0.5c-0.2-0.3-0.5-0.5-0.8-0.6
	c-0.3-0.1-0.6-0.2-1-0.2c-0.5,0-0.9,0.1-1.2,0.3c-0.4,0.2-0.7,0.5-0.9,0.9c-0.2,0.4-0.3,0.8-0.3,1.3c0,0.5,0.1,1,0.3,1.3
	c0.2,0.4,0.5,0.7,0.9,0.9c0.4,0.2,0.8,0.3,1.2,0.3c0.8,0,1.4-0.3,1.9-0.9l0.5,0.5c-0.3,0.3-0.6,0.6-1.1,0.8
	C219.4,186,219,186.1,218.5,186.1z M221.7,179.7h0.7v1.8l0,0.6h0c0.1-0.2,0.3-0.4,0.6-0.6c0.3-0.2,0.6-0.2,0.9-0.2
	c0.5,0,1,0.2,1.2,0.5c0.3,0.3,0.4,0.7,0.4,1.3v2.8h-0.7v-2.7c0-0.4-0.1-0.7-0.3-0.9s-0.5-0.3-0.8-0.3c-0.2,0-0.4,0.1-0.6,0.2
	c-0.2,0.1-0.3,0.3-0.5,0.5c-0.1,0.2-0.2,0.4-0.2,0.7v2.5h-0.7V179.7z M227.1,180.7c-0.1,0-0.3-0.1-0.4-0.2s-0.2-0.2-0.2-0.4
	c0-0.1,0.1-0.3,0.2-0.4c0.1-0.1,0.2-0.2,0.4-0.2s0.3,0.1,0.4,0.2c0.1,0.1,0.2,0.2,0.2,0.4c0,0.1-0.1,0.3-0.2,0.4
	C227.4,180.7,227.2,180.7,227.1,180.7z M226.7,181.5h0.7v4.4h-0.7V181.5z M228.6,179.7h0.7v6.2h-0.7V179.7z M232.4,186.1
	c-0.4,0-0.8-0.1-1.1-0.3c-0.3-0.2-0.6-0.5-0.8-0.8c-0.2-0.4-0.3-0.8-0.3-1.2c0-0.4,0.1-0.8,0.3-1.2c0.2-0.4,0.4-0.6,0.8-0.9
	c0.3-0.2,0.7-0.3,1.1-0.3c0.4,0,0.8,0.1,1.1,0.3c0.3,0.2,0.6,0.5,0.7,0.8c0.2,0.3,0.3,0.7,0.3,1.2c0,0.1,0,0.2,0,0.2h-3.5
	c0,0.3,0.1,0.6,0.2,0.9c0.1,0.2,0.3,0.4,0.5,0.5c0.2,0.1,0.5,0.2,0.7,0.2c0.6,0,1-0.3,1.3-0.8l0.6,0.3c-0.2,0.4-0.5,0.6-0.8,0.9
	C233.2,186,232.8,186.1,232.4,186.1z M233.6,183.3c0-0.2-0.1-0.4-0.2-0.6c-0.1-0.2-0.2-0.3-0.4-0.5c-0.2-0.1-0.4-0.2-0.7-0.2
	c-0.3,0-0.6,0.1-0.9,0.3c-0.2,0.2-0.4,0.5-0.5,0.9H233.6z"/>
</svg>
